<svg width="441" height="413" viewBox="0 0 441 413" fill="none" xmlns="http://www.w3.org/2000/svg">
<g clip-path="url(#clip0_940_34064)">
<path d="M207.118 99.9413H205.604C204.404 99.9382 203.222 99.6428 202.161 99.0804C201.079 98.525 200.143 97.7215 199.43 96.7355L198.54 95.5185C197.649 94.3055 197.132 92.8584 197.053 91.3553C196.974 89.8523 197.336 88.3589 198.094 87.059C198.856 85.7826 199.969 84.7522 201.3 84.0908C202.65 83.4168 204.163 83.139 205.664 83.2893C207.173 82.8968 208.767 82.9692 210.235 83.4971C212.168 84.2011 213.753 85.6267 214.657 87.4746C215.086 88.4083 215.328 89.4165 215.37 90.4428C215.428 91.4524 215.277 92.4632 214.924 93.4111L214.45 94.8359C213.882 96.3739 212.843 97.6932 211.481 98.6056C210.157 99.5271 208.583 100.024 206.97 100.03L207.118 99.9413Z" fill="#DC5959"/>
<path d="M16.6447 138.41C17.616 138.201 18.5348 137.797 19.3458 137.223C20.1843 136.647 20.9005 135.91 21.4533 135.056C22.0102 134.148 22.3834 133.14 22.5516 132.088C22.7507 131.108 22.7507 130.099 22.5516 129.12L21.9282 126.151C21.5834 124.401 20.6386 122.827 19.2568 121.699C17.8789 120.558 16.1484 119.928 14.3592 119.918C16.0648 119.405 17.5404 118.318 18.5359 116.841C19.5313 115.364 19.9853 113.588 19.8208 111.815C19.8208 110.835 19.6723 109.856 19.613 108.846C19.5136 107.075 18.8119 105.392 17.6241 104.074C16.4364 102.757 14.834 101.885 13.0828 101.604C14.8284 101.349 16.4325 100.5 17.6242 99.1996C18.8392 97.9152 19.5641 96.2447 19.6723 94.48C19.6723 93.5599 19.6723 92.61 19.9098 91.6899C20.1066 89.9642 19.7156 88.2225 18.7999 86.7466C17.8842 85.2707 16.4974 84.1469 14.8638 83.5568C16.5901 83.6293 18.2905 83.1181 19.6907 82.1056C21.0908 81.0932 22.1091 79.6386 22.5812 77.9765C22.8484 77.086 23.1155 76.1956 23.4123 75.3051C23.964 73.6831 23.9537 71.9226 23.3829 70.3073C22.8121 68.6919 21.7142 67.3157 20.266 66.4003C21.932 66.8337 23.6943 66.7086 25.2824 66.0441C26.8584 65.3709 28.1643 64.1904 28.9927 62.69C29.4676 61.8886 29.9128 61.1168 30.4174 60.3451C31.3293 58.8951 31.7266 57.1804 31.5454 55.4772C31.3795 53.765 30.6485 52.1568 29.4676 50.906C30.9778 51.7373 32.7258 52.0304 34.4246 51.7371C36.1191 51.4708 37.6759 50.6454 38.8473 49.3922C39.4706 48.7095 40.1236 48.0565 40.7767 47.4035C41.9992 46.2089 42.7923 44.6435 43.0325 42.9511C43.243 41.2592 42.9103 39.5441 42.0827 38.0535C43.3366 39.1978 44.9328 39.8968 46.6241 40.0422C48.3144 40.1923 50.0065 39.7745 51.4327 38.8549C52.1748 38.38 52.9465 37.905 53.7479 37.4895C55.233 36.6507 56.4011 35.347 57.0724 33.7792C57.7315 32.2115 57.8668 30.473 57.4582 28.8222C58.3727 30.2772 59.7384 31.3927 61.3467 31.9982C62.9714 32.5614 64.7383 32.5614 66.363 31.9982L69.0048 31.2265C70.7151 30.8211 72.2357 29.844 73.3152 28.4568C74.3947 27.0697 74.9684 25.3556 74.9413 23.5981C75.4831 25.249 76.5661 26.6688 78.0152 27.6277C79.4643 28.5866 81.1945 29.0283 82.9259 28.8816L85.7457 28.6738C87.5013 28.6108 89.1803 27.9392 90.4949 26.7741C91.8127 25.608 92.6924 24.0266 92.9883 22.292C93.2169 24.0349 94.0337 25.6476 95.3035 26.8632C96.5504 28.0986 98.1866 28.8642 99.934 29.03L102.902 29.3565C104.638 29.6022 106.405 29.2475 107.911 28.3514C109.417 27.4553 110.572 26.0714 111.184 24.4292C111.123 26.1947 111.656 27.9297 112.697 29.3565C113.725 30.8089 115.225 31.8584 116.942 32.3248C117.862 32.5919 118.812 32.8293 119.732 33.1261C121.417 33.6113 123.217 33.5082 124.836 32.8338C126.454 32.1594 127.795 30.9539 128.637 29.4158C128.29 31.1492 128.541 32.9492 129.349 34.5212C130.157 36.0836 131.478 37.3204 133.089 38.0238L135.701 39.2408C137.31 40.0077 139.134 40.1964 140.866 39.7751C142.595 39.3682 144.128 38.371 145.2 36.9552C144.607 38.6359 144.607 40.469 145.2 42.1497C145.753 43.8497 146.888 45.3001 148.406 46.2459L150.84 47.819C152.33 48.82 154.121 49.2725 155.907 49.0992C157.694 48.926 159.365 48.1377 160.635 46.8692C159.802 48.4547 159.54 50.2782 159.893 52.034C160.216 53.8002 161.165 55.3911 162.564 56.516L164.82 58.4157C166.214 59.5692 167.967 60.2002 169.777 60.2002C171.587 60.2002 173.34 59.5692 174.734 58.4157C173.731 59.9308 173.271 61.7407 173.428 63.5508C173.613 65.3457 174.409 67.0225 175.684 68.3L177.791 70.3778C179.071 71.6761 180.758 72.4938 182.57 72.693C184.373 72.878 186.183 72.415 187.676 71.387C186.513 72.7894 185.873 74.5519 185.865 76.3737C185.872 78.1865 186.513 79.9399 187.676 81.3306L189.605 83.6162C190.228 84.4929 191.027 85.2307 191.95 85.783C192.865 86.3144 193.872 86.667 194.918 86.8219C195.974 86.9416 197.044 86.8508 198.065 86.5548C199.149 86.2785 200.161 85.7724 201.033 85.0706C201.849 84.3716 202.515 83.5138 202.99 82.5494C203.464 81.5849 203.738 80.534 203.793 79.4606C203.851 78.3976 203.679 77.3347 203.289 76.344C202.912 75.3319 202.326 74.4113 201.567 73.6429L199.549 71.2683C198.31 69.8091 196.577 68.8579 194.681 68.5968C192.785 68.3571 190.867 68.8104 189.279 69.8732C190.492 68.3989 191.116 66.527 191.03 64.6193C190.941 62.7017 190.148 60.8842 188.804 59.514L186.577 57.2581C185.215 55.9202 183.409 55.1282 181.502 55.0319C179.59 54.9493 177.714 55.5608 176.218 56.7535C177.281 55.1593 177.723 53.2311 177.46 51.3332C177.198 49.4354 176.249 47.6995 174.793 46.4536L172.33 44.4352C170.846 43.2171 168.964 42.593 167.046 42.6839C165.125 42.7838 163.308 43.5867 161.941 44.9398C162.857 43.2409 163.101 41.2595 162.624 39.3892C162.148 37.5178 160.995 35.8892 159.388 34.8181L156.657 33.0668C155.025 32.0275 153.062 31.6369 151.156 31.972C149.25 32.3071 147.538 33.3436 146.358 34.8775C147.055 33.0726 147.055 31.0723 146.358 29.2675C145.622 27.4649 144.248 25.9962 142.499 25.1416L139.531 23.7762C137.752 22.978 135.737 22.8825 133.891 23.509C132.049 24.1405 130.506 25.4302 129.557 27.1303C129.924 25.2401 129.575 23.2809 128.576 21.6346C127.577 19.9883 126.001 18.773 124.155 18.2255L121.009 17.3647C119.087 16.7662 117.008 16.9359 115.209 17.8382C113.41 18.7404 112.031 20.305 111.362 22.203C111.443 20.2573 110.789 18.3523 109.53 16.8672C108.27 15.382 106.497 14.4258 104.564 14.1887C103.496 14.0403 102.398 13.9215 101.299 13.8325C99.3591 13.6453 97.4194 14.1964 95.8675 15.376C94.3012 16.5418 93.2395 18.262 92.8992 20.1846C92.6547 18.2464 91.6869 16.4721 90.1898 15.2172C88.6926 13.9622 86.7767 13.3192 84.8256 13.4169L81.5011 13.6247C79.5413 13.812 77.7214 14.7219 76.3957 16.1774C75.0792 17.6319 74.3586 19.5288 74.3773 21.4906C73.7614 19.6146 72.442 18.0505 70.6967 17.1272C68.9561 16.2047 66.932 15.9716 65.0273 16.4743C63.929 16.7414 62.8308 17.0679 61.7622 17.3944C59.8433 17.9806 58.2195 19.2754 57.2208 21.0157C56.2423 22.7684 55.9765 24.8306 56.4787 26.7741C55.4168 25.0844 53.7439 23.8698 51.8085 23.3832C49.8731 22.8965 47.8246 23.1756 46.0898 24.162C45.1103 24.726 44.1011 25.3196 43.1216 25.943C41.4291 27.01 40.215 28.6906 39.7337 30.6326C39.2523 32.5746 39.541 34.6276 40.5392 36.3616C39.0794 35.0151 37.152 34.2909 35.1667 34.3431C33.1759 34.3777 31.2743 35.1745 29.8535 36.5693L27.5085 38.9736C26.1519 40.416 25.3966 42.3216 25.3966 44.3017C25.3966 46.2818 26.1519 48.1873 27.5085 49.6297C25.7663 48.6808 23.7265 48.4364 21.8095 48.947C19.899 49.4599 18.2481 50.6663 17.179 52.3308C16.5854 53.2806 16.0214 54.2601 15.4574 55.299C14.4833 57.0201 14.207 59.0495 14.6857 60.9684C15.1338 62.8922 16.3162 64.5646 17.9804 65.6286C16.0688 65.1284 14.0384 65.3747 12.3017 66.3175C10.5651 67.2602 9.25242 68.8287 8.63043 70.7043C8.30392 71.7432 7.94774 72.8117 7.65091 73.91C7.10989 75.8096 7.30053 77.8431 8.1852 79.609C9.07682 81.3649 10.6059 82.7135 12.4595 83.3787H11.9549C10.0452 83.3881 8.20524 84.097 6.78307 85.3715C5.36091 86.646 4.45523 88.3976 4.23741 90.2948C4.23741 91.393 4.02964 92.4913 3.94059 93.6192C3.81458 95.5675 4.41763 97.4931 5.6325 99.0215C6.81262 100.601 8.55623 101.664 10.5004 101.99C8.57607 102.283 6.83158 103.287 5.61156 104.804C4.39154 106.32 3.7847 108.24 3.9109 110.182C3.87278 111.266 3.9524 112.351 4.14837 113.417C4.3259 115.35 5.21437 117.148 6.64171 118.464C8.06892 119.767 9.93315 120.487 11.8658 120.482C10.0436 121.064 8.49449 122.287 7.50634 123.925C6.5182 125.563 6.15821 127.503 6.49328 129.387C6.73075 130.426 6.93853 131.494 7.17599 132.533C7.55609 134.267 8.52011 135.818 9.90678 136.926C11.2709 138.044 12.9814 138.653 14.745 138.648C15.3463 138.722 15.9545 138.722 16.5557 138.648L16.6447 138.41Z" fill="#DC5959"/>
<path d="M243.894 412.647C242.118 412.65 240.395 412.04 239.017 410.921C237.638 409.802 236.687 408.241 236.325 406.502L235.999 405.107C235.813 404.126 235.813 403.12 235.999 402.139C236.161 401.086 236.535 400.076 237.097 399.171C237.649 398.308 238.365 397.562 239.204 396.974C240.047 396.386 240.994 395.963 241.994 395.727C242.49 395.61 242.998 395.55 243.508 395.549C244.051 395.49 244.598 395.49 245.141 395.549C246.185 395.659 247.195 395.983 248.109 396.499C249.008 396.984 249.797 397.652 250.424 398.458C251.053 399.26 251.517 400.178 251.79 401.159C252.072 402.122 252.153 403.132 252.027 404.128L251.849 405.612C251.654 407.445 250.811 409.148 249.473 410.416C248.135 411.683 246.388 412.432 244.547 412.528L243.894 412.647Z" fill="#DC5959"/>
<path d="M246.951 395.846C246.321 395.84 245.693 395.761 245.081 395.609C244.096 395.368 243.168 394.934 242.351 394.332C240.738 393.079 239.674 391.249 239.382 389.227C239.198 388.246 239.198 387.24 239.382 386.259C239.65 385.19 239.917 384.122 240.214 383.083C240.425 382.014 240.86 381.003 241.49 380.115C242.101 379.251 242.883 378.521 243.786 377.97C244.69 377.419 245.696 377.058 246.744 376.909C247.735 376.779 248.743 376.839 249.712 377.087C250.724 377.38 251.671 377.864 252.502 378.512C253.33 379.169 254.016 379.987 254.521 380.916C255.017 381.834 255.32 382.844 255.411 383.884C255.517 384.937 255.395 385.999 255.055 387.001C254.788 387.951 254.55 388.901 254.313 389.969C253.873 391.632 252.894 393.102 251.53 394.149C250.166 395.196 248.493 395.762 246.773 395.757L246.951 395.846ZM252.621 378.037C251.359 378.029 250.118 377.715 249.004 377.123C247.89 376.531 246.936 375.677 246.224 374.635C245.512 373.594 245.063 372.395 244.916 371.142C244.769 369.889 244.927 368.618 245.378 367.44L246.625 364.472C246.977 363.466 247.521 362.538 248.228 361.741C248.969 360.934 249.868 360.287 250.87 359.841C252.345 359.162 253.996 358.959 255.593 359.263C257.189 359.566 258.651 360.36 259.774 361.533C260.519 362.295 261.096 363.205 261.466 364.205C261.826 365.151 261.988 366.161 261.941 367.173C261.874 368.206 261.602 369.215 261.14 370.141C260.754 371.032 260.398 371.952 260.041 372.872C259.444 374.338 258.407 375.582 257.073 376.434C255.777 377.313 254.246 377.779 252.68 377.77L252.621 378.037ZM260.368 360.999C259.126 361.029 257.898 360.732 256.806 360.138C254.992 359.182 253.628 357.551 253.007 355.597C252.387 353.631 252.558 351.502 253.482 349.66L255.025 346.692C256.076 345.007 257.731 343.788 259.652 343.284C261.573 342.78 263.613 343.03 265.356 343.983C267.098 344.936 268.41 346.519 269.022 348.408C269.635 350.297 269.501 352.349 268.649 354.142L267.254 356.754C266.58 358.054 265.551 359.135 264.286 359.871C263.059 360.612 261.653 361.002 260.22 360.999H260.368ZM269.807 344.852C268.426 344.846 267.072 344.466 265.889 343.753C264.661 343.035 263.639 342.013 262.921 340.785C262.267 339.563 261.94 338.193 261.971 336.808C262.013 335.433 262.412 334.093 263.128 332.919C263.722 332.029 264.316 331.138 264.88 330.248C265.411 329.327 266.129 328.529 266.987 327.903C267.874 327.264 268.885 326.819 269.955 326.597C270.994 326.389 272.063 326.389 273.102 326.597C274.158 326.783 275.167 327.177 276.07 327.755C276.945 328.353 277.692 329.12 278.267 330.01C278.835 330.877 279.221 331.85 279.4 332.871C279.578 333.892 279.546 334.939 279.305 335.947C279.093 337.026 278.636 338.041 277.97 338.915L276.218 341.438C275.518 342.492 274.57 343.358 273.458 343.961C272.334 344.56 271.081 344.876 269.807 344.881V344.852ZM280.552 329.535C279.106 329.538 277.687 329.137 276.456 328.378C275.199 327.619 274.173 326.531 273.488 325.231C272.861 323.931 272.604 322.483 272.746 321.046C272.878 319.602 273.412 318.224 274.289 317.069C274.912 316.208 275.595 315.377 276.248 314.516C277.516 312.894 279.375 311.843 281.418 311.592C283.461 311.342 285.52 311.913 287.142 313.18C288.763 314.448 289.815 316.308 290.066 318.35C290.316 320.393 289.745 322.452 288.477 324.074L286.637 326.478C285.901 327.417 284.959 328.173 283.883 328.688C282.807 329.203 281.626 329.463 280.433 329.446L280.552 329.535ZM292.425 315.05C290.558 315.057 288.753 314.381 287.349 313.151C286.583 312.491 285.957 311.683 285.509 310.776C285.036 309.854 284.763 308.843 284.708 307.808C284.636 306.805 284.757 305.797 285.064 304.84C285.396 303.871 285.91 302.974 286.578 302.198L288.655 299.794C290.042 298.337 291.938 297.473 293.947 297.385C295.956 297.296 297.921 297.989 299.43 299.319C300.945 300.643 301.882 302.507 302.042 304.513C302.22 306.518 301.602 308.512 300.321 310.064L298.362 312.349C297.627 313.199 296.715 313.878 295.69 314.338C294.671 314.788 293.569 315.02 292.455 315.021L292.425 315.05ZM305.04 301.218C303.901 301.23 302.773 300.988 301.738 300.511C300.704 300.033 299.788 299.331 299.058 298.456C298.328 297.581 297.801 296.555 297.517 295.451C297.232 294.348 297.196 293.195 297.412 292.076C297.685 290.583 298.386 289.201 299.43 288.099L301.627 285.813C302.348 285.095 303.193 284.512 304.12 284.091C305.056 283.679 306.065 283.457 307.088 283.438C308.105 283.433 309.113 283.624 310.057 284.002C311.01 284.368 311.878 284.923 312.609 285.635C313.334 286.351 313.918 287.197 314.331 288.128C314.744 289.064 314.966 290.074 314.984 291.097C314.986 292.113 314.794 293.12 314.42 294.065C314.054 295.009 313.499 295.867 312.787 296.588L310.68 298.814C309.955 299.584 309.075 300.191 308.098 300.595C307.158 300.993 306.15 301.205 305.129 301.218H305.04ZM318.16 287.891C316.627 287.896 315.128 287.441 313.856 286.585C312.541 285.737 311.508 284.518 310.888 283.082C310.321 281.649 310.177 280.083 310.472 278.57C310.77 277.061 311.515 275.675 312.609 274.593L314.865 272.397C316.348 270.968 318.327 270.17 320.386 270.17C322.445 270.201 324.408 271.044 325.848 272.515C327.277 273.985 328.076 275.956 328.074 278.007C328.065 279.027 327.853 280.035 327.451 280.973C327.048 281.911 326.463 282.759 325.729 283.468L323.532 285.635C322.827 286.372 321.979 286.958 321.039 287.357C320.103 287.766 319.093 287.979 318.071 287.98L318.16 287.891ZM331.576 274.83C330.029 274.841 328.516 274.374 327.243 273.495C325.918 272.658 324.882 271.436 324.275 269.992C323.684 268.557 323.538 266.978 323.856 265.459C324.173 263.94 324.94 262.552 326.056 261.473L328.282 259.307C329.008 258.544 329.875 257.929 330.834 257.496C331.772 257.087 332.78 256.865 333.803 256.843C334.82 256.859 335.826 257.061 336.771 257.437C337.741 257.853 338.619 258.459 339.353 259.218C340.087 259.977 340.662 260.875 341.045 261.859C341.423 262.842 341.595 263.892 341.549 264.944C341.503 265.996 341.241 267.028 340.778 267.974C340.329 268.93 339.681 269.78 338.878 270.467L336.622 272.634C335.184 274.053 333.241 274.843 331.22 274.83H331.576ZM345.023 261.83C344.003 261.838 342.993 261.636 342.054 261.236C341.097 260.824 340.23 260.229 339.502 259.485C338.068 258.008 337.278 256.022 337.305 253.964C337.349 251.908 338.19 249.949 339.65 248.502L341.876 246.335C342.607 245.623 343.476 245.068 344.429 244.703C345.37 244.311 346.378 244.109 347.397 244.109C348.416 244.109 349.425 244.311 350.366 244.703C351.299 245.112 352.145 245.697 352.859 246.424C353.576 247.14 354.133 248 354.491 248.947C354.869 249.891 355.061 250.899 355.055 251.916C355.047 252.936 354.835 253.944 354.432 254.882C354.029 255.82 353.444 256.668 352.71 257.377L350.484 259.574C349.022 260.993 347.061 261.782 345.023 261.77V261.83ZM358.35 248.68C356.818 248.711 355.314 248.265 354.046 247.404C352.719 246.584 351.681 245.37 351.078 243.931C350.485 242.513 350.33 240.95 350.631 239.443C350.933 237.936 351.677 236.553 352.77 235.471L354.937 233.245C356.406 231.901 358.336 231.171 360.327 231.208C362.319 231.244 364.22 232.043 365.64 233.44C367.06 234.837 367.89 236.725 367.958 238.716C368.027 240.707 367.329 242.647 366.008 244.139L363.782 246.395C363.071 247.139 362.212 247.726 361.259 248.116C360.317 248.5 359.308 248.692 358.291 248.68H358.35ZM371.321 235.175C369.822 235.173 368.355 234.729 367.106 233.898C365.796 233.111 364.76 231.94 364.138 230.544C363.577 229.194 363.412 227.711 363.663 226.27C363.9 224.789 364.559 223.407 365.563 222.292L367.641 220.036C368.297 219.191 369.121 218.491 370.061 217.981C371.001 217.47 372.036 217.159 373.102 217.068C374.157 216.989 375.216 217.12 376.219 217.454C377.213 217.813 378.129 218.356 378.92 219.057C379.691 219.771 380.316 220.628 380.76 221.58C381.188 222.514 381.43 223.522 381.473 224.548C381.48 225.565 381.288 226.573 380.909 227.517C380.52 228.503 379.923 229.394 379.158 230.129L376.991 232.473C376.256 233.281 375.355 233.919 374.349 234.343C373.351 234.788 372.265 235.001 371.173 234.967L371.321 235.175ZM383.669 221.135C382.258 221.127 380.874 220.736 379.667 220.004C378.459 219.273 377.473 218.227 376.813 216.979C376.328 216.056 376.026 215.048 375.922 214.011C375.843 213.01 375.954 212.003 376.249 211.043C376.543 210.067 377.027 209.159 377.673 208.371L379.633 205.997C380.966 204.484 382.836 203.549 384.846 203.388C386.856 203.228 388.85 203.854 390.407 205.136C391.973 206.404 392.975 208.239 393.197 210.241C393.428 212.241 392.875 214.251 391.654 215.851L389.636 218.285C388.919 219.177 388.004 219.888 386.964 220.363C385.927 220.86 384.79 221.114 383.64 221.105L383.669 221.135ZM395.157 206.293C394.087 206.297 393.029 206.078 392.048 205.652C391.067 205.227 390.185 204.602 389.457 203.819C388.73 203.035 388.172 202.11 387.82 201.1C387.467 200.09 387.327 199.019 387.409 197.953C387.523 196.519 388.026 195.144 388.864 193.975L390.645 191.512C391.908 190.038 393.672 189.086 395.597 188.84C397.522 188.593 399.47 189.069 401.063 190.176C402.645 191.301 403.755 192.971 404.18 194.866C404.603 196.758 404.296 198.741 403.319 200.416L401.449 203.028C400.753 204.063 399.802 204.901 398.689 205.462C397.594 206.052 396.37 206.358 395.127 206.353L395.157 206.293ZM405.486 190.71C404.098 190.743 402.73 190.383 401.538 189.671C400.29 188.98 399.261 187.952 398.57 186.703C397.894 185.484 397.556 184.106 397.593 182.712C397.629 181.318 398.039 179.96 398.778 178.778C399.312 177.917 399.817 177.056 400.321 176.195C401.373 174.435 403.063 173.148 405.041 172.604C406.031 172.325 407.068 172.25 408.088 172.383C409.108 172.516 410.091 172.853 410.977 173.375C411.871 173.883 412.649 174.57 413.263 175.394C413.882 176.197 414.336 177.115 414.599 178.095C414.862 179.089 414.927 180.124 414.79 181.143C414.652 182.162 414.315 183.144 413.797 184.032C413.263 184.981 412.699 185.902 412.165 186.822C411.497 188.015 410.523 189.01 409.345 189.703C408.166 190.397 406.824 190.765 405.456 190.77L405.486 190.71ZM414.391 174.236C413.085 174.235 411.799 173.909 410.651 173.286C408.923 172.329 407.622 170.752 407.011 168.874C406.399 166.996 406.523 164.956 407.356 163.165C407.801 162.274 408.217 161.354 408.632 160.464C409.49 158.594 411.045 157.134 412.966 156.397C414.401 155.854 415.964 155.75 417.458 156.097C418.952 156.443 420.31 157.226 421.359 158.345C422.408 159.464 423.101 160.869 423.351 162.382C423.6 163.895 423.395 165.449 422.761 166.845L421.396 169.814C420.786 171.17 419.792 172.318 418.536 173.114C417.28 173.911 415.818 174.322 414.331 174.296L414.391 174.236ZM421.366 156.902C419.518 156.894 417.733 156.226 416.334 155.017C414.935 153.809 414.014 152.14 413.738 150.312C413.544 149.101 413.636 147.861 414.005 146.691L414.895 143.901C415.202 142.93 415.685 142.025 416.32 141.229C416.975 140.454 417.771 139.809 418.665 139.33C419.59 138.849 420.597 138.547 421.633 138.439C422.633 138.349 423.64 138.449 424.602 138.736C425.575 139.036 426.482 139.52 427.273 140.161C428.066 140.806 428.722 141.603 429.202 142.506C429.684 143.428 429.976 144.437 430.063 145.474C430.169 146.473 430.068 147.484 429.766 148.442C429.47 149.511 429.113 150.55 428.757 151.618C428.255 153.189 427.268 154.561 425.937 155.536C424.599 156.5 422.986 157.01 421.336 156.991L421.366 156.902ZM426.056 138.795C424.926 138.79 423.812 138.537 422.791 138.053C421.763 137.559 420.852 136.85 420.12 135.975C419.408 135.102 418.882 134.092 418.576 133.007C418.29 131.902 418.239 130.749 418.428 129.623C418.606 128.674 418.784 127.694 418.932 126.655C419.275 124.63 420.401 122.821 422.068 121.621C423.735 120.421 425.808 119.926 427.837 120.244C429.862 120.586 431.671 121.713 432.871 123.38C434.071 125.047 434.566 127.119 434.248 129.148C434.07 130.217 433.892 131.315 433.684 132.384C433.389 134.203 432.451 135.856 431.043 137.044C429.63 138.233 427.843 138.885 425.997 138.884L426.056 138.795ZM428.193 120.214H427.867C425.812 120.121 423.876 119.221 422.481 117.71C421.086 116.198 420.344 114.196 420.416 112.14V109.172C420.44 107.128 421.27 105.176 422.727 103.741C424.184 102.307 426.149 101.506 428.193 101.514C429.213 101.537 430.219 101.749 431.161 102.137C433.054 102.962 434.546 104.497 435.317 106.412C435.7 107.353 435.882 108.364 435.851 109.38V112.704C435.798 114.717 434.968 116.631 433.536 118.047C432.097 119.469 430.157 120.268 428.134 120.273L428.193 120.214ZM427.481 101.603C425.577 101.608 423.737 100.912 422.314 99.6474C420.89 98.3827 419.982 96.638 419.763 94.7464C419.704 93.7492 419.575 92.7573 419.377 91.7781C419.186 89.7891 419.767 87.8027 421.001 86.2309C422.235 84.6591 424.027 83.6226 426.004 83.3362C427.982 83.0499 429.994 83.5358 431.623 84.6931C433.252 85.8504 434.373 87.5903 434.753 89.5519L435.198 92.8467C435.323 93.8607 435.245 94.8893 434.97 95.8732C434.695 96.8571 434.228 97.7769 433.597 98.5797C432.965 99.3825 432.181 100.052 431.289 100.551C430.397 101.049 429.416 101.367 428.401 101.484L427.481 101.603ZM213.766 84.12C212.528 84.1175 211.307 83.8226 210.204 83.2592C208.383 82.3187 207.007 80.6972 206.375 78.7475C205.756 76.7822 205.926 74.6528 206.85 72.811L208.423 69.8427C209.436 67.981 211.143 66.5943 213.173 65.984C214.139 65.7248 215.144 65.6344 216.141 65.7168C217.182 65.8199 218.192 66.1329 219.109 66.637C220.001 67.1204 220.788 67.7762 221.424 68.5663C222.071 69.3654 222.555 70.283 222.849 71.2675C223.11 72.2338 223.201 73.2383 223.116 74.2357C223.017 75.2778 222.703 76.2882 222.196 77.204C221.721 78.0351 221.246 78.8959 220.831 79.7567C220.14 81.0052 219.111 82.0339 217.863 82.7249C216.633 83.4872 215.213 83.8883 213.766 83.8826V84.12ZM423.414 83.378C421.759 83.376 420.147 82.8456 418.814 81.8642C417.426 80.9011 416.385 79.5169 415.845 77.9164C415.578 76.9962 415.281 76.0761 414.955 75.1856C414.626 74.2323 414.485 73.2243 414.539 72.2173C414.591 71.1856 414.854 70.1755 415.311 69.2491C415.758 68.3242 416.383 67.4969 417.151 66.8151C417.912 66.1415 418.8 65.6268 419.763 65.3013C420.717 64.9745 421.725 64.8335 422.732 64.8857C423.763 64.9377 424.773 65.2004 425.7 65.6575C426.618 66.103 427.443 66.7172 428.134 67.4681C428.805 68.2306 429.32 69.1183 429.648 70.0802C430.033 71.1191 430.36 72.1876 430.716 73.2562C431.072 74.4287 431.163 75.6655 430.983 76.8775C430.766 78.0759 430.275 79.2081 429.55 80.1862C428.824 81.1643 427.882 81.962 426.798 82.5172C425.715 83.0741 424.513 83.3593 423.296 83.3483L423.414 83.378ZM223.621 68.3883C221.98 68.3786 220.383 67.86 219.05 66.9041C217.434 65.6659 216.369 63.8436 216.082 61.8284C215.743 59.743 216.245 57.6082 217.477 55.8919L219.465 53.2205C220.703 51.4998 222.57 50.3371 224.66 49.9851C225.65 49.859 226.655 49.9093 227.628 50.1335C228.701 50.3808 229.711 50.8455 230.596 51.4989C231.424 52.1527 232.119 52.9587 232.644 53.8735C233.15 54.7921 233.473 55.8002 233.594 56.8417C233.689 57.89 233.588 58.9468 233.297 59.9584C232.978 60.9597 232.464 61.8879 231.784 62.6892C231.19 63.461 230.596 64.2327 230.032 65.0341C229.318 66.0377 228.371 66.8526 227.272 67.4087C226.174 67.9522 224.965 68.2365 223.74 68.2398L223.621 68.3883ZM416.142 66.3105C414.755 66.3115 413.392 65.9426 412.194 65.2419C410.957 64.5361 409.932 63.511 409.226 62.2737L407.801 59.7803C406.874 58.0164 406.666 55.9623 407.219 54.048C407.772 52.1338 409.045 50.5077 410.77 49.5101C412.466 48.4735 414.501 48.1432 416.439 48.59C418.379 49.0355 420.077 50.203 421.188 51.8551L422.168 53.5767L422.88 54.7936C423.53 55.9863 423.867 57.324 423.86 58.682C423.824 60.0309 423.446 61.3486 422.761 62.5111C422.045 63.6869 421.018 64.6422 419.793 65.2716C418.625 65.9596 417.289 66.309 415.934 66.2808L416.142 66.3105ZM235.821 54.111C234.68 54.1085 233.554 53.8552 232.522 53.369C231.49 52.8828 230.578 52.1756 229.85 51.2975C229.122 50.4195 228.596 49.392 228.31 48.2881C228.023 47.1841 227.983 46.0306 228.192 44.9093C228.49 43.4181 229.199 42.0402 230.24 40.9319L232.615 38.5573C233.733 37.5742 235.109 36.9326 236.581 36.7088C238.053 36.485 239.558 36.6884 240.918 37.2948C242.278 37.9011 243.435 38.885 244.252 40.1296C245.069 41.3741 245.511 42.827 245.527 44.3157C245.557 46.3081 244.812 48.2343 243.449 49.6882L241.401 51.7363C240.673 52.4664 239.804 53.0419 238.848 53.4283C237.901 53.7899 236.894 53.971 235.88 53.9625L235.821 54.111ZM405.545 51.1427C404.423 51.1642 403.308 50.9414 402.28 50.4897C401.26 50.0219 400.35 49.3443 399.609 48.5009L397.68 46.3638C396.37 44.8409 395.7 42.8701 395.81 40.8644C395.921 38.8587 396.804 36.9736 398.273 35.6039C399.742 34.2343 401.685 33.4863 403.693 33.5167C405.702 33.5471 407.621 34.3536 409.048 35.7671L411.304 38.2605C411.982 39.0294 412.497 39.9282 412.818 40.9022C413.149 41.8546 413.28 42.865 413.204 43.8705C413.144 44.9011 412.882 45.9098 412.432 46.8387C411.963 47.7409 411.329 48.5466 410.562 49.2133C409.139 50.3428 407.361 50.9317 405.545 50.8756V51.1427ZM249.831 41.6739C248.213 41.6732 246.636 41.1662 245.321 40.224C244.007 39.2818 243.02 37.9516 242.499 36.4201C241.994 34.8774 241.994 33.2137 242.499 31.6709C242.971 30.1237 243.902 28.7569 245.171 27.7528C246.061 27.0701 246.922 26.4171 247.842 25.7641C249.088 24.9763 250.532 24.5588 252.006 24.5601C253.48 24.5615 254.923 24.9818 256.167 25.7719C257.412 26.5621 258.406 27.6895 259.034 29.023C259.662 30.3564 259.898 31.8409 259.715 33.3035C259.407 35.2951 258.344 37.0916 256.747 38.3198C255.945 38.8838 255.174 39.4775 254.402 40.0711C253.05 41.1147 251.39 41.6786 249.682 41.6739H249.831ZM391.98 38.112C390.277 38.1186 388.619 37.5659 387.261 36.5389L384.946 34.7876C384.124 34.199 383.427 33.4522 382.898 32.5911C382.355 31.679 381.992 30.6714 381.829 29.6228C381.654 28.5922 381.684 27.537 381.919 26.5182C382.153 25.4993 382.587 24.5369 383.194 23.6863C383.794 22.8634 384.551 22.1674 385.421 21.6382C386.33 21.0903 387.339 20.7272 388.389 20.5696C389.369 20.3813 390.377 20.3813 391.357 20.5696C392.35 20.7995 393.288 21.2232 394.118 21.8163C395.038 22.4693 395.899 23.1223 396.789 23.805C398.095 24.7851 399.052 26.1585 399.52 27.7232C399.995 29.2832 399.964 30.9537 399.43 32.4948C398.897 34.0359 397.889 35.3686 396.552 36.3014C395.266 37.3793 393.657 37.9958 391.98 38.0527V38.112ZM265.533 31.2554C263.818 31.2798 262.145 30.7256 260.784 29.6822C259.422 28.6286 258.442 27.1589 257.993 25.497C257.544 23.8324 257.67 22.0649 258.35 20.4806C259.031 18.902 260.208 17.5889 261.704 16.7406L264.672 15.1377C266.489 14.3131 268.552 14.21 270.442 14.8494C272.333 15.4887 273.909 16.8226 274.853 18.5809C275.771 20.3459 275.983 22.394 275.447 24.3097C274.908 26.2346 273.641 27.8742 271.914 28.8808L269.362 30.2759C268.164 30.9391 266.813 31.2768 265.444 31.2554H265.533ZM376.189 28.1387C374.96 28.136 373.75 27.841 372.657 27.2779L370.045 26.0016C368.293 25.0498 366.974 23.4615 366.359 21.5648C365.745 19.6681 365.882 17.6077 366.743 15.8095C367.604 14.0112 369.123 12.6123 370.986 11.9017C372.849 11.1912 374.913 11.2233 376.753 11.9914L379.722 13.4755C381.286 14.2545 382.539 15.5435 383.273 17.1299C384.006 18.7163 384.178 20.5054 383.758 22.2022C383.365 23.9077 382.399 25.427 381.022 26.5072C379.645 27.5873 377.939 28.1631 376.189 28.1387ZM282.452 23.3301C280.658 23.3083 278.931 22.6449 277.584 21.4601C276.543 20.5876 275.749 19.4577 275.28 18.1828C274.811 16.9079 274.685 15.5326 274.913 14.1936C275.141 12.8547 275.716 11.5988 276.58 10.5511C277.445 9.50331 278.569 8.70018 279.84 8.22168L282.808 7.09378C284.752 6.41204 286.887 6.52947 288.745 7.42029C289.668 7.85633 290.495 8.47202 291.178 9.23138C291.861 9.99074 292.386 10.8785 292.722 11.843C293.06 12.8037 293.205 13.8218 293.15 14.8388C293.094 15.8559 292.838 16.8519 292.397 17.77C291.956 18.688 291.338 19.5101 290.579 20.1892C289.82 20.8682 288.934 21.3909 287.973 21.7273L285.183 22.7365C284.324 23.0806 283.406 23.2521 282.481 23.2411L282.452 23.3301ZM358.914 21.0446C358.107 21.0492 357.304 20.9188 356.54 20.6587L353.779 19.8276C352.025 19.0916 350.6 17.7406 349.772 16.0282C349.164 14.7419 348.919 13.3138 349.063 11.8983C349.208 10.4828 349.736 9.13368 350.592 7.99685C351.448 6.86003 352.598 5.9787 353.918 5.44809C355.238 4.91749 356.679 4.7578 358.083 4.9863C359.152 5.3128 360.22 5.60963 361.259 5.96583C362.573 6.38643 363.751 7.15041 364.671 8.17875C365.591 9.20708 366.22 10.4625 366.492 11.8152C366.765 13.1678 366.671 14.5687 366.22 15.873C365.77 17.1772 364.979 18.3375 363.93 19.2339C362.542 20.4512 360.761 21.1259 358.914 21.1336V21.0446ZM300.38 18.0763C298.469 18.061 296.63 17.3425 295.215 16.0579C293.8 14.7664 292.912 12.9981 292.72 11.0919C292.528 9.18567 293.047 7.27575 294.176 5.72836C295.309 4.20996 296.954 3.15501 298.807 2.7601L302.042 2.13679C303.023 1.95127 304.03 1.95127 305.011 2.13679C306.01 2.34565 306.958 2.74907 307.801 3.32408C308.633 3.91922 309.348 4.66408 309.908 5.52061C310.45 6.37129 310.823 7.3187 311.006 8.31077C311.192 9.2915 311.192 10.2983 311.006 11.279C310.787 12.2797 310.374 13.2276 309.789 14.0692C309.213 14.9076 308.477 15.6238 307.623 16.1766C306.761 16.7191 305.804 17.0919 304.803 17.2749L301.835 17.8685C301.312 17.9278 300.784 17.9278 300.261 17.8685L300.38 18.0763ZM340.689 16.8593H339.561L336.593 16.4735C335.578 16.3456 334.599 16.0173 333.712 15.5077C332.826 14.9982 332.049 14.3175 331.428 13.5052C330.151 11.885 329.564 9.82649 329.795 7.77646C330.048 5.73925 331.094 3.88363 332.705 2.61141C334.316 1.33919 336.363 0.752794 338.403 0.979176L341.728 1.39473C343.686 1.72657 345.446 2.78696 346.655 4.36299C347.872 5.88874 348.466 7.81904 348.317 9.76519C348.177 11.7211 347.309 13.5534 345.883 14.9003C344.449 16.2365 342.561 16.979 340.6 16.9781L340.689 16.8593ZM318.932 15.7017C316.953 15.6392 315.073 14.8214 313.678 13.4161C312.274 12.0063 311.465 10.1102 311.421 8.12082C311.377 6.13139 312.1 4.20123 313.44 2.73044C314.764 1.25647 316.601 0.34343 318.575 0.177734H321.93C323.909 0.29882 325.767 1.17132 327.124 2.61684C328.481 4.06237 329.235 5.97171 329.232 7.95455C329.228 9.93226 328.47 11.8342 327.114 13.2734C325.757 14.7126 323.904 15.5809 321.93 15.7017H318.961H318.932Z" fill="#DC5959"/>
<path d="M246.863 386.17C246.536 385.161 246.18 384.152 245.853 383.202C245.226 381.43 243.979 379.943 242.343 379.016C240.707 378.089 238.792 377.784 236.949 378.156C238.608 377.209 239.864 375.689 240.481 373.882C240.92 372.53 240.992 371.085 240.689 369.697C240.579 369.075 240.4 368.467 240.154 367.886C239.709 366.877 239.205 365.867 238.73 364.918C237.828 363.064 236.226 361.644 234.277 360.97C232.704 360.466 231.012 360.466 229.439 360.97C230.795 360.038 231.831 358.712 232.407 357.171C233.082 355.228 232.976 353.099 232.11 351.234C231.636 350.225 231.131 349.216 230.597 348.266C230.135 347.341 229.492 346.517 228.707 345.844C227.922 345.172 227.01 344.663 226.026 344.348C224.825 343.977 223.556 343.886 222.315 344.081C223.015 343.212 223.512 342.198 223.77 341.112C224.014 340.111 224.059 339.071 223.901 338.052C223.743 337.034 223.386 336.056 222.849 335.176L222.642 334.82C222.107 333.899 221.514 333.009 220.95 332.118C219.832 330.484 218.134 329.338 216.201 328.913C215.221 328.716 214.212 328.716 213.232 328.913C213.638 328.229 213.938 327.489 214.123 326.716C214.366 325.713 214.408 324.672 214.245 323.652C214.082 322.633 213.717 321.657 213.173 320.78C212.787 320.216 212.431 319.622 212.045 319.028L211.778 318.672L211.362 317.99C211.362 317.811 211.095 317.663 210.976 317.515L210.205 316.446C209.072 314.941 207.441 313.889 205.604 313.478C203.747 313.068 201.804 313.353 200.142 314.279C201.473 312.929 202.247 311.128 202.309 309.233C202.391 307.34 201.779 305.483 200.588 304.009L198.599 301.545C197.379 300.098 195.678 299.139 193.807 298.844C191.937 298.55 190.024 298.94 188.418 299.943C189.678 298.529 190.374 296.701 190.374 294.807C190.374 292.914 189.678 291.086 188.418 289.672L186.281 287.327C184.998 285.932 183.241 285.064 181.353 284.893C179.468 284.702 177.577 285.209 176.04 286.318C177.206 284.819 177.778 282.942 177.647 281.047C177.515 279.152 176.69 277.372 175.328 276.048L173.072 273.822C171.713 272.509 169.914 271.748 168.026 271.685C166.133 271.603 164.275 272.215 162.802 273.406C163.865 271.841 164.319 269.941 164.078 268.063C163.832 266.183 162.915 264.454 161.496 263.196L159.121 261.118C157.686 259.884 155.85 259.218 153.958 259.245C152.066 259.273 150.249 259.992 148.851 261.266C149.815 259.64 150.153 257.719 149.804 255.862C149.454 254.005 148.44 252.338 146.951 251.174L144.458 249.245C142.95 248.095 141.074 247.536 139.182 247.673C137.291 247.809 135.515 248.632 134.188 249.987C135.059 248.304 135.281 246.361 134.811 244.525C134.36 242.682 133.238 241.074 131.665 240.013L129.053 238.233C127.459 237.185 125.536 236.763 123.65 237.045C121.753 237.322 120.022 238.283 118.782 239.746C119.574 238.034 119.711 236.091 119.168 234.285C118.605 232.478 117.416 230.93 115.814 229.921L113.172 228.319C111.585 227.35 109.704 226.982 107.868 227.281C106.033 227.581 104.366 228.528 103.169 229.951C103.943 228.253 104.059 226.328 103.496 224.549C102.965 222.75 101.793 221.207 100.201 220.215L97.6781 218.583C96.1334 217.578 94.2812 217.157 92.454 217.395C90.6163 217.635 88.9231 218.519 87.6751 219.889C88.4844 218.228 88.6739 216.333 88.2094 214.546C87.7621 212.772 86.713 211.209 85.2411 210.123L82.8072 208.402C81.3069 207.336 79.4795 206.832 77.6451 206.979C75.8108 207.125 74.0865 207.913 72.7745 209.203C73.6722 207.595 73.9681 205.721 73.6091 203.915C73.2501 202.109 72.2597 200.49 70.8154 199.348L68.5002 197.508C67.1014 196.339 65.3364 195.699 63.5135 195.699C61.6906 195.699 59.9256 196.339 58.5268 197.508C59.5346 195.987 59.9564 194.152 59.7141 192.343C59.4996 190.534 58.6471 188.861 57.3098 187.624L55.1727 185.605C53.888 184.355 52.2096 183.59 50.4235 183.439C48.6253 183.301 46.8341 183.782 45.3478 184.804C46.4452 183.389 47.021 181.639 46.9777 179.849C46.9344 178.059 46.2749 176.339 45.1103 174.979L43.2403 172.753C42.1228 171.388 40.573 170.446 38.8473 170.081C37.1076 169.723 35.2977 169.963 33.7122 170.764C34.9851 169.542 35.7931 167.916 35.9978 166.163C36.2083 164.402 35.8103 162.621 34.8698 161.117L33.4154 158.683C32.5434 157.178 31.1937 156.007 29.5805 155.356C27.9672 154.706 26.1829 154.613 24.5106 155.092C25.9027 154.133 26.9447 152.747 27.4789 151.144C28.0284 149.537 28.0284 147.794 27.4789 146.187C27.2117 145.445 26.9743 144.673 26.7665 144.079L26.5884 143.486C26.2898 142.526 25.783 141.644 25.1043 140.903C24.4551 140.138 23.6574 139.512 22.7593 139.063C20.9099 138.153 18.7746 138.014 16.8228 138.677C14.8642 139.363 13.2541 140.791 12.3408 142.655C11.4258 144.499 11.2557 146.625 11.8658 148.591C12.1627 149.511 12.4595 150.431 12.786 151.352C13.4403 153.126 14.7165 154.603 16.3776 155.507C18.1319 156.428 20.1758 156.63 22.0766 156.071C20.4633 157.196 19.3218 158.876 18.8709 160.791C18.4259 162.698 18.723 164.704 19.702 166.401C20.266 167.351 20.83 168.3 21.4236 169.369C22.4511 171.077 24.0998 172.322 26.0244 172.842C27.9005 173.381 29.9126 173.168 31.6344 172.248C30.2645 173.622 29.4415 175.447 29.3192 177.383C29.2276 179.319 29.8509 181.22 31.0705 182.726L33.1482 185.219C34.4105 186.68 36.1625 187.63 38.0755 187.891C39.9935 188.135 41.9329 187.647 43.5074 186.525C42.3125 188.039 41.7298 189.946 41.8749 191.868C41.9904 193.786 42.8283 195.589 44.2198 196.914L46.5054 199.111C47.9035 200.427 49.7404 201.176 51.6598 201.215C53.5793 201.253 55.4447 200.578 56.8943 199.319C55.8494 200.922 55.4349 202.856 55.7309 204.746C56.0268 206.637 57.0122 208.352 58.4971 209.559L60.9014 211.429C62.4 212.614 64.2771 213.215 66.1849 213.121C68.0828 213.008 69.8708 212.194 71.2013 210.835C70.2845 212.507 70.0107 214.456 70.4318 216.315C70.8528 218.174 71.9395 219.815 73.4868 220.928L76.0395 222.738C77.5962 223.826 79.4948 224.311 81.3824 224.104C83.2714 223.899 85.017 223 86.28 221.581C85.4505 223.282 85.2702 225.228 85.773 227.053C86.2757 228.879 87.4269 230.458 89.0108 231.495L91.6526 233.216C93.2467 234.233 95.1566 234.634 97.025 234.344C98.8934 234.055 100.592 233.094 101.804 231.643C101.022 233.359 100.895 235.302 101.448 237.105C101.981 238.911 103.165 240.456 104.772 241.438L107.384 243.041C108.958 244.052 110.855 244.433 112.697 244.11C114.539 243.815 116.209 242.854 117.387 241.409C116.647 243.093 116.521 244.984 117.031 246.752C117.541 248.52 118.654 250.053 120.178 251.085L122.641 252.747C124.146 253.79 125.971 254.263 127.793 254.084C129.614 253.905 131.313 253.084 132.585 251.768C131.757 253.398 131.516 255.264 131.902 257.051C132.334 258.84 133.385 260.417 134.87 261.504L137.215 263.314C138.653 264.453 140.449 265.043 142.282 264.978C144.115 264.913 145.865 264.196 147.218 262.958C146.292 264.529 145.946 266.375 146.238 268.175C146.531 269.975 147.445 271.616 148.821 272.813L151.077 274.772C152.452 275.985 154.213 276.669 156.046 276.701C157.879 276.734 159.663 276.113 161.08 274.95C160.043 276.466 159.578 278.301 159.768 280.127C159.959 281.954 160.792 283.654 162.119 284.923L164.256 287.031C165.559 288.331 167.284 289.122 169.12 289.258C170.956 289.394 172.779 288.867 174.259 287.773C173.141 289.23 172.573 291.035 172.654 292.87C172.736 294.705 173.462 296.453 174.704 297.805L176.723 299.972C177.953 301.334 179.624 302.217 181.442 302.466C183.267 302.731 185.125 302.32 186.666 301.308C185.498 302.719 184.859 304.493 184.859 306.324C184.859 308.156 185.498 309.93 186.666 311.341L188.566 313.656C189.716 315.09 191.339 316.069 193.144 316.417C194.95 316.765 196.82 316.46 198.421 315.556C197.151 316.877 196.385 318.601 196.255 320.428C196.125 322.256 196.639 324.071 197.708 325.559L198.718 326.954L199.935 328.853C200.631 330.098 201.658 331.125 202.903 331.822C204.181 332.457 205.604 332.744 207.029 332.653H207.504C207.018 333.492 206.705 334.421 206.583 335.384C206.34 337.194 206.739 339.032 207.711 340.578L209.255 343.071C209.946 344.32 210.975 345.348 212.223 346.04C213.497 346.692 214.92 346.999 216.349 346.93L217.002 346.782C216.456 347.502 216.026 348.303 215.726 349.156C215.093 351.12 215.264 353.254 216.201 355.093L217.507 357.764C218.114 359.075 219.068 360.194 220.267 361C221.487 361.778 222.888 362.228 224.334 362.306C225.245 362.307 226.15 362.146 227.005 361.831C225.621 362.746 224.578 364.092 224.037 365.66C223.355 367.604 223.472 369.739 224.363 371.596L224.838 372.605L225.64 374.475C226.36 376.161 227.653 377.539 229.291 378.364C230.912 379.189 232.775 379.41 234.544 378.987C232.973 379.889 231.765 381.309 231.126 383.004C230.487 384.699 230.457 386.563 231.042 388.278L231.962 391.038C232.504 392.63 233.545 394.004 234.93 394.956C236.257 395.925 237.859 396.445 239.501 396.44C241.347 396.448 243.128 395.759 244.488 394.511C245.255 393.84 245.881 393.023 246.328 392.107C246.779 391.178 247.041 390.169 247.1 389.139C247.22 388.143 247.139 387.134 246.863 386.17Z" fill="#DC5959"/>
<path d="M190.258 229.239C190.79 227.715 190.832 226.064 190.38 224.516C189.927 222.967 189.003 221.599 187.735 220.601L185.153 218.583C183.505 217.471 181.493 217.032 179.531 217.358C177.569 217.683 175.807 218.748 174.606 220.333C173.405 221.918 172.857 223.902 173.074 225.879C173.291 227.856 174.257 229.674 175.773 230.96C176.515 231.524 177.317 232.118 178.118 232.771C179.476 233.872 181.179 234.46 182.927 234.433C184.544 234.448 186.124 233.949 187.439 233.008C188.745 232.073 189.731 230.756 190.258 229.239Z" fill="#FFFAF1"/>
<path d="M174.972 218.434C175.411 216.783 175.307 215.034 174.675 213.447C174.03 211.866 172.883 210.542 171.41 209.678L168.709 208.075C167.832 207.556 166.861 207.216 165.853 207.072C164.844 206.929 163.817 206.986 162.83 207.239C161.843 207.493 160.916 207.938 160.102 208.55C159.287 209.162 158.601 209.928 158.082 210.806C157.564 211.683 157.223 212.653 157.08 213.662C156.937 214.67 156.993 215.697 157.247 216.684C157.501 217.671 157.946 218.598 158.558 219.413C159.17 220.227 159.936 220.913 160.813 221.432L163.455 223.005C164.659 223.719 166.033 224.098 167.432 224.103C169.139 224.133 170.804 223.578 172.152 222.53C173.515 221.51 174.506 220.071 174.972 218.434Z" fill="#FFFAF1"/>
<path d="M158.468 204.098C157.838 202.518 156.713 201.185 155.262 200.298L152.561 198.695C150.818 197.665 148.742 197.356 146.774 197.833C144.806 198.309 143.102 199.535 142.024 201.248C142.541 200.36 142.873 199.376 143.001 198.356C143.128 197.335 143.048 196.3 142.766 195.312C142.249 193.361 140.993 191.69 139.263 190.651L136.562 189.049C134.767 188.008 132.637 187.71 130.625 188.217C128.654 188.701 126.949 189.937 125.876 191.661C126.39 190.799 126.728 189.843 126.871 188.85C127.014 187.856 126.958 186.844 126.707 185.873C126.224 183.901 124.988 182.196 123.264 181.123L120.711 179.52C119.055 178.474 117.065 178.092 115.139 178.45C113.213 178.807 111.493 179.879 110.323 181.45C111.405 179.835 111.839 177.871 111.536 175.95C111.233 174.03 110.217 172.294 108.69 171.091L106.464 169.25C105.054 168.057 103.265 167.405 101.418 167.41C99.5724 167.415 97.787 168.066 96.3718 169.25C97.5992 167.896 98.3043 166.15 98.3605 164.323C98.4109 162.499 97.823 160.714 96.6983 159.277C96.164 158.565 95.6 157.823 95.0954 157.08C94.0797 155.643 92.603 154.595 90.9102 154.112C89.2041 153.628 87.3848 153.733 85.7454 154.409C87.2283 153.478 88.3569 152.078 88.9511 150.432C89.5446 148.771 89.5446 146.957 88.9511 145.296C88.684 144.465 88.4168 143.634 88.1794 142.803C87.717 141.244 86.779 139.868 85.4965 138.867C84.214 137.867 82.651 137.292 81.0259 137.223C82.6355 136.89 84.0996 136.059 85.2111 134.848C86.3132 133.64 86.9998 132.111 87.1702 130.485C87.2553 129.677 87.3841 128.874 87.5561 128.081C87.8707 126.557 87.7154 124.973 87.1108 123.539C86.4983 122.091 85.464 120.86 84.1426 120.007C85.6403 120.478 87.2466 120.477 88.7438 120.004C90.2411 119.532 91.5569 118.61 92.5131 117.365C93.0177 116.742 93.5519 116.118 94.0862 115.525C95.1856 114.355 95.8914 112.871 96.1046 111.28C96.3394 109.678 96.0478 108.043 95.2735 106.62C96.3705 107.831 97.8173 108.67 99.4131 109.021C101.009 109.372 102.674 109.218 104.178 108.579C104.92 108.253 105.692 107.985 106.434 107.718C107.926 107.25 109.241 106.339 110.204 105.106C111.178 103.874 111.748 102.371 111.836 100.802C112.187 102.332 112.995 103.719 114.152 104.78C115.303 105.844 116.754 106.528 118.307 106.739C119.138 106.739 119.94 107.006 120.741 107.184C122.491 107.637 124.345 107.457 125.975 106.674C127.604 105.892 128.905 104.559 129.646 102.91C129.144 104.656 129.259 106.522 129.972 108.193C130.69 109.847 131.959 111.201 133.564 112.022L136.117 113.388C137.826 114.345 139.837 114.611 141.737 114.13C143.636 113.65 145.279 112.46 146.328 110.805C145.381 112.536 145.107 114.554 145.556 116.475C146.026 118.388 147.203 120.053 148.851 121.135L151.344 122.797C152.997 123.914 155.017 124.35 156.984 124.014C158.939 123.695 160.694 122.631 161.881 121.046C160.776 122.704 160.341 124.719 160.664 126.685C160.989 128.638 162.052 130.392 163.632 131.583L166.007 133.423C167.581 134.633 169.552 135.205 171.528 135.026C173.506 134.833 175.333 133.887 176.633 132.385C175.419 133.955 174.846 135.929 175.031 137.905C175.213 139.88 176.149 141.708 177.643 143.011L179.869 145C180.625 145.686 181.514 146.212 182.481 146.543C183.429 146.895 184.44 147.047 185.449 146.988C186.478 146.939 187.487 146.687 188.417 146.246C189.332 145.81 190.15 145.194 190.822 144.436C192.195 142.911 192.91 140.905 192.81 138.855C192.761 137.827 192.509 136.818 192.068 135.887C191.632 134.964 191.017 134.136 190.258 133.453L187.853 131.316C187.083 130.655 186.198 130.142 185.241 129.802C184.289 129.472 183.278 129.341 182.273 129.416C181.254 129.475 180.256 129.736 179.339 130.185C178.422 130.633 177.603 131.26 176.93 132.028C177.57 131.234 178.035 130.313 178.296 129.327C178.574 128.364 178.654 127.354 178.533 126.359C178.423 125.315 178.1 124.305 177.583 123.391C177.067 122.504 176.381 121.728 175.565 121.105L173.042 119.146C171.394 117.91 169.324 117.375 167.283 117.659C165.243 117.943 163.397 119.021 162.148 120.66C162.735 119.823 163.139 118.873 163.336 117.87C163.536 116.89 163.536 115.881 163.336 114.901C163.15 113.9 162.756 112.95 162.178 112.111C161.623 111.249 160.895 110.511 160.041 109.945L157.369 108.164C156.527 107.6 155.577 107.216 154.579 107.036C153.598 106.854 152.592 106.854 151.611 107.036C150.56 107.234 149.56 107.645 148.672 108.242C147.784 108.839 147.027 109.61 146.446 110.508C146.946 109.622 147.266 108.646 147.388 107.636C147.509 106.626 147.43 105.602 147.154 104.622C146.878 103.643 146.411 102.728 145.78 101.93C145.15 101.132 144.367 100.466 143.478 99.9712L140.51 98.398C139.582 97.9356 138.575 97.6536 137.541 97.5669C136.538 97.4839 135.528 97.605 134.573 97.9231C133.606 98.2446 132.709 98.7484 131.931 99.4072C131.147 100.065 130.501 100.872 130.032 101.782V101.544C130.232 100.565 130.232 99.5554 130.032 98.5761C129.864 97.5243 129.49 96.5158 128.934 95.6078C128.371 94.7436 127.645 93.9975 126.796 93.4114C125.961 92.8157 125.011 92.4012 124.006 92.1944C122.789 91.9272 121.572 91.6898 120.355 91.5117C119.365 91.3791 118.359 91.4294 117.387 91.66C116.388 91.9049 115.449 92.3491 114.627 92.9661C113.796 93.5689 113.098 94.337 112.578 95.222C112.034 96.1307 111.681 97.1406 111.54 98.1902V98.6355L111.361 97.9528C110.735 95.9893 109.354 94.3549 107.523 93.4088C105.692 92.4626 103.56 92.2821 101.596 92.9068C100.409 93.2926 99.1916 93.7379 98.034 94.2425C97.102 94.6411 96.2555 95.2155 95.5407 95.9343C94.827 96.6586 94.2623 97.5158 93.8784 98.4574C93.491 99.3992 93.2894 100.407 93.2848 101.426C93.3081 102.445 93.5194 103.451 93.9081 104.394C93.989 104.619 94.0883 104.838 94.205 105.047L93.73 104.572C92.99 103.879 92.1233 103.335 91.1773 102.969C90.2283 102.616 89.2214 102.445 88.2091 102.464C87.1809 102.493 86.1699 102.735 85.2408 103.177C84.3152 103.598 83.4789 104.192 82.7772 104.928C81.9164 105.937 81.0853 106.917 80.3135 107.896C79.6852 108.698 79.2212 109.616 78.9481 110.598C78.68 111.563 78.6093 112.572 78.7403 113.566C78.8501 114.61 79.1735 115.62 79.6902 116.534C80.1759 117.425 80.8433 118.203 81.6492 118.82L82.2429 119.235L81.5008 119.057C79.503 118.651 77.4254 119.045 75.7155 120.156C74.0056 121.266 72.8001 123.003 72.3586 124.994C72.0914 126.24 71.9133 127.487 71.7649 128.734C71.555 130.786 72.151 132.841 73.4272 134.462C74.083 135.247 74.8873 135.895 75.7939 136.369C76.7005 136.843 77.6917 137.133 78.7107 137.223C77.7293 137.498 76.8122 137.965 76.0124 138.597C75.2125 139.229 74.5457 140.013 74.0505 140.903C73.5425 141.796 73.2155 142.779 73.0882 143.798C72.9609 144.816 73.0357 145.85 73.3084 146.84C73.6349 147.998 73.9911 149.155 74.377 150.283C74.7021 151.253 75.2281 152.143 75.9205 152.895C76.5915 153.663 77.4089 154.288 78.3248 154.735C79.241 155.188 80.2394 155.45 81.2596 155.506C82.2799 155.562 83.301 155.411 84.2613 155.062L84.6472 155.032L84.2613 155.299C83.4306 155.887 82.7245 156.634 82.1835 157.496C81.641 158.357 81.2682 159.314 81.0853 160.316C80.8854 161.295 80.8854 162.305 81.0853 163.284C81.2918 164.28 81.7065 165.22 82.3022 166.045C82.9849 166.994 83.6973 167.944 84.4097 168.835C85.0403 169.635 85.8156 170.31 86.6953 170.823C87.6091 171.34 88.6195 171.663 89.6635 171.773C90.6588 171.896 91.6686 171.815 92.6318 171.536C93.6132 171.263 94.531 170.799 95.3329 170.17L95.6297 169.903L95.4516 170.111C94.1366 171.694 93.497 173.73 93.6707 175.78C93.7521 176.798 94.0356 177.79 94.5044 178.697C94.9733 179.604 95.6182 180.409 96.4015 181.064L98.9542 183.171C100.574 184.448 102.633 185.035 104.683 184.804C105.705 184.688 106.693 184.365 107.586 183.855C108.479 183.344 109.259 182.657 109.877 181.836L110.055 181.598V181.747C108.956 183.487 108.592 185.593 109.043 187.601C109.494 189.61 110.722 191.358 112.46 192.462L115.161 194.154C116.037 194.7 117.013 195.068 118.031 195.236C119.05 195.404 120.092 195.369 121.097 195.133C122.088 194.899 123.022 194.471 123.847 193.875C124.672 193.28 125.372 192.527 125.906 191.661C124.864 193.433 124.566 195.546 125.078 197.537C125.59 199.529 126.869 201.237 128.637 202.287L131.278 203.86C133.022 204.907 135.108 205.226 137.085 204.748C139.062 204.271 140.772 203.035 141.845 201.307C140.85 203.121 140.615 205.257 141.192 207.244C141.461 208.216 141.92 209.126 142.541 209.921C143.163 210.715 143.935 211.379 144.814 211.874L147.455 213.448C148.66 214.161 150.033 214.54 151.433 214.546L151.166 214.694C152.864 214.695 154.513 214.131 155.856 213.091C157.17 212.069 158.121 210.653 158.57 209.05C159.018 207.447 158.941 205.742 158.349 204.187L158.468 204.098Z" fill="#FFFAF1"/>
<path d="M189.19 146.81C188.779 147.745 188.567 148.756 188.567 149.778C188.561 150.795 188.752 151.803 189.13 152.746C189.511 153.69 190.076 154.548 190.793 155.269L192.9 157.436C193.618 158.193 194.488 158.79 195.453 159.187C196.634 159.686 197.918 159.891 199.196 159.782C200.473 159.673 201.705 159.255 202.784 158.564C204.089 157.731 205.121 156.534 205.753 155.121C206.364 153.715 206.541 152.158 206.261 150.65C205.98 149.143 205.255 147.754 204.18 146.661L201.924 144.376C201.209 143.657 200.362 143.083 199.43 142.684C198.486 142.301 197.481 142.09 196.462 142.061C195.444 142.065 194.436 142.267 193.494 142.654C192.55 143.035 191.693 143.6 190.971 144.316C190.21 145.015 189.604 145.864 189.19 146.81Z" fill="#FFFAF1"/>
<path d="M347.902 125.35C347.533 124.398 346.978 123.531 346.269 122.797C345.557 122.06 344.711 121.466 343.776 121.046C342.84 120.633 341.831 120.411 340.808 120.393H340.303C340.5 120.365 340.69 120.305 340.867 120.215C341.834 119.893 342.731 119.389 343.509 118.73C344.276 118.059 344.902 117.242 345.349 116.326C345.826 115.405 346.099 114.393 346.151 113.358C346.223 112.353 346.092 111.343 345.765 110.39C345.349 109.202 344.904 108.045 344.429 106.917C344.03 105.977 343.445 105.129 342.707 104.423C341.986 103.707 341.128 103.141 340.184 102.761C339.242 102.38 338.232 102.198 337.216 102.227C336.196 102.242 335.188 102.453 334.248 102.85L333.832 103.028C334.081 102.845 334.309 102.636 334.515 102.405C335.25 101.692 335.827 100.833 336.207 99.882C336.6 98.9417 336.801 97.9327 336.8 96.9137C336.796 95.8952 336.594 94.8873 336.207 93.9454C335.82 92.9983 335.244 92.1399 334.515 91.4224C333.509 90.4409 332.438 89.5286 331.309 88.6916C330.475 88.1012 329.539 87.6686 328.549 87.4153C327.568 87.2298 326.561 87.2298 325.58 87.4153C324.532 87.5787 323.524 87.9414 322.612 88.4839C321.742 89.013 320.986 89.7091 320.386 90.532C320.147 90.8746 319.929 91.2315 319.733 91.6005C319.763 91.3243 319.763 91.0457 319.733 90.7694C319.709 89.7406 319.466 88.7287 319.021 87.8012C318.606 86.873 317.999 86.0433 317.24 85.3672C316.503 84.6618 315.622 84.125 314.657 83.794C313.708 83.4456 312.7 83.2843 311.689 83.3191C310.502 83.3191 309.285 83.4675 308.008 83.6159C306.964 83.7257 305.954 84.049 305.04 84.5657C304.146 85.057 303.36 85.7225 302.728 86.523C302.096 87.3234 301.63 88.2425 301.36 89.2259C301.096 90.1918 301.015 91.1986 301.122 92.1942V92.4316C300.279 90.5584 298.728 89.095 296.81 88.3609C294.891 87.6268 292.76 87.6816 290.882 88.5135L287.735 89.9977C285.904 90.9379 284.516 92.5609 283.872 94.516C283.228 96.4711 283.379 98.6012 284.292 100.446L284.47 100.772C284.411 100.667 284.341 100.567 284.262 100.476C283.646 99.6697 282.867 99.0023 281.977 98.5166C281.063 97.9999 280.053 97.6765 279.009 97.5667C278.013 97.4453 277.004 97.5261 276.04 97.8042C275.059 98.0773 274.141 98.5413 273.339 99.1696C272.419 99.8819 271.529 100.594 270.668 101.336C269.9 102.014 269.266 102.83 268.798 103.741C268.331 104.665 268.058 105.675 267.996 106.709C267.91 107.712 268.031 108.723 268.353 109.677C268.674 110.644 269.178 111.541 269.837 112.319L270.074 112.586C269.334 111.893 268.467 111.349 267.521 110.983C266.58 110.601 265.569 110.419 264.553 110.449C262.492 110.511 260.539 111.386 259.121 112.883C258.379 113.655 257.637 114.426 256.925 115.228C255.533 116.745 254.797 118.751 254.877 120.808C254.93 121.833 255.172 122.839 255.589 123.776C256.024 124.693 256.628 125.519 257.37 126.21C255.771 124.914 253.723 124.306 251.675 124.517C249.628 124.728 247.748 125.743 246.447 127.338L244.458 129.802C243.181 131.422 242.594 133.481 242.826 135.531C242.945 136.552 243.269 137.538 243.779 138.431C244.289 139.324 244.975 140.104 245.794 140.725C244.099 139.568 242.018 139.122 239.997 139.482C237.977 139.843 236.179 140.982 234.989 142.655L233.179 145.296C232.611 146.14 232.217 147.089 232.021 148.086C231.822 149.066 231.822 150.075 232.021 151.055C232.196 152.109 232.58 153.118 233.149 154.023C233.722 154.863 234.446 155.588 235.286 156.16C234.408 155.62 233.429 155.262 232.409 155.109C231.389 154.956 230.348 155.011 229.35 155.27C228.36 155.514 227.431 155.959 226.619 156.576C225.796 157.175 225.1 157.932 224.571 158.802C224.007 159.692 223.472 160.612 222.938 161.533C222.413 162.445 222.079 163.455 221.959 164.501C221.774 165.482 221.774 166.488 221.959 167.469C222.503 169.446 223.789 171.137 225.55 172.189C224.785 171.798 223.964 171.528 223.116 171.387C221.909 170.917 220.603 170.754 219.317 170.912C218.036 171.091 216.816 171.569 215.755 172.307C216.543 171.659 217.196 170.861 217.674 169.959C218.153 169.057 218.449 168.07 218.545 167.054C218.721 165.008 218.093 162.974 216.794 161.384L214.716 158.891C213.378 157.316 211.469 156.338 209.409 156.171C207.35 156.004 205.308 156.662 203.734 158C202.159 159.339 201.181 161.248 201.014 163.307C200.847 165.367 201.505 167.408 202.843 168.983L204.772 171.239C206.041 172.797 207.867 173.798 209.862 174.031C211.858 174.264 213.865 173.709 215.458 172.486C213.851 173.705 212.786 175.506 212.49 177.502C212.223 179.481 212.722 181.488 213.885 183.112L214.954 184.626C215.726 185.699 216.759 186.558 217.955 187.12C219.151 187.683 220.471 187.932 221.791 187.843C223.11 187.754 224.384 187.33 225.494 186.611C226.604 185.892 227.512 184.903 228.133 183.735L228.726 182.607C229.659 180.847 229.872 178.793 229.32 176.879C228.751 174.968 227.478 173.345 225.758 172.337C227.525 173.284 229.594 173.497 231.516 172.931C233.444 172.379 235.082 171.103 236.088 169.369C236.592 168.508 237.097 167.647 237.631 166.786C238.666 165.064 238.993 163.007 238.545 161.049C238.096 159.09 236.907 157.38 235.227 156.279C236.925 157.362 238.98 157.736 240.95 157.319C242.921 156.903 244.649 155.73 245.764 154.053L247.486 151.559C248.619 149.946 249.087 147.958 248.792 146.009C248.467 144.04 247.406 142.268 245.823 141.052C247.442 142.181 249.431 142.651 251.383 142.364C253.336 142.077 255.106 141.056 256.331 139.508L258.201 137.163C259.455 135.639 260.079 133.693 259.946 131.724C259.814 129.754 258.935 127.91 257.489 126.567C259.016 127.81 260.955 128.435 262.921 128.318C264.886 128.168 266.722 127.277 268.056 125.825L270.133 123.598C271.501 122.168 272.265 120.265 272.265 118.285C272.265 116.306 271.501 114.403 270.133 112.972C271.518 114.326 273.362 115.11 275.298 115.168C277.234 115.21 279.116 114.533 280.582 113.269L282.749 111.518C284.208 110.382 285.209 108.76 285.568 106.946C285.928 105.12 285.622 103.225 284.708 101.604C285.805 103.091 287.392 104.142 289.19 104.572C290.983 105.032 292.883 104.82 294.533 103.978C295.334 103.563 296.165 103.147 297.026 102.791C298.627 102.067 299.936 100.822 300.739 99.2586C301.542 97.6955 301.792 95.9064 301.449 94.1829C302.079 95.7867 303.215 97.1413 304.684 98.0416C306.166 98.9248 307.899 99.2903 309.611 99.0805C310.442 99.0805 311.274 98.9024 312.105 98.8728C313.491 98.8228 314.836 98.3914 315.993 97.6261C317.151 96.8973 318.094 95.8727 318.724 94.6578C318.634 95.9629 318.878 97.2694 319.434 98.4537C319.99 99.6379 320.838 100.661 321.9 101.425C322.427 101.811 322.924 102.238 323.384 102.702C324.695 103.812 326.33 104.468 328.044 104.572C329.637 104.821 331.268 104.561 332.704 103.83C331.401 104.908 330.476 106.374 330.063 108.015C329.654 109.656 329.79 111.385 330.448 112.942C330.797 113.693 331.094 114.467 331.339 115.258C331.869 116.863 332.912 118.25 334.307 119.205C335.69 120.158 337.349 120.627 339.027 120.541C337.366 120.944 335.885 121.883 334.812 123.212C333.751 124.551 333.148 126.195 333.09 127.902V130.514C332.92 132.281 333.368 134.052 334.359 135.525C335.35 136.998 336.821 138.08 338.522 138.588C336.764 138.343 334.975 138.707 333.452 139.62C331.929 140.532 330.765 141.938 330.152 143.604C329.825 144.465 329.499 145.326 329.142 146.157C328.423 147.853 328.327 149.748 328.87 151.508C329.413 153.268 330.561 154.779 332.111 155.774C330.419 154.992 328.502 154.843 326.71 155.355C324.917 155.867 323.368 157.006 322.345 158.564C321.84 159.366 321.306 160.138 320.742 160.939C319.645 162.547 319.17 164.498 319.407 166.43C319.675 168.354 320.648 170.11 322.137 171.358C320.568 170.194 318.618 169.665 316.676 169.873C314.733 170.1 312.945 171.042 311.659 172.515C311.006 173.287 310.353 174.029 309.671 174.771C308.37 176.266 307.672 178.192 307.712 180.173C307.769 182.147 308.576 184.026 309.967 185.427C308.505 184.089 306.577 183.375 304.595 183.438C302.611 183.491 300.722 184.298 299.311 185.694L297.115 187.831C295.674 189.252 294.843 191.177 294.798 193.2C294.754 195.223 295.5 197.184 296.877 198.666C295.472 197.215 293.554 196.373 291.535 196.321C289.508 196.264 287.538 196.999 286.043 198.369L283.758 200.476C282.266 201.867 281.38 203.788 281.291 205.826C281.203 207.863 281.918 209.854 283.283 211.37C281.863 209.901 279.924 209.047 277.882 208.992C275.84 208.936 273.857 209.683 272.36 211.073L270.074 213.21C268.949 214.281 268.173 215.668 267.848 217.187C267.508 218.704 267.632 220.288 268.203 221.733C268.775 223.178 269.768 224.417 271.054 225.291C272.476 226.256 274.18 226.719 275.895 226.606C277.61 226.493 279.239 225.811 280.522 224.667L282.749 222.56C284.238 221.174 285.123 219.258 285.212 217.225C285.301 215.193 284.587 213.207 283.223 211.696C284.625 213.172 286.553 214.035 288.588 214.096C290.623 214.157 292.599 213.412 294.087 212.023L296.403 209.915C297.909 208.509 298.795 206.563 298.867 204.504C298.94 202.445 298.192 200.441 296.788 198.933C297.508 199.656 298.364 200.23 299.306 200.622C300.249 201.013 301.259 201.215 302.28 201.215C303.3 201.215 304.311 201.013 305.253 200.622C306.195 200.23 307.051 199.656 307.771 198.933L310.027 196.707C310.747 195.985 311.317 195.129 311.704 194.186C312.091 193.244 312.288 192.234 312.283 191.215C312.28 189.16 311.47 187.188 310.027 185.724C310.788 186.404 311.676 186.929 312.639 187.267C313.59 187.605 314.6 187.746 315.607 187.683C316.636 187.634 317.645 187.382 318.575 186.941C319.491 186.494 320.309 185.868 320.98 185.101C321.692 184.299 322.404 183.498 323.087 182.667C323.759 181.904 324.273 181.016 324.601 180.055C324.914 179.098 325.045 178.091 324.987 177.086C324.906 176.056 324.634 175.049 324.185 174.118C323.727 173.201 323.092 172.384 322.315 171.714H322.464C323.304 172.307 324.252 172.731 325.254 172.96C326.263 173.191 327.308 173.218 328.327 173.039C329.346 172.861 330.32 172.481 331.19 171.922C332.047 171.361 332.792 170.647 333.387 169.814L335.257 167.054C335.82 166.211 336.204 165.261 336.385 164.263C336.594 163.285 336.594 162.274 336.385 161.295C335.947 159.289 334.743 157.532 333.031 156.398L332.853 156.249L333.12 156.398C335.022 157.176 337.154 157.176 339.056 156.398C340.956 155.595 342.468 154.083 343.271 152.183C343.717 151.144 344.132 150.046 344.518 148.977C344.873 148.018 345.034 146.999 344.993 145.978C344.952 144.956 344.709 143.953 344.279 143.026C343.848 142.099 343.239 141.267 342.485 140.576C341.732 139.886 340.849 139.351 339.888 139.004C340.906 139.093 341.933 138.979 342.907 138.668C343.881 138.357 344.784 137.856 345.563 137.193C346.342 136.53 346.981 135.719 347.444 134.807C347.906 133.895 348.183 132.9 348.258 131.88C348.377 130.692 348.436 129.505 348.436 128.318C348.453 127.303 348.271 126.295 347.902 125.35Z" fill="#FFFAF1"/>
<path d="M204.06 242.002C204.65 240.575 204.805 239.005 204.506 237.491C204.184 235.983 203.431 234.601 202.339 233.513C201.567 232.741 200.766 231.97 199.994 231.257C198.48 229.902 196.504 229.179 194.473 229.239C193.448 229.268 192.439 229.5 191.505 229.922C190.575 230.335 189.737 230.931 189.041 231.673C188.339 232.412 187.785 233.278 187.409 234.225C187.049 235.173 186.878 236.181 186.904 237.194C186.923 238.217 187.145 239.226 187.557 240.162C187.971 241.092 188.566 241.929 189.308 242.626L191.445 244.703C192.351 245.598 193.464 246.255 194.684 246.618C195.904 246.98 197.195 247.036 198.442 246.781C199.69 246.525 200.855 245.967 201.835 245.154C202.814 244.341 203.579 243.3 204.06 242.121V242.002Z" fill="#FFFAF1"/>
<path d="M264.316 222.263C262.32 222.261 260.395 223.002 258.914 224.341L256.718 226.596C256.016 227.335 255.461 228.202 255.085 229.149C254.734 230.1 254.554 231.104 254.551 232.117C254.587 233.141 254.818 234.149 255.234 235.086C255.568 235.857 256.041 236.561 256.629 237.163C255.016 235.92 252.982 235.355 250.959 235.59C248.875 235.844 246.976 236.911 245.676 238.558L243.598 241.23C242.373 242.854 241.831 244.892 242.086 246.91C242.341 248.927 243.373 250.766 244.963 252.034C244.764 251.918 244.556 251.818 244.34 251.737L243.717 251.411L242.797 251.114L242.262 250.966C241.946 250.936 241.628 250.936 241.312 250.966H240.748C240.472 250.95 240.194 250.95 239.917 250.966C239.701 250.936 239.481 250.936 239.264 250.966H238.849L237.81 251.292C236.434 251.885 235.251 252.852 234.396 254.082L232.526 257.051C231.461 258.717 231.068 260.725 231.426 262.67C231.784 264.615 232.867 266.351 234.456 267.529C233.55 267.215 232.594 267.074 231.636 267.113C230.416 267.178 229.228 267.524 228.163 268.122C228.161 266.731 227.781 265.367 227.065 264.174C226.501 263.106 225.937 262.156 225.343 261.206C224.184 259.591 222.455 258.477 220.505 258.09C218.572 257.751 216.583 258.152 214.933 259.214C213.283 260.275 212.093 261.919 211.6 263.818C211.111 265.743 211.376 267.782 212.342 269.517C212.847 270.319 213.351 271.15 213.826 271.981C214.799 273.597 216.323 274.808 218.116 275.392C219.91 275.975 221.855 275.892 223.592 275.157C221.956 276.07 220.694 277.531 220.03 279.283C219.378 281.045 219.378 282.982 220.03 284.745C220.357 285.605 220.683 286.496 220.98 287.357C221.538 288.915 222.578 290.256 223.948 291.186C225.262 292.132 226.841 292.641 228.46 292.64C229.385 292.702 230.313 292.581 231.191 292.284C232.958 291.699 234.448 290.484 235.376 288.87C236.322 287.271 236.659 285.385 236.326 283.557C237.286 282.766 238.032 281.745 238.493 280.589C238.849 279.698 239.235 278.808 239.621 277.917C240.265 276.403 240.408 274.721 240.029 273.119C239.65 271.517 238.768 270.078 237.513 269.013C238.886 269.362 240.329 269.329 241.685 268.915C243.04 268.502 244.256 267.724 245.201 266.668C245.634 266.241 246.012 265.762 246.329 265.243L247.902 262.75C248.582 261.657 248.979 260.413 249.06 259.128C249.152 257.815 248.896 256.5 248.318 255.317C247.739 254.134 246.859 253.124 245.765 252.39C246.609 253.012 247.57 253.458 248.589 253.702C249.609 253.947 250.667 253.985 251.701 253.815C253.696 253.517 255.496 252.452 256.718 250.847L258.35 248.799C258.847 248.191 259.247 247.51 259.538 246.781C259.788 246.139 259.967 245.472 260.072 244.792C260.226 243.357 260.011 241.906 259.449 240.577C259.06 239.79 258.538 239.077 257.905 238.469C259.403 239.68 261.303 240.28 263.225 240.148C265.146 240.016 266.946 239.162 268.264 237.757L270.401 235.59C271.733 234.103 272.426 232.152 272.331 230.158C272.248 228.17 271.409 226.289 269.986 224.899C268.562 223.509 266.662 222.714 264.673 222.678L264.316 222.263Z" fill="#FFFAF1"/>
<path d="M216.556 255.953C217.181 254.631 217.418 253.159 217.239 251.708C217.054 250.26 216.468 248.893 215.547 247.76C214.865 246.9 214.182 246.069 213.469 245.237C212.104 243.803 210.242 242.943 208.264 242.834C206.286 242.725 204.341 243.375 202.826 244.652C201.311 245.928 200.34 247.735 200.111 249.702C199.883 251.67 200.414 253.651 201.596 255.24C202.249 255.983 202.873 256.754 203.496 257.526C204.197 258.443 205.101 259.185 206.138 259.693C207.162 260.205 208.288 260.479 209.433 260.494H209.611C211.075 260.498 212.509 260.075 213.737 259.277C214.972 258.458 215.95 257.305 216.556 255.953Z" fill="#FFFAF1"/>
</g>
<defs>
<clipPath id="clip0_940_34064">
<rect width="441" height="412.706" fill="white"/>
</clipPath>
</defs>
</svg>
