<svg width="342" height="660" viewBox="0 0 342 660" fill="none" xmlns="http://www.w3.org/2000/svg">
<g clip-path="url(#clip0_972_43509)">
<path d="M326.448 451.953C307.584 443.999 288.051 437.736 268.078 433.236C248.232 428.813 226.733 427.987 208.152 419.236C192.684 411.944 178.967 397.895 181.399 379.568C181.964 375.12 183.837 370.939 186.781 367.555C189.725 364.172 193.608 361.737 197.937 360.561C208.395 357.255 219.291 359.588 229.846 361.095C234.71 361.727 238.067 354.144 232.667 352.88C216.713 349.137 197.84 348.018 184.463 359.199C179.3 363.809 175.6 369.828 173.82 376.514C172.039 383.2 172.256 390.261 174.443 396.826C185.242 431.632 228.435 434.209 258.058 440.091C279.97 444.406 301.468 450.602 322.314 458.612C326.156 460.119 330.631 453.751 326.448 451.953Z" fill="#751A32"/>
<path d="M216.081 356.72C224.496 346.463 243.418 337.275 256.308 334.212C269.33 331.165 282.992 332.445 295.221 337.858C306.836 343.807 317.427 351.569 326.595 360.852C327.671 361.692 328.51 362.797 329.027 364.061C329.167 365.2 329.037 366.357 328.648 367.438C328.26 368.519 327.623 369.493 326.789 370.283C319.771 378.947 310.663 385.685 300.321 389.863C289.98 394.041 278.745 395.521 267.674 394.165C256.603 392.808 246.058 388.66 237.033 382.109C228.008 375.559 220.798 366.822 216.081 356.72Z" fill="#EA2A6A"/>
<path d="M218.658 359.248C229.439 348.361 243.285 341.017 258.35 338.199C267.137 336.678 276.15 337.082 284.767 339.381C293.383 341.681 301.397 345.822 308.256 351.519C311.466 353.998 314.531 356.623 317.546 359.346C320.562 362.068 325.621 364.207 322.751 368.582C317.651 374.854 311.155 379.848 303.781 383.166C289.631 390.271 273.275 391.613 258.155 386.909C241.539 381.48 227.732 369.726 219.728 354.193C217.491 349.672 210.487 354.533 212.432 358.762C216.35 367.132 221.902 374.635 228.761 380.831C235.621 387.027 243.65 391.791 252.376 394.843C261.103 397.895 270.353 399.174 279.581 398.605C288.809 398.035 297.831 395.629 306.116 391.527C314.724 387.351 322.401 381.481 328.685 374.27C330.255 372.867 331.503 371.141 332.343 369.211C333.182 367.281 333.594 365.193 333.55 363.089C332.917 358.519 328.394 355.602 325.232 352.734C309.277 338.539 291.864 327.553 269.781 327.796C259.125 328.194 248.677 330.862 239.136 335.623C229.303 339.697 220.523 345.947 213.454 353.901C210.146 358.276 214.913 363.478 218.658 359.248Z" fill="#751A32"/>
<path d="M383.992 471.349C387.602 475.61 389.822 480.872 390.353 486.43C390.885 491.988 389.703 497.576 386.966 502.443C384.229 507.31 380.068 511.225 375.041 513.661C370.015 516.097 364.363 516.939 358.844 516.073C363.217 527.398 364.984 539.562 364.016 551.662C363.047 563.763 359.368 575.491 353.25 585.978C350.672 590.402 346.343 595.117 341.333 593.902C333.648 592.103 334.377 579.318 327.324 575.769C324.925 574.94 322.318 574.94 319.919 575.769C317.52 576.597 315.469 578.206 314.094 580.339C311.408 584.618 309.003 589.067 306.895 593.658C305.797 595.936 304.088 597.865 301.958 599.23C299.828 600.595 297.361 601.342 294.832 601.388C292.054 600.712 289.584 599.122 287.82 596.873C286.055 594.625 285.099 591.849 285.103 588.992C285.247 583.274 285.898 577.58 287.049 571.977C287.624 569.185 287.479 566.292 286.628 563.571C285.777 560.85 284.248 558.39 282.185 556.421C276.64 552.289 268.517 554.671 263.166 558.997C258.392 562.917 254.82 568.102 252.859 573.957C250.897 579.812 250.626 586.101 252.076 592.103C253.389 597.256 255.919 601.825 256.94 607.173C257.682 609.712 257.73 612.404 257.08 614.968C256.43 617.532 255.105 619.876 253.243 621.757C251.534 623.009 249.534 623.804 247.432 624.068C245.329 624.332 243.194 624.055 241.229 623.264C237.368 621.6 234.013 618.951 231.5 615.583C226.89 610.064 223.561 603.592 221.754 596.633C219.948 589.674 219.708 582.401 221.052 575.338C222.397 568.276 225.292 561.599 229.53 555.789C233.767 549.979 239.241 545.181 245.558 541.74C248.885 540.276 251.994 538.362 254.8 536.052C256.148 534.873 257.096 533.304 257.515 531.562C257.933 529.821 257.8 527.993 257.135 526.33C253.876 520.545 244.585 523.413 238.845 520.059C236.65 518.488 235.067 516.206 234.367 513.6C233.666 510.994 233.891 508.226 235.003 505.767C237.393 500.89 241.349 496.954 246.239 494.586C254.022 490.365 262.706 488.073 271.56 487.904C280.414 487.735 289.179 489.693 297.118 493.614C295.631 491.045 295.171 488.009 295.83 485.115C296.488 482.221 298.217 479.683 300.669 478.009C305.717 474.785 311.823 473.652 317.693 474.849C328.126 476.507 337.751 481.469 345.15 489.004C352.549 496.539 357.332 506.249 358.795 516.705C390.704 514.809 394.352 497.016 383.992 471.349Z" fill="#4E6E98"/>
<path d="M381.17 474.12C384.078 477.717 385.847 482.098 386.249 486.705C386.651 491.311 385.669 495.933 383.428 499.979C381.188 504.024 377.79 507.31 373.67 509.415C369.551 511.52 364.897 512.348 360.303 511.795C359.444 511.697 358.574 511.819 357.775 512.149C356.976 512.478 356.274 513.006 355.734 513.681C355.194 514.356 354.835 515.158 354.69 516.01C354.545 516.862 354.619 517.736 354.904 518.552C361.53 536.403 361.409 556.057 354.564 573.825C353.007 577.86 345.905 595.457 340.214 587.096C336.955 582.235 336.42 576.061 331.264 572.512C328.276 570.855 324.812 570.264 321.443 570.839C318.074 571.413 315.001 573.118 312.732 575.672C309.931 578.595 307.689 582.005 306.117 585.735C304.317 589.381 301.787 596.332 296.875 596.672C291.962 597.013 290.162 591.325 289.822 587.679C289.865 582.886 290.419 578.112 291.475 573.436C292.4 566.193 291.476 557.734 285.493 552.824C272.311 542.226 255.092 557.685 249.741 569.401C246.578 576.23 245.512 583.842 246.677 591.277C247.796 597.985 257.135 612.326 250.568 618.062C242.64 625.014 232.036 608.632 229.361 603.09C225.334 594.914 223.908 585.702 225.274 576.693C226.285 570.469 228.651 564.544 232.207 559.335C235.762 554.127 240.42 549.763 245.85 546.553C250.084 544.603 254.042 542.102 257.621 539.115C262.874 533.816 264.82 524.045 257.621 519.67C251.736 516.073 238.456 519.67 238.7 509.607C238.943 499.544 255.043 494.683 263.02 493.371C273.715 491.572 284.704 493.171 294.443 497.94C298.285 499.788 304.171 494.78 301.593 490.745C296.437 482.238 307.916 478.835 314.337 479.322C321.1 479.97 327.607 482.237 333.307 485.933C338.893 489.516 343.642 494.256 347.234 499.834C350.826 505.412 353.176 511.696 354.126 518.26C354.315 519.236 354.867 520.104 355.67 520.69C356.473 521.276 357.467 521.536 358.455 521.42C370.81 520.496 385.305 516.559 391.045 504.503C396.347 493.273 392.017 480.196 387.542 469.404C385.791 465.321 379.711 469.648 381.122 473.391C384.186 481.606 388.029 492.836 384.04 501.44C380.052 510.045 367.891 511.163 359.282 511.795L363.611 515.003C362.239 505.417 358.288 496.383 352.18 488.866C346.072 481.349 338.035 475.631 328.929 472.321C319.882 469.162 308.743 467.8 300.134 472.905C292.4 477.766 287.73 488.023 292.789 496.239L299.939 489.093C290.981 484.735 281.085 482.658 271.13 483.049C261.175 483.439 251.471 486.283 242.883 491.329C239.03 493.28 235.755 496.204 233.383 499.811C231.011 503.419 229.624 507.584 229.361 511.892C229.447 515.733 231.012 519.392 233.73 522.108C236.448 524.825 240.11 526.389 243.953 526.476C247.212 526.914 255.335 526.476 252.417 532.164C250.325 536.053 243.029 537.949 239.478 540.428C231.85 545.641 225.647 552.675 221.432 560.894C217.032 569.482 215.039 579.1 215.664 588.728C216.289 598.356 219.509 607.635 224.983 615.583C230.187 622.923 237.775 629.826 247.406 628.903C251.61 628.377 255.472 626.321 258.254 623.128C261.035 619.935 262.542 615.83 262.485 611.597C262.826 601.242 255.481 592.589 256.065 582.186C256.551 573.144 261.902 562.255 271.241 559.484C285.833 555.108 282.331 574.068 281.212 581.846C280.093 589.624 280.969 599.735 288.703 604.305C296.437 608.875 305.581 603.819 310.251 597.013C313.364 592.492 321.001 570.86 328.151 583.159C331.751 589.43 333.307 598.325 342.306 598.568C352.423 598.86 358.212 587.291 361.762 579.513C366.367 569.173 368.875 558.023 369.142 546.709C369.409 535.394 367.43 524.139 363.319 513.594L357.871 520.399C364.366 521.249 370.968 520.167 376.851 517.288C382.734 514.408 387.637 509.86 390.947 504.211C393.99 498.581 395.265 492.165 394.605 485.801C393.946 479.436 391.383 473.417 387.251 468.529C383.992 465.175 378.592 470.717 381.17 474.12Z" fill="#4E6E98"/>
<path d="M374.214 446.265C375.006 442.977 374.831 439.53 373.709 436.339C372.587 433.148 370.567 430.348 367.89 428.278C362.484 424.212 356.644 420.755 350.477 417.972C344.258 415.15 339.303 410.128 336.565 403.875C334.292 410.825 333.998 418.271 335.716 425.379C337.434 432.488 341.096 438.979 346.294 444.126C349.145 447.047 352.72 449.16 356.654 450.251C358.627 450.771 360.695 450.808 362.685 450.36C364.675 449.911 366.527 448.99 368.085 447.675L374.214 446.265Z" fill="#54418E"/>
<path d="M377.571 446.751C381.559 435.618 373.193 425.847 364.194 420.451C355.196 415.055 343.911 411.944 340.166 401.638C338.901 398.089 333.939 400.715 333.112 403.145C330.718 410.313 330.239 417.982 331.723 425.392C333.208 432.802 336.604 439.696 341.576 445.389C343.994 448.548 347.182 451.033 350.836 452.608C354.489 454.182 358.486 454.794 362.443 454.383C364.657 454.018 366.737 453.079 368.475 451.661L369.399 450.786C370.275 450.056 370.031 450.105 368.767 450.786H369.594C371.393 450.445 373.145 449.862 374.944 449.473C379.03 448.549 378.398 442.084 373.825 443.105C375.479 442.716 373.096 443.105 372.658 443.105L369.642 443.737C367.405 444.174 365.605 445.292 363.368 445.924C357.19 447.674 351.45 443.105 347.559 438.827C343.475 434.187 340.662 428.57 339.392 422.522C338.122 416.475 338.439 410.201 340.312 404.312L333.259 405.819C336.761 415.541 346.44 420.403 355.05 424.681C359.691 426.672 363.89 429.563 367.405 433.188C368.967 434.79 370.122 436.742 370.773 438.882C371.425 441.022 371.554 443.287 371.15 445.487C369.74 450.348 376.014 450.786 377.571 446.751Z" fill="#54418E"/>
<path d="M519.068 6.17385C570.92 70.1482 584.151 156.533 562.846 234.994C542.75 308.958 496.168 372.967 431.951 414.861C393.03 439.815 348.14 453.914 301.933 455.696C296.679 455.696 295.026 464.932 301.203 464.64C382.921 460.703 458.12 419.625 509.388 356.526C561.532 292.357 590.522 206.799 579.043 124.06C573.182 78.6484 554.18 35.9361 524.37 1.1669C521.695 -1.94431 516.636 3.20837 519.165 6.3682L519.068 6.17385Z" fill="#EA2A6A"/>
<path d="M266.862 458.515C289.306 460.829 311.864 461.868 334.425 461.626C348.58 461.626 363.124 461.626 376.257 466.731C389.39 471.835 401.064 483.454 401.988 497.551C401.74 504.665 400.959 511.749 399.653 518.746C399.021 525.844 400.675 533.962 406.609 537.851C416.337 544.317 432.633 535.858 440.318 544.803C441.885 546.881 442.795 549.378 442.934 551.976C443.072 554.574 442.433 557.154 441.096 559.387C438.341 563.797 434.096 567.074 429.13 568.623C424.207 570.398 418.929 570.965 413.741 570.277C408.552 569.589 403.605 567.666 399.315 564.669C395.025 561.673 391.518 557.691 389.088 553.058C386.658 548.425 385.377 543.277 385.353 538.046C385.353 527.691 390.217 517.969 393.281 508.149C396.346 498.329 397.854 486.613 391.774 478.252C386.131 460.217 303.878 461.335 266.862 458.515Z" fill="#3B9278"/>
<path d="M265.695 462.307C286 464.567 306.408 465.784 326.838 465.953C346.537 465.953 369.739 464.252 385.888 477.863C389.451 480.568 392.359 484.039 394.396 488.019C396.434 491.999 397.549 496.387 397.66 500.857C397.66 509.996 393.963 518.795 395.617 528.031C396.093 531.706 397.609 535.168 399.987 538.01C402.366 540.852 405.507 542.956 409.042 544.074C416.63 546.213 424.655 543.393 432.146 545.386C434.202 545.808 436.008 547.027 437.166 548.776C438.324 550.526 438.74 552.663 438.324 554.719C437.607 557.158 436.235 559.355 434.357 561.069C432.479 562.783 430.167 563.95 427.671 564.442C422.914 565.898 417.86 566.099 413.002 565.025C408.144 563.952 403.646 561.641 399.946 558.317C396.408 555.123 393.68 551.135 391.989 546.68C390.297 542.226 389.69 537.433 390.217 532.698C391.433 522.587 396.589 513.253 398.876 503.53C401.6 491.863 400.821 476.745 389.877 469.502C380.982 464.671 371.172 461.756 361.081 460.946C330.34 456.084 299.063 456.862 268.079 454.723C263.798 454.432 260.636 461.821 265.549 462.161C295.075 464.203 324.843 463.911 354.223 467.8C363.951 469.113 378.057 470.036 385.791 476.648C388.006 479.038 389.699 481.863 390.763 484.943C391.826 488.023 392.237 491.29 391.969 494.537C391.434 505.524 385.84 515.246 383.067 525.698C378.203 543.83 384.429 564.102 402.913 571.783C418.089 578.102 444.161 573.97 447.177 554.428C447.886 550.647 447.165 546.736 445.151 543.457C443.137 540.178 439.976 537.764 436.281 536.684C428.304 534.4 419.354 537.9 411.62 534.934C401.21 530.9 404.178 516.996 405.539 508.635C407.606 499.543 406.31 490.012 401.891 481.801C389.974 461.432 365.556 457.494 343.911 457.105C318.52 456.765 293.421 457.105 268.079 454.675C263.847 454.383 260.491 461.724 265.695 462.307Z" fill="#3B9278"/>
<path d="M143.022 237.279C145.745 221.236 158.587 215.792 168.364 219.924C171.596 221.379 174.158 224.001 175.538 227.264C176.918 230.527 177.014 234.191 175.806 237.522C179.893 235.161 184.711 234.4 189.328 235.385C193.944 236.37 198.031 239.032 200.797 242.855C203.563 246.678 204.812 251.391 204.302 256.081C203.791 260.771 201.559 265.105 198.035 268.245C200.589 269.419 202.878 271.096 204.767 273.176C206.657 275.256 208.106 277.696 209.028 280.35C209.892 283.027 210.033 285.885 209.435 288.635C208.837 291.384 207.522 293.926 205.623 296.003C203.642 297.998 201.06 299.287 198.275 299.674C195.489 300.06 192.653 299.522 190.204 298.142C191.611 300.408 192.524 302.946 192.883 305.589C193.241 308.233 193.038 310.922 192.286 313.481C191.534 316.041 190.249 318.412 188.517 320.442C186.785 322.471 184.644 324.113 182.234 325.259C179.824 326.404 177.198 327.029 174.53 327.092C171.862 327.155 169.211 326.654 166.749 325.622C164.288 324.591 162.072 323.052 160.246 321.106C158.421 319.16 157.026 316.851 156.154 314.33C156.056 317.794 154.955 321.154 152.986 324.006C151.017 326.858 148.263 329.079 145.058 330.401C141.853 331.722 138.333 332.087 134.925 331.453C131.516 330.818 128.365 329.21 125.851 326.823C123.339 324.45 121.55 321.415 120.689 318.069C119.829 314.723 119.932 311.203 120.987 307.913C117.455 309.664 113.388 310.006 109.613 308.868C105.839 307.731 102.639 305.2 100.663 301.79C98.6879 298.38 98.0854 294.347 98.9782 290.509C99.871 286.671 102.192 283.317 105.47 281.127C102.174 278.854 99.7769 275.502 98.6929 271.649C97.6089 267.796 97.9062 263.686 99.5337 260.029C101.161 256.373 104.016 253.399 107.605 251.624C111.194 249.849 115.291 249.383 119.187 250.307C116.931 247.22 115.978 243.371 116.533 239.589C117.088 235.807 119.106 232.394 122.154 230.084C128.38 225.612 138.741 231.007 143.022 237.279Z" fill="#3B9278"/>
<path d="M148.372 238.251C149.783 232.32 152.604 225.757 159.511 225.125C160.997 224.892 162.518 225.036 163.935 225.542C165.351 226.048 166.618 226.901 167.62 228.023C168.621 229.145 169.326 230.5 169.668 231.964C170.01 233.428 169.98 234.954 169.58 236.404C167.391 242.48 173.812 245.348 178.578 242.918C191.225 236.501 203.823 254.099 193.803 264.016C193.034 264.65 192.424 265.455 192.021 266.367C191.618 267.278 191.433 268.271 191.48 269.266C191.527 270.261 191.805 271.232 192.293 272.101C192.781 272.97 193.464 273.714 194.29 274.273C196.835 275.319 199.024 277.078 200.595 279.337C202.165 281.596 203.05 284.26 203.142 287.01C203.197 288.103 202.945 289.19 202.415 290.148C201.885 291.106 201.098 291.897 200.143 292.432C199.188 292.968 198.102 293.226 197.007 293.178C195.913 293.131 194.854 292.779 193.949 292.163C188.404 289.197 181.497 296.489 184.221 301.885C185.129 303.359 185.7 305.016 185.893 306.736C186.087 308.456 185.898 310.198 185.341 311.837C184.783 313.476 183.871 314.972 182.668 316.218C181.465 317.464 180.003 318.429 178.384 319.045C175.095 319.9 171.607 319.509 168.589 317.947C165.572 316.386 163.24 313.764 162.04 310.587C159.073 304.073 149.831 309.469 149.442 314.865C148.226 332.025 122.835 324.587 127.164 309.031C128.429 304.656 124.878 299.697 119.965 301.836C117.784 302.811 115.335 303.009 113.025 302.399C110.715 301.789 108.684 300.406 107.27 298.482C105.997 296.696 105.405 294.514 105.601 292.329C105.797 290.145 106.769 288.103 108.34 286.572C110.967 284.579 114.517 278.988 110.626 276.023C101.725 269.266 104.06 254.39 117.047 256.578C121.911 257.453 128.575 251.085 125.316 246.321C123.468 243.647 121.327 236.598 125.705 234.897C130.083 233.195 135.871 239.272 138.011 242.091C142.243 247.633 152.993 238.786 149.053 233.341C142.778 224.639 130.423 217.639 119.868 224.056C115.059 227.134 111.65 231.976 110.377 237.54C109.103 243.104 110.066 248.945 113.058 253.807L121.327 243.55C115.922 242.58 110.349 243.364 105.421 245.787C100.494 248.21 96.4717 252.144 93.9421 257.015C91.4772 261.862 90.7601 267.41 91.9121 272.723C93.064 278.037 96.0144 282.791 100.265 286.183L102.6 275.634C98.0318 278.767 94.701 283.395 93.1824 288.72C91.6639 294.045 92.0531 299.733 94.2827 304.802C96.9603 309.464 101.262 312.979 106.367 314.673C111.472 316.368 117.023 316.125 121.96 313.99L114.907 306.843C113.759 310.098 113.34 313.565 113.679 316.999C114.019 320.433 115.109 323.751 116.871 326.718C118.634 329.685 121.027 332.229 123.881 334.171C126.736 336.113 129.982 337.405 133.39 337.956C136.918 338.358 140.492 338.042 143.894 337.025C147.296 336.008 150.457 334.312 153.184 332.04C155.912 329.769 158.151 326.968 159.765 323.807C161.379 320.645 162.335 317.19 162.575 313.649L149.977 317.976C151.346 321.001 153.308 323.721 155.747 325.975C158.186 328.23 161.052 329.973 164.176 331.101C167.301 332.23 170.62 332.721 173.937 332.545C177.255 332.37 180.503 331.532 183.491 330.08C186.711 328.591 189.6 326.473 191.988 323.852C194.377 321.23 196.217 318.158 197.4 314.815C198.583 311.472 199.085 307.926 198.876 304.387C198.668 300.847 197.754 297.385 196.187 294.204L186.458 303.927C189.112 305.186 192.002 305.868 194.938 305.929C197.875 305.989 200.791 305.427 203.494 304.278C206.196 303.13 208.625 301.421 210.618 299.266C212.612 297.11 214.126 294.557 215.06 291.774C216.927 286.057 216.608 279.852 214.164 274.357C211.721 268.862 207.326 264.468 201.829 262.023L202.315 272.28C206.871 267.976 209.763 262.206 210.484 255.982C211.204 249.759 209.707 243.481 206.255 238.251C202.422 233.39 196.971 230.065 190.893 228.878C184.815 227.692 178.512 228.724 173.13 231.786L182.08 238.348C183.173 235.294 183.499 232.018 183.03 228.808C182.561 225.599 181.312 222.553 179.391 219.938C177.471 217.323 174.938 215.219 172.015 213.809C169.092 212.4 165.867 211.729 162.624 211.854C148.469 212.292 139.665 224.591 137.622 237.473C136.211 244.717 147.059 244.036 148.372 238.251Z" fill="#3B9278"/>
<path d="M116.268 377.138C109.132 369.177 100.053 363.202 89.9164 359.794C79.7802 356.386 68.9332 355.662 58.4336 357.693C53.1924 358.526 48.2301 360.613 43.9697 363.775C39.7094 366.938 36.2771 371.083 33.965 375.857C31.653 380.631 30.5298 385.893 30.691 391.195C30.8522 396.496 32.2931 401.68 34.891 406.305C40.5941 417.258 49.3665 426.312 60.1359 432.362C63.6868 434.355 68.5024 428.667 65.438 425.653C57.1203 417.486 47.4892 411.069 42.5764 400.131C38.1501 390.069 38.9769 378.11 48.2674 370.964C57.5579 363.818 70.3994 363.769 81.2465 366.102C92.4437 368.617 102.678 374.306 110.723 382.485C113.788 385.548 119.187 380.103 116.268 376.895V377.138Z" fill="#685440"/>
<path d="M46.127 412.382C48.1454 414.565 50.7127 416.168 53.5615 417.023C56.4103 417.878 59.4365 417.954 62.3246 417.243C68.2103 416.271 73.7066 413.694 79.5436 412.382C86.4465 411.111 93.5678 411.804 100.095 414.383C106.623 416.962 112.294 421.322 116.463 426.966C126.191 440.772 126.191 460.411 137.184 473.294C127.481 477.284 117.343 480.122 106.977 481.752C96.5373 483.294 85.8753 481.597 76.4308 476.891C66.8981 471.492 59.6029 462.874 55.8552 452.585C52.1686 442.333 50.9196 431.365 52.2071 420.549L46.127 412.382Z" fill="#685440"/>
<path d="M43.1604 415.347C50.3593 424.681 62.617 422.153 72.3453 419.188C77.4428 417.251 82.9167 416.506 88.3467 417.012C93.7768 417.517 99.0187 419.259 103.67 422.104C122.592 434.063 119.965 460.994 133.439 476.988L136.212 469.016C113.253 477.62 84.1653 484.572 66.703 462.064C59.369 451.833 55.6703 439.443 56.1963 426.868C56.7025 423.236 55.9286 419.541 54.0074 416.417L49.5324 410.145C46.7112 406.208 39.804 410.923 42.4307 414.569C45.0573 418.215 46.857 420.695 49.0945 423.709L48.4138 420.111C45.7975 431.008 46.4402 442.432 50.2622 452.966C54.0842 463.501 60.9171 472.682 69.9132 479.37C90.5858 493.419 116.512 485.884 138.011 477.863C138.809 477.63 139.54 477.21 140.142 476.636C140.744 476.063 141.2 475.354 141.471 474.569C141.743 473.783 141.822 472.944 141.702 472.122C141.583 471.299 141.268 470.518 140.784 469.842C133.78 461.432 131.639 450.397 128.234 440.188C125.43 430.19 119.477 421.36 111.258 415.007C102.933 409.084 92.7158 406.436 82.5599 407.569C72.8316 408.833 57.5582 418.944 49.1919 409.368C46.0302 405.819 40.3392 411.75 43.1604 415.347Z" fill="#685440"/>
<path d="M274.451 455.793C246.953 453.183 220.018 446.38 194.582 435.619C170.033 424.448 147.718 408.916 128.721 389.777C109.918 370.957 94.7626 348.822 84.0198 324.49C72.3458 298.044 62.5689 264.064 74.2915 236.063C79.9825 222.452 92.0453 210.153 107.465 209.035C114.087 208.415 120.735 209.919 126.446 213.327C132.157 216.736 136.633 221.873 139.228 227.994C141.173 233.147 149.296 227.994 147.399 223.132C144.936 217.373 141.051 212.333 136.109 208.482C131.167 204.63 125.328 202.094 119.139 201.111C112.588 200.034 105.879 200.44 99.5061 202.299C93.1333 204.159 87.2592 207.424 82.3171 211.854C55.6616 234.313 57.1694 271.745 65.8276 302.42C74.218 330.649 88.0958 356.949 106.667 379.813C125.237 402.677 148.137 421.657 174.055 435.667C204.375 451.587 237.771 460.789 271.97 462.647C275.716 462.647 278.78 456.473 274.256 455.89L274.451 455.793Z" fill="#3B9278"/>
<path d="M147.35 252.3C149.004 242.578 156.738 239.272 162.673 241.751C164.63 242.629 166.184 244.214 167.023 246.188C167.862 248.162 167.924 250.38 167.196 252.397C169.672 251.02 172.568 250.598 175.334 251.212C178.1 251.826 180.545 253.432 182.206 255.727C183.867 258.022 184.627 260.845 184.344 263.663C184.061 266.481 182.754 269.097 180.67 271.016C182.209 271.733 183.588 272.752 184.725 274.014C185.861 275.275 186.732 276.752 187.285 278.356C187.795 279.97 187.875 281.689 187.517 283.343C187.159 284.997 186.375 286.529 185.242 287.787C184.044 288.998 182.481 289.781 180.794 290.019C179.107 290.256 177.389 289.933 175.903 289.1C176.881 290.951 177.351 293.029 177.266 295.12C177.18 297.212 176.542 299.244 175.417 301.01C174.259 302.757 172.645 304.153 170.75 305.048C168.855 305.943 166.751 306.302 164.666 306.086C162.581 305.871 160.595 305.089 158.923 303.826C157.251 302.563 155.957 300.866 155.182 298.92C155.104 301.002 154.43 303.017 153.24 304.728C152.05 306.438 150.394 307.771 148.469 308.57C146.544 309.368 144.43 309.598 142.378 309.231C140.326 308.865 138.422 307.918 136.893 306.503C135.389 305.05 134.323 303.205 133.816 301.177C133.308 299.149 133.38 297.02 134.023 295.031C131.875 296.17 129.369 296.433 127.031 295.763C124.694 295.093 122.708 293.542 121.491 291.438C120.275 289.334 119.923 286.84 120.509 284.482C121.095 282.124 122.574 280.085 124.635 278.794C122.648 277.412 121.206 275.38 120.556 273.05C119.906 270.719 120.089 268.235 121.074 266.025C122.059 263.815 123.784 262.017 125.952 260.94C128.12 259.864 130.595 259.576 132.953 260.127C131.617 258.255 131.058 255.938 131.393 253.664C131.729 251.389 132.933 249.332 134.752 247.925C138.449 245.154 144.772 248.411 147.35 252.3Z" fill="#CF9D76"/>
<path d="M151.388 252.932C152.166 249.772 153.528 246.126 157.273 245.786C161.019 245.446 163.743 248.217 162.526 251.522C160.873 256.092 165.688 258.231 169.239 256.384C170.736 255.796 172.387 255.723 173.93 256.175C175.474 256.628 176.823 257.581 177.764 258.885C178.706 260.188 179.187 261.767 179.132 263.374C179.077 264.981 178.488 266.523 177.459 267.759C176.895 268.242 176.45 268.848 176.157 269.531C175.864 270.213 175.731 270.953 175.768 271.695C175.806 272.436 176.013 273.159 176.373 273.809C176.734 274.458 177.239 275.016 177.849 275.44C179.231 276.01 180.423 276.962 181.284 278.185C182.146 279.407 182.641 280.849 182.713 282.343C182.713 284.773 180.816 285.648 178.675 284.53C174.492 282.294 169.336 287.739 171.331 291.822C171.854 292.582 172.197 293.451 172.331 294.363C172.466 295.276 172.389 296.207 172.108 297.085C171.826 297.963 171.346 298.764 170.705 299.428C170.065 300.092 169.28 300.6 168.412 300.913C166.596 301.352 164.681 301.097 163.043 300.198C161.405 299.298 160.162 297.82 159.559 296.052C157.322 291.19 150.415 295.225 150.123 299.26C149.491 308.253 136.26 303.781 138.449 295.809C139.373 292.503 136.746 288.808 133.05 290.413C131.895 290.931 130.596 291.036 129.373 290.708C128.15 290.38 127.078 289.64 126.337 288.614C125.316 287.155 124.927 284.093 126.337 282.877C127.748 281.662 131.202 277.141 128.04 274.954C123.565 271.502 123.808 263.675 130.91 265.231C134.412 265.912 139.519 261.099 137.087 257.55C136.236 256.515 135.818 255.192 135.92 253.856C135.977 253.458 136.074 253.067 136.212 252.689C136.552 251.62 137.087 251.96 136.601 252.057C138.984 251.522 141.951 254.634 143.167 256.238C146.329 260.418 154.403 253.759 151.436 249.675C147.35 243.939 139.373 239.612 132.612 243.793C129.45 245.787 127.199 248.943 126.344 252.58C125.488 256.218 126.098 260.045 128.04 263.238L134.217 255.557C130.731 254.956 127.145 255.475 123.973 257.038C120.8 258.602 118.206 261.13 116.561 264.259C114.975 267.346 114.496 270.883 115.204 274.28C115.912 277.677 117.764 280.729 120.452 282.926L122.154 275.002C119.159 277.028 116.969 280.04 115.965 283.512C114.96 286.985 115.206 290.699 116.658 294.01C118.381 297.008 121.15 299.265 124.434 300.351C127.719 301.436 131.289 301.273 134.461 299.892L129.499 294.156C128.748 296.232 128.465 298.448 128.669 300.646C128.872 302.843 129.558 304.97 130.677 306.873C131.797 308.775 133.321 310.409 135.144 311.655C136.966 312.902 139.041 313.733 141.221 314.087C143.503 314.349 145.815 314.148 148.017 313.496C150.219 312.844 152.267 311.754 154.038 310.293C155.809 308.832 157.267 307.028 158.325 304.99C159.382 302.952 160.017 300.722 160.192 298.434L150.755 301.642C151.624 303.567 152.869 305.299 154.417 306.737C155.965 308.174 157.785 309.288 159.77 310.013C161.754 310.738 163.864 311.058 165.975 310.956C168.085 310.855 170.155 310.332 172.06 309.42C174.149 308.464 176.026 307.102 177.582 305.414C179.139 303.726 180.343 301.745 181.127 299.587C181.91 297.429 182.255 295.137 182.144 292.844C182.032 290.551 181.465 288.303 180.475 286.232L173.276 293.572C175.026 294.384 176.927 294.817 178.855 294.844C180.784 294.871 182.696 294.492 184.468 293.73C186.24 292.969 187.831 291.843 189.138 290.425C190.445 289.007 191.438 287.33 192.052 285.503C193.222 281.847 193.012 277.89 191.461 274.379C189.911 270.868 187.127 268.046 183.637 266.446L184.026 274.176C186.944 271.414 188.799 267.717 189.27 263.729C189.741 259.741 188.798 255.713 186.604 252.349C184.143 249.228 180.637 247.101 176.731 246.36C172.825 245.619 168.782 246.312 165.348 248.314L172.06 253.175C172.779 251.188 172.994 249.053 172.685 246.963C172.377 244.872 171.554 242.89 170.291 241.195C169.029 239.5 167.366 238.144 165.45 237.248C163.535 236.353 161.428 235.946 159.316 236.063C155.126 236.477 151.216 238.358 148.279 241.374C145.341 244.389 143.566 248.345 143.265 252.543C142.292 257.842 150.318 257.161 151.388 252.932Z" fill="#CF9D76"/>
</g>
<defs>
<clipPath id="clip0_972_43509">
<rect width="342" height="660" fill="white"/>
</clipPath>
</defs>
</svg>
