<svg width="51" height="51" viewBox="0 0 51 51" fill="none" xmlns="http://www.w3.org/2000/svg">
<circle cx="25.4872" cy="25.4872" r="14.6923" fill="white"/>
<path d="M25.4872 49.9744C11.9633 49.9744 1 39.0111 1 25.4872C1 11.9633 11.9633 1 25.4872 1C39.0111 1 49.9744 11.9633 49.9744 25.4872C49.9744 39.0111 39.0111 49.9744 25.4872 49.9744ZM14.2744 33.3904C16.0323 35.1396 20.7149 36.19 25.4872 36.2084C30.2593 36.19 34.942 35.1396 36.7 33.3904C41.0675 29.0443 30.4508 12.3938 25.4927 12.3696C20.5236 12.3938 9.9069 29.0443 14.2744 33.3904Z" fill="url(#paint0_linear_1070_42886)"/>
<defs>
<linearGradient id="paint0_linear_1070_42886" x1="1" y1="49.9744" x2="49.9744" y2="1" gradientUnits="userSpaceOnUse">
<stop stop-color="#C926FF"/>
<stop offset="1" stop-color="#4A26FF"/>
</linearGradient>
</defs>
</svg>
