<svg width="325" height="42" viewBox="0 0 325 42" fill="none" xmlns="http://www.w3.org/2000/svg">
<path d="M94.4395 4.82422H114.4V35.1144H109.127V8.92102H99.713V35.1144H94.4395V4.82422Z" fill="white"/>
<path d="M121.531 41.8697C120.514 41.8697 119.788 41.739 119.352 41.4775C118.916 41.245 118.698 41.1288 118.698 41.1288V36.9013C119.28 37.4824 120.064 37.7729 121.052 37.7729C121.778 37.7729 122.359 37.6131 122.795 37.2935C123.231 37.003 123.594 36.5962 123.885 36.0732L116.345 13.1921H121.793L126.631 29.6665L131.468 13.1921H136.48L129.638 33.9376C129.144 35.4195 128.577 36.756 127.938 37.9473C127.299 39.1676 126.471 40.1264 125.454 40.8237C124.466 41.5211 123.158 41.8697 121.531 41.8697Z" fill="white"/>
<path d="M154.956 17.2889H148.854V35.1144H143.668V17.2889H137.566V13.1921H154.956V17.2889Z" fill="white"/>
<path d="M173.486 33.6326C172.731 34.1555 171.743 34.6059 170.523 34.9836C169.302 35.3613 167.864 35.5502 166.208 35.5502C162.896 35.5502 160.339 34.6204 158.537 32.7609C156.736 30.8723 155.835 28.0249 155.835 24.2186C155.835 22.0104 156.169 20.0492 156.838 18.3349C157.535 16.5916 158.566 15.226 159.932 14.2381C161.327 13.2503 163.07 12.7563 165.162 12.7563C166.905 12.7563 168.416 13.105 169.695 13.8023C170.973 14.4996 171.961 15.6183 172.658 17.1582C173.356 18.6691 173.704 20.7029 173.704 23.2598V26.0055H161.196C161.312 27.836 161.777 29.2016 162.591 30.1023C163.404 31.003 164.755 31.4534 166.644 31.4534C167.922 31.4534 169.172 31.25 170.392 30.8432C171.641 30.4365 172.673 29.9571 173.486 29.405V33.6326ZM165.075 16.8531C162.634 16.8531 161.341 18.6255 161.196 22.1702H168.431V21.7344C168.431 20.3688 168.184 19.2211 167.69 18.2914C167.225 17.3325 166.353 16.8531 165.075 16.8531Z" fill="white"/>
<path d="M177.179 35.1144V13.1921H182.365V31.0176H188.031V13.1921H193.217V31.0176H198.883V13.1921H204.07V35.1144H177.179Z" fill="white"/>
<path d="M225.199 33.6326C224.443 34.1555 223.455 34.6059 222.235 34.9836C221.015 35.3613 219.576 35.5502 217.92 35.5502C214.608 35.5502 212.051 34.6204 210.25 32.7609C208.448 30.8723 207.547 28.0249 207.547 24.2186C207.547 22.0104 207.882 20.0492 208.55 18.3349C209.247 16.5916 210.279 15.226 211.644 14.2381C213.039 13.2503 214.782 12.7563 216.874 12.7563C218.618 12.7563 220.128 13.105 221.407 13.8023C222.685 14.4996 223.673 15.6183 224.37 17.1582C225.068 18.6691 225.416 20.7029 225.416 23.2598V26.0055H212.908C213.024 27.836 213.489 29.2016 214.303 30.1023C215.116 31.003 216.467 31.4534 218.356 31.4534C219.634 31.4534 220.884 31.25 222.104 30.8432C223.354 30.4365 224.385 29.9571 225.199 29.405V33.6326ZM216.787 16.8531C214.346 16.8531 213.053 18.6255 212.908 22.1702H220.143V21.7344C220.143 20.3688 219.896 19.2211 219.402 18.2914C218.937 17.3325 218.065 16.8531 216.787 16.8531Z" fill="white"/>
<path d="M238.305 35.5502C234.848 35.5502 232.262 34.5769 230.547 32.6301C228.862 30.6544 228.02 27.836 228.02 24.1751C228.02 21.9378 228.397 19.962 229.153 18.2478C229.908 16.5335 231.027 15.197 232.509 14.2381C234.019 13.2503 235.879 12.7563 238.087 12.7563C239.366 12.7563 240.47 12.858 241.399 13.0614C242.358 13.2357 243.114 13.4827 243.666 13.8023V18.2042C243.143 17.8846 242.431 17.5795 241.53 17.2889C240.63 16.9984 239.671 16.8531 238.654 16.8531C236.969 16.8531 235.661 17.4633 234.731 18.6836C233.831 19.8749 233.38 21.6618 233.38 24.0443C233.38 26.3106 233.787 28.112 234.601 29.4486C235.414 30.7851 236.751 31.4534 238.61 31.4534C239.714 31.4534 240.673 31.3227 241.487 31.0612C242.3 30.7997 243.027 30.4365 243.666 29.9716V34.1991C242.416 35.0998 240.63 35.5502 238.305 35.5502Z" fill="white"/>
<path d="M263.019 17.2889H256.918V35.1144H251.731V17.2889H245.63V13.1921H263.019V17.2889Z" fill="white"/>
<path d="M275.155 35.1144H266.09V13.1921H275.242C280.095 13.1921 282.521 15.0517 282.521 18.7708C282.521 20.0783 282.172 21.1388 281.475 21.9523C280.777 22.7659 279.848 23.347 278.685 23.6956C280.138 23.9571 281.271 24.5092 282.085 25.3518C282.927 26.1653 283.349 27.2985 283.349 28.7513C283.349 30.8432 282.622 32.4268 281.17 33.5018C279.746 34.5769 277.741 35.1144 275.155 35.1144ZM274.632 17.0274H271.145V21.9959H274.458C275.446 21.9959 276.201 21.778 276.724 21.3422C277.276 20.9063 277.552 20.3107 277.552 19.5553C277.552 17.87 276.579 17.0274 274.632 17.0274ZM274.719 25.7876H271.145V31.2791H274.719C275.765 31.2791 276.593 31.0612 277.204 30.6253C277.814 30.1604 278.119 29.4195 278.119 28.4026C278.119 26.6593 276.986 25.7876 274.719 25.7876Z" fill="white"/>
<path d="M286.817 13.1921H291.829V26.7464L299.761 13.1921H304.381V35.1144H299.369V21.5601L291.437 35.1144H286.817V13.1921Z" fill="white"/>
<path d="M307.211 35.1144L312.136 26.8336C310.741 26.3687 309.666 25.6133 308.911 24.5673C308.155 23.4923 307.778 22.1267 307.778 20.4705C307.778 18.117 308.591 16.3156 310.218 15.0662C311.845 13.8168 313.923 13.1921 316.451 13.1921H324.383V35.1144H319.196V27.9668H316.712L312.528 35.1144H307.211ZM316.843 17.2889C315.71 17.2889 314.795 17.5504 314.097 18.0734C313.4 18.5964 313.051 19.4536 313.051 20.6448C313.051 21.8942 313.371 22.7949 314.01 23.347C314.649 23.899 315.55 24.1751 316.712 24.1751H319.196V17.2889H316.843Z" fill="white"/>
<mask id="mask0_970_60510" style="mask-type:alpha" maskUnits="userSpaceOnUse" x="0" y="0" width="41" height="41">
<circle cx="20.498" cy="20.3642" r="20.1152" fill="#D9D9D9"/>
</mask>
<g mask="url(#mask0_970_60510)">
<path fill-rule="evenodd" clip-rule="evenodd" d="M40.6132 0.249023H0.382812V40.4794H40.6132V0.249023ZM27.5351 32.4537H23.3326V11.5802H21.4571C18.0187 11.5802 16.2127 13.3167 16.2127 15.8869C16.2127 18.8043 17.463 20.1588 20.0332 21.8954L22.1518 23.3194L16.0391 32.4537H11.4893L16.9768 24.2918C13.8163 22.0343 12.045 19.8462 12.045 16.13C12.045 11.476 15.275 8.31543 21.4224 8.31543H27.5351V32.4537Z" fill="white"/>
</g>
<mask id="mask1_970_60510" style="mask-type:alpha" maskUnits="userSpaceOnUse" x="43" y="0" width="41" height="41">
<circle cx="63.2871" cy="20.2461" r="20.1152" fill="#D9D9D9"/>
</mask>
<g mask="url(#mask1_970_60510)">
<path fill-rule="evenodd" clip-rule="evenodd" d="M83.2548 0.046875H43.0244V40.2773H83.2548V0.046875ZM67.7806 10.2183C67.3098 10.3777 67.1748 10.5552 67.0934 10.7485C66.7291 11.6133 66.4283 12.6359 65.8872 14.6128C65.6543 15.4641 64.7753 15.9653 63.924 15.7323C63.0728 15.4993 62.5716 14.6204 62.8046 13.7691C63.3351 11.8306 63.6878 10.6002 64.1481 9.50764C64.6593 8.29411 65.6194 7.57576 66.7557 7.19107C67.8169 6.8318 69.0933 6.73844 70.4518 6.73844C71.8813 6.73844 73.2175 6.93972 74.2519 7.5123C75.4006 8.14817 76.2189 9.01782 76.1025 10.6093C76.0084 11.8952 75.807 12.8677 75.596 13.8865L75.596 13.8866C75.5459 14.1286 75.4952 14.3732 75.4453 14.6253C75.2739 15.491 74.4332 16.0539 73.5674 15.8826C72.7016 15.7112 72.1387 14.8704 72.3101 14.0046C72.3754 13.6748 72.4388 13.3592 72.5028 13.0409L72.5032 13.039C72.6223 12.4466 72.7434 11.8445 72.882 11.1225L72.8846 11.1091C72.9561 10.7366 73.0062 10.4758 72.704 10.3085C72.3629 10.1197 71.6633 9.93448 70.4518 9.93448C69.1694 9.93448 68.3265 10.0335 67.7806 10.2183ZM58.3171 16.5001L58.3175 16.5001C61.1964 16.5016 64.0753 16.5011 66.9542 16.5006C68.3737 16.5004 69.7931 16.5001 71.2126 16.5001C74.7751 16.4977 77.3351 18.8809 77.3246 22.4994C77.3195 24.2143 77.1471 26.8837 76.8835 29.7662C76.576 33.1306 76.131 36.9802 75.6161 40.2771H72.3804C72.9046 37.0228 73.3752 33.0362 73.7008 29.4752L73.7585 28.8456V28.8456C73.9874 26.3558 74.1473 24.6168 74.1283 22.6912C74.1078 20.6074 73.1753 19.6962 71.1905 19.6962H58.4939C55.597 19.6962 53.7089 19.9142 52.4684 22.8051C51.7821 24.4045 50.7349 27.7084 49.9798 31.6792C49.4626 34.3984 49.0937 37.373 49.0584 40.2771H45.8622C45.8976 37.1095 46.2992 33.9255 46.84 31.0821C47.6265 26.9465 48.7314 23.4091 49.5313 21.5448C51.2479 17.5443 54.2344 16.4979 58.3171 16.5001ZM66.9962 40.2771H63.7976C64.0633 33.7505 65.3476 27.0641 66.7548 23.1273C67.0519 22.2962 67.9664 21.8633 68.7975 22.1604C69.6285 22.4574 70.0614 23.3719 69.7644 24.203C68.4822 27.7902 67.2609 34.0985 66.9962 40.2771Z" fill="white"/>
</g>
</svg>
