<svg width="264" height="26" viewBox="0 0 264 26" fill="none" xmlns="http://www.w3.org/2000/svg">
<g clip-path="url(#clip0_970_60492)">
<path d="M100.723 12.8988C100.723 15.8194 100.723 18.7399 100.723 21.6605C100.753 22.0388 100.693 22.4189 100.547 22.7693C100.401 23.1196 100.174 23.43 99.8836 23.6747C99.3586 24.1214 98.8651 24.6037 98.4065 25.1182C98.2392 25.2959 98.0358 25.4357 97.81 25.5283C97.5842 25.621 97.3412 25.6643 97.0973 25.6553H88.1006C87.8416 25.6567 87.5852 25.6037 87.3481 25.4996C87.111 25.3955 86.8984 25.2427 86.7242 25.051L85.2136 23.574C84.9666 23.3521 84.7744 23.0759 84.6521 22.7672C84.5297 22.4585 84.4806 22.1257 84.5086 21.7948V12.8988C84.5086 9.97824 84.5086 7.09124 84.5086 4.20424C84.4846 3.80865 84.5506 3.41277 84.7018 3.04642C84.853 2.68008 85.0854 2.35283 85.3814 2.08935C85.8536 1.67889 86.3019 1.24177 86.7242 0.780129C86.9148 0.557312 87.1517 0.378787 87.4184 0.257024C87.6851 0.135261 87.9752 0.0731961 88.2684 0.0751644H96.963C97.2558 0.0664049 97.5473 0.118577 97.8189 0.228373C98.0905 0.33817 98.3363 0.503195 98.5408 0.712989L100.085 2.2572C100.29 2.4372 100.453 2.65953 100.563 2.90878C100.673 3.15803 100.727 3.42824 100.723 3.7007C100.723 4.53994 100.723 5.37918 100.723 6.18486V12.8988ZM95.3181 12.8988V7.32623C95.3356 7.04675 95.3356 6.76646 95.3181 6.48698C95.3181 6.23769 95.219 5.99861 95.0428 5.82234C94.8665 5.64606 94.6274 5.54703 94.3781 5.54703H91.0211C90.4505 5.54703 90.1819 5.9163 90.0812 6.48698C90.0644 6.75528 90.0644 7.02436 90.0812 7.29266V18.27C90.0644 18.471 90.0644 18.6731 90.0812 18.8742C90.071 19.0561 90.0999 19.2381 90.166 19.4079C90.232 19.5777 90.3336 19.7314 90.464 19.8586C90.5944 19.9858 90.7506 20.0836 90.922 20.1454C91.0933 20.2073 91.276 20.2317 91.4575 20.217H94.3445C94.6414 20.2083 94.9232 20.0842 95.13 19.8711C95.3368 19.658 95.4525 19.3726 95.4523 19.0756C95.469 18.8409 95.469 18.6054 95.4523 18.3707L95.3181 12.8988Z" fill="white"/>
<path d="M13.8112 22.3329H13.1062H7.09725C6.93852 22.3226 6.78166 22.372 6.65745 22.4713C6.53324 22.5707 6.45064 22.7129 6.42586 22.87C6.42586 23.3736 6.12373 23.9107 5.95588 24.4478L5.75446 25.1192C5.70852 25.3054 5.60017 25.4702 5.44747 25.5863C5.29477 25.7024 5.10693 25.7626 4.91522 25.757H0.987562L0.383307 25.522C0.282668 25.3548 0.229492 25.1633 0.229492 24.9681C0.229492 24.7729 0.282668 24.5815 0.383307 24.4142C0.819713 22.8364 1.28969 21.2922 1.7261 19.748C3.74028 13.7055 5.48591 7.66293 7.2651 1.58681C7.70151 0.0761719 7.6008 0.0761719 9.17858 0.0761719C10.085 0.0761719 10.9578 0.0761719 11.8642 0.0761719C12.7705 0.0761719 12.8041 0.0761719 13.0391 0.948985C13.6434 2.96317 14.214 5.01092 14.8183 7.02511C16.4744 12.5977 18.1305 18.1926 19.7866 23.81L20.0887 25.0185C20.1106 25.0857 20.1157 25.1572 20.1038 25.2269C20.0919 25.2965 20.0633 25.3622 20.0203 25.4184C19.9774 25.4745 19.9215 25.5194 19.8574 25.5491C19.7933 25.5789 19.7229 25.5926 19.6523 25.5892H16.0268C14.919 25.5892 14.8519 25.5892 14.5162 24.4478C14.5162 23.9443 14.2476 23.4407 14.0798 22.9372L13.8112 22.3329ZM8.17149 17.096C9.52026 17.2638 10.8846 17.2638 12.2334 17.096C12.247 17.0296 12.247 16.9611 12.2334 16.8946C11.6963 14.914 11.0921 12.9334 10.4542 10.9528C10.3886 10.804 10.2977 10.6677 10.1857 10.5499C9.36119 12.6819 8.68813 14.8693 8.17149 17.096Z" fill="white"/>
<path d="M74.5722 25.6213C73.7666 22.9693 73.0952 20.3508 72.3902 17.766C71.6852 15.1811 70.8796 12.6634 70.2753 10.1456C70.2753 10.1456 70.1075 10.347 70.1075 10.4478C69.4025 13.469 68.7311 16.4903 68.0261 19.5116C67.6569 21.1901 67.254 22.8686 66.8512 24.547C66.4484 26.2255 66.5826 25.7556 65.3406 25.7556H61.6143C61.5388 25.7571 61.4639 25.7416 61.3952 25.7103C61.3265 25.6789 61.2657 25.6325 61.2173 25.5745C61.1689 25.5164 61.1343 25.4483 61.1158 25.375C61.0974 25.3018 61.0957 25.2253 61.1108 25.1513C61.1108 24.8604 61.1779 24.5918 61.3122 24.3456C63.2145 16.7141 65.1839 9.12734 67.2205 1.58534C67.2048 1.38423 67.2048 1.1822 67.2205 0.981088C67.4219 0.376833 67.6233 0.208984 68.2947 0.208984C69.7046 0.208984 71.1146 0.208984 72.5245 0.208984C73.2295 0.208984 73.4309 0.208984 73.5987 1.0818C74.1358 3.02884 74.6394 5.00946 75.1765 6.99007C76.7878 12.7417 78.3321 18.4709 79.8091 24.1778C80.2455 25.8227 79.8091 25.6548 78.6342 25.6548H74.5722V25.6213Z" fill="white"/>
<path d="M29.5216 7.62868C29.723 7.29298 29.8909 7.02443 30.0252 6.75587L32.61 1.55256C32.7087 1.33324 32.8208 1.12023 32.9457 0.914734C33.0377 0.661658 33.2074 0.444173 33.4305 0.293422C33.6536 0.142671 33.9187 0.0663859 34.1878 0.075491H38.5183C38.5956 0.0813131 38.6705 0.104888 38.7371 0.144381C38.8038 0.183874 38.8604 0.23822 38.9027 0.303187C38.9449 0.368154 38.9716 0.441991 38.9806 0.518948C38.9896 0.595906 38.9808 0.673909 38.9547 0.746886C38.8744 0.968574 38.7732 1.18214 38.6526 1.38471C36.7055 5.17809 34.7921 8.9379 32.8114 12.6977C32.4224 13.431 32.2261 14.2512 32.2408 15.0812C32.2408 18.0353 32.2408 20.9894 32.2408 23.9771C32.2569 24.2902 32.2569 24.604 32.2408 24.9171C32.2408 25.3535 32.0393 25.5213 31.6029 25.5549H27.6753C26.9703 25.5549 26.8025 25.5549 26.8025 24.6821C26.8025 23.8093 26.8025 22.7686 26.8025 21.7951V15.0812C26.8442 14.3208 26.6696 13.5643 26.2989 12.8991C24.3854 9.24003 22.472 5.54736 20.5249 1.85469C20.3755 1.56397 20.2519 1.26068 20.1557 0.948304C19.9542 0.478328 20.1221 0.24334 20.5249 0.075491H24.7883C25.0807 0.0554367 25.372 0.129285 25.6195 0.286279C25.8671 0.443272 26.0581 0.675209 26.1646 0.948304L28.9845 6.78944L29.5216 7.62868Z" fill="white"/>
<path d="M53.4902 5.74836C53.407 6.14689 53.407 6.55833 53.4902 6.95687C53.4902 12.6302 53.4902 18.2699 53.4902 23.9432C53.4902 24.2789 53.4902 24.6145 53.4902 24.9502C53.4435 25.1471 53.376 25.3384 53.2888 25.5209H52.8524H48.7233C48.1862 25.5209 48.0519 25.5209 48.0184 24.8495V6.99044C48.0993 6.55779 48.0993 6.11387 48.0184 5.68122C47.795 5.66254 47.5704 5.66254 47.347 5.68122H43.3186C43.1937 5.66567 43.0782 5.60673 42.9923 5.5147C42.9064 5.42266 42.8555 5.30338 42.8486 5.17767V4.84197C42.8486 3.53275 42.8486 2.22354 42.8486 0.914315C42.8486 0.34363 42.8486 0.209351 43.5872 0.175781H57.0151C58.3243 0.175781 58.4921 0.175781 58.4586 1.65285V4.33843C58.4752 4.57312 58.4752 4.8087 58.4586 5.04339C58.4586 5.18584 58.402 5.32246 58.3012 5.42319C58.2005 5.52392 58.0639 5.58051 57.9214 5.58051H54.3966C54.0841 5.51813 53.7597 5.57822 53.4902 5.74836Z" fill="white"/>
<path d="M116.904 3.43314C116.9 3.25982 116.931 3.08749 116.994 2.92613C117.057 2.76478 117.152 2.61762 117.273 2.49319L119.354 0.411869C119.62 0.196706 119.952 0.0783428 120.294 0.0761719L129.862 0.0761719C130.223 0.0949372 130.566 0.237149 130.835 0.479009L132.883 2.56033C133.01 2.68196 133.111 2.82787 133.18 2.98935C133.249 3.15083 133.285 3.3246 133.286 3.50028V7.46151C133.286 7.59506 133.233 7.72314 133.138 7.81757C133.044 7.91201 132.916 7.96506 132.782 7.96506H128.384C128.263 7.9487 128.151 7.88851 128.071 7.79579C127.991 7.70307 127.947 7.5842 127.948 7.46151V6.48799C127.964 6.45081 127.972 6.41086 127.972 6.3705C127.972 6.33014 127.964 6.29019 127.948 6.253L127.344 5.61518H127.075H123.282H123.047L122.443 6.253C122.427 6.29019 122.419 6.33014 122.419 6.3705C122.419 6.41086 122.427 6.45081 122.443 6.48799V19.6809C122.443 19.6809 122.443 19.6809 122.443 19.9495L122.946 20.453H127.243L127.747 19.9495C127.765 19.8608 127.765 19.7695 127.747 19.6809V18.5731C127.747 18.4395 127.8 18.3115 127.894 18.217C127.989 18.1226 128.117 18.0695 128.25 18.0695H132.648C132.781 18.0695 132.909 18.1226 133.004 18.217C133.098 18.3115 133.151 18.4395 133.151 18.5731V22.7357C133.151 22.9372 133.151 23.0379 132.749 23.4071L130.701 25.4885C130.432 25.7303 130.088 25.8725 129.727 25.8913H120.294C119.942 25.8762 119.608 25.7329 119.354 25.4885L117.273 23.575C117.041 23.303 116.91 22.9589 116.904 22.6015V3.43314Z" fill="white"/>
<path d="M153.192 13.0007C153.202 13.1798 153.175 13.3591 153.111 13.5269C153.047 13.6946 152.949 13.847 152.822 13.9742L150.741 16.0555L154.501 25.3208C154.501 25.5893 154.266 25.8579 153.997 25.8579H148.928C148.777 25.8409 148.634 25.7815 148.515 25.6864C148.396 25.5913 148.307 25.4646 148.257 25.3208L144.732 16.4248H143.054V25.3879C143.054 25.5304 142.997 25.667 142.896 25.7677C142.796 25.8685 142.659 25.925 142.517 25.925H138.018C137.884 25.9094 137.76 25.8469 137.668 25.7485C137.576 25.6502 137.522 25.5225 137.515 25.3879V0.613467C137.514 0.476645 137.566 0.344879 137.66 0.245062C137.753 0.145245 137.882 0.0849029 138.018 0.0763517H149.768C149.947 0.0659811 150.126 0.0935095 150.294 0.157139C150.462 0.220769 150.614 0.319069 150.741 0.445619L152.822 2.56051C152.953 2.69908 153.052 2.86308 153.116 3.04219C153.18 3.22129 153.205 3.41162 153.192 3.60117V13.0007ZM142.953 11.0201H146.813C146.9 11.0538 146.996 11.0538 147.082 11.0201L147.653 10.4494C147.821 10.4494 147.653 10.1473 147.653 10.1473V6.7903C147.676 6.74947 147.689 6.70316 147.689 6.65602C147.689 6.60888 147.676 6.56257 147.653 6.52174L147.082 5.91749C147.035 5.89618 146.983 5.88517 146.931 5.88517C146.879 5.88517 146.827 5.89618 146.78 5.91749H142.953V11.0201Z" fill="white"/>
<path d="M163.129 10.3149H169.843C169.911 10.3099 169.978 10.3195 170.042 10.343C170.105 10.3666 170.163 10.4035 170.21 10.4513C170.258 10.4991 170.295 10.5566 170.319 10.62C170.342 10.6834 170.352 10.7511 170.347 10.8185V15.2161C170.352 15.2835 170.342 15.3512 170.319 15.4146C170.295 15.478 170.258 15.5355 170.21 15.5833C170.163 15.6311 170.105 15.668 170.042 15.6916C169.978 15.7151 169.911 15.7247 169.843 15.7197H163.129V20.4866H171.589C171.731 20.4866 171.868 20.5432 171.969 20.6439C172.069 20.7446 172.126 20.8812 172.126 21.0237V25.3878C172.126 25.5302 172.069 25.6668 171.969 25.7675C171.868 25.8683 171.731 25.9249 171.589 25.9249H158.161C158.092 25.925 158.024 25.911 157.96 25.8836C157.897 25.8562 157.84 25.8161 157.792 25.7657C157.745 25.7153 157.709 25.6558 157.686 25.5908C157.662 25.5258 157.653 25.4566 157.657 25.3878V0.613289C157.653 0.544394 157.662 0.475288 157.686 0.410266C157.709 0.345244 157.745 0.285696 157.792 0.235322C157.84 0.184948 157.897 0.144825 157.96 0.117447C158.024 0.0900685 158.092 0.0760195 158.161 0.0761731H171.589C171.726 0.0759056 171.857 0.127864 171.957 0.221442C172.057 0.31502 172.117 0.443164 172.126 0.579719V5.01092C172.126 5.15338 172.069 5.28999 171.969 5.39072C171.868 5.49145 171.731 5.54804 171.589 5.54804H163.129V10.3149Z" fill="white"/>
<path d="M195.523 25.3866C195.523 25.6552 195.255 25.9238 194.986 25.9238H190.757C190.611 25.9009 190.475 25.8388 190.363 25.7441C190.25 25.6495 190.166 25.5258 190.119 25.3866L189.212 22.3989H181.659L180.786 25.3866C180.733 25.5284 180.643 25.6532 180.525 25.7477C180.406 25.8423 180.265 25.9031 180.115 25.9238H176.053C175.751 25.9238 175.415 25.6552 175.482 25.3866L182.8 0.679327C182.8 0.3772 183.035 0.175781 183.304 0.175781H187.702C187.97 0.175781 188.105 0.3772 188.205 0.679327C190.656 8.90391 193.106 17.1621 195.523 25.3866ZM187.735 17.4306L185.52 9.84386L183.27 17.4306H187.735Z" fill="white"/>
<path d="M214.424 0.746934V5.111C214.407 5.25044 214.34 5.37889 214.235 5.47179C214.129 5.5647 213.993 5.61552 213.853 5.61454H209.153V25.4878C209.146 25.5612 209.123 25.6321 209.086 25.6956C209.048 25.7591 208.997 25.8135 208.936 25.8551C208.876 25.8968 208.806 25.9245 208.734 25.9365C208.661 25.9484 208.586 25.9442 208.515 25.9242H204.151C204.031 25.9188 203.915 25.8728 203.824 25.7936C203.732 25.7144 203.67 25.6066 203.648 25.4878V5.61454H198.948C198.817 5.60659 198.694 5.55098 198.601 5.45822C198.508 5.36545 198.452 5.24195 198.444 5.111V0.746934C198.428 0.65806 198.432 0.566469 198.458 0.47971C198.483 0.392952 198.529 0.313512 198.592 0.247939C198.654 0.182366 198.731 0.132538 198.816 0.102564C198.901 0.0725891 198.993 0.0633264 199.082 0.075539H213.853C213.935 0.0796038 214.016 0.100529 214.09 0.137022C214.164 0.173515 214.23 0.224802 214.284 0.287717C214.337 0.350632 214.377 0.42384 214.401 0.502822C214.425 0.581804 214.433 0.664884 214.424 0.746934Z" fill="white"/>
<path d="M223.521 0.747722V25.3879C223.526 25.4568 223.516 25.5259 223.493 25.5909C223.47 25.656 223.433 25.7155 223.386 25.7659C223.339 25.8162 223.282 25.8564 223.218 25.8837C223.155 25.9111 223.087 25.9252 223.018 25.925H218.586C218.517 25.9252 218.449 25.9111 218.386 25.8837C218.322 25.8564 218.265 25.8162 218.218 25.7659C218.171 25.7155 218.134 25.656 218.111 25.5909C218.088 25.5259 218.078 25.4568 218.083 25.3879V0.747722C218.055 0.669428 218.047 0.585462 218.059 0.503312C218.072 0.421161 218.105 0.34338 218.154 0.276904C218.204 0.210428 218.27 0.157323 218.345 0.122326C218.421 0.087328 218.503 0.0715254 218.586 0.0763269H222.984C223.07 0.0653837 223.157 0.0766447 223.237 0.109028C223.317 0.141412 223.387 0.19383 223.441 0.261249C223.495 0.328668 223.531 0.408822 223.545 0.494013C223.559 0.579204 223.551 0.666571 223.521 0.747722Z" fill="white"/>
<path d="M245.812 0.747566L239.366 25.3206C239.318 25.4686 239.23 25.6004 239.111 25.7012C238.993 25.8019 238.849 25.8678 238.695 25.8913H233.76C233.609 25.8697 233.468 25.804 233.355 25.7024C233.241 25.6009 233.16 25.468 233.122 25.3206L226.677 0.747566C226.657 0.674621 226.653 0.598321 226.665 0.523656C226.676 0.448991 226.704 0.377641 226.745 0.314271C226.786 0.250902 226.84 0.196938 226.904 0.155909C226.967 0.11488 227.039 0.0877088 227.113 0.0761719L231.746 0.0761719C232.048 0.0761719 232.182 0.27759 232.283 0.579718L235.64 14.8469L235.942 17.0289L236.311 14.8469L240.206 0.579718C240.206 0.27759 240.441 0.0761719 240.743 0.0761719H245.442C245.576 0.12232 245.688 0.216598 245.756 0.34068C245.825 0.464763 245.844 0.609787 245.812 0.747566Z" fill="white"/>
<path d="M254.942 10.3149H261.455C261.524 10.3103 261.593 10.32 261.658 10.3432C261.723 10.3664 261.782 10.4028 261.833 10.45C261.883 10.4972 261.923 10.5543 261.951 10.6177C261.978 10.6811 261.992 10.7494 261.992 10.8185V15.2161C261.992 15.2852 261.978 15.3535 261.951 15.4169C261.923 15.4803 261.883 15.5374 261.833 15.5846C261.782 15.6318 261.723 15.6682 261.658 15.6914C261.593 15.7147 261.524 15.7243 261.455 15.7197H254.942V20.4866H263.469C263.605 20.4951 263.734 20.5555 263.827 20.6553C263.921 20.7551 263.973 20.8869 263.972 21.0237V25.3878C263.973 25.5246 263.921 25.6563 263.827 25.7562C263.734 25.856 263.605 25.9163 263.469 25.9249H250.041C249.899 25.9249 249.762 25.8683 249.661 25.7675C249.561 25.6668 249.504 25.5302 249.504 25.3878V0.613288C249.504 0.470836 249.561 0.334218 249.661 0.233489C249.762 0.132761 249.899 0.0761719 250.041 0.0761719L263.469 0.0761719C263.602 0.0761719 263.731 0.129224 263.825 0.223657C263.919 0.31809 263.972 0.446169 263.972 0.579718V5.01092C263.973 5.14775 263.921 5.27951 263.827 5.37933C263.734 5.47915 263.605 5.53949 263.469 5.54804H254.942V10.3149Z" fill="white"/>
</g>
<defs>
<clipPath id="clip0_970_60492">
<rect width="263.59" height="25.8487" fill="white" transform="translate(0.382812 0.0751953)"/>
</clipPath>
</defs>
</svg>
