<svg width="150" height="206" viewBox="0 0 150 206" fill="none" xmlns="http://www.w3.org/2000/svg">
<g clip-path="url(#clip0_1050_46612)">
<path d="M101.174 53.1699H100.515C99.9922 53.1686 99.4776 53.0399 99.0158 52.7951C98.5446 52.5533 98.1372 52.2034 97.8269 51.7742L97.4392 51.2443C97.0512 50.7162 96.8262 50.0862 96.7918 49.4318C96.7573 48.7774 96.915 48.1272 97.2453 47.5613C97.577 47.0055 98.0615 46.5569 98.641 46.269C99.2286 45.9756 99.8872 45.8546 100.541 45.9201C101.198 45.7491 101.892 45.7807 102.531 46.0105C103.372 46.317 104.063 46.9377 104.456 47.7422C104.643 48.1487 104.748 48.5877 104.767 49.0345C104.792 49.4741 104.726 49.9141 104.573 50.3268L104.366 50.9471C104.119 51.6167 103.667 52.1912 103.074 52.5883C102.497 52.9896 101.812 53.2059 101.109 53.2086L101.174 53.1699Z" fill="#DC5959"/>
<path d="M18.2464 69.9201C18.6693 69.829 19.0693 69.6531 19.4224 69.4032C19.7875 69.1523 20.0993 68.8317 20.3399 68.4599C20.5824 68.0645 20.7449 67.6255 20.8181 67.1675C20.9048 66.7411 20.9048 66.3017 20.8181 65.8752L20.5467 64.5829C20.3966 63.8211 19.9852 63.1355 19.3836 62.6445C18.7837 62.1476 18.0303 61.8736 17.2513 61.8691C17.9939 61.6458 18.6364 61.1724 19.0698 60.5294C19.5032 59.8864 19.7008 59.1132 19.6292 58.3411C19.6292 57.9147 19.5646 57.4882 19.5387 57.0488C19.4955 56.2778 19.1899 55.5448 18.6728 54.9712C18.1557 54.3977 17.4581 54.0182 16.6957 53.8956C17.4556 53.7848 18.154 53.4151 18.6729 52.8488C19.2018 52.2897 19.5174 51.5624 19.5646 50.7941C19.5646 50.3935 19.5646 49.9799 19.6679 49.5793C19.7536 48.828 19.5834 48.0697 19.1847 47.4271C18.786 46.7846 18.1823 46.2953 17.471 46.0384C18.2226 46.0699 18.9629 45.8474 19.5725 45.4066C20.1821 44.9658 20.6255 44.3325 20.831 43.6089C20.9473 43.2212 21.0636 42.8335 21.1929 42.4458C21.4331 41.7396 21.4285 40.9732 21.18 40.2699C20.9315 39.5666 20.4535 38.9674 19.823 38.5689C20.5484 38.7576 21.3156 38.7031 22.007 38.4138C22.6932 38.1207 23.2618 37.6067 23.6224 36.9535C23.8292 36.6046 24.023 36.2686 24.2427 35.9326C24.6397 35.3013 24.8127 34.5548 24.7338 33.8132C24.6615 33.0678 24.3433 32.3676 23.8292 31.8231C24.4867 32.185 25.2477 32.3126 25.9873 32.1849C26.7251 32.069 27.4029 31.7096 27.9128 31.164C28.1842 30.8668 28.4685 30.5825 28.7528 30.2982C29.2851 29.7781 29.6304 29.0965 29.735 28.3597C29.8266 27.6231 29.6818 26.8764 29.3214 26.2274C29.8674 26.7256 30.5623 27.0299 31.2987 27.0932C32.0346 27.1586 32.7713 26.9767 33.3922 26.5763C33.7153 26.3696 34.0513 26.1628 34.4002 25.9819C35.0467 25.6167 35.5553 25.0491 35.8476 24.3665C36.1345 23.684 36.1934 22.927 36.0156 22.2083C36.4137 22.8418 37.0083 23.3275 37.7085 23.5911C38.4158 23.8363 39.1851 23.8363 39.8925 23.5911L41.0426 23.2551C41.7873 23.0786 42.4493 22.6532 42.9193 22.0493C43.3893 21.4453 43.639 20.6991 43.6272 19.9339C43.8631 20.6527 44.3347 21.2708 44.9655 21.6883C45.5964 22.1058 46.3497 22.2981 47.1035 22.2342L48.3312 22.1437C49.0955 22.1163 49.8265 21.8239 50.3989 21.3167C50.9726 20.809 51.3556 20.1205 51.4844 19.3653C51.584 20.1241 51.9396 20.8262 52.4924 21.3554C53.0353 21.8933 53.7476 22.2266 54.5084 22.2988L55.8007 22.441C56.5562 22.5479 57.3256 22.3935 57.9813 22.0034C58.6371 21.6132 59.1398 21.0107 59.4062 20.2957C59.3798 21.0644 59.6118 21.8198 60.0653 22.441C60.5125 23.0733 61.1659 23.5302 61.9133 23.7333C62.3139 23.8496 62.7275 23.9529 63.1281 24.0822C63.8617 24.2934 64.6453 24.2485 65.35 23.9549C66.0547 23.6613 66.6384 23.1364 67.005 22.4668C66.8537 23.2215 66.963 24.0051 67.3151 24.6896C67.6667 25.3698 68.2417 25.9082 68.9434 26.2145L70.0807 26.7443C70.7811 27.0782 71.5753 27.1604 72.3293 26.9769C73.0819 26.7998 73.7492 26.3656 74.216 25.7493C73.9579 26.481 73.9579 27.279 74.216 28.0108C74.457 28.7509 74.9512 29.3824 75.6117 29.7942L76.6714 30.4791C77.3201 30.9149 78.1 31.1119 78.8778 31.0364C79.6556 30.961 80.3831 30.6178 80.936 30.0655C80.5736 30.7558 80.4595 31.5498 80.6129 32.3142C80.7538 33.0831 81.1666 33.7758 81.776 34.2655L82.7581 35.0926C83.3652 35.5948 84.1284 35.8695 84.9163 35.8695C85.7042 35.8695 86.4674 35.5948 87.0744 35.0926C86.6378 35.7522 86.4374 36.5402 86.5058 37.3283C86.5863 38.1098 86.9331 38.8398 87.488 39.396L88.4055 40.3006C88.9625 40.8658 89.6973 41.2218 90.4861 41.3086C91.271 41.3891 92.059 41.1875 92.7089 40.74C92.2026 41.3505 91.924 42.1179 91.9206 42.911C91.9238 43.7003 92.2026 44.4637 92.7089 45.0692L93.5489 46.0643C93.8203 46.4459 94.1679 46.7672 94.5698 47.0076C94.968 47.239 95.4065 47.3925 95.8621 47.4599C96.3219 47.5121 96.7875 47.4725 97.2319 47.3436C97.704 47.2233 98.1448 47.003 98.5242 46.6975C98.8797 46.3931 99.1696 46.0197 99.3762 45.5998C99.5828 45.1799 99.7018 44.7224 99.7261 44.255C99.751 43.7922 99.6761 43.3294 99.5064 42.8981C99.3426 42.4575 99.0871 42.0567 98.7568 41.7221L97.8781 40.6883C97.3388 40.053 96.5842 39.6389 95.7587 39.5252C94.9334 39.4208 94.0981 39.6182 93.4067 40.0809C93.9351 39.439 94.2067 38.624 94.1692 37.7935C94.1304 36.9586 93.7853 36.1673 93.1999 35.5708L92.2307 34.5886C91.6374 34.0061 90.8512 33.6613 90.0209 33.6194C89.1888 33.5834 88.3717 33.8496 87.7206 34.3689C88.1833 33.6749 88.3756 32.8353 88.2613 32.0091C88.147 31.1828 87.734 30.427 87.1003 29.8846L86.0277 29.0059C85.3818 28.4755 84.5621 28.2038 83.7274 28.2434C82.891 28.2869 82.0999 28.6365 81.5046 29.2256C81.9036 28.4859 82.0097 27.6232 81.8018 26.8089C81.5946 25.9942 81.0927 25.2851 80.3932 24.8188L79.2043 24.0563C78.4935 23.6039 77.639 23.4338 76.8091 23.5797C75.9792 23.7256 75.2339 24.1769 74.72 24.8447C75.0239 24.0589 75.0239 23.188 74.72 22.4022C74.3997 21.6174 73.8017 20.978 73.04 20.6059L71.7477 20.0114C70.9733 19.6639 70.0961 19.6224 69.2923 19.8951C68.4906 20.1701 67.8186 20.7316 67.4056 21.4717C67.5655 20.6488 67.4131 19.7958 66.9783 19.0791C66.5435 18.3623 65.8573 17.8332 65.0536 17.5948L63.6838 17.2201C62.8472 16.9595 61.9422 17.0334 61.1589 17.4262C60.3757 17.819 59.7752 18.5002 59.4838 19.3265C59.5193 18.4794 59.2345 17.65 58.6861 17.0034C58.1377 16.3569 57.3659 15.9405 56.5244 15.8373C56.0592 15.7727 55.581 15.721 55.1029 15.6822C54.2581 15.6007 53.4136 15.8407 52.738 16.3542C52.0561 16.8618 51.5938 17.6107 51.4457 18.4478C51.3392 17.6039 50.9179 16.8315 50.266 16.2851C49.6142 15.7387 48.7801 15.4588 47.9306 15.5013L46.4832 15.5918C45.63 15.6733 44.8376 16.0695 44.2605 16.7031C43.6873 17.3364 43.3735 18.1623 43.3817 19.0164C43.1135 18.1996 42.5391 17.5187 41.7792 17.1167C41.0215 16.715 40.1402 16.6135 39.3109 16.8324C38.8328 16.9487 38.3546 17.0908 37.8894 17.233C37.0539 17.4882 36.347 18.0519 35.9122 18.8096C35.4862 19.5727 35.3705 20.4705 35.5891 21.3167C35.1268 20.581 34.3984 20.0522 33.5558 19.8403C32.7132 19.6285 31.8213 19.75 31.0661 20.1794C30.6396 20.425 30.2002 20.6834 29.7738 20.9548C29.0369 21.4194 28.5083 22.151 28.2987 22.9966C28.0892 23.8421 28.2148 24.7359 28.6494 25.4908C28.0139 24.9046 27.1747 24.5893 26.3104 24.612C25.4437 24.6271 24.6157 24.974 23.9972 25.5813L22.9762 26.628C22.3856 27.256 22.0568 28.0856 22.0568 28.9477C22.0568 29.8098 22.3856 30.6394 22.9762 31.2674C22.2177 30.8543 21.3296 30.7479 20.495 30.9702C19.6632 31.1935 18.9445 31.7187 18.479 32.4434C18.2206 32.8569 17.975 33.2834 17.7295 33.7357C17.3054 34.485 17.1851 35.3686 17.3935 36.204C17.5886 37.0416 18.1034 37.7697 18.828 38.2329C17.9957 38.0151 17.1117 38.1224 16.3556 38.5328C15.5995 38.9433 15.028 39.6261 14.7572 40.4427C14.615 40.895 14.46 41.3603 14.3307 41.8384C14.0952 42.6655 14.1782 43.5508 14.5634 44.3196C14.9515 45.0841 15.6173 45.6713 16.4243 45.9609H16.2046C15.3732 45.9649 14.5721 46.2736 13.9529 46.8285C13.3337 47.3833 12.9394 48.1459 12.8446 48.9719C12.8446 49.4501 12.7541 49.9282 12.7154 50.4193C12.6605 51.2675 12.9231 52.1059 13.452 52.7713C13.9658 53.4588 14.7249 53.9217 15.5714 54.0636C14.7335 54.1912 13.974 54.6284 13.4429 55.2887C12.9117 55.9491 12.6475 56.7847 12.7024 57.6304C12.6858 58.1022 12.7205 58.5745 12.8058 59.039C12.8831 59.8804 13.2699 60.6633 13.8914 61.2359C14.5127 61.8032 15.3244 62.1169 16.1658 62.1146C15.3725 62.3679 14.698 62.9005 14.2678 63.6136C13.8376 64.3266 13.6809 65.1716 13.8267 65.9916C13.9301 66.4439 14.0206 66.9091 14.124 67.3614C14.2895 68.1163 14.7092 68.7915 15.3129 69.274C15.9068 69.7607 16.6515 70.0257 17.4193 70.0235C17.6811 70.0561 17.9459 70.0561 18.2077 70.0235L18.2464 69.9201Z" fill="#DC5959"/>
<path d="M117.186 189.315C116.412 189.316 115.662 189.051 115.062 188.563C114.462 188.076 114.048 187.397 113.89 186.64L113.748 186.032C113.667 185.605 113.667 185.167 113.748 184.74C113.819 184.281 113.982 183.842 114.226 183.448C114.467 183.072 114.778 182.747 115.144 182.491C115.511 182.235 115.923 182.051 116.359 181.948C116.574 181.897 116.796 181.871 117.018 181.871C117.254 181.845 117.492 181.845 117.728 181.871C118.183 181.919 118.623 182.06 119.021 182.284C119.412 182.496 119.756 182.786 120.029 183.137C120.302 183.487 120.504 183.886 120.623 184.313C120.746 184.732 120.781 185.172 120.727 185.606L120.649 186.252C120.564 187.05 120.197 187.791 119.614 188.343C119.032 188.895 118.271 189.221 117.47 189.263L117.186 189.315Z" fill="#DC5959"/>
<path d="M118.517 182C118.242 181.998 117.969 181.963 117.703 181.897C117.274 181.792 116.869 181.603 116.514 181.341C115.812 180.795 115.348 179.999 115.221 179.118C115.141 178.691 115.141 178.253 115.221 177.826C115.338 177.361 115.454 176.896 115.583 176.443C115.675 175.978 115.865 175.538 116.139 175.151C116.405 174.775 116.745 174.457 117.139 174.217C117.532 173.977 117.97 173.82 118.426 173.755C118.858 173.699 119.297 173.725 119.719 173.833C120.159 173.96 120.572 174.171 120.933 174.453C121.294 174.74 121.593 175.096 121.812 175.5C122.028 175.9 122.16 176.339 122.2 176.792C122.246 177.25 122.193 177.713 122.045 178.149C121.928 178.563 121.825 178.976 121.722 179.441C121.53 180.165 121.104 180.805 120.51 181.261C119.916 181.717 119.188 181.963 118.439 181.961L118.517 182ZM120.985 174.246C120.436 174.243 119.895 174.106 119.41 173.849C118.925 173.591 118.51 173.219 118.2 172.766C117.89 172.312 117.695 171.79 117.631 171.244C117.566 170.699 117.636 170.146 117.832 169.633L118.375 168.341C118.528 167.903 118.765 167.499 119.072 167.152C119.395 166.8 119.787 166.519 120.223 166.325C120.865 166.029 121.584 165.941 122.279 166.073C122.974 166.205 123.61 166.55 124.1 167.061C124.424 167.393 124.675 167.789 124.836 168.224C124.993 168.636 125.063 169.076 125.043 169.517C125.014 169.966 124.895 170.406 124.694 170.809C124.526 171.197 124.371 171.597 124.216 171.998C123.956 172.636 123.504 173.178 122.924 173.549C122.359 173.931 121.693 174.134 121.011 174.13L120.985 174.246ZM124.358 166.829C123.817 166.842 123.282 166.712 122.807 166.454C122.018 166.038 121.423 165.327 121.153 164.477C120.883 163.621 120.958 162.694 121.36 161.892L122.032 160.6C122.489 159.866 123.21 159.335 124.046 159.116C124.882 158.897 125.771 159.006 126.529 159.42C127.288 159.835 127.859 160.524 128.126 161.347C128.392 162.169 128.334 163.062 127.964 163.843L127.356 164.981C127.063 165.546 126.615 166.017 126.064 166.338C125.53 166.66 124.917 166.83 124.293 166.829H124.358ZM128.468 159.798C127.866 159.796 127.277 159.631 126.762 159.32C126.227 159.008 125.782 158.563 125.469 158.028C125.185 157.496 125.042 156.9 125.056 156.296C125.074 155.698 125.248 155.114 125.56 154.603C125.818 154.216 126.077 153.828 126.322 153.44C126.553 153.04 126.866 152.692 127.24 152.419C127.626 152.141 128.066 151.947 128.532 151.851C128.984 151.76 129.45 151.76 129.902 151.851C130.362 151.932 130.801 152.103 131.194 152.355C131.575 152.615 131.9 152.949 132.151 153.337C132.398 153.714 132.566 154.138 132.644 154.582C132.722 155.027 132.708 155.483 132.603 155.922C132.51 156.391 132.312 156.833 132.021 157.214L131.259 158.312C130.954 158.771 130.541 159.148 130.057 159.411C129.568 159.671 129.022 159.809 128.468 159.811V159.798ZM133.146 153.13C132.516 153.131 131.898 152.957 131.362 152.626C130.815 152.296 130.368 151.822 130.07 151.256C129.797 150.69 129.685 150.06 129.747 149.434C129.804 148.805 130.037 148.205 130.419 147.702C130.69 147.328 130.988 146.966 131.272 146.591C131.824 145.885 132.633 145.427 133.523 145.318C134.412 145.209 135.309 145.458 136.015 146.01C136.721 146.561 137.179 147.371 137.288 148.26C137.397 149.15 137.148 150.046 136.596 150.752L135.795 151.799C135.475 152.208 135.064 152.537 134.596 152.761C134.127 152.986 133.613 153.098 133.094 153.091L133.146 153.13ZM138.315 146.824C137.502 146.827 136.716 146.532 136.105 145.997C135.771 145.709 135.499 145.358 135.304 144.963C135.098 144.561 134.979 144.121 134.955 143.671C134.923 143.234 134.976 142.795 135.11 142.378C135.255 141.957 135.478 141.566 135.769 141.228L136.674 140.181C137.277 139.547 138.103 139.171 138.977 139.133C139.852 139.094 140.708 139.396 141.365 139.975C142.024 140.551 142.432 141.363 142.502 142.236C142.579 143.109 142.31 143.977 141.752 144.653L140.899 145.648C140.58 146.018 140.183 146.313 139.736 146.514C139.293 146.71 138.813 146.811 138.328 146.811L138.315 146.824ZM143.807 140.802C143.311 140.807 142.82 140.702 142.37 140.494C141.919 140.286 141.52 139.98 141.203 139.599C140.885 139.218 140.656 138.771 140.532 138.291C140.408 137.81 140.392 137.309 140.486 136.821C140.605 136.171 140.91 135.57 141.365 135.09L142.321 134.095C142.635 133.782 143.003 133.528 143.407 133.345C143.814 133.166 144.253 133.069 144.699 133.061C145.141 133.058 145.58 133.142 145.991 133.306C146.406 133.465 146.784 133.707 147.103 134.017C147.418 134.329 147.672 134.697 147.852 135.103C148.032 135.51 148.129 135.949 148.136 136.395C148.137 136.837 148.054 137.276 147.891 137.687C147.732 138.098 147.49 138.472 147.18 138.786L146.263 139.755C145.947 140.09 145.564 140.354 145.138 140.53C144.729 140.704 144.29 140.796 143.846 140.802H143.807ZM149.519 134.999C148.852 135.001 148.199 134.803 147.645 134.431C147.073 134.061 146.623 133.531 146.353 132.906C146.106 132.282 146.044 131.6 146.172 130.941C146.302 130.284 146.626 129.681 147.103 129.21L148.085 128.253C148.73 127.631 149.592 127.284 150.488 127.284C151.385 127.298 152.239 127.664 152.866 128.305C153.489 128.945 153.836 129.803 153.835 130.696C153.832 131.14 153.739 131.579 153.564 131.987C153.389 132.396 153.134 132.765 152.814 133.074L151.858 134.017C151.551 134.338 151.182 134.593 150.773 134.767C150.365 134.945 149.925 135.037 149.48 135.038L149.519 134.999ZM155.36 129.313C154.687 129.317 154.028 129.114 153.474 128.732C152.897 128.367 152.446 127.835 152.181 127.207C151.924 126.582 151.861 125.894 151.999 125.233C152.137 124.572 152.471 123.967 152.957 123.498L153.926 122.554C154.242 122.222 154.619 121.955 155.037 121.766C155.445 121.588 155.884 121.492 156.33 121.482C156.772 121.489 157.21 121.576 157.622 121.74C158.044 121.922 158.426 122.185 158.746 122.516C159.065 122.846 159.316 123.237 159.483 123.666C159.647 124.094 159.722 124.551 159.702 125.009C159.682 125.467 159.568 125.916 159.366 126.328C159.171 126.744 158.889 127.114 158.539 127.413L157.557 128.357C156.931 128.974 156.085 129.318 155.205 129.313H155.36ZM161.214 123.653C160.771 123.656 160.331 123.568 159.922 123.394C159.505 123.215 159.128 122.956 158.811 122.632C158.186 121.989 157.843 121.124 157.854 120.228C157.873 119.333 158.239 118.48 158.875 117.85L159.845 116.907C160.163 116.597 160.541 116.355 160.956 116.196C161.365 116.026 161.805 115.938 162.248 115.938C162.692 115.938 163.131 116.026 163.541 116.196C163.947 116.374 164.315 116.629 164.626 116.946C164.938 117.257 165.181 117.632 165.337 118.044C165.501 118.455 165.585 118.894 165.582 119.336C165.579 119.781 165.486 120.22 165.311 120.628C165.136 121.036 164.881 121.406 164.562 121.714L163.592 122.671C162.956 123.289 162.102 123.632 161.214 123.627V123.653ZM167.017 117.928C166.35 117.941 165.695 117.747 165.143 117.372C164.565 117.015 164.113 116.487 163.851 115.86C163.593 115.243 163.525 114.562 163.656 113.906C163.788 113.25 164.112 112.648 164.587 112.177L165.531 111.208C166.171 110.623 167.011 110.305 167.878 110.321C168.745 110.337 169.573 110.684 170.191 111.293C170.809 111.901 171.17 112.723 171.2 113.59C171.23 114.456 170.926 115.301 170.351 115.951L169.382 116.933C169.072 117.257 168.698 117.512 168.283 117.682C167.873 117.849 167.434 117.933 166.991 117.928H167.017ZM172.664 112.048C172.011 112.047 171.373 111.854 170.829 111.492C170.259 111.15 169.808 110.64 169.537 110.032C169.292 109.444 169.221 108.798 169.33 108.171C169.433 107.526 169.72 106.925 170.157 106.439L171.062 105.457C171.347 105.089 171.706 104.784 172.115 104.562C172.525 104.34 172.976 104.204 173.44 104.165C173.899 104.13 174.36 104.188 174.797 104.333C175.229 104.489 175.628 104.726 175.973 105.031C176.308 105.342 176.58 105.715 176.774 106.129C176.96 106.536 177.065 106.975 177.084 107.421C177.087 107.864 177.004 108.303 176.838 108.714C176.669 109.143 176.409 109.531 176.076 109.851L175.133 110.872C174.813 111.223 174.42 111.501 173.982 111.686C173.548 111.88 173.075 111.972 172.6 111.957L172.664 112.048ZM178.04 105.935C177.426 105.932 176.823 105.762 176.298 105.443C175.772 105.125 175.342 104.669 175.055 104.126C174.844 103.724 174.713 103.285 174.667 102.834C174.633 102.398 174.681 101.959 174.809 101.541C174.938 101.117 175.149 100.722 175.43 100.378L176.283 99.3446C176.863 98.6861 177.677 98.2789 178.552 98.209C179.428 98.139 180.296 98.4118 180.974 98.9698C181.655 99.5221 182.092 100.321 182.189 101.193C182.289 102.063 182.048 102.938 181.517 103.635L180.638 104.695C180.326 105.083 179.928 105.393 179.475 105.599C179.023 105.816 178.528 105.926 178.027 105.922L178.04 105.935ZM183.041 99.4738C182.576 99.4751 182.115 99.3801 181.688 99.1947C181.261 99.0093 180.877 98.7374 180.56 98.3963C180.243 98.0552 180.001 97.6522 179.847 97.2127C179.694 96.7731 179.633 96.3066 179.669 95.8424C179.718 95.2183 179.937 94.6195 180.302 94.1107L181.077 93.0381C181.627 92.3968 182.395 91.9823 183.233 91.8749C184.071 91.7674 184.919 91.9747 185.613 92.4566C186.302 92.9464 186.785 93.6737 186.97 94.4984C187.154 95.3224 187.021 96.1856 186.595 96.915L185.781 98.0523C185.478 98.5027 185.064 98.8676 184.579 99.1119C184.103 99.3685 183.57 99.5018 183.029 99.4996L183.041 99.4738ZM187.539 92.6892C186.935 92.7035 186.339 92.5467 185.82 92.2369C185.276 91.936 184.828 91.4882 184.528 90.9446C184.233 90.4138 184.086 89.8138 184.102 89.207C184.118 88.6003 184.296 88.0088 184.618 87.4941C184.851 87.1194 185.07 86.7446 185.29 86.3699C185.748 85.6032 186.484 85.043 187.345 84.8062C187.776 84.685 188.227 84.6523 188.671 84.71C189.116 84.7678 189.544 84.9147 189.929 85.1421C190.318 85.363 190.657 85.6623 190.924 86.0209C191.194 86.3707 191.392 86.7704 191.506 87.1969C191.621 87.6295 191.649 88.0805 191.589 88.524C191.529 88.9676 191.383 89.3949 191.157 89.7815C190.924 90.1951 190.679 90.5957 190.446 90.9963C190.155 91.5159 189.732 91.9488 189.219 92.2508C188.705 92.5528 188.121 92.7131 187.526 92.7151L187.539 92.6892ZM191.416 85.5169C190.847 85.5164 190.287 85.3743 189.787 85.1034C189.035 84.6866 188.469 84.0002 188.202 83.1824C187.936 82.3646 187.99 81.4764 188.353 80.6966C188.547 80.309 188.728 79.9083 188.908 79.5206C189.282 78.7065 189.959 78.0709 190.795 77.7502C191.42 77.5139 192.1 77.4684 192.751 77.6193C193.401 77.7703 193.992 78.1109 194.449 78.5981C194.906 79.0853 195.208 79.697 195.316 80.3559C195.425 81.0147 195.336 81.691 195.06 82.2991L194.465 83.5914C194.2 84.1819 193.767 84.6816 193.22 85.0285C192.674 85.3754 192.037 85.5542 191.39 85.5428L191.416 85.5169ZM194.452 77.9699C193.648 77.9666 192.87 77.6756 192.261 77.1495C191.652 76.6234 191.251 75.8968 191.131 75.101C191.047 74.5735 191.087 74.0337 191.248 73.5244L191.635 72.3096C191.769 71.8871 191.979 71.4928 192.256 71.1465C192.541 70.8089 192.887 70.5283 193.276 70.3195C193.679 70.1101 194.117 69.9785 194.569 69.9318C195.004 69.8923 195.442 69.9362 195.861 70.061C196.285 70.1917 196.68 70.4022 197.024 70.6813C197.369 70.9624 197.655 71.3094 197.864 71.7022C198.074 72.1038 198.201 72.5431 198.239 72.9945C198.285 73.4296 198.241 73.8695 198.11 74.2868C197.98 74.752 197.825 75.2044 197.67 75.6696C197.452 76.3536 197.022 76.9508 196.443 77.3754C195.86 77.7952 195.158 78.0171 194.44 78.0087L194.452 77.9699ZM196.494 70.0868C196.003 70.0845 195.517 69.9742 195.073 69.7638C194.625 69.5485 194.229 69.24 193.91 68.8591C193.6 68.4788 193.371 68.039 193.238 67.5668C193.113 67.0858 193.091 66.5838 193.173 66.0936C193.251 65.6801 193.328 65.2536 193.393 64.8013C193.542 63.9196 194.032 63.1321 194.758 62.6096C195.484 62.0871 196.386 61.8716 197.27 62.0099C198.151 62.159 198.939 62.6495 199.461 63.3752C199.984 64.101 200.199 65.0034 200.061 65.8869C199.984 66.3521 199.906 66.8302 199.815 67.2955C199.687 68.0874 199.279 68.8071 198.665 69.3244C198.05 69.8419 197.272 70.1257 196.468 70.1256L196.494 70.0868ZM197.425 61.997H197.283C196.388 61.9567 195.545 61.5648 194.938 60.9066C194.33 60.2484 194.007 59.3771 194.039 58.482V57.1897C194.049 56.2996 194.411 55.4497 195.045 54.8251C195.679 54.2006 196.535 53.8521 197.425 53.8555C197.869 53.8657 198.307 53.9576 198.717 54.1269C199.541 54.4858 200.191 55.1542 200.526 55.9878C200.693 56.3977 200.772 56.8379 200.759 57.2801V58.7275C200.735 59.6039 200.374 60.4373 199.751 61.0536C199.124 61.6725 198.28 62.0205 197.399 62.0229L197.425 61.997ZM197.115 53.8943C196.286 53.8966 195.485 53.5935 194.865 53.0429C194.245 52.4922 193.85 51.7326 193.755 50.9091C193.729 50.4749 193.673 50.0431 193.587 49.6168C193.503 48.7508 193.756 47.886 194.294 47.2017C194.831 46.5173 195.611 46.0661 196.472 45.9414C197.333 45.8167 198.209 46.0283 198.918 46.5321C199.627 47.036 200.115 47.7935 200.281 48.6475L200.475 50.082C200.529 50.5235 200.495 50.9713 200.375 51.3996C200.256 51.828 200.052 52.2285 199.777 52.578C199.502 52.9275 199.161 53.2192 198.773 53.4362C198.384 53.6533 197.957 53.7914 197.515 53.8426L197.115 53.8943ZM104.069 46.2826C103.53 46.2815 102.998 46.1531 102.518 45.9079C101.725 45.4984 101.126 44.7924 100.851 43.9436C100.581 43.0879 100.655 42.1609 101.058 41.359L101.743 40.0667C102.184 39.2561 102.927 38.6524 103.81 38.3867C104.231 38.2738 104.668 38.2345 105.103 38.2704C105.556 38.3152 105.996 38.4515 106.395 38.671C106.783 38.8814 107.126 39.167 107.403 39.511C107.684 39.8589 107.895 40.2583 108.023 40.687C108.137 41.1077 108.176 41.545 108.14 41.9793C108.096 42.433 107.96 42.8728 107.739 43.2716C107.532 43.6334 107.325 44.0082 107.145 44.3829C106.844 44.9265 106.396 45.3744 105.852 45.6752C105.317 46.0071 104.699 46.1817 104.069 46.1792V46.2826ZM195.344 45.9596C194.623 45.9587 193.922 45.7278 193.341 45.3005C192.737 44.8812 192.284 44.2785 192.049 43.5817C191.932 43.1811 191.803 42.7805 191.661 42.3928C191.518 41.9778 191.456 41.5389 191.48 41.1005C191.503 40.6513 191.617 40.2115 191.816 39.8082C192.011 39.4055 192.283 39.0454 192.617 38.7485C192.949 38.4552 193.335 38.2312 193.755 38.0894C194.17 37.9472 194.609 37.8858 195.047 37.9085C195.496 37.9312 195.936 38.0455 196.339 38.2445C196.739 38.4385 197.098 38.7059 197.399 39.0328C197.691 39.3648 197.915 39.7513 198.058 40.17C198.226 40.6224 198.368 41.0876 198.523 41.5528C198.678 42.0633 198.718 42.6017 198.64 43.1294C198.545 43.6512 198.331 44.1441 198.015 44.57C197.699 44.9958 197.289 45.3431 196.817 45.5848C196.346 45.8273 195.823 45.9514 195.292 45.9466L195.344 45.9596ZM108.359 39.4334C107.645 39.4292 106.95 39.2035 106.369 38.7873C105.666 38.2482 105.202 37.4548 105.077 36.5774C104.929 35.6695 105.148 34.7401 105.684 33.9928L106.55 32.8298C107.089 32.0806 107.902 31.5744 108.812 31.4212C109.243 31.3663 109.68 31.3881 110.104 31.4858C110.571 31.5934 111.011 31.7958 111.396 32.0802C111.757 32.3649 112.059 32.7158 112.288 33.1141C112.508 33.514 112.649 33.9529 112.701 34.4064C112.743 34.8628 112.699 35.3229 112.572 35.7633C112.433 36.1992 112.209 36.6033 111.913 36.9522C111.655 37.2882 111.396 37.6242 111.151 37.9731C110.84 38.41 110.427 38.7648 109.949 39.007C109.471 39.2436 108.945 39.3674 108.411 39.3688L108.359 39.4334ZM192.178 38.5288C191.574 38.5292 190.981 38.3687 190.459 38.0636C189.921 37.7563 189.474 37.31 189.167 36.7713L188.547 35.6858C188.143 34.9178 188.052 34.0235 188.293 33.1901C188.534 32.3566 189.088 31.6487 189.839 31.2144C190.578 30.7631 191.464 30.6192 192.307 30.8138C193.152 31.0078 193.891 31.516 194.375 32.2353L194.801 32.9848L195.112 33.5147C195.394 34.0339 195.541 34.6163 195.538 35.2076C195.523 35.7948 195.358 36.3685 195.06 36.8747C194.748 37.3866 194.301 37.8025 193.768 38.0765C193.259 38.376 192.677 38.5282 192.088 38.5159L192.178 38.5288ZM113.671 33.2175C113.174 33.2164 112.684 33.1061 112.235 32.8944C111.785 32.6827 111.388 32.3749 111.071 31.9926C110.754 31.6103 110.526 31.163 110.401 30.6823C110.276 30.2017 110.258 29.6995 110.349 29.2113C110.479 28.5621 110.788 27.9622 111.241 27.4796L112.275 26.4458C112.762 26.0178 113.361 25.7384 114.002 25.641C114.643 25.5436 115.298 25.6321 115.89 25.8961C116.482 26.1601 116.986 26.5885 117.341 27.1303C117.697 27.6722 117.89 28.3047 117.896 28.9529C117.909 29.8203 117.585 30.6589 116.992 31.2919L116.1 32.1836C115.783 32.5015 115.405 32.752 114.989 32.9202C114.576 33.0777 114.138 33.1565 113.697 33.1528L113.671 33.2175ZM187.564 31.9252C187.076 31.9345 186.591 31.8375 186.143 31.6408C185.699 31.4372 185.302 31.1422 184.98 30.775L184.14 29.8445C183.57 29.1815 183.278 28.3235 183.326 27.4502C183.374 26.577 183.759 25.7563 184.398 25.16C185.038 24.5637 185.884 24.238 186.758 24.2513C187.633 24.2645 188.468 24.6156 189.089 25.231L190.072 26.3166C190.367 26.6514 190.591 27.0426 190.731 27.4667C190.875 27.8813 190.932 28.3213 190.899 28.759C190.873 29.2077 190.759 29.6469 190.563 30.0513C190.359 30.4441 190.083 30.7949 189.748 31.0852C189.129 31.5769 188.355 31.8333 187.564 31.8089V31.9252ZM119.77 27.8027C119.066 27.8024 118.38 27.5817 117.807 27.1714C117.235 26.7612 116.805 26.1821 116.578 25.5153C116.358 24.8437 116.358 24.1193 116.578 23.4477C116.784 22.774 117.189 22.179 117.741 21.7418C118.129 21.4446 118.504 21.1603 118.904 20.876C119.447 20.533 120.076 20.3512 120.717 20.3518C121.359 20.3524 121.987 20.5354 122.529 20.8794C123.071 21.2234 123.504 21.7143 123.777 22.2948C124.051 22.8754 124.153 23.5217 124.074 24.1584C123.94 25.0255 123.477 25.8077 122.781 26.3424C122.432 26.5879 122.096 26.8464 121.76 27.1049C121.172 27.5592 120.449 27.8047 119.706 27.8027H119.77ZM181.659 26.2519C180.917 26.2548 180.195 26.0142 179.604 25.567L178.596 24.8046C178.238 24.5483 177.935 24.2232 177.704 23.8483C177.468 23.4511 177.31 23.0125 177.239 22.556C177.163 22.1072 177.176 21.6479 177.278 21.2043C177.38 20.7607 177.569 20.3417 177.833 19.9714C178.095 19.6131 178.424 19.31 178.803 19.0797C179.199 18.8411 179.638 18.683 180.095 18.6144C180.522 18.5324 180.96 18.5324 181.387 18.6144C181.82 18.7145 182.228 18.899 182.589 19.1572C182.99 19.4415 183.365 19.7258 183.752 20.023C184.321 20.4497 184.738 21.0477 184.941 21.7289C185.148 22.4081 185.134 23.1354 184.902 23.8063C184.67 24.4773 184.231 25.0575 183.649 25.4636C183.089 25.9329 182.389 26.2014 181.659 26.2261V26.2519ZM126.607 23.2667C125.86 23.2774 125.132 23.0361 124.539 22.5818C123.946 22.1231 123.52 21.4832 123.324 20.7597C123.129 20.035 123.183 19.2655 123.479 18.5757C123.776 17.8884 124.288 17.3167 124.94 16.9474L126.232 16.2495C127.023 15.8905 127.921 15.8456 128.744 16.124C129.567 16.4023 130.254 16.9831 130.664 17.7486C131.064 18.517 131.156 19.4087 130.923 20.2428C130.688 21.0808 130.137 21.7947 129.385 22.2329L128.274 22.8403C127.752 23.129 127.164 23.2761 126.568 23.2667H126.607ZM174.784 21.9098C174.249 21.9086 173.721 21.7802 173.246 21.5351L172.109 20.9794C171.346 20.565 170.771 19.8735 170.504 19.0477C170.236 18.2219 170.296 17.3249 170.671 16.542C171.046 15.759 171.707 15.15 172.518 14.8407C173.329 14.5313 174.228 14.5453 175.029 14.8797L176.321 15.5258C177.003 15.865 177.548 16.4262 177.867 17.1169C178.187 17.8075 178.262 18.5865 178.079 19.3252C177.908 20.0677 177.487 20.7292 176.888 21.1995C176.288 21.6697 175.546 21.9204 174.784 21.9098ZM133.973 19.8163C133.192 19.8068 132.44 19.518 131.853 19.0021C131.4 18.6223 131.054 18.1303 130.85 17.5753C130.646 17.0202 130.591 16.4214 130.691 15.8385C130.79 15.2555 131.04 14.7088 131.417 14.2526C131.793 13.7964 132.282 13.4468 132.836 13.2385L134.128 12.7474C134.974 12.4506 135.904 12.5017 136.712 12.8895C137.114 13.0794 137.475 13.3474 137.772 13.6781C138.069 14.0087 138.298 14.3952 138.444 14.8151C138.591 15.2334 138.655 15.6766 138.63 16.1194C138.606 16.5622 138.495 16.9958 138.303 17.3955C138.111 17.7952 137.842 18.1532 137.511 18.4488C137.181 18.7444 136.795 18.972 136.376 19.1184L135.162 19.5578C134.788 19.7076 134.388 19.7823 133.986 19.7775L133.973 19.8163ZM167.262 18.8212C166.911 18.8232 166.561 18.7664 166.229 18.6532L165.027 18.2914C164.263 17.9709 163.643 17.3827 163.282 16.6372C163.017 16.0772 162.911 15.4554 162.974 14.8391C163.037 14.2229 163.267 13.6355 163.639 13.1406C164.012 12.6456 164.513 12.2619 165.087 12.0309C165.662 11.7999 166.289 11.7304 166.901 11.8299C167.366 11.972 167.831 12.1012 168.283 12.2563C168.855 12.4394 169.368 12.7721 169.769 13.2198C170.169 13.6675 170.443 14.214 170.562 14.803C170.68 15.3919 170.639 16.0018 170.443 16.5696C170.247 17.1375 169.903 17.6426 169.446 18.0329C168.842 18.5629 168.066 18.8566 167.262 18.86V18.8212ZM141.778 17.5289C140.946 17.5222 140.146 17.2094 139.53 16.6501C138.914 16.0879 138.527 15.318 138.443 14.4881C138.36 13.6582 138.586 12.8266 139.077 12.1529C139.57 11.4919 140.287 11.0326 141.093 10.8606L142.502 10.5893C142.929 10.5085 143.367 10.5085 143.794 10.5893C144.229 10.6802 144.642 10.8558 145.009 11.1062C145.371 11.3653 145.683 11.6896 145.927 12.0625C146.163 12.4328 146.325 12.8453 146.405 13.2772C146.485 13.7042 146.485 14.1426 146.405 14.5695C146.309 15.0052 146.129 15.4179 145.875 15.7843C145.624 16.1493 145.303 16.4612 144.931 16.7018C144.556 16.938 144.14 17.1003 143.704 17.18L142.411 17.4384C142.184 17.4643 141.954 17.4643 141.727 17.4384L141.778 17.5289ZM159.328 16.9991H158.837L157.544 16.8311C157.103 16.7754 156.676 16.6325 156.29 16.4106C155.904 16.1888 155.566 15.8924 155.296 15.5388C154.74 14.8334 154.484 13.9371 154.585 13.0446C154.695 12.1577 155.15 11.3498 155.852 10.7959C156.553 10.242 157.444 9.98669 158.333 10.0853L159.78 10.2662C160.633 10.4107 161.399 10.8723 161.925 11.5585C162.455 12.2228 162.714 13.0632 162.649 13.9105C162.588 14.762 162.21 15.5597 161.589 16.1461C160.965 16.7279 160.143 17.0512 159.289 17.0508L159.328 16.9991ZM149.855 16.4951C148.994 16.4679 148.175 16.1118 147.568 15.5C146.956 14.8862 146.605 14.0607 146.585 13.1945C146.566 12.3284 146.881 11.4881 147.464 10.8477C148.041 10.206 148.84 9.80847 149.7 9.73633H151.16C152.022 9.78905 152.831 10.1689 153.422 10.7983C154.013 11.4276 154.341 12.2589 154.339 13.1222C154.338 13.9832 154.008 14.8113 153.417 15.4378C152.827 16.0644 152.02 16.4425 151.16 16.4951H149.868H149.855Z" fill="#DC5959"/>
<path d="M118.477 177.789C118.335 177.349 118.18 176.91 118.038 176.496C117.764 175.725 117.222 175.077 116.51 174.674C115.797 174.27 114.963 174.137 114.161 174.299C114.883 173.887 115.43 173.225 115.699 172.438C115.89 171.85 115.921 171.221 115.789 170.616C115.742 170.346 115.663 170.081 115.556 169.828C115.363 169.389 115.143 168.949 114.936 168.536C114.543 167.728 113.846 167.11 112.998 166.817C112.313 166.597 111.576 166.597 110.891 166.817C111.482 166.411 111.933 165.834 112.184 165.163C112.477 164.317 112.431 163.39 112.054 162.578C111.848 162.139 111.628 161.699 111.395 161.286C111.194 160.883 110.914 160.525 110.573 160.232C110.231 159.939 109.834 159.717 109.405 159.58C108.883 159.419 108.33 159.379 107.79 159.464C108.095 159.086 108.311 158.644 108.423 158.171C108.529 157.735 108.549 157.283 108.48 156.839C108.411 156.396 108.256 155.97 108.022 155.587L107.932 155.432C107.699 155.031 107.441 154.643 107.195 154.256C106.709 153.544 105.969 153.045 105.128 152.86C104.701 152.774 104.262 152.774 103.835 152.86C104.012 152.563 104.142 152.24 104.223 151.904C104.329 151.467 104.347 151.014 104.276 150.57C104.205 150.126 104.046 149.701 103.809 149.319C103.641 149.074 103.486 148.815 103.318 148.557L103.202 148.402L103.021 148.104C103.021 148.027 102.905 147.962 102.853 147.898L102.517 147.432C102.024 146.777 101.314 146.319 100.514 146.14C99.7055 145.962 98.8595 146.086 98.1362 146.489C98.7157 145.901 99.0525 145.117 99.0796 144.292C99.1152 143.468 98.8487 142.659 98.3301 142.018L97.4642 140.945C96.9331 140.315 96.1924 139.897 95.3782 139.769C94.5639 139.641 93.7308 139.811 93.0316 140.247C93.5803 139.632 93.8834 138.836 93.8834 138.012C93.8834 137.187 93.5803 136.391 93.0316 135.776L92.1012 134.755C91.5426 134.147 90.7779 133.77 89.956 133.695C89.135 133.612 88.312 133.833 87.6427 134.316C88.1504 133.663 88.3994 132.846 88.3422 132.021C88.285 131.196 87.9255 130.421 87.3326 129.844L86.3504 128.875C85.7587 128.303 84.9758 127.972 84.1535 127.945C83.3294 127.909 82.5206 128.176 81.8791 128.694C82.3422 128.013 82.5399 127.185 82.4348 126.368C82.3278 125.549 81.9285 124.796 81.3105 124.249L80.2766 123.344C79.652 122.807 78.8524 122.517 78.0287 122.529C77.205 122.541 76.4141 122.854 75.8053 123.409C76.2248 122.701 76.3723 121.864 76.2201 121.056C76.0679 120.247 75.6264 119.522 74.9782 119.015L73.8927 118.175C73.2361 117.674 72.4193 117.431 71.5958 117.49C70.7724 117.55 69.9991 117.908 69.4213 118.498C69.8005 117.765 69.8971 116.919 69.6927 116.12C69.4962 115.318 69.0078 114.617 68.3228 114.156L67.1856 113.38C66.4919 112.924 65.6545 112.74 64.8336 112.863C64.0074 112.984 63.2537 113.402 62.7142 114.039C63.059 113.294 63.1187 112.448 62.8822 111.662C62.637 110.875 62.1192 110.201 61.4219 109.762L60.2718 109.064C59.5808 108.642 58.7615 108.482 57.9626 108.612C57.1636 108.743 56.4378 109.155 55.9167 109.775C56.2536 109.035 56.3042 108.197 56.0589 107.423C55.828 106.639 55.3175 105.968 54.6244 105.536L53.526 104.825C52.8534 104.388 52.047 104.205 51.2515 104.308C50.4514 104.413 49.7143 104.797 49.1709 105.394C49.5233 104.671 49.6058 103.846 49.4035 103.068C49.2088 102.296 48.752 101.615 48.1112 101.142L47.0515 100.393C46.3984 99.9287 45.6028 99.7094 44.8041 99.7732C44.0055 99.837 43.2548 100.18 42.6836 100.742C43.0744 100.042 43.2032 99.2256 43.0469 98.4394C42.8906 97.6531 42.4594 96.9483 41.8306 96.4511L40.8226 95.6499C40.2136 95.141 39.4452 94.8622 38.6516 94.8622C37.8579 94.8622 37.0895 95.141 36.4805 95.6499C36.9192 94.9876 37.1029 94.1887 36.9974 93.4013C36.904 92.6137 36.5329 91.8852 35.9507 91.3466L35.0202 90.4678C34.4609 89.9236 33.7301 89.5902 32.9525 89.5244C32.1696 89.4644 31.3898 89.6741 30.7427 90.1189C31.2205 89.5029 31.4711 88.741 31.4523 87.9617C31.4335 87.1824 31.1463 86.4335 30.6393 85.8413L29.8251 84.8721C29.3386 84.278 28.6639 83.8677 27.9125 83.7091C27.1551 83.5529 26.3671 83.6576 25.6769 84.0063C26.231 83.4744 26.5828 82.7662 26.6719 82.0032C26.7636 81.2363 26.5903 80.4612 26.1809 79.8063L25.5476 78.7466C25.168 78.0913 24.5804 77.5815 23.878 77.2982C23.1756 77.0149 22.3988 76.9744 21.6707 77.1829C22.2768 76.7657 22.7305 76.1623 22.963 75.4642C23.2023 74.7647 23.2023 74.0055 22.963 73.306C22.8467 72.9829 22.7433 72.6469 22.6529 72.3885L22.5753 72.13C22.4453 71.7123 22.2247 71.3284 21.9292 71.0057C21.6466 70.6723 21.2993 70.3998 20.9083 70.2045C20.103 69.8081 19.1734 69.7477 18.3237 70.0365C17.4709 70.3349 16.7699 70.9569 16.3723 71.7682C15.9739 72.5712 15.8999 73.4967 16.1655 74.3528C16.2947 74.7534 16.424 75.154 16.5661 75.5546C16.851 76.3272 17.4066 76.9701 18.1298 77.3638C18.8936 77.7648 19.7835 77.8529 20.611 77.6094C19.9086 78.099 19.4116 78.8307 19.2153 79.6641C19.0216 80.4947 19.151 81.3679 19.5772 82.1066C19.8227 82.5201 20.0683 82.9337 20.3267 83.3989C20.7741 84.1427 21.4919 84.6845 22.3298 84.9109C23.1466 85.1454 24.0226 85.0527 24.7722 84.6524C24.1758 85.2505 23.8175 86.0452 23.7643 86.8881C23.7244 87.7308 23.9957 88.5587 24.5267 89.2142L25.4313 90.2998C25.9809 90.9358 26.7437 91.3494 27.5765 91.4629C28.4116 91.5691 29.2559 91.3569 29.9415 90.8684C29.4212 91.5272 29.1675 92.3575 29.2307 93.1945C29.281 94.0296 29.6458 94.8145 30.2516 95.3914L31.2467 96.3478C31.8554 96.9206 32.6551 97.247 33.4908 97.2637C34.3265 97.2805 35.1386 96.9863 35.7697 96.4382C35.3148 97.1363 35.1344 97.9781 35.2632 98.8013C35.3921 99.6245 35.8211 100.371 36.4676 100.897L37.5143 101.711C38.1668 102.227 38.984 102.488 39.8146 102.447C40.6409 102.398 41.4194 102.044 41.9986 101.452C41.5995 102.18 41.4803 103.028 41.6636 103.838C41.8469 104.647 42.32 105.362 42.9937 105.846L44.1051 106.634C44.7828 107.108 45.6094 107.319 46.4312 107.229C47.2537 107.14 48.0136 106.748 48.5635 106.13C48.2024 106.871 48.1239 107.719 48.3428 108.513C48.5616 109.308 49.0629 109.995 49.7524 110.447L50.9026 111.196C51.5966 111.639 52.4282 111.814 53.2416 111.687C54.0551 111.561 54.7947 111.143 55.3223 110.511C54.9818 111.258 54.9267 112.104 55.1672 112.889C55.3991 113.676 55.9149 114.348 56.6146 114.776L57.7518 115.474C58.4371 115.914 59.2629 116.08 60.065 115.939C60.8669 115.811 61.5936 115.392 62.1069 114.763C61.7846 115.496 61.7297 116.32 61.9516 117.089C62.1736 117.859 62.6584 118.527 63.3216 118.976L64.3942 119.7C65.0492 120.153 65.8442 120.36 66.6372 120.282C67.4302 120.203 68.1696 119.846 68.7234 119.273C68.3629 119.983 68.258 120.795 68.4262 121.573C68.6141 122.352 69.072 123.039 69.7185 123.512L70.7394 124.3C71.3654 124.796 72.1475 125.053 72.9455 125.024C73.7436 124.996 74.5054 124.684 75.0945 124.145C74.6913 124.829 74.5404 125.633 74.6679 126.417C74.7953 127.2 75.1932 127.915 75.7923 128.436L76.7745 129.289C77.3729 129.817 78.1398 130.114 78.9378 130.129C79.7357 130.143 80.5127 129.872 81.1295 129.366C80.678 130.026 80.4756 130.825 80.5585 131.62C80.6413 132.415 81.004 133.156 81.5818 133.708L82.5123 134.626C83.0793 135.192 83.8307 135.536 84.6299 135.595C85.4291 135.655 86.223 135.425 86.8674 134.949C86.3806 135.583 86.1332 136.369 86.1687 137.168C86.2041 137.967 86.5202 138.728 87.0612 139.317L87.94 140.26C88.4754 140.853 89.2032 141.238 89.9947 141.346C90.789 141.461 91.5982 141.282 92.2692 140.842C91.7607 141.456 91.4824 142.228 91.4824 143.026C91.4824 143.823 91.7607 144.595 92.2692 145.21L93.0963 146.218C93.597 146.842 94.3035 147.268 95.0895 147.42C95.8755 147.571 96.6897 147.438 97.3867 147.045C96.8341 147.62 96.5004 148.371 96.4438 149.166C96.3871 149.962 96.611 150.752 97.0766 151.4L97.5159 152.007L98.0458 152.834C98.3489 153.376 98.7962 153.823 99.3381 154.127C99.8945 154.403 100.514 154.528 101.134 154.488H101.341C101.13 154.854 100.993 155.258 100.941 155.677C100.835 156.465 101.008 157.266 101.432 157.939L102.104 159.024C102.404 159.568 102.852 160.016 103.396 160.317C103.951 160.601 104.57 160.734 105.192 160.704L105.477 160.64C105.239 160.954 105.051 161.302 104.921 161.674C104.646 162.529 104.72 163.458 105.128 164.258L105.696 165.421C105.96 165.992 106.376 166.479 106.898 166.83C107.429 167.169 108.039 167.365 108.669 167.398C109.065 167.399 109.459 167.329 109.832 167.192C109.229 167.59 108.775 168.176 108.539 168.859C108.242 169.705 108.294 170.635 108.681 171.443L108.888 171.883L109.237 172.697C109.551 173.431 110.114 174.031 110.827 174.39C111.533 174.749 112.344 174.845 113.114 174.661C112.43 175.054 111.904 175.672 111.626 176.41C111.347 177.148 111.335 177.96 111.589 178.706L111.99 179.908C112.226 180.601 112.679 181.199 113.282 181.614C113.86 182.036 114.557 182.262 115.272 182.26C116.076 182.263 116.851 181.963 117.443 181.42C117.777 181.128 118.05 180.772 118.244 180.373C118.44 179.969 118.555 179.53 118.58 179.081C118.633 178.648 118.597 178.208 118.477 177.789Z" fill="#DC5959"/>
<path d="M93.833 109.464C94.0643 108.801 94.0827 108.082 93.8858 107.408C93.6889 106.734 93.2864 106.138 92.7346 105.704L91.6103 104.825C90.8926 104.341 90.0167 104.15 89.1626 104.292C88.3086 104.434 87.5412 104.897 87.0184 105.587C86.4955 106.277 86.2568 107.141 86.3513 108.002C86.4458 108.862 86.8664 109.654 87.5266 110.214C87.8497 110.459 88.1986 110.718 88.5475 111.002C89.1388 111.482 89.8799 111.738 90.6411 111.726C91.345 111.733 92.0329 111.515 92.6053 111.106C93.1743 110.698 93.6032 110.125 93.833 109.464Z" fill="#FFFAF1"/>
<path d="M87.1787 104.759C87.3698 104.041 87.3245 103.279 87.0494 102.588C86.7686 101.9 86.2691 101.323 85.6279 100.947L84.4519 100.249C84.0701 100.024 83.6475 99.8753 83.2084 99.8129C82.7692 99.7505 82.3221 99.7752 81.8925 99.8856C81.4629 99.996 81.0592 100.19 80.7045 100.456C80.3499 100.723 80.0512 101.056 79.8255 101.438C79.5998 101.82 79.4515 102.243 79.3891 102.682C79.3267 103.121 79.3514 103.568 79.4618 103.998C79.5722 104.427 79.7661 104.831 80.0325 105.186C80.2989 105.54 80.6326 105.839 81.0144 106.065L82.1645 106.75C82.6889 107.06 83.2867 107.225 83.8962 107.228C84.6392 107.241 85.3643 106.999 85.951 106.543C86.5444 106.099 86.9757 105.472 87.1787 104.759Z" fill="#FFFAF1"/>
<path d="M79.9917 98.5182C79.7175 97.8304 79.2278 97.25 78.596 96.864L77.42 96.1662C76.6611 95.7178 75.7573 95.5831 74.9006 95.7906C74.0439 95.9981 73.3019 96.5316 72.8324 97.2776C73.0576 96.8908 73.2023 96.4624 73.2578 96.0182C73.3134 95.5741 73.2785 95.1233 73.1554 94.693C72.9307 93.8439 72.3836 93.116 71.6305 92.6641L70.4545 91.9662C69.6731 91.5132 68.7457 91.3833 67.8699 91.6044C67.0114 91.815 66.2694 92.353 65.8022 93.1034C66.026 92.7281 66.1732 92.3122 66.2353 91.8796C66.2974 91.4471 66.2732 91.0066 66.1641 90.5835C65.9535 89.725 65.4155 88.9829 64.665 88.5158L63.5536 87.8179C62.8325 87.3625 61.9661 87.1961 61.1275 87.3518C60.289 87.5075 59.5401 87.974 59.0306 88.6579C59.502 87.9548 59.6907 87.0997 59.5589 86.2636C59.4272 85.4274 58.9846 84.6718 58.3198 84.1478L57.3506 83.3465C56.7367 82.827 55.9579 82.543 55.1537 82.5453C54.3502 82.5475 53.5729 82.8309 52.9567 83.3465C53.4912 82.7571 53.7981 81.9966 53.8226 81.2013C53.8445 80.4071 53.5886 79.6301 53.0989 79.0044C52.8663 78.6943 52.6207 78.3712 52.4011 78.0481C51.9588 77.4221 51.3159 76.9662 50.5789 76.7558C49.8361 76.5451 49.0441 76.5907 48.3303 76.885C48.9759 76.4799 49.4673 75.8703 49.726 75.1534C49.9844 74.4305 49.9844 73.6405 49.726 72.9177C49.6097 72.5558 49.4934 72.194 49.39 71.8321C49.1887 71.1532 48.7803 70.5541 48.2219 70.1185C47.6636 69.6829 46.9831 69.4326 46.2755 69.4026C46.9763 69.2576 47.6138 68.896 48.0977 68.3688C48.5775 67.8428 48.8764 67.1771 48.9506 66.4691C48.9877 66.1174 49.0438 65.768 49.1186 65.4223C49.2556 64.7588 49.188 64.0694 48.9248 63.4451C48.6581 62.8144 48.2078 62.2786 47.6325 61.9073C48.2846 62.1122 48.9839 62.1118 49.6357 61.9061C50.2876 61.7004 50.8605 61.2993 51.2768 60.7571C51.4965 60.4857 51.7291 60.2143 51.9617 59.9559C52.4403 59.4467 52.7476 58.8005 52.8404 58.1079C52.9427 57.4102 52.8157 56.6983 52.4786 56.079C52.9562 56.6062 53.5861 56.9716 54.2809 57.1245C54.9756 57.2773 55.7007 57.21 56.3555 56.9319C56.6786 56.7898 57.0146 56.6734 57.3377 56.5571C57.9873 56.3531 58.5597 55.9565 58.9789 55.4199C59.4031 54.8834 59.6513 54.229 59.6897 53.5461C59.8425 54.2121 60.194 54.816 60.6976 55.2778C61.1987 55.7412 61.8305 56.039 62.5069 56.1307C62.8687 56.1307 63.2176 56.247 63.5666 56.3245C64.3285 56.5218 65.1356 56.4432 65.8451 56.1026C66.5547 55.762 67.1208 55.1815 67.4435 54.4636C67.2247 55.2239 67.2749 56.0363 67.5856 56.7639C67.8978 57.484 68.4506 58.0733 69.1493 58.431L70.2607 59.0254C71.0049 59.4422 71.8805 59.558 72.7074 59.3488C73.5343 59.1397 74.2496 58.6216 74.7062 57.9011C74.2943 58.6545 74.1747 59.5333 74.3702 60.3694C74.5751 61.2025 75.0876 61.9273 75.8046 62.3983L76.8902 63.122C77.6099 63.6082 78.4894 63.798 79.3456 63.6519C80.1967 63.5131 80.961 63.0499 81.4779 62.3596C80.9966 63.0814 80.8073 63.9589 80.948 64.8149C81.0894 65.6651 81.552 66.4285 82.2403 66.9472L83.2742 67.7485C83.9592 68.2749 84.8174 68.524 85.6778 68.4463C86.5388 68.3622 87.3346 67.9504 87.9006 67.2962C87.3719 67.98 87.1224 68.8391 87.2028 69.6998C87.2822 70.5593 87.6895 71.3553 88.34 71.9226L89.3092 72.7884C89.6386 73.0875 90.0256 73.3161 90.4464 73.4604C90.8591 73.6138 91.2992 73.6798 91.7387 73.6543C92.1866 73.6329 92.6258 73.5231 93.031 73.3312C93.4292 73.1412 93.7852 72.8731 94.0778 72.5429C94.6756 71.879 94.9869 71.0057 94.9436 70.1134C94.9223 69.6655 94.8125 69.2263 94.6206 68.8211C94.4308 68.419 94.1628 68.0587 93.8323 67.7614L92.7855 66.8309C92.4502 66.5432 92.0647 66.3197 91.6483 66.1719C91.2335 66.0283 90.7937 65.9711 90.356 66.0039C89.9121 66.0294 89.4779 66.1432 89.0785 66.3384C88.6791 66.5337 88.3226 66.8065 88.0298 67.1411C88.3083 66.7951 88.5108 66.3944 88.6243 65.9651C88.7454 65.5457 88.7805 65.1061 88.7277 64.6728C88.6799 64.2182 88.5391 63.7783 88.3141 63.3805C88.0892 62.9944 87.7906 62.6564 87.4354 62.3854L86.3369 61.5325C85.6194 60.9943 84.7182 60.7616 83.8298 60.885C82.9414 61.0085 82.1378 61.4781 81.5942 62.1916C81.8496 61.8273 82.0257 61.4134 82.1111 60.9768C82.1981 60.5504 82.1981 60.1109 82.1111 59.6845C82.0303 59.2487 81.8586 58.8347 81.6071 58.4697C81.3655 58.0944 81.0486 57.7732 80.6766 57.5264L79.5136 56.751C79.1466 56.5057 78.7331 56.3385 78.2988 56.2599C77.8716 56.1809 77.4336 56.1809 77.0065 56.2599C76.5488 56.3464 76.1135 56.5251 75.7269 56.785C75.3404 57.0449 75.0107 57.3807 74.7579 57.7719C74.9756 57.3861 75.1149 56.9611 75.1678 56.5213C75.2207 56.0815 75.1861 55.6356 75.066 55.2093C74.9459 54.7829 74.7426 54.3845 74.468 54.0369C74.1933 53.6894 73.8527 53.3996 73.4656 53.1842L72.1733 52.4993C71.7693 52.298 71.3308 52.1752 70.881 52.1375C70.4442 52.1013 70.0045 52.1541 69.5887 52.2925C69.1676 52.4325 68.7772 52.6519 68.4385 52.9387C68.097 53.225 67.8159 53.5765 67.6115 53.9725V53.8691C67.6985 53.4428 67.6985 53.0032 67.6115 52.5768C67.5382 52.1189 67.3758 51.6798 67.1333 51.2845C66.8883 50.9083 66.5723 50.5834 66.2028 50.3282C65.8393 50.0689 65.4255 49.8884 64.9881 49.7984C64.4582 49.6821 63.9284 49.5787 63.3986 49.5012C62.9675 49.4434 62.5294 49.4653 62.1062 49.5658C61.6714 49.6724 61.2626 49.8658 60.9044 50.1344C60.5427 50.3968 60.2391 50.7312 60.0127 51.1165C59.7759 51.5122 59.622 51.9519 59.5604 52.4088V52.6027L59.4829 52.3055C59.21 51.4506 58.6089 50.739 57.8117 50.3271C57.0145 49.9152 56.0863 49.8366 55.2312 50.1086C54.7143 50.2766 54.1844 50.4704 53.6804 50.6901C53.2747 50.8637 52.9061 51.1137 52.5949 51.4267C52.2842 51.742 52.0383 52.1152 51.8712 52.5252C51.7025 52.9352 51.6148 53.374 51.6128 53.8175C51.6229 54.2613 51.7149 54.6994 51.8841 55.1098C51.9193 55.2079 51.9626 55.303 52.0134 55.3941L51.8066 55.1873C51.4844 54.8855 51.1071 54.6485 50.6952 54.4895C50.282 54.3358 49.8437 54.2613 49.4029 54.2697C48.9553 54.2821 48.5151 54.3877 48.1106 54.5799C47.7076 54.7632 47.3435 55.022 47.038 55.3424C46.6632 55.7817 46.3014 56.2082 45.9654 56.6347C45.6919 56.9838 45.4899 57.3834 45.3709 57.8107C45.2542 58.231 45.2234 58.6705 45.2805 59.103C45.3283 59.5575 45.469 59.9974 45.694 60.3953C45.9055 60.783 46.1961 61.122 46.5469 61.3903L46.8054 61.5713L46.4823 61.4937C45.6125 61.3168 44.708 61.4885 43.9636 61.972C43.2191 62.4554 42.6943 63.2118 42.502 64.0783C42.3857 64.6211 42.3082 65.1639 42.2436 65.7066C42.1522 66.6004 42.4117 67.4947 42.9673 68.2008C43.2528 68.5425 43.603 68.8246 43.9977 69.0309C44.3924 69.2371 44.8239 69.3634 45.2676 69.4026C44.8403 69.5225 44.441 69.7258 44.0928 70.0009C43.7446 70.2759 43.4543 70.6172 43.2386 71.0051C43.0175 71.3935 42.8751 71.8217 42.8197 72.2652C42.7642 72.7087 42.7968 73.1588 42.9156 73.5897C43.0577 74.0937 43.2128 74.5977 43.3808 75.0887C43.5223 75.5108 43.7513 75.8984 44.0528 76.226C44.3449 76.56 44.7008 76.8324 45.0996 77.0272C45.4985 77.2241 45.9331 77.3382 46.3773 77.3627C46.8215 77.3871 47.2661 77.3213 47.6842 77.1693L47.8522 77.1564L47.6842 77.2727C47.3225 77.5287 47.0151 77.8537 46.7795 78.229C46.5434 78.604 46.3811 79.0208 46.3014 79.4567C46.2144 79.8831 46.2144 80.3227 46.3014 80.749C46.3913 81.1825 46.5719 81.5921 46.8312 81.9509C47.1285 82.3644 47.4386 82.7779 47.7488 83.1656C48.0233 83.514 48.3609 83.8077 48.7438 84.0315C49.1417 84.2565 49.5816 84.3972 50.0361 84.445C50.4695 84.4982 50.9091 84.463 51.3285 84.3416C51.7557 84.2227 52.1553 84.0207 52.5044 83.7472L52.6337 83.6309L52.5561 83.7213C51.9836 84.4104 51.7051 85.297 51.7808 86.1896C51.8162 86.6328 51.9396 87.0644 52.1438 87.4594C52.3479 87.8543 52.6287 88.2047 52.9697 88.4899L54.0811 89.4074C54.7865 89.9634 55.6827 90.2188 56.5752 90.1182C57.0202 90.0678 57.4502 89.9272 57.8391 89.705C58.2279 89.4828 58.5674 89.1837 58.8367 88.8259L58.9143 88.7225V88.7871C58.4358 89.545 58.2773 90.4616 58.4735 91.3361C58.6697 92.2106 59.2046 92.9716 59.961 93.4523L61.137 94.189C61.5185 94.4268 61.9432 94.587 62.3868 94.6602C62.8303 94.7333 63.284 94.7181 63.7216 94.6154C64.1528 94.5133 64.5596 94.3272 64.9188 94.0677C65.278 93.8083 65.5826 93.4806 65.8152 93.1034C65.3615 93.8751 65.2319 94.7951 65.4547 95.662C65.6775 96.529 66.2346 97.2725 67.0041 97.7299L68.1542 98.4148C68.9134 98.8706 69.8214 99.0094 70.6822 98.8015C71.5429 98.5936 72.2874 98.0555 72.7548 97.3034C72.3212 98.0932 72.219 99.0229 72.4705 99.888C72.5876 100.311 72.7871 100.707 73.0577 101.053C73.3282 101.399 73.6645 101.688 74.0471 101.904L75.1973 102.589C75.7217 102.9 76.3195 103.065 76.929 103.067L76.8127 103.132C77.5518 103.132 78.27 102.886 78.8545 102.434C79.4265 101.989 79.8407 101.372 80.0361 100.674C80.2315 99.9764 80.1978 99.2343 79.94 98.5569L79.9917 98.5182Z" fill="#FFFAF1"/>
<path d="M93.3681 73.5765C93.1893 73.9838 93.0969 74.4239 93.0967 74.8688C93.0943 75.3113 93.1777 75.7502 93.3423 76.1611C93.5078 76.5718 93.7539 76.9453 94.066 77.2595L94.9835 78.2029C95.2962 78.5324 95.6749 78.7922 96.0949 78.9654C96.609 79.1827 97.1683 79.2715 97.7244 79.2242C98.2805 79.1769 98.8168 78.995 99.2869 78.694C99.8548 78.3312 100.304 77.8101 100.579 77.1949C100.845 76.5827 100.922 75.9049 100.8 75.2486C100.678 74.5923 100.363 73.9874 99.8942 73.5118L98.9121 72.5168C98.6009 72.2038 98.2323 71.9537 97.8266 71.7802C97.4153 71.6137 96.9777 71.5218 96.5343 71.5088C96.0908 71.5108 95.652 71.5986 95.2419 71.7672C94.8312 71.9328 94.4577 72.1789 94.1435 72.4909C93.8123 72.7949 93.5482 73.1646 93.3681 73.5765Z" fill="#FFFAF1"/>
<path d="M162.468 64.2327C162.308 63.8186 162.066 63.4407 161.757 63.1213C161.447 62.8005 161.079 62.5418 160.672 62.3588C160.264 62.1793 159.825 62.0827 159.38 62.0745H159.16C159.246 62.0625 159.329 62.0363 159.405 61.997C159.827 61.857 160.217 61.6376 160.556 61.3508C160.89 61.0587 161.162 60.7028 161.357 60.3041C161.564 59.9032 161.683 59.4625 161.706 59.0118C161.737 58.5741 161.68 58.1345 161.538 57.7195C161.357 57.2025 161.163 56.6985 160.956 56.2075C160.783 55.7984 160.528 55.4291 160.207 55.1219C159.892 54.8099 159.519 54.5638 159.108 54.3982C158.698 54.2323 158.258 54.1531 157.816 54.1656C157.372 54.1721 156.933 54.2642 156.524 54.437L156.343 54.5145C156.451 54.4346 156.55 54.3436 156.64 54.2432C156.96 53.933 157.211 53.5586 157.377 53.1447C157.547 52.7353 157.635 52.296 157.635 51.8524C157.633 51.409 157.545 50.9702 157.377 50.5601C157.208 50.1478 156.957 49.774 156.64 49.4617C156.202 49.0343 155.736 48.6371 155.244 48.2727C154.881 48.0157 154.474 47.8273 154.042 47.717C153.615 47.6363 153.177 47.6363 152.75 47.717C152.294 47.7882 151.855 47.9461 151.458 48.1823C151.079 48.4126 150.75 48.7157 150.489 49.074C150.384 49.2231 150.29 49.3785 150.204 49.5392C150.217 49.4189 150.217 49.2976 150.204 49.1773C150.194 48.7294 150.088 48.2889 149.894 47.885C149.714 47.4809 149.449 47.1197 149.119 46.8253C148.798 46.5182 148.414 46.2845 147.994 46.1404C147.581 45.9888 147.142 45.9185 146.702 45.9337C146.185 45.9337 145.655 45.9983 145.1 46.0629C144.645 46.1107 144.205 46.2514 143.807 46.4764C143.418 46.6903 143.076 46.9801 142.801 47.3286C142.525 47.677 142.323 48.0772 142.205 48.5053C142.09 48.9259 142.055 49.3642 142.102 49.7976V49.901C141.734 49.0855 141.059 48.4483 140.224 48.1287C139.389 47.8091 138.461 47.833 137.643 48.1952L136.273 48.8413C135.476 49.2507 134.872 49.9573 134.591 50.8085C134.311 51.6597 134.376 52.5871 134.774 53.3902L134.852 53.5324C134.826 53.4864 134.796 53.4431 134.761 53.4032C134.493 53.0523 134.154 52.7617 133.766 52.5503C133.368 52.3253 132.928 52.1845 132.474 52.1367C132.041 52.0839 131.601 52.119 131.182 52.2401C130.754 52.359 130.355 52.561 130.006 52.8345C129.605 53.1447 129.217 53.4549 128.843 53.7779C128.508 54.0731 128.232 54.4281 128.028 54.8247C127.825 55.2272 127.706 55.667 127.679 56.117C127.642 56.5538 127.695 56.9938 127.835 57.4093C127.975 57.8304 128.194 58.2208 128.481 58.5594L128.584 58.6758C128.262 58.3739 127.885 58.137 127.473 57.9779C127.063 57.8113 126.623 57.7321 126.18 57.7453C125.283 57.7723 124.433 58.1533 123.815 58.805C123.492 59.141 123.169 59.477 122.859 59.8259C122.253 60.4865 121.933 61.3597 121.967 62.2554C121.991 62.7016 122.096 63.1396 122.278 63.5477C122.467 63.9467 122.73 64.3062 123.053 64.6074C122.357 64.0432 121.465 63.7781 120.574 63.8702C119.682 63.9622 118.864 64.4039 118.297 65.0985L117.431 66.1711C116.875 66.8765 116.62 67.7727 116.721 68.6652C116.773 69.1098 116.914 69.5394 117.136 69.928C117.358 70.3166 117.656 70.6563 118.013 70.9268C117.275 70.4229 116.369 70.2287 115.489 70.3857C114.61 70.5428 113.827 71.0387 113.309 71.7668L112.521 72.9169C112.273 73.2842 112.102 73.6972 112.017 74.1317C111.93 74.5581 111.93 74.9976 112.017 75.424C112.093 75.8831 112.26 76.3224 112.508 76.7163C112.757 77.0819 113.073 77.3975 113.438 77.6468C113.056 77.4114 112.63 77.2557 112.186 77.1891C111.741 77.1225 111.288 77.1463 110.854 77.2591C110.423 77.3656 110.018 77.5591 109.665 77.8277C109.306 78.0888 109.003 78.4182 108.773 78.7969C108.528 79.1846 108.295 79.5852 108.062 79.9858C107.833 80.383 107.688 80.8228 107.636 81.2781C107.555 81.7051 107.555 82.1434 107.636 82.5704C107.873 83.4313 108.433 84.1674 109.2 84.6252C108.866 84.4552 108.509 84.3375 108.14 84.2763C107.614 84.0716 107.046 84.0006 106.486 84.0695C105.928 84.1472 105.397 84.3553 104.935 84.6769C105.278 84.3945 105.562 84.047 105.771 83.6544C105.979 83.2619 106.108 82.832 106.15 82.3895C106.226 81.4989 105.953 80.6135 105.387 79.9212L104.483 78.8357C103.9 78.1502 103.069 77.7242 102.172 77.6515C101.275 77.5788 100.387 77.8653 99.7011 78.448C99.0156 79.0306 98.5897 79.8617 98.517 80.7584C98.4443 81.6552 98.7307 82.544 99.3134 83.2295L100.153 84.2117C100.706 84.8898 101.501 85.3259 102.369 85.4273C103.238 85.5286 104.112 85.2872 104.806 84.7544C104.106 85.2855 103.642 86.0695 103.513 86.9384C103.397 87.8002 103.614 88.6739 104.121 89.3809L104.586 90.0399C104.922 90.5072 105.372 90.881 105.893 91.1261C106.414 91.3712 106.988 91.4795 107.563 91.4406C108.137 91.4018 108.692 91.2173 109.175 90.9043C109.658 90.5914 110.054 90.1605 110.324 89.6522L110.582 89.1612C110.988 88.3947 111.081 87.5005 110.841 86.667C110.593 85.8353 110.039 85.1286 109.29 84.6898C110.059 85.102 110.96 85.1949 111.797 84.9483C112.636 84.7083 113.349 84.1524 113.787 83.3975C114.007 83.0227 114.227 82.648 114.459 82.2732C114.91 81.5232 115.052 80.6279 114.857 79.775C114.662 78.9222 114.144 78.178 113.412 77.6984C114.152 78.17 115.046 78.3327 115.904 78.1514C116.762 77.9702 117.515 77.4595 118 76.7292L118.75 75.6437C119.243 74.9414 119.447 74.0758 119.318 73.2271C119.177 72.3698 118.715 71.5983 118.026 71.0689C118.731 71.5607 119.596 71.7651 120.447 71.6402C121.297 71.5153 122.067 71.0706 122.601 70.3969L123.415 69.376C123.961 68.7122 124.232 67.8651 124.175 67.0077C124.117 66.1503 123.734 65.3473 123.105 64.7625C123.77 65.3038 124.614 65.5758 125.47 65.525C126.325 65.4596 127.125 65.0716 127.705 64.4394L128.61 63.4702C129.205 62.8474 129.538 62.0188 129.538 61.157C129.538 60.2952 129.205 59.4666 128.61 58.8438C129.213 59.4334 130.016 59.7748 130.859 59.8001C131.701 59.818 132.52 59.5233 133.159 58.973L134.102 58.2105C134.737 57.7163 135.173 57.0098 135.33 56.2204C135.486 55.4251 135.353 54.6001 134.955 53.8942C135.433 54.5416 136.124 54.9993 136.906 55.1865C137.687 55.3867 138.515 55.2948 139.233 54.9281C139.582 54.7472 139.943 54.5662 140.318 54.4112C141.015 54.0959 141.585 53.5539 141.935 52.8733C142.285 52.1928 142.393 51.4138 142.244 50.6635C142.518 51.3617 143.013 51.9515 143.652 52.3435C144.297 52.728 145.052 52.8871 145.797 52.7958C146.159 52.7958 146.521 52.7182 146.883 52.7053C147.487 52.6836 148.072 52.4958 148.576 52.1626C149.08 51.8453 149.491 51.3992 149.765 50.8703C149.726 51.4385 149.832 52.0073 150.074 52.5229C150.316 53.0385 150.685 53.4838 151.148 53.8167C151.377 53.9846 151.593 54.1704 151.794 54.3724C152.364 54.8557 153.076 55.1413 153.823 55.1865C154.516 55.2951 155.226 55.182 155.852 54.8635C155.284 55.3331 154.881 55.9714 154.701 56.6856C154.524 57.4 154.583 58.1528 154.869 58.8308C155.021 59.1578 155.151 59.4946 155.257 59.8388C155.488 60.5379 155.942 61.1417 156.549 61.5576C157.152 61.9723 157.874 62.1768 158.604 62.1391C157.881 62.3147 157.236 62.7234 156.769 63.3022C156.307 63.8851 156.045 64.6008 156.02 65.344V66.4813C155.945 67.2505 156.141 68.0215 156.572 68.6627C157.003 69.3039 157.644 69.7753 158.385 69.9963C157.619 69.8898 156.84 70.0483 156.177 70.4456C155.514 70.8429 155.007 71.455 154.74 72.1803C154.598 72.5551 154.456 72.9298 154.301 73.2917C153.988 74.0299 153.946 74.8551 154.182 75.6213C154.419 76.3875 154.918 77.0454 155.593 77.4788C154.857 77.138 154.022 77.0733 153.242 77.2962C152.461 77.5192 151.787 78.0151 151.341 78.6935C151.122 79.0424 150.889 79.3784 150.644 79.7274C150.166 80.4272 149.959 81.277 150.062 82.1181C150.179 82.9558 150.602 83.7204 151.251 84.2633C150.568 83.7569 149.719 83.5263 148.873 83.6172C148.028 83.7158 147.249 84.1258 146.689 84.7673C146.405 85.1033 146.121 85.4264 145.823 85.7495C145.257 86.4005 144.953 87.2388 144.97 88.1015C144.995 88.961 145.347 89.7788 145.953 90.3888C145.316 89.8061 144.476 89.4954 143.614 89.523C142.75 89.5461 141.927 89.8973 141.313 90.5051L140.357 91.4356C139.729 92.0539 139.368 92.8924 139.348 93.7731C139.329 94.6538 139.654 95.5073 140.254 96.1525C139.642 95.5209 138.806 95.1544 137.927 95.1316C137.045 95.1071 136.188 95.4268 135.537 96.0233L134.542 96.9408C133.892 97.5463 133.506 98.3828 133.468 99.2699C133.429 100.157 133.74 101.024 134.335 101.684C133.717 101.044 132.872 100.672 131.983 100.648C131.094 100.624 130.231 100.949 129.579 101.554L128.584 102.485C128.094 102.951 127.756 103.555 127.615 104.216C127.467 104.877 127.521 105.566 127.77 106.195C128.018 106.824 128.451 107.364 129.011 107.744C129.63 108.165 130.372 108.366 131.118 108.317C131.865 108.268 132.574 107.971 133.133 107.473L134.102 106.556C134.751 105.952 135.136 105.118 135.175 104.233C135.214 103.348 134.902 102.483 134.309 101.826C134.919 102.468 135.759 102.844 136.645 102.871C137.53 102.897 138.391 102.573 139.039 101.968L140.047 101.05C140.702 100.438 141.088 99.5908 141.12 98.6943C141.151 97.7979 140.826 96.9255 140.215 96.2688C140.528 96.5838 140.901 96.8337 141.311 97.0042C141.721 97.1747 142.161 97.2625 142.606 97.2625C143.05 97.2625 143.49 97.1747 143.9 97.0042C144.31 96.8337 144.683 96.5838 144.996 96.2688L145.978 95.2996C146.292 94.9857 146.54 94.6128 146.709 94.2024C146.877 93.7921 146.963 93.3524 146.961 92.9088C146.959 92.014 146.607 91.1553 145.978 90.5181C146.31 90.8143 146.696 91.0426 147.116 91.1901C147.53 91.3369 147.969 91.3985 148.408 91.371C148.856 91.3496 149.295 91.2398 149.7 91.0479C150.099 90.8532 150.455 90.5808 150.747 90.2467C151.057 89.8978 151.367 89.5489 151.665 89.187C151.957 88.855 152.181 88.4685 152.324 88.0498C152.46 87.6333 152.517 87.195 152.492 86.7575C152.456 86.3088 152.338 85.8706 152.143 85.4652C151.943 85.0658 151.667 84.71 151.329 84.4184H151.393C151.759 84.6767 152.172 84.8611 152.608 84.9612C153.047 85.0615 153.502 85.0732 153.946 84.9956C154.39 84.9179 154.813 84.7524 155.193 84.5089C155.565 84.265 155.89 83.9538 156.149 83.5913L156.963 82.3895C157.208 82.0225 157.375 81.6091 157.454 81.1747C157.545 80.7488 157.545 80.3084 157.454 79.8824C157.263 79.0088 156.739 78.2439 155.994 77.7501L155.916 77.6855L156.033 77.7501C156.861 78.0891 157.789 78.0891 158.617 77.7501C159.444 77.4006 160.103 76.7422 160.452 75.9151C160.646 75.4628 160.827 74.9846 160.995 74.5194C161.149 74.102 161.22 73.6583 161.202 73.2136C161.184 72.769 161.078 72.3323 160.891 71.9286C160.703 71.525 160.438 71.1625 160.11 70.8619C159.782 70.5613 159.397 70.3286 158.979 70.1773C159.423 70.2161 159.869 70.1664 160.294 70.0311C160.718 69.8957 161.111 69.6774 161.45 69.3888C161.789 69.1003 162.067 68.7472 162.269 68.3501C162.47 67.953 162.591 67.5198 162.623 67.0757C162.675 66.5588 162.701 66.0419 162.701 65.525C162.708 65.0832 162.629 64.6442 162.468 64.2327Z" fill="#FFFAF1"/>
<path d="M99.8437 115.02C100.1 114.399 100.168 113.716 100.038 113.056C99.8975 112.4 99.5698 111.798 99.0941 111.324C98.7581 110.988 98.4092 110.652 98.0732 110.342C97.4143 109.752 96.5538 109.437 95.6695 109.463C95.2233 109.476 94.7841 109.577 94.3772 109.761C93.9724 109.941 93.6077 110.2 93.3046 110.523C92.9989 110.845 92.7577 111.222 92.5939 111.634C92.4375 112.047 92.3628 112.486 92.3742 112.927C92.3823 113.372 92.479 113.811 92.6585 114.219C92.8385 114.624 93.0978 114.989 93.4209 115.292L94.3514 116.196C94.7458 116.586 95.2301 116.872 95.7614 117.03C96.2927 117.187 96.8547 117.212 97.3977 117.101C97.9407 116.99 98.448 116.746 98.8746 116.392C99.3012 116.039 99.6341 115.585 99.8437 115.072V115.02Z" fill="#FFFAF1"/>
<path d="M126.077 106.426C125.208 106.425 124.37 106.747 123.725 107.33L122.769 108.313C122.463 108.634 122.222 109.012 122.058 109.424C121.905 109.838 121.827 110.275 121.826 110.716C121.841 111.162 121.942 111.601 122.123 112.009C122.269 112.345 122.474 112.651 122.73 112.913C122.028 112.372 121.142 112.126 120.262 112.228C119.355 112.339 118.528 112.803 117.962 113.521L117.057 114.684C116.524 115.391 116.287 116.278 116.398 117.156C116.509 118.035 116.959 118.835 117.651 119.388C117.565 119.337 117.474 119.294 117.38 119.258L117.109 119.116L116.708 118.987L116.475 118.922C116.338 118.91 116.199 118.91 116.062 118.922H115.816C115.696 118.915 115.575 118.915 115.454 118.922C115.36 118.91 115.265 118.91 115.17 118.922H114.989L114.537 119.064C113.938 119.323 113.423 119.743 113.051 120.279L112.237 121.572C111.773 122.297 111.602 123.171 111.757 124.018C111.913 124.865 112.385 125.621 113.077 126.133C112.682 125.997 112.266 125.935 111.849 125.952C111.318 125.981 110.801 126.131 110.337 126.392C110.336 125.786 110.171 125.192 109.859 124.673C109.613 124.208 109.368 123.794 109.109 123.381C108.605 122.678 107.852 122.193 107.003 122.024C106.161 121.876 105.295 122.051 104.577 122.513C103.858 122.975 103.34 123.691 103.126 124.518C102.913 125.356 103.028 126.244 103.449 126.999C103.669 127.348 103.888 127.71 104.095 128.072C104.519 128.775 105.182 129.303 105.963 129.557C106.744 129.811 107.59 129.774 108.347 129.455C107.634 129.852 107.085 130.488 106.796 131.251C106.512 132.018 106.512 132.862 106.796 133.629C106.938 134.004 107.08 134.391 107.21 134.766C107.453 135.445 107.905 136.028 108.502 136.433C109.074 136.845 109.761 137.066 110.466 137.066C110.869 137.093 111.273 137.04 111.655 136.911C112.425 136.657 113.073 136.128 113.477 135.425C113.889 134.729 114.036 133.908 113.891 133.112C114.309 132.767 114.634 132.323 114.834 131.82C114.989 131.432 115.157 131.044 115.325 130.656C115.606 129.997 115.668 129.265 115.503 128.567C115.338 127.87 114.954 127.243 114.408 126.78C115.006 126.932 115.634 126.917 116.224 126.737C116.814 126.557 117.344 126.219 117.755 125.759C117.943 125.573 118.108 125.364 118.246 125.138L118.931 124.053C119.227 123.577 119.4 123.035 119.435 122.476C119.475 121.904 119.364 121.332 119.112 120.817C118.86 120.302 118.476 119.862 118 119.543C118.368 119.813 118.786 120.007 119.23 120.114C119.674 120.22 120.135 120.237 120.585 120.163C121.453 120.033 122.237 119.569 122.769 118.871L123.48 117.979C123.696 117.714 123.87 117.418 123.997 117.1C124.106 116.821 124.184 116.531 124.229 116.234C124.296 115.61 124.203 114.978 123.958 114.399C123.789 114.057 123.561 113.746 123.286 113.482C123.938 114.009 124.765 114.27 125.602 114.212C126.438 114.155 127.222 113.783 127.796 113.172L128.726 112.228C129.306 111.581 129.608 110.731 129.566 109.863C129.53 108.998 129.165 108.179 128.545 107.574C127.926 106.968 127.098 106.622 126.232 106.607L126.077 106.426Z" fill="#FFFAF1"/>
<path d="M105.283 121.094C105.555 120.518 105.658 119.877 105.58 119.246C105.499 118.615 105.244 118.02 104.844 117.527C104.546 117.152 104.249 116.79 103.939 116.428C103.344 115.804 102.534 115.429 101.672 115.382C100.811 115.335 99.9645 115.618 99.3049 116.173C98.6453 116.729 98.2226 117.516 98.1232 118.372C98.0237 119.229 98.255 120.091 98.7697 120.784C99.054 121.107 99.3254 121.443 99.5968 121.779C99.9019 122.178 100.296 122.501 100.747 122.722C101.193 122.945 101.683 123.064 102.181 123.071H102.259C102.896 123.072 103.521 122.888 104.055 122.541C104.593 122.184 105.019 121.683 105.283 121.094Z" fill="#FFFAF1"/>
</g>
<defs>
<clipPath id="clip0_1050_46612">
<rect width="139" height="179.682" fill="white" transform="translate(11 9.65918)"/>
</clipPath>
</defs>
</svg>
