<svg width="215" height="367" viewBox="0 0 215 367" fill="none" xmlns="http://www.w3.org/2000/svg">
<g clip-path="url(#clip0_934_104790)">
<path d="M3.92709 37.216C6.77289 39.9253 9.61868 42.6345 12.4645 45.2867C13.8589 46.57 15.3102 47.882 16.6477 49.1368C18.0794 50.6067 19.674 51.9079 21.4003 53.0152C22.7378 53.7852 24.9004 51.7888 23.9897 50.42C22.7907 48.843 21.4266 47.3995 19.9205 46.1139C18.4976 44.745 17.0746 43.4616 15.5948 42.1213C12.749 39.4976 9.90303 36.9025 6.88648 34.3073C5.20746 32.8244 2.36167 35.6192 4.04069 37.1591L3.92709 37.216Z" fill="#A3A3A3"/>
<path d="M13.0051 22.7862C15.8509 26.3795 18.6967 30.0013 21.5425 33.5376L25.8397 38.6708C27.3435 40.491 28.9393 42.233 30.6208 43.8897C31.9014 45.0874 34.4626 43.1483 33.4666 41.6368C30.7766 37.8062 27.849 34.1486 24.7013 30.6858C21.8555 27.121 18.6114 23.6417 15.5379 20.134C14.172 18.5655 11.5821 21.1892 12.8912 22.7862L13.0051 22.7862Z" fill="#A3A3A3"/>
<path d="M25.7548 10.6947C27.2631 14.4877 28.8568 18.2521 30.4789 22.102C31.2473 23.9272 32.0725 25.7525 32.8978 27.5776C33.6637 29.5355 34.5575 31.4409 35.573 33.2812C36.5406 34.8783 39.2726 33.4522 38.7888 31.7412C37.475 27.8396 35.9064 24.029 34.0932 20.3339C32.4141 16.5125 30.7065 12.7481 28.9421 8.92663C27.9745 6.90185 25.0149 8.92667 25.7548 10.9229L25.7548 10.6947Z" fill="#A3A3A3"/>
<path d="M45.3902 1.76776C45.3902 5.27549 45.1911 8.78323 45.1627 12.291C44.9869 15.7991 45.0533 19.3152 45.3617 22.8142C45.4018 23.0011 45.4792 23.1782 45.5889 23.3346C45.6986 23.491 45.8386 23.6237 46.0006 23.7248C46.1625 23.826 46.3432 23.8934 46.5317 23.9231C46.7202 23.9528 46.9125 23.9442 47.0976 23.8979C47.5176 23.7979 47.8974 23.5727 48.187 23.2519C48.4766 22.9312 48.6625 22.5299 48.7199 22.1012C48.9999 18.658 49.0663 15.2006 48.919 11.7491C48.919 8.32693 48.9191 4.90483 48.6914 1.48265C48.6914 -0.770285 45.4756 -0.22851 45.3902 1.76776Z" fill="#A3A3A3"/>
<path d="M69.4945 4.44838L64.2013 14.4297C62.3409 17.7497 60.6594 21.1674 59.1642 24.6678C59.0915 24.8491 59.0559 25.0432 59.0596 25.2386C59.0634 25.4339 59.1064 25.6265 59.1861 25.8048C59.2658 25.9831 59.3805 26.1436 59.5234 26.2765C59.6663 26.4094 59.8347 26.5121 60.0181 26.5785C60.4327 26.682 60.8696 26.6492 61.2642 26.4848C61.6587 26.3205 61.9901 26.0334 62.2094 25.6659C64.1444 22.5057 65.9205 19.2507 67.531 15.9127C69.2101 12.6046 70.8891 9.29658 72.5397 5.98848C72.6763 5.79823 72.7723 5.58185 72.8221 5.35281C72.8719 5.12376 72.8744 4.88687 72.829 4.65691C72.7837 4.42695 72.6914 4.20886 72.5584 4.01602C72.4254 3.82317 72.2544 3.65961 72.0558 3.53578C71.5895 3.36592 71.0787 3.36419 70.6113 3.53074C70.1439 3.69728 69.749 4.0217 69.4945 4.44838Z" fill="#A3A3A3"/>
<path d="M73.649 32.0824C76.4948 29.4588 79.6252 26.8352 82.5563 24.183C85.6136 21.6543 88.4682 18.889 91.0937 15.9127C91.379 15.6561 91.566 15.3081 91.6231 14.9282C91.6803 14.5483 91.6039 14.1604 91.4067 13.8309C91.1629 13.5428 90.8202 13.3566 90.4462 13.3091C90.0722 13.2616 89.6938 13.3562 89.386 13.5742C86.1388 16.0151 83.0848 18.7038 80.2511 21.6163C77.3104 24.3921 74.4079 27.1869 71.5431 30.0007C71.2245 30.2768 71.0255 30.6662 70.9883 31.0866C70.9512 31.5071 71.0785 31.9256 71.3437 32.2535C71.6748 32.5179 72.0933 32.6471 72.5154 32.6154C72.9376 32.5837 73.3324 32.3933 73.6205 32.0824L73.649 32.0824Z" fill="#A3A3A3"/>
<path d="M89.6139 39.84L98.7203 33.2524C100.229 32.1402 101.765 31.0563 103.274 29.9156L105.522 28.2331C106.34 27.6592 107.111 27.0202 107.827 26.3225C108.107 26.0646 108.301 25.7262 108.383 25.3537C108.464 24.9811 108.429 24.5923 108.282 24.2405C108.107 23.9237 107.822 23.682 107.481 23.5612C107.141 23.4403 106.767 23.4487 106.432 23.5847C104.737 24.4888 103.136 25.5586 101.652 26.7787C100.143 27.8624 98.8059 29.0031 97.1553 30.1153L88.1055 36.874C87.6893 37.1234 87.3732 37.5109 87.2121 37.9692C87.0509 38.4276 87.0548 38.9279 87.2232 39.3837C87.3435 39.5787 87.5033 39.7466 87.6918 39.8766C87.8803 40.0066 88.0937 40.0958 88.3185 40.1387C88.5433 40.1816 88.7746 40.1773 88.9976 40.1259C89.2206 40.0744 89.4304 39.9771 89.6139 39.84Z" fill="#A3A3A3"/>
<path d="M100.2 51.6467L109.278 45.0588C110.815 43.9466 112.324 42.863 113.832 41.7223C114.6 41.1804 115.34 40.6101 116.08 40.0112C116.904 39.4559 117.676 38.8257 118.385 38.1289C118.67 37.8744 118.87 37.5377 118.957 37.165C119.043 36.7922 119.013 36.4018 118.869 36.0472C118.693 35.7235 118.403 35.4771 118.056 35.3558C117.709 35.2345 117.329 35.2473 116.991 35.3913C115.301 36.289 113.708 37.3594 112.238 38.5853L107.713 41.9219L98.6921 48.6807C98.2717 48.926 97.9523 49.3131 97.7907 49.7729C97.629 50.2327 97.636 50.7351 97.8101 51.1903C97.9304 51.3853 98.0899 51.5533 98.2784 51.6832C98.4669 51.8132 98.6803 51.9025 98.9051 51.9454C99.1299 51.9883 99.3612 51.9839 99.5842 51.9325C99.8072 51.8811 100.017 51.7837 100.2 51.6467Z" fill="#A3A3A3"/>
<path d="M110.758 63.4532L119.865 56.8655L124.389 53.529C125.158 52.9871 125.898 52.3883 126.638 51.818C127.476 51.2702 128.258 50.6395 128.971 49.9357C129.245 49.6732 129.434 49.335 129.515 48.9642C129.596 48.5934 129.565 48.207 129.426 47.8539C129.251 47.5303 128.961 47.2838 128.614 47.1625C128.266 47.0413 127.887 47.0538 127.548 47.1979C125.865 48.0958 124.273 49.1561 122.796 50.3635L118.271 53.7286L109.25 60.4874C108.834 60.7368 108.517 61.1242 108.356 61.5826C108.195 62.0409 108.199 62.5413 108.367 62.997C108.488 63.1921 108.647 63.3598 108.836 63.4898C109.024 63.6198 109.238 63.7092 109.462 63.7521C109.687 63.795 109.919 63.7905 110.142 63.739C110.365 63.6876 110.574 63.5903 110.758 63.4532Z" fill="#A3A3A3"/>
<path d="M120.121 76.343L129.228 69.7553L133.781 66.4187L136.029 64.7075C136.854 64.1522 137.625 63.5222 138.335 62.8254C138.615 62.5675 138.809 62.2291 138.891 61.8566C138.972 61.484 138.937 61.0953 138.79 60.7435C138.619 60.422 138.335 60.1763 137.992 60.0549C137.65 59.9334 137.274 59.9451 136.94 60.0876C135.257 60.9855 133.665 62.0457 132.188 63.2531C130.651 64.3653 129.171 65.5062 127.663 66.6184L118.613 73.3772C118.197 73.6265 117.881 74.0138 117.72 74.4722C117.558 74.9305 117.563 75.431 117.731 75.8868C117.851 76.0818 118.011 76.2495 118.199 76.3795C118.388 76.5095 118.601 76.5988 118.826 76.6417C119.051 76.6846 119.282 76.6802 119.505 76.6288C119.728 76.5774 119.938 76.48 120.121 76.343Z" fill="#A3A3A3"/>
<path d="M129.455 89.3469L138.533 82.7592L143.087 79.4226C143.855 78.8808 144.595 78.2818 145.335 77.7114C146.163 77.1493 146.944 76.5199 147.669 75.8293C147.942 75.5669 148.132 75.2287 148.213 74.8579C148.294 74.4871 148.263 74.1006 148.124 73.7475C147.948 73.4239 147.658 73.1774 147.311 73.0562C146.964 72.9349 146.584 72.9475 146.246 73.0915C144.563 73.9894 142.971 75.0496 141.493 76.257L136.968 79.6223L127.947 86.3811C127.527 86.6263 127.207 87.0135 127.046 87.4733C126.884 87.9331 126.891 88.4355 127.065 88.8907C127.185 89.0857 127.345 89.2535 127.533 89.3834C127.722 89.5134 127.935 89.6027 128.16 89.6456C128.385 89.6885 128.616 89.6841 128.839 89.6327C129.062 89.5813 129.272 89.4839 129.455 89.3469Z" fill="#A3A3A3"/>
<path d="M138.789 102.123L147.896 95.5355L152.421 92.1989C153.189 91.657 153.929 91.0582 154.669 90.4879C155.507 89.9401 156.289 89.3095 157.002 88.6056C157.276 88.3431 157.466 88.0049 157.547 87.6341C157.628 87.2634 157.597 86.8769 157.458 86.5238C157.282 86.2002 156.992 85.9537 156.645 85.8324C156.298 85.7112 155.918 85.7239 155.579 85.868C153.896 86.7659 152.305 87.826 150.827 89.0334L146.302 92.3985L137.281 99.1573C136.865 99.4067 136.549 99.7942 136.388 100.253C136.226 100.711 136.23 101.211 136.399 101.667C136.519 101.862 136.678 102.03 136.867 102.16C137.056 102.29 137.269 102.379 137.494 102.422C137.719 102.465 137.95 102.46 138.173 102.409C138.396 102.358 138.606 102.26 138.789 102.123Z" fill="#A3A3A3"/>
<path d="M148.123 115.014L157.23 108.426L161.783 105.09L164.032 103.378C164.856 102.823 165.627 102.193 166.336 101.496C166.617 101.238 166.811 100.9 166.893 100.527C166.974 100.155 166.939 99.7663 166.792 99.4145C166.621 99.093 166.337 98.8472 165.994 98.7258C165.652 98.6043 165.276 98.616 164.942 98.7585C163.259 99.6564 161.667 100.717 160.189 101.924C158.653 103.036 157.173 104.177 155.665 105.289L146.615 112.048C146.199 112.297 145.883 112.685 145.722 113.143C145.561 113.601 145.565 114.102 145.733 114.558C145.853 114.753 146.013 114.92 146.201 115.05C146.39 115.18 146.603 115.27 146.828 115.313C147.053 115.355 147.284 115.351 147.507 115.3C147.73 115.248 147.94 115.151 148.123 115.014Z" fill="#A3A3A3"/>
<path d="M157.487 127.904L166.565 121.316C168.101 120.204 169.61 119.12 171.118 117.979C171.887 117.437 172.626 116.867 173.366 116.268C174.194 115.706 174.975 115.076 175.7 114.386C175.974 114.124 176.163 113.785 176.244 113.415C176.325 113.044 176.294 112.657 176.155 112.304C175.979 111.98 175.69 111.734 175.342 111.613C174.995 111.491 174.615 111.504 174.277 111.648C172.594 112.546 171.002 113.606 169.524 114.814L165 118.179L155.978 124.938C155.558 125.183 155.239 125.57 155.077 126.03C154.915 126.49 154.922 126.992 155.096 127.447C155.217 127.642 155.376 127.81 155.565 127.94C155.753 128.07 155.967 128.159 156.191 128.202C156.416 128.245 156.647 128.241 156.87 128.189C157.093 128.138 157.303 128.041 157.487 127.904Z" fill="#A3A3A3"/>
<path d="M166.394 140.081L175.5 133.493L180.054 130.157L182.302 128.446C183.126 127.891 183.898 127.26 184.607 126.564C184.89 126.301 185.085 125.958 185.167 125.58C185.248 125.203 185.211 124.809 185.062 124.453C184.887 124.137 184.6 123.897 184.258 123.781C183.916 123.665 183.544 123.681 183.213 123.826C181.53 124.724 179.938 125.784 178.46 126.991C176.923 128.104 175.444 129.244 173.935 130.357L164.885 137.115C164.469 137.365 164.153 137.752 163.992 138.211C163.831 138.669 163.835 139.169 164.003 139.625C164.124 139.82 164.283 139.988 164.472 140.118C164.66 140.248 164.874 140.337 165.098 140.38C165.323 140.423 165.555 140.418 165.778 140.367C166.001 140.316 166.21 140.218 166.394 140.081Z" fill="#A3A3A3"/>
<path d="M175.329 152.287L184.436 145.671L188.96 142.363L191.209 140.652C192.035 140.088 192.816 139.458 193.542 138.77C193.815 138.501 194.004 138.157 194.085 137.783C194.166 137.408 194.135 137.017 193.997 136.659C193.813 136.345 193.523 136.106 193.179 135.986C192.835 135.866 192.459 135.872 192.119 136.003C190.43 136.901 188.837 137.971 187.367 139.197L182.842 142.534L173.821 149.293C173.4 149.538 173.081 149.925 172.919 150.385C172.758 150.845 172.765 151.347 172.939 151.802C173.06 151.996 173.219 152.164 173.406 152.294C173.594 152.424 173.806 152.515 174.03 152.56C174.253 152.606 174.484 152.605 174.707 152.558C174.931 152.511 175.143 152.419 175.329 152.287Z" fill="#A3A3A3"/>
<path d="M181.96 163.751L191.636 158.047L196.474 155.195C198.169 154.288 199.779 153.228 201.284 152.03C202.507 150.861 201.653 148.665 199.861 149.178C198.109 149.958 196.44 150.914 194.88 152.03L190.042 154.882L180.452 160.785C180.032 161.03 179.712 161.417 179.551 161.877C179.389 162.337 179.396 162.839 179.57 163.294C179.691 163.489 179.85 163.656 180.038 163.786C180.225 163.917 180.437 164.007 180.661 164.053C180.885 164.098 181.116 164.097 181.339 164.05C181.562 164.003 181.774 163.911 181.96 163.779L181.96 163.751Z" fill="#A3A3A3"/>
<path d="M188.591 173.647L198.608 168.513C200.23 167.686 201.853 166.888 203.475 166.032C205.278 165.248 207.003 164.293 208.625 163.181C209.003 162.991 209.29 162.66 209.423 162.259C209.557 161.858 209.526 161.42 209.337 161.042C209.148 160.663 208.817 160.376 208.417 160.242C208.017 160.108 207.58 160.14 207.202 160.329C206.212 160.645 205.258 161.066 204.357 161.584L201.739 162.867L196.929 165.405L186.969 170.652C186.543 170.893 186.218 171.278 186.051 171.738C185.884 172.199 185.887 172.703 186.058 173.162C186.182 173.357 186.344 173.525 186.534 173.655C186.724 173.786 186.938 173.877 187.164 173.922C187.39 173.967 187.623 173.966 187.849 173.919C188.074 173.872 188.288 173.779 188.477 173.647L188.591 173.647Z" fill="#A3A3A3"/>
<path d="M190.526 180.291L201.624 178.295L207.173 177.297C209.105 177.072 211.011 176.661 212.865 176.071C214.516 175.358 214.942 172.791 212.865 172.705C211.906 172.722 210.951 172.847 210.019 173.076L207.173 173.533L201.852 174.559L190.953 176.698C190.459 176.762 189.999 176.986 189.645 177.336C189.29 177.686 189.059 178.143 188.989 178.637C188.967 178.86 188.994 179.085 189.069 179.296C189.144 179.506 189.265 179.698 189.423 179.856C189.581 180.014 189.772 180.136 189.983 180.211C190.193 180.286 190.417 180.314 190.64 180.291L190.526 180.291Z" fill="#A3A3A3"/>
<path d="M0.796708 59.6319C4.69545 60.9438 8.53753 62.2555 12.4363 63.5103C16.2679 64.9745 20.1947 66.1751 24.1894 67.1037C25.8115 67.3888 27.5472 64.7366 25.7259 63.8526C23.7971 63.0054 21.8093 62.3001 19.7783 61.7422L14.0867 59.9741C10.188 58.7193 6.26075 57.55 2.33355 56.3523C0.682988 55.8389 -1.05274 59.033 0.768569 59.6319L0.796708 59.6319Z" fill="#A3A3A3"/>
<path d="M7.74037 81.5614C11.6676 81.3333 15.6233 81.1336 19.5505 80.8485C23.5048 80.7161 27.4481 80.3542 31.3606 79.7648C31.7796 79.7039 32.1709 79.5196 32.4851 79.2353C32.7993 78.9509 33.0221 78.5793 33.125 78.1678C33.125 77.4833 32.8974 76.4851 32.0721 76.4566C28.0663 76.4318 24.0633 76.6796 20.091 77.1981C16.05 77.5118 12.0374 77.9396 8.02488 78.3389C6.17511 78.5385 5.52064 81.6755 7.74037 81.5614Z" fill="#A3A3A3"/>
<path d="M22.2541 97.6461C28.088 93.5395 33.9502 89.433 39.5564 85.0412C39.9659 84.8071 40.2793 84.4351 40.4409 83.9912C40.6024 83.5474 40.6018 83.0605 40.4388 82.6172C40.3188 82.4294 40.1615 82.2683 39.9768 82.1441C39.792 82.0199 39.5835 81.9351 39.3647 81.895C39.1458 81.8549 38.9213 81.8602 38.7046 81.9108C38.4879 81.9615 38.284 82.0563 38.1054 82.1893C32.4138 86.2674 26.7222 90.7448 21.0306 95.0511C20.6676 95.2703 20.392 95.6095 20.2518 96.0103C20.1115 96.4111 20.1153 96.8486 20.2622 97.247C20.3683 97.4148 20.5076 97.5589 20.6714 97.6707C20.8352 97.7824 21.0201 97.8594 21.2147 97.8968C21.4094 97.9342 21.6094 97.9313 21.8029 97.8882C21.9963 97.8451 22.1791 97.7626 22.3396 97.6461L22.2541 97.6461Z" fill="#A3A3A3"/>
<path d="M40.7521 107.77C42.0042 104.662 43.228 101.582 44.4233 98.4446C45.7219 95.4005 46.8246 92.2761 47.7245 89.0906C47.7861 88.9034 47.8102 88.7059 47.7957 88.5093C47.7812 88.3126 47.7282 88.1207 47.6397 87.9446C47.5512 87.7685 47.4289 87.6116 47.2798 87.4828C47.1308 87.3541 46.9578 87.256 46.7709 87.1942C46.584 87.1324 46.387 87.1081 46.1908 87.1227C45.9945 87.1373 45.803 87.1904 45.6273 87.2792C45.4516 87.3679 45.2951 87.4905 45.1667 87.6398C45.0382 87.7892 44.9403 87.9624 44.8787 88.1496C43.4078 91.2406 42.1338 94.4219 41.0651 97.6746C39.8983 100.84 38.7601 104.034 37.6502 107.2C37.5754 107.388 37.542 107.59 37.553 107.793C37.5639 107.995 37.6187 108.193 37.7135 108.372C37.8082 108.551 37.9408 108.707 38.1018 108.83C38.2629 108.952 38.4487 109.038 38.6462 109.082C39.0859 109.131 39.5292 109.027 39.902 108.789C40.2748 108.55 40.5547 108.191 40.6951 107.77L40.7521 107.77Z" fill="#A3A3A3"/>
<path d="M62.4081 108.255C62.4606 101.841 61.5001 95.4598 59.5623 89.3472C58.8509 87.1513 55.5214 88.5486 56.0905 90.5164C57.8424 96.5076 58.9116 102.678 59.2778 108.911C59.2778 110.793 62.3796 109.852 62.3796 108.255L62.4081 108.255Z" fill="#A3A3A3"/>
<path d="M53.9282 58.975C56.148 56.1232 58.3109 53.2714 60.4452 50.4196C62.6511 47.6843 64.703 44.8281 66.5919 41.8641C66.8196 41.5489 66.9198 41.159 66.8722 40.7728C66.8247 40.3866 66.6331 40.0327 66.3359 39.7824C65.9925 39.5764 65.5879 39.4977 65.1926 39.5603C64.7973 39.6228 64.4364 39.8226 64.173 40.1246C61.8749 42.8566 59.7279 45.7127 57.7415 48.68C55.6925 51.5318 53.6435 54.3837 51.6799 57.2355C51.5105 57.5349 51.4573 57.8866 51.5306 58.2229C51.6038 58.5592 51.7984 58.8566 52.077 59.0581C52.3556 59.2595 52.6987 59.3508 53.0403 59.3145C53.3819 59.2781 53.6981 59.1166 53.9282 58.861L53.9282 58.975Z" fill="#A3A3A3"/>
<path d="M64.7135 63.3959C66.7909 60.9719 68.8681 58.6048 70.9171 56.1808L73.9338 52.5874C75.0387 51.3234 76.0741 50.0001 77.0356 48.6234C77.2495 48.3238 77.342 47.9542 77.2944 47.5889C77.2469 47.2237 77.063 46.8903 76.7796 46.6558C76.4552 46.4603 76.0727 46.3846 75.6985 46.4419C75.3243 46.4992 74.9821 46.6858 74.7307 46.9695C73.63 48.0676 72.594 49.2292 71.6286 50.4486L68.7828 54.099C66.7907 56.4945 64.8557 58.9471 62.8921 61.3996C62.5974 61.6723 62.4137 62.0446 62.3769 62.4449C62.3401 62.8451 62.4526 63.245 62.6927 63.567C63.0082 63.8174 63.4066 63.9389 63.8078 63.9071C64.209 63.8754 64.5832 63.6928 64.8555 63.3959L64.7135 63.3959Z" fill="#A3A3A3"/>
<path d="M72.8235 72.2367C75.2425 70.0123 77.69 67.7879 80.0805 65.535C82.4709 63.2821 84.8897 61.0291 87.0525 58.548C87.3196 58.2913 87.4928 57.9521 87.5444 57.5849C87.596 57.2177 87.523 56.8438 87.337 56.5232C87.104 56.2456 86.7742 56.0676 86.4147 56.0252C86.0552 55.9828 85.6931 56.0792 85.4021 56.295C82.7931 58.4579 80.2951 60.7519 77.9176 63.1679C75.5272 65.5064 73.1936 67.9019 70.8316 70.2689C70.5353 70.5418 70.353 70.917 70.3213 71.319C70.2896 71.7211 70.4108 72.1202 70.6607 72.4363C70.9769 72.69 71.3791 72.8109 71.7824 72.7737C72.1857 72.7364 72.5589 72.5439 72.8235 72.2367Z" fill="#A3A3A3"/>
<path d="M90.6957 93.9103C90.8949 93.9103 90.6957 93.9103 90.6957 93.9103L90.5248 93.9103C90.7368 93.8913 90.9417 93.8231 91.1226 93.7108L91.4071 93.7108L91.6062 93.7108C92.0615 93.4826 92.4883 93.2259 92.9152 92.9693C94.3665 92.1137 95.761 91.2581 97.2408 90.374C100.485 88.3778 103.701 86.3529 106.917 84.2711L108.482 83.159L108.937 82.8168C109.705 82.2465 109.193 82.6457 108.937 82.8168C109.318 82.6001 109.608 82.2529 109.755 81.8391C109.901 81.4253 109.894 80.9726 109.734 80.5638C109.628 80.3876 109.487 80.2358 109.318 80.1185C109.15 80.0012 108.958 79.9211 108.756 79.8834C108.555 79.8457 108.347 79.8513 108.148 79.8997C107.948 79.9482 107.762 80.0385 107.6 80.1647C108.339 79.6799 107.6 80.1647 107.6 80.1647L107.201 80.3641C106.746 80.6208 106.291 80.8205 105.835 81.1056L101.481 83.7578C98.2653 85.7541 95.0211 87.7504 91.8907 89.9178L90.3542 90.973C90.0754 91.1303 89.8172 91.3219 89.5858 91.5434C89.3866 91.7145 89.1305 92.3134 89.5858 91.5434C88.5044 92.6271 89.2157 94.6232 90.8663 94.0814L90.6957 93.9103Z" fill="#A3A3A3"/>
<path d="M98.0095 104.006C98.2087 104.006 98.0095 104.006 98.0095 104.006L97.8389 104.006C98.0573 103.994 98.2704 103.935 98.4649 103.835L98.7209 103.692L98.9203 103.692L100.229 102.922C101.681 102.067 103.075 101.211 104.555 100.327C107.799 98.3309 111.015 96.3062 114.231 94.2244C114.771 93.8822 115.283 93.4829 115.796 93.1121L116.251 92.7699C117.02 92.1711 116.507 92.5988 116.251 92.7699C116.637 92.5577 116.931 92.2109 117.078 91.7955C117.225 91.3801 117.214 90.925 117.048 90.5169C116.939 90.3441 116.796 90.1958 116.627 90.081C116.459 89.9663 116.268 89.8877 116.068 89.8502C115.867 89.8127 115.662 89.8171 115.463 89.8631C115.264 89.9091 115.077 89.9959 114.914 90.1178C115.654 89.633 114.914 90.1178 114.914 90.1178L114.515 90.3174C114.06 90.5741 113.605 90.7736 113.149 91.0587L108.795 93.7111C105.579 95.7073 102.335 97.7321 99.2049 99.8709L97.668 100.926C97.3892 101.083 97.131 101.275 96.8996 101.496C96.7004 101.668 96.4443 102.295 96.8996 101.496C95.8182 102.552 96.5298 104.576 98.1804 104.006L98.0095 104.006Z" fill="#A3A3A3"/>
<path d="M105.323 114.101C105.522 114.101 105.323 114.101 105.323 114.101L105.152 114.101C105.372 114.101 105.588 114.042 105.778 113.93L106.034 113.93L106.233 113.93C106.688 113.701 107.115 113.445 107.542 113.188L111.868 110.565C115.112 108.568 118.328 106.543 121.544 104.462C122.084 104.119 122.597 103.749 123.109 103.349L123.564 103.036C124.332 102.465 123.82 102.865 123.564 103.036C123.945 102.819 124.235 102.472 124.382 102.058C124.528 101.644 124.521 101.192 124.361 100.783C124.254 100.608 124.113 100.457 123.945 100.339C123.778 100.222 123.588 100.14 123.387 100.1C123.187 100.06 122.98 100.062 122.78 100.106C122.58 100.15 122.392 100.234 122.227 100.355C122.966 99.8987 122.227 100.355 122.227 100.355L121.828 100.583L120.462 101.296L116.108 103.948C112.892 105.945 109.648 107.969 106.518 110.108L104.981 111.163C104.709 111.33 104.451 111.521 104.213 111.734C104.014 111.905 103.757 112.532 104.213 111.734C103.131 112.817 103.843 114.814 105.493 114.243L105.323 114.101Z" fill="#A3A3A3"/>
<path d="M112.637 124.197C112.836 124.197 112.637 124.197 112.637 124.197L112.466 124.197C112.687 124.174 112.9 124.106 113.092 123.997L113.348 123.997L113.576 123.997L114.857 123.256L119.183 120.66L128.858 114.558L130.423 113.417C130.586 113.329 130.739 113.224 130.879 113.103C131.647 112.533 131.135 112.932 130.879 113.103C131.259 112.886 131.547 112.538 131.689 112.123C131.83 111.708 131.816 111.255 131.647 110.85C131.541 110.675 131.399 110.524 131.232 110.407C131.064 110.289 130.874 110.208 130.673 110.168C130.473 110.127 130.266 110.129 130.067 110.173C129.867 110.217 129.678 110.302 129.513 110.423C130.253 109.966 129.655 110.423 129.513 110.423L129.114 110.622C128.659 110.85 128.204 111.078 127.748 111.364L123.394 114.016C120.178 116.012 116.934 118.008 113.804 120.176L112.267 121.202C112.001 121.379 111.745 121.569 111.499 121.773C111.299 121.972 111.043 122.571 111.499 121.773C110.417 122.856 111.129 124.853 112.779 124.282L112.637 124.197Z" fill="#A3A3A3"/>
<path d="M119.979 134.321C120.149 134.321 119.979 134.321 119.979 134.321L119.808 134.321C120.028 134.298 120.241 134.23 120.434 134.121L120.69 134.121L120.918 134.121L122.198 133.351C123.65 132.496 125.044 131.64 126.524 130.756C129.768 128.76 132.984 126.735 136.2 124.653C136.741 124.311 137.253 123.912 137.765 123.541L138.22 123.199C138.989 122.6 138.476 122.999 138.22 123.199C138.601 122.982 138.892 122.635 139.038 122.221C139.184 121.807 139.177 121.355 139.017 120.946C138.906 120.772 138.76 120.623 138.588 120.508C138.417 120.393 138.225 120.314 138.022 120.277C137.819 120.24 137.611 120.244 137.41 120.291C137.209 120.337 137.02 120.424 136.854 120.547C137.594 120.062 136.854 120.547 136.854 120.547L136.456 120.746C136.001 121.003 135.545 121.202 135.09 121.488L130.736 124.14C127.52 126.136 124.276 128.161 121.145 130.3L119.609 131.355C119.33 131.512 119.072 131.704 118.841 131.925C118.67 132.096 118.385 132.695 118.841 131.925C117.759 132.98 118.47 134.977 120.149 134.435L119.979 134.321Z" fill="#A3A3A3"/>
<path d="M127.292 144.416C127.463 144.416 127.292 144.416 127.292 144.416L127.121 144.416C127.342 144.417 127.558 144.358 127.748 144.245L128.004 144.245L128.231 144.245L129.512 143.504L133.837 140.88C137.082 138.884 140.326 136.859 143.513 134.777C144.054 134.435 144.566 134.064 145.079 133.665L145.534 133.351C146.302 132.781 145.79 133.18 145.534 133.351C145.911 133.13 146.197 132.783 146.343 132.371C146.489 131.958 146.484 131.508 146.331 131.098C146.221 130.922 146.077 130.771 145.907 130.653C145.737 130.535 145.545 130.454 145.342 130.414C145.139 130.374 144.93 130.376 144.728 130.42C144.526 130.464 144.335 130.549 144.168 130.67C144.908 130.214 144.168 130.67 144.168 130.67L143.798 130.87L142.403 131.612L138.05 134.264C134.834 136.26 131.59 138.285 128.459 140.424L126.922 141.479C126.648 141.643 126.391 141.834 126.154 142.049C125.983 142.22 125.699 142.848 126.154 142.049C125.101 143.133 125.784 145.129 127.463 144.559L127.292 144.416Z" fill="#A3A3A3"/>
<path d="M134.606 154.511C134.776 154.511 134.606 154.511 134.606 154.511L134.435 154.511C134.655 154.488 134.868 154.42 135.061 154.312L135.317 154.312L135.545 154.312L136.825 153.57L141.151 150.946C144.395 148.95 147.64 146.925 150.827 144.872L152.392 143.731C152.554 143.643 152.707 143.538 152.847 143.418C153.616 142.847 153.132 143.247 152.847 143.418C153.224 143.197 153.511 142.849 153.656 142.437C153.802 142.025 153.798 141.574 153.644 141.165C153.532 140.992 153.387 140.844 153.217 140.728C153.046 140.613 152.855 140.533 152.653 140.493C152.451 140.453 152.244 140.454 152.042 140.496C151.841 140.538 151.65 140.62 151.481 140.737C152.25 140.281 151.481 140.737 151.481 140.737L151.111 140.937L149.717 141.65L145.363 144.302C142.147 146.327 138.903 148.323 135.801 150.462L134.236 151.517C133.98 151.716 133.695 151.888 133.467 152.087C133.24 152.287 133.012 152.886 133.467 152.087C132.414 153.171 133.098 155.167 134.777 154.597L134.606 154.511Z" fill="#A3A3A3"/>
<path d="M141.92 164.635C142.119 164.635 141.92 164.635 141.92 164.635L141.749 164.635C141.969 164.612 142.182 164.544 142.375 164.435C142.469 164.405 142.557 164.357 142.632 164.293L142.859 164.293L144.168 163.551L148.465 160.956C151.71 158.96 154.954 156.935 158.141 154.853L159.706 153.741L160.162 153.399C160.93 152.828 160.446 153.228 160.162 153.399C160.538 153.178 160.825 152.83 160.971 152.418C161.117 152.006 161.112 151.555 160.958 151.146C160.847 150.972 160.701 150.823 160.53 150.708C160.359 150.593 160.166 150.515 159.963 150.477C159.761 150.44 159.553 150.444 159.352 150.491C159.151 150.537 158.962 150.624 158.796 150.747C159.564 150.262 158.938 150.747 158.796 150.747L158.426 150.946C157.97 151.203 157.487 151.402 157.031 151.688L152.677 154.34C149.461 156.336 146.217 158.332 143.115 160.5L141.55 161.555C141.276 161.719 141.019 161.91 140.782 162.125C140.611 162.297 140.327 162.895 140.782 162.125C139.729 163.209 140.412 165.205 142.091 164.663L141.92 164.635Z" fill="#A3A3A3"/>
<path d="M149.86 174.446C150.625 174.16 151.359 173.797 152.051 173.362L152.45 173.134C152.45 173.134 152.848 172.906 152.45 173.134C152.051 173.362 152.677 173.134 152.848 172.963L153.873 172.364L156.291 170.995C159.621 169.085 162.922 167.145 166.223 165.149L167.817 164.094L168.244 163.78C169.069 163.181 168.443 163.78 168.244 163.78C168.625 163.563 168.915 163.216 169.061 162.803C169.208 162.389 169.2 161.936 169.041 161.527C168.932 161.354 168.789 161.206 168.62 161.091C168.452 160.976 168.261 160.898 168.061 160.861C167.86 160.823 167.654 160.827 167.455 160.873C167.257 160.919 167.07 161.006 166.906 161.128C167.675 160.672 166.906 161.128 166.906 161.128L166.537 161.328L166.28 161.328L165.17 161.869C163.69 162.696 162.325 163.523 160.76 164.379C157.458 166.29 154.129 168.229 150.913 170.282C150.043 170.773 149.214 171.336 148.437 171.965C148.161 172.164 147.966 172.456 147.887 172.787C147.807 173.118 147.848 173.467 148.003 173.77C148.158 174.073 148.416 174.311 148.73 174.44C149.045 174.57 149.395 174.582 149.718 174.474L149.86 174.446Z" fill="#A3A3A3"/>
<path d="M154.982 182.374C155.786 182.275 156.577 182.093 157.344 181.832L157.771 181.832L158.141 181.832L159.336 181.49L162.011 180.719C165.682 179.636 169.325 178.524 172.967 177.354C173.821 177.069 174.647 176.67 175.5 176.413C177.407 175.814 177.151 172.677 174.96 173.362C175.557 173.162 175.159 173.362 174.96 173.362L174.533 173.362L174.277 173.362C174.049 173.362 174.704 173.362 174.277 173.362L173.053 173.647L168.215 175.044C164.573 176.128 160.901 177.24 157.316 178.495C156.336 178.77 155.384 179.133 154.47 179.579C153.218 180.292 153.275 182.431 155.011 182.431L154.982 182.374Z" fill="#A3A3A3"/>
<path d="M81.7313 81.9895C81.9305 81.9895 81.7313 81.9895 81.7313 81.9895L81.5604 81.9895C81.7787 81.9769 81.9923 81.9186 82.1868 81.8184L82.4428 81.8184L82.6418 81.8184L83.9511 81.0485C85.4025 80.193 86.797 79.3373 88.2768 78.4533C91.521 76.457 94.7365 74.4322 97.9522 72.3504C98.4929 72.0081 99.0053 71.609 99.5176 71.2383L99.973 70.8961C100.741 70.2972 100.229 70.725 99.973 70.8961C100.358 70.6839 100.653 70.3369 100.799 69.9215C100.946 69.5061 100.936 69.0511 100.77 68.643C100.661 68.4702 100.518 68.3219 100.349 68.2072C100.181 68.0925 99.99 68.0139 99.7896 67.9764C99.5892 67.9389 99.383 67.9432 99.1844 67.9893C98.9858 68.0353 98.7988 68.1219 98.6352 68.2437C99.3751 67.7589 98.6352 68.2437 98.6352 68.2437L98.2371 68.4434C97.7818 68.7 97.3262 68.8997 96.8708 69.1849L92.517 71.837C89.3013 73.8333 86.0571 75.8582 82.9267 77.9971L81.3899 79.0522C81.111 79.2095 80.8529 79.4012 80.6214 79.6226C80.4222 79.7937 80.1661 80.4211 80.6214 79.6226C79.54 80.6778 80.2513 82.7024 81.9019 82.1321L81.7313 81.9895Z" fill="#A3A3A3"/>
<path d="M56.6884 73.0063C50.3708 68.9852 41.7481 61.8842 42.9149 53.3573C43.9963 45.4862 51.737 43.1193 58.7092 44.1174C69.7224 45.6574 78.2881 55.8384 85.2319 63.909C98.2087 79.0236 109.934 95.2789 121.658 111.42C134.436 128.987 146.616 146.982 158.995 164.835C162.951 170.538 166.821 176.242 170.833 181.945C172.452 184.274 174.211 186.503 176.098 188.619C178.29 191.071 182.046 196.376 176.297 187.934C184.835 200.511 206.378 185.738 198.438 174.103C201.682 178.866 197.755 171.993 196.929 170.367C195.175 167.176 193.177 164.125 190.953 161.241C184.55 151.973 178.119 142.733 171.517 133.607C154.214 109.624 137.139 85.4402 118.954 62.1124C102.477 41.0089 81.5607 13.9167 51.3668 20.0195C34.5766 23.4132 20.3191 37.8719 18.9531 55.325C18.4897 59.7797 18.9465 64.2822 20.2951 68.5523C21.6437 72.8223 23.8553 76.7683 26.7919 80.1445C29.7286 83.5208 33.3277 86.255 37.3647 88.1768C41.4017 90.0985 45.79 91.1668 50.2569 91.3149C59.5057 91.7142 64.4862 77.8828 56.5748 72.8921L56.6884 73.0063Z" fill="#994776"/>
<path d="M6.60231 332.493C9.44811 329.898 12.4364 327.274 15.3106 324.651L19.4939 320.801C21.0521 319.444 22.4811 317.945 23.7626 316.324C23.9887 316.029 24.1113 315.668 24.1113 315.297C24.1113 314.925 23.9887 314.564 23.7626 314.27C23.4645 314.041 23.0994 313.917 22.7239 313.917C22.3483 313.917 21.9833 314.041 21.6852 314.27C20.026 315.41 18.4734 316.699 17.0465 318.12C15.5952 319.432 14.2007 320.772 12.7493 322.113C9.90353 324.765 7.05774 327.446 4.21194 330.155C3.84147 330.489 3.6119 330.952 3.56962 331.45C3.52734 331.948 3.6753 332.443 3.98405 332.835C4.37807 333.138 4.87109 333.283 5.36596 333.241C5.86082 333.199 6.32202 332.973 6.65928 332.607L6.60231 332.493Z" fill="#A3A3A3"/>
<path d="M15.4532 346.666C18.4982 343.158 21.5719 339.679 24.5885 336.115C27.7251 332.61 30.6791 328.945 33.4389 325.135C34.6057 323.395 32.329 321.998 30.9346 323.338C27.7402 326.63 24.7285 330.096 21.9133 333.719C19.0675 337.255 16.2218 340.877 13.2053 344.442C12.8669 344.748 12.6577 345.173 12.6206 345.628C12.5836 346.084 12.7215 346.537 13.0059 346.894C13.3633 347.183 13.819 347.32 14.2759 347.278C14.7329 347.235 15.155 347.016 15.4532 346.666Z" fill="#A3A3A3"/>
<path d="M29.0557 357.618C30.7916 353.911 32.4708 350.203 34.1213 346.439C34.9181 344.614 35.6864 342.788 36.4832 340.935C37.3533 339.08 38.1136 337.176 38.76 335.231C39.3576 333.206 36.7393 332.608 35.7718 334.233C33.8078 337.931 32.0595 341.74 30.5356 345.64C28.9135 349.433 27.2912 353.255 25.7545 357.048C25.6752 357.249 25.64 357.465 25.6513 357.681C25.6626 357.898 25.7203 358.109 25.8201 358.301C25.92 358.493 26.0597 358.661 26.2301 358.794C26.4004 358.927 26.5973 359.022 26.8074 359.072C27.2898 359.113 27.7722 358.992 28.1789 358.729C28.5856 358.466 28.8939 358.075 29.0557 357.618Z" fill="#A3A3A3"/>
<path d="M48.6915 365.261C48.6915 361.753 48.8906 358.245 48.919 354.737C49.0805 351.229 49.0142 347.714 48.72 344.214C48.6766 344.026 48.5963 343.849 48.4838 343.692C48.3712 343.535 48.2283 343.403 48.0641 343.302C47.8999 343.201 47.7174 343.134 47.5271 343.105C47.3367 343.075 47.1425 343.084 46.9556 343.13C46.5356 343.23 46.1558 343.456 45.8662 343.776C45.5766 344.097 45.3907 344.498 45.3333 344.927C45.0486 348.37 44.9917 351.829 45.1627 355.279C45.1627 358.701 45.1626 362.124 45.3903 365.546C45.3903 367.799 48.6061 367.228 48.6915 365.261Z" fill="#A3A3A3"/>
<path d="M72.7103 360.754L67.7017 350.83C66.8764 349.204 66.0799 347.55 65.1407 345.982C64.2016 344.413 63.4048 342.645 62.295 341.105C61.1851 339.565 58.4528 341.105 59.1643 343.044C59.8757 344.984 60.7297 346.353 61.498 348.007C62.2664 349.661 63.1771 351.4 64.0593 353.054L69.2955 362.864C70.4054 364.889 73.5925 362.665 72.6533 360.754L72.7103 360.754Z" fill="#A3A3A3"/>
<path d="M71.3727 337.227C74.2185 340.079 77.0643 342.931 79.9101 345.783C82.7274 348.697 85.7934 351.36 89.0735 353.739C89.4363 353.89 89.8395 353.912 90.2168 353.803C90.5941 353.694 90.9232 353.461 91.1509 353.14C91.3993 352.851 91.5361 352.481 91.5361 352.099C91.5361 351.717 91.3993 351.348 91.1509 351.058C88.5704 348.031 85.712 345.252 82.6135 342.76C79.7677 340.107 76.6661 337.512 73.678 334.889C72.2266 333.634 69.8077 336.001 71.2022 337.37L71.3727 337.227Z" fill="#A3A3A3"/>
<path d="M87.4801 330.04L96.4726 336.799L100.998 340.135L103.388 341.846C104.107 342.444 104.89 342.961 105.721 343.387C107.4 344.071 109.25 341.961 108.027 340.535C107.389 339.862 106.672 339.268 105.892 338.767L103.644 337.055L99.0909 333.747L89.899 327.074C88.3907 325.99 85.9434 328.956 87.4801 330.097L87.4801 330.04Z" fill="#A3A3A3"/>
<path d="M98.0664 318.234L107.059 324.992C108.568 326.105 109.905 327.245 111.555 328.329C112.352 328.937 113.149 329.508 113.946 330.04C114.672 330.641 115.465 331.158 116.308 331.58C117.959 332.293 119.837 330.154 118.613 328.728C117.959 328.061 117.234 327.468 116.45 326.96L114.231 325.249L109.677 321.941L100.457 315.268C98.977 314.184 96.5297 317.15 98.0664 318.291L98.0664 318.234Z" fill="#A3A3A3"/>
<path d="M108.738 306.428L117.731 313.187L122.256 316.552C123.053 317.122 123.821 317.693 124.646 318.234C125.358 318.842 126.142 319.359 126.98 319.774C128.631 320.487 130.509 318.348 129.285 316.923C128.635 316.251 127.909 315.657 127.122 315.154L124.903 313.443L120.349 310.135L111.129 303.462C109.649 302.378 107.202 305.344 108.738 306.485L108.738 306.428Z" fill="#A3A3A3"/>
<path d="M117.958 293.537L126.98 300.296L131.476 303.661L133.866 305.344C134.587 305.938 135.37 306.455 136.2 306.884C137.879 307.597 139.757 305.458 138.533 304.032C137.872 303.373 137.147 302.781 136.37 302.264L134.122 300.553L129.569 297.245L120.377 290.571C118.869 289.488 116.421 292.453 117.958 293.594L117.958 293.537Z" fill="#A3A3A3"/>
<path d="M127.321 280.648L136.314 287.406C137.822 288.519 139.16 289.659 140.839 290.772L143.201 292.454C143.927 293.055 144.72 293.572 145.563 293.994C147.213 294.707 149.092 292.568 147.868 291.142C147.212 290.477 146.487 289.884 145.705 289.374L143.485 287.663L138.932 284.355L129.712 277.682C128.232 276.598 125.785 279.564 127.321 280.705L127.321 280.648Z" fill="#A3A3A3"/>
<path d="M136.655 267.757L145.648 274.516L150.173 277.881C150.97 278.451 151.738 279.022 152.563 279.564C153.275 280.171 154.059 280.688 154.897 281.104C156.547 281.816 158.426 279.678 157.202 278.252C156.552 277.58 155.826 276.986 155.039 276.484L152.819 274.773L148.266 271.464L139.074 264.791C137.566 263.708 135.119 266.673 136.655 267.814L136.655 267.757Z" fill="#A3A3A3"/>
<path d="M145.989 254.753L155.011 261.512L159.507 264.877L161.898 266.56C162.619 267.154 163.401 267.67 164.231 268.1C165.91 268.813 167.788 266.674 166.565 265.248C165.903 264.589 165.179 263.997 164.402 263.48L162.154 261.769L157.601 258.46L148.408 251.787C146.9 250.704 144.453 253.669 145.989 254.81L145.989 254.753Z" fill="#A3A3A3"/>
<path d="M155.353 241.977L164.345 248.736C165.854 249.848 167.191 250.988 168.87 252.101L171.232 253.783C171.959 254.384 172.751 254.901 173.594 255.323C175.245 256.036 177.123 253.897 175.899 252.471C175.244 251.806 174.518 251.213 173.736 250.703L171.517 248.992L166.963 245.684L157.743 239.011C156.263 237.927 153.816 240.893 155.353 242.034L155.353 241.977Z" fill="#A3A3A3"/>
<path d="M164.687 229.086L173.679 235.845L178.204 239.181C179.001 239.79 179.798 240.36 180.595 240.893C181.306 241.5 182.09 242.017 182.928 242.433C184.578 243.146 186.457 241.007 185.233 239.581C184.584 238.909 183.858 238.315 183.07 237.813L180.851 236.102L176.297 232.793L167.105 226.12C165.597 225.037 163.15 228.002 164.687 229.143L164.687 229.086Z" fill="#A3A3A3"/>
<path d="M174.02 217.394L183.042 224.124L187.538 227.489L189.929 229.172C190.65 229.767 191.432 230.283 192.262 230.712C193.941 231.425 195.82 229.286 194.596 227.86C193.927 227.21 193.203 226.618 192.433 226.092L190.185 224.381L185.631 221.073L176.44 214.399C174.931 213.344 172.484 216.282 174.02 217.451L174.02 217.394Z" fill="#A3A3A3"/>
<path d="M181.021 206.272L190.611 212.204L195.421 215.056C196.98 216.126 198.649 217.025 200.401 217.736C201.938 218.221 203.474 215.854 202.336 214.685C201.551 214.031 200.703 213.457 199.803 212.974L197.584 211.548L192.746 208.696L183.07 202.992C181.249 201.937 179.086 205.103 181.021 206.272Z" fill="#A3A3A3"/>
<path d="M187.822 195.349L197.783 200.625L202.592 203.134C204.272 204.15 206.056 204.982 207.913 205.615C209.365 205.958 211.129 203.705 209.849 202.564C208.261 201.428 206.552 200.472 204.755 199.712C203.161 198.857 201.539 198.058 199.917 197.231L189.871 192.126C187.993 191.185 185.802 194.351 187.822 195.406L187.822 195.349Z" fill="#A3A3A3"/>
<path d="M190.896 187.678L201.966 189.931L207.487 191.015C209.349 191.5 211.256 191.787 213.178 191.87C214.658 191.87 216.024 189.303 214.317 188.562C212.564 187.908 210.739 187.468 208.881 187.25L203.19 186.195L192.063 184.113C190.014 183.742 188.534 187.193 190.839 187.678L190.896 187.678Z" fill="#A3A3A3"/>
<path d="M2.07732 310.591L13.4605 307.055C17.328 306.011 21.1292 304.735 24.8437 303.234C25.2521 303.089 25.607 302.823 25.8612 302.472C26.1154 302.12 26.2567 301.7 26.2666 301.266C26.2598 301.071 26.2131 300.879 26.1294 300.703C26.0457 300.527 25.927 300.37 25.7803 300.241C25.6335 300.113 25.4621 300.016 25.2765 299.957C25.091 299.898 24.895 299.877 24.7013 299.897C20.72 300.829 16.8035 302.02 12.9766 303.462C9.07786 304.717 5.17919 306.028 1.3089 307.34C-0.711614 307.996 -0.455631 311.304 1.87792 310.591L2.07732 310.591Z" fill="#A3A3A3"/>
<path d="M7.34224 288.66C11.3264 289.06 15.3104 289.487 19.3229 289.83C23.3164 290.328 27.3366 290.585 31.361 290.6C33.0115 290.6 34.036 287.748 32.0724 287.291C30.0964 286.945 28.1 286.726 26.0959 286.636L20.4044 286.208C16.4487 285.923 12.4648 285.723 8.50912 285.495C8.07019 285.451 7.62919 285.557 7.25748 285.795C6.88577 286.033 6.60509 286.389 6.46022 286.807C6.38507 286.991 6.35082 287.19 6.36018 287.389C6.36954 287.588 6.42229 287.782 6.51442 287.959C6.60655 288.135 6.73601 288.289 6.89376 288.411C7.05152 288.532 7.23368 288.617 7.4277 288.66L7.34224 288.66Z" fill="#A3A3A3"/>
<path d="M20.5187 271.863C26.2102 276.341 31.9019 280.818 37.9634 284.981C39.4148 285.98 41.7482 283.185 40.2968 282.13C34.6052 277.624 28.5722 273.574 22.596 269.297C21.287 268.384 19.2096 270.894 20.5187 271.949L20.5187 271.863Z" fill="#A3A3A3"/>
<path d="M37.7636 260.457C38.845 263.622 39.9832 266.759 41.1215 269.896C42.1426 273.044 43.3691 276.121 44.7927 279.108C45.6464 280.705 48.1505 279.108 47.809 277.682C46.8981 274.396 45.7669 271.175 44.4227 268.043C43.199 264.877 41.9752 261.74 40.6945 258.632C40.353 257.776 39.2147 257.805 38.5602 258.204C38.1876 258.429 37.9044 258.776 37.7591 259.187C37.6138 259.598 37.6156 260.047 37.7636 260.457Z" fill="#A3A3A3"/>
<path d="M59.2781 258.773C58.9394 264.879 57.9084 270.925 56.2047 276.797C55.4933 279.164 58.8511 279.449 59.5056 277.396C61.4443 271.283 62.4048 264.902 62.3514 258.488C62.3514 256.321 59.3349 256.92 59.2211 258.773L59.2781 258.773Z" fill="#A3A3A3"/>
<path d="M51.5662 309.907C53.5013 312.758 55.5503 315.61 57.5708 318.462L60.7296 322.797C61.7316 324.227 62.8148 325.598 63.9738 326.903C65.1975 328.215 67.588 326.19 66.8196 324.707C65.8897 323.186 64.8728 321.72 63.7744 320.316C62.7215 318.89 61.697 317.464 60.6156 316.095C58.5097 313.243 56.4038 310.534 54.2126 307.825C53.1881 306.541 50.7691 308.566 51.6513 309.878L51.5662 309.907Z" fill="#A3A3A3"/>
<path d="M62.5507 305.8C64.5143 308.253 66.4493 310.734 68.4414 313.158L71.2872 316.665C72.2917 317.975 73.3955 319.205 74.5884 320.344C74.8655 320.595 75.2254 320.733 75.5986 320.733C75.9718 320.733 76.3317 320.595 76.6088 320.344C76.9241 320.126 77.1552 319.806 77.264 319.438C77.3727 319.069 77.3526 318.675 77.2066 318.319C76.3471 316.972 75.3962 315.686 74.3608 314.469L71.2302 310.791C69.2097 308.367 67.104 306 65.0265 303.604C63.8028 302.207 61.5548 304.545 62.6647 305.943L62.5507 305.8Z" fill="#A3A3A3"/>
<path d="M70.6615 296.816C72.9666 299.183 75.2434 301.55 77.6054 303.86C79.8886 306.239 82.3219 308.468 84.8905 310.534C86.3134 311.646 88.4191 309.621 87.2239 308.195C85.0473 305.714 82.729 303.363 80.2803 301.151C77.8899 298.898 75.4423 296.702 72.9949 294.478C71.6574 293.252 69.3809 295.505 70.6615 296.816Z" fill="#A3A3A3"/>
<path d="M89.2155 275.828C89.2155 275.97 89.2155 275.828 89.2155 275.828C89.2919 276.014 89.4336 276.166 89.614 276.256L89.8415 276.427L90.0409 276.569L91.2929 277.425L91.6629 277.567C91.919 277.739 91.6629 277.567 91.6629 277.567L92.1468 277.938L93.1997 278.623C93.9966 279.107 94.7648 279.621 95.5331 280.134C98.7489 282.187 101.965 284.212 105.237 286.18C106.006 286.636 106.831 286.979 107.599 287.435C109.164 288.433 111.128 285.581 109.421 284.583C110.104 285.011 109.421 284.583 109.222 284.583C109.022 284.583 108.225 283.784 107.713 283.442C106.29 282.501 104.867 281.56 103.416 280.59C100.229 278.566 97.0129 276.512 93.7118 274.659C92.9008 274.117 92.0325 273.668 91.1224 273.318C89.6995 272.862 88.2762 275.029 89.3576 276.17L89.2155 275.828Z" fill="#A3A3A3"/>
<path d="M96.5296 265.732C96.6241 265.906 96.7613 266.053 96.9281 266.16L97.1841 266.331L97.355 266.331L98.607 267.186L98.977 267.443C99.2331 267.614 98.977 267.443 98.977 267.443L99.4609 267.785L100.514 268.47L102.848 269.981C106.063 272.063 109.279 274.088 112.551 276.056C113.32 276.512 114.145 276.826 114.914 277.31C116.479 278.309 118.443 275.428 116.735 274.459C117.418 274.886 116.735 274.459 116.536 274.316C116.057 273.904 115.554 273.523 115.027 273.175C113.604 272.234 112.182 271.293 110.73 270.324C107.543 268.299 104.327 266.245 101.026 264.392C100.215 263.85 99.3466 263.401 98.4365 263.051C97.0136 262.595 95.5907 264.762 96.6721 265.903L96.5296 265.732Z" fill="#A3A3A3"/>
<path d="M103.844 255.637C103.917 255.824 104.046 255.983 104.214 256.093L104.47 256.264L104.641 256.264L105.893 257.12L106.262 257.376C106.519 257.519 106.262 257.376 106.262 257.376L106.775 257.747L107.799 258.432L110.133 259.943C113.348 261.996 116.564 264.021 119.837 265.989C120.605 266.474 121.431 266.787 122.199 267.272C123.764 268.27 125.728 265.39 124.02 264.42C124.703 264.848 124.02 264.42 123.85 264.42C123.679 264.42 122.854 263.65 122.313 263.28C120.89 262.367 119.467 261.397 118.016 260.428C114.828 258.403 111.613 256.35 108.311 254.496C107.488 253.976 106.621 253.528 105.722 253.156C105.369 253.102 105.009 253.154 104.685 253.303C104.362 253.453 104.089 253.695 103.901 253.999C103.713 254.302 103.619 254.654 103.629 255.012C103.639 255.369 103.753 255.715 103.957 256.008L103.844 255.637Z" fill="#A3A3A3"/>
<path d="M111.157 245.513C111.299 245.513 111.157 245.513 111.157 245.513C111.232 245.707 111.373 245.869 111.555 245.969L111.783 245.969L111.954 246.111C112.381 246.425 112.779 246.71 113.206 246.967L113.604 247.224C113.832 247.395 113.604 247.224 113.604 247.224L114.117 247.594L115.141 248.279C115.938 248.764 116.706 249.277 117.474 249.79C120.69 251.844 123.906 253.869 127.179 255.836C127.947 256.293 128.773 256.635 129.541 257.091C131.106 258.089 133.069 255.237 131.362 254.239C132.045 254.667 131.362 254.239 131.191 254.239C131.021 254.239 130.195 253.441 129.655 253.098C128.232 252.157 126.809 251.216 125.357 250.247C122.17 248.222 118.955 246.169 115.653 244.315C114.842 243.773 113.974 243.324 113.064 242.975C111.641 242.518 110.218 244.686 111.299 245.826L111.157 245.513Z" fill="#A3A3A3"/>
<path d="M118.499 235.417L118.499 235.274C118.533 235.369 118.586 235.456 118.654 235.529C118.723 235.603 118.805 235.662 118.897 235.702L119.125 235.873L119.295 235.873L120.548 236.729L120.946 236.986C121.174 237.157 120.946 236.986 120.946 236.986L121.458 237.356L122.483 238.012L124.845 239.524C128.032 241.605 131.248 243.63 134.521 245.598C135.289 246.054 136.114 246.368 136.882 246.853C138.448 247.851 140.411 244.999 138.704 244.001C139.387 244.429 138.704 244.001 138.533 243.858C138.362 243.716 137.537 243.06 136.996 242.718C135.574 241.777 134.151 240.836 132.699 239.866C129.512 237.841 126.296 235.788 122.995 233.934C122.184 233.393 121.315 232.943 120.405 232.594C120.047 232.516 119.674 232.552 119.337 232.697C119 232.841 118.716 233.087 118.525 233.401C118.334 233.715 118.246 234.08 118.272 234.446C118.297 234.813 118.436 235.162 118.669 235.446L118.499 235.417Z" fill="#A3A3A3"/>
<path d="M125.812 225.321C125.887 225.516 126.028 225.678 126.211 225.778L126.438 225.949L126.609 225.949L127.861 226.804L128.26 227.061C128.487 227.232 128.26 227.061 128.26 227.061L128.772 227.432L129.796 228.116L132.158 229.628C135.346 231.709 138.561 233.706 141.834 235.702C142.602 236.158 143.428 236.472 144.196 236.957C145.761 237.955 147.725 235.075 146.017 234.105C146.7 234.504 146.017 234.105 145.847 233.934C145.676 233.763 144.851 233.164 144.31 232.822C142.887 231.881 141.464 230.939 140.013 229.97C136.825 227.917 133.61 225.892 130.308 224.038C129.492 223.498 128.625 223.04 127.719 222.669C127.365 222.608 127.001 222.655 126.673 222.804C126.346 222.953 126.071 223.197 125.884 223.504C125.697 223.812 125.607 224.168 125.624 224.528C125.642 224.887 125.767 225.233 125.983 225.521L125.812 225.321Z" fill="#A3A3A3"/>
<path d="M133.127 215.226C133.202 215.421 133.343 215.582 133.525 215.683L133.753 215.854L133.952 215.854L135.176 216.738L135.574 216.966C135.802 217.137 135.574 216.966 135.574 216.966L136.086 217.337L137.111 218.021L139.473 219.533C142.66 221.586 145.876 223.611 149.149 225.578C149.917 226.035 150.742 226.377 151.511 226.833C153.076 227.831 155.068 224.98 153.332 223.981C154.015 224.409 153.332 223.981 153.161 223.981C152.99 223.981 152.165 223.211 151.624 222.841C150.201 221.928 148.779 220.958 147.328 219.989C144.14 217.964 140.924 215.911 137.623 214.057C136.806 213.526 135.938 213.078 135.033 212.717C134.679 212.656 134.315 212.703 133.988 212.851C133.661 213 133.386 213.244 133.199 213.552C133.012 213.859 132.921 214.216 132.939 214.575C132.956 214.935 133.081 215.281 133.298 215.569L133.127 215.226Z" fill="#A3A3A3"/>
<path d="M140.44 205.103L140.44 204.96C140.474 205.055 140.526 205.141 140.595 205.215C140.663 205.289 140.746 205.347 140.838 205.388C140.901 205.46 140.979 205.519 141.066 205.559L141.265 205.559L142.489 206.414L142.887 206.671C143.115 206.842 142.887 206.671 142.887 206.671L143.399 207.042C143.741 207.27 144.082 207.498 144.452 207.698L146.786 209.238C149.973 211.291 153.217 213.316 156.462 215.284C157.23 215.74 158.055 216.082 158.823 216.538C160.417 217.536 162.381 214.685 160.645 213.687C161.328 214.114 160.645 213.687 160.474 213.544C160.303 213.401 159.478 212.746 158.937 212.403C157.514 211.462 156.092 210.521 154.64 209.552C151.453 207.527 148.237 205.473 144.936 203.62C144.125 203.078 143.257 202.628 142.347 202.279C141.988 202.201 141.615 202.237 141.278 202.382C140.941 202.527 140.657 202.773 140.466 203.087C140.276 203.4 140.187 203.766 140.213 204.132C140.238 204.498 140.377 204.847 140.61 205.131L140.44 205.103Z" fill="#A3A3A3"/>
<path d="M148.579 194.865C148.579 195.007 148.579 194.865 148.579 194.865C148.673 195.039 148.81 195.186 148.977 195.293L149.205 195.464L149.404 195.464L150.656 196.319L151.026 196.576C151.282 196.747 151.026 196.576 151.026 196.576L151.51 196.918L152.563 197.603L154.896 199.114C158.112 201.196 161.328 203.221 164.601 205.188C165.369 205.645 166.194 205.958 166.963 206.443C168.528 207.441 170.491 204.561 168.784 203.591C169.467 204.019 168.784 203.591 168.585 203.591C168.386 203.591 167.589 202.793 167.077 202.451C165.654 201.509 164.231 200.568 162.779 199.599C159.592 197.574 156.376 195.521 153.075 193.667C152.264 193.126 151.396 192.676 150.486 192.327C149.063 191.87 147.64 194.038 148.721 195.178L148.579 194.865Z" fill="#A3A3A3"/>
<path d="M154.271 186.623C154.936 187.068 155.653 187.432 156.405 187.706L160.987 189.646C164.515 191.1 168.073 192.498 171.658 193.866C172.37 194.152 173.11 194.38 173.821 194.608C174.049 194.608 175.016 195.036 174.22 194.608C174.628 194.762 175.078 194.766 175.489 194.62C175.901 194.474 176.247 194.187 176.468 193.809C176.866 193.153 176.895 191.984 176.069 191.642C175.244 191.3 174.817 190.986 174.163 190.701L169.496 188.762C167.617 187.992 165.711 187.279 163.804 186.537L161.101 185.51L159.877 185.026L159.393 184.855L158.795 184.655C157.876 184.258 156.924 183.943 155.949 183.714C155.587 183.676 155.221 183.741 154.893 183.903C154.566 184.064 154.291 184.315 154.1 184.626C153.787 185.14 153.644 186.081 154.1 186.509L154.271 186.623Z" fill="#A3A3A3"/>
<path d="M80.2802 287.748C80.3551 287.926 80.4847 288.076 80.6501 288.175L80.9062 288.347L81.0771 288.347L82.3291 289.202L82.699 289.459C82.9551 289.63 82.699 289.459 82.699 289.459L83.2114 289.801C83.5529 290.058 83.8944 290.257 84.2359 290.485L86.5693 291.997C89.785 294.079 93.0009 296.103 96.2735 298.071C97.0419 298.527 97.867 298.841 98.6354 299.326C100.201 300.324 102.164 297.444 100.457 296.474C101.14 296.902 100.457 296.474 100.286 296.332C100.115 296.189 99.2901 295.533 98.7494 295.191C97.3265 294.25 95.9035 293.309 94.4522 292.339C91.2649 290.314 88.049 288.261 84.7479 286.407C83.9369 285.866 83.0686 285.416 82.1585 285.067C80.7356 284.611 79.3127 286.778 80.3941 287.919L80.2802 287.748Z" fill="#A3A3A3"/>
<path d="M52.0498 275.571C32.8407 276.398 18.697 295.02 18.9532 313.671C19.2093 331.58 33.7514 345.583 51.0823 347.522C81.447 350.916 102.307 322.597 118.926 301.351C136.769 278.537 153.503 254.867 170.407 231.339C177.322 221.728 184.066 212.032 190.811 202.279C192.787 199.542 194.593 196.684 196.218 193.724C197.1 192.07 197.755 190.444 198.495 188.762C201.796 180.976 198.495 189.474 197.413 190.9C207.089 176.641 186.201 167.715 177.322 180.719C183.668 171.422 180.965 176.527 177.92 179.493C175.828 181.605 173.924 183.895 172.228 186.338C167.988 192.041 164.089 198.172 159.991 204.076C147.583 221.985 135.289 239.98 122.483 257.633C111.1 273.518 99.4609 289.659 86.6548 304.545C80.1379 312.103 72.2552 321.656 61.8965 322.882C58.2829 323.479 54.5735 322.877 51.3324 321.168C48.0914 319.459 45.4957 316.737 43.9393 313.414C39.8983 303.889 47.7529 297.416 55.1235 293.109C62.4941 288.803 62.551 275.058 51.9362 275.485L52.0498 275.571Z" fill="#994776"/>
<path d="M56.119 16.5979C83.9794 16.5979 103.416 41.5228 119.21 61.7707L121.003 64.0521C136.285 83.6155 150.998 103.978 165.198 123.94L172.541 134.15C179.57 143.931 186.513 153.913 192.973 163.238C194.681 165.719 196.388 168.371 198.494 171.794C203.446 180.035 203.474 185.882 198.494 194.979C196.747 197.928 194.847 200.784 192.803 203.534C186.343 212.831 179.427 222.784 172.341 232.651L165.028 242.832C150.799 262.795 136.114 283.186 120.804 302.72L119.011 305.002C102.221 326.533 81.3611 353.283 50.7119 349.889C41.5307 349.044 32.9702 344.879 26.6286 338.173C20.2869 331.466 16.5977 322.676 16.2493 313.443C15.9932 294.507 30.2507 273.518 51.8788 272.719C54.2421 272.447 56.6249 273.026 58.6011 274.353C60.5772 275.68 62.0178 277.669 62.6645 279.963C63.4241 282.829 63.2324 285.865 62.1184 288.612C61.0043 291.36 59.0283 293.669 56.489 295.192C46.8986 300.895 43.7966 306.057 46.4147 312.303C47.7564 315.099 49.9719 317.381 52.7247 318.801C55.4775 320.222 58.6173 320.703 61.6682 320.174C70.6039 319.175 77.6902 310.905 83.951 303.605L84.7194 302.749C96.2449 289.345 106.888 274.659 117.19 260.457L120.434 255.979C130.764 241.72 140.952 227.005 150.77 212.774L157.885 202.508L162.324 196.006C164.828 192.27 167.446 188.42 170.15 184.598C170.431 184.176 170.582 183.68 170.582 183.172C170.582 182.665 170.431 182.169 170.15 181.747C167.759 177.64 164.885 173.676 162.096 169.826C160.702 167.944 159.251 166.061 158.027 164.122L150.941 153.884C141.094 139.625 131.02 124.881 120.576 110.622L117.275 106.459C107.002 92.1995 96.3585 77.6267 84.833 64.2232L84.0646 63.3677C77.8038 56.067 70.7179 47.7968 61.7821 46.7986C58.7313 46.2688 55.5911 46.7506 52.8383 48.1711C50.0855 49.5916 47.8704 51.8732 46.5287 54.6697C43.9105 60.8296 47.0126 66.0769 56.6029 71.7806C59.1423 73.3032 61.1179 75.6126 62.232 78.3599C63.346 81.1072 63.5377 84.1431 62.7781 87.0092C62.1365 89.3064 60.6973 91.2986 58.7199 92.6266C56.7424 93.9547 54.3569 94.5313 51.9927 94.2527C30.3647 93.3401 16.1072 72.4364 16.3633 53.5289C16.7117 44.2961 20.4009 35.506 26.7425 28.7993C33.0842 22.0927 41.6447 17.9279 50.8259 17.0826C52.5802 16.8249 54.3471 16.6631 56.119 16.5979ZM193.969 192.555C198.01 185.083 198.039 181.148 193.969 174.56C191.92 171.166 190.27 168.6 188.619 166.204C182.188 156.907 175.273 146.954 168.243 137.201L160.93 126.992C146.701 107.2 132.073 86.7526 116.848 67.2747L115.055 64.9932C99.062 44.4887 79.1413 18.9363 51.3094 22.0733C43.3793 22.7737 35.9752 26.3444 30.4811 32.1178C24.987 37.8912 21.779 45.472 21.457 53.4433C21.2578 69.9267 33.4948 88.0929 52.1063 88.8915C53.3202 89.1178 54.5747 88.8841 55.6264 88.2359C56.6781 87.5878 57.4519 86.5713 57.7979 85.3836C58.2095 83.6373 58.063 81.8055 57.3786 80.1473C56.6943 78.4892 55.5069 77.0886 53.9847 76.1438C42.1461 69.2139 38.0481 61.2858 41.7476 52.5592C43.5021 48.7141 46.4696 45.5538 50.1926 43.5648C53.9156 41.5757 58.1875 40.8681 62.3511 41.5512C73.3075 42.7775 81.4749 52.274 87.9633 59.8884L88.8172 60.8295C100.513 74.3756 111.185 89.148 121.544 103.407L124.817 107.913C135.204 122.172 145.392 136.973 155.266 151.261L162.324 161.499C163.633 163.381 164.971 165.206 166.308 167.202C169.308 171.181 172.101 175.312 174.675 179.579C175.495 180.861 175.918 182.356 175.893 183.878C175.868 185.4 175.394 186.881 174.533 188.135C171.886 191.785 169.296 195.606 166.792 199.285C165.312 201.481 163.946 203.677 162.324 205.844L155.238 216.111C145.363 230.37 135.318 245.142 124.817 259.43L121.572 263.907C111.214 278.166 100.513 292.939 88.8172 306.513L88.0772 307.397C81.5319 315.012 73.3645 324.508 62.4651 325.735C58.3014 326.418 54.0291 325.71 50.3062 323.721C46.5832 321.732 43.616 318.572 41.8615 314.727C38.162 306 42.2601 298.072 54.0986 291.142C55.6208 290.197 56.8079 288.797 57.4922 287.139C58.1765 285.48 58.3234 283.649 57.9119 281.902C57.5658 280.715 56.7917 279.698 55.74 279.05C54.6883 278.402 53.4341 278.168 52.2203 278.394C33.6087 279.193 21.3718 297.359 21.571 313.842C21.893 321.814 25.101 329.395 30.595 335.168C36.0891 340.941 43.4932 344.512 51.4233 345.212C79.2552 348.321 99.1759 322.797 115.169 302.435L116.962 300.154C132.187 280.676 146.871 260.228 161.072 240.408L168.357 230.227C175.443 220.417 182.33 210.493 188.733 201.224C190.65 198.569 192.417 195.808 194.026 192.954L193.969 192.555Z" fill="#B67795"/>
</g>
<defs>
<clipPath id="clip0_934_104790">
<rect width="215" height="367" fill="white" transform="translate(215 367) rotate(-180)"/>
</clipPath>
</defs>
</svg>
