<svg width="236" height="513" viewBox="0 0 236 513" fill="none" xmlns="http://www.w3.org/2000/svg">
<g clip-path="url(#clip0_940_34038)">
<path d="M125.954 415.391C143.948 412.892 161.668 416.059 179.303 419.601C186.159 421.169 193.121 422.227 200.133 422.768C204.805 422.972 209.483 422.546 214.042 421.501C220.002 420.371 225.496 417.501 229.831 413.252C232.261 410.628 233.996 407.436 234.876 403.968C235.757 400.499 235.756 396.865 234.872 393.398C234.032 390.1 232.336 387.084 229.956 384.655C227.577 382.226 224.597 380.471 221.322 379.568C213.769 377.566 204.439 380.561 200.816 387.852C196.869 395.897 201.175 406.405 210.522 407.621C212.656 407.952 214.839 407.671 216.82 406.811C218.801 405.95 220.498 404.546 221.715 402.76C223.953 399.131 223.424 393.843 219.357 391.806C218.497 391.384 217.558 391.148 216.602 391.112C215.645 391.077 214.692 391.243 213.803 391.601C213.254 391.812 212.79 392.197 212.481 392.698C212.173 393.199 212.037 393.788 212.094 394.373C212.149 394.638 212.261 394.887 212.423 395.102C212.586 395.318 212.793 395.495 213.032 395.621C213.27 395.747 213.533 395.819 213.802 395.831C214.072 395.843 214.34 395.795 214.589 395.691C217.887 394.425 219.528 398.96 217.682 401.237C215.58 403.838 211.411 403.342 208.813 401.904C207.304 401.061 206.059 399.814 205.217 398.303C204.375 396.792 203.97 395.075 204.046 393.346C204.094 391.655 204.595 390.008 205.497 388.578C206.399 387.148 207.668 385.987 209.172 385.217C211.748 383.916 214.649 383.403 217.514 383.741C220.379 384.078 223.082 385.252 225.286 387.116C227.336 388.926 228.903 391.221 229.843 393.792C230.783 396.362 231.067 399.127 230.669 401.836C229.233 412.105 218.707 416.281 209.924 417.548C199.449 419.037 188.94 416.435 178.722 414.415C161.463 410.992 143.982 408.237 126.399 410.787C125.777 410.869 125.199 411.156 124.757 411.602C124.315 412.048 124.033 412.628 123.955 413.252C123.922 413.531 123.953 413.815 124.045 414.082C124.138 414.348 124.289 414.59 124.488 414.789C124.687 414.988 124.928 415.14 125.194 415.232C125.46 415.325 125.743 415.356 126.023 415.323L125.954 415.391Z" fill="#603631"/>
<path d="M125.852 292.434C141.675 294.744 157.499 292.845 173.083 289.867C179.559 288.617 186.018 287.196 192.546 286.187C197.464 285.284 202.48 285.036 207.463 285.451C215.836 286.409 225.816 289.165 229.678 297.432C230.86 299.952 231.389 302.73 231.215 305.509C231.042 308.288 230.172 310.978 228.687 313.332C227.211 315.531 225.144 317.269 222.726 318.344C220.307 319.419 217.635 319.787 215.016 319.408C213.106 319.241 211.262 318.62 209.639 317.596C208.016 316.572 206.661 315.174 205.686 313.52C204.761 311.837 204.37 309.912 204.565 308C204.761 306.089 205.534 304.283 206.78 302.823C207.997 301.501 209.62 300.625 211.391 300.334C213.162 300.042 214.979 300.352 216.554 301.214C217.382 301.666 218.056 302.356 218.488 303.195C218.921 304.034 219.092 304.983 218.981 305.921C218.923 306.25 218.792 306.562 218.599 306.835C218.406 307.107 218.155 307.334 217.864 307.497C217.573 307.661 217.25 307.758 216.917 307.782C216.584 307.805 216.25 307.754 215.939 307.632C213.649 306.759 210.984 310.525 213.495 311.586C214.432 311.945 215.431 312.111 216.433 312.073C217.435 312.035 218.419 311.795 219.325 311.366C220.232 310.938 221.043 310.33 221.709 309.579C222.375 308.829 222.883 307.951 223.201 306.999C223.848 304.918 223.677 302.669 222.725 300.71C221.772 298.751 220.109 297.229 218.075 296.456C209.531 292.896 200.15 300.033 199.757 308.865C199.347 318.004 207.053 323.978 215.631 324.268C219.141 324.347 222.608 323.484 225.673 321.768C228.738 320.053 231.288 317.548 233.061 314.513C234.865 311.411 235.863 307.906 235.965 304.318C236.066 300.729 235.268 297.173 233.642 293.974C230.669 288.258 225.013 284.749 219.083 282.781C214.944 281.41 210.639 280.61 206.284 280.402C199.585 280.304 192.897 280.999 186.36 282.473C169.272 285.707 152.184 289.695 134.567 288.566C132.158 288.412 129.748 288.155 127.339 287.813C124.929 287.47 122.862 291.869 125.818 292.297L125.852 292.434Z" fill="#E27A7A"/>
<path d="M108.644 354.888C128.62 363.445 152.167 361.734 171.493 352.303C171.846 352.115 172.153 351.852 172.393 351.533C172.634 351.214 172.803 350.846 172.887 350.455C172.972 350.064 172.97 349.66 172.883 349.27C172.796 348.879 172.625 348.513 172.382 348.195C170.323 345.648 168.903 342.645 168.24 339.436C167.577 336.227 167.69 332.906 168.57 329.75C169.449 326.594 171.07 323.694 173.297 321.293C175.524 318.893 178.292 317.061 181.37 315.95L178.636 314.992C181.024 320.752 181.563 327.114 180.179 333.195C178.795 339.277 175.557 344.776 170.912 348.931L174.21 352.235C176.553 349.354 179.469 346.994 182.773 345.306C186.077 343.617 189.696 342.637 193.4 342.427C197.224 342.269 201.04 342.917 204.598 344.33C208.157 345.742 211.38 347.887 214.059 350.626L214.384 346.912C212.252 349.37 209.631 351.354 206.688 352.737C203.745 354.119 200.546 354.869 197.296 354.939C189.709 355.178 182.31 352.371 175.338 349.804L172.331 354.614C175.318 355.641 178.036 357.331 180.282 359.556C182.527 361.781 184.243 364.486 185.3 367.467C186.313 370.534 186.55 373.806 185.989 376.987C185.429 380.169 184.088 383.161 182.088 385.695L184.685 384.788C181.885 383.974 179.3 382.547 177.116 380.612C174.933 378.676 173.205 376.279 172.057 373.595C170.902 370.68 170.48 367.526 170.829 364.41C171.177 361.294 172.286 358.312 174.056 355.726C174.258 355.466 174.401 355.165 174.478 354.845C174.554 354.525 174.562 354.192 174.501 353.868C174.439 353.545 174.31 353.238 174.122 352.968C173.933 352.698 173.69 352.472 173.407 352.303C172.77 352.059 172.066 352.048 171.422 352.274C170.777 352.5 170.234 352.946 169.887 353.535C167.543 356.753 166.054 360.514 165.561 364.466C165.067 368.419 165.586 372.431 167.067 376.128C168.483 379.488 170.646 382.481 173.391 384.878C176.136 387.274 179.391 389.011 182.908 389.957C183.382 390.031 183.867 389.987 184.32 389.829C184.773 389.67 185.18 389.403 185.505 389.05C188.182 385.895 190.048 382.133 190.942 378.091C191.835 374.049 191.729 369.85 190.632 365.858C189.505 362.173 187.541 358.799 184.893 356.001C182.246 353.204 178.987 351.059 175.372 349.736C174.705 349.484 173.97 349.477 173.298 349.715C172.626 349.953 172.059 350.421 171.698 351.037C171.049 352.063 170.981 354.015 172.365 354.46C180.396 357.489 188.718 360.536 197.432 360.108C201.316 359.908 205.12 358.93 208.619 357.23C212.117 355.531 215.24 353.145 217.801 350.215C218.317 349.754 218.638 349.113 218.698 348.422C218.759 347.732 218.554 347.045 218.126 346.501C214.963 343.331 211.17 340.862 206.992 339.255C202.815 337.648 198.347 336.939 193.878 337.173C189.465 337.449 185.154 338.626 181.211 340.63C177.268 342.634 173.775 345.424 170.946 348.829C170.674 349.031 170.447 349.289 170.283 349.587C170.119 349.884 170.022 350.213 169.996 350.552C169.971 350.891 170.019 351.232 170.137 351.55C170.255 351.869 170.441 352.158 170.68 352.398C170.92 352.639 171.209 352.824 171.527 352.942C171.845 353.061 172.185 353.109 172.523 353.084C172.862 353.058 173.191 352.96 173.488 352.796C173.785 352.632 174.043 352.405 174.244 352.132C179.69 347.189 183.479 340.683 185.094 333.503C186.709 326.322 186.071 318.817 183.267 312.013C183.001 311.553 182.578 311.204 182.075 311.031C181.573 310.858 181.025 310.873 180.533 311.072C176.705 312.445 173.234 314.662 170.377 317.56C167.52 320.457 165.35 323.96 164.026 327.811C162.692 331.923 162.398 336.302 163.17 340.556C163.943 344.81 165.757 348.805 168.452 352.183L169.357 348.076C150.988 357.044 129.748 357.249 110.541 351.002C108.576 350.352 106.525 353.997 108.661 354.922L108.644 354.888Z" fill="#B2282B"/>
<path d="M124.024 289.815C122.201 296.662 120.395 303.536 118.607 310.439C115.679 321.644 112.763 332.861 109.858 344.088C109.14 346.827 108.406 349.565 107.722 352.321C107.559 354.109 107.847 355.91 108.559 357.558C111.339 367.896 114.141 378.234 116.967 388.571C119.205 396.889 121.358 405.242 123.904 413.474C123.904 413.731 124.058 413.971 124.143 414.227C123.904 413.44 123.973 413.714 124.024 413.885C124.776 416.641 128.945 414.843 128.296 412.43C126.467 405.584 124.878 398.738 122.982 392.011C120.111 381.229 117.172 370.463 114.267 359.698C113.6 357.199 112.917 354.7 112.233 352.201L112.131 353.416L117.616 332.21C120.544 320.926 123.449 309.652 126.331 298.39L128.296 290.586C129.082 287.488 124.742 287.163 124.024 289.815Z" fill="#E27A7A"/>
<path d="M125.955 167.012C143.948 164.53 161.668 167.68 179.303 171.223C186.159 172.79 193.121 173.848 200.133 174.389C204.806 174.61 209.486 174.184 214.043 173.122C220.003 171.992 225.496 169.122 229.832 164.873C232.262 162.249 233.996 159.057 234.877 155.589C235.757 152.12 235.756 148.486 234.873 145.019C234.033 141.721 232.337 138.705 229.957 136.276C227.577 133.847 224.598 132.093 221.322 131.19C213.769 129.187 204.439 132.182 200.817 139.473C196.869 147.518 201.175 158.027 210.522 159.242C212.656 159.573 214.84 159.292 216.82 158.432C218.801 157.572 220.498 156.167 221.715 154.381C223.954 150.752 223.424 145.481 219.357 143.444C218.5 143.015 217.56 142.775 216.602 142.739C215.644 142.704 214.69 142.874 213.803 143.239C213.251 143.445 212.783 143.829 212.474 144.331C212.164 144.834 212.031 145.425 212.095 146.012C212.151 146.274 212.265 146.521 212.428 146.735C212.591 146.949 212.799 147.124 213.037 147.248C213.275 147.372 213.538 147.442 213.806 147.454C214.074 147.465 214.342 147.416 214.589 147.312C217.887 146.046 219.528 150.598 217.682 152.858C215.581 155.459 211.411 154.963 208.814 153.525C207.337 152.686 206.114 151.464 205.274 149.987C204.433 148.509 204.006 146.832 204.037 145.133C204.069 143.433 204.558 141.773 205.453 140.328C206.347 138.883 207.615 137.707 209.121 136.923C211.696 135.618 214.598 135.103 217.464 135.44C220.33 135.778 223.033 136.955 225.235 138.823C227.285 140.63 228.852 142.921 229.792 145.489C230.732 148.057 231.016 150.819 230.618 153.525C229.182 163.794 218.656 167.988 209.873 169.237C199.398 170.726 188.889 168.142 178.671 166.105C161.412 162.682 143.931 159.943 126.348 162.494C125.727 162.572 125.15 162.855 124.708 163.299C124.266 163.742 123.983 164.319 123.904 164.941C123.871 165.221 123.902 165.505 123.995 165.771C124.087 166.037 124.238 166.279 124.437 166.479C124.636 166.678 124.878 166.829 125.143 166.922C125.409 167.014 125.692 167.045 125.972 167.012H125.955Z" fill="#E27A7A"/>
<path d="M125.852 44.1067C141.675 46.4002 157.499 44.5175 173.083 41.5223C179.559 40.2729 186.018 38.8523 192.546 37.8425C197.465 36.9482 202.48 36.7008 207.463 37.1065C215.836 38.065 225.816 40.8206 229.678 49.0873C230.858 51.6049 231.387 54.38 231.213 57.156C231.04 59.9321 230.171 62.6196 228.687 64.9704C227.211 67.17 225.144 68.9073 222.726 69.9822C220.307 71.0572 217.635 71.426 215.016 71.0464C213.108 70.8789 211.267 70.2592 209.644 69.2384C208.022 68.2177 206.665 66.8252 205.686 65.1758C204.76 63.4903 204.368 61.5619 204.563 59.6477C204.759 57.7335 205.532 55.9244 206.78 54.4615C207.997 53.1402 209.62 52.2642 211.391 51.9727C213.162 51.6812 214.979 51.9909 216.554 52.8527C217.383 53.3074 218.058 54.0003 218.49 54.8422C218.922 55.6842 219.093 56.6365 218.981 57.5765C218.923 57.9057 218.792 58.2179 218.599 58.4906C218.406 58.7632 218.155 58.9895 217.864 59.1533C217.573 59.317 217.25 59.414 216.917 59.4373C216.584 59.4606 216.25 59.4097 215.939 59.2881C213.649 58.4152 210.984 62.1806 213.495 63.2417C214.432 63.6008 215.431 63.7665 216.433 63.7288C217.435 63.691 218.419 63.4507 219.325 63.0222C220.232 62.5936 221.043 61.9858 221.709 61.2353C222.375 60.4848 222.883 59.607 223.201 58.6548C223.843 56.5763 223.67 54.3312 222.718 52.376C221.765 50.4207 220.105 48.9021 218.075 48.1289C209.531 44.5517 200.15 51.6888 199.757 60.5204C199.347 69.6771 207.053 75.6333 215.631 75.9243C219.142 76.0062 222.61 75.1445 225.676 73.4288C228.741 71.7131 231.291 69.2061 233.061 66.1685C234.865 63.0668 235.863 59.5615 235.965 55.9734C236.066 52.3853 235.268 48.829 233.642 45.63C230.669 39.9135 225.013 36.4048 219.083 34.4365C214.942 33.0744 210.638 32.2743 206.284 32.0575C199.585 31.9679 192.898 32.663 186.36 34.1285C169.272 37.3633 152.184 41.3683 134.567 40.2216C132.158 40.0675 129.748 39.8107 127.339 39.4855C124.929 39.1604 122.862 43.5419 125.818 43.9698L125.852 44.1067Z" fill="#B2282B"/>
<path d="M108.645 106.51C128.62 115.067 152.167 113.356 171.494 103.925C171.846 103.737 172.153 103.474 172.394 103.155C172.635 102.836 172.803 102.468 172.888 102.077C172.972 101.686 172.971 101.282 172.883 100.892C172.796 100.501 172.625 100.135 172.382 99.8174C170.324 97.2704 168.904 94.2671 168.241 91.0582C167.577 87.8494 167.69 84.5281 168.57 81.3719C169.45 78.2157 171.071 75.3162 173.298 72.9155C175.524 70.5148 178.293 68.6826 181.371 67.572L178.636 66.6135C181.024 72.3741 181.564 78.7361 180.18 84.8175C178.796 90.8989 175.557 96.3983 170.913 100.553L174.211 103.857C176.556 100.979 179.473 98.6217 182.777 96.9334C186.08 95.2451 189.698 94.2631 193.4 94.0495C197.226 93.8935 201.042 94.5442 204.601 95.9594C208.16 97.3747 211.382 99.5229 214.059 102.265L214.384 98.5509C212.25 101.004 209.627 102.984 206.685 104.364C203.742 105.743 200.544 106.491 197.296 106.561C189.709 106.8 182.31 103.994 175.339 101.426L172.331 106.236C175.317 107.266 178.033 108.957 180.278 111.182C182.523 113.407 184.24 116.11 185.301 119.089C186.314 122.157 186.551 125.428 185.99 128.609C185.429 131.791 184.088 134.783 182.088 137.317L184.686 136.41C181.886 135.598 179.302 134.175 177.118 132.242C174.935 130.31 173.206 127.916 172.058 125.234C170.902 122.317 170.481 119.16 170.829 116.041C171.178 112.922 172.286 109.937 174.057 107.348C174.258 107.088 174.401 106.787 174.478 106.467C174.555 106.147 174.563 105.814 174.501 105.49C174.44 105.167 174.311 104.86 174.122 104.59C173.933 104.32 173.69 104.094 173.408 103.925C172.77 103.684 172.068 103.676 171.424 103.901C170.781 104.126 170.237 104.571 169.887 105.157C167.543 108.378 166.054 112.142 165.561 116.097C165.068 120.052 165.586 124.068 167.068 127.767C168.485 131.124 170.649 134.114 173.394 136.507C176.139 138.901 179.393 140.635 182.908 141.579C183.382 141.658 183.869 141.616 184.323 141.457C184.776 141.299 185.183 141.029 185.506 140.672C188.182 137.517 190.049 133.755 190.942 129.713C191.836 125.671 191.729 121.472 190.632 117.48C189.503 113.796 187.538 110.423 184.891 107.626C182.244 104.829 178.986 102.683 175.373 101.358C174.705 101.11 173.972 101.104 173.3 101.342C172.629 101.579 172.062 102.045 171.699 102.659C171.049 103.685 170.981 105.654 172.365 106.082C180.397 109.111 188.718 112.158 197.433 111.747C201.318 111.545 205.122 110.564 208.621 108.862C212.12 107.159 215.242 104.771 217.802 101.837C218.318 101.376 218.639 100.735 218.699 100.044C218.759 99.3543 218.554 98.6671 218.126 98.123C214.961 94.9562 211.167 92.4897 206.99 90.883C202.814 89.2763 198.347 88.565 193.879 88.7951C189.465 89.0713 185.155 90.2476 181.212 92.2519C177.268 94.2562 173.775 97.0461 170.947 100.451C170.674 100.653 170.448 100.911 170.284 101.209C170.12 101.506 170.022 101.836 169.997 102.174C169.972 102.513 170.02 102.854 170.138 103.172C170.256 103.491 170.441 103.78 170.681 104.02C170.921 104.261 171.21 104.446 171.528 104.564C171.846 104.683 172.185 104.731 172.524 104.706C172.862 104.68 173.191 104.582 173.488 104.418C173.785 104.254 174.043 104.027 174.245 103.754C179.691 98.8116 183.48 92.3055 185.095 85.1248C186.709 77.9441 186.071 70.4392 183.267 63.6355C183.001 63.1749 182.578 62.8261 182.076 62.6531C181.573 62.4802 181.026 62.4947 180.533 62.6941C176.705 64.0673 173.235 66.2845 170.378 69.1818C167.521 72.0791 165.35 75.5825 164.026 79.433C162.72 83.5299 162.442 87.8861 163.217 92.1162C163.992 96.3463 165.796 100.32 168.469 103.685L169.375 99.5607C151.005 108.529 129.765 108.735 110.558 102.487C108.593 101.854 106.543 105.483 108.679 106.407L108.645 106.51Z" fill="#603631"/>
<path d="M124.024 41.4366C122.201 48.2828 120.395 55.1574 118.607 62.0606C115.679 73.2769 112.763 84.4932 109.858 95.7095C109.14 98.448 108.406 101.186 107.722 103.942C107.559 105.73 107.847 107.531 108.559 109.179C111.339 119.517 114.141 129.86 116.967 140.21C119.205 148.511 121.358 156.863 123.904 165.095C123.904 165.352 124.058 165.609 124.143 165.866C123.904 165.061 123.973 165.335 124.024 165.506C124.776 168.262 128.945 166.465 128.296 164.051C126.467 157.205 124.878 150.359 122.982 143.633C120.111 132.85 117.172 122.084 114.267 111.319C113.6 108.82 112.917 106.321 112.233 103.822L112.131 105.037L117.616 83.8314C120.544 72.5581 123.449 61.2848 126.331 50.0114L128.296 42.2068C129.082 39.126 124.742 38.7837 124.024 41.4366Z" fill="#E27A7A"/>
<path d="M108.645 231.555C128.62 240.112 152.167 238.401 171.494 228.97C171.844 228.78 172.149 228.516 172.388 228.197C172.627 227.877 172.794 227.51 172.879 227.12C172.963 226.73 172.962 226.327 172.877 225.937C172.791 225.547 172.622 225.181 172.382 224.862C170.273 222.153 168.852 218.972 168.238 215.592C167.625 212.211 167.839 208.733 168.862 205.454C169.875 202.523 171.521 199.853 173.683 197.634C175.845 195.415 178.47 193.702 181.371 192.617L178.636 191.659C181.024 197.419 181.564 203.781 180.18 209.862C178.796 215.944 175.557 221.443 170.913 225.598L174.211 228.902C176.553 226.021 179.47 223.661 182.774 221.973C186.078 220.284 189.697 219.304 193.4 219.094C197.225 218.936 201.04 219.584 204.599 220.997C208.158 222.409 211.381 224.554 214.059 227.293L214.384 223.579C212.248 226.031 209.626 228.012 206.684 229.394C203.742 230.776 200.545 231.529 197.296 231.606C189.709 231.845 182.31 229.039 175.339 226.471L172.331 231.298C175.32 232.323 178.039 234.012 180.285 236.237C182.531 238.463 184.245 241.169 185.301 244.151C186.312 247.219 186.548 250.49 185.988 253.671C185.427 256.852 184.087 259.844 182.088 262.379L184.686 261.472C181.885 260.658 179.3 259.231 177.117 257.296C174.933 255.36 173.205 252.964 172.058 250.279C170.902 247.362 170.481 244.205 170.829 241.086C171.178 237.967 172.286 234.982 174.057 232.393C174.258 232.133 174.401 231.832 174.478 231.512C174.555 231.192 174.563 230.859 174.501 230.535C174.44 230.212 174.311 229.905 174.122 229.635C173.933 229.365 173.69 229.139 173.408 228.97C172.768 228.731 172.064 228.725 171.421 228.953C170.777 229.182 170.234 229.63 169.887 230.22C167.543 233.437 166.054 237.198 165.561 241.151C165.068 245.103 165.586 249.116 167.068 252.812C168.485 256.169 170.649 259.159 173.394 261.552C176.139 263.946 179.393 265.68 182.908 266.624C183.383 266.706 183.87 266.666 184.324 266.507C184.779 266.348 185.185 266.076 185.506 265.717C188.184 262.566 190.051 258.807 190.945 254.768C191.838 250.728 191.731 246.531 190.632 242.543C189.506 238.855 187.542 235.478 184.894 232.678C182.247 229.878 178.988 227.73 175.373 226.403C174.704 226.153 173.968 226.148 173.295 226.389C172.623 226.63 172.057 227.102 171.699 227.721C171.049 228.748 170.981 230.699 172.365 231.229C180.397 234.259 188.718 237.305 197.433 236.877C201.318 236.676 205.122 235.695 208.621 233.992C212.12 232.29 215.242 229.901 217.802 226.968C218.318 226.506 218.639 225.865 218.699 225.175C218.759 224.485 218.554 223.798 218.126 223.254C214.96 220.089 211.166 217.625 206.989 216.021C202.812 214.417 198.346 213.709 193.879 213.943C189.465 214.219 185.155 215.395 181.212 217.4C177.268 219.404 173.775 222.194 170.947 225.598C170.674 225.8 170.448 226.059 170.284 226.356C170.12 226.654 170.022 226.983 169.997 227.322C169.972 227.661 170.02 228.001 170.138 228.32C170.256 228.638 170.441 228.928 170.681 229.168C170.921 229.408 171.21 229.594 171.528 229.712C171.846 229.83 172.185 229.879 172.524 229.853C172.862 229.828 173.191 229.73 173.488 229.566C173.785 229.401 174.043 229.175 174.245 228.902C179.688 223.958 183.476 217.452 185.091 210.272C186.706 203.092 186.069 195.587 183.267 188.783C183.004 188.32 182.582 187.967 182.079 187.791C181.577 187.615 181.028 187.627 180.533 187.825C176.706 189.204 173.237 191.425 170.38 194.325C167.523 197.225 165.352 200.729 164.026 204.581C162.72 208.675 162.442 213.028 163.217 217.256C163.992 221.483 165.796 225.454 168.469 228.816L169.375 224.708C151.005 233.66 129.765 233.882 110.558 227.635C108.593 226.985 106.543 230.63 108.679 231.555H108.645Z" fill="#603631"/>
<path d="M124.023 166.482C122.201 173.328 120.395 180.174 118.606 187.02C115.679 198.237 112.762 209.453 109.857 220.669C109.14 223.408 108.405 226.146 107.721 228.885C107.558 230.673 107.846 232.474 108.559 234.122C111.338 244.471 114.141 254.815 116.966 265.152C119.204 273.453 121.358 281.823 123.904 290.038C123.904 290.295 124.057 290.552 124.143 290.808C123.904 290.021 123.972 290.278 124.023 290.466C124.775 293.204 128.945 291.424 128.295 288.994C126.467 282.148 124.878 275.302 122.981 268.575C120.11 257.81 117.171 247.044 114.266 236.262C113.6 233.78 112.916 231.281 112.233 228.782L112.13 229.98L117.615 208.774C120.543 197.512 123.448 186.239 126.33 174.954L128.295 167.167C129.081 164.069 124.741 163.744 124.023 166.396V166.482Z" fill="#E27A7A"/>
<path d="M109.02 477.845C128.979 486.402 152.526 484.691 171.852 475.26C172.206 475.074 172.515 474.812 172.757 474.494C172.999 474.175 173.17 473.808 173.256 473.417C173.342 473.026 173.342 472.621 173.256 472.23C173.17 471.839 173 471.471 172.758 471.153C170.699 468.607 169.278 465.605 168.614 462.397C167.949 459.189 168.061 455.868 168.939 452.712C169.817 449.556 171.436 446.656 173.661 444.255C175.886 441.853 178.652 440.02 181.729 438.907L178.995 437.949C181.387 443.707 181.931 450.069 180.55 456.151C179.169 462.233 175.932 467.733 171.288 471.889L174.586 475.192C176.927 472.31 179.844 469.949 183.148 468.26C186.452 466.571 190.072 465.592 193.776 465.385C197.598 465.229 201.41 465.878 204.965 467.29C208.521 468.702 211.741 470.846 214.418 473.583L214.743 469.869C212.609 472.325 209.987 474.307 207.045 475.69C204.102 477.072 200.904 477.823 197.655 477.896C190.085 478.136 182.686 475.329 175.697 472.762L172.707 477.571C175.691 478.604 178.406 480.295 180.651 482.52C182.896 484.745 184.613 487.446 185.676 490.425C186.681 493.494 186.912 496.765 186.348 499.945C185.785 503.125 184.444 506.117 182.447 508.652L185.044 507.745C182.244 506.931 179.659 505.504 177.475 503.569C175.292 501.633 173.564 499.237 172.416 496.552C171.265 493.634 170.846 490.478 171.194 487.36C171.543 484.242 172.649 481.257 174.415 478.666C174.614 478.405 174.755 478.104 174.83 477.785C174.905 477.465 174.913 477.133 174.851 476.81C174.79 476.487 174.662 476.181 174.475 475.911C174.288 475.641 174.046 475.414 173.766 475.243C173.126 475.004 172.423 474.998 171.779 475.226C171.135 475.455 170.593 475.903 170.246 476.493C167.905 479.711 166.418 483.473 165.924 487.424C165.431 491.376 165.948 495.388 167.427 499.085C168.847 502.442 171.012 505.432 173.756 507.828C176.5 510.223 179.753 511.963 183.267 512.914C183.741 512.99 184.226 512.946 184.68 512.788C185.133 512.63 185.54 512.361 185.864 512.007C188.541 508.853 190.407 505.091 191.301 501.049C192.194 497.007 192.088 492.807 190.99 488.816C189.866 485.129 187.903 481.753 185.255 478.956C182.607 476.158 179.347 474.014 175.731 472.693C175.064 472.438 174.329 472.429 173.655 472.667C172.982 472.905 172.416 473.375 172.057 473.994C171.408 475.021 171.34 476.972 172.741 477.502C180.755 480.532 189.094 483.578 197.792 483.151C201.676 482.949 205.481 481.968 208.98 480.265C212.479 478.563 215.6 476.174 218.16 473.241C218.68 472.782 219.003 472.14 219.064 471.449C219.124 470.757 218.917 470.069 218.485 469.527C215.32 466.364 211.529 463.902 207.355 462.298C203.182 460.694 198.719 459.985 194.254 460.216C189.841 460.492 185.53 461.668 181.587 463.673C177.644 465.677 174.151 468.467 171.323 471.871C171.032 472.068 170.789 472.326 170.61 472.628C170.432 472.929 170.322 473.266 170.288 473.616C170.255 473.965 170.299 474.317 170.417 474.647C170.536 474.977 170.725 475.277 170.973 475.525C171.221 475.773 171.52 475.963 171.849 476.081C172.179 476.2 172.531 476.244 172.879 476.211C173.228 476.177 173.564 476.067 173.866 475.888C174.167 475.709 174.424 475.465 174.62 475.175C180.062 470.229 183.848 463.724 185.463 456.544C187.077 449.364 186.442 441.861 183.643 435.056C183.377 434.595 182.955 434.245 182.453 434.069C181.952 433.893 181.404 433.904 180.909 434.098C177.08 435.477 173.608 437.698 170.749 440.598C167.889 443.497 165.715 447.002 164.385 450.854C163.079 454.948 162.801 459.301 163.576 463.529C164.351 467.756 166.155 471.727 168.828 475.089L169.733 470.981C151.364 479.933 130.124 480.155 110.917 473.908C108.952 473.258 106.901 476.903 109.054 477.828L109.02 477.845Z" fill="#B2282B"/>
<path d="M124.314 412.772C122.418 419.824 120.572 426.893 118.727 433.944C115.805 445.223 112.848 456.485 110.012 467.764C109.499 469.818 108.935 471.855 108.491 473.926C108.388 474.456 108.269 474.97 108.166 475.5C108.064 476.031 107.893 476.561 108.166 475.586C107.397 478.53 111.584 478.924 112.25 476.322C114.079 469.253 116.095 462.236 117.94 455.167C120.868 443.894 123.773 432.621 126.655 421.347C127.322 418.746 127.971 416.213 128.62 413.543C129.389 410.445 125.066 410.12 124.331 412.772H124.314Z" fill="#E27A7A"/>
<path d="M111.823 348.195C95.9997 345.885 80.1935 347.785 64.5923 350.78C58.116 352.012 51.6569 353.433 45.1293 354.442C40.2109 355.345 35.1948 355.593 30.2116 355.178C21.8556 354.22 11.8593 351.464 7.99741 343.198C6.81471 340.677 6.28707 337.898 6.46332 335.118C6.63958 332.338 7.51405 329.648 9.00564 327.297C10.4801 325.096 12.5461 323.358 14.965 322.283C17.3839 321.208 20.0571 320.84 22.6759 321.221C24.5886 321.381 26.4348 321.999 28.0587 323.024C29.6826 324.049 31.0364 325.45 32.0059 327.109C32.9358 328.79 33.3309 330.715 33.1385 332.626C32.9462 334.538 32.1754 336.345 30.9294 337.806C29.708 339.126 28.0823 340.001 26.3092 340.293C24.536 340.584 22.7164 340.275 21.138 339.415C20.3102 338.963 19.6366 338.273 19.2041 337.434C18.7716 336.595 18.6 335.646 18.7115 334.708C18.7724 334.381 18.9043 334.07 19.098 333.799C19.2918 333.528 19.5426 333.303 19.8327 333.14C20.1228 332.977 20.4451 332.879 20.777 332.855C21.1088 332.83 21.4421 332.878 21.7532 332.997C24.0601 333.87 26.7258 330.104 24.2139 329.043C23.2764 328.684 22.276 328.518 21.2729 328.555C20.2698 328.593 19.2847 328.833 18.3766 329.262C17.4685 329.69 16.6562 330.298 15.9885 331.049C15.3207 331.799 14.8114 332.677 14.4909 333.63C13.8655 335.711 14.0457 337.952 14.9958 339.906C15.9458 341.859 17.5959 343.383 19.6172 344.173C28.1611 347.733 37.5423 340.596 37.9353 331.765C38.3454 322.625 30.6389 316.652 22.0608 316.361C18.5528 316.28 15.0874 317.142 12.0251 318.858C8.9628 320.574 6.41551 323.08 4.64826 326.116C2.83727 329.215 1.83333 332.72 1.72882 336.309C1.6243 339.898 2.42252 343.456 4.05013 346.655C7.02341 352.371 12.5941 355.88 18.6261 357.848C22.7566 359.228 27.058 360.029 31.4078 360.227C38.1075 360.326 44.7954 359.63 51.3322 358.156C68.4201 354.922 85.5079 350.934 103.125 352.063C105.535 352.217 107.944 352.474 110.354 352.816C112.763 353.159 114.831 348.76 111.874 348.332L111.823 348.195Z" fill="#603631"/>
<path d="M110.78 225.239C92.7868 227.738 75.0667 224.571 57.4321 221.028C50.576 219.461 43.6137 218.403 36.602 217.862C31.9298 217.658 27.2514 218.084 22.6925 219.129C16.7325 220.259 11.2391 223.129 6.90339 227.378C4.45873 229.994 2.70833 233.182 1.81271 236.65C0.917088 240.119 0.904882 243.757 1.77704 247.232C2.62019 250.528 4.31728 253.543 6.69667 255.971C9.07607 258.399 12.0534 260.155 15.3277 261.061C22.8805 263.064 32.2104 260.069 35.8331 252.777C39.7804 244.733 35.4742 234.224 26.1272 233.009C23.9919 232.678 21.8065 232.96 19.8252 233.824C17.8439 234.687 16.148 236.096 14.9346 237.887C12.6961 241.498 13.2258 246.787 17.2927 248.824C18.1524 249.246 19.0911 249.482 20.0478 249.517C21.0045 249.553 21.9578 249.386 22.8463 249.029C23.3967 248.821 23.8629 248.436 24.172 247.934C24.4811 247.433 24.6157 246.843 24.555 246.256C24.5003 245.992 24.3879 245.743 24.2259 245.528C24.0638 245.312 23.8561 245.135 23.6177 245.009C23.3793 244.883 23.116 244.811 22.8468 244.799C22.5775 244.787 22.309 244.835 22.0603 244.939C18.7623 246.205 17.1219 241.67 18.9674 239.393C21.0692 236.792 25.2386 237.288 27.836 238.726C29.345 239.569 30.5901 240.816 31.4321 242.327C32.2741 243.838 32.6796 245.554 32.6034 247.283C32.5556 248.975 32.0544 250.622 31.1525 252.052C30.2505 253.482 28.981 254.643 27.4771 255.413C24.901 256.714 22.0001 257.227 19.1351 256.889C16.2701 256.551 13.5674 255.377 11.3633 253.513C9.31288 251.703 7.74652 249.409 6.8065 246.838C5.86647 244.268 5.58254 241.503 5.98058 238.794C7.41596 228.525 17.9421 224.349 26.7252 223.082C37.2001 221.593 47.7091 224.195 57.9276 226.214C75.1863 229.637 92.6671 232.393 110.25 229.843C110.873 229.761 111.45 229.474 111.892 229.028C112.334 228.582 112.616 228.002 112.694 227.378C112.727 227.098 112.696 226.815 112.604 226.548C112.512 226.282 112.36 226.04 112.161 225.841C111.962 225.642 111.721 225.49 111.455 225.398C111.189 225.305 110.906 225.274 110.627 225.307L110.78 225.239Z" fill="#E27A7A"/>
<path d="M126.979 288.361C107.716 294.976 86.6376 293.816 68.2142 285.126L68.8635 288.549C71.4543 285.234 73.2081 281.342 73.9756 277.203C74.7432 273.064 74.5018 268.801 73.2721 264.776C72.0646 261.061 70.0317 257.67 67.3265 254.857C64.6212 252.043 61.314 249.881 57.6538 248.533C57.2793 248.401 56.8824 248.346 56.4862 248.37C56.0899 248.393 55.7025 248.496 55.3462 248.671C54.9899 248.846 54.672 249.091 54.4111 249.39C54.1501 249.69 53.9513 250.038 53.8262 250.416C51.0939 257.091 50.4727 264.445 52.0465 271.484C53.6203 278.524 57.3132 284.911 62.6265 289.781C64.9504 291.835 68.4875 288.207 66.5395 285.845C63.7456 282.482 60.2838 279.738 56.3742 277.788C52.4646 275.837 48.1927 274.722 43.8299 274.514C39.3128 274.339 34.8085 275.105 30.6023 276.763C26.3961 278.422 22.5796 280.937 19.3943 284.15C18.8747 284.609 18.5512 285.251 18.4908 285.942C18.4303 286.634 18.6376 287.322 19.0696 287.864C21.5667 290.723 24.6169 293.045 28.0357 294.69C31.4545 296.334 35.1707 297.267 38.9598 297.432C47.5037 297.843 55.8255 294.882 63.7713 291.886C64.4689 291.651 65.064 291.182 65.4563 290.559C65.8486 289.935 66.014 289.195 65.9244 288.463C65.8542 288.141 65.7144 287.838 65.5148 287.576C65.3153 287.314 65.0609 287.098 64.7694 286.945C64.4779 286.792 64.1564 286.704 63.8275 286.688C63.4987 286.673 63.1704 286.729 62.8657 286.854C59.1097 288.195 55.7063 290.372 52.9121 293.221C50.118 296.07 48.0059 299.517 46.7348 303.302C45.515 307.26 45.2964 311.459 46.0988 315.522C46.9012 319.585 48.6993 323.385 51.3314 326.579C51.6567 326.886 52.0622 327.094 52.5009 327.179C52.9396 327.264 53.3932 327.222 53.8091 327.059C57.4367 326.007 60.7829 324.155 63.6011 321.637C66.4194 319.119 68.638 316.001 70.0938 312.51C71.5945 308.804 72.1094 304.77 71.5883 300.804C71.0671 296.838 69.5278 293.076 67.1206 289.884C65.4118 287.744 61.4986 291.082 62.8827 293.307C64.6925 295.927 65.8468 298.944 66.2482 302.105C66.6497 305.265 66.2867 308.476 65.1896 311.466C64.0856 314.059 62.4074 316.367 60.2818 318.214C58.1562 320.061 55.639 321.4 52.9206 322.129L55.3812 322.591C53.3293 320.068 51.9237 317.08 51.2864 313.889C50.6491 310.697 50.7995 307.398 51.7244 304.278C52.6444 301.44 54.2007 298.851 56.274 296.71C58.3474 294.568 60.8828 292.929 63.6859 291.921L62.7802 286.923C55.6717 289.61 48.2385 292.451 40.566 292.212C37.2292 292.105 33.9506 291.308 30.9363 289.87C27.922 288.433 25.2372 286.386 23.051 283.859L22.7434 287.573C25.3862 284.888 28.5695 282.797 32.0814 281.44C35.5934 280.082 39.3537 279.489 43.1122 279.7C46.8761 279.967 50.5456 281.003 53.8955 282.742C57.2455 284.482 60.2049 286.889 62.5923 289.815L66.5054 285.879C61.7453 281.656 58.422 276.048 57.0003 269.84C55.5787 263.631 56.1298 257.133 58.5767 251.254L54.749 253.137C57.8422 254.272 60.6493 256.073 62.9727 258.412C65.2962 260.751 67.0795 263.571 68.1971 266.675C69.2777 269.999 69.5123 273.54 68.8796 276.977C68.247 280.414 66.7672 283.639 64.5745 286.358C64.3819 286.623 64.2459 286.924 64.1749 287.244C64.104 287.563 64.0997 287.894 64.1622 288.215C64.2248 288.537 64.3529 288.841 64.5385 289.111C64.7241 289.38 64.9632 289.608 65.2408 289.781C84.3963 299.109 107.96 300.564 127.646 292.212C128.186 292.026 128.649 291.663 128.959 291.182C129.269 290.701 129.408 290.129 129.354 289.559C129.308 289.302 129.203 289.06 129.049 288.85C128.894 288.64 128.694 288.468 128.463 288.348C128.233 288.227 127.977 288.161 127.717 288.155C127.457 288.148 127.199 288.201 126.962 288.309L126.979 288.361Z" fill="#B2282B"/>
<path d="M108.832 228.268C110.609 235.354 112.415 242.429 114.249 249.492C117.143 260.765 120.048 272.038 122.964 283.312L124.98 291.116L125.083 289.901C123.249 296.747 121.415 303.531 119.581 310.251C116.676 321.034 113.788 331.811 110.917 342.582C110.439 344.385 109.977 346.199 109.533 348.025C109.413 348.521 109.277 349.035 109.157 349.548L109.054 349.942C108.661 351.653 109.054 349.668 109.054 350.096C108.268 353.023 112.472 353.416 113.138 350.832C115.035 343.798 117.086 336.814 119.017 329.797C122.013 318.877 124.975 307.952 127.902 297.021C128.466 294.916 129.099 292.828 129.611 290.706C129.767 289.843 129.678 288.953 129.355 288.138L128.261 283.911C125.47 273.162 122.673 262.402 119.871 251.631C117.735 243.467 115.702 235.269 113.446 227.139L113.344 226.745C112.575 223.853 108.217 225.718 108.867 228.268H108.832Z" fill="#E27A7A"/>
<path d="M109.601 472.368C91.5905 474.867 73.8703 471.717 56.2528 468.175C49.3922 466.6 42.4237 465.542 35.4056 465.008C30.7387 464.786 26.0635 465.213 21.5132 466.275C15.547 467.402 10.0473 470.272 5.70696 474.524C3.2828 477.151 1.55318 480.344 0.67573 483.812C-0.201721 487.279 -0.199136 490.912 0.683135 494.378C1.51999 497.675 3.21287 500.69 5.58984 503.119C7.9668 505.548 10.9431 507.303 14.2167 508.207C21.7866 510.21 31.0994 507.215 34.7221 499.924C38.6864 491.879 34.3803 481.371 25.0162 480.155C22.8828 479.826 20.7001 480.108 18.7197 480.968C16.7394 481.828 15.0421 483.232 13.8237 485.016C11.6023 488.645 12.1149 493.916 16.1818 495.953C17.0392 496.382 17.9785 496.623 18.9364 496.658C19.8943 496.693 20.8487 496.523 21.7354 496.158C22.291 495.957 22.7624 495.574 23.0727 495.071C23.383 494.567 23.514 493.973 23.4441 493.386C23.3873 493.123 23.2733 492.876 23.1104 492.662C22.9475 492.448 22.7396 492.273 22.5014 492.149C22.2633 492.025 22.0007 491.955 21.7324 491.944C21.4642 491.932 21.1968 491.981 20.9493 492.085C17.6684 493.334 16.028 488.799 17.8564 486.539C19.9753 483.938 24.1276 484.417 26.725 485.872C28.2014 486.711 29.4244 487.933 30.2651 489.41C31.1057 490.888 31.5328 492.565 31.5013 494.265C31.4698 495.964 30.9809 497.624 30.0861 499.069C29.1913 500.514 27.9239 501.69 26.4174 502.474C23.8425 503.779 20.9406 504.295 18.0746 503.957C15.2086 503.619 12.5056 502.442 10.3036 500.574C8.25194 498.765 6.68463 496.47 5.74451 493.9C4.80438 491.329 4.52127 488.563 4.92088 485.855C6.35626 475.586 16.8824 471.409 25.6826 470.16C36.1575 468.671 46.6494 471.255 56.885 473.292C74.1266 476.715 91.6074 479.454 109.191 476.903C109.816 476.825 110.397 476.54 110.843 476.093C111.288 475.647 111.573 475.065 111.651 474.439C111.678 474.16 111.643 473.879 111.548 473.616C111.453 473.353 111.302 473.114 111.104 472.916C110.907 472.718 110.668 472.566 110.405 472.472C110.143 472.377 109.862 472.341 109.584 472.368H109.601Z" fill="#E27A7A"/>
<path d="M109.602 477.794C113.327 477.794 114.472 471.495 110.149 471.495C106.423 471.495 105.279 477.794 109.602 477.794Z" fill="#E27A7A"/>
<path d="M111.823 99.8168C95.9998 97.5062 80.1936 99.4061 64.5924 102.401C58.1161 103.634 51.657 105.071 45.1294 106.064C40.211 106.967 35.1949 107.214 30.2117 106.8C21.8557 105.859 11.8594 103.086 7.99751 94.8192C6.81481 92.2983 6.28717 89.5191 6.46342 86.7394C6.63968 83.9597 7.51415 81.2696 9.00574 78.9189C10.4802 76.7178 12.5462 74.9794 14.9651 73.9042C17.384 72.8291 20.0572 72.4612 22.676 72.843C24.5853 73.015 26.4265 73.6384 28.0485 74.662C29.6704 75.6855 31.0268 77.08 32.006 78.7307C32.9359 80.4113 33.331 82.3362 33.1386 84.248C32.9463 86.1597 32.1755 87.9669 30.9295 89.4278C29.7115 90.7531 28.0854 91.6316 26.3107 91.9233C24.536 92.2149 22.7149 91.9027 21.1381 91.0367C20.3071 90.5885 19.6308 89.8992 19.1978 89.0593C18.7648 88.2193 18.5953 87.268 18.7116 86.3299C18.7752 86.0037 18.9089 85.6953 19.1032 85.4259C19.2976 85.1565 19.5481 84.9327 19.8374 84.7699C20.1267 84.6071 20.448 84.5092 20.7788 84.4831C21.1096 84.4569 21.4421 84.5031 21.7533 84.6184C24.0602 85.5084 26.7259 81.7259 24.2139 80.6818C23.2775 80.3221 22.2783 80.1555 21.276 80.1919C20.2738 80.2284 19.2892 80.4671 18.3813 80.8938C17.4734 81.3205 16.6608 81.9264 15.9923 82.6753C15.3238 83.4241 14.8132 84.3004 14.491 85.2516C13.8656 87.3327 14.0458 89.5733 14.9959 91.5272C15.9459 93.481 17.596 95.0047 19.6173 95.7947C28.1612 99.3547 37.5424 92.2176 37.9354 83.4032C38.3455 74.2464 30.639 68.2731 22.0609 67.9993C18.5537 67.9115 15.0873 68.769 12.0242 70.4821C8.96105 72.1953 6.41367 74.7013 4.64836 77.738C2.84037 80.8377 1.83821 84.3424 1.73371 87.9308C1.62922 91.5192 2.42568 95.0765 4.05023 98.2764C7.02351 103.976 12.5942 107.485 18.6262 109.47C22.7597 110.836 27.0599 111.631 31.4079 111.832C38.1065 111.927 44.7934 111.238 51.3323 109.778C68.4202 106.526 85.508 102.538 103.126 103.685C105.535 103.839 107.944 104.079 110.354 104.421C112.763 104.763 114.831 100.365 111.874 99.9366L111.823 99.8168Z" fill="#E27A7A"/>
<path d="M126.979 39.9819C107.716 46.5974 86.6376 45.4372 68.2142 36.7472L68.8635 40.1702C71.4543 36.8556 73.2081 32.9634 73.9756 28.8245C74.7432 24.6857 74.5018 20.4224 73.2721 16.3969C72.0725 12.6806 70.0422 9.28745 67.3357 6.47574C64.6292 3.66404 61.3179 1.5079 57.6539 0.171491C57.2805 0.037138 56.8842 -0.0209991 56.4881 0.000430766C56.092 0.0218606 55.7042 0.122426 55.3476 0.296273C54.9909 0.470121 54.6725 0.713723 54.4112 1.01269C54.1499 1.31165 53.951 1.65998 53.8262 2.03712C51.0939 8.71201 50.4727 16.066 52.0465 23.1058C53.6203 30.1456 57.3132 36.5321 62.6265 41.4025C64.9504 43.4564 68.4876 39.845 66.5395 37.4831C63.7493 34.1149 60.2886 31.3662 56.3785 29.4124C52.4684 27.4586 48.1946 26.3426 43.8299 26.1356C39.3128 25.9602 34.8085 26.7261 30.6023 28.3848C26.3961 30.0435 22.5796 32.5588 19.3943 35.7716C18.8747 36.2307 18.5512 36.8723 18.4908 37.5636C18.4303 38.2549 18.6376 38.943 19.0696 39.4856C21.5658 42.3471 24.6155 44.6718 28.0342 46.3192C31.453 47.9666 35.1697 48.9025 38.9598 49.0702C47.5037 49.4639 55.8255 46.5029 63.7713 43.5077C64.4689 43.2727 65.064 42.8038 65.4563 42.1801C65.8486 41.5564 66.014 40.8163 65.9244 40.0846C65.8521 39.764 65.7109 39.463 65.5105 39.2026C65.31 38.9423 65.0554 38.7289 64.7641 38.5773C64.4729 38.4258 64.1521 38.3397 63.8242 38.3251C63.4963 38.3105 63.1692 38.3678 62.8657 38.4929C59.109 39.8271 55.7045 41.9998 52.9099 44.8464C50.1152 47.693 48.0036 51.139 46.7348 54.9237C45.5135 58.8839 45.2941 63.086 46.0965 67.1521C46.8989 71.2182 48.6978 75.0207 51.3314 78.2177C51.6606 78.5181 52.0668 78.7205 52.5046 78.8021C52.9423 78.8838 53.3941 78.8414 53.8091 78.6799C57.4378 77.6309 60.7849 75.7791 63.6035 73.2611C66.4221 70.7431 68.6401 67.6232 70.0938 64.1318C71.5945 60.4249 72.1094 56.3914 71.5883 52.4255C71.0672 48.4596 69.5278 44.697 67.1206 41.5052C65.4118 39.3658 61.4986 42.7033 62.8827 44.9283C64.6936 47.5445 65.8488 50.5591 66.2503 53.717C66.6519 56.875 66.2881 60.0833 65.1896 63.0706C64.0878 65.6648 62.4102 67.9734 60.2843 69.821C58.1584 71.6686 55.6401 73.0066 52.9206 73.7335L55.3812 74.1956C53.3293 71.6718 51.9237 68.6844 51.2864 65.4929C50.6491 62.3014 50.7995 59.0023 51.7244 55.8822C52.6444 53.0446 54.2007 50.4557 56.274 48.3137C58.3474 46.1718 60.8828 44.5337 63.6859 43.5248L62.7802 38.5443C55.6717 41.2143 48.2385 44.0554 40.566 43.8158C37.242 43.7122 33.9748 42.9249 30.9676 41.5027C27.9603 40.0806 25.2772 38.054 23.0852 35.5491L22.7776 39.2631C25.4169 36.5723 28.5992 34.4765 32.1117 33.1158C35.6242 31.7552 39.3862 31.161 43.1463 31.3729C46.9102 31.6401 50.5798 32.6753 53.9298 34.4147C57.2797 36.1542 60.2392 38.5613 62.6265 41.4881L66.5395 37.5687C61.7801 33.3411 58.4577 27.7303 57.0362 21.5197C55.6147 15.3092 56.1652 8.80907 58.6108 2.9271L54.7831 4.8098C57.8751 5.94699 60.6811 7.74815 63.0043 10.0869C65.3275 12.4257 67.1115 15.2454 68.2312 18.3481C69.3102 21.6745 69.544 25.2179 68.9114 28.6576C68.2789 32.0973 66.8 35.3248 64.6086 38.0479C64.4135 38.3115 64.2755 38.6129 64.2031 38.9329C64.1308 39.2529 64.1257 39.5846 64.1884 39.9066C64.2511 40.2287 64.3801 40.5341 64.5672 40.8034C64.7543 41.0728 64.9954 41.3001 65.2751 41.471C84.4305 50.7989 107.995 52.2537 127.68 43.9014C128.222 43.7182 128.687 43.3561 128.997 42.8742C129.308 42.3923 129.446 41.8191 129.389 41.2485C129.342 40.992 129.237 40.7496 129.083 40.5398C128.929 40.3299 128.728 40.1582 128.498 40.0377C128.267 39.9172 128.012 39.8511 127.751 39.8444C127.491 39.8377 127.233 39.8906 126.996 39.9991L126.979 39.9819Z" fill="#603631"/>
<path d="M125.186 41.5394C123.289 48.3855 121.443 55.0948 119.598 61.8896C116.676 72.6552 113.72 83.4036 110.883 94.2035C110.422 96.0006 109.892 97.8148 109.482 99.6291C109.362 100.143 109.26 100.656 109.14 101.169C109.02 101.683 108.781 102.607 109.02 101.717C108.234 104.661 112.438 105.038 113.104 102.453C114.933 95.6069 116.966 88.9148 118.812 82.1371C121.739 71.3658 124.639 60.5945 127.509 49.8232C128.176 47.3244 128.825 44.8255 129.474 42.3267C130.278 39.2288 125.954 38.9036 125.186 41.5394Z" fill="#E27A7A"/>
<path d="M126.979 165.027C107.716 171.643 86.6376 170.482 68.2142 161.792L68.8635 165.215C71.4542 161.904 73.2079 158.015 73.9755 153.879C74.7431 149.742 74.5018 145.482 73.2721 141.459C72.0679 137.743 70.0362 134.35 67.3305 131.536C64.6248 128.723 61.3159 126.562 57.6538 125.217C57.2793 125.085 56.8824 125.029 56.4861 125.053C56.0899 125.077 55.7025 125.179 55.3462 125.355C54.9899 125.53 54.672 125.774 54.4111 126.074C54.1501 126.373 53.9512 126.722 53.8262 127.099C51.0939 133.774 50.4727 141.128 52.0465 148.168C53.6202 155.208 57.3132 161.594 62.6265 166.465C64.9504 168.519 68.4875 164.89 66.5395 162.528C63.7484 159.162 60.2872 156.416 56.3771 154.465C52.4669 152.514 48.1936 151.402 43.8298 151.198C39.3123 151.018 34.8069 151.782 30.6 153.441C26.3932 155.1 22.5771 157.618 19.3943 160.834C18.8747 161.293 18.5512 161.934 18.4908 162.626C18.4303 163.317 18.6376 164.005 19.0696 164.548C21.5607 167.419 24.6082 169.754 28.0273 171.411C31.4464 173.067 35.1657 174.011 38.9598 174.184C47.5037 174.595 55.8255 171.634 63.7713 168.638C64.467 168.401 65.0603 167.931 65.4521 167.308C65.844 166.685 66.0107 165.947 65.9244 165.215C65.8542 164.893 65.7144 164.59 65.5148 164.328C65.3153 164.066 65.0609 163.85 64.7694 163.697C64.4779 163.544 64.1564 163.456 63.8275 163.44C63.4987 163.425 63.1704 163.481 62.8657 163.606C59.1097 164.947 55.7063 167.124 52.9121 169.973C50.118 172.822 48.0059 176.269 46.7348 180.054C45.515 184.012 45.2964 188.211 46.0988 192.274C46.9012 196.337 48.6993 200.137 51.3314 203.331C51.6588 203.635 52.0642 203.84 52.502 203.925C52.9399 204.009 53.3925 203.97 53.8091 203.811C57.4389 202.759 60.7866 200.904 63.6052 198.383C66.4237 195.862 68.6412 192.739 70.0938 189.245C71.5945 185.538 72.1094 181.505 71.5883 177.539C71.0671 173.573 69.5278 169.811 67.1206 166.619C65.4118 164.497 61.4986 167.817 62.8827 170.042C64.6938 172.661 65.8489 175.679 66.2504 178.839C66.6519 182 66.2881 185.211 65.1896 188.201C64.0824 190.792 62.4031 193.098 60.278 194.944C58.1529 196.791 55.6374 198.131 52.9206 198.864L55.3812 199.326C53.3292 196.799 51.9236 193.809 51.2864 190.615C50.6491 187.42 50.7995 184.119 51.7244 180.996C52.6478 178.162 54.2055 175.577 56.2786 173.438C58.3517 171.3 60.8852 169.664 63.6859 168.656L62.7802 163.658C55.6717 166.328 48.2384 169.169 40.566 168.946C37.2273 168.822 33.9506 168.007 30.942 166.552C27.9335 165.097 25.2583 163.033 23.0852 160.491L22.7776 164.205C25.4204 161.52 28.6036 159.43 32.1156 158.072C35.6275 156.715 39.3878 156.122 43.1463 156.332C46.9102 156.6 50.5798 157.635 53.9298 159.374C57.2797 161.114 60.2391 163.521 62.6265 166.448L66.5395 162.511C61.7794 158.288 58.4562 152.68 57.0345 146.472C55.6129 140.264 56.1639 133.766 58.6108 127.887L54.7831 129.752C57.8757 130.893 60.6818 132.698 63.0048 135.039C65.3279 137.381 67.1116 140.203 68.2312 143.308C69.3102 146.631 69.5441 150.172 68.9115 153.609C68.2789 157.046 66.7999 160.271 64.6086 162.99C64.416 163.255 64.2801 163.556 64.2091 163.876C64.1382 164.195 64.1339 164.526 64.1964 164.847C64.259 165.169 64.387 165.474 64.5726 165.743C64.7582 166.013 64.9974 166.241 65.2751 166.413C84.4305 175.741 107.995 177.196 127.68 168.827C128.221 168.647 128.685 168.288 128.996 167.809C129.306 167.33 129.445 166.759 129.389 166.191C129.342 165.934 129.237 165.692 129.083 165.482C128.929 165.272 128.728 165.101 128.498 164.98C128.267 164.86 128.012 164.793 127.751 164.787C127.491 164.78 127.233 164.833 126.996 164.941L126.979 165.027Z" fill="#603631"/>
<path d="M108.832 104.934C110.609 111.997 112.415 119.072 114.249 126.157C117.143 137.431 120.048 148.704 122.964 159.977L124.98 167.765L125.083 166.567C123.249 173.344 121.415 180.128 119.581 186.917C116.676 197.677 113.788 208.448 110.917 219.231C110.439 221.045 109.977 222.859 109.533 224.674C109.413 225.187 109.277 225.701 109.157 226.214L109.054 226.591C108.661 228.302 109.054 226.334 109.054 226.745C108.268 229.688 112.472 230.065 113.138 227.481C115.035 220.463 117.086 213.48 119.017 206.463C122.013 195.543 124.975 184.618 127.902 173.687C128.466 171.582 129.099 169.494 129.611 167.371C129.766 166.503 129.677 165.608 129.355 164.787L128.261 160.576C125.47 149.817 122.673 139.057 119.871 128.297C117.735 120.133 115.702 111.934 113.446 103.805L113.344 103.394C112.575 100.501 108.217 102.367 108.867 104.934H108.832Z" fill="#E27A7A"/>
<path d="M126.672 411.317C107.403 417.932 86.3199 416.771 67.8903 408.082L68.5566 411.505C71.1473 408.194 72.9011 404.305 73.6687 400.169C74.4363 396.032 74.195 391.772 72.9653 387.749C71.7577 384.035 69.7248 380.644 67.0195 377.83C64.3142 375.017 61.0071 372.855 57.347 371.507C56.9725 371.375 56.5755 371.32 56.1793 371.343C55.7831 371.367 55.3955 371.469 55.0393 371.645C54.683 371.82 54.3651 372.064 54.1041 372.364C53.8432 372.663 53.6444 373.012 53.5194 373.389C50.7821 380.063 50.1583 387.419 51.7323 394.46C53.3064 401.501 57.0022 407.887 62.3196 412.755C64.6436 414.809 68.1636 411.18 66.2327 408.818C63.4401 405.454 59.9787 402.709 56.0688 400.758C52.1589 398.807 47.8863 397.694 43.523 397.488C39.0031 397.31 34.4956 398.075 30.2863 399.734C26.077 401.392 22.2576 403.909 19.0703 407.124C18.557 407.587 18.2393 408.23 18.1822 408.92C18.125 409.61 18.3327 410.296 18.7628 410.838C21.2475 413.698 24.2847 416.025 27.6913 417.678C31.098 419.331 34.8035 420.276 38.5846 420.457C47.1285 420.867 55.4503 417.907 63.3791 414.911C64.078 414.677 64.6751 414.209 65.0702 413.585C65.4654 412.962 65.6345 412.222 65.5493 411.488C65.479 411.166 65.3392 410.863 65.1397 410.601C64.9401 410.339 64.6857 410.123 64.3942 409.97C64.1027 409.816 63.7813 409.729 63.4524 409.713C63.1235 409.698 62.7951 409.754 62.4905 409.879C58.7332 411.218 55.3288 413.394 52.5343 416.243C49.7398 419.092 47.6284 422.541 46.3596 426.327C45.1398 430.285 44.9212 434.484 45.7236 438.547C46.5259 442.61 48.3241 446.41 50.9562 449.604C51.2825 449.909 51.688 450.116 52.1263 450.201C52.5645 450.285 53.0177 450.245 53.4339 450.083C57.0627 449.029 60.4093 447.174 63.2275 444.653C66.0457 442.132 68.2638 439.011 69.7186 435.518C71.2193 431.811 71.7343 427.778 71.2131 423.812C70.692 419.846 69.1525 416.083 66.7453 412.892C65.0365 410.769 61.1235 414.107 62.5076 416.315C64.3186 418.934 65.4738 421.952 65.8753 425.112C66.2768 428.273 65.9129 431.484 64.8144 434.474C63.7065 437.068 62.025 439.375 59.8966 441.222C57.7683 443.069 55.2487 444.408 52.5282 445.137L55.006 445.599C52.95 443.074 51.5419 440.084 50.9046 436.889C50.2672 433.694 50.4198 430.391 51.3492 427.269C52.2714 424.434 53.8288 421.849 55.902 419.71C57.9752 417.571 60.5093 415.935 63.3106 414.928L62.4221 409.931C55.3136 412.601 47.8633 415.442 40.208 415.219C36.8708 415.115 33.5915 414.319 30.5769 412.881C27.5623 411.444 24.8778 409.396 22.6929 406.867L22.3683 410.581C25.015 407.896 28.2013 405.806 31.7159 404.449C35.2305 403.091 38.9931 402.498 42.754 402.708C46.517 402.979 50.1852 404.016 53.5346 405.755C56.8839 407.494 59.8442 409.899 62.2342 412.823L66.1473 408.887C61.3864 404.664 58.0613 399.057 56.6368 392.849C55.2122 386.642 55.7592 380.143 58.2014 374.262L54.3909 376.145C57.484 377.28 60.2911 379.08 62.6146 381.42C64.938 383.759 66.7214 386.579 67.839 389.683C68.9087 393.008 69.1377 396.547 68.5054 399.982C67.8731 403.417 66.3994 406.642 64.2164 409.366C64.0238 409.63 63.8877 409.932 63.8168 410.251C63.7459 410.571 63.7416 410.902 63.8042 411.223C63.8667 411.544 63.9948 411.849 64.1804 412.119C64.366 412.388 64.6051 412.616 64.8828 412.789C84.0212 422.117 107.602 423.572 127.288 415.202C127.831 415.025 128.296 414.667 128.607 414.187C128.918 413.707 129.056 413.135 128.996 412.567C128.949 412.312 128.845 412.072 128.691 411.864C128.538 411.656 128.34 411.485 128.111 411.365C127.883 411.245 127.63 411.178 127.372 411.17C127.114 411.162 126.857 411.212 126.621 411.317H126.672Z" fill="#B2282B"/>
<path d="M108.508 351.226C110.297 358.289 112.108 365.363 113.942 372.449C116.835 383.722 119.74 394.995 122.657 406.269L124.673 414.056L124.775 412.858L119.273 433.208C116.368 443.968 113.481 454.739 110.61 465.522C110.131 467.336 109.67 469.151 109.226 470.965C109.089 471.478 108.969 471.992 108.85 472.505L108.747 472.882C108.354 474.593 108.747 472.625 108.747 473.036C107.944 475.98 112.165 476.356 112.831 473.772C114.728 466.754 116.779 459.771 118.709 452.754C121.706 441.835 124.667 430.909 127.595 419.978C128.159 417.873 128.791 415.785 129.304 413.663C129.45 412.794 129.361 411.901 129.047 411.078L127.954 406.868L119.564 374.588C117.428 366.424 115.394 358.226 113.139 350.096C113.091 349.961 113.051 349.824 113.019 349.685C112.267 346.81 107.893 348.658 108.542 351.226H108.508Z" fill="#E27A7A"/>
</g>
<defs>
<clipPath id="clip0_940_34038">
<rect width="236" height="513" fill="white"/>
</clipPath>
</defs>
</svg>
