<svg width="22" height="22" viewBox="0 0 22 22" fill="none" xmlns="http://www.w3.org/2000/svg">
<path fill-rule="evenodd" clip-rule="evenodd" d="M2 4C2 3.44772 2.44772 3 3 3H19.8C20.3523 3 20.8 3.44772 20.8 4C20.8 4.55228 20.3523 5 19.8 5H3C2.44772 5 2 4.55228 2 4Z" fill="#FFEE50"/>
<path fill-rule="evenodd" clip-rule="evenodd" d="M2 11C2 10.4477 2.44772 10 3 10H19.8C20.3523 10 20.8 10.4477 20.8 11C20.8 11.5523 20.3523 12 19.8 12H3C2.44772 12 2 11.5523 2 11Z" fill="#FFEE50"/>
<path fill-rule="evenodd" clip-rule="evenodd" d="M2 18C2 17.4477 2.44772 17 3 17H19.8C20.3523 17 20.8 17.4477 20.8 18C20.8 18.5523 20.3523 19 19.8 19H3C2.44772 19 2 18.5523 2 18Z" fill="#FFEE50"/>
</svg>
