<svg width="491" height="653" viewBox="0 0 491 653" fill="none" xmlns="http://www.w3.org/2000/svg">
<g clip-path="url(#clip0_987_43727)">
<path d="M328.448 452.671C309.584 444.705 290.051 438.432 270.078 433.926C250.232 429.495 228.733 428.667 210.152 419.903C194.684 412.6 180.967 398.528 183.399 380.172C183.964 375.716 185.837 371.529 188.781 368.14C191.725 364.751 195.608 362.313 199.937 361.134C210.395 357.823 221.291 360.16 231.846 361.67C236.71 362.303 240.067 354.707 234.667 353.441C218.713 349.692 199.84 348.572 186.463 359.771C181.3 364.387 177.6 370.416 175.82 377.113C174.039 383.81 174.256 390.882 176.443 397.457C187.242 432.319 230.435 434.899 260.058 440.791C281.97 445.112 303.468 451.319 324.314 459.342C328.156 460.851 332.631 454.473 328.448 452.671Z" fill="#751A32"/>
<path d="M218.081 357.287C226.496 347.013 245.418 337.811 258.308 334.743C271.33 331.692 284.992 332.974 297.221 338.395C308.836 344.353 319.427 352.128 328.595 361.426C329.671 362.266 330.51 363.374 331.027 364.639C331.167 365.781 331.037 366.94 330.648 368.022C330.26 369.104 329.623 370.08 328.789 370.872C321.771 379.55 312.663 386.298 302.321 390.483C291.98 394.667 280.745 396.15 269.674 394.791C258.603 393.433 248.058 389.277 239.033 382.717C230.008 376.156 222.798 367.405 218.081 357.287Z" fill="#EA2A6A"/>
<path d="M220.658 359.82C231.439 348.915 245.285 341.56 260.35 338.737C269.137 337.214 278.15 337.618 286.767 339.921C295.383 342.224 303.397 346.372 310.256 352.078C313.466 354.561 316.531 357.191 319.546 359.917C322.562 362.644 327.621 364.786 324.751 369.168C319.651 375.45 313.155 380.452 305.781 383.775C291.631 390.892 275.275 392.236 260.155 387.524C243.539 382.087 229.732 370.314 221.728 354.756C219.491 350.228 212.487 355.097 214.432 359.333C218.35 367.716 223.902 375.231 230.761 381.437C237.621 387.643 245.65 392.414 254.376 395.471C263.103 398.528 272.353 399.809 281.581 399.239C290.809 398.669 299.831 396.258 308.116 392.15C316.724 387.967 324.401 382.088 330.685 374.865C332.255 373.46 333.503 371.732 334.343 369.799C335.182 367.866 335.594 365.774 335.55 363.666C334.917 359.089 330.394 356.168 327.232 353.295C311.277 339.078 293.864 328.074 271.781 328.317C261.125 328.716 250.677 331.389 241.136 336.156C231.303 340.238 222.523 346.497 215.454 354.464C212.146 358.846 216.913 364.056 220.658 359.82Z" fill="#751A32"/>
<path d="M385.992 472.099C389.602 476.366 391.822 481.637 392.353 487.204C392.885 492.771 391.703 498.367 388.966 503.242C386.229 508.117 382.068 512.038 377.041 514.478C372.015 516.918 366.363 517.761 360.844 516.894C365.217 528.237 366.984 540.42 366.016 552.54C365.047 564.66 361.368 576.406 355.25 586.91C352.672 591.341 348.343 596.063 343.333 594.846C335.648 593.045 336.377 580.239 329.324 576.685C326.925 575.855 324.318 575.855 321.919 576.684C319.52 577.514 317.469 579.126 316.094 581.262C313.408 585.548 311.003 590.004 308.895 594.603C307.797 596.884 306.088 598.816 303.958 600.183C301.828 601.55 299.361 602.298 296.832 602.345C294.054 601.667 291.584 600.075 289.82 597.823C288.055 595.571 287.099 592.79 287.103 589.929C287.247 584.202 287.898 578.499 289.049 572.887C289.624 570.09 289.479 567.193 288.628 564.467C287.777 561.742 286.248 559.278 284.185 557.306C278.64 553.168 270.517 555.553 265.166 559.887C260.392 563.812 256.82 569.005 254.859 574.87C252.897 580.734 252.626 587.033 254.076 593.045C255.389 598.206 257.919 602.783 258.94 608.139C259.682 610.682 259.73 613.378 259.08 615.946C258.43 618.515 257.105 620.862 255.243 622.746C253.534 624 251.534 624.796 249.432 625.061C247.329 625.325 245.194 625.048 243.229 624.255C239.368 622.589 236.013 619.935 233.5 616.562C228.89 611.035 225.561 604.552 223.754 597.582C221.948 590.612 221.708 583.328 223.052 576.253C224.397 569.179 227.292 562.492 231.53 556.673C235.767 550.854 241.241 546.048 247.558 542.602C250.885 541.135 253.994 539.219 256.8 536.905C258.148 535.723 259.096 534.152 259.515 532.408C259.933 530.664 259.8 528.832 259.135 527.167C255.876 521.373 246.585 524.246 240.845 520.886C238.65 519.313 237.067 517.027 236.367 514.417C235.666 511.806 235.891 509.034 237.003 506.571C239.393 501.687 243.349 497.744 248.239 495.373C256.022 491.145 264.706 488.849 273.56 488.68C282.414 488.51 291.179 490.472 299.118 494.399C297.631 491.826 297.171 488.785 297.83 485.886C298.488 482.988 300.217 480.446 302.669 478.769C307.717 475.54 313.823 474.405 319.693 475.604C330.126 477.265 339.751 482.234 347.15 489.781C354.549 497.328 359.332 507.054 360.795 517.526C392.704 515.628 396.352 497.807 385.992 472.099Z" fill="#4E6E98"/>
<path d="M383.17 474.873C386.078 478.475 387.847 482.864 388.249 487.478C388.651 492.092 387.669 496.721 385.428 500.773C383.188 504.825 379.79 508.116 375.67 510.224C371.551 512.332 366.897 513.162 362.303 512.608C361.444 512.51 360.574 512.632 359.775 512.962C358.976 513.293 358.274 513.821 357.734 514.497C357.194 515.174 356.835 515.976 356.69 516.829C356.545 517.683 356.619 518.559 356.904 519.376C363.53 537.255 363.409 556.94 356.564 574.736C355.007 578.778 347.905 596.403 342.214 588.029C338.955 583.16 338.42 576.976 333.264 573.422C330.276 571.762 326.812 571.17 323.443 571.746C320.074 572.321 317.001 574.029 314.732 576.587C311.931 579.514 309.689 582.93 308.117 586.665C306.317 590.317 303.787 597.28 298.875 597.621C293.962 597.961 292.162 592.265 291.822 588.613C291.865 583.812 292.419 579.03 293.475 574.347C294.4 567.092 293.476 558.62 287.493 553.702C274.311 543.088 257.092 558.571 251.741 570.306C248.578 577.145 247.512 584.77 248.677 592.216C249.796 598.935 259.135 613.299 252.568 619.044C244.64 626.007 234.036 609.599 231.361 604.048C227.334 595.859 225.908 586.633 227.274 577.609C228.285 571.375 230.651 565.441 234.207 560.224C237.762 555.007 242.42 550.637 247.85 547.421C252.084 545.468 256.042 542.963 259.621 539.972C264.874 534.665 266.82 524.878 259.621 520.496C253.736 516.893 240.456 520.496 240.7 510.417C240.943 500.338 257.043 495.469 265.02 494.155C275.715 492.353 286.704 493.954 296.443 498.731C300.285 500.582 306.171 495.566 303.593 491.525C298.437 483.004 309.916 479.596 316.337 480.083C323.1 480.732 329.607 483.004 335.307 486.705C340.893 490.293 345.642 495.042 349.234 500.628C352.826 506.214 355.176 512.509 356.126 519.084C356.315 520.061 356.867 520.93 357.67 521.517C358.473 522.104 359.467 522.365 360.455 522.248C372.81 521.323 387.305 517.38 393.045 505.304C398.347 494.057 394.017 480.959 389.542 470.15C387.791 466.06 381.711 470.394 383.122 474.143C386.186 482.371 390.029 493.619 386.04 502.237C382.052 510.855 369.891 511.975 361.282 512.608L365.611 515.821C364.239 506.22 360.288 497.172 354.18 489.643C348.072 482.114 340.035 476.386 330.929 473.072C321.882 469.907 310.743 468.544 302.134 473.656C294.4 478.525 289.73 488.798 294.789 497.027L301.939 489.87C292.981 485.505 283.085 483.425 273.13 483.816C263.175 484.207 253.471 487.056 244.883 492.109C241.03 494.063 237.755 496.992 235.383 500.605C233.011 504.218 231.624 508.39 231.361 512.705C231.447 516.552 233.012 520.217 235.73 522.938C238.448 525.659 242.11 527.226 245.953 527.312C249.212 527.751 257.335 527.312 254.417 533.009C252.325 536.904 245.029 538.803 241.478 541.286C233.85 546.507 227.647 553.554 223.432 561.785C219.032 570.386 217.039 580.02 217.664 589.663C218.289 599.307 221.509 608.601 226.983 616.561C232.187 623.913 239.775 630.827 249.406 629.902C253.61 629.375 257.472 627.316 260.254 624.118C263.035 620.92 264.542 616.809 264.485 612.569C264.826 602.198 257.481 593.531 258.065 583.111C258.551 574.055 263.902 563.148 273.241 560.373C287.833 555.99 284.331 574.98 283.212 582.77C282.093 590.561 282.969 600.688 290.703 605.265C298.437 609.842 307.581 604.778 312.251 597.962C315.364 593.434 323.001 571.767 330.151 584.085C333.751 590.366 335.307 599.276 344.306 599.52C354.423 599.812 360.212 588.224 363.762 580.433C368.367 570.077 370.875 558.91 371.142 547.577C371.409 536.245 369.43 524.972 365.319 514.409L359.871 521.226C366.366 522.077 372.968 520.993 378.851 518.109C384.734 515.226 389.637 510.67 392.947 505.012C395.99 499.373 397.265 492.947 396.605 486.572C395.946 480.197 393.383 474.169 389.251 469.274C385.992 465.914 380.592 471.465 383.17 474.873Z" fill="#4E6E98"/>
<path d="M510.319 348.815C509.753 346.105 508.498 343.587 506.674 341.506C504.85 339.424 502.52 337.85 499.909 336.935C494.665 335.179 489.072 334.728 483.615 335.621C478.118 336.253 472.719 337.471 467.174 337.714C461.644 338.207 456.103 336.909 451.365 334.014C452.004 342.296 455.822 350.009 462.018 355.535C468.255 360.955 475.99 364.351 484.198 365.273C488.875 366.003 493.658 365.619 498.158 364.153C502.689 362.633 506.433 359.376 508.568 355.097L510.319 348.815Z" fill="#54418E"/>
<path d="M513.675 347.695C511.876 336.058 500.202 331.238 489.647 331.141C477.827 331.141 464.645 337.129 453.749 330.167C450.442 328.024 446.988 332.407 447.183 335.425C448.545 353.392 463.915 366.343 480.891 369.216C485.402 370.244 490.085 370.258 494.602 369.256C499.118 368.254 503.357 366.262 507.012 363.422C509.578 361.289 511.485 358.469 512.508 355.291C512.849 354.025 512.994 352.662 513.238 351.396C513.481 350.13 513.967 347.939 513.529 349.399C514.843 344.53 508.227 344.19 507.109 348.231C506.357 351.671 504.675 354.838 502.245 357.385C496.845 362.254 488.528 361.962 481.864 360.55C475.03 359.408 468.758 356.057 464.006 351.01C459.254 345.963 456.283 339.497 455.549 332.601L448.982 337.86C458.711 344.238 470.725 341.609 481.621 340.002C490.425 338.736 504.579 338.687 506.963 349.984C507.887 354.414 514.308 351.542 513.675 347.695Z" fill="#54418E"/>
<path d="M444.555 411.187C445.442 408.367 445.535 405.357 444.822 402.487C444.11 399.618 442.621 397.001 440.518 394.925C436.244 390.817 430.983 387.882 425.245 386.404C419.602 384.651 413.765 383.483 408.366 381.243C402.772 379.197 398.073 375.251 395.087 370.093C394.526 377.942 395.968 385.805 399.278 392.943C402.588 400.08 407.657 406.258 414.009 410.895C417.298 413.386 421.133 415.055 425.196 415.764C427.235 416.081 429.319 415.93 431.29 415.322C433.262 414.715 435.07 413.668 436.578 412.258L444.555 411.187Z" fill="#54418E"/>
<path d="M448.009 411.771C448.949 409.009 449.231 406.065 448.835 403.175C448.438 400.284 447.372 397.525 445.722 395.119C442.213 390.181 437.272 386.441 431.568 384.408C420.672 380.026 404.864 379.539 398.637 367.902C396.643 364.25 391.439 367.074 391.195 370.434C390.264 383.705 394.599 396.809 403.258 406.902C407.619 412.219 413.309 416.284 419.748 418.686C423.014 419.985 426.583 420.318 430.033 419.645C433.482 418.972 436.666 417.32 439.205 414.888L436.237 416.3L440.226 415.569L442.901 415.034C443.339 415.034 445.966 414.547 444.263 414.79C445.265 414.667 446.198 414.212 446.912 413.498C447.626 412.783 448.08 411.849 448.203 410.846C448.249 410.4 448.195 409.95 448.045 409.527C447.894 409.105 447.652 408.721 447.336 408.404C447.019 408.087 446.635 407.844 446.213 407.694C445.791 407.544 445.341 407.49 444.895 407.535C443.242 407.779 441.588 407.828 440.031 407.974C437.828 407.917 435.664 408.565 433.854 409.824C427.968 414.206 420.331 410.408 415.321 406.464C409.844 402.129 405.5 396.528 402.662 390.142C399.823 383.756 398.576 376.776 399.027 369.801L391.584 372.333C397.616 383.677 410.409 386.355 421.742 389.52C427.285 390.75 432.455 393.287 436.821 396.921C438.77 398.542 440.217 400.685 440.992 403.1C441.767 405.515 441.839 408.1 441.199 410.554C439.448 415.423 446.501 415.959 448.009 411.771Z" fill="#54418E"/>
<path d="M376.214 446.974C377.006 443.681 376.831 440.228 375.709 437.032C374.587 433.836 372.567 431.033 369.89 428.959C364.484 424.886 358.644 421.424 352.477 418.637C346.258 415.81 341.303 410.78 338.565 404.517C336.292 411.479 335.998 418.936 337.716 426.056C339.434 433.175 343.096 439.676 348.294 444.832C351.145 447.758 354.72 449.874 358.654 450.967C360.627 451.487 362.695 451.525 364.685 451.076C366.675 450.627 368.527 449.704 370.085 448.386L376.214 446.974Z" fill="#54418E"/>
<path d="M379.571 447.461C383.559 436.311 375.193 426.525 366.194 421.12C357.196 415.716 345.911 412.599 342.166 402.277C340.901 398.723 335.939 401.352 335.112 403.787C332.718 410.966 332.239 418.647 333.723 426.069C335.208 433.491 338.604 440.395 343.576 446.098C345.994 449.261 349.182 451.751 352.836 453.328C356.489 454.905 360.486 455.517 364.443 455.106C366.657 454.74 368.737 453.8 370.475 452.379L371.399 451.503C372.275 450.772 372.031 450.821 370.767 451.503H371.594C373.393 451.162 375.145 450.578 376.944 450.188C381.03 449.263 380.398 442.787 375.825 443.81C377.479 443.42 375.096 443.81 374.658 443.81L371.642 444.443C369.405 444.881 367.605 446.001 365.368 446.634C359.19 448.387 353.45 443.81 349.559 439.525C345.475 434.878 342.662 429.252 341.392 423.195C340.122 417.137 340.439 410.854 342.312 404.955L335.259 406.465C338.761 416.203 348.44 421.072 357.05 425.356C361.691 427.351 365.89 430.247 369.405 433.877C370.967 435.482 372.122 437.437 372.773 439.58C373.425 441.724 373.554 443.992 373.15 446.195C371.74 451.064 378.014 451.503 379.571 447.461Z" fill="#54418E"/>
<path d="M521.068 6.18335C572.92 70.2594 586.151 156.782 564.846 235.367C544.75 309.449 498.168 373.56 433.951 415.52C395.03 440.514 350.14 454.635 303.933 456.42C298.679 456.42 297.026 465.671 303.203 465.379C384.921 461.435 460.12 420.292 511.388 357.092C563.532 292.821 592.522 207.127 581.043 124.257C575.182 78.7731 556.18 35.9929 526.37 1.16843C523.695 -1.94773 518.636 3.21315 521.165 6.378L521.068 6.18335Z" fill="#EA2A6A"/>
<path d="M466.006 394.876C465.905 404.452 467.083 413.999 469.508 423.262C470.835 427.843 472.46 432.332 474.372 436.701C476.124 441.034 478.507 445.027 480.307 449.263C481.037 451.015 482.787 456.712 479.48 457.102C475.394 457.54 473.886 450.821 473.351 448.094C473.351 447.461 471.989 441.765 472.913 441.521C471.989 441.765 473.205 442.397 473.497 442.787C474.02 443.719 474.241 444.791 474.129 445.854C473.253 450.367 473.352 455.016 474.421 459.487L481.717 453.694C480.106 452.344 478.829 450.64 477.985 448.714C477.141 446.788 476.754 444.693 476.853 442.592C476.763 442.133 476.579 441.698 476.313 441.313C476.047 440.929 475.706 440.603 475.309 440.356C474.912 440.11 474.468 439.948 474.006 439.88C473.544 439.812 473.072 439.841 472.621 439.963C471.576 440.162 470.625 440.698 469.914 441.489C469.202 442.281 468.769 443.284 468.682 444.345C468.12 447.309 468.391 450.372 469.465 453.191C470.538 456.011 472.372 458.477 474.762 460.315C475.62 460.912 476.647 461.216 477.691 461.183C478.735 461.15 479.741 460.78 480.56 460.131C481.378 459.481 481.966 458.584 482.235 457.574C482.505 456.564 482.443 455.493 482.058 454.521C481.4 452.164 481.4 449.672 482.058 447.315C482.506 444.789 482.389 442.195 481.717 439.719C481.405 438.593 480.87 437.541 480.144 436.626C479.418 435.711 478.515 434.951 477.489 434.392C476.464 433.834 475.336 433.487 474.174 433.373C473.012 433.26 471.839 433.381 470.724 433.731C468.49 434.69 466.626 436.345 465.407 438.451C464.189 440.556 463.683 442.999 463.963 445.416C464.057 450.208 465.274 454.911 467.514 459.147C468.562 461.092 470.146 462.694 472.077 463.764C474.009 464.834 476.206 465.327 478.409 465.183C480.612 465.04 482.727 464.266 484.503 462.954C486.28 461.642 487.643 459.848 488.43 457.783C492.273 448.484 484.539 439.038 481.182 430.809C476.481 419.146 473.816 406.761 473.303 394.194C473.303 389.325 466.006 390.445 465.958 394.827L466.006 394.876Z" fill="#EA2A6A"/>
<path d="M268.862 459.244C291.306 461.562 313.864 462.602 336.425 462.36C350.58 462.36 365.124 462.36 378.257 467.473C391.39 472.585 403.064 484.222 403.988 498.342C403.74 505.467 402.959 512.563 401.653 519.571C401.021 526.68 402.675 534.811 408.609 538.706C418.337 545.182 434.633 536.71 442.318 545.669C443.885 547.75 444.795 550.252 444.934 552.854C445.072 555.456 444.433 558.04 443.096 560.276C440.341 564.693 436.096 567.975 431.13 569.527C426.207 571.304 420.929 571.873 415.741 571.184C410.552 570.495 405.605 568.568 401.315 565.567C397.025 562.566 393.518 558.578 391.088 553.937C388.658 549.297 387.377 544.14 387.353 538.901C387.353 528.53 392.217 518.792 395.281 508.957C398.346 499.121 399.854 487.387 393.774 479.012C388.131 460.948 305.878 462.068 268.862 459.244Z" fill="#3B9278"/>
<path d="M267.695 463.042C288 465.305 308.408 466.524 328.838 466.693C348.537 466.693 371.739 464.989 387.888 478.622C391.451 481.331 394.359 484.808 396.396 488.795C398.434 492.781 399.549 497.176 399.66 501.653C399.66 510.806 395.963 519.619 397.617 528.87C398.093 532.55 399.609 536.018 401.987 538.865C404.366 541.711 407.507 543.818 411.042 544.938C418.63 547.081 426.655 544.257 434.146 546.253C436.202 546.675 438.008 547.896 439.166 549.648C440.324 551.401 440.74 553.542 440.324 555.601C439.607 558.044 438.235 560.244 436.357 561.961C434.479 563.678 432.167 564.846 429.671 565.339C424.914 566.797 419.86 566.998 415.002 565.923C410.144 564.848 405.646 562.533 401.946 559.204C398.408 556.006 395.68 552.011 393.989 547.549C392.297 543.088 391.69 538.287 392.217 533.545C393.433 523.417 398.589 514.069 400.876 504.331C403.6 492.645 402.821 477.502 391.877 470.248C382.982 465.409 373.172 462.49 363.081 461.678C332.34 456.809 301.063 457.588 270.079 455.446C265.798 455.154 262.636 462.554 267.549 462.895C297.075 464.94 326.843 464.648 356.223 468.544C365.951 469.858 380.057 470.783 387.791 477.405C390.006 479.799 391.699 482.629 392.763 485.713C393.826 488.798 394.237 492.071 393.969 495.323C393.434 506.327 387.84 516.065 385.067 526.533C380.203 544.695 386.429 564.998 404.913 572.691C420.089 579.021 446.161 574.883 449.177 555.309C449.886 551.522 449.165 547.605 447.151 544.321C445.137 541.037 441.976 538.619 438.281 537.537C430.304 535.249 421.354 538.754 413.62 535.784C403.21 531.743 406.178 517.818 407.539 509.443C409.606 500.337 408.31 490.79 403.891 482.566C391.974 462.165 367.556 458.221 345.911 457.832C320.52 457.491 295.421 457.832 270.079 455.397C265.847 455.105 262.491 462.457 267.695 463.042Z" fill="#3B9278"/>
<path d="M145.022 237.656C147.745 221.588 160.587 216.135 170.364 220.274C173.596 221.731 176.158 224.357 177.538 227.625C178.918 230.894 179.014 234.563 177.806 237.899C181.893 235.535 186.711 234.773 191.328 235.759C195.944 236.746 200.031 239.412 202.797 243.241C205.563 247.07 206.812 251.79 206.302 256.488C205.791 261.186 203.559 265.527 200.035 268.671C202.589 269.847 204.878 271.527 206.767 273.61C208.657 275.693 210.106 278.137 211.028 280.795C211.892 283.477 212.033 286.34 211.435 289.093C210.837 291.847 209.522 294.393 207.623 296.473C205.642 298.471 203.06 299.763 200.275 300.15C197.489 300.537 194.653 299.998 192.204 298.616C193.611 300.886 194.524 303.428 194.883 306.075C195.241 308.723 195.038 311.416 194.286 313.98C193.534 316.543 192.249 318.918 190.517 320.951C188.785 322.984 186.644 324.628 184.234 325.776C181.824 326.923 179.198 327.549 176.53 327.612C173.862 327.675 171.211 327.173 168.749 326.14C166.288 325.107 164.072 323.565 162.246 321.616C160.421 319.667 159.026 317.355 158.154 314.829C158.056 318.299 156.955 321.665 154.986 324.521C153.017 327.378 150.263 329.602 147.058 330.926C143.853 332.249 140.333 332.615 136.925 331.979C133.516 331.344 130.365 329.733 127.851 327.343C125.339 324.966 123.55 321.926 122.689 318.575C121.829 315.224 121.932 311.697 122.987 308.402C119.455 310.156 115.388 310.498 111.613 309.359C107.839 308.22 104.639 305.685 102.663 302.27C100.688 298.855 100.085 294.815 100.978 290.971C101.871 287.127 104.192 283.767 107.47 281.574C104.174 279.297 101.777 275.939 100.693 272.081C99.6089 268.222 99.9062 264.105 101.534 260.443C103.161 256.78 106.016 253.802 109.605 252.024C113.194 250.246 117.291 249.779 121.187 250.705C118.931 247.613 117.978 243.758 118.533 239.97C119.088 236.182 121.106 232.763 124.154 230.45C130.38 225.97 140.741 231.375 145.022 237.656Z" fill="#3B9278"/>
<path d="M150.372 238.629C151.783 232.689 154.604 226.116 161.511 225.483C162.997 225.25 164.518 225.393 165.935 225.9C167.351 226.407 168.618 227.261 169.62 228.385C170.621 229.509 171.326 230.866 171.668 232.332C172.01 233.798 171.98 235.327 171.58 236.779C169.391 242.865 175.812 245.738 180.578 243.304C193.225 236.877 205.823 254.502 195.803 264.435C195.034 265.071 194.424 265.877 194.021 266.79C193.618 267.703 193.433 268.697 193.48 269.694C193.527 270.69 193.805 271.663 194.293 272.533C194.781 273.404 195.464 274.149 196.29 274.709C198.835 275.757 201.024 277.518 202.595 279.781C204.165 282.044 205.05 284.712 205.142 287.466C205.197 288.561 204.945 289.649 204.415 290.609C203.885 291.568 203.098 292.36 202.143 292.897C201.188 293.433 200.102 293.692 199.007 293.644C197.913 293.596 196.854 293.244 195.949 292.627C190.404 289.657 183.497 296.96 186.221 302.365C187.129 303.841 187.7 305.5 187.893 307.223C188.087 308.946 187.898 310.691 187.341 312.333C186.783 313.974 185.871 315.473 184.668 316.721C183.465 317.969 182.003 318.935 180.384 319.552C177.095 320.408 173.607 320.016 170.589 318.452C167.572 316.888 165.24 314.262 164.04 311.08C161.073 304.556 151.831 309.96 151.442 315.365C150.226 332.552 124.835 325.103 129.164 309.522C130.429 305.14 126.878 300.174 121.965 302.316C119.784 303.292 117.335 303.491 115.025 302.879C112.715 302.268 110.684 300.884 109.27 298.956C107.997 297.167 107.405 294.981 107.601 292.794C107.797 290.606 108.769 288.561 110.34 287.027C112.967 285.031 116.517 279.432 112.626 276.462C103.725 269.694 106.06 254.794 119.047 256.986C123.911 257.862 130.575 251.484 127.316 246.712C125.468 244.034 123.327 236.974 127.705 235.27C132.083 233.566 137.871 239.652 140.011 242.476C144.243 248.027 154.993 239.165 151.053 233.712C144.778 224.996 132.423 217.985 121.868 224.412C117.059 227.495 113.65 232.344 112.377 237.917C111.103 243.49 112.066 249.341 115.058 254.21L123.327 243.937C117.922 242.965 112.349 243.75 107.421 246.177C102.494 248.604 98.4717 252.545 95.9421 257.424C93.4772 262.278 92.7601 267.835 93.9121 273.157C95.064 278.479 98.0144 283.24 102.265 286.638L104.6 276.072C100.032 279.21 96.701 283.845 95.1824 289.179C93.6639 294.512 94.0531 300.209 96.2827 305.286C98.9603 309.956 103.262 313.476 108.367 315.173C113.472 316.871 119.023 316.627 123.96 314.488L116.907 307.331C115.759 310.591 115.34 314.063 115.679 317.502C116.019 320.942 117.109 324.265 118.871 327.237C120.634 330.209 123.027 332.757 125.881 334.702C128.736 336.647 131.982 337.941 135.39 338.493C138.918 338.896 142.492 338.579 145.894 337.56C149.296 336.542 152.457 334.844 155.184 332.568C157.912 330.292 160.151 327.487 161.765 324.321C163.379 321.155 164.335 317.694 164.575 314.148L151.977 318.481C153.346 321.511 155.308 324.235 157.747 326.493C160.186 328.751 163.052 330.497 166.176 331.627C169.301 332.758 172.62 333.249 175.937 333.074C179.255 332.898 182.503 332.059 185.491 330.605C188.711 329.113 191.6 326.992 193.988 324.366C196.377 321.74 198.217 318.663 199.4 315.315C200.583 311.967 201.085 308.416 200.876 304.87C200.668 301.325 199.754 297.858 198.187 294.672L188.458 304.41C191.112 305.671 194.002 306.354 196.938 306.415C199.875 306.475 202.791 305.912 205.494 304.761C208.196 303.611 210.625 301.9 212.618 299.741C214.612 297.582 216.126 295.025 217.06 292.237C218.927 286.512 218.608 280.297 216.164 274.793C213.721 269.289 209.326 264.888 203.829 262.439L204.315 272.712C208.871 268.402 211.763 262.622 212.484 256.389C213.204 250.155 211.707 243.867 208.255 238.629C204.422 233.761 198.971 230.43 192.893 229.242C186.815 228.054 180.512 229.087 175.13 232.154L184.08 238.727C185.173 235.667 185.499 232.387 185.03 229.172C184.561 225.957 183.312 222.906 181.391 220.287C179.471 217.668 176.938 215.56 174.015 214.149C171.092 212.737 167.867 212.065 164.624 212.191C150.469 212.629 141.665 224.948 139.622 237.85C138.211 245.105 149.059 244.423 150.372 238.629Z" fill="#3B9278"/>
<path d="M118.268 377.737C111.132 369.764 102.053 363.779 91.9164 360.366C81.7802 356.952 70.9332 356.227 60.4336 358.261C55.1924 359.095 50.2301 361.185 45.9697 364.353C41.7094 367.521 38.2771 371.672 35.965 376.454C33.653 381.236 32.5298 386.506 32.691 391.816C32.8522 397.126 34.2931 402.318 36.891 406.951C42.5941 417.921 51.3665 426.989 62.1359 433.049C65.6868 435.045 70.5024 429.348 67.438 426.329C59.1203 418.149 49.4892 411.722 44.5764 400.767C40.1501 390.688 40.9769 378.71 50.2674 371.553C59.5579 364.396 72.3994 364.347 83.2465 366.684C94.4437 369.203 104.678 374.9 112.723 383.093C115.788 386.16 121.187 380.707 118.268 377.493V377.737Z" fill="#685440"/>
<path d="M48.127 413.037C50.1454 415.224 52.7127 416.83 55.5615 417.686C58.4103 418.542 61.4365 418.618 64.3246 417.906C70.2103 416.932 75.7066 414.352 81.5436 413.037C88.4465 411.765 95.5678 412.459 102.095 415.042C108.623 417.624 114.294 421.991 118.463 427.644C128.191 441.472 128.191 461.143 139.184 474.046C129.481 478.042 119.343 480.886 108.977 482.518C98.5373 484.063 87.8753 482.363 78.4308 477.649C68.8981 472.242 61.6029 463.61 57.8552 453.304C54.1686 443.037 52.9196 432.051 54.2071 421.217L48.127 413.037Z" fill="#685440"/>
<path d="M45.1604 416.007C52.3593 425.356 64.617 422.824 74.3453 419.854C79.4428 417.914 84.9167 417.168 90.3467 417.674C95.7768 418.181 101.019 419.926 105.67 422.775C124.592 434.753 121.965 461.727 135.439 477.746L138.212 469.761C115.253 478.379 86.1653 485.342 68.703 462.798C61.369 452.551 57.6703 440.141 58.1963 427.547C58.7025 423.909 57.9286 420.208 56.0074 417.078L51.5324 410.797C48.7112 406.853 41.804 411.576 44.4307 415.228C47.0573 418.88 48.857 421.363 51.0945 424.382L50.4138 420.779C47.7975 431.692 48.4402 443.135 52.2622 453.686C56.0842 464.237 62.9171 473.433 71.9132 480.132C92.5858 494.203 118.512 486.656 140.011 478.623C140.809 478.389 141.54 477.968 142.142 477.394C142.744 476.82 143.2 476.109 143.471 475.323C143.743 474.536 143.822 473.696 143.702 472.872C143.583 472.048 143.268 471.265 142.784 470.589C135.78 462.165 133.639 451.113 130.234 440.888C127.43 430.873 121.477 422.029 113.258 415.666C104.933 409.734 94.7158 407.082 84.5599 408.217C74.8316 409.483 59.5582 419.61 51.1919 410.018C48.0302 406.464 42.3392 412.404 45.1604 416.007Z" fill="#685440"/>
<path d="M276.451 456.518C248.953 453.904 222.018 447.089 196.582 436.312C172.033 425.123 149.718 409.566 130.721 390.397C111.918 371.547 96.7626 349.377 86.0198 325.006C74.3458 298.519 64.5689 264.484 76.2915 236.439C81.9825 222.806 94.0453 210.487 109.465 209.367C116.087 208.747 122.735 210.253 128.446 213.667C134.157 217.081 138.633 222.226 141.228 228.356C143.173 233.518 151.296 228.356 149.399 223.487C146.936 217.719 143.051 212.671 138.109 208.813C133.167 204.956 127.328 202.416 121.139 201.431C114.588 200.352 107.879 200.759 101.506 202.621C95.1333 204.484 89.2592 207.754 84.3171 212.191C57.6616 234.686 59.1694 272.177 67.8276 302.901C76.218 331.175 90.0958 357.517 108.667 380.417C127.237 403.317 150.137 422.328 176.055 436.36C206.375 452.305 239.771 461.522 273.97 463.383C277.716 463.383 280.78 457.199 276.256 456.615L276.451 456.518Z" fill="#3B9278"/>
<path d="M149.35 252.701C151.004 242.963 158.738 239.653 164.673 242.136C166.63 243.015 168.184 244.602 169.023 246.579C169.862 248.556 169.924 250.778 169.196 252.799C171.672 251.42 174.568 250.997 177.334 251.612C180.1 252.226 182.545 253.835 184.206 256.134C185.867 258.432 186.627 261.26 186.344 264.083C186.061 266.905 184.754 269.525 182.67 271.447C184.209 272.165 185.588 273.186 186.725 274.449C187.861 275.713 188.732 277.192 189.285 278.799C189.795 280.416 189.875 282.137 189.517 283.794C189.159 285.451 188.375 286.985 187.242 288.245C186.044 289.457 184.481 290.242 182.794 290.48C181.107 290.717 179.389 290.394 177.903 289.56C178.881 291.414 179.351 293.495 179.266 295.59C179.18 297.685 178.542 299.72 177.417 301.489C176.259 303.238 174.645 304.637 172.75 305.533C170.855 306.429 168.751 306.789 166.666 306.573C164.581 306.357 162.595 305.575 160.923 304.309C159.251 303.044 157.957 301.344 157.182 299.395C157.104 301.48 156.43 303.499 155.24 305.212C154.05 306.925 152.394 308.261 150.469 309.06C148.544 309.86 146.43 310.09 144.378 309.723C142.326 309.356 140.422 308.408 138.893 306.991C137.389 305.536 136.323 303.687 135.816 301.656C135.308 299.625 135.38 297.492 136.023 295.5C133.875 296.641 131.369 296.904 129.031 296.233C126.694 295.562 124.708 294.009 123.491 291.902C122.275 289.794 121.923 287.297 122.509 284.935C123.095 282.572 124.574 280.53 126.635 279.238C124.648 277.853 123.206 275.818 122.556 273.484C121.906 271.15 122.089 268.661 123.074 266.448C124.059 264.234 125.784 262.434 127.952 261.355C130.12 260.277 132.595 259.989 134.953 260.54C133.617 258.665 133.058 256.345 133.393 254.067C133.729 251.789 134.933 249.729 136.752 248.319C140.449 245.544 146.772 248.806 149.35 252.701Z" fill="#CF9D76"/>
<path d="M153.388 253.334C154.166 250.17 155.528 246.518 159.273 246.177C163.019 245.836 165.743 248.612 164.526 251.923C162.873 256.499 167.688 258.642 171.239 256.792C172.736 256.203 174.387 256.129 175.93 256.583C177.474 257.036 178.823 257.991 179.764 259.296C180.706 260.602 181.187 262.184 181.132 263.793C181.077 265.402 180.488 266.947 179.459 268.185C178.895 268.669 178.45 269.276 178.157 269.959C177.864 270.643 177.731 271.384 177.768 272.127C177.806 272.87 178.013 273.594 178.373 274.244C178.734 274.894 179.239 275.453 179.849 275.878C181.231 276.449 182.423 277.403 183.284 278.627C184.146 279.852 184.641 281.296 184.713 282.792C184.713 285.226 182.816 286.103 180.675 284.983C176.492 282.743 171.336 288.197 173.331 292.286C173.854 293.047 174.197 293.918 174.331 294.832C174.466 295.745 174.389 296.678 174.108 297.557C173.826 298.437 173.346 299.24 172.705 299.904C172.065 300.569 171.28 301.078 170.412 301.391C168.596 301.832 166.681 301.576 165.043 300.675C163.405 299.774 162.162 298.293 161.559 296.522C159.322 291.653 152.415 295.695 152.123 299.736C151.491 308.744 138.26 304.264 140.449 296.279C141.373 292.968 138.746 289.268 135.05 290.875C133.895 291.394 132.596 291.499 131.373 291.17C130.15 290.842 129.078 290.101 128.337 289.073C127.316 287.612 126.927 284.545 128.337 283.327C129.748 282.11 133.202 277.582 130.04 275.391C125.565 271.934 125.808 264.095 132.91 265.653C136.412 266.335 141.519 261.514 139.087 257.96C138.236 256.923 137.818 255.598 137.92 254.26C137.977 253.861 138.074 253.469 138.212 253.091C138.552 252.02 139.087 252.361 138.601 252.458C140.984 251.922 143.951 255.039 145.167 256.645C148.329 260.833 156.403 254.162 153.436 250.072C149.35 244.327 141.373 239.993 134.612 244.181C131.45 246.178 129.199 249.339 128.344 252.982C127.488 256.625 128.098 260.459 130.04 263.657L136.217 255.964C132.731 255.362 129.145 255.881 125.973 257.447C122.8 259.013 120.206 261.545 118.561 264.679C116.975 267.771 116.496 271.314 117.204 274.716C117.912 278.119 119.764 281.175 122.452 283.376L124.154 275.44C121.159 277.469 118.969 280.485 117.965 283.963C116.96 287.441 117.206 291.162 118.658 294.478C120.381 297.48 123.15 299.741 126.434 300.828C129.719 301.915 133.289 301.752 136.461 300.369L131.499 294.623C130.748 296.703 130.465 298.922 130.669 301.124C130.872 303.325 131.558 305.455 132.677 307.361C133.797 309.267 135.321 310.902 137.144 312.151C138.966 313.4 141.041 314.232 143.221 314.587C145.503 314.849 147.815 314.647 150.017 313.994C152.219 313.341 154.267 312.25 156.038 310.787C157.809 309.323 159.267 307.516 160.325 305.475C161.382 303.434 162.017 301.201 162.192 298.908L152.755 302.122C153.624 304.05 154.869 305.785 156.417 307.225C157.965 308.665 159.785 309.78 161.77 310.506C163.754 311.232 165.864 311.553 167.975 311.451C170.085 311.349 172.155 310.826 174.06 309.912C176.149 308.955 178.026 307.591 179.582 305.9C181.139 304.209 182.343 302.225 183.127 300.064C183.91 297.902 184.255 295.606 184.144 293.31C184.032 291.013 183.465 288.762 182.475 286.687L175.276 294.039C177.026 294.852 178.927 295.286 180.855 295.313C182.784 295.341 184.696 294.96 186.468 294.198C188.24 293.435 189.831 292.307 191.138 290.887C192.445 289.467 193.438 287.787 194.052 285.957C195.222 282.296 195.012 278.332 193.461 274.816C191.911 271.299 189.127 268.472 185.637 266.87L186.026 274.612C188.944 271.846 190.799 268.143 191.27 264.149C191.741 260.154 190.798 256.12 188.604 252.75C186.143 249.625 182.637 247.495 178.731 246.752C174.825 246.009 170.782 246.704 167.348 248.709L174.06 253.578C174.779 251.587 174.994 249.449 174.685 247.355C174.377 245.261 173.554 243.277 172.291 241.579C171.029 239.881 169.366 238.522 167.45 237.626C165.535 236.729 163.428 236.321 161.316 236.439C157.126 236.853 153.216 238.737 150.279 241.758C147.341 244.778 145.566 248.74 145.265 252.945C144.292 258.252 152.318 257.57 153.388 253.334Z" fill="#CF9D76"/>
</g>
<defs>
<clipPath id="clip0_987_43727">
<rect width="491" height="653" fill="white"/>
</clipPath>
</defs>
</svg>
