<svg width="22" height="22" viewBox="0 0 22 22" fill="none" xmlns="http://www.w3.org/2000/svg">
<path fill-rule="evenodd" clip-rule="evenodd" d="M3.54289 18.4571C3.15237 18.0666 3.15237 17.4334 3.54289 17.0429L16.9072 3.67858C17.2977 3.28805 17.9309 3.28805 18.3214 3.67858C18.7119 4.0691 18.7119 4.70226 18.3214 5.09279L4.95711 18.4571C4.56658 18.8476 3.93342 18.8476 3.54289 18.4571Z" fill="#FFEE50"/>
<path fill-rule="evenodd" clip-rule="evenodd" d="M3.54289 3.54289C3.93342 3.15237 4.56658 3.15237 4.95711 3.54289L18.3214 16.9072C18.7119 17.2977 18.7119 17.9309 18.3214 18.3214C17.9309 18.7119 17.2977 18.7119 16.9072 18.3214L3.54289 4.95711C3.15237 4.56658 3.15237 3.93342 3.54289 3.54289Z" fill="#FFEE50"/>
</svg>
