<svg width="295" height="40" viewBox="0 0 295 40" fill="none" xmlns="http://www.w3.org/2000/svg">
<g clip-path="url(#clip0_900_140159)">
<path d="M86.0635 5.77148H104.114V33.1628H99.3453V9.4762H90.8323V33.1628H86.0635V5.77148Z" fill="white"/>
<path d="M110.563 39.2716C109.643 39.2716 108.986 39.1534 108.592 38.9169C108.198 38.7067 108.001 38.6016 108.001 38.6016V34.7786C108.526 35.3041 109.236 35.5669 110.129 35.5669C110.786 35.5669 111.311 35.4224 111.706 35.1333C112.1 34.8706 112.428 34.5028 112.691 34.0298L105.873 13.3386H110.799L115.174 28.2363L119.549 13.3386H124.081L117.893 32.0986C117.447 33.4386 116.934 34.6473 116.356 35.7245C115.778 36.8281 115.029 37.6951 114.11 38.3257C113.216 38.9563 112.034 39.2716 110.563 39.2716Z" fill="white"/>
<path d="M140.788 17.0433H135.27V33.1628H130.58V17.0433H125.063V13.3386H140.788V17.0433Z" fill="white"/>
<path d="M157.545 31.8227C156.862 32.2957 155.969 32.7029 154.865 33.0445C153.762 33.3861 152.461 33.5569 150.963 33.5569C147.968 33.5569 145.656 32.7161 144.027 31.0345C142.398 29.3267 141.583 26.7517 141.583 23.3098C141.583 21.3129 141.886 19.5394 142.49 17.9892C143.121 16.4127 144.053 15.1778 145.288 14.2845C146.549 13.3911 148.126 12.9444 150.018 12.9444C151.594 12.9444 152.96 13.2597 154.116 13.8903C155.273 14.5209 156.166 15.5325 156.796 16.9251C157.427 18.2913 157.742 20.1306 157.742 22.4427V24.9257H146.431C146.536 26.581 146.957 27.8159 147.692 28.6304C148.428 29.4449 149.65 29.8522 151.358 29.8522C152.514 29.8522 153.643 29.6682 154.747 29.3004C155.877 28.9325 156.81 28.499 157.545 27.9998V31.8227ZM149.939 16.6492C147.732 16.6492 146.562 18.2519 146.431 21.4574H152.973V21.0633C152.973 19.8284 152.75 18.7905 152.303 17.9498C151.883 17.0827 151.095 16.6492 149.939 16.6492Z" fill="white"/>
<path d="M160.884 33.1628V13.3386H165.575V29.458H170.698V13.3386H175.388V29.458H180.512V13.3386H185.202V33.1628H160.884Z" fill="white"/>
<path d="M204.308 31.8227C203.625 32.2957 202.732 32.7029 201.628 33.0445C200.525 33.3861 199.224 33.5569 197.727 33.5569C194.731 33.5569 192.419 32.7161 190.79 31.0345C189.161 29.3267 188.347 26.7517 188.347 23.3098C188.347 21.3129 188.649 19.5394 189.253 17.9892C189.884 16.4127 190.816 15.1778 192.051 14.2845C193.312 13.3911 194.889 12.9444 196.781 12.9444C198.357 12.9444 199.723 13.2597 200.88 13.8903C202.036 14.5209 202.929 15.5325 203.56 16.9251C204.19 18.2913 204.505 20.1306 204.505 22.4427V24.9257H193.194C193.299 26.581 193.72 27.8159 194.455 28.6304C195.191 29.4449 196.413 29.8522 198.121 29.8522C199.277 29.8522 200.407 29.6682 201.51 29.3004C202.64 28.9325 203.573 28.499 204.308 27.9998V31.8227ZM196.702 16.6492C194.495 16.6492 193.326 18.2519 193.194 21.4574H199.737V21.0633C199.737 19.8284 199.513 18.7905 199.067 17.9498C198.646 17.0827 197.858 16.6492 196.702 16.6492Z" fill="white"/>
<path d="M216.161 33.5569C213.034 33.5569 210.695 32.6767 209.145 30.9163C207.621 29.1296 206.859 26.581 206.859 23.2704C206.859 21.2472 207.201 19.4605 207.884 17.9103C208.567 16.3601 209.579 15.1515 210.919 14.2845C212.285 13.3911 213.967 12.9444 215.964 12.9444C217.12 12.9444 218.118 13.0364 218.959 13.2203C219.826 13.378 220.509 13.6013 221.008 13.8903V17.8709C220.535 17.5819 219.892 17.306 219.077 17.0433C218.263 16.7805 217.396 16.6492 216.476 16.6492C214.952 16.6492 213.77 17.2009 212.929 18.3045C212.114 19.3817 211.707 20.9976 211.707 23.1521C211.707 25.2015 212.075 26.8306 212.811 28.0392C213.546 29.2478 214.755 29.8522 216.436 29.8522C217.435 29.8522 218.302 29.7339 219.038 29.4974C219.773 29.261 220.43 28.9325 221.008 28.5121V32.3351C219.878 33.1496 218.263 33.5569 216.161 33.5569Z" fill="white"/>
<path d="M238.51 17.0433H232.992V33.1628H228.302V17.0433H222.784V13.3386H238.51V17.0433Z" fill="white"/>
<path d="M249.484 33.1628H241.286V13.3386H249.563C253.951 13.3386 256.145 15.0201 256.145 18.3833C256.145 19.5656 255.829 20.5247 255.199 21.2604C254.568 21.996 253.727 22.5215 252.676 22.8368C253.99 23.0733 255.015 23.5725 255.75 24.3345C256.512 25.0702 256.893 26.0949 256.893 27.4086C256.893 29.3004 256.237 30.7324 254.923 31.7045C253.635 32.6767 251.822 33.1628 249.484 33.1628ZM249.011 16.8068H245.858V21.2998H248.853C249.747 21.2998 250.43 21.1027 250.903 20.7086C251.402 20.3145 251.652 19.7758 251.652 19.0927C251.652 17.5688 250.771 16.8068 249.011 16.8068ZM249.09 24.7286H245.858V29.6945H249.09C250.036 29.6945 250.785 29.4974 251.336 29.1033C251.888 28.6829 252.164 28.0129 252.164 27.0933C252.164 25.5168 251.139 24.7286 249.09 24.7286Z" fill="white"/>
<path d="M260.03 13.3386H264.562V25.5957L271.735 13.3386H275.913V33.1628H271.381V20.9057L264.208 33.1628H260.03V13.3386Z" fill="white"/>
<path d="M278.472 33.1628L282.926 25.6745C281.664 25.2541 280.692 24.571 280.009 23.6251C279.326 22.6529 278.984 21.418 278.984 19.9204C278.984 17.7921 279.72 16.1631 281.191 15.0333C282.663 13.9035 284.541 13.3386 286.827 13.3386H294V33.1628H289.31V26.6992H287.064L283.28 33.1628H278.472ZM287.182 17.0433C286.157 17.0433 285.33 17.2798 284.699 17.7527C284.069 18.2256 283.753 19.0007 283.753 20.078C283.753 21.2078 284.042 22.0223 284.62 22.5215C285.198 23.0208 286.013 23.2704 287.064 23.2704H289.31V17.0433H287.182Z" fill="white"/>
<mask id="mask0_900_140159" style="mask-type:alpha" maskUnits="userSpaceOnUse" x="1" y="1" width="37" height="38">
<circle cx="19.1901" cy="19.8229" r="18.1901" fill="#D9D9D9"/>
</mask>
<g mask="url(#mask0_900_140159)">
<rect x="1" y="1.63281" width="36.3802" height="36.3802" fill="#FC3F1D"/>
<path d="M21.7539 30.7539H25.5542V8.92578H20.0265C14.4673 8.92578 11.5465 11.7839 11.5465 15.9924C11.5465 19.353 13.1482 21.3317 16.0063 23.3732L11.0439 30.7539H15.1583L20.686 22.4938L18.7702 21.2061C16.446 19.6357 15.3153 18.4108 15.3153 15.7726C15.3153 13.4484 16.9485 11.8781 20.0579 11.8781H21.7539V30.7539Z" fill="white"/>
</g>
<mask id="mask1_900_140159" style="mask-type:alpha" maskUnits="userSpaceOnUse" x="39" y="1" width="38" height="38">
<circle cx="58.0104" cy="19.8229" r="18.1901" fill="#D9D9D9"/>
</mask>
<g mask="url(#mask1_900_140159)">
<rect x="39.8203" y="1.63281" width="36.3802" height="36.3802" fill="url(#paint0_linear_900_140159)"/>
<path d="M53.6496 16.5117L53.65 16.5117C56.2534 16.5131 58.8568 16.5127 61.4601 16.5122C62.7437 16.512 64.0273 16.5118 65.3109 16.5118C68.5325 16.5096 70.8475 18.6647 70.838 21.9369C70.8335 23.4877 70.6775 25.9016 70.4392 28.5082C70.161 31.5506 69.7587 35.0319 69.293 38.0132H66.367C66.841 35.0704 67.2666 31.4653 67.561 28.2451C67.5788 28.0504 67.5962 27.8608 67.6132 27.6758C67.8202 25.4242 67.9648 23.8516 67.9476 22.1103C67.929 20.226 67.0858 19.402 65.291 19.402H53.8095C51.1898 19.402 49.4824 19.5991 48.3607 22.2133C47.74 23.6597 46.7931 26.6474 46.1102 30.2381C45.6425 32.6971 45.3089 35.387 45.277 38.0132H42.3867C42.4187 35.1488 42.7819 32.2695 43.2709 29.6982C43.9821 25.9584 44.9813 22.7595 45.7047 21.0736C47.257 17.456 49.9577 16.5097 53.6496 16.5117Z" fill="#FF6D3A"/>
<path d="M61.4981 38.0132H58.6056C58.8459 32.1112 60.0073 26.0648 61.2798 22.5047C61.5484 21.7531 62.3754 21.3617 63.127 21.6303C63.8785 21.8989 64.27 22.7259 64.0014 23.4775C62.8419 26.7213 61.7375 32.4259 61.4981 38.0132Z" fill="#FF6D3A"/>
<path fill-rule="evenodd" clip-rule="evenodd" d="M62.2072 10.8305C61.7814 10.9746 61.6594 11.1351 61.5858 11.3099C61.2563 12.0919 60.9843 13.0167 60.495 14.8044C60.2843 15.5742 59.4895 16.0274 58.7197 15.8167C57.9499 15.606 57.4967 14.8112 57.7074 14.0414C58.1872 12.2884 58.5061 11.1758 58.9223 10.1878C59.3846 9.09038 60.2529 8.44079 61.2804 8.09291C62.2401 7.76802 63.3943 7.68359 64.6228 7.68359C65.9154 7.68359 67.1237 7.86561 68.0591 8.3834C69.0979 8.95841 69.8379 9.74483 69.7326 11.184C69.6274 12.6231 69.3734 13.6281 69.1384 14.8156C68.9834 15.5985 68.2231 16.1076 67.4402 15.9526C66.6573 15.7976 66.1482 15.0373 66.3032 14.2544C66.4723 13.4004 66.6276 12.6525 66.8203 11.6481C66.8862 11.3048 66.9359 11.0651 66.6594 10.912C66.3509 10.7412 65.7183 10.5738 64.6228 10.5738C63.4631 10.5738 62.7009 10.6633 62.2072 10.8305Z" fill="url(#paint1_linear_900_140159)"/>
</g>
</g>
<defs>
<linearGradient id="paint0_linear_900_140159" x1="76.0547" y1="1.47419" x2="40.2487" y2="38.0261" gradientUnits="userSpaceOnUse">
<stop stop-color="#FFEB75"/>
<stop offset="0.920669" stop-color="#FEE14A"/>
</linearGradient>
<linearGradient id="paint1_linear_900_140159" x1="63.6992" y1="17.9239" x2="69.7426" y2="7.68359" gradientUnits="userSpaceOnUse">
<stop stop-color="#BB0C40"/>
<stop offset="0.76762" stop-color="#C70E4B"/>
</linearGradient>
<clipPath id="clip0_900_140159">
<rect width="295" height="39" fill="white" transform="translate(0 0.5)"/>
</clipPath>
</defs>
</svg>
