<svg width="281" height="696" viewBox="0 0 281 696" fill="none" xmlns="http://www.w3.org/2000/svg">
<g clip-path="url(#clip0_984_35665)">
<g clip-path="url(#clip1_984_35665)">
<path d="M-178.719 159.125C-139.513 47.2618 -67.2156 29.8369 -18.8177 39.3487C23.8651 47.7414 53.6792 84.1097 69.7053 131.069C73.7018 142.779 75.8999 155.767 84.3326 164.88C92.7253 173.992 105.674 178.268 118.063 178.268C179.01 178.268 206.306 182.145 218.576 204.445C230.126 225.427 226.929 256.68 216.418 278.221C211.782 287.733 205.227 296.125 199.952 305.277C194.677 314.389 187.123 330.535 191.879 341.286C196.995 352.876 217.217 360.31 227.328 366.544C241.636 375.376 256.623 384.888 264.496 399.755C274.367 418.379 270.491 442.318 258.221 459.423C245.952 476.568 226.569 487.519 206.346 493.434C186.124 499.349 149.196 494.753 130.852 484.721C140.803 508.341 155.631 556.739 144.24 590.709C131.651 628.277 95.363 644.862 62.5116 646.661C42.5689 647.74 21.8669 642.344 6.68008 629.356C-2.95154 621.123 -10.3451 610.612 -15.8603 599.342C-36.6023 556.979 -51.6692 521.569 -82.8021 522.449C-103.904 523.048 -125.605 538.275 -137.954 558.657C-148.905 576.721 -154.979 589.95 -167.928 611.931C-178.679 630.115 -194.505 646.061 -214.168 653.774C-237.468 662.886 -271.278 659.09 -291.101 643.903C-310.924 628.716 -320.076 608.254 -320.196 578.32C-320.316 553.302 -318.078 528.084 -307.727 505.343C-354.006 500.747 -391.054 485.401 -419.749 455.667C-443.928 430.608 -444.568 404.351 -439.252 382.69C-433.937 361.029 -415.033 346.961 -396.729 338.608C-378.425 330.256 -362.279 328.058 -343.056 322.063C-333.784 319.185 -323.593 314.749 -320.395 305.597C-316.239 293.688 -326.15 281.938 -334.863 272.786C-352.088 254.641 -367.874 233.939 -373.709 209.601C-379.544 185.262 -373.309 156.727 -353.207 141.82C-337.66 130.31 -317.038 128.671 -297.735 129.35C-258.25 130.709 -214.767 142.739 -178.799 159.085L-178.719 159.125Z" fill="black"/>
<path d="M-61.5004 226.226C-87.0782 230.742 -113.056 236.337 -135.196 249.925C-164.691 268.029 -185.033 300.241 -188.71 334.651C-192.387 369.061 -179.358 404.87 -154.38 428.809C-145.467 437.362 -135.036 444.476 -123.367 448.392C-109.499 453.028 -94.4718 452.948 -79.8844 451.949C-49.1911 449.871 -18.1381 443.756 8.6386 428.57C35.4153 413.343 57.5161 388.045 63.5908 357.871C66.9478 341.206 65.3493 323.701 60.0739 307.515C52.7203 284.975 38.1729 264.872 19.0695 250.804C0.00611877 236.736 -23.5334 228.823 -47.2328 228.464L-61.5404 226.226H-61.5004Z" fill="black"/>
<path d="M-247.779 670C-248.018 670 -248.218 670 -248.458 670C-249.697 669.92 -250.896 669.84 -252.135 669.721C-258.449 669.121 -263.085 663.526 -262.486 657.211C-262.486 657.012 -262.446 656.812 -262.406 656.652C-262.486 656.852 -262.526 657.092 -262.606 657.291C-264.764 663.246 -271.358 666.323 -277.313 664.165C-278.512 663.726 -279.671 663.286 -280.83 662.807C-286.705 660.369 -289.462 653.654 -287.064 647.82C-286.984 647.58 -286.865 647.34 -286.745 647.1C-286.905 647.3 -287.064 647.5 -287.224 647.66C-291.461 652.416 -298.694 652.815 -303.45 648.579C-304.409 647.74 -305.329 646.86 -306.248 645.981C-310.804 641.545 -310.884 634.271 -306.448 629.755C-306.288 629.595 -306.128 629.436 -305.928 629.276C-306.168 629.396 -306.368 629.515 -306.607 629.635C-312.282 632.473 -319.196 630.155 -321.994 624.44C-322.554 623.321 -323.113 622.162 -323.593 620.963C-326.15 615.168 -323.513 608.374 -317.718 605.816C-317.478 605.736 -317.278 605.616 -317.038 605.536C-317.198 605.536 -317.398 605.576 -317.558 605.616C-323.832 606.495 -329.627 602.059 -330.467 595.785C-330.627 594.586 -330.786 593.387 -330.906 592.188C-331.586 585.873 -326.99 580.238 -320.675 579.559C-320.515 579.559 -320.355 579.559 -320.196 579.519C-320.236 579.519 -320.276 579.519 -320.355 579.519C-326.71 579.359 -331.706 574.084 -331.546 567.729L-331.426 564.332C-331.186 557.978 -325.991 553.102 -319.556 553.262H-319.316C-319.316 553.262 -319.516 553.262 -319.636 553.262C-325.911 552.343 -330.267 546.508 -329.348 540.233C-329.188 539.074 -328.988 537.955 -328.828 536.836C-327.829 530.562 -321.954 526.285 -315.68 527.324C-315.56 527.324 -315.44 527.364 -315.32 527.404C-315.44 527.364 -315.6 527.324 -315.72 527.284C-320.995 525.486 -324.112 520.29 -323.433 514.975H-323.753C-324.872 514.735 -325.991 514.575 -327.11 514.376C-333.384 513.337 -337.58 507.422 -336.541 501.147C-338.3 507.262 -344.654 510.779 -350.729 509.06C-351.848 508.741 -352.967 508.421 -354.086 508.101C-360.161 506.263 -363.598 499.868 -361.759 493.794C-361.759 493.714 -361.72 493.594 -361.68 493.514C-361.72 493.634 -361.759 493.714 -361.799 493.833C-364.397 499.628 -371.231 502.186 -376.986 499.589C-378.065 499.109 -379.104 498.589 -380.183 498.11C-385.898 495.392 -388.336 488.518 -385.619 482.803C-385.579 482.723 -385.539 482.643 -385.499 482.523C-385.579 482.603 -385.619 482.723 -385.699 482.803C-389.256 488.039 -396.409 489.437 -401.645 485.88C-402.604 485.241 -403.563 484.562 -404.482 483.922C-409.678 480.285 -410.917 473.092 -407.28 467.936C-407.2 467.816 -407.12 467.736 -407.04 467.616C-407.12 467.696 -407.2 467.776 -407.28 467.856C-411.676 472.452 -418.95 472.572 -423.506 468.176C-424.345 467.376 -425.184 466.537 -426.024 465.698C-430.5 461.182 -430.5 453.948 -426.024 449.472C-425.904 449.352 -425.824 449.272 -425.704 449.192C-425.904 449.312 -426.064 449.432 -426.263 449.552C-431.739 452.789 -438.773 450.991 -442.01 445.516C-442.649 444.396 -443.289 443.317 -443.888 442.198C-446.885 436.603 -444.767 429.649 -439.172 426.652C-438.972 426.532 -438.733 426.412 -438.493 426.332C-438.733 426.372 -439.012 426.452 -439.252 426.492C-445.527 427.531 -451.402 423.215 -452.401 416.94C-452.6 415.661 -452.76 414.383 -452.92 413.104C-453.6 406.789 -449.044 401.154 -442.729 400.475C-442.489 400.475 -442.249 400.435 -442.01 400.435C-442.21 400.435 -442.409 400.395 -442.609 400.355C-448.844 399.236 -453 393.241 -451.881 387.006C-451.681 385.807 -451.441 384.608 -451.162 383.41C-449.843 377.215 -443.688 373.258 -437.534 374.577C-437.294 374.617 -437.014 374.697 -436.774 374.777C-437.054 374.617 -437.334 374.417 -437.614 374.217C-442.769 370.541 -444.008 363.387 -440.331 358.191C-439.572 357.112 -438.773 356.073 -437.973 355.074C-434.017 350.118 -426.783 349.279 -421.827 353.236C-421.587 353.436 -421.348 353.635 -421.148 353.835C-421.268 353.675 -421.388 353.516 -421.508 353.316C-424.984 348 -423.506 340.887 -418.23 337.41C-417.191 336.73 -416.152 336.091 -415.113 335.451C-409.718 332.134 -402.644 333.853 -399.327 339.288C-399.247 339.448 -399.127 339.608 -399.047 339.728C-399.087 339.608 -399.167 339.488 -399.207 339.368C-401.445 333.453 -398.448 326.819 -392.533 324.541C-391.414 324.101 -390.295 323.701 -389.176 323.302C-383.181 321.184 -376.627 324.381 -374.548 330.336V330.496C-376.027 324.381 -372.35 318.186 -366.236 316.588L-363.038 315.748C-357.163 314.27 -351.129 317.587 -349.29 323.302C-350.729 317.707 -347.732 311.792 -342.216 309.714C-341.377 309.394 -340.538 309.074 -339.739 308.714C-336.422 307.276 -332.745 307.516 -329.787 309.074C-331.106 306.716 -331.626 303.919 -331.066 301.081C-330.986 300.721 -330.946 300.362 -330.946 299.962C-330.906 296.205 -329.028 292.888 -326.23 290.85C-330.307 291.809 -334.823 290.45 -337.66 286.973C-338.3 286.214 -338.939 285.455 -339.579 284.735C-343.775 279.979 -343.256 272.706 -338.5 268.509C-333.744 264.353 -326.47 264.833 -322.274 269.588C-321.475 270.508 -320.715 271.427 -319.916 272.346C-315.879 277.222 -316.559 284.496 -321.475 288.532C-321.634 288.692 -321.834 288.812 -322.034 288.972C-321.155 288.772 -320.276 288.652 -319.276 288.692C-312.922 288.772 -307.886 294.007 -307.966 300.362C-307.966 302.2 -308.206 303.999 -308.566 305.757C-309.845 311.952 -315.919 315.988 -322.114 314.669C-323.193 314.43 -324.232 314.07 -325.151 313.59C-324.951 313.95 -324.792 314.27 -324.632 314.669C-322.074 320.464 -324.752 327.258 -330.547 329.776C-331.746 330.296 -332.945 330.775 -334.143 331.255C-340.098 333.493 -346.693 330.496 -348.931 324.541C-349.011 324.381 -349.051 324.221 -349.09 324.061C-347.532 330.216 -351.209 336.49 -357.363 338.049L-360.521 338.848C-366.435 340.367 -372.39 337.05 -374.269 331.375C-372.87 337.05 -375.987 343.005 -381.622 344.963C-382.541 345.283 -383.501 345.642 -384.42 346.002C-389.855 348.04 -395.85 345.762 -398.567 340.807C-396.409 345.962 -398.288 352.037 -403.203 355.034C-404.043 355.554 -404.842 356.073 -405.641 356.593C-410.157 359.55 -415.992 358.911 -419.789 355.394C-416.792 359.47 -416.752 365.185 -420.069 369.342C-420.628 370.021 -421.148 370.741 -421.667 371.46C-424.545 375.536 -429.62 377.175 -434.176 375.856C-430.02 378.294 -427.702 383.21 -428.741 388.165C-428.941 389.125 -429.141 390.044 -429.301 391.043C-430.26 396.438 -434.856 400.235 -440.091 400.475C-434.936 401.114 -430.7 405.271 -430.14 410.666C-430.06 411.545 -429.94 412.424 -429.78 413.343C-428.941 418.579 -431.779 423.535 -436.335 425.613C-431.419 424.494 -426.143 426.732 -423.666 431.408C-423.226 432.207 -422.786 433.006 -422.307 433.806C-419.509 438.562 -420.468 444.476 -424.385 448.073C-419.909 445.036 -413.794 445.516 -409.838 449.512C-409.118 450.231 -408.399 450.951 -407.68 451.63C-403.443 455.707 -403.004 462.221 -406.441 466.777C-402.604 462.581 -396.13 461.741 -391.334 465.138C-390.494 465.738 -389.655 466.297 -388.816 466.897C-383.98 470.174 -382.422 476.529 -385.019 481.604C-381.942 476.768 -375.667 474.89 -370.392 477.408C-369.473 477.847 -368.554 478.287 -367.634 478.687C-362.239 481.125 -359.641 487.239 -361.44 492.754C-359.202 487.399 -353.207 484.482 -347.532 486.2C-346.573 486.48 -345.574 486.8 -344.574 487.079C-338.819 488.718 -335.342 494.433 -336.422 500.228C-334.943 494.553 -329.348 490.876 -323.433 491.835C-322.394 491.995 -321.355 492.195 -320.316 492.355C-315.24 493.154 -311.483 497.151 -310.724 501.946C-309.525 501.946 -308.286 502.186 -307.087 502.626C-301.132 504.824 -298.055 511.418 -300.253 517.373C-300.613 518.292 -300.932 519.251 -301.252 520.211C-303.13 525.726 -308.726 528.923 -314.281 527.804C-308.845 529.403 -305.289 534.878 -306.208 540.633C-306.368 541.672 -306.527 542.671 -306.687 543.71C-307.567 549.625 -312.842 553.861 -318.677 553.542C-312.802 554.221 -308.366 559.337 -308.566 565.371L-308.646 568.568C-308.806 574.563 -313.521 579.359 -319.396 579.719C-313.641 579.799 -308.766 584.155 -308.166 589.99C-308.046 590.989 -307.926 591.948 -307.806 592.907C-307.087 598.343 -310.284 603.418 -315.24 605.217C-310.124 604.297 -304.889 606.935 -302.691 611.891C-302.331 612.73 -301.931 613.569 -301.532 614.369C-299.214 619.085 -300.373 624.6 -304.09 627.957C-299.733 625.399 -294.058 625.959 -290.302 629.675C-289.662 630.315 -288.983 630.954 -288.263 631.554C-284.307 635.071 -283.348 640.706 -285.586 645.222C-282.468 641.265 -276.993 639.667 -272.157 641.705C-271.318 642.065 -270.439 642.384 -269.56 642.704C-264.364 644.582 -261.367 649.858 -262.126 655.133C-260.567 650.018 -255.572 646.501 -250.057 647.02C-249.097 647.1 -248.138 647.18 -247.179 647.22C-241.624 647.54 -237.228 651.736 -236.468 657.052C-236.428 651.736 -232.712 647.02 -227.276 645.901C-226.397 645.701 -225.478 645.502 -224.639 645.302C-219.483 643.983 -214.248 646.381 -211.77 650.817C-213.369 645.941 -211.57 640.426 -207.054 637.509C-206.255 636.989 -205.455 636.469 -204.656 635.91C-200.06 632.753 -193.985 633.352 -190.109 637.109C-193.426 632.833 -193.346 626.638 -189.589 622.442C-188.95 621.722 -188.31 621.003 -187.711 620.244C-184.034 615.847 -177.72 614.888 -172.964 617.766C-177.48 614.289 -178.839 607.934 -175.881 602.899L-174.243 600.101C-171.165 594.746 -164.451 592.827 -159.056 595.625C-164.331 592.468 -166.21 585.714 -163.252 580.278L-161.693 577.401C-158.736 571.926 -151.942 569.847 -146.427 572.645C-151.742 569.368 -153.501 562.414 -150.303 557.018L-148.585 554.141C-145.308 548.706 -138.274 546.947 -132.839 550.185C-132.679 550.264 -132.519 550.384 -132.359 550.504C-132.519 550.344 -132.679 550.224 -132.799 550.065C-137.195 545.509 -137.075 538.235 -132.519 533.839C-131.6 532.959 -130.68 532.12 -129.721 531.281C-124.965 527.085 -117.732 527.524 -113.495 532.24C-113.336 532.4 -113.216 532.56 -113.056 532.76C-113.176 532.52 -113.296 532.28 -113.415 532.04C-115.973 526.245 -113.336 519.451 -107.541 516.893C-106.342 516.374 -105.143 515.894 -103.944 515.415C-97.9889 513.177 -91.3946 516.174 -89.1566 522.089C-89.0367 522.369 -88.9567 522.648 -88.8768 522.968C-88.8768 522.489 -88.8768 522.049 -88.7969 521.569C-88.0375 515.255 -82.3625 510.819 -76.0479 511.498C-74.6092 511.658 -73.1704 511.898 -71.7717 512.218C-65.5771 513.536 -61.6205 519.611 -62.9394 525.846C-63.0592 526.325 -63.1791 526.805 -63.339 527.284C-63.1392 527.045 -62.9393 526.805 -62.6995 526.565C-58.3033 522.009 -51.0297 521.849 -46.4737 526.245C-45.5544 527.125 -44.6752 528.044 -43.756 529.003C-39.3998 533.639 -39.6396 540.913 -44.2756 545.229C-44.4355 545.389 -44.5953 545.549 -44.7951 545.668L-44.5553 545.509C-39.1201 542.231 -32.0462 543.99 -28.809 549.465C-28.2095 550.464 -27.65 551.423 -27.0505 552.462C-23.8933 557.938 -25.7317 564.972 -31.2469 568.169C-36.7221 571.326 -43.756 569.488 -46.9532 563.972C-47.4728 563.053 -47.9923 562.174 -48.5119 561.295C-51.4693 556.379 -50.3103 550.144 -46.034 546.588C-50.5901 549.465 -56.7048 548.786 -60.5414 544.749C-61.1809 544.07 -61.8203 543.43 -62.4597 542.831C-65.8168 539.594 -66.776 534.838 -65.3372 530.761C-67.975 533.999 -72.2912 535.677 -76.6075 534.758C-77.3268 534.598 -78.0462 534.478 -78.8055 534.398C-83.5215 533.839 -87.2382 530.482 -88.5171 526.205C-88.5171 530.881 -91.3147 535.277 -95.9507 536.996C-96.7899 537.316 -97.5892 537.635 -98.4285 537.995C-103.304 540.153 -108.899 538.595 -112.057 534.598C-109.659 539.154 -110.578 544.949 -114.614 548.506C-115.294 549.105 -115.973 549.745 -116.653 550.384C-120.609 554.221 -126.604 554.621 -131 551.703C-127.124 555.3 -126.124 561.295 -128.962 566.011L-130.601 568.768C-133.718 574.004 -140.312 575.882 -145.667 573.164C-140.512 576.322 -138.673 583.036 -141.591 588.431L-143.15 591.309C-146.147 596.824 -152.981 598.862 -158.496 596.025C-153.141 599.222 -151.302 606.176 -154.42 611.611L-156.098 614.489C-159.296 619.964 -166.289 621.842 -171.805 618.645C-171.885 618.645 -171.925 618.565 -172.005 618.525C-171.885 618.645 -171.765 618.725 -171.605 618.845C-166.729 622.921 -166.09 630.155 -170.166 635.031C-170.965 635.95 -171.765 636.909 -172.564 637.788C-176.8 642.504 -184.074 642.904 -188.79 638.708C-188.91 638.588 -189.03 638.468 -189.15 638.348C-189.03 638.508 -188.91 638.708 -188.79 638.867C-185.193 644.103 -186.512 651.257 -191.707 654.853C-192.707 655.573 -193.746 656.212 -194.785 656.892C-200.14 660.289 -207.214 658.73 -210.651 653.415C-210.771 653.215 -210.891 653.015 -211.011 652.815C-210.931 653.055 -210.851 653.335 -210.771 653.615C-209.212 659.769 -212.889 666.004 -219.044 667.602C-220.283 667.922 -221.521 668.202 -222.76 668.482C-228.995 669.76 -235.07 665.764 -236.309 659.529C-236.349 659.29 -236.389 659.09 -236.428 658.85C-236.428 659.05 -236.428 659.25 -236.428 659.449C-236.788 665.564 -241.864 670.28 -247.898 670.28L-247.779 670ZM49.7627 657.971C49.4429 657.971 49.1232 657.971 48.7635 657.931C47.5246 657.811 46.2857 657.691 45.0468 657.531C38.7722 656.732 34.2961 651.017 35.0555 644.702C35.0555 644.502 35.1354 644.263 35.1354 644.063C35.0555 644.303 34.9755 644.542 34.8556 644.742C32.3378 650.577 25.5837 653.255 19.7487 650.777C18.5898 650.297 17.4707 649.778 16.3117 649.218C10.5967 646.461 8.19879 639.627 10.9164 633.912C11.0363 633.672 11.1562 633.432 11.2761 633.192C11.1162 633.392 10.9564 633.552 10.7566 633.752C6.28046 638.268 -0.993195 638.308 -5.4693 633.872C-6.34854 632.992 -7.22778 632.113 -8.06705 631.194C-12.4233 626.558 -12.1835 619.284 -7.54752 614.968C-7.38766 614.808 -7.22778 614.688 -7.06793 614.529C-7.22778 614.608 -7.34769 614.688 -7.50754 614.768C-13.0627 617.846 -20.0566 615.847 -23.134 610.332C-23.7335 609.293 -24.293 608.214 -24.8525 607.135C-27.7699 601.5 -25.5718 594.586 -19.9367 591.668C-14.3016 588.751 -7.38763 590.949 -4.47018 596.584C-4.03055 597.463 -3.55099 598.303 -3.07141 599.182C-0.35376 604.058 -1.59271 610.092 -5.70911 613.569C-1.15308 610.772 4.88165 611.451 8.67838 615.488C9.31781 616.167 9.99722 616.846 10.6766 617.526C14.4333 621.243 15.1128 626.958 12.595 631.354C15.9121 627.557 21.4673 626.238 26.2231 628.556C27.0624 628.956 27.9017 629.356 28.7809 629.715C33.7766 631.873 36.4942 637.149 35.535 642.304C37.2935 637.349 42.3291 634.151 47.7644 634.791C48.6836 634.911 49.6428 634.991 50.6019 635.071C56.1971 635.55 60.5133 639.946 61.0328 645.342C61.1927 639.906 65.2692 635.191 70.8244 634.351C71.7836 634.191 72.7827 634.032 73.7418 633.872C79.377 632.873 84.7723 636.15 86.6107 641.385C85.3717 636.03 88.1293 630.395 93.4047 628.197C94.284 627.837 95.1632 627.437 96.0425 627.038C101.078 624.72 106.873 626.358 110.07 630.635C107.672 625.919 108.751 620.044 113.028 616.527C113.747 615.927 114.466 615.328 115.146 614.728C119.142 611.131 125.017 610.852 129.254 613.769C125.577 610.132 124.737 604.337 127.495 599.741C127.975 598.982 128.414 598.183 128.854 597.344C131.412 592.588 136.767 590.39 141.763 591.628C137.087 589.47 134.329 584.355 135.328 579.079C135.488 578.16 135.648 577.201 135.808 576.282C136.647 570.687 141.443 566.61 146.918 566.49C141.363 565.971 136.887 561.415 136.567 555.7C136.527 554.701 136.447 553.701 136.367 552.702C135.888 546.747 140.084 541.472 145.879 540.473C140.004 541.152 134.489 537.276 133.25 531.401C133.05 530.362 132.81 529.363 132.611 528.363C131.212 522.169 135.128 516.014 141.323 514.655C147.518 513.257 153.672 517.173 155.031 523.368C155.271 524.487 155.511 525.606 155.751 526.725C157.029 532.92 153.073 539.034 146.838 540.313C146.718 540.313 146.559 540.353 146.439 540.393C146.599 540.393 146.758 540.393 146.918 540.353C153.193 539.913 158.788 544.589 159.267 550.904C159.347 552.103 159.427 553.262 159.507 554.461C159.867 560.775 155.031 566.211 148.677 566.57C148.557 566.57 148.397 566.57 148.277 566.57C148.477 566.57 148.677 566.61 148.877 566.65C155.151 567.609 159.467 573.444 158.508 579.719C158.308 580.958 158.108 582.157 157.909 583.356C156.75 589.59 150.715 593.667 144.48 592.508C144.241 592.468 144.001 592.428 143.801 592.348C144.001 592.428 144.201 592.548 144.4 592.628C149.995 595.625 152.114 602.579 149.116 608.174C148.517 609.293 147.877 610.412 147.238 611.491C144.001 616.926 136.927 618.725 131.492 615.448C131.292 615.328 131.092 615.208 130.932 615.088C131.092 615.248 131.252 615.408 131.412 615.568C135.648 620.284 135.248 627.557 130.532 631.794C129.573 632.633 128.614 633.472 127.655 634.271C122.739 638.308 115.506 637.589 111.469 632.673C111.349 632.513 111.229 632.353 111.109 632.193C111.189 632.353 111.269 632.513 111.349 632.673C113.987 638.428 111.429 645.262 105.674 647.9C104.555 648.419 103.436 648.899 102.277 649.378C96.4421 651.816 89.6879 649.018 87.2501 643.184C87.1701 642.984 87.0902 642.744 87.0103 642.544C87.0502 642.744 87.0902 642.944 87.1302 643.144C88.2492 649.378 84.0928 655.373 77.8183 656.452C76.6194 656.652 75.4203 656.852 74.2614 657.012C67.9868 657.971 62.1519 653.615 61.2327 647.34C61.2327 647.18 61.1927 646.98 61.1528 646.82C61.1528 647.02 61.1528 647.22 61.1528 647.46C60.6332 653.455 55.6375 657.971 49.7227 657.971H49.7627ZM-24.6526 592.708C-28.8889 592.708 -32.9254 590.35 -34.9237 586.313L-36.3625 583.396C-39.2 577.721 -36.882 570.807 -31.167 568.009C-25.4919 565.211 -18.5779 567.489 -15.7803 573.204L-14.3416 576.122C-11.544 581.797 -13.862 588.711 -19.5371 591.509C-21.1757 592.308 -22.9341 592.708 -24.6127 592.708H-24.6526ZM137.846 515.135C133.01 515.135 128.494 512.058 126.936 507.182C126.616 506.183 126.296 505.184 125.936 504.224C124.777 500.747 125.337 497.111 127.175 494.273C124.817 491.116 124.138 486.84 125.777 482.963C128.214 477.128 134.969 474.37 140.804 476.808C141.643 477.168 142.522 477.488 143.401 477.847C148.797 479.846 151.794 485.441 150.675 490.876C152.314 485.481 157.749 482.004 163.464 482.923C164.463 483.083 165.462 483.243 166.461 483.363C172.256 484.162 176.453 489.198 176.373 494.913C176.932 489.277 181.608 484.801 187.443 484.602C188.442 484.602 189.401 484.522 190.36 484.482C195.796 484.122 200.512 487.599 202.03 492.515C201.431 487.319 204.428 482.204 209.584 480.365C210.503 480.046 211.422 479.686 212.341 479.326C217.657 477.248 223.572 479.406 226.369 484.162C224.211 479.166 225.85 473.132 230.565 470.014C231.365 469.495 232.164 468.935 232.963 468.376C237.4 465.218 243.354 465.658 247.271 469.135C244.034 465.059 243.874 459.144 247.271 454.907C247.83 454.228 248.35 453.509 248.87 452.789C251.987 448.473 257.582 446.874 262.338 448.713C257.862 446.195 255.504 440.88 256.903 435.724C257.142 434.885 257.342 434.006 257.502 433.126C258.581 428.131 262.698 424.614 267.493 424.094C262.777 423.455 258.741 419.938 257.742 414.982C257.582 414.143 257.382 413.304 257.142 412.504C255.863 407.828 257.702 402.992 261.379 400.275C257.022 401.953 251.867 400.834 248.63 397.118C248.03 396.438 247.431 395.799 246.791 395.159C242.875 391.163 242.515 385.008 245.592 380.572C241.836 384.688 235.561 385.568 230.765 382.41C229.886 381.851 229.047 381.291 228.168 380.732C223.052 377.455 221.413 370.781 224.291 365.545C221.214 370.781 214.499 372.699 209.064 369.861C208.065 369.342 207.026 368.782 206.027 368.223C200.432 365.185 198.393 358.231 201.431 352.636C201.471 352.516 201.551 352.436 201.591 352.317C201.111 352.796 200.591 353.236 199.992 353.635C194.797 357.272 187.643 355.953 184.006 350.758C182.967 349.239 182.048 347.681 181.328 346.082C178.731 340.287 181.328 333.493 187.083 330.895C188.042 330.456 189.042 330.176 190.041 330.016C189.801 329.936 189.521 329.856 189.281 329.776C183.327 327.578 180.289 320.984 182.487 315.029C182.927 313.83 183.406 312.631 183.886 311.472C186.364 305.637 193.118 302.88 198.953 305.357C199.153 305.437 199.353 305.517 199.552 305.637L199.393 305.517C194.077 302.04 192.599 294.926 196.075 289.611L197.874 286.893C201.071 282.018 207.346 280.339 212.421 282.777C207.825 279.86 205.827 273.945 207.985 268.709C208.345 267.87 208.664 266.991 209.024 266.072C210.943 260.796 216.378 257.759 221.733 258.678C216.538 257.079 213.061 251.924 213.74 246.329C213.86 245.37 213.94 244.41 214.02 243.451C214.499 237.936 218.776 233.66 224.051 233.02C218.816 232.82 214.22 229.064 213.181 223.708C213.021 222.789 212.821 221.91 212.621 221.031C211.462 216.195 213.54 211.359 217.457 208.801C213.221 210.16 208.345 208.921 205.267 205.284C204.788 204.725 204.268 204.165 203.709 203.606C200.392 200.329 199.472 195.533 200.991 191.416C198.154 195.093 193.278 196.812 188.562 195.413C187.683 195.133 186.764 194.893 185.804 194.654C180.249 193.215 176.692 187.9 177.292 182.344C176.053 187.939 170.857 191.816 165.022 191.297C163.983 191.217 162.944 191.097 161.905 191.017C155.83 190.537 151.274 185.422 151.354 179.387C150.875 185.422 145.599 190.098 139.644 189.938L136.447 189.858C130.213 189.738 125.217 184.702 125.177 178.508C125.177 178.668 125.177 178.827 125.177 178.987C124.658 185.302 119.102 190.018 112.788 189.498C111.469 189.378 110.15 189.258 108.871 189.059C102.597 188.179 98.2405 182.344 99.1198 176.07C99.1597 175.71 99.2396 175.39 99.3196 175.031C99.0798 175.43 98.84 175.83 98.5602 176.19C94.7635 181.265 87.5698 182.304 82.4943 178.508C81.3353 177.668 80.2562 176.749 79.1771 175.79C74.4612 171.554 74.0615 164.32 78.2579 159.564C78.6176 159.164 79.0173 158.765 79.4169 158.445C79.217 158.525 78.9773 158.605 78.7775 158.685C72.7827 160.763 66.2284 157.566 64.1901 151.571C63.7905 150.452 63.4308 149.333 63.0711 148.214C61.1927 142.299 64.31 135.985 70.105 133.906C64.4299 135.625 58.2752 132.668 56.1171 127.032C55.7574 126.073 55.3578 125.114 54.9581 124.155C52.7201 118.64 55.078 112.365 60.2735 109.648C54.9182 111.966 48.6036 109.847 45.6862 104.652C45.2066 103.773 44.6871 102.893 44.2075 102.014C41.2501 96.9386 42.6089 90.5442 47.1649 87.1072C42.3291 90.0646 35.8947 89.0655 32.2179 84.5094C31.5785 83.7101 30.939 82.9508 30.2996 82.1914C26.5828 77.7953 26.7426 71.4807 30.3795 67.2444C26.2631 70.9612 19.9486 71.2809 15.5125 67.724C14.7531 67.1245 13.9938 66.5251 13.2344 65.9655C8.75833 62.6085 7.39951 56.6137 9.75745 51.7779C6.72009 56.214 0.885162 58.0125 -4.23041 55.7744C-5.10962 55.3748 -6.02881 55.0151 -6.90805 54.6554C-12.1035 52.6172 -14.981 47.2218 -14.0219 41.9464C-15.7404 47.062 -20.8959 50.459 -26.491 49.6198C-27.4502 49.4999 -28.4493 49.34 -29.4485 49.2601C-35.1635 48.6206 -39.3998 43.8648 -39.6396 38.3096C-40.0392 43.8648 -44.4754 48.4208 -50.1904 48.9004C-51.1895 48.9803 -52.1887 49.0602 -53.1479 49.1801C-58.8629 49.8196 -63.9784 46.1428 -65.4172 40.7874C-64.6179 46.2627 -67.935 51.658 -73.3703 53.3765C-74.3294 53.6562 -75.2487 53.976 -76.2078 54.2957C-81.6031 56.1341 -87.438 53.7362 -90.0358 48.8604C-88.0775 54.0559 -90.1157 60.0507 -95.0714 62.8882C-95.9107 63.3678 -96.7499 63.8874 -97.5892 64.3669C-102.505 67.3643 -108.819 66.2453 -112.376 61.9291C-109.299 66.645 -110.098 72.9994 -114.455 76.8361C-115.214 77.4755 -115.933 78.1549 -116.693 78.8344C-120.969 82.7509 -127.483 82.8309 -131.799 79.194C-127.883 83.3105 -127.523 89.8248 -131.2 94.3409C-131.839 95.1402 -132.479 95.9395 -133.118 96.7388C-136.755 101.415 -143.27 102.494 -148.185 99.4564C-143.589 102.973 -142.31 109.448 -145.348 114.523C-145.867 115.403 -146.427 116.322 -146.946 117.201C-149.984 122.357 -156.418 124.275 -161.733 121.797C-156.618 124.754 -154.54 131.149 -157.097 136.584C-157.537 137.503 -157.977 138.463 -158.416 139.422C-160.894 144.937 -167.209 147.535 -172.804 145.496C-167.329 147.934 -164.611 154.209 -166.689 159.924C-167.049 160.923 -167.408 161.882 -167.768 162.881C-169.886 168.876 -176.441 171.993 -182.435 169.915C-187.511 168.117 -190.548 163.161 -190.069 158.006C-193.146 161.642 -198.262 163.161 -202.978 161.363C-203.977 161.003 -204.936 160.603 -205.935 160.244C-211.89 158.045 -214.927 151.451 -212.729 145.496C-210.531 139.542 -203.897 136.504 -197.982 138.702C-196.903 139.102 -195.824 139.502 -194.785 139.901C-190.389 141.58 -187.631 145.696 -187.391 150.092C-184.634 145.456 -178.879 143.258 -173.603 145.177H-173.643C-179.438 142.539 -181.996 135.745 -179.398 129.95C-178.918 128.911 -178.439 127.872 -177.959 126.833C-175.282 121.078 -168.448 118.6 -162.693 121.277H-162.733C-168.208 118.04 -170.046 111.006 -166.809 105.531C-166.21 104.532 -165.65 103.533 -165.051 102.574C-161.773 97.1384 -154.7 95.4199 -149.264 98.6971C-154.26 94.7405 -155.139 87.5468 -151.223 82.5511C-150.503 81.6319 -149.784 80.7127 -149.025 79.8335C-145.028 74.9178 -137.794 74.1584 -132.879 78.1549L-132.759 78.2748L-132.919 78.115C-137.195 73.439 -136.875 66.1654 -132.199 61.8891C-131.32 61.0898 -130.441 60.2905 -129.561 59.5311C-124.806 55.3748 -117.532 55.8543 -113.336 60.6102C-113.256 60.6901 -113.216 60.7701 -113.176 60.81C-113.216 60.7301 -113.296 60.6102 -113.336 60.5303C-116.653 55.135 -114.934 48.0611 -109.539 44.744C-108.5 44.1046 -107.461 43.5051 -106.422 42.9056C-100.906 39.7483 -93.9124 41.6667 -90.7552 47.1819C-90.7152 47.2618 -90.6353 47.3817 -90.5953 47.5016C-90.6353 47.3817 -90.6752 47.2618 -90.7152 47.1419C-92.7534 41.1471 -89.5562 34.5928 -83.5614 32.5546C-82.4424 32.1549 -81.2834 31.7953 -80.1644 31.4356C-74.1296 29.5572 -67.6552 32.9143 -65.7769 38.989C-65.7369 39.1089 -65.697 39.2688 -65.657 39.3887C-65.657 39.2288 -65.657 39.1089 -65.6969 38.949C-66.3763 32.6345 -61.7803 26.9994 -55.4659 26.32C-54.2669 26.2001 -53.0679 26.0802 -51.9089 26.0003C-45.5145 25.5607 -40.0393 30.2366 -39.5597 36.5511C-39.5597 36.711 -39.5597 36.8708 -39.5597 37.0307C-39.5597 36.8708 -39.5597 36.711 -39.5197 36.5911C-38.8003 30.2766 -33.1253 25.8005 -26.8108 26.4799C-25.6118 26.5998 -24.4128 26.7596 -23.2538 26.9195C-16.9793 27.7987 -12.5831 33.5937 -13.4623 39.9082C-13.4623 40.0681 -13.5023 40.2279 -13.5423 40.3478C-13.5023 40.188 -13.4224 39.9881 -13.3425 39.8283C-11.0245 33.9134 -4.35028 31.0359 1.5246 33.3139C2.68359 33.7536 3.80261 34.2331 4.92166 34.7127C10.7566 37.2305 13.4342 43.9847 10.9164 49.8196C10.8365 49.9794 10.7566 50.1393 10.7166 50.2992C10.7965 50.1793 10.8765 50.0594 10.9564 49.9395C14.7531 44.8639 21.9468 43.8248 27.0224 47.6215C27.9816 48.3409 28.9408 49.1002 29.8999 49.8595C34.8556 53.8161 35.6549 61.0498 31.6984 66.0055C31.6184 66.1254 31.4985 66.2453 31.3786 66.3652C31.4586 66.2853 31.5785 66.1654 31.6984 66.0854C36.5341 61.969 43.7679 62.6085 47.8843 67.4443C48.6436 68.3635 49.403 69.2427 50.1623 70.2019C54.1588 75.1576 53.3595 82.3913 48.4038 86.3478C48.3239 86.4278 48.204 86.5077 48.1241 86.5476L48.3639 86.3878C53.8391 83.1906 60.873 85.0689 64.0703 90.5442C64.6697 91.5433 65.2292 92.5824 65.8287 93.6215C68.9061 99.1767 66.9078 106.171 61.3526 109.248C61.2726 109.288 61.1927 109.328 61.1128 109.368L61.3526 109.288C67.2275 106.89 73.9417 109.727 76.2996 115.602C76.7393 116.681 77.1389 117.721 77.5785 118.84C79.8565 124.754 76.939 131.429 71.0242 133.707C70.9442 133.707 70.8643 133.787 70.7444 133.787C76.7393 131.988 83.0937 135.305 84.972 141.3C85.2918 142.259 85.6115 143.218 85.9313 144.178C87.5298 148.774 86.0112 153.729 82.4943 156.687C86.4508 155.048 91.1267 155.727 94.5237 158.765C95.0833 159.284 95.6827 159.764 96.2822 160.204C100.079 163.041 101.598 167.717 100.599 172.033C102.877 168.077 107.353 165.679 112.188 166.398C113.028 166.518 113.907 166.598 114.786 166.678C120.741 167.158 125.257 172.113 125.337 177.988C125.577 171.833 130.652 166.958 136.807 166.958C136.887 166.958 136.927 166.958 137.007 166.958L140.364 167.038C146.678 167.198 151.674 172.393 151.594 178.708C152.114 172.393 157.669 167.677 163.983 168.197C165.142 168.277 166.261 168.396 167.38 168.476C173.695 169.076 178.331 174.671 177.771 180.986C177.771 181.025 177.771 181.105 177.771 181.145C177.771 180.986 177.851 180.826 177.891 180.706C179.49 174.591 185.724 170.874 191.919 172.513C193.118 172.833 194.317 173.152 195.476 173.512C201.551 175.35 204.988 181.745 203.149 187.82C203.069 188.059 202.989 188.299 202.909 188.539C203.189 188.179 203.509 187.82 203.829 187.46C208.265 182.944 215.539 182.864 220.055 187.34C221.094 188.339 222.053 189.378 222.972 190.457C227.089 195.293 226.529 202.527 221.693 206.643C221.333 206.963 220.974 207.243 220.574 207.482C220.814 207.403 221.094 207.323 221.373 207.283C227.528 205.804 233.723 209.601 235.201 215.795C235.481 217.034 235.761 218.273 236.001 219.512C237.2 225.747 233.083 231.741 226.849 232.94C226.609 232.98 226.329 233.02 226.089 233.06C226.289 233.06 226.489 233.06 226.689 233.06C233.003 233.58 237.679 239.175 237.16 245.489C237.04 246.728 236.92 247.927 236.8 249.166C236.041 255.481 230.286 259.957 224.011 259.198C223.811 259.198 223.651 259.158 223.452 259.118C223.651 259.198 223.851 259.237 224.011 259.317C229.966 261.476 233.043 268.07 230.845 274.065C230.406 275.264 229.966 276.423 229.486 277.542C227.089 283.416 220.334 286.214 214.499 283.776C214.3 283.696 214.1 283.616 213.9 283.536L214.02 283.616C219.335 287.093 220.854 294.207 217.377 299.522L215.578 302.28C212.381 307.196 206.027 308.834 200.911 306.317C205.587 309.274 207.585 315.229 205.347 320.504C204.988 321.344 204.668 322.183 204.348 323.062C202.83 327.099 199.313 329.816 195.316 330.456C198.433 331.375 201.151 333.573 202.55 336.77C202.71 337.09 202.909 337.41 203.149 337.769C205.787 341.566 205.827 346.362 203.629 350.078C207.146 346.562 212.661 345.602 217.257 348.08C218.176 348.6 219.095 349.079 220.015 349.559C225.61 352.516 227.808 359.43 224.85 365.065C224.85 365.145 224.771 365.185 224.731 365.265C224.81 365.145 224.89 365.026 224.97 364.906C228.407 359.55 235.521 358.032 240.837 361.429C241.796 362.068 242.755 362.668 243.754 363.307C249.029 366.824 250.468 373.938 246.991 379.213L246.831 379.453C246.831 379.453 247.151 379.093 247.351 378.933C251.907 374.497 259.181 374.617 263.577 379.173C264.496 380.092 265.375 381.052 266.214 382.011C270.411 386.767 269.891 394.04 265.135 398.237C264.896 398.436 264.656 398.636 264.416 398.836C264.776 398.676 265.175 398.556 265.535 398.476C271.65 396.838 277.964 400.435 279.643 406.549C280.003 407.828 280.282 409.147 280.562 410.466C281.841 416.701 277.804 422.735 271.61 424.014C271.25 424.094 270.89 424.134 270.531 424.174C270.81 424.214 271.13 424.254 271.41 424.334C277.605 425.653 281.561 431.767 280.242 437.962C279.963 439.241 279.683 440.52 279.323 441.759C277.685 447.873 271.37 451.55 265.255 449.872C264.856 449.752 264.496 449.632 264.136 449.512C264.496 449.712 264.816 449.912 265.135 450.151C270.291 453.788 271.57 460.902 267.933 466.058C267.933 466.098 267.773 466.257 267.733 466.337C267.054 467.257 266.334 468.256 265.575 469.215C261.658 474.211 254.425 475.05 249.429 471.133C249.229 470.973 249.069 470.814 248.87 470.654C248.989 470.814 249.109 470.973 249.229 471.133C252.906 476.289 251.707 483.483 246.552 487.159C245.552 487.879 244.553 488.558 243.514 489.238C238.239 492.754 231.085 491.316 227.608 486C227.488 485.84 227.408 485.681 227.288 485.521C227.328 485.641 227.408 485.801 227.448 485.92C229.766 491.835 226.849 498.509 220.934 500.787C219.815 501.227 218.696 501.627 217.537 502.066C211.582 504.185 204.988 501.107 202.87 495.112C202.83 494.953 202.75 494.793 202.71 494.633C202.71 494.833 202.75 495.072 202.75 495.272C203.149 501.587 198.313 507.062 191.999 507.462C190.8 507.542 189.601 507.582 188.362 507.622C181.888 507.741 176.732 502.866 176.532 496.511C176.532 496.311 176.532 496.151 176.532 495.952C176.532 496.112 176.532 496.231 176.492 496.391C175.613 502.666 169.818 507.062 163.544 506.183C162.385 506.023 161.226 505.863 160.067 505.663C153.792 504.664 149.556 498.749 150.555 492.515C150.555 492.355 150.595 492.195 150.635 492.035C150.555 492.235 150.515 492.475 150.435 492.674C149.836 494.233 148.956 495.632 147.837 496.751L147.917 496.951C148.277 498.03 148.637 499.109 148.996 500.228C150.955 506.263 147.638 512.737 141.603 514.695C140.444 515.095 139.245 515.255 138.046 515.255L137.846 515.135ZM-346.213 271.507C-349.49 271.507 -352.767 270.108 -355.045 267.35C-355.765 266.471 -356.524 265.592 -357.243 264.673C-361.24 259.757 -360.481 252.523 -355.525 248.527C-355.445 248.447 -355.365 248.407 -355.285 248.367L-355.605 248.567C-361.04 251.804 -368.114 250.006 -371.351 244.57C-371.951 243.531 -372.55 242.532 -373.15 241.493C-376.267 235.978 -374.309 228.944 -368.753 225.867C-368.633 225.787 -368.474 225.707 -368.354 225.627C-368.514 225.707 -368.713 225.747 -368.873 225.787C-374.908 227.625 -381.342 224.188 -383.181 218.153C-383.541 216.994 -383.86 215.795 -384.18 214.636C-385.819 208.522 -382.182 202.207 -376.027 200.568C-375.787 200.489 -375.547 200.449 -375.308 200.409C-375.547 200.409 -375.787 200.409 -376.067 200.409C-382.422 200.169 -387.337 194.814 -387.097 188.499C-387.057 187.22 -386.978 185.981 -386.858 184.702C-386.338 178.388 -380.823 173.672 -374.468 174.191C-374.229 174.191 -373.989 174.231 -373.749 174.271C-374.029 174.191 -374.309 174.072 -374.548 173.952C-380.343 171.394 -382.981 164.6 -380.423 158.805C-379.904 157.606 -379.344 156.447 -378.785 155.328C-375.947 149.653 -369.033 147.375 -363.358 150.212C-363.078 150.372 -362.799 150.532 -362.519 150.692C-362.799 150.412 -363.038 150.132 -363.278 149.813C-367.195 144.817 -366.316 137.583 -361.32 133.707C-360.88 133.347 -360.401 132.987 -359.961 132.668C-359.362 132.228 -358.722 131.748 -358.083 131.309C-352.847 127.752 -345.693 129.111 -342.137 134.346C-341.937 134.626 -341.777 134.906 -341.617 135.185C-341.697 134.946 -341.737 134.706 -341.817 134.466C-343.256 128.271 -339.419 122.117 -333.224 120.678C-332.025 120.398 -330.786 120.118 -329.587 119.919C-323.353 118.72 -317.358 122.836 -316.159 129.071C-316.159 129.271 -316.079 129.43 -316.079 129.63C-316.079 129.51 -316.079 129.43 -316.079 129.31C-316.079 122.956 -310.924 117.84 -304.609 117.84C-303.45 117.84 -302.291 117.84 -301.132 117.84C-294.778 117.96 -289.742 123.196 -289.862 129.51C-289.862 129.63 -289.862 129.71 -289.862 129.83C-289.862 129.75 -289.862 129.63 -289.862 129.55C-289.143 123.236 -283.468 118.72 -277.153 119.439L-273.796 119.839C-267.521 120.638 -263.045 126.353 -263.805 132.668V132.708C-262.526 126.513 -256.451 122.516 -250.216 123.795L-246.939 124.475C-240.745 125.794 -236.788 131.908 -238.107 138.103C-238.107 138.223 -238.147 138.303 -238.187 138.423L-238.107 138.143C-236.349 132.028 -229.994 128.551 -223.879 130.31L-220.642 131.269C-214.567 133.067 -211.09 139.462 -212.889 145.536C-214.687 151.611 -221.082 155.088 -227.157 153.29L-230.234 152.37C-236.149 150.652 -239.626 144.577 -238.187 138.662C-239.746 144.537 -245.7 148.214 -251.695 146.975L-254.852 146.296C-260.847 145.057 -264.764 139.342 -263.885 133.387C-265.004 139.302 -270.479 143.418 -276.594 142.659L-279.751 142.259C-285.786 141.58 -290.182 136.304 -289.902 130.35C-290.421 136.224 -295.377 140.78 -301.332 140.78C-301.412 140.78 -301.452 140.78 -301.532 140.78C-302.571 140.78 -303.57 140.78 -304.609 140.78C-310.404 140.78 -315.2 136.504 -315.999 130.909C-315.839 136.424 -319.716 141.42 -325.351 142.499C-326.27 142.659 -327.19 142.859 -328.109 143.098C-333.224 144.297 -338.26 141.9 -340.698 137.583C-339.299 142.259 -341.018 147.455 -345.254 150.372C-345.614 150.612 -345.973 150.892 -346.333 151.171L-347.292 151.891C-351.169 154.928 -356.404 155.048 -360.361 152.65C-357.084 156.047 -356.164 161.283 -358.402 165.759C-358.802 166.558 -359.202 167.357 -359.561 168.197C-361.68 173.032 -366.715 175.63 -371.711 174.951C-366.915 176.669 -363.678 181.425 -364.117 186.701C-364.197 187.62 -364.237 188.539 -364.277 189.498C-364.477 194.893 -368.394 199.29 -373.469 200.329C-368.354 200.169 -363.478 203.606 -362.079 208.841C-361.839 209.761 -361.56 210.68 -361.28 211.599C-359.641 216.994 -362.159 222.669 -367.035 225.147C-361.879 223.309 -355.965 225.387 -353.167 230.343C-352.687 231.222 -352.168 232.061 -351.648 232.94C-348.651 237.976 -349.97 244.41 -354.526 247.927C-349.65 244.81 -343.136 245.809 -339.419 250.405C-338.779 251.204 -338.1 252.004 -337.461 252.803C-333.384 257.679 -334.064 264.913 -338.939 268.989C-341.097 270.787 -343.695 271.627 -346.293 271.627L-346.213 271.507Z" fill="#A4A448"/>
<path d="M-4.99002 448.632C-9.34623 448.632 -13.5026 446.155 -15.4209 441.958C-18.0986 436.203 -15.5808 429.369 -9.82581 426.731C-8.90661 426.292 -7.94745 425.852 -7.02825 425.413C-1.31322 422.615 5.56082 425.013 8.31842 430.728C11.116 436.443 8.71806 443.317 3.00303 446.075C1.92397 446.594 0.884895 447.114 -0.194166 447.593C-1.75281 448.313 -3.39141 448.672 -4.99002 448.672V448.632Z" fill="#FFFAF0"/>
<path d="M18.0308 435.483C14.394 435.483 10.8371 433.765 8.59901 430.568C4.96217 425.372 6.24106 418.218 11.4365 414.582C12.2758 413.982 13.1151 413.423 13.9144 412.823C19.0299 409.066 26.2237 410.145 29.9804 415.261C33.7371 420.376 32.6581 427.57 27.5425 431.327C26.5834 432.046 25.5842 432.726 24.6251 433.405C22.6268 434.804 20.3088 435.483 18.0308 435.483Z" fill="#B45636"/>
<path d="M38.1325 418.259C35.2949 418.259 32.4175 417.22 30.2194 415.101C25.6234 410.705 25.4635 403.472 29.8197 398.876C30.4991 398.156 31.1785 397.437 31.8579 396.678C36.0943 391.962 43.3679 391.602 48.0838 395.838C52.7997 400.075 53.1994 407.348 48.9231 412.064C48.1238 412.983 47.2845 413.863 46.4453 414.742C44.2072 417.1 41.1698 418.299 38.1325 418.299V418.259Z" fill="#CEB79F"/>
<path d="M53.7189 396.838C51.8805 396.838 50.0421 396.398 48.3236 395.479C42.7285 392.481 40.6103 385.527 43.6077 379.932C44.0873 379.053 44.5269 378.174 44.9665 377.295C47.7641 371.619 54.6381 369.262 60.3531 372.059C66.0282 374.857 68.3861 381.731 65.5886 387.446C65.0291 388.565 64.4696 389.644 63.91 390.723C61.8318 394.599 57.8753 396.798 53.7589 396.798L53.7189 396.838Z" fill="#FFFAF0"/>
<path d="M63.1108 372.098C62.1916 372.098 61.2724 371.978 60.3532 371.779C54.1986 370.26 50.4019 364.065 51.9205 357.911C52.1603 356.951 52.3602 355.992 52.6 355.033C53.9188 348.839 60.0335 344.882 66.2281 346.201C72.4227 347.52 76.3793 353.634 75.0605 359.829C74.8207 361.028 74.5409 362.227 74.2611 363.386C72.9822 368.621 68.2663 372.138 63.1108 372.138V372.098Z" fill="#B45636"/>
<path d="M66.3087 345.682C59.9542 345.682 54.8386 340.646 54.8386 334.292V334.052C54.8386 333.133 54.8386 332.214 54.7987 331.295C54.6388 324.94 59.6345 319.665 65.949 319.505C72.2235 319.305 77.5789 324.341 77.7387 330.655C77.7387 331.774 77.7787 332.933 77.7787 334.092C77.7787 340.447 72.6232 345.682 66.3087 345.682Z" fill="#FFFAF0"/>
<path d="M62.9915 319.544C57.9159 319.544 53.2799 316.147 51.8811 311.032C51.6413 310.072 51.3616 309.113 51.0818 308.194C49.2434 302.119 52.7204 295.725 58.7951 293.886C64.8698 292.048 71.2643 295.525 73.1027 301.6C73.4623 302.759 73.7821 303.958 74.1018 305.117C75.7404 311.231 72.1036 317.546 65.9489 319.184C64.9498 319.464 63.9506 319.584 62.9915 319.584V319.544Z" fill="#B45636"/>
<path d="M52.4407 295.286C48.644 295.286 44.9272 293.407 42.7691 289.97L52.4407 283.776L42.7291 289.93C42.1296 288.971 41.5701 288.172 40.9706 287.333C37.3338 282.137 38.6526 274.983 43.8481 271.347C49.0436 267.71 56.1974 269.029 59.8343 274.224C60.5137 275.223 61.193 276.222 61.8725 277.261L62.0723 277.581C65.4693 282.937 63.9107 290.01 58.5553 293.447C56.637 294.686 54.5188 295.246 52.4007 295.246L52.4407 295.286Z" fill="#FFFAF0"/>
<path d="M35.4556 274.583C32.5781 274.583 29.6606 273.504 27.4226 271.306C26.7032 270.587 25.9838 269.907 25.2245 269.228C20.5885 264.911 20.3088 257.638 24.625 253.002C28.9412 248.366 36.2149 248.086 40.8509 252.402C41.7301 253.242 42.6094 254.041 43.4886 254.88C48.0047 259.316 48.0846 266.59 43.6884 271.106C41.4504 273.424 38.453 274.543 35.4556 274.543V274.583Z" fill="#B45636"/>
<path d="M14.6734 258.118C12.5552 258.118 10.3971 257.519 8.47879 256.32C7.63952 255.76 6.76029 255.241 5.92102 254.721C0.485742 251.444 -1.23277 244.37 2.04438 238.935C5.32153 233.499 12.3954 231.781 17.8306 235.058C18.8697 235.698 19.8689 236.297 20.908 236.976C26.2633 240.373 27.822 247.487 24.3849 252.843C22.1869 256.28 18.4701 258.158 14.7134 258.158L14.6734 258.118Z" fill="#FFFAF0"/>
<path d="M-8.94611 246.088C-10.3449 246.088 -11.7836 245.848 -13.1824 245.289C-14.1416 244.929 -15.0608 244.569 -16.02 244.21C-21.9748 242.012 -25.0121 235.417 -22.8141 229.462C-20.616 223.508 -14.0217 220.47 -8.06687 222.668C-6.94784 223.068 -5.82883 223.508 -4.7098 223.947C1.20505 226.265 4.08256 232.939 1.76458 238.854C-0.0338593 243.37 -4.3501 246.128 -8.90614 246.128L-8.94611 246.088Z" fill="#B45636"/>
</g>
</g>
<defs>
<clipPath id="clip0_984_35665">
<rect width="281" height="696" fill="white"/>
</clipPath>
<clipPath id="clip1_984_35665">
<rect width="733.522" height="644" fill="white" transform="translate(-453 26)"/>
</clipPath>
</defs>
</svg>
