<svg width="1441" height="222" viewBox="0 0 1441 222" fill="none" xmlns="http://www.w3.org/2000/svg">
<path d="M967.203 44.018C964.207 64.9476 966.671 85.8546 970.554 106.49C972.151 115.057 973.993 123.6 975.302 132.234C976.473 138.74 976.794 145.375 976.256 151.966C975.014 163.018 971.441 176.241 960.724 181.349C957.456 182.913 953.852 183.611 950.249 183.378C946.645 183.145 943.157 181.988 940.11 180.015C937.256 178.065 935.002 175.332 933.608 172.133C932.214 168.933 931.737 165.397 932.232 161.933C932.439 159.404 933.241 156.962 934.569 154.814C935.898 152.666 937.715 150.875 939.866 149.593C942.044 148.363 944.54 147.84 947.018 148.094C949.497 148.349 951.84 149.368 953.734 151.017C955.446 152.632 956.58 154.782 956.958 157.128C957.335 159.473 956.935 161.88 955.82 163.968C955.234 165.063 954.34 165.954 953.252 166.526C952.164 167.098 950.933 167.325 949.718 167.177C949.293 167.097 948.891 166.922 948.539 166.666C948.188 166.41 947.896 166.078 947.685 165.694C947.473 165.31 947.346 164.884 947.314 164.445C947.282 164.006 947.345 163.565 947.499 163.154C948.63 160.103 943.749 156.577 942.373 159.899C941.907 161.139 941.692 162.462 941.741 163.789C941.789 165.116 942.101 166.419 942.656 167.62C943.212 168.821 944 169.896 944.973 170.779C945.946 171.662 947.084 172.336 948.32 172.76C951.018 173.587 953.923 173.349 956.456 172.092C958.989 170.835 960.964 168.653 961.989 165.979C966.604 154.678 957.351 142.27 945.901 141.75C934.052 141.207 926.308 151.401 925.931 162.747C925.826 167.387 926.944 171.971 929.168 176.021C931.393 180.072 934.642 183.441 938.579 185.779C942.596 188.174 947.14 189.502 951.793 189.64C956.446 189.779 961.059 188.723 965.206 186.57C972.617 182.637 977.166 175.269 979.718 167.29C981.507 161.827 982.545 156.137 982.802 150.384C982.93 141.522 982.028 132.676 980.117 124.03C975.924 101.427 970.753 78.8253 972.218 55.5224C972.418 52.3355 972.75 49.1486 973.194 45.9617C973.638 42.7748 967.935 40.0399 967.381 43.9501L967.203 44.018Z" fill="#603631"/>
<path d="M807.793 45.3971C811.033 69.1971 806.928 92.6355 802.334 115.961C800.302 125.03 798.93 134.239 798.229 143.513C797.965 149.693 798.517 155.881 799.871 161.911C801.337 169.795 805.058 177.061 810.567 182.796C813.958 186.029 818.091 188.344 822.588 189.529C827.085 190.714 831.802 190.73 836.307 189.576C840.58 188.461 844.488 186.216 847.636 183.069C850.784 179.922 853.061 175.984 854.236 171.653C856.832 161.663 852.949 149.322 843.496 144.53C833.067 139.309 819.442 145.005 817.867 157.368C817.437 160.193 817.804 163.083 818.923 165.704C820.043 168.325 821.869 170.568 824.191 172.173C828.873 175.134 835.73 174.433 838.37 169.054C838.917 167.916 839.223 166.675 839.269 165.409C839.315 164.144 839.1 162.883 838.636 161.708C838.366 160.98 837.867 160.363 837.217 159.954C836.567 159.546 835.802 159.367 835.042 159.448C834.699 159.52 834.376 159.669 834.097 159.883C833.817 160.097 833.587 160.372 833.424 160.687C833.261 161.003 833.168 161.351 833.152 161.707C833.136 162.063 833.198 162.419 833.333 162.747C834.975 167.11 829.095 169.28 826.144 166.838C822.771 164.058 823.414 158.543 825.278 155.108C826.371 153.112 827.988 151.465 829.947 150.351C831.907 149.238 834.132 148.701 836.373 148.802C838.566 148.865 840.701 149.528 842.555 150.721C844.41 151.914 845.915 153.593 846.913 155.583C848.599 158.99 849.265 162.827 848.827 166.617C848.389 170.406 846.867 173.981 844.45 176.896C842.103 179.609 839.129 181.68 835.796 182.924C832.463 184.167 828.878 184.543 825.367 184.016C812.053 182.118 806.639 168.195 804.997 156.577C803.067 142.722 806.439 128.822 809.058 115.306C813.496 92.4774 817.068 69.3555 813.762 46.0979C813.655 45.275 813.284 44.5113 812.706 43.9265C812.127 43.3416 811.375 42.9685 810.567 42.8656C810.204 42.8221 809.836 42.8628 809.491 42.9848C809.145 43.1069 808.832 43.3071 808.574 43.5703C808.315 43.8335 808.119 44.1529 807.999 44.5045C807.879 44.8561 807.839 45.2308 807.882 45.6004L807.793 45.3971Z" fill="#E27A7A"/>
<path d="M889.628 23.9705C898.205 49.4501 896.701 77.3305 885.435 101.699L889.872 100.841C885.575 97.4136 880.529 95.0939 875.163 94.0786C869.797 93.0634 864.27 93.3826 859.051 95.0091C854.236 96.6064 849.839 99.2953 846.192 102.874C842.544 106.452 839.741 110.826 837.993 115.668C837.823 116.163 837.751 116.688 837.781 117.212C837.812 117.736 837.945 118.249 838.172 118.72C838.399 119.191 838.716 119.612 839.105 119.957C839.493 120.302 839.945 120.565 840.434 120.73C849.088 124.344 858.622 125.166 867.749 123.084C876.876 121.003 885.156 116.118 891.47 109.09C894.133 106.016 889.429 101.338 886.366 103.914C882.007 107.61 878.45 112.189 875.921 117.36C873.392 122.531 871.947 128.182 871.677 133.953C871.45 139.927 872.443 145.885 874.593 151.449C876.743 157.012 880.004 162.061 884.17 166.274C884.765 166.961 885.597 167.389 886.493 167.469C887.389 167.549 888.281 167.275 888.985 166.703C892.692 163.4 895.702 159.366 897.834 154.844C899.966 150.322 901.175 145.406 901.389 140.394C901.921 129.093 898.083 118.086 894.199 107.576C893.895 106.653 893.287 105.866 892.478 105.347C891.67 104.828 890.71 104.61 889.761 104.728C889.344 104.821 888.951 105.006 888.611 105.27C888.271 105.534 887.992 105.87 887.793 106.256C887.594 106.641 887.481 107.067 887.46 107.502C887.44 107.937 887.514 108.371 887.676 108.774C889.414 113.742 892.236 118.244 895.929 121.939C899.623 125.635 904.092 128.429 909 130.11C914.131 131.724 919.575 132.013 924.842 130.951C930.11 129.89 935.036 127.512 939.178 124.03C939.575 123.6 939.845 123.064 939.955 122.483C940.065 121.903 940.011 121.303 939.799 120.753C938.436 115.955 936.034 111.529 932.77 107.801C929.506 104.073 925.463 101.139 920.938 99.2131C916.132 97.2281 910.903 96.5471 905.761 97.2364C900.619 97.9257 895.741 99.9618 891.603 103.146C888.829 105.406 893.156 110.582 896.041 108.751C899.438 106.358 903.35 104.831 907.447 104.3C911.545 103.769 915.707 104.249 919.584 105.7C922.946 107.16 925.937 109.38 928.332 112.192C930.727 115.003 932.463 118.333 933.408 121.928L934.007 118.674C930.735 121.388 926.862 123.247 922.725 124.09C918.587 124.933 914.31 124.734 910.265 123.51C906.586 122.294 903.229 120.235 900.452 117.493C897.675 114.75 895.552 111.397 894.244 107.689L887.764 108.887C891.248 118.289 894.932 128.121 894.621 138.27C894.483 142.683 893.449 147.02 891.586 151.007C889.722 154.994 887.069 158.545 883.793 161.437L888.608 161.844C885.126 158.348 882.416 154.138 880.656 149.492C878.896 144.847 878.127 139.873 878.4 134.902C878.747 129.923 880.089 125.07 882.344 120.639C884.599 116.208 887.72 112.293 891.514 109.135L886.411 103.96C880.935 110.256 873.665 114.652 865.616 116.532C857.568 118.412 849.143 117.683 841.521 114.447L843.962 119.51C845.434 115.418 847.768 111.705 850.801 108.632C853.833 105.559 857.49 103.2 861.514 101.722C865.823 100.293 870.414 99.9824 874.87 100.819C879.326 101.656 883.507 103.613 887.032 106.514C887.375 106.768 887.766 106.948 888.18 107.042C888.594 107.136 889.023 107.142 889.44 107.059C889.856 106.976 890.252 106.807 890.601 106.561C890.95 106.316 891.246 105.999 891.47 105.632C903.563 80.2951 905.45 49.1267 894.621 23.089C894.38 22.3736 893.91 21.7616 893.286 21.3516C892.662 20.9416 891.921 20.7574 891.182 20.8288C890.849 20.8905 890.535 21.0287 890.263 21.233C889.991 21.4372 889.768 21.7022 889.612 22.0074C889.456 22.3127 889.37 22.6502 889.361 22.9944C889.352 23.3385 889.421 23.6801 889.562 23.9931L889.628 23.9705Z" fill="#B2282B"/>
<path d="M811.721 47.9739C820.907 45.6233 830.079 43.2349 839.236 40.8089C853.851 36.9816 868.467 33.1393 883.082 29.2819L893.201 26.6147L891.625 26.4792C900.501 28.9052 909.295 31.3311 918.008 33.7571C931.988 37.5994 945.96 41.4194 959.925 45.2165C962.262 45.8494 964.614 46.4595 966.981 47.0472C967.624 47.2054 968.29 47.3861 968.956 47.5443L969.466 47.6801C971.685 48.1999 969.111 47.6801 969.666 47.6801C973.46 48.7198 973.971 43.1596 970.62 42.2781C961.5 39.7693 952.447 37.0572 943.349 34.5031C929.192 30.5402 915.028 26.6223 900.856 22.7498C898.127 22.004 895.42 21.1677 892.668 20.4896C891.549 20.2834 890.396 20.4009 889.34 20.8287L883.859 22.2753C869.924 25.967 855.974 29.6663 842.009 33.373C831.425 36.1983 820.796 38.8877 810.256 41.8712L809.746 42.0069C805.996 43.024 808.414 48.7876 811.721 47.9287L811.721 47.9739Z" fill="#E27A7A"/>
<path d="M1128.19 46.9582C1131.43 70.7809 1127.34 94.2194 1122.75 117.522C1120.71 126.597 1119.34 135.814 1118.65 145.097C1118.36 151.27 1118.91 157.454 1120.29 163.473C1121.75 171.364 1125.47 178.638 1130.98 184.38C1134.39 187.586 1138.53 189.874 1143.02 191.034C1147.52 192.195 1152.23 192.192 1156.72 191.025C1161 189.918 1164.91 187.678 1168.06 184.534C1171.2 181.39 1173.48 177.454 1174.65 173.124C1177.25 163.111 1173.37 150.793 1163.91 146.001C1153.48 140.757 1139.86 146.453 1138.28 158.839C1137.86 161.661 1138.22 164.548 1139.34 167.167C1140.45 169.787 1142.27 172.032 1144.59 173.644C1149.29 176.582 1156.12 175.904 1158.76 170.524C1159.32 169.39 1159.63 168.148 1159.68 166.881C1159.73 165.614 1159.5 164.352 1159.03 163.179C1158.77 162.444 1158.27 161.82 1157.62 161.41C1156.97 160.999 1156.2 160.826 1155.44 160.918C1155.1 160.994 1154.78 161.144 1154.5 161.36C1154.22 161.575 1153.99 161.85 1153.83 162.165C1153.67 162.48 1153.58 162.828 1153.57 163.183C1153.55 163.537 1153.62 163.891 1153.75 164.218C1155.37 168.558 1149.49 170.728 1146.56 168.309C1143.19 165.507 1143.81 160.014 1145.7 156.579C1146.78 154.626 1148.37 153.008 1150.28 151.896C1152.2 150.784 1154.37 150.22 1156.58 150.261C1158.78 150.303 1160.93 150.95 1162.81 152.133C1164.68 153.317 1166.2 154.993 1167.22 156.986C1168.91 160.392 1169.58 164.23 1169.14 168.021C1168.7 171.812 1167.18 175.387 1164.76 178.3C1162.41 181.013 1159.44 183.086 1156.1 184.33C1152.77 185.573 1149.18 185.948 1145.67 185.419C1132.36 183.521 1126.95 169.598 1125.33 157.958C1123.39 144.102 1126.75 130.225 1129.39 116.686C1133.82 93.8804 1137.37 70.7586 1134.07 47.5009C1133.97 46.674 1133.6 45.9051 1133.02 45.3157C1132.44 44.7264 1131.68 44.35 1130.87 44.2461C1130.51 44.2111 1130.15 44.2578 1129.81 44.3829C1129.46 44.508 1129.15 44.7085 1128.9 44.9698C1128.64 45.231 1128.44 45.5466 1128.32 45.8943C1128.2 46.242 1128.15 46.613 1128.19 46.9808L1128.19 46.9582Z" fill="#E27A7A"/>
<path d="M645.188 44.0184C642.192 64.9481 644.655 85.8551 648.539 106.491C650.136 115.057 652 123.601 653.287 132.235C654.458 138.74 654.779 145.375 654.241 151.966C653.021 163.019 649.426 176.241 638.709 181.349C635.441 182.914 631.837 183.612 628.234 183.378C624.63 183.145 621.142 181.989 618.095 180.016C615.241 178.065 612.987 175.333 611.593 172.133C610.199 168.934 609.722 165.398 610.217 161.934C610.44 159.409 611.249 156.973 612.576 154.828C613.903 152.682 615.71 150.888 617.851 149.593C620.029 148.363 622.525 147.84 625.003 148.095C627.482 148.349 629.825 149.369 631.719 151.017C633.437 152.628 634.576 154.779 634.954 157.126C635.332 159.474 634.928 161.882 633.805 163.968C633.224 165.067 632.33 165.962 631.241 166.535C630.152 167.107 628.919 167.331 627.703 167.178C627.28 167.094 626.88 166.917 626.531 166.66C626.181 166.403 625.891 166.071 625.68 165.689C625.469 165.306 625.342 164.881 625.308 164.443C625.274 164.006 625.334 163.566 625.484 163.154C626.638 160.103 621.734 156.577 620.38 159.9C619.914 161.138 619.698 162.46 619.745 163.786C619.792 165.111 620.102 166.414 620.655 167.615C621.208 168.815 621.994 169.89 622.965 170.775C623.935 171.659 625.071 172.334 626.305 172.76C629.003 173.587 631.908 173.349 634.441 172.093C636.974 170.836 638.949 168.653 639.973 165.98C644.589 154.679 635.336 142.27 623.908 141.75C612.037 141.208 604.293 151.401 603.938 162.748C603.824 167.387 604.935 171.972 607.157 176.023C609.378 180.075 612.626 183.444 616.563 185.779C620.582 188.171 625.126 189.496 629.778 189.634C634.43 189.773 639.042 188.719 643.191 186.57C650.58 182.638 655.129 175.269 657.703 167.291C659.474 161.823 660.504 156.135 660.765 150.384C660.889 141.524 659.995 132.679 658.102 124.03C653.886 101.428 648.716 78.8257 650.203 55.5229C650.403 52.336 650.713 49.1491 651.157 45.9622C651.601 42.7753 645.898 40.0404 645.343 43.9506L645.188 44.0184Z" fill="#E27A7A"/>
<path d="M567.614 23.9705C576.19 49.4501 574.686 77.3305 563.42 101.699L567.858 100.841C563.561 97.4136 558.514 95.0939 553.149 94.0787C547.783 93.0634 542.255 93.3826 537.037 95.0091C532.219 96.5959 527.819 99.2814 524.174 102.861C520.529 106.441 517.733 110.821 516.001 115.668C515.827 116.161 515.751 116.686 515.779 117.209C515.807 117.733 515.937 118.246 516.163 118.718C516.388 119.19 516.704 119.611 517.091 119.957C517.479 120.302 517.931 120.565 518.42 120.73C527.073 124.344 536.608 125.166 545.734 123.084C554.861 121.003 563.141 116.118 569.456 109.09C572.118 106.016 567.436 101.338 564.374 103.914C560.007 107.605 556.444 112.182 553.911 117.354C551.378 122.526 549.931 128.179 549.662 133.953C549.435 139.927 550.428 145.885 552.578 151.449C554.729 157.012 557.99 162.061 562.155 166.274C562.75 166.961 563.582 167.389 564.478 167.469C565.375 167.549 566.267 167.275 566.97 166.703C570.68 163.401 573.694 159.368 575.83 154.846C577.966 150.324 579.179 145.408 579.396 140.394C579.907 129.093 576.068 118.086 572.185 107.576C571.88 106.653 571.272 105.866 570.464 105.347C569.655 104.828 568.695 104.61 567.747 104.728C567.331 104.824 566.941 105.011 566.603 105.276C566.266 105.541 565.989 105.878 565.793 106.263C565.596 106.648 565.485 107.072 565.466 107.506C565.447 107.94 565.521 108.372 565.683 108.774C567.413 113.743 570.23 118.246 573.92 121.942C577.611 125.639 582.079 128.432 586.985 130.11C592.119 131.726 597.567 132.016 602.839 130.955C608.11 129.893 613.04 127.514 617.185 124.03C617.575 123.595 617.837 123.058 617.943 122.479C618.049 121.9 617.994 121.302 617.784 120.753C616.424 115.953 614.024 111.526 610.759 107.798C607.495 104.07 603.45 101.136 598.923 99.2131C594.117 97.2281 588.888 96.5471 583.746 97.2364C578.605 97.9257 573.727 99.9618 569.589 103.146C566.815 105.406 571.142 110.582 574.027 108.751C577.418 106.356 581.327 104.828 585.421 104.297C589.515 103.766 593.674 104.247 597.547 105.7C600.911 107.157 603.904 109.376 606.299 112.188C608.694 115 610.429 118.331 611.372 121.928L611.971 118.674C608.699 121.388 604.826 123.247 600.688 124.09C596.55 124.933 592.273 124.734 588.228 123.51C584.549 122.294 581.193 120.235 578.416 117.493C575.639 114.75 573.515 111.397 572.207 107.689L565.75 108.887C569.211 118.289 572.895 128.121 572.584 138.27C572.45 142.666 571.429 146.988 569.585 150.966C567.742 154.943 565.114 158.492 561.867 161.392L566.682 161.799C563.193 158.308 560.476 154.098 558.712 149.452C556.948 144.806 556.178 139.83 556.452 134.857C556.799 129.878 558.141 125.024 560.396 120.593C562.651 116.162 565.772 112.248 569.566 109.09L564.485 103.914C559.004 110.21 551.73 114.604 543.678 116.485C535.626 118.365 527.199 117.637 519.573 114.402L522.014 119.465C523.489 115.375 525.824 111.663 528.856 108.59C531.888 105.518 535.544 103.158 539.566 101.677C543.879 100.25 548.473 99.9404 552.932 100.777C557.392 101.614 561.576 103.57 565.106 106.468C565.448 106.727 565.839 106.909 566.254 107.005C566.669 107.101 567.099 107.107 567.516 107.024C567.934 106.941 568.33 106.771 568.679 106.523C569.028 106.276 569.323 105.957 569.544 105.587C581.638 80.2499 583.524 49.0815 572.695 23.0438C572.458 22.3261 571.988 21.7117 571.363 21.3011C570.739 20.8906 569.996 20.7081 569.256 20.7835C568.923 20.8453 568.609 20.9835 568.337 21.1877C568.065 21.392 567.842 21.657 567.686 21.9622C567.53 22.2675 567.444 22.605 567.435 22.9491C567.427 23.2933 567.495 23.6349 567.636 23.9479L567.614 23.9705Z" fill="#603631"/>
<path d="M569.633 26.2035C578.508 28.7123 587.207 31.1534 596.016 33.5945C609.973 37.4594 623.908 41.3695 637.91 45.1215C640.24 45.7318 642.592 46.4326 644.944 46.975C645.61 47.1333 646.275 47.2688 646.941 47.427C647.607 47.5852 648.805 47.9018 647.651 47.5853C651.468 48.625 651.956 43.0649 648.605 42.1834C639.729 39.765 631.053 37.0754 622.266 34.6343C608.301 30.7618 594.337 26.9268 580.372 23.1296C577.133 22.2482 573.893 21.3895 570.653 20.5306C566.637 19.4683 566.215 25.1864 569.633 26.2035Z" fill="#E27A7A"/>
<path d="M490.606 48.1142C499.464 45.5385 508.135 42.9993 516.901 40.4011C530.788 36.2824 544.68 32.214 558.547 27.9752C560.847 27.2579 563.213 26.606 565.498 25.819C566.147 25.6003 566.784 25.3621 567.433 25.1434C568.082 24.9247 569.267 24.5581 568.12 24.9012C571.909 23.7603 569.486 18.7548 566.176 19.7831C557.365 22.436 548.586 24.7512 539.839 27.3376C525.941 31.4538 512.063 35.602 498.204 39.7826C494.988 40.7519 491.784 41.7408 488.581 42.7294C484.61 43.9572 487.17 49.0621 490.606 48.1142Z" fill="#E27A7A"/>
<path d="M1132.62 49.2067C1141.46 46.5789 1150.12 43.9887 1158.87 41.3389C1172.73 37.1386 1186.6 32.9885 1200.44 28.6682C1202.74 27.9373 1205.1 27.2716 1207.38 26.4711C1208.03 26.2486 1208.67 26.0067 1209.31 25.7841C1209.96 25.5616 1211.14 25.188 1210 25.5379C1213.78 24.3747 1211.33 19.3835 1208.03 20.4313C1199.23 23.136 1190.46 25.5029 1181.73 28.1407C1167.86 32.3387 1154 36.5685 1140.17 40.8305C1136.96 41.8187 1133.76 42.8264 1130.56 43.8339C1126.6 45.085 1129.19 50.1748 1132.62 49.2067Z" fill="#E27A7A"/>
<path d="M729.73 23.9705C738.307 49.4501 736.803 77.3305 725.536 101.699L729.974 100.841C725.681 97.4138 720.639 95.0941 715.277 94.0788C709.914 93.0635 704.39 93.3827 699.175 95.0091C694.358 96.6019 689.959 99.2893 686.311 102.868C682.663 106.447 679.861 110.824 678.117 115.668C677.947 116.163 677.875 116.688 677.905 117.212C677.936 117.736 678.069 118.249 678.296 118.72C678.523 119.191 678.84 119.612 679.229 119.957C679.617 120.302 680.069 120.565 680.558 120.73C689.212 124.344 698.746 125.166 707.873 123.084C717 121.003 725.28 116.118 731.594 109.09C734.257 106.016 729.553 101.338 726.49 103.914C722.127 107.606 718.566 112.184 716.037 117.356C713.508 122.528 712.065 128.181 711.801 133.953C711.568 139.928 712.559 145.887 714.709 151.452C716.86 157.016 720.124 162.064 724.294 166.274C724.889 166.961 725.721 167.389 726.617 167.469C727.513 167.549 728.405 167.275 729.109 166.703C732.832 163.408 735.859 159.377 738.006 154.855C740.154 150.332 741.377 145.413 741.602 140.394C742.134 129.093 738.295 118.086 734.412 107.576C734.104 106.656 733.495 105.871 732.688 105.353C731.88 104.834 730.922 104.614 729.974 104.728C729.557 104.821 729.164 105.006 728.824 105.27C728.484 105.534 728.204 105.87 728.006 106.256C727.807 106.641 727.693 107.067 727.673 107.502C727.653 107.937 727.726 108.371 727.888 108.774C729.626 113.742 732.448 118.244 736.142 121.939C739.836 125.635 744.305 128.429 749.213 130.11C754.343 131.724 759.787 132.013 765.055 130.951C770.323 129.89 775.249 127.512 779.39 124.03C779.784 123.597 780.05 123.061 780.16 122.482C780.269 121.903 780.218 121.304 780.012 120.753C778.648 115.952 776.243 111.524 772.975 107.796C769.707 104.068 765.658 101.135 761.128 99.2131C756.322 97.2281 751.093 96.5471 745.952 97.2364C740.81 97.9257 735.932 99.9618 731.794 103.146C729.042 105.406 733.347 110.582 736.232 108.751C739.628 106.356 743.54 104.828 747.637 104.297C751.735 103.766 755.898 104.247 759.775 105.7C763.134 107.164 766.123 109.386 768.517 112.197C770.911 115.007 772.649 118.335 773.599 121.928L774.198 118.674C770.922 121.388 767.045 123.247 762.904 124.09C758.762 124.933 754.482 124.734 750.433 123.51C746.759 122.289 743.408 120.229 740.635 117.487C737.862 114.745 735.741 111.393 734.434 107.689L727.955 108.887C731.416 118.289 735.1 128.121 734.812 138.27C734.651 142.686 733.594 147.02 731.707 150.999C729.82 154.979 727.145 158.517 723.85 161.392L728.665 161.799C725.184 158.303 722.473 154.093 720.713 149.447C718.953 144.802 718.185 139.828 718.458 134.857C718.804 129.878 720.146 125.024 722.401 120.593C724.657 116.162 727.777 112.248 731.572 109.09L726.468 103.914C720.993 110.211 713.722 114.606 705.674 116.487C697.625 118.367 689.201 117.638 681.579 114.402L683.997 119.465C685.477 115.374 687.816 111.662 690.852 108.59C693.888 105.517 697.546 103.158 701.572 101.677C705.881 100.25 710.471 99.9402 714.927 100.777C719.383 101.614 723.564 103.57 727.09 106.468C727.433 106.723 727.823 106.903 728.238 106.997C728.652 107.091 729.081 107.096 729.497 107.014C729.914 106.931 730.309 106.762 730.658 106.516C731.008 106.271 731.304 105.954 731.528 105.587C743.621 80.2499 745.507 49.0815 734.656 23.0438C734.423 22.3279 733.958 21.7141 733.337 21.3033C732.716 20.8926 731.976 20.7092 731.239 20.7835C730.907 20.8452 730.592 20.9835 730.32 21.1877C730.048 21.392 729.825 21.6569 729.669 21.9622C729.513 22.2674 729.427 22.605 729.419 22.9491C729.41 23.2933 729.478 23.6349 729.619 23.9479L729.73 23.9705Z" fill="#603631"/>
<path d="M651.823 47.9739C660.98 45.6233 670.151 43.2349 679.338 40.8089C693.953 36.9816 708.569 33.1393 723.184 29.2819L733.281 26.6147L731.727 26.4792C740.514 28.9052 749.309 31.3311 758.111 33.7571C772.061 37.5994 786.025 41.4194 800.005 45.2165C802.357 45.8494 804.709 46.4595 807.061 47.0472C807.727 47.2054 808.392 47.3861 809.058 47.5443L809.546 47.6801C811.765 48.1999 809.213 47.6801 809.746 47.6801C813.562 48.7198 814.051 43.1596 810.7 42.2781C801.602 39.7693 792.549 37.0572 783.451 34.5031C769.294 30.5402 755.13 26.6223 740.958 22.7498C738.229 22.004 735.522 21.1677 732.77 20.4896C731.644 20.2851 730.484 20.4025 729.42 20.8287L723.961 22.2753C710.011 25.967 696.061 29.6663 682.111 33.373C671.527 36.1983 660.898 38.8877 650.358 41.8712L649.826 42.0069C646.076 43.024 648.494 48.7876 651.823 47.9287L651.823 47.9739Z" fill="#E27A7A"/>
<path d="M1049.04 24.3756C1057.61 49.863 1056.11 77.7501 1044.84 102.127L1049.28 101.246C1044.99 97.819 1039.95 95.4993 1034.58 94.484C1029.22 93.4687 1023.7 93.7879 1018.48 95.4144C1013.67 97.0116 1009.27 99.7006 1005.62 103.279C1001.98 106.857 999.173 111.232 997.425 116.073C997.254 116.568 997.182 117.093 997.213 117.617C997.244 118.141 997.376 118.654 997.604 119.125C997.831 119.597 998.148 120.017 998.536 120.362C998.925 120.707 999.377 120.97 999.866 121.136C1008.52 124.756 1018.05 125.581 1027.18 123.499C1036.31 121.417 1044.59 116.529 1050.9 109.495C1053.56 106.422 1048.86 101.766 1045.8 104.32C1041.44 108.013 1037.88 112.592 1035.35 117.764C1032.82 122.935 1031.38 128.587 1031.11 134.358C1030.88 140.336 1031.87 146.298 1034.02 151.866C1036.17 157.434 1039.43 162.486 1043.6 166.702C1044.2 167.381 1045.04 167.801 1045.93 167.876C1046.82 167.952 1047.71 167.677 1048.42 167.108C1052.12 163.822 1055.14 159.805 1057.28 155.299C1059.43 150.793 1060.65 145.891 1060.89 140.89C1061.42 129.589 1057.58 118.582 1053.7 108.094C1053.39 107.17 1052.79 106.38 1051.98 105.857C1051.17 105.335 1050.21 105.111 1049.26 105.224C1048.84 105.316 1048.45 105.501 1048.11 105.765C1047.77 106.029 1047.49 106.366 1047.29 106.751C1047.09 107.137 1046.98 107.562 1046.96 107.997C1046.94 108.432 1047.01 108.867 1047.17 109.269C1048.91 114.239 1051.73 118.742 1055.42 122.439C1059.12 126.135 1063.59 128.928 1068.5 130.606C1073.63 132.219 1079.07 132.508 1084.34 131.447C1089.61 130.386 1094.53 128.007 1098.68 124.526C1099.07 124.094 1099.34 123.558 1099.45 122.978C1099.56 122.399 1099.51 121.799 1099.3 121.249C1097.93 116.449 1095.52 112.022 1092.26 108.295C1088.99 104.567 1084.94 101.633 1080.41 99.7088C1075.61 97.7238 1070.38 97.0426 1065.24 97.732C1060.1 98.4213 1055.22 100.458 1051.08 103.642C1048.33 105.902 1052.65 111.078 1055.52 109.247C1058.91 106.851 1062.82 105.323 1066.92 104.792C1071.02 104.261 1075.18 104.743 1079.06 106.196C1082.42 107.661 1085.41 109.885 1087.81 112.7C1090.2 115.516 1091.94 118.848 1092.88 122.447L1093.48 119.169C1090.21 121.889 1086.33 123.751 1082.19 124.594C1078.05 125.437 1073.77 125.235 1069.72 124.006C1066.04 122.786 1062.69 120.726 1059.92 117.984C1057.15 115.242 1055.03 111.89 1053.72 108.185L1047.24 109.36C1050.7 118.762 1054.39 128.617 1054.1 138.743C1053.96 143.157 1052.93 147.494 1051.07 151.482C1049.2 155.469 1046.55 159.02 1043.27 161.91L1048.08 162.339C1044.6 158.839 1041.89 154.624 1040.13 149.975C1038.37 145.326 1037.6 140.35 1037.88 135.375C1038.23 130.398 1039.57 125.546 1041.83 121.115C1044.08 116.685 1047.2 112.77 1050.99 109.608L1045.89 104.433C1040.41 110.73 1033.14 115.128 1025.09 117.012C1017.05 118.897 1008.62 118.173 1001 114.943L1003.44 119.983C1004.91 115.892 1007.24 112.179 1010.28 109.105C1013.31 106.032 1016.97 103.673 1020.99 102.195C1025.3 100.78 1029.89 100.477 1034.34 101.313C1038.8 102.15 1042.98 104.099 1046.51 106.987C1046.85 107.241 1047.24 107.421 1047.66 107.515C1048.07 107.609 1048.5 107.615 1048.92 107.532C1049.33 107.449 1049.73 107.28 1050.08 107.034C1050.43 106.789 1050.72 106.472 1050.95 106.105C1063.04 80.7907 1064.93 49.5997 1054.07 23.5619C1053.85 22.8437 1053.38 22.2276 1052.76 21.8163C1052.14 21.4049 1051.4 21.2232 1050.66 21.3017C1050.33 21.3644 1050.02 21.5023 1049.75 21.7051C1049.48 21.9079 1049.26 22.1703 1049.1 22.4727C1048.94 22.775 1048.86 23.1094 1048.85 23.4508C1048.84 23.7921 1048.9 24.1315 1049.04 24.4435L1049.04 24.3756Z" fill="#B2282B"/>
<path d="M971.13 48.4037C980.287 46.038 989.459 43.6423 998.645 41.2163C1013.26 37.389 1027.88 33.5467 1042.49 29.6893L1052.59 27.0221L1051.03 26.8866L1077.42 34.1644C1091.37 38.0068 1105.33 41.8265 1119.31 45.6236C1121.66 46.2565 1124.02 46.8669 1126.37 47.4545C1127.03 47.6353 1127.7 47.7935 1128.37 47.9517L1128.85 48.0872C1131.07 48.607 1128.52 48.0872 1129.05 48.0872C1132.87 49.1495 1133.36 43.567 1130.01 42.6855C1120.91 40.1767 1111.86 37.4643 1102.76 34.9102C1088.6 30.9473 1074.44 27.0297 1060.27 23.1572C1057.54 22.4113 1054.83 21.575 1052.08 20.897C1050.95 20.704 1049.79 20.8211 1048.73 21.2361L1043.27 22.6824L1001.42 33.7801C990.835 36.6054 980.206 39.2951 969.666 42.2786C969.492 42.3417 969.314 42.3944 969.133 42.4366C965.405 43.4311 967.802 49.2176 971.13 48.3587L971.13 48.4037Z" fill="#E27A7A"/>
<path d="M1447.36 45.3971C1450.6 69.1971 1446.49 92.6355 1441.9 115.961C1439.87 125.03 1438.5 134.239 1437.8 143.513C1437.53 149.693 1438.08 155.881 1439.44 161.911C1440.9 169.795 1444.62 177.061 1450.13 182.796C1453.52 186.029 1457.66 188.344 1462.15 189.529C1466.65 190.714 1471.37 190.73 1475.87 189.576C1480.15 188.461 1484.05 186.216 1487.2 183.069C1490.35 179.922 1492.63 175.984 1493.8 171.653C1496.4 161.663 1492.52 149.322 1483.06 144.53C1472.63 139.309 1459.01 145.005 1457.43 157.368C1457 160.193 1457.37 163.083 1458.49 165.704C1459.61 168.325 1461.44 170.568 1463.76 172.173C1468.44 175.134 1475.3 174.433 1477.94 169.054C1478.48 167.916 1478.79 166.675 1478.84 165.409C1478.88 164.144 1478.67 162.883 1478.2 161.708C1477.93 160.98 1477.43 160.363 1476.78 159.954C1476.13 159.546 1475.37 159.367 1474.61 159.448C1474.27 159.52 1473.94 159.669 1473.66 159.883C1473.38 160.097 1473.15 160.372 1472.99 160.687C1472.83 161.003 1472.73 161.351 1472.72 161.707C1472.7 162.063 1472.76 162.419 1472.9 162.747C1474.54 167.11 1468.66 169.28 1465.71 166.838C1462.34 164.058 1462.98 158.543 1464.84 155.108C1465.94 153.112 1467.55 151.465 1469.51 150.351C1471.47 149.238 1473.7 148.701 1475.94 148.802C1478.13 148.865 1480.27 149.528 1482.12 150.721C1483.98 151.914 1485.48 153.593 1486.48 155.583C1488.17 158.99 1488.83 162.827 1488.39 166.617C1487.96 170.406 1486.43 173.981 1484.02 176.896C1481.67 179.609 1478.69 181.68 1475.36 182.924C1472.03 184.167 1468.44 184.543 1464.93 184.016C1451.62 182.118 1446.21 168.195 1444.56 156.577C1442.63 142.722 1446.01 128.822 1448.62 115.306C1453.06 92.4774 1456.63 69.3555 1453.33 46.0979C1453.22 45.275 1452.85 44.5113 1452.27 43.9265C1451.69 43.3416 1450.94 42.9685 1450.13 42.8656C1449.77 42.8221 1449.4 42.8628 1449.06 42.9848C1448.71 43.1069 1448.4 43.3071 1448.14 43.5703C1447.88 43.8335 1447.69 44.1529 1447.57 44.5045C1447.45 44.8561 1447.41 45.2308 1447.45 45.6004L1447.36 45.3971Z" fill="#E27A7A"/>
<path d="M1284.75 44.0184C1281.76 64.9481 1284.22 85.8551 1288.11 106.491C1289.7 115.057 1291.57 123.601 1292.85 132.235C1294.02 138.74 1294.35 145.375 1293.81 151.966C1292.59 163.019 1288.99 176.241 1278.28 181.349C1275.01 182.914 1271.4 183.612 1267.8 183.378C1264.2 183.145 1260.71 181.989 1257.66 180.016C1254.81 178.065 1252.55 175.333 1251.16 172.133C1249.77 168.934 1249.29 165.398 1249.78 161.934C1250.01 159.409 1250.81 156.973 1252.14 154.828C1253.47 152.682 1255.28 150.888 1257.42 149.593C1259.6 148.363 1262.09 147.84 1264.57 148.095C1267.05 148.349 1269.39 149.369 1271.29 151.017C1273 152.628 1274.14 154.779 1274.52 157.126C1274.9 159.474 1274.49 161.882 1273.37 163.968C1272.79 165.067 1271.9 165.962 1270.81 166.535C1269.72 167.107 1268.49 167.331 1267.27 167.178C1266.85 167.094 1266.45 166.917 1266.1 166.66C1265.75 166.403 1265.46 166.071 1265.25 165.689C1265.04 165.306 1264.91 164.881 1264.87 164.443C1264.84 164.006 1264.9 163.566 1265.05 163.154C1266.2 160.103 1261.3 156.577 1259.95 159.9C1259.48 161.138 1259.26 162.46 1259.31 163.786C1259.36 165.111 1259.67 166.414 1260.22 167.615C1260.77 168.815 1261.56 169.89 1262.53 170.775C1263.5 171.659 1264.64 172.334 1265.87 172.76C1268.57 173.587 1271.47 173.349 1274.01 172.093C1276.54 170.836 1278.52 168.653 1279.54 165.98C1284.16 154.679 1274.9 142.27 1263.47 141.75C1251.6 141.208 1243.86 151.401 1243.5 162.748C1243.39 167.387 1244.5 171.972 1246.72 176.023C1248.94 180.075 1252.19 183.444 1256.13 185.779C1260.15 188.171 1264.69 189.496 1269.34 189.634C1274 189.773 1278.61 188.719 1282.76 186.57C1290.15 182.638 1294.7 175.269 1297.27 167.291C1299.04 161.823 1300.07 156.135 1300.33 150.384C1300.46 141.524 1299.56 132.679 1297.67 124.03C1293.45 101.428 1288.28 78.8257 1289.77 55.5229C1289.97 52.336 1290.28 49.1491 1290.72 45.9622C1291.17 42.7753 1285.46 40.0404 1284.91 43.9506L1284.75 44.0184Z" fill="#E27A7A"/>
<path d="M1207.18 23.9705C1215.76 49.4501 1214.25 77.3305 1202.99 101.699L1207.42 100.841C1203.13 97.4136 1198.08 95.0939 1192.71 94.0787C1187.35 93.0634 1181.82 93.3826 1176.6 95.0091C1171.78 96.5959 1167.39 99.2814 1163.74 102.861C1160.1 106.441 1157.3 110.821 1155.57 115.668C1155.39 116.161 1155.32 116.686 1155.35 117.209C1155.37 117.733 1155.5 118.246 1155.73 118.718C1155.95 119.19 1156.27 119.611 1156.66 119.957C1157.05 120.302 1157.5 120.565 1157.99 120.73C1166.64 124.344 1176.17 125.166 1185.3 123.084C1194.43 121.003 1202.71 116.118 1209.02 109.09C1211.68 106.016 1207 101.338 1203.94 103.914C1199.57 107.605 1196.01 112.182 1193.48 117.354C1190.94 122.526 1189.5 128.179 1189.23 133.953C1189 139.927 1189.99 145.885 1192.14 151.449C1194.3 157.012 1197.56 162.061 1201.72 166.274C1202.32 166.961 1203.15 167.389 1204.04 167.469C1204.94 167.549 1205.83 167.275 1206.54 166.703C1210.25 163.401 1213.26 159.368 1215.4 154.846C1217.53 150.324 1218.75 145.408 1218.96 140.394C1219.47 129.093 1215.63 118.086 1211.75 107.576C1211.45 106.653 1210.84 105.866 1210.03 105.347C1209.22 104.828 1208.26 104.61 1207.31 104.728C1206.9 104.824 1206.51 105.011 1206.17 105.276C1205.83 105.541 1205.56 105.878 1205.36 106.263C1205.16 106.648 1205.05 107.072 1205.03 107.506C1205.01 107.94 1205.09 108.372 1205.25 108.774C1206.98 113.743 1209.8 118.246 1213.49 121.942C1217.18 125.639 1221.64 128.432 1226.55 130.11C1231.69 131.726 1237.13 132.016 1242.41 130.955C1247.68 129.893 1252.61 127.514 1256.75 124.03C1257.14 123.595 1257.4 123.058 1257.51 122.479C1257.62 121.9 1257.56 121.302 1257.35 120.753C1255.99 115.953 1253.59 111.526 1250.33 107.798C1247.06 104.07 1243.02 101.136 1238.49 99.2131C1233.68 97.2281 1228.45 96.5471 1223.31 97.2364C1218.17 97.9257 1213.29 99.9618 1209.16 103.146C1206.38 105.406 1210.71 110.582 1213.59 108.751C1216.98 106.356 1220.89 104.828 1224.99 104.297C1229.08 103.766 1233.24 104.247 1237.11 105.7C1240.48 107.157 1243.47 109.376 1245.87 112.188C1248.26 115 1250 118.331 1250.94 121.928L1251.54 118.674C1248.27 121.388 1244.39 123.247 1240.25 124.09C1236.12 124.933 1231.84 124.734 1227.79 123.51C1224.12 122.294 1220.76 120.235 1217.98 117.493C1215.21 114.75 1213.08 111.397 1211.77 107.689L1205.32 108.887C1208.78 118.289 1212.46 128.121 1212.15 138.27C1212.02 142.666 1211 146.988 1209.15 150.966C1207.31 154.943 1204.68 158.492 1201.43 161.392L1206.25 161.799C1202.76 158.308 1200.04 154.098 1198.28 149.452C1196.51 144.806 1195.74 139.83 1196.02 134.857C1196.37 129.878 1197.71 125.024 1199.96 120.593C1202.22 116.162 1205.34 112.248 1209.13 109.09L1204.05 103.914C1198.57 110.21 1191.3 114.604 1183.24 116.485C1175.19 118.365 1166.77 117.637 1159.14 114.402L1161.58 119.465C1163.05 115.375 1165.39 111.663 1168.42 108.59C1171.45 105.518 1175.11 103.158 1179.13 101.677C1183.45 100.25 1188.04 99.9404 1192.5 100.777C1196.96 101.614 1201.14 103.57 1204.67 106.468C1205.01 106.727 1205.41 106.909 1205.82 107.005C1206.24 107.101 1206.66 107.107 1207.08 107.024C1207.5 106.941 1207.9 106.771 1208.25 106.523C1208.59 106.276 1208.89 105.957 1209.11 105.587C1221.2 80.2499 1223.09 49.0815 1212.26 23.0438C1212.02 22.3261 1211.55 21.7117 1210.93 21.3011C1210.31 20.8906 1209.56 20.7081 1208.82 20.7835C1208.49 20.8453 1208.18 20.9835 1207.9 21.1877C1207.63 21.392 1207.41 21.657 1207.25 21.9622C1207.1 22.2675 1207.01 22.605 1207 22.9491C1206.99 23.2933 1207.06 23.6349 1207.2 23.9479L1207.18 23.9705Z" fill="#603631"/>
<path d="M1209.2 26.2035C1218.08 28.7123 1226.77 31.1534 1235.58 33.5945C1249.54 37.4594 1263.48 41.3695 1277.48 45.1215C1279.81 45.7318 1282.16 46.4326 1284.51 46.975C1285.18 47.1333 1285.84 47.2688 1286.51 47.427C1287.17 47.5852 1288.37 47.9018 1287.22 47.5853C1291.03 48.625 1291.52 43.0649 1288.17 42.1834C1279.3 39.765 1270.62 37.0754 1261.83 34.6343C1247.87 30.7618 1233.9 26.9268 1219.94 23.1296C1216.7 22.2482 1213.46 21.3895 1210.22 20.5306C1206.2 19.4683 1205.78 25.1864 1209.2 26.2035Z" fill="#E27A7A"/>
<path d="M1369.3 23.9705C1377.87 49.4501 1376.37 77.3305 1365.1 101.699L1369.54 100.841C1365.25 97.4138 1360.21 95.0941 1354.84 94.0788C1349.48 93.0635 1343.96 93.3827 1338.74 95.0091C1333.92 96.6019 1329.53 99.2893 1325.88 102.868C1322.23 106.447 1319.43 110.824 1317.68 115.668C1317.51 116.163 1317.44 116.688 1317.47 117.212C1317.5 117.736 1317.64 118.249 1317.86 118.72C1318.09 119.191 1318.41 119.612 1318.8 119.957C1319.18 120.302 1319.64 120.565 1320.12 120.73C1328.78 124.344 1338.31 125.166 1347.44 123.084C1356.57 121.003 1364.85 116.118 1371.16 109.09C1373.82 106.016 1369.12 101.338 1366.06 103.914C1361.69 107.606 1358.13 112.184 1355.6 117.356C1353.07 122.528 1351.63 128.181 1351.37 133.953C1351.13 139.928 1352.12 145.887 1354.28 151.452C1356.43 157.016 1359.69 162.064 1363.86 166.274C1364.46 166.961 1365.29 167.389 1366.18 167.469C1367.08 167.549 1367.97 167.275 1368.68 166.703C1372.4 163.408 1375.43 159.377 1377.57 154.855C1379.72 150.332 1380.94 145.413 1381.17 140.394C1381.7 129.093 1377.86 118.086 1373.98 107.576C1373.67 106.656 1373.06 105.871 1372.25 105.353C1371.45 104.834 1370.49 104.614 1369.54 104.728C1369.12 104.821 1368.73 105.006 1368.39 105.27C1368.05 105.534 1367.77 105.87 1367.57 106.256C1367.37 106.641 1367.26 107.067 1367.24 107.502C1367.22 107.937 1367.29 108.371 1367.45 108.774C1369.19 113.742 1372.01 118.244 1375.71 121.939C1379.4 125.635 1383.87 128.429 1388.78 130.11C1393.91 131.724 1399.35 132.013 1404.62 130.951C1409.89 129.89 1414.82 127.512 1418.96 124.03C1419.35 123.597 1419.62 123.061 1419.73 122.482C1419.84 121.903 1419.78 121.304 1419.58 120.753C1418.21 115.952 1415.81 111.524 1412.54 107.796C1409.27 104.068 1405.22 101.135 1400.69 99.2131C1395.89 97.2281 1390.66 96.5471 1385.52 97.2364C1380.38 97.9257 1375.5 99.9618 1371.36 103.146C1368.61 105.406 1372.91 110.582 1375.8 108.751C1379.19 106.356 1383.11 104.828 1387.2 104.297C1391.3 103.766 1395.46 104.247 1399.34 105.7C1402.7 107.164 1405.69 109.386 1408.08 112.197C1410.48 115.007 1412.22 118.335 1413.17 121.928L1413.76 118.674C1410.49 121.388 1406.61 123.247 1402.47 124.09C1398.33 124.933 1394.05 124.734 1390 123.51C1386.33 122.289 1382.97 120.229 1380.2 117.487C1377.43 114.745 1375.31 111.393 1374 107.689L1367.52 108.887C1370.98 118.289 1374.67 128.121 1374.38 138.27C1374.22 142.686 1373.16 147.02 1371.27 150.999C1369.39 154.979 1366.71 158.517 1363.42 161.392L1368.23 161.799C1364.75 158.303 1362.04 154.093 1360.28 149.447C1358.52 144.802 1357.75 139.828 1358.02 134.857C1358.37 129.878 1359.71 125.024 1361.97 120.593C1364.22 116.162 1367.34 112.248 1371.14 109.09L1366.03 103.914C1360.56 110.211 1353.29 114.606 1345.24 116.487C1337.19 118.367 1328.77 117.638 1321.15 114.402L1323.56 119.465C1325.04 115.374 1327.38 111.662 1330.42 108.59C1333.45 105.517 1337.11 103.158 1341.14 101.677C1345.45 100.25 1350.04 99.9402 1354.49 100.777C1358.95 101.614 1363.13 103.57 1366.66 106.468C1367 106.723 1367.39 106.903 1367.8 106.997C1368.22 107.091 1368.65 107.096 1369.06 107.014C1369.48 106.931 1369.88 106.762 1370.22 106.516C1370.57 106.271 1370.87 105.954 1371.09 105.587C1383.19 80.2499 1385.07 49.0815 1374.22 23.0438C1373.99 22.3279 1373.52 21.7141 1372.9 21.3033C1372.28 20.8926 1371.54 20.7092 1370.81 20.7835C1370.47 20.8452 1370.16 20.9835 1369.89 21.1877C1369.61 21.392 1369.39 21.6569 1369.24 21.9622C1369.08 22.2674 1368.99 22.605 1368.98 22.9491C1368.98 23.2933 1369.04 23.6349 1369.19 23.9479L1369.3 23.9705Z" fill="#603631"/>
<path d="M1291.39 47.9739C1300.55 45.6233 1309.72 43.2349 1318.9 40.8089C1333.52 36.9816 1348.14 33.1393 1362.75 29.2819L1372.85 26.6147L1371.29 26.4792C1380.08 28.9052 1388.88 31.3311 1397.68 33.7571C1411.63 37.5994 1425.59 41.4194 1439.57 45.2165C1441.92 45.8494 1444.28 46.4595 1446.63 47.0472C1447.29 47.2054 1447.96 47.3861 1448.62 47.5443L1449.11 47.6801C1451.33 48.1999 1448.78 47.6801 1449.31 47.6801C1453.13 48.7198 1453.62 43.1596 1450.27 42.2781C1441.17 39.7693 1432.12 37.0572 1423.02 34.5031C1408.86 30.5402 1394.7 26.6223 1380.52 22.7498C1377.8 22.004 1375.09 21.1677 1372.34 20.4896C1371.21 20.2851 1370.05 20.4025 1368.99 20.8287L1363.53 22.2753C1349.58 25.967 1335.63 29.6663 1321.68 33.373C1311.09 36.1983 1300.46 38.8877 1289.92 41.8712L1289.39 42.0069C1285.64 43.024 1288.06 48.7876 1291.39 47.9287L1291.39 47.9739Z" fill="#E27A7A"/>
<path d="M324.43 44.018C321.434 64.9476 323.897 85.8546 327.78 106.49C329.378 115.057 331.22 123.6 332.529 132.234C333.699 138.74 334.02 145.375 333.483 151.966C332.24 163.018 328.668 176.241 317.95 181.349C314.682 182.913 311.079 183.611 307.475 183.378C303.871 183.145 300.384 181.988 297.336 180.015C294.483 178.065 292.229 175.332 290.835 172.133C289.441 168.933 288.964 165.397 289.459 161.933C289.666 159.404 290.467 156.962 291.796 154.814C293.125 152.666 294.941 150.875 297.092 149.593C299.271 148.363 301.767 147.84 304.245 148.094C306.724 148.349 309.067 149.368 310.961 151.017C312.672 152.632 313.806 154.782 314.184 157.128C314.562 159.473 314.161 161.88 313.046 163.968C312.461 165.063 311.566 165.954 310.479 166.526C309.391 167.098 308.16 167.325 306.944 167.177C306.519 167.097 306.117 166.922 305.766 166.666C305.414 166.41 305.123 166.078 304.911 165.694C304.699 165.31 304.573 164.884 304.541 164.445C304.509 164.006 304.572 163.565 304.725 163.154C305.857 160.103 300.975 156.577 299.599 159.899C299.134 161.139 298.919 162.462 298.967 163.789C299.016 165.116 299.327 166.419 299.883 167.62C300.438 168.821 301.226 169.896 302.199 170.779C303.173 171.662 304.311 172.336 305.546 172.76C308.244 173.587 311.149 173.349 313.682 172.092C316.215 170.835 318.191 168.653 319.215 165.979C323.831 154.678 314.578 142.27 303.128 141.75C291.278 141.207 283.534 151.401 283.157 162.747C283.053 167.387 284.171 171.971 286.395 176.021C288.619 180.072 291.869 183.441 295.805 185.779C299.822 188.174 304.367 189.502 309.02 189.64C313.673 189.779 318.285 188.723 322.433 186.57C329.844 182.637 334.393 175.269 336.945 167.29C338.734 161.827 339.772 156.137 340.029 150.384C340.156 141.522 339.255 132.676 337.344 124.03C333.15 101.427 327.98 78.8253 329.444 55.5224C329.644 52.3355 329.977 49.1486 330.421 45.9617C330.865 42.7748 325.162 40.0399 324.607 43.9501L324.43 44.018Z" fill="#603631"/>
<path d="M165.02 45.3971C168.259 69.1971 164.154 92.6355 159.561 115.961C157.529 125.03 156.157 134.239 155.456 143.513C155.191 149.693 155.744 155.881 157.098 161.911C158.563 169.795 162.284 177.061 167.793 182.796C171.184 186.029 175.317 188.344 179.814 189.529C184.311 190.714 189.028 190.73 193.533 189.576C197.806 188.461 201.714 186.216 204.863 183.069C208.011 179.922 210.288 175.984 211.462 171.653C214.058 161.663 210.175 149.322 200.722 144.53C190.293 139.309 176.669 145.005 175.094 157.368C174.664 160.193 175.03 163.083 176.15 165.704C177.269 168.325 179.096 170.568 181.418 172.173C186.1 175.134 192.956 174.433 195.597 169.054C196.144 167.916 196.45 166.675 196.496 165.409C196.542 164.144 196.326 162.883 195.863 161.708C195.593 160.98 195.094 160.363 194.443 159.954C193.793 159.546 193.028 159.367 192.268 159.448C191.926 159.52 191.603 159.669 191.323 159.883C191.044 160.097 190.814 160.372 190.65 160.687C190.487 161.003 190.394 161.351 190.379 161.707C190.363 162.063 190.425 162.419 190.56 162.747C192.202 167.11 186.321 169.28 183.37 166.838C179.997 164.058 180.641 158.543 182.505 155.108C183.598 153.112 185.214 151.465 187.174 150.351C189.133 149.238 191.358 148.701 193.6 148.802C195.792 148.865 197.927 149.528 199.782 150.721C201.636 151.914 203.142 153.593 204.14 155.583C205.826 158.99 206.491 162.827 206.053 166.617C205.615 170.406 204.093 173.981 201.677 176.896C199.33 179.609 196.355 181.68 193.022 182.924C189.69 184.167 186.105 184.543 182.594 184.016C169.28 182.118 163.866 168.195 162.224 156.577C160.293 142.722 163.666 128.822 166.284 115.306C170.722 92.4774 174.295 69.3555 170.989 46.0979C170.882 45.275 170.51 44.5113 169.932 43.9265C169.354 43.3416 168.602 42.9685 167.793 42.8656C167.43 42.8221 167.062 42.8628 166.717 42.9848C166.372 43.1069 166.058 43.3071 165.8 43.5703C165.542 43.8335 165.345 44.1529 165.225 44.5045C165.106 44.8561 165.066 45.2308 165.108 45.6004L165.02 45.3971Z" fill="#E27A7A"/>
<path d="M246.855 23.9705C255.432 49.4501 253.927 77.3305 242.661 101.699L247.099 100.841C242.802 97.4136 237.756 95.0939 232.39 94.0786C227.024 93.0634 221.497 93.3826 216.278 95.0091C211.463 96.6064 207.066 99.2953 203.418 102.874C199.771 106.452 196.968 110.826 195.22 115.668C195.049 116.163 194.977 116.688 195.008 117.212C195.039 117.736 195.171 118.249 195.399 118.72C195.626 119.191 195.943 119.612 196.331 119.957C196.72 120.302 197.171 120.565 197.661 120.73C206.314 124.344 215.849 125.166 224.976 123.084C234.102 121.003 242.382 116.118 248.697 109.09C251.359 106.016 246.655 101.338 243.593 103.914C239.233 107.61 235.676 112.189 233.147 117.36C230.618 122.531 229.173 128.182 228.904 133.953C228.676 139.927 229.669 145.885 231.82 151.449C233.97 157.012 237.231 162.061 241.396 166.274C241.991 166.961 242.823 167.389 243.719 167.469C244.616 167.549 245.508 167.275 246.211 166.703C249.918 163.4 252.929 159.366 255.061 154.844C257.193 150.322 258.402 145.406 258.615 140.394C259.148 129.093 255.309 118.086 251.426 107.576C251.121 106.653 250.513 105.866 249.705 105.347C248.896 104.828 247.937 104.61 246.988 104.728C246.57 104.821 246.178 105.006 245.838 105.27C245.497 105.534 245.218 105.87 245.019 106.256C244.821 106.641 244.707 107.067 244.687 107.502C244.667 107.937 244.74 108.371 244.902 108.774C246.64 113.742 249.462 118.244 253.156 121.939C256.85 125.635 261.319 128.429 266.226 130.11C271.357 131.724 276.801 132.013 282.069 130.951C287.337 129.89 292.263 127.512 296.404 124.03C296.802 123.6 297.071 123.064 297.181 122.483C297.291 121.903 297.237 121.303 297.025 120.753C295.663 115.955 293.261 111.529 289.997 107.801C286.732 104.073 282.689 101.139 278.164 99.2131C273.358 97.2281 268.129 96.5471 262.988 97.2364C257.846 97.9257 252.968 99.9618 248.83 103.146C246.056 105.406 250.383 110.582 253.268 108.751C256.664 106.358 260.576 104.831 264.674 104.3C268.771 103.769 272.934 104.249 276.811 105.7C280.172 107.16 283.164 109.38 285.559 112.192C287.954 115.003 289.689 118.333 290.635 121.928L291.234 118.674C287.962 121.388 284.089 123.247 279.951 124.09C275.813 124.933 271.536 124.734 267.491 123.51C263.812 122.294 260.456 120.235 257.679 117.493C254.902 114.75 252.778 111.397 251.47 107.689L244.991 108.887C248.475 118.289 252.158 128.121 251.848 138.27C251.709 142.683 250.676 147.02 248.812 151.007C246.949 154.994 244.295 158.545 241.019 161.437L245.834 161.844C242.353 158.348 239.642 154.138 237.882 149.492C236.122 144.847 235.354 139.873 235.627 134.902C235.973 129.923 237.315 125.07 239.571 120.639C241.826 116.208 244.946 112.293 248.741 109.135L243.637 103.96C238.162 110.256 230.892 114.652 222.843 116.532C214.794 118.412 206.37 117.683 198.748 114.447L201.189 119.51C202.66 115.418 204.995 111.705 208.027 108.632C211.06 105.559 214.717 103.2 218.741 101.722C223.049 100.293 227.64 99.9824 232.097 100.819C236.553 101.656 240.734 103.613 244.259 106.514C244.602 106.768 244.992 106.948 245.407 107.042C245.821 107.136 246.25 107.142 246.666 107.059C247.083 106.976 247.478 106.807 247.828 106.561C248.177 106.316 248.473 105.999 248.697 105.632C260.79 80.2951 262.676 49.1267 251.848 23.089C251.607 22.3736 251.136 21.7616 250.512 21.3516C249.889 20.9416 249.147 20.7574 248.408 20.8288C248.076 20.8905 247.761 21.0287 247.489 21.233C247.217 21.4372 246.995 21.7022 246.838 22.0074C246.682 22.3127 246.596 22.6502 246.588 22.9944C246.579 23.3385 246.648 23.6801 246.788 23.9931L246.855 23.9705Z" fill="#B2282B"/>
<path d="M168.947 47.9739C178.134 45.6233 187.305 43.2349 196.462 40.8089C211.078 36.9816 225.693 33.1393 240.309 29.2819L250.427 26.6147L248.852 26.4792C257.727 28.9052 266.522 31.3311 275.235 33.7571C289.214 37.5994 303.186 41.4194 317.151 45.2165C319.488 45.8494 321.84 46.4595 324.207 47.0472C324.851 47.2054 325.517 47.3861 326.182 47.5443L326.693 47.6801C328.912 48.1999 326.338 47.6801 326.892 47.6801C330.687 48.7198 331.197 43.1596 327.846 42.2781C318.727 39.7693 309.673 37.0572 300.575 34.5031C286.419 30.5402 272.254 26.6223 258.083 22.7498C255.353 22.004 252.646 21.1677 249.895 20.4896C248.776 20.2834 247.623 20.4009 246.566 20.8287L241.085 22.2753C227.15 25.967 213.2 29.6663 199.236 33.373C188.651 36.1983 178.023 38.8877 167.483 41.8712L166.972 42.0069C163.222 43.024 165.641 48.7876 168.947 47.9287L168.947 47.9739Z" fill="#E27A7A"/>
<path d="M485.414 46.9582C488.654 70.7809 484.571 94.2194 479.978 117.522C477.937 126.597 476.564 135.814 475.873 145.097C475.585 151.27 476.138 157.454 477.515 163.473C478.976 171.364 482.697 178.638 488.21 184.38C491.616 187.586 495.755 189.874 500.251 191.034C504.747 192.195 509.456 192.192 513.95 191.025C518.224 189.918 522.133 187.678 525.282 184.534C528.431 181.39 530.707 177.454 531.879 173.124C534.475 163.111 530.592 150.793 521.139 146.001C510.71 140.757 497.086 146.453 495.511 158.839C495.084 161.661 495.449 164.548 496.564 167.167C497.679 169.787 499.499 172.032 501.812 173.644C506.517 176.582 513.351 175.904 515.991 170.524C516.548 169.39 516.86 168.148 516.906 166.881C516.952 165.614 516.731 164.352 516.258 163.179C515.997 162.444 515.5 161.82 514.848 161.41C514.195 160.999 513.425 160.826 512.663 160.918C512.322 160.994 512.002 161.144 511.725 161.36C511.448 161.575 511.221 161.85 511.06 162.165C510.899 162.48 510.808 162.828 510.794 163.183C510.779 163.537 510.842 163.891 510.977 164.218C512.596 168.558 506.716 170.728 503.787 168.309C500.414 165.507 501.036 160.014 502.922 156.579C504.01 154.626 505.595 153.008 507.51 151.896C509.425 150.784 511.599 150.22 513.803 150.261C516.007 150.303 518.159 150.95 520.032 152.133C521.905 153.317 523.43 154.993 524.446 156.986C526.138 160.392 526.806 164.23 526.368 168.021C525.93 171.812 524.405 175.387 521.983 178.3C519.637 181.013 516.663 183.086 513.33 184.33C509.997 185.573 506.411 185.948 502.9 185.419C489.586 183.521 484.172 169.598 482.552 157.958C480.621 144.102 483.972 130.225 486.613 116.686C491.05 93.8804 494.601 70.7586 491.295 47.5009C491.192 46.674 490.823 45.9051 490.244 45.3157C489.666 44.7264 488.911 44.35 488.099 44.2461C487.738 44.2111 487.374 44.2578 487.033 44.3829C486.691 44.508 486.381 44.7085 486.125 44.9698C485.868 45.231 485.672 45.5466 485.549 45.8943C485.426 46.242 485.38 46.613 485.414 46.9808L485.414 46.9582Z" fill="#E27A7A"/>
<path d="M2.41454 44.0184C-0.581041 64.9481 1.88202 85.8551 5.76519 106.491C7.36284 115.057 9.22679 123.601 10.5138 132.235C11.6844 138.74 12.0052 145.375 11.4679 151.966C10.2475 163.019 6.65279 176.241 -4.06476 181.349C-7.33292 182.914 -10.9361 183.612 -14.5399 183.378C-18.1437 183.145 -21.6312 181.989 -24.6789 180.016C-27.5325 178.065 -29.7864 175.333 -31.1802 172.133C-32.5741 168.934 -33.0511 165.398 -32.5561 161.934C-32.3331 159.409 -31.5249 156.973 -30.1979 154.828C-28.8709 152.682 -27.063 150.888 -24.9229 149.593C-22.7441 148.363 -20.2484 147.84 -17.77 148.095C-15.2915 148.349 -12.9484 149.369 -11.0545 151.017C-9.33623 152.628 -8.19725 154.779 -7.8192 157.126C-7.44114 159.474 -7.84578 161.882 -8.96863 163.968C-9.54969 165.067 -10.4433 165.962 -11.5323 166.535C-12.6212 167.107 -13.8546 167.331 -15.0708 167.178C-15.4937 167.094 -15.8936 166.917 -16.2428 166.66C-16.592 166.403 -16.8822 166.071 -17.0933 165.689C-17.3043 165.306 -17.4312 164.881 -17.4652 164.443C-17.4991 164.006 -17.4392 163.566 -17.2897 163.154C-16.1359 160.103 -21.0398 156.577 -22.3933 159.9C-22.8597 161.138 -23.0757 162.46 -23.0285 163.786C-22.9812 165.111 -22.6717 166.414 -22.1185 167.615C-21.5653 168.815 -20.7797 169.89 -19.8089 170.775C-18.8381 171.659 -17.702 172.334 -16.4687 172.76C-13.7707 173.587 -10.8658 173.349 -8.3327 172.093C-5.79958 170.836 -3.82414 168.653 -2.79994 165.98C1.81549 154.679 -7.4376 142.27 -18.8652 141.75C-30.7366 141.208 -38.4808 151.401 -38.8358 162.748C-38.9497 167.387 -37.8379 171.972 -35.6169 176.023C-33.3958 180.075 -30.1469 183.444 -26.2099 185.779C-22.1913 188.171 -17.6475 189.496 -12.9953 189.634C-8.34305 189.773 -3.73117 188.719 0.417507 186.57C7.80662 182.638 12.3555 175.269 14.9295 167.291C16.7004 161.823 17.7307 156.135 17.9917 150.384C18.1152 141.524 17.2215 132.679 15.3289 124.03C11.1129 101.428 5.94271 78.8257 7.4294 55.5229C7.62911 52.336 7.93975 49.1491 8.38354 45.9622C8.82733 42.7753 3.12463 40.0404 2.56989 43.9506L2.41454 44.0184Z" fill="#E27A7A"/>
<path d="M-73.1399 26.2035C-64.2641 28.7123 -55.5658 31.1534 -46.7565 33.5945C-32.7993 37.4594 -18.8643 41.3695 -4.86274 45.1215C-2.53284 45.7318 -0.180718 46.4326 2.17137 46.975C2.83706 47.1333 3.50273 47.2688 4.16842 47.427C4.8341 47.5852 6.03236 47.9018 4.87849 47.5853C8.6951 48.625 9.18325 43.0649 5.83263 42.1834C-3.04318 39.765 -11.7193 37.0754 -20.5063 34.6343C-34.471 30.7618 -48.4356 26.9268 -62.4002 23.1296C-65.6399 22.2482 -68.8796 21.3895 -72.1192 20.5306C-76.1355 19.4683 -76.5571 25.1864 -73.1399 26.2035Z" fill="#E27A7A"/>
<path d="M86.9567 23.9705C95.5335 49.4501 94.0292 77.3305 82.7629 101.699L87.2008 100.841C82.9077 97.4138 77.8654 95.0941 72.5031 94.0788C67.1407 93.0635 61.6169 93.3827 56.4017 95.0091C51.5842 96.6019 47.1852 99.2893 43.5371 102.868C39.8891 106.447 37.0874 110.824 35.3438 115.668C35.1733 116.163 35.1012 116.688 35.1319 117.212C35.1626 117.736 35.2954 118.249 35.5226 118.72C35.7498 119.191 36.0668 119.612 36.4552 119.957C36.8436 120.302 37.2955 120.565 37.7846 120.73C46.4384 124.344 55.9726 125.166 65.0995 123.084C74.2264 121.003 82.5062 116.118 88.8206 109.09C91.4833 106.016 86.7792 101.338 83.717 103.914C79.3533 107.606 75.7931 112.184 73.2638 117.356C70.7345 122.528 69.2918 128.181 69.0276 133.953C68.7947 139.928 69.7851 145.887 71.9359 151.452C74.0866 157.016 77.3507 162.064 81.5203 166.274C82.1155 166.961 82.9472 167.389 83.8435 167.469C84.7398 167.549 85.632 167.275 86.3354 166.703C90.0583 163.408 93.0854 159.377 95.2329 154.855C97.3803 150.332 98.6035 145.413 98.8281 140.394C99.3606 129.093 95.5219 118.086 91.6387 107.576C91.3305 106.656 90.7217 105.871 89.9141 105.353C89.1064 104.834 88.1488 104.614 87.2008 104.728C86.7831 104.821 86.3904 105.006 86.0503 105.27C85.7102 105.534 85.4309 105.87 85.2321 106.256C85.0333 106.641 84.9199 107.067 84.8996 107.502C84.8794 107.937 84.9529 108.371 85.115 108.774C86.8528 113.742 89.675 118.244 93.3687 121.939C97.0625 125.635 101.531 128.429 106.439 130.11C111.57 131.724 117.014 132.013 122.282 130.951C127.549 129.89 132.476 127.512 136.617 124.03C137.01 123.597 137.276 123.061 137.386 122.482C137.496 121.903 137.445 121.304 137.238 120.753C135.874 115.952 133.47 111.524 130.201 107.796C126.933 104.068 122.885 101.135 118.355 99.2131C113.549 97.2281 108.32 96.5471 103.178 97.2364C98.0365 97.9257 93.1583 99.9618 89.0204 103.146C86.2688 105.406 90.5736 110.582 93.4583 108.751C96.8542 106.356 100.766 104.828 104.864 104.297C108.962 103.766 113.125 104.247 117.001 105.7C120.36 107.164 123.349 109.386 125.744 112.197C128.138 115.007 129.875 118.335 130.825 121.928L131.425 118.674C128.148 121.388 124.271 123.247 120.13 124.09C115.989 124.933 111.708 124.734 107.659 123.51C103.986 122.289 100.634 120.229 97.8616 117.487C95.0889 114.745 92.968 111.393 91.6609 107.689L85.1815 108.887C88.643 118.289 92.3266 128.121 92.0381 138.27C91.8772 142.686 90.8201 147.02 88.9335 150.999C87.047 154.979 84.3718 158.517 81.0765 161.392L85.8916 161.799C82.4104 158.303 79.6999 154.093 77.9399 149.447C76.18 144.802 75.4111 139.828 75.6844 134.857C76.0309 129.878 77.3728 125.024 79.628 120.593C81.8832 116.162 85.0039 112.248 88.7984 109.09L83.6948 103.914C78.2194 110.211 70.949 114.606 62.9004 116.487C54.8517 118.367 46.4273 117.638 38.8054 114.402L41.2241 119.465C42.7034 115.374 45.0429 111.662 48.0787 108.59C51.1144 105.517 54.773 103.158 58.7981 101.677C63.1071 100.25 67.6977 99.9402 72.1536 100.777C76.6096 101.614 80.7901 103.57 84.3162 106.468C84.6591 106.723 85.0498 106.903 85.4641 106.997C85.8784 107.091 86.3072 107.096 86.7238 107.014C87.1404 106.931 87.5357 106.762 87.885 106.516C88.2343 106.271 88.5303 105.954 88.7541 105.587C100.847 80.2499 102.733 49.0815 91.8828 23.0438C91.6496 22.3279 91.1842 21.7141 90.5632 21.3033C89.9422 20.8926 89.2025 20.7092 88.4656 20.7835C88.1331 20.8452 87.8189 20.9835 87.5468 21.1877C87.2748 21.392 87.052 21.6569 86.8958 21.9622C86.7395 22.2674 86.6538 22.605 86.6451 22.9491C86.6364 23.2933 86.705 23.6349 86.8457 23.9479L86.9567 23.9705Z" fill="#603631"/>
<path d="M9.04935 47.9739C18.2062 45.6233 27.3779 43.2349 36.5644 40.8089C51.1799 36.9816 65.7954 33.1393 80.4109 29.2819L90.5071 26.6147L88.9538 26.4792C97.7409 28.9052 106.535 31.3311 115.337 33.7571C129.287 37.5994 143.252 41.4194 157.231 45.2165C159.583 45.8494 161.935 46.4595 164.287 47.0472C164.953 47.2054 165.619 47.3861 166.284 47.5443L166.773 47.6801C168.992 48.1999 166.44 47.6801 166.972 47.6801C170.789 48.7198 171.277 43.1596 167.926 42.2781C158.829 39.7693 149.775 37.0572 140.678 34.5031C126.521 30.5402 112.356 26.6223 98.1848 22.7498C95.4555 22.004 92.7483 21.1677 89.9968 20.4896C88.8707 20.2851 87.7109 20.4025 86.6462 20.8287L81.1875 22.2753C67.2377 25.967 53.2879 29.6663 39.3381 33.373C28.7536 36.1983 18.1249 38.8877 7.58483 41.8712L7.0523 42.0069C3.30227 43.024 5.72092 48.7876 9.04935 47.9287L9.04935 47.9739Z" fill="#E27A7A"/>
<path d="M406.264 24.3756C414.84 49.863 413.336 77.7501 402.07 102.127L406.508 101.246C402.215 97.819 397.173 95.4993 391.811 94.484C386.448 93.4687 380.925 93.7879 375.709 95.4144C370.894 97.0116 366.497 99.7006 362.85 103.279C359.202 106.857 356.399 111.232 354.651 116.073C354.481 116.568 354.409 117.093 354.44 117.617C354.47 118.141 354.603 118.654 354.83 119.125C355.057 119.597 355.374 120.017 355.763 120.362C356.151 120.707 356.603 120.97 357.092 121.136C365.745 124.756 375.281 125.581 384.409 123.499C393.538 121.417 401.817 116.529 408.128 109.495C410.791 106.422 406.087 101.766 403.025 104.32C398.663 108.013 395.104 112.592 392.575 117.764C390.046 122.935 388.602 128.587 388.335 134.358C388.105 140.336 389.096 146.298 391.247 151.866C393.397 157.434 396.66 162.486 400.828 166.702C401.429 167.381 402.262 167.801 403.156 167.876C404.051 167.952 404.94 167.677 405.643 167.108C409.351 163.822 412.368 159.805 414.511 155.299C416.654 150.793 417.88 145.891 418.114 140.89C418.646 129.589 414.807 118.582 410.924 108.094C410.62 107.17 410.013 106.38 409.205 105.857C408.397 105.335 407.437 105.111 406.486 105.224C406.068 105.316 405.676 105.501 405.336 105.765C404.996 106.029 404.716 106.366 404.518 106.751C404.319 107.137 404.205 107.562 404.185 107.997C404.165 108.432 404.238 108.867 404.4 109.269C406.135 114.239 408.956 118.742 412.651 122.439C416.345 126.135 420.815 128.928 425.725 130.606C430.855 132.219 436.299 132.508 441.567 131.447C446.835 130.386 451.761 128.007 455.902 124.526C456.298 124.094 456.566 123.558 456.676 122.978C456.785 122.399 456.733 121.799 456.524 121.249C455.157 116.449 452.751 112.022 449.483 108.295C446.215 104.567 442.168 101.633 437.64 99.7088C432.834 97.7238 427.605 97.0426 422.464 97.732C417.322 98.4213 412.444 100.458 408.306 103.642C405.554 105.902 409.881 111.078 412.744 109.247C416.139 106.851 420.052 105.323 424.149 104.792C428.247 104.261 432.41 104.743 436.287 106.196C439.649 107.661 442.64 109.885 445.035 112.7C447.43 115.516 449.165 118.848 450.111 122.447L450.71 119.169C447.436 121.889 443.559 123.751 439.417 124.594C435.275 125.437 430.993 125.235 426.945 124.006C423.27 122.786 419.918 120.726 417.145 117.984C414.372 115.242 412.252 111.89 410.946 108.185L404.467 109.36C407.928 118.762 411.612 128.617 411.324 138.743C411.188 143.157 410.156 147.494 408.292 151.482C406.428 155.469 403.773 159.02 400.495 161.91L405.31 162.339C401.83 158.839 399.12 154.624 397.36 149.975C395.6 145.326 394.831 140.35 395.103 135.375C395.455 130.398 396.799 125.546 399.054 121.115C401.308 116.685 404.426 112.77 408.217 109.608L403.113 104.433C397.639 110.73 390.37 115.128 382.321 117.012C374.273 118.897 365.849 118.173 358.224 114.943L360.665 119.983C362.136 115.892 364.471 112.179 367.503 109.105C370.536 106.032 374.193 103.673 378.217 102.195C382.527 100.78 387.115 100.477 391.569 101.313C396.023 102.15 400.203 104.099 403.735 106.987C404.077 107.241 404.468 107.421 404.883 107.515C405.297 107.609 405.726 107.615 406.142 107.532C406.559 107.449 406.954 107.28 407.304 107.034C407.653 106.789 407.949 106.472 408.172 106.105C420.266 80.7907 422.152 49.5997 411.301 23.5619C411.072 22.8437 410.607 22.2276 409.985 21.8163C409.363 21.4049 408.622 21.2232 407.884 21.3017C407.555 21.3644 407.243 21.5023 406.973 21.7051C406.704 21.9079 406.483 22.1703 406.327 22.4727C406.171 22.775 406.084 23.1094 406.073 23.4508C406.063 23.7921 406.128 24.1315 406.264 24.4435L406.264 24.3756Z" fill="#B2282B"/>
<path d="M328.357 48.4037C337.514 46.038 346.686 43.6423 355.872 41.2163C370.488 37.389 385.103 33.5467 399.718 29.6893L409.815 27.0221L408.262 26.8866L434.645 34.1644C448.595 38.0068 462.559 41.8265 476.539 45.6236C478.891 46.2565 481.243 46.8669 483.595 47.4545C484.261 47.6353 484.926 47.7935 485.592 47.9517L486.08 48.0872C488.299 48.607 485.747 48.0872 486.28 48.0872C490.096 49.1495 490.585 43.567 487.234 42.6855C478.136 40.1767 469.083 37.4643 459.985 34.9102C445.828 30.9473 431.664 27.0297 417.492 23.1572C414.763 22.4113 412.056 21.575 409.304 20.897C408.178 20.704 407.021 20.8211 405.954 21.2361L400.495 22.6824L358.646 33.7801C348.061 36.6054 337.433 39.2951 326.893 42.2786C326.718 42.3417 326.54 42.3944 326.36 42.4366C322.632 43.4311 325.029 49.2176 328.357 48.3587L328.357 48.4037Z" fill="#E27A7A"/>
</svg>
