<svg width="1439" height="2396" viewBox="0 0 1439 2396" fill="none" xmlns="http://www.w3.org/2000/svg">
<g clip-path="url(#clip0_1070_43481)">
<path fill-rule="evenodd" clip-rule="evenodd" d="M1250.88 -38.6389C1252.89 -40.9165 1256.36 -41.1338 1258.64 -39.124C1279.85 -20.4062 1299.6 -1.3983 1310.78 17.3026C1316.41 26.7173 1320.09 36.4019 1320.47 46.2067C1320.86 56.151 1317.84 65.7741 1310.86 74.8535C1297.29 92.4963 1274.79 103.672 1248.39 111.225C1221.88 118.809 1190.58 122.969 1158.51 125.976C1155.49 126.26 1152.81 124.038 1152.52 121.013C1152.24 117.989 1154.46 115.308 1157.49 115.024C1189.42 112.031 1219.87 107.941 1245.36 100.65C1270.96 93.3278 1290.71 83.0038 1302.14 68.1467C1307.66 60.9761 1309.76 53.8491 1309.48 46.6372C1309.19 39.2857 1306.4 31.4079 1301.34 22.9475C1291.15 5.89843 1272.65 -12.0937 1251.36 -30.8758C1249.08 -32.8855 1248.87 -36.3612 1250.88 -38.6389Z" fill="#BB0C40"/>
<path fill-rule="evenodd" clip-rule="evenodd" d="M902.055 432.226C902.482 429.219 905.267 427.128 908.274 427.555C1190.05 467.63 1334.68 646.882 1355.69 831.533C1376.66 1015.92 1274.12 1205.13 1063.48 1263.8C932.564 1300.26 775.17 1267.14 624.985 1224.1C587.365 1213.32 550.113 1201.89 513.784 1190.73L512.435 1190.31C476.559 1179.29 441.6 1168.55 407.989 1158.95C339.849 1139.49 277.668 1124.83 225.203 1121.99C121.026 1116.35 50.7668 1164.3 6.28313 1230.92C-38.38 1297.82 -57 1383.56 -57 1452.5C-57 1455.54 -59.4624 1458 -62.5 1458C-65.5376 1458 -68 1455.54 -68 1452.5C-68 1381.94 -49.008 1293.93 -2.86517 1224.82C43.4572 1155.44 117.198 1105.13 225.797 1111.01C279.582 1113.92 342.776 1128.89 411.011 1148.38C444.724 1158.01 479.77 1168.77 515.603 1179.78L517.013 1180.21C553.356 1191.37 590.51 1202.78 628.015 1213.53C778.33 1256.61 932.936 1288.74 1060.52 1253.2C1265.47 1196.12 1365.18 1012.32 1344.76 832.776C1324.36 653.491 1183.95 477.872 906.726 438.446C903.718 438.018 901.627 435.234 902.055 432.226Z" fill="#FFEE50"/>
<path fill-rule="evenodd" clip-rule="evenodd" d="M902.055 432.226C902.482 429.219 905.267 427.128 908.274 427.555C1190.05 467.63 1334.68 646.882 1355.69 831.533C1376.66 1015.92 1274.12 1205.13 1063.48 1263.8C932.564 1300.26 775.17 1267.14 624.985 1224.1C587.365 1213.32 550.113 1201.89 513.784 1190.73L512.435 1190.31C476.559 1179.29 441.6 1168.55 407.989 1158.95C339.849 1139.49 277.668 1124.83 225.203 1121.99C121.026 1116.35 50.7668 1164.3 6.28313 1230.92C-38.38 1297.82 -57 1383.56 -57 1452.5C-57 1455.54 -59.4624 1458 -62.5 1458C-65.5376 1458 -68 1455.54 -68 1452.5C-68 1381.94 -49.008 1293.93 -2.86517 1224.82C43.4572 1155.44 117.198 1105.13 225.797 1111.01C279.582 1113.92 342.776 1128.89 411.011 1148.38C444.724 1158.01 479.77 1168.77 515.603 1179.78L517.013 1180.21C553.356 1191.37 590.51 1202.78 628.015 1213.53C778.33 1256.61 932.936 1288.74 1060.52 1253.2C1265.47 1196.12 1365.18 1012.32 1344.76 832.776C1324.36 653.491 1183.95 477.872 906.726 438.446C903.718 438.018 901.627 435.234 902.055 432.226Z" fill="url(#paint0_linear_1070_43481)"/>
<path fill-rule="evenodd" clip-rule="evenodd" d="M-55.5002 1398.74V1412C-55.5002 1470.63 -54.6911 1525.47 -31.244 1577.3C-7.90305 1628.89 38.2536 1678.22 130.543 1724.59C172.042 1745.43 212.776 1762.61 251.185 1778.8C255.656 1780.69 260.096 1782.56 264.501 1784.42C306.651 1802.24 345.786 1819.28 379.139 1839.12C412.531 1858.98 440.451 1881.84 459.992 1911.5C479.581 1941.24 490.496 1977.43 490.496 2023.5C490.496 2116.61 457.275 2185.76 403.575 2237.09C350.048 2288.25 276.483 2321.42 196.109 2343.44C68.139 2378.5 -78.6598 2385.63 -192.2 2391.15C-221.119 2392.56 -247.88 2393.86 -271.623 2395.49L-277.301 2395.88L-303.079 1645.8L-55.5002 1398.74ZM-291.921 1650.2L-266.699 2384.13C-244.038 2382.65 -218.944 2381.43 -192.082 2380.12C-78.5674 2374.59 66.5419 2367.53 193.203 2332.83C272.692 2311.05 344.297 2278.53 395.974 2229.14C447.478 2179.91 479.496 2113.64 479.496 2023.5C479.496 1979.28 469.059 1945.26 450.806 1917.55C432.504 1889.77 406.09 1867.95 373.515 1848.57C340.902 1829.17 302.439 1812.41 260.218 1794.55C255.819 1792.69 251.38 1790.82 246.905 1788.94C208.529 1772.76 167.452 1755.44 125.605 1734.42C31.7826 1687.28 -16.598 1636.36 -41.2662 1581.83C-63.9686 1531.65 -66.2615 1479.01 -66.4785 1425.24L-291.921 1650.2Z" fill="#FF6D3A"/>
<path fill-rule="evenodd" clip-rule="evenodd" d="M-55.5002 1398.74V1412C-55.5002 1470.63 -54.6911 1525.47 -31.244 1577.3C-7.90305 1628.89 38.2536 1678.22 130.543 1724.59C172.042 1745.43 212.776 1762.61 251.185 1778.8C255.656 1780.69 260.096 1782.56 264.501 1784.42C306.651 1802.24 345.786 1819.28 379.139 1839.12C412.531 1858.98 440.451 1881.84 459.992 1911.5C479.581 1941.24 490.496 1977.43 490.496 2023.5C490.496 2116.61 457.275 2185.76 403.575 2237.09C350.048 2288.25 276.483 2321.42 196.109 2343.44C68.139 2378.5 -78.6598 2385.63 -192.2 2391.15C-221.119 2392.56 -247.88 2393.86 -271.623 2395.49L-277.301 2395.88L-303.079 1645.8L-55.5002 1398.74ZM-291.921 1650.2L-266.699 2384.13C-244.038 2382.65 -218.944 2381.43 -192.082 2380.12C-78.5674 2374.59 66.5419 2367.53 193.203 2332.83C272.692 2311.05 344.297 2278.53 395.974 2229.14C447.478 2179.91 479.496 2113.64 479.496 2023.5C479.496 1979.28 469.059 1945.26 450.806 1917.55C432.504 1889.77 406.09 1867.95 373.515 1848.57C340.902 1829.17 302.439 1812.41 260.218 1794.55C255.819 1792.69 251.38 1790.82 246.905 1788.94C208.529 1772.76 167.452 1755.44 125.605 1734.42C31.7826 1687.28 -16.598 1636.36 -41.2662 1581.83C-63.9686 1531.65 -66.2615 1479.01 -66.4785 1425.24L-291.921 1650.2Z" fill="url(#paint1_linear_1070_43481)" fill-opacity="0.4"/>
<path fill-rule="evenodd" clip-rule="evenodd" d="M1144.97 120.975C1145.26 123.998 1143.05 126.685 1140.02 126.975C1131.21 127.822 1122.46 128.595 1113.91 129.351C1091.94 131.294 1071.33 133.116 1054.43 135.747C1042.7 137.575 1033.19 139.735 1026.47 142.426C1019.38 145.27 1017.25 147.965 1016.87 149.682C1016.47 151.517 1016.95 153.908 1021.77 157.182C1026.61 160.473 1034.45 163.564 1044.93 166.447C1065.78 172.179 1094.97 176.541 1126.05 180.929C1129.1 181.359 1132.16 181.789 1135.23 182.22C1163.33 186.166 1192.3 190.233 1216.84 195.432C1230.46 198.318 1242.9 201.588 1253.19 205.449C1263.34 209.26 1272.01 213.865 1277.51 219.741C1281.89 224.415 1284.67 229.807 1284.16 235.711C1283.65 241.583 1280.01 246.425 1275.05 250.315C1265.29 257.964 1247.59 264.155 1223.5 269.111C1174.88 279.112 1096.58 284.751 992.459 284C937.837 283.606 866.971 285.729 805.982 293.226C775.471 296.976 747.62 302.049 725.575 308.753C714.555 312.104 705.122 315.823 697.586 319.909C690.009 324.019 684.655 328.337 681.442 332.742C678.265 337.097 677.082 340.855 677.118 344.13C677.154 347.393 678.408 350.86 681.367 354.632C687.485 362.431 700.046 370.459 719.147 378.527C757.067 394.543 817.302 409.352 891.571 424.106C894.551 424.698 896.486 427.593 895.894 430.572C895.302 433.551 892.407 435.487 889.428 434.895C815.197 420.149 753.943 405.165 714.867 388.66C695.471 380.467 680.659 371.552 672.712 361.421C668.638 356.228 666.187 350.484 666.119 344.251C666.05 338.03 668.362 332.008 672.555 326.259C677.092 320.039 683.988 314.77 692.342 310.24C700.738 305.687 710.918 301.713 722.375 298.229C745.283 291.263 773.838 286.094 804.64 282.308C866.276 274.732 937.66 272.605 992.539 273.001C1096.42 273.75 1173.81 268.103 1221.28 258.336C1245.24 253.408 1260.69 247.595 1268.27 241.657C1271.97 238.754 1273.06 236.405 1273.2 234.761C1273.34 233.147 1272.7 230.693 1269.48 227.26C1265.74 223.261 1259 219.381 1249.32 215.747C1239.77 212.163 1227.93 209.027 1214.56 206.194C1190.41 201.078 1161.85 197.067 1133.66 193.108C1130.6 192.679 1127.55 192.251 1124.51 191.821C1093.61 187.459 1063.68 183.009 1042.02 177.054C1031.25 174.093 1021.98 170.622 1015.59 166.28C1009.18 161.921 1004.3 155.609 1006.13 147.319C1007.78 139.786 1014.86 135.23 1022.38 132.216C1030.28 129.048 1040.8 126.739 1052.74 124.878C1070.03 122.187 1091.21 120.314 1113.34 118.357C1121.8 117.609 1130.4 116.849 1138.97 116.026C1142 115.735 1144.68 117.951 1144.97 120.975Z" fill="#FF6D3A"/>
</g>
<defs>
<linearGradient id="paint0_linear_1070_43481" x1="-19.5" y1="1254.5" x2="1262" y2="1348" gradientUnits="userSpaceOnUse">
<stop stop-opacity="0.67"/>
<stop offset="1" stop-opacity="0"/>
</linearGradient>
<linearGradient id="paint1_linear_1070_43481" x1="-141.5" y1="1528.5" x2="540" y2="2369" gradientUnits="userSpaceOnUse">
<stop/>
<stop offset="1" stop-opacity="0"/>
</linearGradient>
<clipPath id="clip0_1070_43481">
<rect width="1439" height="2396" fill="white"/>
</clipPath>
</defs>
</svg>
