<svg width="1311" height="32768" viewBox="0 0 1311 32768" fill="none" xmlns="http://www.w3.org/2000/svg">
<g clip-path="url(#clip0_984_42103)">
<path fill-rule="evenodd" clip-rule="evenodd" d="M1160.32 29866.8C1164.08 29866.8 1167.14 29869.8 1167.14 29873.6C1167.14 30129 1068.45 30325.8 932.072 30494.6C833.713 30616.4 715.353 30724 600.306 30828.7C556.193 30868.8 512.566 30908.5 470.741 30948.3C66.3459 31333.8 104.938 31813.8 302.5 32058.8C348.306 32107.6 401.985 32151.1 456.353 32195.2C458.961 32197.4 461.571 32199.5 464.182 32201.6C521.128 32247.8 578.407 32295 626.735 32349.1C675.131 32403.4 714.718 32464.9 736.257 32540C757.8 32615.2 761.16 32703.5 737.772 32811.3C736.974 32815 733.342 32817.3 729.661 32816.5C725.98 32815.7 723.644 32812.1 724.443 32808.4C747.432 32702.5 743.972 32616.4 723.145 32543.8C702.315 32471.1 663.982 32411.4 616.557 32358.2C569.063 32305 512.618 32258.5 455.584 32212.2C452.897 32210 450.209 32207.8 447.52 32205.6C393.286 32161.6 338.878 32117.5 292.38 32067.9L292.206 32067.7L292.047 32067.5C89.6391 31816.8 51.977 31328.6 461.33 30938.5C503.655 30898.1 547.592 30858.2 591.882 30817.9C706.656 30713.5 823.808 30607 921.462 30486.1C1056.5 30318.9 1153.5 30125.1 1153.5 29873.6C1153.5 29869.8 1156.55 29866.8 1160.32 29866.8Z" fill="#FFEE50"/>
<path fill-rule="evenodd" clip-rule="evenodd" d="M1158.15 29847.2C1154.39 29847.3 1151.28 29844.3 1151.22 29840.5C1141.78 29273.6 905.938 28908.6 659.1 28526.7C645.308 28505.3 631.482 28483.9 617.66 28462.4C356.377 28056.3 96.9328 27618.4 96.9328 26892.3C96.9327 26101.3 285.882 25712.2 506.014 25342.2C529.947 25301.9 554.241 25261.9 578.694 25221.6C778.767 24892.2 989.498 24545.2 1100.49 23909C1224.92 23195.7 998.516 22677.3 731.117 22354.2C599.018 22194.6 456.957 22082.7 342.317 22018.6C291.589 22030.6 245.91 22035.2 208.631 22033.8C171.708 22032.5 142.093 22025.5 124.106 22013.5C115.019 22007.5 108.365 21999.9 105.836 21990.6C103.274 21981.1 105.274 21971.3 111.094 21961.6C117.547 21950.8 128.953 21944.6 143.058 21942C157.122 21939.4 174.562 21940.2 194.521 21944.1C234.417 21951.8 285.977 21971.9 344.286 22004.1C392.13 21992.3 444.599 21973.7 498.77 21946.6C723.781 21834.1 977.996 21576 1050.45 21060.2C1086.67 20802.4 1056.99 20601.2 992.705 20430.9C928.373 20260.4 829.269 20120.7 726.01 19985.7C710.049 19964.9 693.987 19944.1 677.942 19923.4C486.573 19676.2 297.508 19432.1 310.176 19031.3C317.026 18814.7 363.512 18657.5 429.323 18533.3C495.091 18409.2 579.981 18318.3 662.915 18234.3C671.366 18225.7 679.792 18217.2 688.174 18208.8C762.219 18134.1 832.768 18063 885.837 17975.6C944.726 17878.6 982.143 17761.3 977.63 17596.8C969.091 17285.5 784.392 17045.5 595.426 16799.9C584.78 16786.1 574.121 16772.2 563.479 16758.3C364.443 16498.6 171.922 16228.4 195.976 15859.8C203.679 15741.7 237.501 15653.2 290.034 15579.1C342.451 15505.1 413.28 15445.7 494.372 15385.6C520.503 15366.2 547.721 15346.8 575.784 15326.7C722.103 15222.2 891.397 15101.2 1049.47 14890.9C1237.07 14641.3 1225.76 14409.2 1157.93 14247.2C1141.13 14207 1120.85 14171.2 1099.27 14140.4C1035.46 14143.3 975.663 14128 938.62 14104.9C918.987 14092.7 904.559 14077.5 900.658 14060.7C896.553 14042.9 904.563 14025.8 924.026 14011.5C937.156 14001.8 955.673 14003 975.088 14010.3C994.817 14017.8 1017.31 14032.3 1040.34 14052.7C1062.14 14072.1 1084.65 14096.8 1106.01 14126.4C1107.74 14126.2 1109.48 14126.1 1111.23 14126C1177.33 14120.4 1246.41 14093.9 1296.94 14033.9C1347.46 13973.9 1380.21 13879.5 1371.84 13736.4C1365.17 13622.5 1306.44 13541.1 1220.8 13469.2C1163.15 13420.9 1094.01 13377.3 1020.81 13331.2C984.686 13308.5 947.572 13285.1 910.365 13260.2C798.239 13185.2 686.368 13097.2 602.59 12972.8C518.73 12848.2 463.306 12687.8 463.306 12468.5C463.307 12317.9 495.348 12201.6 546.518 12105.9C597.65 12010.4 667.694 11935.7 743.149 11868.2C778.274 11836.7 814.648 11806.7 850.835 11776.9L858.832 11770.3C897.692 11738.2 936.231 11706.2 972.942 11672.4C1046.34 11604.9 1112.16 11530.6 1157.9 11435.6C1216.59 11313.7 1239.17 11164.5 1197.3 11010.2C1155.44 10856.1 1049 10696.4 848.642 10553.9C659.729 10419.6 551.451 10317.1 482.94 10248.2C471.664 10236.8 461.52 10226.4 452.3 10217C433.39 10197.7 418.368 10182.3 405.452 10170.7C386.114 10153.4 373.225 10146.3 361.118 10146.3L360.412 10146.3L359.72 10146.2C351.002 10144.3 341.74 10146 333.827 10149.5C325.739 10153.1 320.128 10158.1 318.061 10161.8C316.539 10164.6 309.96 10174 302.762 10181.7C299.187 10185.5 295.004 10189.4 290.849 10191.8C288.779 10193 286.193 10194.1 283.346 10194.3C280.191 10194.5 276.951 10193.5 274.434 10190.9C272.369 10188.7 271.559 10186.1 271.285 10183.9C271.135 10182.7 271.127 10181.5 271.209 10180.3C271.276 10179.3 271.403 10178.4 271.561 10177.5C272.265 10173.5 273.827 10169.2 275.465 10165.3C277.219 10161.2 279.469 10156.7 281.182 10153.4C282.518 10150.8 283.528 10149 283.724 10148.6C290.585 10134.2 297.802 10119.9 304.977 10105.8L307.594 10100.6C315.638 10084.8 323.575 10069 330.952 10052.9C333.944 10046.4 338.147 10038.8 341.688 10030.1C344.001 10024.4 345.538 10019.3 346.052 10015.1C346.039 10015.1 346.025 10015.1 346.012 10015.1C341.91 10019 337.419 10024.3 333.885 10028.5C333.102 10029.4 332.365 10030.3 331.69 10031C312.47 10053.5 294.619 10077.6 276.513 10102.1C268.505 10113 260.447 10123.9 252.198 10134.7C225.471 10169.9 196.995 10204.1 162.713 10231.8C159.336 10234.6 150.126 10241.6 141.308 10244.9C137.135 10246.5 131.224 10248 125.887 10245.6C119.661 10242.8 117.35 10236.5 117.19 10229.6C116.829 10214 123.135 10198 130.562 10183.6C135.168 10174.7 140.672 10165.6 145.6 10157.5C148.474 10152.7 151.151 10148.3 153.341 10144.4C174.52 10107 196.788 10070.1 218.992 10033.4L224.506 10024.3C227.3 10019.7 230.116 10015.1 232.926 10010.5C246.198 9988.8 259.34 9967.33 269.444 9944.63C265.976 9948.5 262.607 9952.69 259.296 9957.08C255.659 9961.9 252.156 9966.87 248.684 9971.81L247.954 9972.85C244.752 9977.41 241.561 9981.96 238.4 9986.2C237.762 9987.06 236.65 9988.59 235.132 9990.69C226.291 10002.9 203.646 10034.1 180.086 10061.8C166.321 10078 151.926 10093.5 139.551 10103.2C133.445 10108.1 127.25 10112 121.474 10113.7C118.519 10114.5 115.27 10114.9 112.031 10114.2C108.64 10113.4 105.768 10111.5 103.627 10108.7C99.8667 10103.8 99.5693 10097.6 100.223 10092.3C100.897 10086.9 102.747 10081.2 104.843 10076C106.963 10070.7 109.474 10065.5 111.661 10061.2C113.956 10056.7 115.674 10053.6 116.613 10051.5C121.62 10040.6 126.761 10030.1 131.867 10019.6C139.552 10003.7 147.16 9988.07 154.111 9971.83C155.398 9968.82 158.024 9963.77 159.771 9958.22C160.627 9955.5 161.055 9953.26 161.053 9951.67C161.053 9951.46 161.045 9951.28 161.034 9951.13C160.995 9951.13 160.955 9951.14 160.912 9951.15C159.684 9951.34 157.96 9951.96 155.823 9953.01C153.749 9954.03 151.642 9955.29 149.674 9956.51C149.228 9956.78 148.76 9957.08 148.287 9957.37C146.904 9958.24 145.488 9959.13 144.47 9959.68C131.834 9966.47 118.98 9971.15 107.378 9968.84C94.8695 9966.35 86.3274 9956.42 81.0719 9940.32C77.5906 9929.65 74.9909 9921.88 70.7479 9916.49C67.0499 9911.79 61.7679 9908.54 51.3526 9908.49C45.4876 9908.46 40.2055 9908.35 35.6303 9907.74C31.0076 9907.13 26.6194 9905.95 22.7303 9903.48C14.732 9898.38 11.101 9889.26 8.41662 9876.7C8.24237 9875.89 7.58305 9874.4 5.66418 9872.14C3.79258 9869.92 1.08478 9867.38 -2.51116 9864.45C-9.38682 9858.85 -18.7043 9852.44 -29.9128 9844.74L-31.6264 9843.57C-55.3556 9827.25 -86.1769 9805.86 -115.201 9776.75C-173.562 9718.24 -224.416 9628.76 -198.949 9486.84C-198.284 9483.13 -194.74 9480.67 -191.033 9481.33C-187.325 9482 -184.859 9485.54 -185.524 9489.25C-210.071 9626.04 -161.319 9711.19 -105.543 9767.12C-77.4991 9795.24 -47.619 9816.02 -23.8989 9832.32L-21.8541 9833.73C-10.9318 9841.23 -1.20423 9847.92 6.10611 9853.88C10.0032 9857.05 13.4333 9860.2 16.0788 9863.33C18.6775 9866.4 20.9146 9869.91 21.755 9873.85C24.3672 9886.08 27.1145 9890.1 30.0578 9891.97C30.684 9892.37 31.4107 9892.73 32.2803 9893.05C33.6091 9893.54 35.272 9893.93 37.4256 9894.22C39.632 9894.51 42.1634 9894.67 45.1471 9894.75C47.0454 9894.81 49.1268 9894.84 51.4236 9894.85C65.4167 9894.92 74.861 9899.66 81.4666 9908.05C87.5256 9915.75 90.8065 9926.18 94.0388 9936.08C98.5259 9949.83 104.37 9954.33 110.042 9955.46C116.619 9956.77 125.736 9954.26 138.014 9947.66C138.88 9947.2 140.199 9946.33 142.481 9944.92C144.55 9943.63 147.111 9942.1 149.797 9940.77C152.42 9939.48 155.548 9938.2 158.725 9937.68C161.87 9937.17 166.136 9937.26 169.749 9940.16C173.778 9943.38 174.689 9948.08 174.693 9951.66C174.698 9955.28 173.805 9959.06 172.782 9962.31C171.524 9966.31 169.736 9970.44 168.389 9973.4C167.583 9975.18 166.935 9976.53 166.65 9977.2C159.632 9993.59 151.708 10009.9 143.871 10026.1C138.788 10036.5 133.742 10046.9 129.003 10057.2C127.922 10059.6 125.83 10063.5 123.818 10067.4C121.696 10071.6 119.402 10076.3 117.509 10081C115.592 10085.8 114.222 10090.3 113.758 10094C113.504 10096.1 113.562 10097.5 113.754 10098.6C113.929 10099.5 114.215 10100.1 114.483 10100.5C114.764 10100.8 114.909 10100.9 115.05 10100.9C115.344 10101 116.142 10101 117.672 10100.6C120.863 10099.6 125.378 10097.1 131.092 10092.5C142.354 10083.6 156.03 10069.1 169.689 10053C192.82 10025.8 214.986 9995.22 223.985 9982.82C225.581 9980.62 226.763 9978.99 227.463 9978.05C230.511 9973.96 233.601 9969.56 236.842 9964.94L237.521 9963.97C240.987 9959.04 244.613 9953.9 248.407 9948.87C255.961 9938.85 264.443 9928.92 274.269 9921.48C275.287 9920.71 277.933 9919 281.355 9919.94C284.893 9920.9 286.245 9923.83 286.67 9925.01C287.533 9927.4 287.405 9930.22 287.265 9931.94C286.945 9935.89 285.834 9940.97 284.565 9944.01C273.738 9969.97 258.827 9994.31 244.41 10017.9C241.638 10022.4 238.884 10026.9 236.18 10031.4L230.681 10040.4C208.457 10077.2 186.291 10113.9 165.215 10151.1C162.584 10155.8 159.715 10160.5 156.762 10165.4C152.071 10173.1 147.169 10181.2 142.681 10189.9C135.501 10203.8 130.547 10217.3 130.826 10229.3C130.885 10231.8 131.305 10232.8 131.537 10233.1C131.69 10233.2 132.049 10233.2 132.696 10233.2C133.653 10233.1 134.925 10232.8 136.5 10232.2C143.083 10229.7 150.817 10223.9 154.138 10221.2C187.102 10194.6 214.778 10161.4 241.339 10126.5C249.341 10115.9 257.265 10105.2 265.206 10094.5C283.452 10069.8 301.783 10045 321.332 10022.2C324.611 10018.3 330.961 10010.5 336.699 10005.2C339.373 10002.7 342.895 9999.72 346.506 9998.56C348.458 9997.94 351.587 9997.47 354.631 9999.28C357.639 10001.1 358.822 10004 359.294 10006.3C361.255 10015.5 357.909 10026.4 354.327 10035.2C351.886 10041.2 348.793 10047.5 346.321 10052.5C345.141 10054.9 344.104 10057 343.345 10058.6C335.848 10074.9 327.805 10090.9 319.761 10106.8C311.699 10122.7 303.647 10138.5 296.04 10154.4C295.62 10155.3 294.996 10156.5 294.241 10157.9C292.551 10161.1 290.206 10165.5 288.027 10170.6C286.64 10173.9 285.597 10176.9 285.101 10179.3C287.282 10177.8 289.941 10175.4 292.796 10172.4C299.406 10165.3 305.273 10156.8 306.15 10155.2C310.152 10148 318.609 10141.4 328.289 10137.1C337.959 10132.8 349.893 10130.4 361.825 10132.7C379.218 10132.9 395.336 10143.4 414.552 10160.6C427.807 10172.5 443.336 10188.3 462.481 10207.9C471.647 10217.3 481.642 10227.5 492.613 10238.6C560.683 10307 668.374 10409 856.546 10542.8C1059.03 10686.7 1167.64 10848.9 1210.46 11006.7C1253.27 11164.3 1230.17 11317 1170.19 11441.5C1123.41 11538.7 1056.23 11614.3 982.177 11682.5C945.161 11716.5 906.357 11748.7 867.513 11780.8L859.563 11787.3C823.328 11817.2 787.159 11847.1 752.249 11878.3C677.354 11945.4 608.612 12018.8 558.545 12112.4C508.516 12205.9 476.947 12319.9 476.947 12468.5C476.947 12685.3 531.678 12843.1 613.904 12965.1C696.21 13087.4 806.353 13174.3 917.947 13248.9C954.378 13273.3 991.084 13296.4 1027.03 13319C1100.72 13365.4 1171.22 13409.8 1229.56 13458.8C1316.83 13532 1378.48 13616.5 1385.45 13735.6C1393.97 13881 1360.76 13979.3 1307.38 14042.7C1254.7 14105.2 1183.12 14133 1115.09 14139.3C1135.5 14169.3 1154.55 14203.7 1170.51 14241.9C1240.1 14408.1 1251.05 14645.4 1060.37 14899.1C900.937 15111.2 729.803 15233.5 583.425 15338C555.459 15358 528.397 15377.4 502.492 15396.5C421.648 15456.4 352.277 15514.8 301.164 15586.9C250.169 15658.9 217.135 15745 209.587 15860.7C185.901 16223.6 375.119 16490.1 574.305 16750C585.167 16764.2 596.059 16778.3 606.948 16792.5C795.251 17037.2 982.6 17280.6 991.266 17596.4C995.847 17763.4 957.788 17883.3 897.497 17982.7C843.536 18071.6 771.806 18143.9 697.92 18218.3C689.509 18226.8 681.07 18235.3 672.626 18243.8C589.833 18327.8 506.154 18417.4 441.376 18539.7C376.639 18661.9 330.6 18816.9 323.809 19031.8C311.302 19427.4 497.449 19667.9 688.957 19915.3C704.919 19935.9 720.918 19956.6 736.842 19977.4C840.231 20112.5 940.387 20253.6 1005.47 20426C1070.59 20598.6 1100.48 20802.1 1063.95 21062.1C990.907 21582.1 734.074 21844.2 504.87 21958.8C455.016 21983.7 406.461 22001.7 361.396 22013.8C475.3 22079.8 613.228 22190.4 741.624 22345.5C1011.3 22671.4 1239.11 23193.7 1113.93 23911.3C1002.48 24550.1 790.563 24899.1 590.352 25228.7C565.904 25269 541.631 25309 517.737 25349.1C298.545 25717.6 110.573 26104.3 110.573 26892.3C110.573 27614.4 368.271 28049.6 629.131 28455.1C643.038 28476.7 656.956 28498.2 670.846 28519.7C917.557 28901.4 1155.36 29269.3 1164.86 29840.3C1164.92 29844 1161.92 29847.1 1158.15 29847.2ZM1089.59 14127.1C1070.43 14101.5 1050.52 14080 1031.29 14062.9C1009.02 14043.2 987.928 14029.8 970.255 14023.1C952.267 14016.2 939.562 14017 932.111 14022.5C915.428 14034.8 911.464 14046.9 913.947 14057.6C916.635 14069.2 927.359 14081.8 945.828 14093.3C978.445 14113.6 1031.55 14128.1 1089.59 14127.1ZM324.144 22008.7C272.213 21981.2 226.912 21964.2 191.936 21957.5C172.884 21953.8 157.297 21953.3 145.528 21955.4C133.8 21957.6 126.568 21962.3 122.791 21968.6C118.381 21975.9 117.639 21982 118.997 21987C120.389 21992.1 124.319 21997.3 131.653 22002.2C146.508 22012.1 173.088 22018.9 209.111 22020.2C241.413 22021.4 280.561 22017.9 324.144 22008.7Z" fill="#FF6D3A"/>
<path fill-rule="evenodd" clip-rule="evenodd" d="M1486.73 1519.11C1490.47 1519.59 1493.1 1523.01 1492.62 1526.74C1438.81 1944.05 1318.2 2122.82 1196.07 2245.87C1153.06 2289.21 1068.98 2339.24 988.961 2368.16C1067.57 2442.17 1150.42 2581.39 1197.92 2821.72C1313.4 3405.95 1118.42 3952.8 895.469 4412.36C844.709 4516.99 775.966 4630.82 700.013 4756.6C441.198 5185.2 98.6637 5752.44 98.6637 6566.33C98.6637 7091.21 333.497 7396.97 569.341 7662.16C591.774 7687.38 614.235 7712.25 636.516 7736.92C848.131 7971.24 1043.47 8187.53 1043.47 8516.41C1043.47 8698.85 968.915 8818.66 856.295 8903.7C744.15 8988.39 594.377 9038.51 444.031 9082.65C419.79 9089.77 395.539 9096.73 371.421 9103.65C245.421 9139.82 123.032 9174.94 24.5106 9225.91C-92.5012 9286.44 -174.393 9368.56 -188.27 9500.12C-188.665 9503.86 -192.022 9506.58 -195.768 9506.18C-199.514 9505.79 -202.23 9502.43 -201.835 9498.69C-187.295 9360.85 -101.016 9275.49 18.2436 9213.79C118.085 9162.15 242.061 9126.57 368.023 9090.43C392.057 9083.53 416.163 9076.61 440.188 9069.56C590.662 9025.38 738.158 8975.82 848.075 8892.82C957.519 8810.17 1029.83 8694.29 1029.83 8516.41C1029.83 8193.06 838.216 7980.77 626.138 7745.81C603.967 7721.24 581.572 7696.43 559.149 7671.22C322.592 7405.24 85.0237 7096.28 85.0237 6566.33C85.0237 5748.16 430.389 5176.38 689.328 4747.7C764.886 4622.6 833.086 4509.7 883.197 4406.4C1105.82 3947.53 1299.13 3404.08 1184.54 2824.36C1136.28 2580.2 1051.68 2443.29 974.334 2373.22C937.026 2385.56 900.714 2393.04 870.194 2392.4C837.086 2391.72 809.018 2381.35 795.519 2355.13C788.846 2342.17 788.197 2329.36 794.056 2318.72C799.804 2308.28 810.993 2301.43 824.865 2298.36C852.571 2292.22 893.832 2300.27 939.196 2329.08C951.659 2337 964.474 2346.5 977.46 2357.76C978.196 2357.51 978.933 2357.25 979.67 2356.99C1059.78 2328.83 1144.38 2278.59 1186.39 2236.26C1306.15 2115.61 1425.61 1939.73 1479.1 1525C1479.58 1521.26 1483 1518.62 1486.73 1519.11ZM962.27 2362.78C951.931 2354.23 941.766 2346.87 931.883 2340.6C888.302 2312.92 850.763 2306.59 827.816 2311.68C816.361 2314.21 809.261 2319.38 806.005 2325.29C802.862 2331 802.497 2338.88 807.646 2348.88C817.789 2368.58 839.513 2378.12 870.477 2378.77C896.842 2379.31 928.621 2373.31 962.27 2362.78Z" fill="#BB0C40"/>
<path fill-rule="evenodd" clip-rule="evenodd" d="M-185.799 -517.618C-183.425 -520.542 -179.13 -520.988 -176.205 -518.615C-68.1723 -430.923 114.743 -313.772 376.801 -372.208C435.835 -385.373 498.608 -406.378 563.135 -427.97C570.574 -430.459 578.036 -432.956 585.518 -435.449C657.716 -459.511 731.693 -483.223 803.797 -496.052C875.919 -508.884 946.661 -510.926 1012.33 -491.267C1078.17 -471.559 1138.37 -430.196 1189.54 -357.192C1292.44 -210.389 1265.21 -27.3851 1159.1 136.191C1052.96 299.826 867.185 445.438 649.642 519.325C433.449 592.753 290.425 657.11 205.674 726.551C163.426 761.167 135.947 796.822 120.998 835.222C106.063 873.588 103.42 915.249 111.744 962.255C119.78 1007.63 149.374 1041.57 193.851 1064.57C238.471 1087.66 297.731 1099.51 363.725 1100.41C495.738 1102.21 652.573 1060.16 768.145 980.116C885.037 899.156 1020.52 818.151 1146.49 793.187C1209.61 780.678 1270.79 782.145 1326.17 805.13C1381.63 828.151 1430.54 872.456 1469.57 944.276C1471.37 947.585 1470.15 951.726 1466.84 953.525C1463.53 955.323 1459.39 954.098 1457.59 950.789C1419.78 881.206 1373.04 839.35 1320.94 817.728C1268.76 796.07 1210.48 794.411 1149.14 806.567C1026.18 830.934 892.72 910.427 775.911 991.329C657.784 1073.15 498.108 1115.89 363.539 1114.05C296.244 1113.13 234.696 1101.06 187.584 1076.69C140.329 1052.24 107.266 1015.19 98.3132 964.633C89.6486 915.704 92.2654 871.432 108.288 830.274C124.297 789.149 153.473 751.688 197.029 716C283.884 644.835 429.059 579.839 645.256 506.409C860.103 433.438 1043.3 289.653 1147.66 128.768C1252.06 -32.1761 1276.89 -208.816 1178.37 -349.363C1128.84 -420.034 1071.11 -459.433 1008.42 -478.2C945.559 -497.018 877.172 -495.252 806.186 -482.623C735.183 -469.99 662.075 -446.586 589.831 -422.509C582.351 -420.016 574.879 -417.516 567.42 -415.019C503.02 -393.468 439.542 -372.224 379.769 -358.895C111.683 -299.114 -75.5027 -419.305 -184.802 -508.024C-187.726 -510.398 -188.172 -514.693 -185.799 -517.618Z" fill="#BB0C40"/>
</g>
<defs>
<clipPath id="clip0_984_42103">
<rect width="1310.36" height="32768" fill="white"/>
</clipPath>
</defs>
</svg>
