<svg width="295" height="39" viewBox="0 0 295 39" fill="none" xmlns="http://www.w3.org/2000/svg">
<path d="M86.0635 5.27075H104.114V32.662H99.3453V8.97547H90.8323V32.662H86.0635V5.27075Z" fill="white"/>
<path d="M110.563 38.7709C109.643 38.7709 108.986 38.6526 108.592 38.4162C108.198 38.206 108.001 38.1009 108.001 38.1009V34.2779C108.526 34.8034 109.236 35.0661 110.129 35.0661C110.786 35.0661 111.311 34.9216 111.706 34.6326C112.1 34.3699 112.428 34.002 112.691 33.5291L105.873 12.8378H110.799L115.174 27.7355L119.549 12.8378H124.081L117.893 31.5979C117.447 32.9379 116.934 34.1465 116.356 35.2238C115.778 36.3273 115.029 37.1944 114.11 37.825C113.216 38.4556 112.034 38.7709 110.563 38.7709Z" fill="white"/>
<path d="M140.788 16.5426H135.27V32.662H130.58V16.5426H125.063V12.8378H140.788V16.5426Z" fill="white"/>
<path d="M157.545 31.322C156.862 31.795 155.969 32.2022 154.865 32.5438C153.762 32.8854 152.461 33.0561 150.963 33.0561C147.968 33.0561 145.656 32.2154 144.027 30.5338C142.398 28.8259 141.583 26.251 141.583 22.809C141.583 20.8122 141.886 19.0386 142.49 17.4884C143.121 15.912 144.053 14.6771 145.288 13.7837C146.549 12.8904 148.126 12.4437 150.018 12.4437C151.594 12.4437 152.96 12.759 154.116 13.3896C155.273 14.0202 156.166 15.0318 156.796 16.4243C157.427 17.7906 157.742 19.6298 157.742 21.942V24.4249H146.431C146.536 26.0802 146.957 27.3151 147.692 28.1297C148.428 28.9442 149.65 29.3514 151.358 29.3514C152.514 29.3514 153.643 29.1675 154.747 28.7997C155.877 28.4318 156.81 27.9983 157.545 27.4991V31.322ZM149.939 16.1484C147.732 16.1484 146.562 17.7512 146.431 20.9567H152.973V20.5626C152.973 19.3277 152.75 18.2898 152.303 17.449C151.883 16.582 151.095 16.1484 149.939 16.1484Z" fill="white"/>
<path d="M160.885 32.662V12.8378H165.575V28.9573H170.698V12.8378H175.388V28.9573H180.512V12.8378H185.202V32.662H160.885Z" fill="white"/>
<path d="M204.308 31.322C203.625 31.795 202.732 32.2022 201.628 32.5438C200.525 32.8854 199.224 33.0561 197.727 33.0561C194.731 33.0561 192.419 32.2154 190.79 30.5338C189.161 28.8259 188.347 26.251 188.347 22.809C188.347 20.8122 188.649 19.0386 189.253 17.4884C189.884 15.912 190.816 14.6771 192.051 13.7837C193.312 12.8904 194.889 12.4437 196.781 12.4437C198.357 12.4437 199.723 12.759 200.88 13.3896C202.036 14.0202 202.929 15.0318 203.56 16.4243C204.19 17.7906 204.505 19.6298 204.505 21.942V24.4249H193.194C193.299 26.0802 193.72 27.3151 194.455 28.1297C195.191 28.9442 196.413 29.3514 198.121 29.3514C199.277 29.3514 200.407 29.1675 201.51 28.7997C202.64 28.4318 203.573 27.9983 204.308 27.4991V31.322ZM196.702 16.1484C194.495 16.1484 193.326 17.7512 193.194 20.9567H199.737V20.5626C199.737 19.3277 199.513 18.2898 199.067 17.449C198.646 16.582 197.858 16.1484 196.702 16.1484Z" fill="white"/>
<path d="M216.161 33.0561C213.034 33.0561 210.695 32.1759 209.145 30.4155C207.621 28.6289 206.859 26.0802 206.859 22.7696C206.859 20.7465 207.201 18.9598 207.884 17.4096C208.567 15.8594 209.579 14.6508 210.919 13.7837C212.285 12.8904 213.967 12.4437 215.964 12.4437C217.12 12.4437 218.118 12.5357 218.959 12.7196C219.826 12.8772 220.509 13.1006 221.008 13.3896V17.3702C220.535 17.0812 219.892 16.8053 219.077 16.5426C218.263 16.2798 217.396 16.1484 216.476 16.1484C214.952 16.1484 213.77 16.7002 212.929 17.8037C212.114 18.881 211.707 20.4969 211.707 22.6514C211.707 24.7008 212.075 26.3298 212.811 27.5385C213.546 28.7471 214.755 29.3514 216.436 29.3514C217.435 29.3514 218.302 29.2332 219.038 28.9967C219.773 28.7602 220.43 28.4318 221.008 28.0114V31.8344C219.878 32.6489 218.263 33.0561 216.161 33.0561Z" fill="white"/>
<path d="M238.51 16.5426H232.992V32.662H228.302V16.5426H222.784V12.8378H238.51V16.5426Z" fill="white"/>
<path d="M249.484 32.662H241.286V12.8378H249.563C253.951 12.8378 256.145 14.5194 256.145 17.8826C256.145 19.0649 255.829 20.0239 255.199 20.7596C254.568 21.4953 253.727 22.0208 252.676 22.3361C253.99 22.5726 255.015 23.0718 255.75 23.8338C256.512 24.5694 256.893 25.5942 256.893 26.9079C256.893 28.7997 256.237 30.2316 254.923 31.2038C253.635 32.1759 251.822 32.662 249.484 32.662ZM249.011 16.3061H245.858V20.799H248.853C249.747 20.799 250.43 20.602 250.903 20.2079C251.402 19.8137 251.652 19.2751 251.652 18.592C251.652 17.068 250.771 16.3061 249.011 16.3061ZM249.09 24.2279H245.858V29.1938H249.09C250.036 29.1938 250.785 28.9967 251.336 28.6026C251.888 28.1822 252.164 27.5122 252.164 26.5926C252.164 25.0161 251.139 24.2279 249.09 24.2279Z" fill="white"/>
<path d="M260.03 12.8378H264.562V25.0949L271.735 12.8378H275.913V32.662H271.381V20.4049L264.208 32.662H260.03V12.8378Z" fill="white"/>
<path d="M278.472 32.662L282.926 25.1738C281.664 24.7534 280.692 24.0702 280.009 23.1243C279.326 22.1522 278.984 20.9173 278.984 19.4196C278.984 17.2914 279.72 15.6624 281.191 14.5325C282.663 13.4027 284.541 12.8378 286.827 12.8378H294V32.662H289.31V26.1985H287.064L283.28 32.662H278.472ZM287.182 16.5426C286.157 16.5426 285.33 16.779 284.699 17.252C284.069 17.7249 283.753 18.5 283.753 19.5773C283.753 20.7071 284.042 21.5216 284.62 22.0208C285.198 22.52 286.013 22.7696 287.064 22.7696H289.31V16.5426H287.182Z" fill="white"/>
<mask id="mask0_552_13490" style="mask-type:alpha" maskUnits="userSpaceOnUse" x="1" y="1" width="37" height="37">
<circle cx="19.1901" cy="19.3234" r="18.1901" fill="#D9D9D9"/>
</mask>
<g mask="url(#mask0_552_13490)">
<rect x="1" y="1.1333" width="36.3802" height="36.3802" fill="#FC3F1D"/>
<path d="M21.7538 30.2551H25.5541V8.427H20.0264C14.4673 8.427 11.5464 11.2851 11.5464 15.4937C11.5464 18.8543 13.1482 20.8329 16.0063 22.8744L11.0439 30.2551H15.1583L20.6859 21.995L18.7701 20.7073C16.446 19.1369 15.3153 17.912 15.3153 15.2738C15.3153 12.9497 16.9485 11.3793 20.0578 11.3793H21.7538V30.2551Z" fill="white"/>
</g>
<mask id="mask1_552_13490" style="mask-type:alpha" maskUnits="userSpaceOnUse" x="39" y="1" width="38" height="37">
<circle cx="58.0104" cy="19.3234" r="18.1901" fill="#D9D9D9"/>
</mask>
<g mask="url(#mask1_552_13490)">
<rect x="39.8203" y="1.1333" width="36.3802" height="36.3802" fill="url(#paint0_linear_552_13490)"/>
<path d="M53.6495 16.0121L53.6499 16.0121C56.2533 16.0135 58.8567 16.013 61.4601 16.0126C62.7437 16.0124 64.0273 16.0121 65.3109 16.0121C68.5324 16.01 70.8475 18.1651 70.8379 21.4372C70.8334 22.9881 70.6774 25.402 70.4391 28.0086C70.161 31.051 69.7586 34.5322 69.293 37.5136H66.367C66.841 34.5707 67.2666 30.9656 67.5609 27.7454C67.5787 27.5508 67.5962 27.3612 67.6132 27.1761C67.8202 24.9246 67.9647 23.352 67.9476 21.6107C67.929 19.7263 67.0858 18.9023 65.2909 18.9023H53.8094C51.1898 18.9023 49.4824 19.0994 48.3606 21.7137C47.74 23.1601 46.793 26.1477 46.1101 29.7385C45.6425 32.1975 45.3088 34.8874 45.277 37.5136H42.3867C42.4187 34.6491 42.7818 31.7699 43.2709 29.1985C43.9821 25.4588 44.9812 22.2599 45.7046 20.574C47.2569 16.9564 49.9576 16.0101 53.6495 16.0121Z" fill="#FF6D3A"/>
<path d="M61.498 37.5136H58.6055C58.8458 31.6116 60.0072 25.5651 61.2797 22.005C61.5484 21.2535 62.3754 20.862 63.1269 21.1307C63.8784 21.3993 64.2699 22.2263 64.0013 22.9778C62.8418 26.2217 61.7374 31.9263 61.498 37.5136Z" fill="#FF6D3A"/>
<path fill-rule="evenodd" clip-rule="evenodd" d="M62.2073 10.3315C61.7816 10.4757 61.6595 10.6362 61.5859 10.811C61.2564 11.593 60.9844 12.5178 60.4952 14.3055C60.2845 15.0753 59.4896 15.5285 58.7199 15.3178C57.9501 15.1071 57.4968 14.3123 57.7075 13.5425C58.1873 11.7895 58.5062 10.6769 58.9224 9.68887C59.3848 8.59148 60.253 7.94188 61.2805 7.59401C62.2402 7.26912 63.3944 7.18469 64.6229 7.18469C65.9155 7.18469 67.1239 7.36671 68.0593 7.8845C69.098 8.45951 69.838 9.24593 69.7328 10.6851C69.6275 12.1242 69.3736 13.1292 69.1385 14.3167C68.9835 15.0996 68.2232 15.6087 67.4403 15.4537C66.6574 15.2987 66.1483 14.5384 66.3033 13.7555C66.4724 12.9015 66.6277 12.1536 66.8205 11.1492C66.8864 10.8059 66.9361 10.5662 66.6596 10.4131C66.351 10.2423 65.7184 10.0749 64.6229 10.0749C63.4632 10.0749 62.701 10.1644 62.2073 10.3315Z" fill="url(#paint1_linear_552_13490)"/>
</g>
<defs>
<linearGradient id="paint0_linear_552_13490" x1="76.0547" y1="0.974681" x2="40.2487" y2="37.5266" gradientUnits="userSpaceOnUse">
<stop stop-color="#FFEB75"/>
<stop offset="0.920669" stop-color="#FEE14A"/>
</linearGradient>
<linearGradient id="paint1_linear_552_13490" x1="63.6993" y1="17.425" x2="69.7427" y2="7.18469" gradientUnits="userSpaceOnUse">
<stop stop-color="#BB0C40"/>
<stop offset="0.76762" stop-color="#C70E4B"/>
</linearGradient>
</defs>
</svg>
