<svg width="360" height="772" viewBox="0 0 360 772" fill="none" xmlns="http://www.w3.org/2000/svg">
<g clip-path="url(#clip0_1060_42380)">
<path fill-rule="evenodd" clip-rule="evenodd" d="M305.098 -35.673C274.759 -27.0159 236.196 -5.79553 192.804 36.8527C103.911 124.222 -22.7867 124.073 -95.0775 103.852C-97.205 103.256 -98.4472 101.049 -97.8521 98.9219C-97.257 96.7944 -95.0499 95.5522 -92.9224 96.1473C-22.2132 115.926 101.089 115.778 187.196 31.1471C231.304 -12.2046 270.991 -34.2602 302.902 -43.3659C334.656 -52.4268 359.155 -48.7515 372.256 -39.8023C409.035 -14.679 424.584 23.3721 413.619 65.0795C402.744 106.441 366.002 150.669 300.027 189.448C275.383 203.933 247.934 215.78 220.456 226.613C209.667 230.866 198.916 234.948 188.32 238.971C171.788 245.248 155.632 251.382 140.293 257.802C115.188 268.311 92.8199 279.375 75.5651 292.579C58.3534 305.75 46.468 320.866 41.8837 339.458C36.7627 360.227 37.4324 385.61 59.3999 408.264C81.6472 431.206 126.3 451.983 210.948 461.525C280.495 469.365 328.973 494.977 361.118 531.221C393.217 567.412 408.683 613.812 412.985 662.649C413.178 664.849 411.552 666.79 409.351 666.984C407.15 667.178 405.209 665.551 405.015 663.351C400.817 615.688 385.783 571.087 355.132 536.529C324.527 502.022 278.005 477.135 210.052 469.474C124.781 459.862 77.848 438.78 53.6567 413.833C29.1858 388.597 28.5648 360.058 34.1164 337.543C39.2717 316.635 52.5708 300.102 70.7034 286.226C88.793 272.383 111.929 261.003 137.204 250.423C152.625 243.968 169.046 237.732 185.704 231.406C196.279 227.39 206.95 223.338 217.521 219.171C244.889 208.381 271.875 196.716 295.973 182.551C360.998 144.331 395.756 101.559 405.882 63.0453C415.916 24.8782 401.965 -9.82025 367.744 -33.1964C357.345 -40.2999 335.594 -44.3749 305.098 -35.673Z" fill="#BB0C40"/>
</g>
<defs>
<clipPath id="clip0_1060_42380">
<rect width="360" height="772" fill="white"/>
</clipPath>
</defs>
</svg>
