<svg width="1438" height="365" viewBox="0 0 1438 365" fill="none" xmlns="http://www.w3.org/2000/svg">
<path d="M170.241 85.2402C170.241 101.835 165.21 115.098 155.149 125.028C145.218 135.09 131.956 140.12 115.361 140.12C98.7662 140.12 85.4382 135.09 75.3769 125.028C65.4462 115.098 60.4809 101.835 60.4809 85.2402C60.4809 68.6455 65.4462 55.3175 75.3769 45.2562C85.4382 35.3255 98.7662 30.3602 115.361 30.3602H178.081V15.6602H40.8809V30.3602H95.9569C79.8849 33.3655 67.4062 39.9642 58.5209 50.1562C49.3742 60.6095 44.8009 73.9375 44.8009 90.1402C44.8009 109.871 51.2035 125.551 64.0089 137.18C76.8142 148.94 93.9315 154.82 115.361 154.82C136.79 154.82 153.908 148.483 166.713 135.808C179.518 123.133 185.921 106.278 185.921 85.2402H170.241Z" fill="white"/>
<path d="M295.643 15.6602L252.523 97.1962L209.403 15.6602H191.763L243.703 113.856L223.123 152.86H240.763L313.283 15.6602H295.643Z" fill="white"/>
<path d="M344.673 89.1602V30.3602H386.813C395.437 30.3602 402.297 33.0388 407.393 38.3962C412.62 43.7535 415.233 50.8748 415.233 59.7602C415.233 68.6455 412.62 75.7668 407.393 81.1242C402.297 86.4815 395.437 89.1602 386.813 89.1602H344.673ZM328.993 15.6602V152.86H344.673V103.86H386.813C400.141 103.86 410.856 99.8748 418.957 91.9042C426.928 83.8028 430.913 73.0882 430.913 59.7602C430.913 46.4322 426.928 35.7175 418.957 27.6162C410.856 19.6455 400.141 15.6602 386.813 15.6602H328.993Z" fill="white"/>
<path d="M567.087 152.86H582.767V15.6602H567.087V152.86ZM465.167 138.16V79.3602H507.307C515.931 79.3602 522.791 82.0388 527.887 87.3962C533.114 92.7535 535.727 99.8748 535.727 108.76C535.727 117.646 533.114 124.767 527.887 130.124C522.791 135.481 515.931 138.16 507.307 138.16H465.167ZM465.167 64.6602V15.6602H449.487V152.86H507.307C520.635 152.86 531.35 148.875 539.451 140.904C547.422 132.803 551.407 122.088 551.407 108.76C551.407 95.4322 547.422 84.7175 539.451 76.6162C531.35 68.6455 520.635 64.6602 507.307 64.6602H465.167Z" fill="white"/>
<path d="M225.364 310.084V263.044H276.324C283.51 263.044 289.194 265.2 293.376 269.512C297.688 273.693 299.844 279.377 299.844 286.564C299.844 293.62 297.688 299.304 293.376 303.616C289.194 307.928 283.51 310.084 276.324 310.084H225.364ZM225.364 202.284H271.032C277.957 202.284 283.51 204.375 287.692 208.556C291.873 212.737 293.964 218.291 293.964 225.216C293.964 232.272 291.873 237.891 287.692 242.072C283.51 246.253 277.957 248.344 271.032 248.344H225.364V202.284ZM286.124 255.008C301.804 250.435 309.644 239.851 309.644 223.256C309.644 212.541 306.116 203.917 299.06 197.384C292.004 190.851 282.661 187.584 271.032 187.584H209.684V324.784H276.324C288.214 324.784 297.688 321.517 304.744 314.984C311.93 308.32 315.524 299.5 315.524 288.524C315.524 279.247 312.91 271.733 307.684 265.984C302.457 260.235 295.27 256.576 286.124 255.008Z" fill="white"/>
<path d="M401.702 324.784H417.382V187.584H401.702V324.784ZM490.686 187.584L431.886 256.184L490.686 324.784H509.502L450.702 256.184L509.502 187.584H490.686Z" fill="white"/>
<path d="M611.445 187.584L568.325 269.12L525.205 187.584H507.565L559.505 285.78L538.925 324.784H556.565L629.085 187.584H611.445Z" fill="white"/>
<path d="M730.125 324.784L667.405 183.664L604.685 324.784H621.345L667.405 221.1L713.465 324.784H730.125Z" fill="white"/>
<path d="M802.63 251.284C811.254 251.284 818.114 253.963 823.21 259.32C828.436 264.677 831.049 271.799 831.049 280.684C831.049 289.569 828.436 296.691 823.21 302.048C818.114 307.405 811.254 310.084 802.63 310.084H760.49V251.284H802.63ZM802.63 324.784C815.958 324.784 826.672 320.799 834.773 312.828C842.744 304.727 846.729 294.012 846.729 280.684C846.729 267.356 842.744 256.641 834.773 248.54C826.672 240.569 815.958 236.584 802.63 236.584H760.49V187.584H744.81V324.784H802.63Z" fill="white"/>
<path d="M986.824 257.164C986.824 273.759 981.793 287.021 971.732 296.952C961.801 307.013 948.538 312.044 931.944 312.044C915.349 312.044 902.021 307.013 891.96 296.952C882.029 287.021 877.064 273.759 877.064 257.164C877.064 240.569 882.029 227.241 891.96 217.18C902.021 207.249 915.349 202.284 931.944 202.284H994.664V187.584H857.464V202.284H912.54C896.468 205.289 883.989 211.888 875.104 222.08C865.957 232.533 861.384 245.861 861.384 262.064C861.384 281.795 867.786 297.475 880.592 309.104C893.397 320.864 910.514 326.744 931.944 326.744C953.373 326.744 970.49 320.407 983.296 307.732C996.101 295.057 1002.5 278.201 1002.5 257.164H986.824Z" fill="white"/>
<path d="M1112.23 187.584L1069.11 269.12L1025.99 187.584H1008.35L1060.29 285.78L1039.71 324.784H1057.35L1129.87 187.584H1112.23Z" fill="white"/>
<path d="M1161.26 261.084V202.284H1203.4C1212.02 202.284 1218.88 204.963 1223.98 210.32C1229.2 215.677 1231.82 222.799 1231.82 231.684C1231.82 240.569 1229.2 247.691 1223.98 253.048C1218.88 258.405 1212.02 261.084 1203.4 261.084H1161.26ZM1145.58 187.584V324.784H1161.26V275.784H1203.4C1216.72 275.784 1227.44 271.799 1235.54 263.828C1243.51 255.727 1247.5 245.012 1247.5 231.684C1247.5 218.356 1243.51 207.641 1235.54 199.54C1227.44 191.569 1216.72 187.584 1203.4 187.584H1145.58Z" fill="white"/>
<path d="M1383.67 324.784H1399.35V187.584H1383.67V324.784ZM1281.75 310.084V251.284H1323.89C1332.51 251.284 1339.37 253.963 1344.47 259.32C1349.7 264.677 1352.31 271.799 1352.31 280.684C1352.31 289.569 1349.7 296.691 1344.47 302.048C1339.37 307.405 1332.51 310.084 1323.89 310.084H1281.75ZM1281.75 236.584V187.584H1266.07V324.784H1323.89C1337.22 324.784 1347.93 320.799 1356.03 312.828C1364 304.727 1367.99 294.012 1367.99 280.684C1367.99 267.356 1364 256.641 1356.03 248.54C1347.93 240.569 1337.22 236.584 1323.89 236.584H1281.75Z" fill="white"/>
</svg>
