<svg width="360" height="212" viewBox="0 0 360 212" fill="none" xmlns="http://www.w3.org/2000/svg">
<path d="M61.7858 47.7577C61.7858 53.1184 60.1607 57.4028 56.9105 60.6108C53.7025 63.861 49.4182 65.4861 44.0574 65.4861C38.6967 65.4861 34.3913 63.861 31.1411 60.6108C27.9331 57.4028 26.3291 53.1184 26.3291 47.7577C26.3291 42.397 27.9331 38.0915 31.1411 34.8413C34.3913 31.6334 38.6967 30.0294 44.0574 30.0294H64.3184V25.2807H19.9975V30.0294H37.7892C32.5973 31.0002 28.5662 33.1318 25.6959 36.4242C22.7412 39.8011 21.2639 44.1065 21.2639 49.3406C21.2639 55.7144 23.3322 60.7796 27.4688 64.5363C31.6054 68.3353 37.1349 70.2347 44.0574 70.2347C50.9799 70.2347 56.5095 68.1875 60.6461 64.0931C64.7827 59.9987 66.851 54.5536 66.851 47.7577H61.7858ZM103.562 25.2807L89.6322 51.62L75.7028 25.2807H70.0044L86.7831 57.0018L80.1349 69.6016H85.8333L109.26 25.2807H103.562ZM120.667 49.024V30.0294H134.28C137.065 30.0294 139.282 30.8947 140.928 32.6253C142.616 34.3559 143.46 36.6564 143.46 39.5267C143.46 42.397 142.616 44.6975 140.928 46.4281C139.282 48.1587 137.065 49.024 134.28 49.024H120.667ZM115.602 25.2807V69.6016H120.667V53.7727H134.28C138.585 53.7727 142.046 52.4853 144.663 49.9104C147.238 47.2934 148.526 43.8321 148.526 39.5267C148.526 35.2212 147.238 31.76 144.663 29.1429C142.046 26.5681 138.585 25.2807 134.28 25.2807H115.602ZM193.781 69.6016H198.847V25.2807H193.781V69.6016ZM160.857 64.8529V45.8582H174.47C177.256 45.8582 179.472 46.7236 181.118 48.4542C182.807 50.1848 183.651 52.4853 183.651 55.3556C183.651 58.2259 182.807 60.5263 181.118 62.257C179.472 63.9876 177.256 64.8529 174.47 64.8529H160.857ZM160.857 41.1096V25.2807H155.792V69.6016H174.47C178.776 69.6016 182.237 68.3141 184.854 65.7393C187.429 63.1223 188.716 59.661 188.716 55.3556C188.716 51.0501 187.429 47.5889 184.854 44.9718C182.237 42.397 178.776 41.1096 174.47 41.1096H160.857Z" fill="white"/>
<path d="M28.2314 123.872V108.677H44.6934C47.015 108.677 48.8512 109.373 50.2019 110.766C51.5948 112.117 52.2913 113.953 52.2913 116.275C52.2913 118.554 51.5948 120.39 50.2019 121.783C48.8512 123.176 47.015 123.872 44.6934 123.872H28.2314ZM28.2314 89.0489H42.9839C45.2211 89.0489 47.015 89.7243 48.3657 91.075C49.7165 92.4257 50.3918 94.2197 50.3918 96.4568C50.3918 98.7362 49.7165 100.551 48.3657 101.902C47.015 103.253 45.2211 103.928 42.9839 103.928H28.2314V89.0489ZM47.8592 106.081C52.9245 104.603 55.4571 101.184 55.4571 95.8237C55.4571 92.3624 54.3174 89.5765 52.038 87.466C49.7587 85.3555 46.7407 84.3002 42.9839 84.3002H23.1662V128.621H44.6934C48.5346 128.621 51.5948 127.566 53.8742 125.455C56.1958 123.303 57.3566 120.453 57.3566 116.908C57.3566 113.911 56.5123 111.484 54.8239 109.626C53.1355 107.769 50.8139 106.587 47.8592 106.081Z" fill="white"/>
<path d="M88.2381 128.621H93.3033V84.3002H88.2381V128.621ZM116.983 84.3002L97.9887 106.461L116.983 128.621H123.062L104.067 106.461L123.062 84.3002H116.983ZM157.259 84.3002L143.33 110.639L129.401 84.3002H123.702L140.481 116.021L133.833 128.621H139.531L162.958 84.3002H157.259ZM196.864 128.621L176.603 83.0339L156.342 128.621H161.724L176.603 95.1272L191.482 128.621H196.864ZM221.552 104.878C224.338 104.878 226.554 105.743 228.2 107.474C229.888 109.204 230.733 111.505 230.733 114.375C230.733 117.245 229.888 119.546 228.2 121.276C226.554 123.007 224.338 123.872 221.552 123.872H207.939V104.878H221.552ZM221.552 128.621C225.857 128.621 229.319 127.334 231.936 124.759C234.51 122.142 235.798 118.681 235.798 114.375C235.798 110.07 234.51 106.608 231.936 103.991C229.319 101.417 225.857 100.129 221.552 100.129H207.939V84.3002H202.874V128.621H221.552Z" fill="white"/>
<path d="M201.967 164.892C201.967 170.253 200.342 174.538 197.092 177.746C193.884 180.996 189.6 182.621 184.239 182.621C178.878 182.621 174.573 180.996 171.323 177.746C168.115 174.538 166.511 170.253 166.511 164.892C166.511 159.532 168.115 155.226 171.323 151.976C174.573 148.768 178.878 147.164 184.239 147.164H204.5V142.415H160.179V147.164H177.971C172.779 148.135 168.748 150.267 165.878 153.559C162.923 156.936 161.445 161.241 161.445 166.475C161.445 172.849 163.514 177.914 167.65 181.671C171.787 185.47 177.317 187.369 184.239 187.369C191.162 187.369 196.691 185.322 200.828 181.228C204.964 177.133 207.033 171.688 207.033 164.892H201.967ZM243.743 142.415L229.814 168.755L215.884 142.415H210.186L226.965 174.137L220.317 186.736H226.015L249.442 142.415H243.743ZM260.848 166.159V147.164H274.461C277.247 147.164 279.463 148.029 281.109 149.76C282.798 151.491 283.642 153.791 283.642 156.661C283.642 159.532 282.798 161.832 281.109 163.563C279.463 165.293 277.247 166.159 274.461 166.159H260.848ZM255.783 142.415V186.736H260.848V170.907H274.461C278.767 170.907 282.228 169.62 284.845 167.045C287.42 164.428 288.707 160.967 288.707 156.661C288.707 152.356 287.42 148.895 284.845 146.278C282.228 143.703 278.767 142.415 274.461 142.415H255.783ZM333.963 186.736H339.028V142.415H333.963V186.736ZM301.039 181.988V162.993H314.652C317.438 162.993 319.654 163.858 321.3 165.589C322.988 167.32 323.832 169.62 323.832 172.49C323.832 175.361 322.988 177.661 321.3 179.392C319.654 181.122 317.438 181.988 314.652 181.988H301.039ZM301.039 158.244V142.415H295.974V186.736H314.652C318.957 186.736 322.418 185.449 325.035 182.874C327.61 180.257 328.898 176.796 328.898 172.49C328.898 168.185 327.61 164.724 325.035 162.107C322.418 159.532 318.957 158.244 314.652 158.244H301.039Z" fill="white"/>
</svg>
