<svg width="210" height="210" viewBox="0 0 210 210" fill="none" xmlns="http://www.w3.org/2000/svg">
<path d="M165.402 52.6026C178.342 51.3868 191.101 57.4209 196.214 67.5979C201.327 77.775 198.16 91.3293 189.111 98.2641C200.558 105.829 206.214 121.095 202.458 134.289C198.703 147.438 185.762 157.435 172.008 157.84C174.677 173.151 165.266 189.722 150.742 195.396C136.218 201.07 118.029 195.261 109.477 182.247C104.364 192.874 91.4691 198.053 79.705 197.287C59.7062 195.981 46.7205 178.284 44.9559 158.426C36.7663 159.957 21.4278 157.3 12.8763 147.168C7.03949 140.278 6.99424 128.39 8.48737 120.239C9.93525 112.044 14.0074 104.523 18.9393 97.8138C10.5687 88.8076 8.62311 74.4427 14.4146 63.5902C20.1609 52.7377 33.1466 46.2082 45.3631 48.0094C43.7342 32.4287 53.6884 16.3526 68.3935 10.8138C83.1438 5.27498 101.288 10.8138 110.427 23.5576C121.558 15.9023 137.077 15.2268 148.887 21.8464C160.651 28.466 166.171 39.8138 165.356 53.233L165.492 52.6026H165.402Z" fill="#357C83"/>
<path d="M165.087 56.2506C175.448 55.8003 186.986 59.763 192.144 69.3546C196.985 78.3158 194.135 89.3484 186.443 95.6527C184.226 97.454 184.633 100.606 186.76 102.092C196.533 108.892 201.736 122.041 198.524 133.614C195.311 145.187 184.226 153.112 172.371 153.743C169.702 153.878 167.53 156.67 167.892 159.282C169.883 172.611 162.372 187.021 149.341 191.794C136.31 196.567 120.926 191.119 113.234 179.951C111.47 177.384 107.488 177.744 106.04 180.581C99.3438 193.46 81.6978 196.297 69.3455 190.218C56.7671 184.004 50.4326 170.449 49.03 157.12C48.849 155.454 46.9486 154.103 45.2745 154.373C34.2797 156.174 19.0769 151.536 14.0546 140.864C7.62959 127.22 14.1903 110.828 22.2894 99.6155C23.3301 98.1294 23.1943 96.058 22.0632 94.7071C15.1405 86.8717 12.9234 74.8934 17.7648 65.3919C22.6061 55.9804 33.5105 50.9369 43.8719 52.1978C47.0844 52.6031 49.6634 49.8111 49.3919 46.704C48.2155 32.5642 57.2648 18.2894 71.0649 14.1465C84.865 10.0037 98.9819 15.9478 107.081 26.8453C108.167 28.2863 110.791 27.926 112.058 27.0705C122.284 20.4059 135.586 19.7304 146.355 25.7195C156.897 31.5736 161.015 42.1108 161.422 53.6388C161.558 58.0968 167.847 58.0518 168.797 53.954L168.933 53.3236C170.109 48.145 162.824 47.4695 161.784 52.0627L161.648 52.6931L169.023 53.0083C170.743 38.6885 163.775 25.1792 151.196 18.1093C137.939 10.6792 121.153 11.9851 108.574 20.1807L113.551 20.4059C103.19 6.44624 83.2362 0.63723 66.9475 7.21176C50.6588 13.7863 39.7092 31.5736 41.2023 49.4509L46.7224 43.9571C32.5151 42.2459 17.81 49.1807 10.9326 61.9245C4.10038 74.5782 6.27221 90.3391 15.7287 101.011L15.5025 96.103C5.684 109.657 -1.14819 129.291 6.54368 145.502C12.7424 158.561 30.9767 164.775 44.5958 162.569L40.8404 159.822C42.5597 176.483 51.8352 193.325 68.3954 199.224C84.9555 205.123 104.864 199.494 112.918 183.959L105.724 184.589C115.723 199.134 135.45 205.979 152.101 199.044C168.752 192.109 178.751 174.097 176.127 156.49L171.647 162.029C187.303 161.173 202.008 150.185 206.351 135.055C210.695 119.924 204.315 103.533 191.42 94.572L191.737 101.011C201.827 92.7708 205.718 77.9105 200.198 66.0223C194.225 53.1885 179.068 47.7397 165.675 49.0906C161.467 49.4959 160.019 56.5208 165.041 56.2956L165.087 56.2506Z" fill="#357C83"/>
<path d="M146.808 69.2652C155.631 68.4096 164.318 72.5525 167.757 79.4873C171.195 86.422 169.114 95.6534 162.915 100.337C170.698 105.47 174.589 115.872 172.01 124.834C169.431 133.795 160.653 140.594 151.287 140.865C153.097 151.312 146.717 162.57 136.808 166.442C126.899 170.315 114.547 166.352 108.756 157.481C105.272 164.731 96.4939 168.243 88.4853 167.703C74.8661 166.802 66.0431 154.779 64.8214 141.27C59.2562 142.306 48.8043 140.504 42.9675 133.615C38.9858 128.931 38.9858 120.826 39.9812 115.287C40.9767 109.703 43.7367 104.57 47.0849 100.021C41.3839 93.8972 40.0717 84.1255 44.0082 76.7404C47.9446 69.3553 56.7676 64.8972 65.0477 66.113C63.9165 55.4857 70.7035 44.5432 80.7481 40.8056C90.7928 37.023 103.145 40.8056 109.344 49.4516C116.9 44.228 127.488 43.7776 135.496 48.2808C143.505 52.7839 147.26 60.5292 146.717 69.6705L146.808 69.2202V69.2652Z" fill="#FAD694"/>
<path d="M146.174 76.4698C151.333 76.6049 157.396 78.7664 159.975 83.4946C162.282 87.6825 161.06 92.0505 157.576 94.9775C153.188 98.625 153.957 104.839 158.21 107.856C168.707 115.377 165.178 131.723 152.011 132.578C146.582 132.939 142.374 138.387 143.098 143.611C143.957 150.005 140.609 157.03 134.094 159.012C127.578 160.993 120.022 157.976 116.312 152.707C112.692 147.574 104.91 148.294 101.878 153.968C98.4848 160.273 89.7975 160.723 83.9155 157.526C76.9023 153.698 73.8256 145.998 73.0112 138.432C72.6492 135.055 68.8485 132.443 65.5455 132.984C59.7992 133.884 51.4287 131.813 48.7592 126.094C45.2752 118.484 49.5283 109.568 53.9172 103.443C56.0438 100.471 55.7271 96.3735 53.4195 93.6716C46.6778 85.8362 50.8857 73.0474 62.2425 74.3083C68.758 75.0288 73.7351 69.625 73.2826 63.3207C72.8302 56.8362 77.1286 49.9014 83.5536 48.1903C91.0644 46.1639 98.3943 49.9915 102.874 55.8906C105.091 58.7726 110.204 58.0521 112.873 56.3859C118.529 52.7834 125.633 52.6934 131.379 56.3409C137.125 59.9884 138.075 65.8875 139.206 72.2368C140.654 80.1623 152.373 77.5505 153.866 70.976L153.957 70.5257C156.355 60.2136 141.74 58.8176 139.614 67.9589L139.523 68.4092L153.866 70.976C156.762 58.9077 151.559 47.4698 140.926 41.0754C130.157 34.5909 116.086 35.9869 105.815 42.5614L115.814 43.0567C107.263 31.889 90.8835 27.9713 77.9883 33.5102C63.9167 39.5893 55.7271 53.9092 56.8582 68.9496L67.8983 57.962C55.6366 56.6561 43.2391 62.375 37.1761 73.3176C31.1583 84.08 32.7872 97.139 40.7958 106.37L40.2981 96.5986C32.6967 107.226 27.5386 122.942 33.6921 135.505C38.8955 146.043 52.9218 151.266 64.1429 149.51L56.6773 144.061C58.0799 156.94 65.5455 169.729 78.2597 174.232C91.7884 179.005 108.665 173.917 115.633 160.948L101.2 162.209C109.434 173.962 124.411 179.456 138.256 174.277C152.826 168.828 161.603 153.293 159.522 138.117L150.609 149.15C163.82 148.294 176.037 138.973 179.883 126.274C183.774 113.35 178.345 100.471 167.666 92.816L168.3 105.695C176.806 98.58 180.29 85.6561 175.494 75.4791C170.607 65.0769 158.3 60.4387 147.396 62.0598C139.071 63.2757 135.949 76.2446 146.129 76.4698H146.174Z" fill="#8E5A4A"/>
</svg>
