<svg width="23" height="21" viewBox="0 0 23 21" fill="none" xmlns="http://www.w3.org/2000/svg">
<path d="M21.1309 9.56125C17.9729 7.06433 14.8014 4.58433 11.6164 2.12125C11.2776 1.85817 10.9005 1.58587 10.4233 1.82125C9.94599 2.05664 9.79804 2.4651 9.80997 2.9751C9.83145 3.89817 9.78611 4.82125 9.82668 5.74433C9.85054 6.30048 9.7169 6.61894 9.13224 6.87971C4.40247 8.98894 1.99224 12.7136 1.30258 17.6036C1.22145 18.1874 1.10213 18.7805 1.76315 19.1289C2.46236 19.4959 2.85133 18.9766 3.28804 18.5913C5.17088 16.9366 7.20406 15.5289 9.82906 14.8528C9.82906 15.882 9.82906 16.8328 9.82906 17.7836C9.82906 18.3328 9.79565 18.8843 10.4257 19.1682C11.0127 19.4243 11.4136 19.0366 11.8026 18.732C14.9128 16.312 18.0151 13.8828 21.1094 11.4443C21.9518 10.7682 21.9709 10.2259 21.1309 9.56125ZM18.9354 10.7543C16.5849 12.5774 14.2343 14.4236 11.7382 16.3828C11.7382 15.5543 11.7382 14.9543 11.7382 14.3543C11.7262 12.9328 11.2609 12.5866 9.82906 12.9074C8.02227 13.3353 6.31009 14.0749 4.77474 15.0905C4.4669 15.2866 4.22827 15.6766 3.75099 15.5336C5.14463 11.5851 6.92486 9.73433 10.8504 8.21587C11.4589 7.98048 11.7382 7.65048 11.7382 7.03894C11.7238 6.31202 11.7382 5.5851 11.7382 4.6251C14.208 6.5451 16.5109 8.33587 18.8185 10.1313C19.0333 10.2997 19.3029 10.4682 18.9354 10.7543Z" fill="white"/>
</svg>
