<svg width="209" height="200" viewBox="0 0 209 200" fill="none" xmlns="http://www.w3.org/2000/svg">
<g clip-path="url(#clip0_1018_17528)">
<path d="M97.576 45.0501C89.1611 33.5974 77.0699 20.9993 62.4515 14.9866C47.833 8.9739 29.4234 8.71623 17.318 18.9378C7.59623 27.1838 -1.62289 42.8025 7.26595 71.0479C14.6039 94.4688 47.6319 111.476 57.9999 118.362C85.8583 136.772 109.868 167.437 116.043 195.926C117.895 179.491 126.483 164.431 137.052 151.718C147.621 139.006 160.257 128.154 171.903 116.415C183.549 104.676 194.477 91.6486 200.623 76.3305C206.77 61.0124 207.416 42.7453 199.187 28.372C189.308 11.107 167.595 2.40289 147.879 4.93682C136.726 6.50569 126.213 11.0762 117.472 18.1568C108.73 25.2373 102.089 34.5599 98.2653 45.1217L97.576 45.0501Z" fill="#BC212E"/>
<path d="M108.361 138.104C103.005 122.356 86.4909 109.472 82.1111 106.838L60.1978 93.7242C53.9224 89.9878 47.5179 86.1511 42.7647 80.6108C38.0115 75.0705 35.1252 67.4115 37.0207 60.3824C38.088 56.8727 40.2486 53.7931 43.1894 51.5897C46.1302 49.3864 49.6984 48.1739 53.3768 48.1279C58.6182 48.1279 63.5149 50.6189 68.0096 53.3103C82.5782 61.9958 95.2185 73.5501 105.159 87.2677C111.493 74.7807 119.848 63.4192 129.887 53.6395C134.195 49.445 140.887 45.4794 146.846 44.5919C155.046 43.375 158.334 47.455 160.905 52.709C163.328 58.1364 163.58 64.2819 161.608 69.8882C159.636 75.5021 156.588 80.6803 152.633 85.1346C145.166 94.0392 136.047 101.412 127.747 109.586C119.447 117.761 111.822 126.952 108.361 138.104Z" fill="#F37B7E"/>
<path d="M98.2653 48.8439H97.5329C96.9521 48.8424 96.3803 48.6999 95.8671 48.4287C95.3435 48.1608 94.8908 47.7733 94.546 47.2977L94.1152 46.7108C93.6841 46.1257 93.4341 45.4278 93.3958 44.7029C93.3575 43.9779 93.5327 43.2577 93.8998 42.6308C94.2683 42.0151 94.8067 41.5181 95.4507 41.1992C96.1036 40.8741 96.8355 40.7401 97.5616 40.8126C98.2921 40.6233 99.0628 40.6582 99.773 40.9128C100.708 41.2524 101.475 41.94 101.913 42.8312C102.12 43.2815 102.237 43.7678 102.257 44.2628C102.286 44.7497 102.212 45.2372 102.042 45.6944L101.812 46.3815C101.538 47.1233 101.035 47.7597 100.376 48.1997C99.7354 48.6441 98.9741 48.8838 98.1934 48.8868L98.2653 48.8439Z" fill="#57213C"/>
<path d="M6.11807 67.3976C6.58796 67.2966 7.03247 67.1018 7.42483 66.8249C7.83046 66.547 8.17696 66.1918 8.44439 65.7799C8.71382 65.342 8.89435 64.8556 8.97572 64.3483C9.07203 63.8759 9.07203 63.3891 8.97572 62.9167L8.67415 61.4851C8.50733 60.6411 8.05025 59.8816 7.38175 59.3377C6.71515 58.7872 5.87795 58.4837 5.01235 58.4787C5.8375 58.2313 6.55141 57.707 7.03299 56.9946C7.51458 56.2823 7.73419 55.4258 7.65459 54.5705C7.65459 54.0981 7.58279 53.6256 7.55407 53.1389C7.506 52.2848 7.16651 51.4727 6.5919 50.8374C6.01728 50.202 5.24208 49.7816 4.39487 49.6458C5.23934 49.5231 6.01541 49.1135 6.59195 48.4862C7.17972 47.8667 7.53044 47.0611 7.58279 46.21C7.58279 45.7662 7.58279 45.3081 7.69767 44.8643C7.79289 44.032 7.6037 43.192 7.16069 42.4801C6.71769 41.7683 6.04678 41.2263 5.25647 40.9417C6.09165 40.9766 6.91427 40.7301 7.59165 40.2418C8.26903 39.7535 8.76166 39.0519 8.99007 38.2503C9.11931 37.8208 9.24855 37.3913 9.39215 36.9619C9.65905 36.1796 9.65403 35.3305 9.3779 34.5514C9.10178 33.7723 8.57062 33.1085 7.87 32.6671C8.676 32.8761 9.52854 32.8158 10.2968 32.4953C11.0593 32.1706 11.6911 31.6012 12.0918 30.8776C12.3216 30.491 12.537 30.1188 12.7811 29.7466C13.2222 29.0473 13.4145 28.2203 13.3268 27.3988C13.2465 26.573 12.8929 25.7974 12.3216 25.1941C13.0522 25.5951 13.8979 25.7364 14.7197 25.595C15.5395 25.4665 16.2927 25.0684 16.8594 24.464C17.1609 24.1348 17.4768 23.8198 17.7928 23.5049C18.3842 22.9287 18.7679 22.1737 18.8841 21.3575C18.9859 20.5414 18.825 19.7143 18.4246 18.9953C19.0312 19.5472 19.8034 19.8844 20.6217 19.9545C21.4394 20.0269 22.258 19.8254 22.948 19.3819C23.307 19.1528 23.6804 18.9237 24.0681 18.7233C24.7865 18.3188 25.3516 17.69 25.6764 16.9338C25.9953 16.1777 26.0607 15.3392 25.8631 14.5431C26.3055 15.2448 26.9662 15.7828 27.7442 16.0749C28.5303 16.3465 29.3851 16.3465 30.1711 16.0749L31.4491 15.7027C32.2765 15.5071 33.0122 15.0359 33.5345 14.3668C34.0567 13.6978 34.3342 12.8711 34.3211 12.0235C34.5832 12.8197 35.1072 13.5045 35.8083 13.967C36.5093 14.4294 37.3464 14.6425 38.184 14.5717L39.5482 14.4715C40.3975 14.4411 41.2098 14.1172 41.8458 13.5553C42.4833 12.9929 42.9089 12.2301 43.052 11.3936C43.1626 12.2342 43.5578 13.012 44.1721 13.5982C44.7753 14.1941 45.5669 14.5633 46.4123 14.6433L47.8483 14.8008C48.6878 14.9192 49.5427 14.7482 50.2713 14.316C51 13.8838 51.5586 13.2164 51.8547 12.4243C51.8253 13.2758 52.0831 14.1126 52.5871 14.8008C53.084 15.5012 53.81 16.0074 54.6405 16.2324C55.0857 16.3612 55.5452 16.4757 55.9904 16.6189C56.8056 16.8529 57.6764 16.8031 58.4594 16.4779C59.2424 16.1526 59.891 15.5712 60.2984 14.8294C60.1303 15.6654 60.2518 16.5335 60.643 17.2917C61.0337 18.0452 61.6726 18.6417 62.4524 18.981L63.7161 19.568C64.4944 19.9379 65.3769 20.0289 66.2147 19.8257C67.0511 19.6294 67.7925 19.1485 68.3113 18.4656C68.0244 19.2763 68.0244 20.1603 68.3113 20.9709C68.579 21.7908 69.1282 22.4904 69.8621 22.9465L71.0397 23.7053C71.7605 24.188 72.6271 24.4063 73.4914 24.3227C74.3557 24.2392 75.1641 23.859 75.7785 23.2472C75.3758 24.0119 75.249 24.8914 75.4195 25.7381C75.576 26.59 76.0348 27.3573 76.7119 27.8999L77.8032 28.8161C78.4778 29.3724 79.3259 29.6768 80.2013 29.6768C81.0768 29.6768 81.9249 29.3724 82.5995 28.8161C82.1143 29.5468 81.8916 30.4197 81.9676 31.2927C82.0571 32.1584 82.4424 32.9672 83.059 33.5833L84.0785 34.5854C84.6975 35.2116 85.514 35.606 86.3905 35.702C87.2627 35.7912 88.1383 35.568 88.8604 35.0722C88.2979 35.7485 87.9883 36.5986 87.9845 37.4772C87.988 38.3516 88.2979 39.1972 88.8604 39.868L89.7938 40.9703C90.0954 41.3932 90.4817 41.749 90.9283 42.0154C91.3707 42.2717 91.8581 42.4417 92.3643 42.5165C92.8752 42.5742 93.3926 42.5304 93.8864 42.3876C94.411 42.2544 94.9008 42.0102 95.3224 41.6718C95.7175 41.3347 96.0395 40.9209 96.2691 40.4558C96.4987 39.9906 96.631 39.4838 96.6579 38.9661C96.6856 38.4534 96.6024 37.9407 96.4138 37.4629C96.2318 36.9748 95.9479 36.5308 95.5809 36.1602L94.6044 35.0149C94.0052 34.3111 93.1667 33.8524 92.2494 33.7265C91.3323 33.6108 90.4041 33.8294 89.6359 34.342C90.223 33.631 90.5249 32.7282 90.4831 31.8081C90.44 30.8832 90.0566 30.0066 89.4061 29.3458L88.3291 28.2577C87.6699 27.6125 86.7962 27.2305 85.8735 27.1841C84.9489 27.1442 84.041 27.4391 83.3175 28.0144C83.8316 27.2455 84.0454 26.3155 83.9184 25.4002C83.7913 24.4848 83.3324 23.6476 82.6282 23.0467L81.4363 22.0733C80.7187 21.4858 79.8078 21.1848 78.8802 21.2286C77.9509 21.2768 77.0718 21.664 76.4103 22.3166C76.8536 21.4973 76.9715 20.5416 76.7406 19.6395C76.5103 18.737 75.9526 17.9515 75.1753 17.4349L73.8542 16.5903C73.0643 16.089 72.1149 15.9006 71.1927 16.0622C70.2705 16.2239 69.4423 16.7238 68.8713 17.4635C69.209 16.593 69.209 15.6283 68.8713 14.7578C68.5153 13.8884 67.8508 13.1801 67.0045 12.7679L65.5685 12.1094C64.708 11.7244 63.7332 11.6784 62.8401 11.9805C61.9491 12.2851 61.2025 12.9071 60.7435 13.7271C60.9212 12.8154 60.7519 11.8705 60.2687 11.0765C59.7856 10.2825 59.0231 9.69633 58.13 9.43228L56.6079 9.0171C55.6783 8.72843 54.6726 8.81028 53.8023 9.24544C52.9319 9.68061 52.2647 10.4352 51.9409 11.3506C51.9803 10.4122 51.6639 9.49342 51.0545 8.77714C50.4451 8.06086 49.5875 7.59963 48.6524 7.48531C48.1355 7.41373 47.6041 7.35645 47.0728 7.3135C46.1341 7.2232 45.1957 7.48903 44.4449 8.05794C43.6872 8.62023 43.1735 9.44984 43.0089 10.3771C42.8906 9.44235 42.4224 8.58662 41.6981 7.98135C40.9738 7.37608 40.0469 7.06596 39.103 7.11308L37.4947 7.2133C36.5466 7.30361 35.6661 7.74249 35.0248 8.44447C34.3878 9.14599 34.0392 10.0609 34.0483 11.007C33.7503 10.1022 33.112 9.34788 32.2676 8.90257C31.4256 8.45763 30.4463 8.34521 29.5249 8.58764C28.9936 8.71649 28.4622 8.87396 27.9453 9.03143C27.0169 9.31415 26.2313 9.93863 25.7482 10.778C25.2748 11.6233 25.1462 12.6179 25.3892 13.5553C24.8755 12.7403 24.0661 12.1545 23.1298 11.9198C22.1935 11.6851 21.2024 11.8197 20.3632 12.2955C19.8893 12.5675 19.4011 12.8538 18.9272 13.1544C18.1084 13.6691 17.5211 14.4796 17.2882 15.4162C17.0553 16.3529 17.1949 17.343 17.6779 18.1793C16.9716 17.5299 16.0392 17.1807 15.0787 17.2058C14.1156 17.2225 13.1956 17.6068 12.5083 18.2795L11.3738 19.4391C10.7175 20.1348 10.3521 21.0538 10.3521 22.0088C10.3521 22.9639 10.7175 23.8829 11.3738 24.5786C10.531 24.1209 9.54415 24.0031 8.61672 24.2493C7.69242 24.4967 6.89375 25.0785 6.37655 25.8813C6.08935 26.3394 5.81651 26.8118 5.54367 27.3129C5.07239 28.143 4.93874 29.1218 5.17031 30.0472C5.3871 30.9751 5.95913 31.7817 6.76427 32.2949C5.83943 32.0536 4.85715 32.1724 4.01698 32.6271C3.17682 33.0818 2.54178 33.8383 2.24087 34.7429C2.08291 35.2439 1.91059 35.7593 1.76699 36.289C1.50525 37.2052 1.59748 38.1859 2.02547 39.0377C2.45683 39.8845 3.1966 40.535 4.09331 40.8558H3.84919C2.92533 40.8603 2.03517 41.2022 1.34714 41.8169C0.65912 42.4316 0.220963 43.2764 0.115589 44.1914C0.115589 44.7211 0.0150714 45.2508 -0.0280086 45.7948C-0.0889735 46.7345 0.202776 47.6632 0.790511 48.4003C1.36144 49.1619 2.20497 49.6747 3.14555 49.8319C2.21457 49.9733 1.37061 50.4575 0.780383 51.1891C0.190153 51.9206 -0.103428 52.8462 -0.0423717 53.7831C-0.0608161 54.3059 -0.0222946 54.8291 0.072511 55.3435C0.158396 56.2757 0.588226 57.1429 1.27875 57.7772C1.96922 58.4058 2.87111 58.7532 3.80611 58.7507C2.92454 59.0313 2.1751 59.6213 1.69705 60.4112C1.219 61.2012 1.04484 62.1372 1.20695 63.0455C1.32183 63.5466 1.42235 64.062 1.53723 64.563C1.72112 65.3993 2.1875 66.1473 2.85835 66.6818C3.51828 67.221 4.34579 67.5145 5.19903 67.5121C5.4899 67.5482 5.78413 67.5482 6.07499 67.5121L6.11807 67.3976Z" fill="#57213C"/>
<path d="M116.058 199.662C115.199 199.664 114.365 199.37 113.698 198.83C113.031 198.29 112.571 197.538 112.396 196.699L112.238 196.026C112.148 195.553 112.148 195.068 112.238 194.595C112.317 194.087 112.498 193.6 112.77 193.163C113.037 192.747 113.383 192.387 113.789 192.104C114.197 191.82 114.655 191.616 115.139 191.502C115.379 191.446 115.625 191.417 115.871 191.416C116.134 191.388 116.399 191.388 116.661 191.416C117.166 191.469 117.655 191.625 118.097 191.875C118.532 192.109 118.914 192.43 119.217 192.819C119.521 193.206 119.746 193.649 119.878 194.122C120.014 194.586 120.053 195.074 119.993 195.554L119.906 196.27C119.812 197.154 119.404 197.975 118.757 198.587C118.109 199.198 117.265 199.559 116.374 199.605L116.058 199.662Z" fill="#57213C"/>
<path d="M117.537 191.56C117.232 191.557 116.928 191.518 116.632 191.445C116.156 191.329 115.706 191.12 115.311 190.83C114.531 190.225 114.016 189.342 113.875 188.367C113.786 187.894 113.786 187.409 113.875 186.936C114.004 186.42 114.134 185.905 114.277 185.404C114.379 184.889 114.59 184.401 114.895 183.972C115.191 183.556 115.569 183.204 116.006 182.938C116.443 182.672 116.93 182.498 117.436 182.426C117.916 182.364 118.404 182.393 118.872 182.512C119.362 182.653 119.82 182.887 120.222 183.199C120.623 183.516 120.955 183.911 121.199 184.359C121.439 184.802 121.586 185.289 121.63 185.79C121.681 186.298 121.622 186.811 121.457 187.294C121.328 187.752 121.213 188.21 121.098 188.725C120.886 189.527 120.412 190.236 119.752 190.741C119.092 191.246 118.283 191.519 117.451 191.517L117.537 191.56ZM120.28 182.97C119.669 182.966 119.069 182.815 118.53 182.53C117.991 182.244 117.53 181.832 117.185 181.33C116.841 180.827 116.624 180.249 116.552 179.645C116.481 179.04 116.558 178.428 116.776 177.859L117.379 176.428C117.549 175.943 117.813 175.495 118.154 175.111C118.513 174.721 118.948 174.41 119.433 174.195C120.146 173.867 120.945 173.769 121.717 173.915C122.49 174.062 123.197 174.444 123.741 175.011C124.101 175.378 124.38 175.817 124.559 176.299C124.733 176.755 124.811 177.243 124.789 177.731C124.756 178.229 124.625 178.715 124.401 179.162C124.214 179.592 124.042 180.035 123.87 180.479C123.581 181.186 123.079 181.786 122.434 182.197C121.807 182.621 121.066 182.846 120.308 182.841L120.28 182.97ZM124.028 174.753C123.427 174.767 122.833 174.624 122.305 174.338C121.427 173.877 120.767 173.09 120.466 172.147C120.167 171.199 120.249 170.172 120.696 169.284L121.443 167.853C121.951 167.04 122.752 166.452 123.681 166.209C124.611 165.966 125.598 166.087 126.441 166.546C127.284 167.006 127.918 167.769 128.214 168.68C128.511 169.591 128.446 170.581 128.034 171.446L127.359 172.706C127.033 173.332 126.535 173.854 125.923 174.209C125.33 174.566 124.649 174.754 123.956 174.753H124.028ZM128.594 166.965C127.926 166.962 127.271 166.779 126.699 166.435C126.105 166.089 125.61 165.596 125.263 165.004C124.946 164.414 124.788 163.754 124.803 163.085C124.823 162.422 125.016 161.776 125.363 161.21C125.65 160.78 125.938 160.351 126.21 159.921C126.467 159.478 126.815 159.092 127.23 158.791C127.659 158.482 128.148 158.268 128.666 158.161C129.168 158.06 129.686 158.06 130.188 158.161C130.699 158.251 131.187 158.44 131.624 158.719C132.048 159.007 132.409 159.377 132.687 159.807C132.962 160.225 133.149 160.694 133.235 161.187C133.321 161.679 133.306 162.184 133.189 162.67C133.087 163.19 132.866 163.68 132.543 164.102L131.696 165.319C131.357 165.827 130.899 166.245 130.36 166.535C129.817 166.824 129.21 166.977 128.594 166.979V166.965ZM133.793 159.578C133.093 159.579 132.406 159.386 131.811 159.02C131.203 158.653 130.706 158.129 130.375 157.502C130.072 156.875 129.947 156.176 130.016 155.484C130.08 154.787 130.338 154.122 130.763 153.565C131.064 153.15 131.394 152.749 131.71 152.334C132.323 151.552 133.223 151.045 134.212 150.924C135.2 150.803 136.196 151.079 136.98 151.69C137.765 152.301 138.274 153.198 138.395 154.183C138.516 155.169 138.24 156.162 137.627 156.944L136.736 158.103C136.38 158.556 135.924 158.921 135.404 159.169C134.883 159.418 134.312 159.543 133.735 159.535L133.793 159.578ZM139.537 152.592C138.633 152.595 137.76 152.269 137.081 151.675C136.71 151.357 136.407 150.968 136.191 150.53C135.962 150.086 135.83 149.598 135.803 149.099C135.768 148.615 135.827 148.129 135.975 147.667C136.136 147.2 136.385 146.767 136.708 146.393L137.713 145.233C138.383 144.531 139.301 144.114 140.273 144.072C141.245 144.029 142.195 144.363 142.925 145.004C143.658 145.643 144.112 146.542 144.189 147.51C144.275 148.476 143.976 149.438 143.356 150.187L142.409 151.289C142.053 151.699 141.612 152.026 141.116 152.248C140.623 152.465 140.09 152.577 139.551 152.577L139.537 152.592ZM145.64 145.92C145.088 145.926 144.543 145.81 144.042 145.579C143.541 145.349 143.099 145.01 142.745 144.588C142.392 144.166 142.137 143.671 142 143.139C141.862 142.607 141.845 142.051 141.949 141.511C142.081 140.791 142.42 140.124 142.925 139.593L143.988 138.49C144.337 138.144 144.746 137.863 145.194 137.66C145.647 137.461 146.135 137.354 146.63 137.345C147.122 137.343 147.61 137.435 148.066 137.617C148.527 137.793 148.948 138.061 149.301 138.405C149.652 138.75 149.935 139.158 150.134 139.607C150.334 140.059 150.441 140.545 150.45 141.039C150.451 141.529 150.358 142.015 150.177 142.47C150 142.926 149.732 143.34 149.387 143.687L148.368 144.761C148.017 145.132 147.591 145.425 147.119 145.62C146.664 145.812 146.176 145.914 145.683 145.92H145.64ZM151.987 139.493C151.245 139.495 150.52 139.276 149.904 138.863C149.269 138.454 148.769 137.866 148.468 137.173C148.194 136.482 148.125 135.727 148.267 134.997C148.412 134.269 148.772 133.601 149.301 133.079L150.393 132.02C151.11 131.331 152.067 130.946 153.064 130.946C154.06 130.961 155.009 131.367 155.706 132.077C156.397 132.786 156.784 133.736 156.783 134.725C156.779 135.218 156.676 135.704 156.481 136.156C156.287 136.608 156.003 137.017 155.648 137.36L154.586 138.405C154.244 138.76 153.834 139.043 153.38 139.235C152.927 139.433 152.438 139.535 151.944 139.536L151.987 139.493ZM158.477 133.194C157.729 133.198 156.997 132.974 156.381 132.549C155.74 132.146 155.239 131.556 154.945 130.86C154.659 130.168 154.589 129.406 154.742 128.674C154.896 127.941 155.267 127.271 155.806 126.751L156.883 125.706C157.235 125.339 157.654 125.042 158.118 124.833C158.572 124.636 159.06 124.529 159.554 124.518C160.046 124.526 160.533 124.623 160.99 124.804C161.46 125.005 161.884 125.297 162.239 125.664C162.594 126.03 162.873 126.463 163.058 126.938C163.241 127.412 163.324 127.918 163.302 128.426C163.28 128.933 163.153 129.43 162.929 129.887C162.712 130.348 162.398 130.758 162.01 131.089L160.919 132.134C160.223 132.818 159.283 133.199 158.305 133.194H158.477ZM164.982 126.923C164.489 126.927 164 126.83 163.546 126.637C163.083 126.438 162.664 126.151 162.311 125.792C161.618 125.08 161.236 124.122 161.249 123.129C161.27 122.138 161.677 121.193 162.383 120.495L163.46 119.45C163.814 119.107 164.234 118.839 164.695 118.663C165.15 118.474 165.638 118.377 166.131 118.377C166.624 118.377 167.112 118.474 167.567 118.663C168.019 118.86 168.428 119.142 168.773 119.493C169.121 119.838 169.39 120.253 169.563 120.71C169.746 121.165 169.839 121.651 169.836 122.142C169.832 122.634 169.729 123.12 169.535 123.572C169.34 124.025 169.057 124.434 168.702 124.776L167.625 125.835C166.917 126.52 165.968 126.9 164.982 126.895V126.923ZM171.43 120.581C170.689 120.596 169.961 120.381 169.348 119.966C168.706 119.57 168.204 118.985 167.912 118.291C167.625 117.607 167.55 116.853 167.696 116.126C167.842 115.399 168.202 114.732 168.73 114.211L169.779 113.137C170.49 112.489 171.423 112.137 172.387 112.154C173.35 112.172 174.27 112.557 174.957 113.231C175.644 113.905 176.045 114.815 176.078 115.775C176.111 116.736 175.774 117.672 175.135 118.391L174.058 119.479C173.714 119.838 173.298 120.121 172.837 120.309C172.382 120.494 171.893 120.587 171.401 120.581H171.43ZM177.705 114.067C176.98 114.067 176.271 113.852 175.666 113.452C175.033 113.072 174.531 112.507 174.23 111.834C173.959 111.183 173.879 110.468 174.001 109.773C174.115 109.058 174.434 108.392 174.92 107.854L175.925 106.766C176.242 106.359 176.641 106.021 177.096 105.775C177.55 105.528 178.051 105.379 178.567 105.335C179.077 105.297 179.59 105.36 180.075 105.521C180.556 105.694 180.999 105.956 181.382 106.294C181.754 106.638 182.057 107.052 182.272 107.511C182.479 107.961 182.596 108.447 182.617 108.942C182.62 109.433 182.527 109.919 182.344 110.374C182.156 110.85 181.867 111.28 181.496 111.634L180.448 112.765C180.093 113.154 179.657 113.462 179.17 113.667C178.687 113.881 178.162 113.984 177.634 113.967L177.705 114.067ZM183.679 107.296C182.996 107.292 182.327 107.104 181.743 106.751C181.159 106.398 180.681 105.894 180.362 105.292C180.128 104.847 179.981 104.361 179.931 103.86C179.893 103.377 179.947 102.892 180.089 102.429C180.232 101.958 180.466 101.52 180.778 101.14L181.726 99.9949C182.372 99.2654 183.276 98.8143 184.248 98.7369C185.221 98.6594 186.186 98.9616 186.939 99.5797C187.696 100.192 188.181 101.076 188.289 102.042C188.4 103.006 188.133 103.976 187.542 104.748L186.566 105.922C186.219 106.352 185.776 106.695 185.273 106.924C184.771 107.163 184.221 107.286 183.665 107.282L183.679 107.296ZM189.237 100.138C188.719 100.14 188.207 100.034 187.733 99.8289C187.258 99.6235 186.831 99.3223 186.479 98.9445C186.127 98.5666 185.858 98.1201 185.687 97.6332C185.516 97.1463 185.449 96.6295 185.489 96.1152C185.543 95.4239 185.787 94.7605 186.192 94.1969L187.054 93.0087C187.665 92.2982 188.519 91.8391 189.45 91.7201C190.381 91.6011 191.323 91.8307 192.094 92.3645C192.86 92.9071 193.397 93.7128 193.602 94.6264C193.807 95.5392 193.658 96.4954 193.186 97.3035L192.281 98.5633C191.944 99.0623 191.484 99.4665 190.945 99.7372C190.416 100.021 189.824 100.169 189.222 100.167L189.237 100.138ZM194.234 92.6222C193.563 92.638 192.9 92.4643 192.324 92.1211C191.72 91.7878 191.222 91.2917 190.888 90.6895C190.561 90.1015 190.398 89.4369 190.415 88.7647C190.433 88.0925 190.631 87.4373 190.988 86.8672C191.247 86.452 191.491 86.0368 191.735 85.6217C192.244 84.7724 193.062 84.1518 194.018 83.8894C194.498 83.7552 194.999 83.719 195.493 83.7829C195.986 83.8469 196.462 84.0097 196.89 84.2616C197.323 84.5063 197.699 84.8378 197.996 85.2351C198.296 85.6226 198.515 86.0654 198.642 86.5379C198.77 87.0171 198.801 87.5167 198.735 88.008C198.668 88.4994 198.505 88.9728 198.255 89.4011C197.996 89.8592 197.723 90.303 197.465 90.7468C197.142 91.3224 196.671 91.802 196.101 92.1365C195.53 92.4711 194.881 92.6486 194.219 92.6508L194.234 92.6222ZM198.542 84.6768C197.91 84.6762 197.288 84.5188 196.732 84.2187C195.897 83.757 195.267 82.9966 194.971 82.0907C194.676 81.1847 194.735 80.2007 195.138 79.337C195.354 78.9075 195.555 78.4637 195.756 78.0342C196.171 77.1323 196.923 76.4282 197.853 76.0729C198.547 75.8112 199.303 75.7608 200.026 75.928C200.749 76.0952 201.405 76.4725 201.913 77.0122C202.42 77.5519 202.756 78.2296 202.876 78.9595C202.997 79.6893 202.898 80.4385 202.591 81.1121L201.931 82.5437C201.636 83.1979 201.155 83.7515 200.547 84.1357C199.94 84.52 199.232 84.7181 198.513 84.7054L198.542 84.6768ZM201.916 76.3163C201.022 76.3126 200.159 75.9903 199.482 75.4075C198.805 74.8246 198.359 74.0197 198.226 73.1382C198.132 72.5539 198.177 71.9559 198.355 71.3916L198.786 70.0459C198.934 69.5778 199.168 69.1411 199.475 68.7575C199.792 68.3834 200.177 68.0726 200.61 67.8413C201.057 67.6093 201.544 67.4636 202.046 67.4118C202.529 67.3681 203.016 67.4167 203.482 67.5549C203.952 67.6997 204.391 67.933 204.774 68.2421C205.157 68.5535 205.475 68.9379 205.707 69.373C205.94 69.818 206.082 70.3046 206.124 70.8046C206.175 71.2866 206.126 71.7739 205.98 72.2362C205.837 72.7516 205.664 73.2527 205.492 73.7681C205.249 74.5258 204.771 75.1874 204.128 75.6578C203.48 76.1227 202.7 76.3686 201.902 76.3592L201.916 76.3163ZM204.185 67.5836C203.639 67.5809 203.1 67.4588 202.606 67.2257C202.108 66.9871 201.668 66.6455 201.313 66.2235C200.969 65.8022 200.715 65.315 200.567 64.7919C200.428 64.259 200.404 63.7029 200.495 63.1599C200.581 62.7018 200.667 62.2294 200.739 61.7283C200.904 60.7516 201.45 59.8792 202.256 59.3004C203.062 58.7215 204.065 58.4829 205.047 58.6361C206.027 58.8012 206.902 59.3446 207.482 60.1485C208.063 60.9525 208.302 61.9522 208.149 62.9309C208.062 63.4462 207.976 63.9759 207.876 64.4913C207.733 65.3686 207.279 66.1659 206.598 66.7389C205.914 67.3122 205.05 67.6266 204.157 67.6265L204.185 67.5836ZM205.219 58.6218H205.061C204.067 58.5771 203.131 58.143 202.456 57.4138C201.781 56.6847 201.422 55.7194 201.457 54.7278V53.2962C201.468 52.3102 201.87 51.3687 202.575 50.6768C203.28 49.985 204.23 49.5989 205.219 49.6027C205.712 49.6139 206.199 49.7158 206.655 49.9033C207.571 50.3009 208.293 51.0413 208.666 51.9648C208.851 52.4189 208.939 52.9065 208.924 53.3964V54.9998C208.898 55.9707 208.497 56.8939 207.804 57.5767C207.108 58.2622 206.169 58.6478 205.19 58.6504L205.219 58.6218ZM204.875 49.6457C203.953 49.6482 203.063 49.3125 202.375 48.7025C201.686 48.0925 201.247 47.251 201.141 46.3387C201.112 45.8577 201.05 45.3794 200.954 44.9071C200.862 43.9478 201.143 42.9897 201.74 42.2316C202.337 41.4736 203.203 40.9736 204.16 40.8355C205.117 40.6974 206.09 40.9318 206.878 41.4899C207.666 42.0481 208.209 42.8873 208.393 43.8334L208.608 45.4225C208.668 45.9115 208.631 46.4076 208.498 46.8821C208.365 47.3567 208.139 47.8003 207.833 48.1875C207.528 48.5747 207.148 48.8978 206.717 49.1382C206.285 49.3787 205.811 49.5317 205.32 49.5884L204.875 49.6457ZM101.482 41.2136C100.883 41.2123 100.293 41.0701 99.7593 40.7984C98.8783 40.3448 98.2126 39.5627 97.9069 38.6224C97.6072 37.6745 97.6896 36.6475 98.1366 35.7592L98.8977 34.3276C99.3877 33.4297 100.213 32.7609 101.195 32.4665C101.663 32.3415 102.149 32.2979 102.631 32.3377C103.135 32.3874 103.624 32.5384 104.067 32.7815C104.499 33.0146 104.88 33.3309 105.187 33.712C105.5 34.0974 105.734 34.5399 105.877 35.0147C106.003 35.4808 106.047 35.9653 106.006 36.4463C105.958 36.9489 105.806 37.4362 105.561 37.8779C105.331 38.2788 105.101 38.6939 104.9 39.1091C104.566 39.7113 104.068 40.2074 103.464 40.5407C102.869 40.9083 102.182 41.1018 101.482 41.099V41.2136ZM202.907 40.8557C202.106 40.8547 201.326 40.5989 200.681 40.1256C200.01 39.661 199.507 38.9934 199.245 38.2215C199.116 37.7777 198.973 37.3339 198.815 36.9045C198.655 36.4447 198.587 35.9585 198.614 35.4729C198.639 34.9753 198.766 34.4881 198.987 34.0413C199.203 33.5952 199.506 33.1962 199.877 32.8674C200.246 32.5425 200.675 32.2943 201.141 32.1372C201.602 31.9796 202.09 31.9116 202.577 31.9368C203.076 31.9619 203.565 32.0886 204.013 32.309C204.457 32.5239 204.856 32.8202 205.19 33.1823C205.515 33.5501 205.764 33.9782 205.923 34.4421C206.11 34.9432 206.267 35.4585 206.44 35.9739C206.612 36.5394 206.656 37.1359 206.569 37.7205C206.464 38.2985 206.227 38.8446 205.875 39.3163C205.524 39.788 205.069 40.1727 204.544 40.4405C204.02 40.7091 203.439 40.8467 202.85 40.8414L202.907 40.8557ZM106.25 33.6261C105.456 33.6214 104.684 33.3713 104.039 32.9103C103.257 32.3131 102.741 31.4342 102.603 30.4623C102.439 29.4565 102.681 28.4269 103.278 27.5991L104.24 26.3106C104.838 25.4807 105.741 24.92 106.753 24.7502C107.232 24.6894 107.718 24.7136 108.189 24.8218C108.707 24.9411 109.196 25.1652 109.625 25.4803C110.025 25.7957 110.361 26.1844 110.615 26.6256C110.86 27.0687 111.016 27.5548 111.075 28.0572C111.121 28.5628 111.072 29.0725 110.931 29.5604C110.777 30.0433 110.528 30.491 110.199 30.8774C109.912 31.2496 109.625 31.6219 109.352 32.0084C109.006 32.4924 108.548 32.8855 108.016 33.1537C107.485 33.4158 106.9 33.5529 106.307 33.5545L106.25 33.6261ZM199.389 32.624C198.718 32.6245 198.059 32.4466 197.479 32.1086C196.881 31.7682 196.385 31.2738 196.043 30.677L195.354 29.4745C194.905 28.6237 194.805 27.633 195.072 26.7098C195.34 25.7865 195.955 25.0023 196.79 24.5211C197.611 24.0212 198.595 23.8619 199.533 24.0774C200.471 24.2922 201.293 24.8553 201.83 25.6521L202.304 26.4824L202.649 27.0694C202.963 27.6446 203.126 28.2898 203.123 28.9448C203.105 29.5953 202.923 30.2308 202.591 30.7915C202.245 31.3586 201.748 31.8193 201.155 32.1229C200.59 32.4547 199.944 32.6233 199.289 32.6097L199.389 32.624ZM112.152 26.7401C111.6 26.7389 111.055 26.6168 110.556 26.3823C110.057 26.1478 109.616 25.8067 109.264 25.3832C108.912 24.9597 108.657 24.4642 108.518 23.9317C108.38 23.3993 108.36 22.8429 108.461 22.3022C108.605 21.583 108.949 20.9184 109.452 20.3838L110.601 19.2386C111.142 18.7644 111.808 18.455 112.52 18.347C113.232 18.2391 113.96 18.3372 114.618 18.6296C115.276 18.9221 115.836 19.3966 116.231 19.9969C116.626 20.5971 116.84 21.2979 116.848 22.0159C116.862 22.9768 116.502 23.9058 115.843 24.607L114.852 25.5948C114.499 25.947 114.079 26.2245 113.617 26.4109C113.158 26.5853 112.671 26.6726 112.181 26.6685L112.152 26.7401ZM194.263 25.3085C193.719 25.3189 193.18 25.2115 192.683 24.9936C192.189 24.768 191.749 24.4411 191.391 24.0344L190.457 23.0037C189.823 22.2691 189.499 21.3186 189.553 20.3513C189.606 19.3839 190.033 18.4747 190.744 17.8141C191.455 17.1536 192.395 16.7928 193.366 16.8075C194.338 16.8222 195.266 17.2111 195.957 17.8929L197.048 19.0954C197.377 19.4663 197.626 19.8997 197.781 20.3695C197.941 20.8288 198.005 21.3162 197.967 21.8011C197.939 22.2982 197.812 22.7847 197.594 23.2327C197.367 23.6678 197.061 24.0564 196.689 24.378C196.001 24.9227 195.141 25.2067 194.263 25.1797V25.3085ZM118.93 20.7417C118.147 20.7414 117.385 20.4969 116.748 20.0424C116.112 19.588 115.635 18.9465 115.383 18.2078C115.139 17.4637 115.139 16.6613 115.383 15.9173C115.611 15.171 116.062 14.5118 116.675 14.0275C117.106 13.6983 117.523 13.3833 117.968 13.0684C118.57 12.6884 119.269 12.487 119.982 12.4877C120.695 12.4884 121.393 12.6911 121.995 13.0722C122.597 13.4532 123.078 13.997 123.382 14.6401C123.686 15.2833 123.8 15.9993 123.712 16.7046C123.563 17.6652 123.049 18.5316 122.276 19.124C121.888 19.396 121.515 19.6824 121.141 19.9687C120.488 20.472 119.684 20.744 118.858 20.7417H118.93ZM187.7 19.0238C186.876 19.027 186.074 18.7604 185.417 18.2651L184.297 17.4204C183.899 17.1365 183.562 16.7764 183.306 16.3611C183.043 15.9211 182.868 15.4352 182.789 14.9295C182.704 14.4324 182.719 13.9235 182.832 13.4321C182.946 12.9407 183.155 12.4765 183.449 12.0663C183.74 11.6694 184.106 11.3337 184.526 11.0785C184.966 10.8142 185.454 10.6391 185.962 10.5631C186.437 10.4722 186.924 10.4722 187.398 10.5631C187.879 10.674 188.333 10.8783 188.734 11.1644C189.179 11.4793 189.596 11.7943 190.026 12.1235C190.658 12.5962 191.121 13.2586 191.347 14.0132C191.577 14.7657 191.562 15.5713 191.304 16.3146C191.046 17.0579 190.559 17.7006 189.911 18.1505C189.29 18.6704 188.511 18.9678 187.7 18.9952V19.0238ZM126.526 15.7168C125.697 15.7286 124.887 15.4613 124.229 14.9581C123.57 14.4499 123.096 13.7411 122.879 12.9395C122.662 12.1367 122.722 11.2843 123.051 10.5201C123.381 9.75878 123.95 9.12544 124.674 8.71634L126.11 7.94326C126.989 7.54555 127.987 7.49584 128.902 7.80418C129.816 8.11252 130.579 8.75587 131.035 9.60392C131.479 10.4552 131.582 11.443 131.323 12.3669C131.062 13.2953 130.449 14.0861 129.614 14.5716L128.379 15.2444C127.799 15.5643 127.146 15.7272 126.483 15.7168H126.526ZM180.06 14.2137C179.466 14.2124 178.88 14.0701 178.352 13.7985L177.088 13.1829C176.24 12.7239 175.602 11.9579 175.305 11.043C175.007 10.1282 175.074 9.13455 175.491 8.26724C175.907 7.39992 176.642 6.72524 177.543 6.38254C178.444 6.03985 179.443 6.05532 180.333 6.42577L181.769 7.14157C182.526 7.51729 183.132 8.13897 183.487 8.90409C183.842 9.6692 183.925 10.5321 183.722 11.3505C183.532 12.173 183.065 12.9058 182.399 13.4268C181.732 13.9477 180.907 14.2254 180.06 14.2137V14.2137ZM134.712 11.8945C133.844 11.8839 133.008 11.564 132.357 10.9926C131.853 10.5718 131.469 10.0268 131.242 9.41191C131.015 8.79703 130.954 8.1337 131.064 7.48791C131.175 6.84213 131.453 6.23643 131.871 5.7311C132.289 5.22577 132.833 4.83842 133.448 4.60764L134.884 4.06365C135.824 3.73484 136.857 3.79148 137.756 4.22112C138.203 4.43143 138.603 4.72838 138.933 5.09462C139.264 5.46086 139.518 5.88904 139.68 6.35419C139.844 6.81758 139.914 7.3086 139.887 7.79911C139.86 8.28962 139.736 8.77 139.523 9.21279C139.31 9.65558 139.011 10.0521 138.643 10.3796C138.276 10.7071 137.848 10.9592 137.383 11.1214L136.033 11.6081C135.617 11.7741 135.173 11.8568 134.726 11.8515L134.712 11.8945ZM171.703 10.7921C171.312 10.7944 170.924 10.7315 170.554 10.606L169.219 10.2052C168.37 9.85022 167.681 9.19862 167.28 8.37274C166.986 7.75234 166.867 7.06356 166.937 6.38086C167.007 5.69816 167.263 5.0475 167.677 4.4992C168.091 3.95091 168.647 3.52584 169.286 3.26993C169.925 3.01402 170.621 2.937 171.301 3.04721C171.818 3.20468 172.335 3.34784 172.837 3.51964C173.473 3.72249 174.043 4.09096 174.488 4.58693C174.933 5.0829 175.237 5.68837 175.369 6.34078C175.501 6.99318 175.455 7.66882 175.238 8.29786C175.02 8.92691 174.637 9.48653 174.13 9.91887C173.458 10.506 172.596 10.8313 171.703 10.8351V10.7921ZM143.385 9.36055C142.46 9.35316 141.571 9.00661 140.886 8.38705C140.202 7.76418 139.772 6.91131 139.679 5.99194C139.586 5.07257 139.837 4.15142 140.384 3.4051C140.932 2.67278 141.728 2.16397 142.624 1.97351L144.189 1.67289C144.664 1.58341 145.151 1.58341 145.625 1.67289C146.108 1.77362 146.567 1.96819 146.975 2.24552C147.378 2.53255 147.724 2.8918 147.995 3.3049C148.257 3.71519 148.437 4.17213 148.526 4.65061C148.616 5.12361 148.616 5.6092 148.526 6.0822C148.42 6.56482 148.22 7.022 147.937 7.42789C147.658 7.83227 147.302 8.17772 146.889 8.44433C146.472 8.70597 146.009 8.88576 145.525 8.97401L144.089 9.26033C143.836 9.28894 143.58 9.28894 143.328 9.26033L143.385 9.36055ZM162.886 8.77359H162.34L160.904 8.5875C160.413 8.52581 159.94 8.36747 159.511 8.12171C159.082 7.87595 158.706 7.54766 158.406 7.1559C157.788 6.37446 157.504 5.38164 157.616 4.39291C157.738 3.41035 158.244 2.51539 159.023 1.90179C159.803 1.2882 160.793 1.00538 161.78 1.11456L163.388 1.31499C164.336 1.47503 165.187 1.98646 165.772 2.74658C166.361 3.48246 166.649 4.41344 166.576 5.35208C166.509 6.29543 166.088 7.17914 165.399 7.82873C164.705 8.47319 163.791 8.83131 162.843 8.83087L162.886 8.77359ZM152.36 8.21527C151.403 8.18513 150.493 7.79068 149.818 7.11293C149.139 6.43298 148.748 5.5185 148.727 4.55899C148.705 3.59949 149.055 2.66857 149.703 1.9592C150.344 1.2483 151.233 0.807943 152.188 0.728027H153.81C154.768 0.786427 155.667 1.20724 156.323 1.90441C156.98 2.60159 157.345 3.52248 157.343 4.4788C157.341 5.43265 156.975 6.34997 156.318 7.0441C155.662 7.73823 154.765 8.15702 153.81 8.21527H152.374H152.36Z" fill="#57213C"/>
<path d="M117.493 186.893C117.335 186.406 117.163 185.919 117.005 185.461C116.701 184.606 116.098 183.889 115.307 183.442C114.515 182.995 113.589 182.848 112.697 183.027C113.5 182.571 114.107 181.838 114.406 180.966C114.618 180.314 114.653 179.617 114.506 178.947C114.453 178.647 114.367 178.354 114.248 178.074C114.032 177.587 113.788 177.1 113.559 176.642C113.122 175.748 112.347 175.063 111.405 174.738C110.643 174.495 109.825 174.495 109.064 174.738V174.738C109.72 174.289 110.221 173.649 110.5 172.906C110.826 171.969 110.775 170.942 110.356 170.043C110.127 169.556 109.882 169.069 109.624 168.611C109.4 168.165 109.09 167.768 108.71 167.443C108.33 167.119 107.889 166.873 107.412 166.721C106.832 166.543 106.218 166.499 105.617 166.593C105.956 166.174 106.197 165.684 106.321 165.161C106.439 164.678 106.461 164.176 106.385 163.685C106.308 163.194 106.135 162.722 105.876 162.298L105.775 162.126C105.517 161.682 105.23 161.253 104.957 160.823C104.416 160.035 103.595 159.482 102.659 159.277C102.185 159.182 101.697 159.182 101.223 159.277C101.419 158.947 101.565 158.59 101.654 158.218C101.772 157.734 101.792 157.232 101.713 156.74C101.634 156.248 101.458 155.777 101.195 155.355C101.008 155.083 100.836 154.796 100.649 154.51L100.52 154.338L100.319 154.009C100.319 153.923 100.189 153.851 100.132 153.78L99.7586 153.264C99.2108 152.539 98.4218 152.031 97.5328 151.833C96.6343 151.635 95.6942 151.773 94.8905 152.219C95.5344 151.568 95.9087 150.699 95.9388 149.786C95.9783 148.873 95.6822 147.977 95.1059 147.266L94.1438 146.078C93.5536 145.38 92.7305 144.917 91.8258 144.775C90.921 144.633 89.9952 144.821 89.2183 145.305C89.8279 144.623 90.1648 143.741 90.1648 142.828C90.1648 141.915 89.8279 141.033 89.2183 140.351L88.1844 139.22C87.5637 138.547 86.7139 138.129 85.8007 138.047C84.8884 137.954 83.9739 138.199 83.2302 138.734C83.7943 138.01 84.071 137.105 84.0074 136.191C83.9438 135.277 83.5444 134.419 82.8856 133.78L81.7942 132.707C81.1366 132.073 80.2667 131.706 79.353 131.676C78.4372 131.636 77.5385 131.932 76.8257 132.506C77.3403 131.751 77.5599 130.835 77.4431 129.929C77.3243 129.022 76.8806 128.188 76.1938 127.582L75.045 126.579C74.3509 125.984 73.4624 125.663 72.5471 125.676C71.6318 125.69 70.753 126.036 70.0764 126.651C70.5427 125.867 70.7065 124.94 70.5374 124.045C70.3683 123.149 69.8777 122.345 69.1574 121.784L67.9512 120.853C67.2216 120.299 66.314 120.029 65.399 120.095C64.4839 120.161 63.6246 120.558 62.9826 121.211C63.404 120.4 63.5114 119.462 63.2842 118.577C63.0659 117.688 62.5232 116.912 61.762 116.401L60.4983 115.542C59.7275 115.037 58.797 114.833 57.8848 114.969C56.9667 115.103 56.1292 115.566 55.5298 116.272C55.9128 115.446 55.9792 114.509 55.7164 113.638C55.4439 112.766 54.8686 112.02 54.0938 111.533L52.8157 110.76C52.0479 110.293 51.1375 110.116 50.2497 110.26C49.3619 110.405 48.5554 110.861 47.9764 111.548C48.3507 110.729 48.407 109.8 48.1344 108.942C47.8777 108.074 47.3106 107.331 46.5404 106.852L45.3198 106.065C44.5725 105.58 43.6764 105.377 42.7924 105.492C41.9034 105.608 41.0842 106.034 40.4805 106.695C40.872 105.894 40.9637 104.98 40.739 104.118C40.5226 103.262 40.015 102.508 39.303 101.985L38.1254 101.154C37.3996 100.64 36.5156 100.397 35.6281 100.468C34.7407 100.539 33.9065 100.918 33.2717 101.541C33.7061 100.766 33.8492 99.8614 33.6755 98.9904C33.5019 98.1195 33.0227 97.3387 32.324 96.7879L31.2039 95.9003C30.5272 95.3366 29.6733 95.0277 28.7914 95.0277C27.9095 95.0277 27.0557 95.3366 26.3789 95.9003C26.8665 95.1667 27.0705 94.2816 26.9533 93.4094C26.8495 92.5369 26.4371 91.7298 25.7902 91.1331L24.7563 90.1596C24.1347 89.5568 23.3227 89.1875 22.4587 89.1146C21.5887 89.0481 20.7222 89.2805 20.0031 89.7731C20.534 89.0908 20.8126 88.2467 20.7916 87.3834C20.7707 86.5201 20.4516 85.6905 19.8882 85.0345L18.9835 83.9608C18.4429 83.3027 17.6932 82.8482 16.8583 82.6724C16.0166 82.4994 15.141 82.6154 14.374 83.0017C14.9898 82.4124 15.3807 81.6279 15.4797 80.7827C15.5816 79.9331 15.389 79.0744 14.934 78.349L14.2304 77.1751C13.8085 76.4491 13.1556 75.8844 12.3751 75.5706C11.5946 75.2567 10.7314 75.2118 9.92238 75.4428C10.5959 74.9806 11.1 74.3122 11.3584 73.5388C11.6242 72.7639 11.6242 71.9229 11.3584 71.1481C11.2291 70.7902 11.1143 70.4179 11.0137 70.1316L10.9276 69.8453C10.7831 69.3825 10.5379 68.9572 10.2096 68.5998C9.89554 68.2305 9.50961 67.9285 9.07514 67.7122C8.18038 67.2732 7.14737 67.2062 6.20313 67.5261C5.25557 67.8567 4.47661 68.5458 4.03477 69.4444C3.59212 70.334 3.50985 71.3593 3.80501 72.3076C3.94861 72.7514 4.09221 73.1952 4.25017 73.639C4.5667 74.4949 5.18414 75.2071 5.98773 75.6433C6.83646 76.0875 7.82525 76.185 8.74485 75.9153C7.96434 76.4577 7.4121 77.2682 7.19397 78.1915C6.97869 79.1116 7.12243 80.0789 7.59605 80.8972C7.86889 81.3553 8.14173 81.8134 8.42893 82.3288C8.92601 83.1528 9.72364 83.753 10.6547 84.0038C11.5624 84.2636 12.5358 84.1609 13.3688 83.7175C12.706 84.3799 12.3079 85.2603 12.2487 86.1941C12.2044 87.1276 12.5059 88.0448 13.0959 88.771L14.1011 89.9735C14.7118 90.6782 15.5594 91.1363 16.4849 91.262C17.4128 91.3797 18.351 91.1445 19.1128 90.6034C18.5347 91.3332 18.2528 92.253 18.323 93.1803C18.3789 94.1054 18.7842 94.9749 19.4574 95.614L20.5631 96.6734C21.2395 97.308 22.1282 97.6696 23.0568 97.6881C23.9854 97.7066 24.8878 97.3807 25.5891 96.7736C25.0836 97.547 24.8831 98.4795 25.0263 99.3914C25.1695 100.303 25.6462 101.13 26.3646 101.713L27.5277 102.615C28.2527 103.186 29.1608 103.476 30.0838 103.431C31.002 103.376 31.867 102.983 32.5107 102.328C32.0671 103.134 31.9347 104.074 32.1384 104.971C32.3421 105.867 32.8678 106.659 33.6164 107.196L34.8513 108.069C35.6045 108.593 36.523 108.827 37.4362 108.727C38.35 108.629 39.1945 108.195 39.8056 107.511C39.4042 108.331 39.317 109.27 39.5602 110.15C39.8035 111.03 40.3604 111.792 41.1267 112.292L42.4047 113.122C43.1759 113.613 44.0999 113.806 45.0038 113.667C45.9077 113.527 46.7296 113.064 47.3158 112.364C46.9375 113.191 46.8762 114.128 47.1435 114.998C47.4013 115.869 47.9744 116.614 48.7518 117.088L50.0155 117.861C50.7771 118.348 51.6946 118.532 52.586 118.376C53.477 118.234 54.2846 117.771 54.8548 117.074C54.4968 117.886 54.4357 118.798 54.6824 119.651C54.929 120.503 55.4677 121.243 56.2047 121.741L57.3966 122.542C58.1244 123.045 59.0077 123.274 59.8889 123.187C60.7701 123.1 61.5917 122.705 62.2072 122.07C61.8066 122.856 61.6899 123.756 61.8769 124.618C62.0857 125.481 62.5945 126.242 63.3129 126.766L64.4473 127.639C65.1429 128.188 66.0119 128.473 66.8987 128.441C67.7855 128.41 68.6321 128.064 69.2866 127.467C68.8387 128.225 68.6709 129.115 68.8126 129.983C68.9542 130.851 69.3963 131.643 70.0621 132.22L71.1534 133.165C71.8184 133.75 72.6706 134.08 73.5573 134.095C74.444 134.111 75.3073 133.812 75.9928 133.251C75.491 133.982 75.2661 134.867 75.3582 135.748C75.4502 136.629 75.8533 137.449 76.4954 138.061L77.5293 139.077C78.1594 139.705 78.9943 140.086 79.8823 140.151C80.7704 140.217 81.6526 139.963 82.3686 139.435C81.8278 140.138 81.5528 141.009 81.5922 141.894C81.6316 142.779 81.9828 143.622 82.584 144.274L83.5605 145.319C84.1554 145.976 84.9642 146.402 85.8437 146.522C86.7263 146.65 87.6255 146.451 88.3711 145.963C87.806 146.644 87.4968 147.499 87.4968 148.383C87.4968 149.266 87.806 150.122 88.3711 150.802L89.2901 151.919C89.8465 152.611 90.6316 153.083 91.505 153.25C92.3784 153.418 93.2832 153.271 94.0577 152.835C93.4436 153.472 93.0728 154.304 93.0099 155.185C92.9469 156.066 93.1957 156.942 93.713 157.659L94.2013 158.332L94.79 159.248C95.1268 159.849 95.6239 160.344 96.226 160.68C96.8443 160.987 97.5329 161.125 98.2221 161.081H98.4518C98.2168 161.486 98.0654 161.934 98.0067 162.398C97.889 163.271 98.0821 164.158 98.5523 164.903V164.903L99.2991 166.106C99.6334 166.708 100.131 167.204 100.735 167.537C101.351 167.852 102.04 168 102.731 167.967L103.047 167.895C102.783 168.243 102.575 168.629 102.43 169.041C102.124 169.988 102.206 171.017 102.659 171.904L103.291 173.192C103.585 173.824 104.047 174.364 104.627 174.753C105.217 175.128 105.895 175.345 106.594 175.383C107.035 175.383 107.473 175.306 107.886 175.153V175.153C107.217 175.595 106.712 176.244 106.45 177C106.121 177.938 106.177 178.968 106.608 179.863L106.838 180.35L107.226 181.252C107.574 182.065 108.2 182.729 108.992 183.127C109.777 183.526 110.678 183.632 111.534 183.428C110.774 183.863 110.189 184.548 109.88 185.365C109.571 186.183 109.556 187.082 109.839 187.909L110.284 189.24C110.547 190.008 111.05 190.671 111.72 191.13C112.362 191.597 113.137 191.848 113.932 191.846C114.825 191.85 115.686 191.517 116.344 190.915C116.716 190.592 117.018 190.197 117.235 189.756C117.453 189.308 117.579 188.821 117.608 188.324C117.666 187.844 117.627 187.357 117.493 186.893V186.893Z" fill="#56203C"/>
<path d="M90.1086 111.204C90.3656 110.469 90.386 109.673 90.1672 108.926C89.9484 108.179 89.5012 107.519 88.888 107.038L87.6387 106.065C86.8412 105.528 85.8679 105.317 84.9189 105.474C83.9699 105.631 83.1172 106.144 82.5362 106.909C81.9552 107.673 81.6899 108.63 81.795 109.584C81.9 110.537 82.3673 111.414 83.1009 112.034C83.4599 112.306 83.8477 112.593 84.2354 112.908C84.8924 113.439 85.7159 113.723 86.5617 113.709C87.3439 113.717 88.1083 113.476 88.7444 113.022C89.3766 112.571 89.8532 111.936 90.1086 111.204V111.204Z" fill="#FFFAF1"/>
<path d="M82.7131 105.993C82.9256 105.197 82.8752 104.353 82.5695 103.588C82.2575 102.825 81.7024 102.187 80.9899 101.77L79.6832 100.997C79.2589 100.747 78.7893 100.582 78.3013 100.513C77.8133 100.444 77.3165 100.472 76.8391 100.594C76.3617 100.716 75.9132 100.931 75.5191 101.226C75.125 101.521 74.7931 101.891 74.5423 102.314C74.2915 102.737 74.1267 103.205 74.0574 103.691C73.988 104.178 74.0155 104.673 74.1381 105.149C74.2608 105.625 74.4763 106.072 74.7723 106.465C75.0684 106.858 75.4391 107.189 75.8634 107.439L77.1414 108.198C77.7242 108.542 78.3884 108.725 79.0657 108.727C79.8913 108.742 80.697 108.474 81.3489 107.969C82.0083 107.477 82.4875 106.783 82.7131 105.993V105.993Z" fill="#FFFAF1"/>
<path d="M74.7302 99.0784C74.4255 98.3165 73.8814 97.6736 73.1793 97.246L71.8726 96.4729C71.0293 95.9762 70.0249 95.8269 69.073 96.0568C68.121 96.2867 67.2966 96.8777 66.7748 97.7041C67.0251 97.2756 67.1859 96.801 67.2476 96.309C67.3093 95.817 67.2706 95.3176 67.1338 94.8409C66.884 93.9003 66.2761 93.094 65.4393 92.5933L64.1325 91.8202C63.2642 91.3184 62.2337 91.1745 61.2605 91.4194C60.3066 91.6527 59.482 92.2487 58.9629 93.08C59.2115 92.6642 59.3751 92.2035 59.4441 91.7243C59.5131 91.2452 59.4862 90.7572 59.365 90.2884C59.131 89.3374 58.5331 88.5153 57.6992 87.9978L56.4643 87.2248C55.663 86.7203 54.7002 86.5359 53.7684 86.7084C52.8366 86.8809 52.0045 87.3977 51.4383 88.1553C51.9621 87.3765 52.1718 86.4292 52.0254 85.5029C51.879 84.5766 51.3872 83.7395 50.6485 83.1591L49.5715 82.2715C48.8893 81.696 48.0239 81.3813 47.1303 81.3839C46.2375 81.3862 45.3738 81.7003 44.6891 82.2715C45.2829 81.6185 45.624 80.776 45.6512 79.895C45.6756 79.0152 45.3912 78.1544 44.847 77.4613C44.5886 77.1177 44.3157 76.7598 44.0716 76.4019C43.5802 75.7085 42.8658 75.2034 42.0468 74.9703C41.2215 74.737 40.3413 74.7874 39.5482 75.1135C40.2656 74.6647 40.8116 73.9894 41.0991 73.1952C41.3862 72.3944 41.3862 71.5192 41.0991 70.7185C40.9698 70.3177 40.8406 69.9168 40.7257 69.516C40.502 68.7638 40.0482 68.1001 39.4278 67.6176C38.8073 67.1351 38.0512 66.8578 37.2649 66.8246C38.0437 66.6639 38.752 66.2633 39.2897 65.6793C39.8229 65.0967 40.155 64.3592 40.2375 63.5748C40.2787 63.1852 40.341 62.7981 40.4242 62.4152C40.5764 61.6802 40.5013 60.9165 40.2088 60.2249C39.9124 59.5262 39.4121 58.9326 38.7728 58.5213C39.4974 58.7484 40.2744 58.7479 40.9988 58.52C41.7231 58.2921 42.3597 57.8478 42.8223 57.2472C43.0664 56.9465 43.3249 56.6459 43.5834 56.3596C44.1152 55.7956 44.4567 55.0797 44.5598 54.3124C44.6734 53.5396 44.5323 52.7509 44.1578 52.0648C44.6885 52.6489 45.3884 53.0537 46.1604 53.223C46.9324 53.3923 47.7382 53.3178 48.4658 53.0097C48.8248 52.8522 49.1981 52.7233 49.5571 52.5945C50.279 52.3685 50.915 51.9292 51.3808 51.3347C51.8522 50.7403 52.1281 50.0154 52.1706 49.2589C52.3405 49.9967 52.7311 50.6657 53.2907 51.1772C53.8475 51.6906 54.5495 52.0205 55.3011 52.1221C55.7032 52.1221 56.0909 52.2509 56.4786 52.3368C57.3253 52.5554 58.2222 52.4683 59.0106 52.091C59.799 51.7137 60.4281 51.0706 60.7867 50.2753C60.5436 51.1175 60.5994 52.0176 60.9446 52.8236C61.2916 53.6213 61.9058 54.2741 62.6822 54.6703L63.9171 55.3288C64.7441 55.7906 65.7171 55.9188 66.6359 55.6871C67.5548 55.4554 68.3496 54.8815 68.857 54.0834C68.3993 54.918 68.2663 55.8915 68.4836 56.8177C68.7113 57.7406 69.2807 58.5435 70.0776 59.0653L71.2838 59.867C72.0836 60.4056 73.0609 60.6158 74.0122 60.454C74.958 60.3002 75.8072 59.7871 76.3816 59.0224C75.8469 59.822 75.6364 60.7941 75.7929 61.7424C75.9499 62.6842 76.464 63.5299 77.2289 64.1045L78.3777 64.9921C79.1389 65.5753 80.0925 65.8513 81.0486 65.7652C82.0054 65.672 82.8896 65.2158 83.5185 64.491C82.931 65.2486 82.6539 66.2003 82.7431 67.1538C82.8314 68.1059 83.2839 68.9877 84.0068 69.6162L85.0838 70.5753C85.4498 70.9066 85.8798 71.1599 86.3475 71.3198C86.806 71.4897 87.295 71.5628 87.7835 71.5345C88.2811 71.5108 88.7692 71.3892 89.2195 71.1766C89.6619 70.9661 90.0574 70.6691 90.3826 70.3033C91.0469 69.5679 91.3928 68.6005 91.3447 67.6119C91.321 67.1158 91.199 66.6293 90.9857 66.1803C90.7749 65.7349 90.4771 65.3358 90.1098 65.0064L88.9466 63.9757C88.574 63.6569 88.1456 63.4094 87.6829 63.2456C87.222 63.0865 86.7333 63.0232 86.2469 63.0595C85.7538 63.0878 85.2712 63.2138 84.8274 63.4301C84.3836 63.6464 83.9875 63.9487 83.6621 64.3193C83.9715 63.936 84.1966 63.4921 84.3227 63.0165C84.4572 62.5519 84.4963 62.065 84.4376 61.5849C84.3844 61.0814 84.228 60.5941 83.9781 60.1533C83.7281 59.7257 83.3963 59.3512 83.0016 59.051L81.781 58.1061C80.9836 57.5099 79.9822 57.2521 78.9951 57.3889C78.0079 57.5256 77.1149 58.0459 76.5109 58.8363C76.7947 58.4327 76.9904 57.9742 77.0853 57.4905C77.182 57.0182 77.182 56.5313 77.0853 56.059C76.9955 55.5761 76.8047 55.1176 76.5252 54.7132C76.2567 54.2974 75.9047 53.9416 75.4913 53.6682L74.1989 52.8092C73.7911 52.5375 73.3317 52.3524 72.849 52.2652C72.3744 52.1777 71.8877 52.1777 71.413 52.2652C70.9045 52.3611 70.4207 52.559 69.9912 52.8469C69.5617 53.1349 69.1953 53.5068 68.9144 53.9402C69.1564 53.5129 69.3112 53.042 69.3699 52.5548C69.4287 52.0676 69.3902 51.5737 69.2568 51.1013C69.1233 50.629 68.8975 50.1877 68.5923 49.8027C68.2871 49.4177 67.9085 49.0966 67.4784 48.858L66.0424 48.0993C65.5935 47.8763 65.1062 47.7403 64.6064 47.6984C64.121 47.6584 63.6325 47.7168 63.1704 47.8702C62.7025 48.0253 62.2686 48.2683 61.8924 48.586C61.5129 48.9032 61.2004 49.2926 60.9733 49.7313V49.6168C61.07 49.1444 61.07 48.6575 60.9733 48.1852C60.892 47.6779 60.7114 47.1915 60.442 46.7536C60.1698 46.3368 59.8186 45.9769 59.4081 45.6942C59.0041 45.4069 58.5443 45.207 58.0582 45.1073C57.4695 44.9784 56.8807 44.8639 56.292 44.778C55.8129 44.714 55.3262 44.7383 54.856 44.8496C54.3728 44.9676 53.9185 45.1819 53.5205 45.4795C53.1185 45.7702 52.7812 46.1406 52.5296 46.5675C52.2664 47.0058 52.0954 47.4928 52.027 47.9991V48.2138L51.9409 47.8846C51.6376 46.9376 50.9697 46.1493 50.0839 45.693C49.198 45.2366 48.1667 45.1496 47.2164 45.4508C46.642 45.637 46.0533 45.8517 45.4932 46.0951C45.0423 46.2873 44.6328 46.5644 44.287 46.9111C43.9417 47.2604 43.6685 47.6738 43.4828 48.1279C43.2954 48.5822 43.1979 49.0683 43.1956 49.5595C43.2069 50.0512 43.3091 50.5365 43.4972 50.9911C43.5363 51.0998 43.5843 51.2052 43.6408 51.3061L43.411 51.077C43.053 50.7426 42.6337 50.4802 42.1761 50.304C41.7169 50.1338 41.2298 50.0512 40.7401 50.0606C40.2426 50.0742 39.7535 50.1913 39.3041 50.4042C38.8563 50.6072 38.4517 50.8939 38.1122 51.2488C37.6958 51.7355 37.2937 52.208 36.9203 52.6804C36.6164 53.0671 36.3919 53.5098 36.2598 53.9831C36.13 54.4487 36.0958 54.9357 36.1592 55.4147C36.2124 55.9183 36.3688 56.4056 36.6188 56.8463C36.8537 57.2759 37.1766 57.6515 37.5665 57.9487L37.8537 58.1491L37.4947 58.0632C36.5282 57.8672 35.5231 58.0575 34.6959 58.593C33.8686 59.1285 33.2854 59.9664 33.0718 60.9264C32.9426 61.5277 32.8564 62.1289 32.7846 62.7302C32.6831 63.7203 32.9714 64.711 33.5888 65.4932C33.9061 65.8718 34.2952 66.1843 34.7338 66.4127C35.1724 66.6412 35.6519 66.7811 36.1449 66.8246V66.8246C35.6701 66.9574 35.2264 67.1826 34.8395 67.4873C34.4525 67.792 34.1299 68.1701 33.8904 68.5997C33.6446 69.03 33.4864 69.5044 33.4248 69.9957C33.3632 70.487 33.3994 70.9856 33.5313 71.4629C33.6893 72.0213 33.8616 72.5796 34.0483 73.1236C34.2056 73.5912 34.46 74.0205 34.795 74.3834C35.1196 74.7535 35.5151 75.0552 35.9582 75.271C36.4015 75.4891 36.8844 75.6155 37.378 75.6426C37.8716 75.6697 38.3656 75.5968 38.8302 75.4284L39.0169 75.4141L38.8302 75.543C38.4283 75.8266 38.0867 76.1866 37.825 76.6024C37.5625 77.0178 37.3822 77.4794 37.2937 77.9624C37.197 78.4347 37.197 78.9216 37.2937 79.394C37.3936 79.8742 37.5942 80.3279 37.8824 80.7254C38.2127 81.1835 38.5574 81.6416 38.902 82.071C39.207 82.457 39.5821 82.7824 40.0077 83.0302C40.4498 83.2794 40.9386 83.4354 41.4437 83.4883C41.9252 83.5473 42.4137 83.5083 42.8797 83.3738C43.3545 83.2421 43.7986 83.0183 44.1865 82.7153L44.3301 82.5864L44.2439 82.6866C43.6078 83.45 43.2983 84.4321 43.3823 85.421C43.4217 85.9119 43.5589 86.3901 43.7857 86.8276C44.0125 87.2651 44.3245 87.6532 44.7034 87.9692L45.9384 88.9857C46.7222 89.6016 47.7181 89.8845 48.7099 89.773C49.2043 89.7172 49.6822 89.5614 50.1143 89.3153C50.5464 89.0691 50.9236 88.7378 51.2229 88.3414L51.309 88.2269V88.2985C50.7773 89.138 50.6012 90.1534 50.8192 91.1222C51.0373 92.0909 51.6317 92.934 52.4722 93.4665L53.779 94.2826C54.2028 94.5461 54.6748 94.7235 55.1677 94.8045C55.6605 94.8856 56.1646 94.8688 56.651 94.755C57.1301 94.6418 57.5821 94.4356 57.9813 94.1483C58.3804 93.8609 58.7189 93.4979 58.9773 93.08C58.4732 93.9349 58.3292 94.954 58.5768 95.9144C58.8243 96.8749 59.4433 97.6985 60.2984 98.2052L61.5764 98.9639C62.4201 99.4688 63.429 99.6226 64.3855 99.3923C65.3419 99.1619 66.1692 98.5658 66.6886 97.7327C66.2068 98.6076 66.0932 99.6375 66.3727 100.596C66.5028 101.065 66.7245 101.504 67.0251 101.887C67.3258 102.27 67.6994 102.59 68.1246 102.829L69.4027 103.588C69.9854 103.932 70.6496 104.115 71.3269 104.118L71.1977 104.189C72.019 104.189 72.8171 103.917 73.4665 103.416C74.1022 102.923 74.5624 102.24 74.7795 101.467C74.9966 100.694 74.9592 99.8717 74.6728 99.1214L74.7302 99.0784Z" fill="#FFFAF1"/>
<path d="M89.5921 71.4487C89.3934 71.9 89.2908 72.3875 89.2906 72.8803C89.2879 73.3706 89.3805 73.8568 89.5634 74.3119C89.7474 74.7669 90.0208 75.1807 90.3676 75.5288L91.3871 76.5739C91.7347 76.9388 92.1555 77.2266 92.6221 77.4185C93.1934 77.6592 93.8149 77.7576 94.4328 77.7053C95.0508 77.6529 95.6467 77.4513 96.169 77.1179C96.8001 76.716 97.2993 76.1387 97.605 75.4572C97.9008 74.779 97.9863 74.0282 97.8507 73.3011C97.7151 72.5741 97.3645 71.904 96.8439 71.3772L95.7526 70.2748C95.4068 69.9282 94.9972 69.6511 94.5463 69.4588C94.0894 69.2744 93.6031 69.1726 93.1103 69.1582C92.6176 69.1604 92.13 69.2576 91.6743 69.4445C91.2179 69.6279 90.8029 69.9005 90.4537 70.2462C90.0858 70.5829 89.7923 70.9925 89.5921 71.4487V71.4487Z" fill="#FFFAF1"/>
<path d="M166.375 61.0983C166.197 60.6396 165.928 60.221 165.585 59.8672C165.241 59.5118 164.831 59.2252 164.379 59.0225C163.926 58.8237 163.438 58.7166 162.943 58.7076H162.699C162.794 58.6943 162.886 58.6653 162.972 58.6217C163.44 58.4666 163.873 58.2236 164.25 57.9059C164.621 57.5823 164.924 57.188 165.14 56.7463C165.371 56.3023 165.503 55.8141 165.528 55.3147C165.563 54.8298 165.499 54.3429 165.341 53.8831C165.14 53.3105 164.925 52.7521 164.695 52.2081C164.502 51.755 164.219 51.3459 163.862 51.0056C163.513 50.6599 163.098 50.3873 162.641 50.2039C162.186 50.0201 161.697 49.9324 161.205 49.9462C160.712 49.9533 160.224 50.0554 159.769 50.2468L159.568 50.3327C159.689 50.2441 159.799 50.1434 159.899 50.0321C160.254 49.6885 160.533 49.2738 160.717 48.8152C160.907 48.3617 161.005 47.8751 161.004 47.3836C161.002 46.8924 160.905 46.4063 160.717 45.9521C160.53 45.4953 160.251 45.0813 159.899 44.7352C159.412 44.2618 158.894 43.8218 158.348 43.4181C157.944 43.1333 157.491 42.9247 157.012 42.8025C156.538 42.7131 156.051 42.7131 155.576 42.8025C155.069 42.8814 154.582 43.0563 154.14 43.3179C153.719 43.5731 153.353 43.9089 153.063 44.3057C152.948 44.471 152.842 44.6431 152.747 44.8211C152.762 44.6879 152.762 44.5535 152.747 44.4203C152.736 43.9241 152.618 43.436 152.403 42.9887C152.202 42.541 151.908 42.1408 151.541 41.8147C151.185 41.4745 150.758 41.2156 150.292 41.056C149.832 40.888 149.345 40.8102 148.856 40.8269C148.281 40.8269 147.693 40.8985 147.075 40.9701C146.57 41.0231 146.081 41.179 145.639 41.4282C145.207 41.6651 144.826 41.9861 144.52 42.3722C144.215 42.7582 143.989 43.2015 143.858 43.6758C143.731 44.1417 143.692 44.6273 143.744 45.1074V45.2219C143.336 44.3185 142.586 43.6127 141.657 43.2586C140.729 42.9046 139.698 42.931 138.789 43.3322L137.267 44.048C136.381 44.5015 135.71 45.2843 135.398 46.2272C135.087 47.1702 135.16 48.1975 135.601 49.0873L135.688 49.2447C135.659 49.1938 135.625 49.1458 135.587 49.1016C135.289 48.7129 134.912 48.391 134.481 48.1567C134.039 47.9075 133.551 47.7516 133.045 47.6986C132.564 47.6401 132.075 47.679 131.609 47.8131C131.135 47.9449 130.691 48.1686 130.303 48.4717C129.857 48.8152 129.427 49.1588 129.01 49.5167C128.639 49.8437 128.332 50.237 128.106 50.6763C127.88 51.1222 127.748 51.6094 127.718 52.1079C127.676 52.5919 127.735 53.0792 127.89 53.5395C128.046 54.006 128.289 54.4385 128.608 54.8136L128.723 54.9425C128.365 54.6081 127.946 54.3457 127.488 54.1694C127.033 53.9848 126.544 53.8971 126.052 53.9117C125.055 53.9417 124.11 54.3637 123.424 55.0856C123.065 55.4579 122.706 55.8301 122.362 56.2166C121.688 56.9484 121.332 57.9157 121.371 58.908C121.397 59.4022 121.513 59.8875 121.715 60.3396C121.926 60.7816 122.218 61.1798 122.577 61.5135C121.803 60.8885 120.813 60.5948 119.822 60.6968C118.831 60.7987 117.922 61.2881 117.292 62.0575L116.33 63.2457C115.713 64.0272 115.429 65.02 115.541 66.0087C115.598 66.5012 115.755 66.977 116.002 67.4076C116.249 67.8381 116.58 68.2144 116.977 68.514C116.157 67.9558 115.15 67.7406 114.172 67.9146C113.195 68.0886 112.325 68.638 111.75 69.4445L110.874 70.7187C110.599 71.1255 110.408 71.5831 110.314 72.0644C110.217 72.5367 110.217 73.0236 110.314 73.496C110.398 74.0046 110.584 74.4913 110.859 74.9276C111.136 75.3325 111.487 75.6822 111.893 75.9583C111.468 75.6976 110.995 75.5251 110.501 75.4513C110.008 75.3775 109.504 75.4039 109.021 75.5288C108.542 75.6468 108.093 75.8612 107.7 76.1587C107.302 76.448 106.965 76.8129 106.709 77.2324C106.436 77.6619 106.178 78.1057 105.919 78.5495C105.665 78.9895 105.504 79.4767 105.445 79.9811C105.356 80.4541 105.356 80.9397 105.445 81.4127C105.709 82.3664 106.331 83.1818 107.183 83.6889C106.813 83.5006 106.416 83.3702 106.006 83.3024C105.421 83.0757 104.79 82.997 104.167 83.0733C103.548 83.1594 102.958 83.39 102.444 83.7462V83.7462C102.826 83.4333 103.141 83.0484 103.373 82.6135C103.604 82.1787 103.748 81.7025 103.794 81.2123C103.879 80.2257 103.575 79.2449 102.947 78.4779L101.942 77.2754C101.294 76.516 100.371 76.0441 99.3743 75.9636C98.3778 75.8831 97.3901 76.2004 96.6284 76.8459C95.8667 77.4914 95.3934 78.412 95.3126 79.4054C95.2318 80.3988 95.5502 81.3834 96.1976 82.1428L97.131 83.2308C97.7447 83.9821 98.6281 84.4652 99.5934 84.5775C100.559 84.6897 101.53 84.4224 102.301 83.8321C101.523 84.4204 101.008 85.2889 100.865 86.2515C100.735 87.2062 100.977 88.174 101.54 88.9572L102.057 89.6873C102.43 90.2049 102.93 90.619 103.509 90.8905C104.087 91.1621 104.726 91.282 105.364 91.239C106.002 91.196 106.619 90.9915 107.156 90.6449C107.693 90.2982 108.132 89.8208 108.432 89.2578L108.72 88.7138C109.171 87.8647 109.274 86.8741 109.007 85.9508C108.731 85.0294 108.116 84.2466 107.284 83.7605C108.138 84.2172 109.139 84.32 110.069 84.0468C111.002 83.781 111.794 83.1652 112.281 82.3289C112.525 81.9137 112.769 81.4986 113.028 81.0834C113.528 80.2525 113.686 79.2608 113.47 78.316C113.253 77.3712 112.677 76.5468 111.864 76.0156C112.686 76.538 113.68 76.7181 114.633 76.5174C115.587 76.3166 116.423 75.7509 116.962 74.9419L117.795 73.7393C118.344 72.9613 118.57 72.0024 118.427 71.0623C118.27 70.1126 117.756 69.2579 116.991 68.6715C117.774 69.2163 118.736 69.4427 119.681 69.3043C120.625 69.166 121.482 68.6734 122.074 67.9271L122.979 66.7961C123.585 66.0607 123.887 65.1224 123.823 64.1725C123.759 63.2227 123.334 62.3331 122.634 61.6853C123.373 62.2849 124.311 62.5863 125.262 62.5299C126.213 62.4575 127.101 62.0277 127.747 61.3274L128.752 60.2537C129.414 59.5637 129.783 58.6458 129.783 57.6911C129.783 56.7365 129.414 55.8186 128.752 55.1286C129.422 55.7818 130.314 56.16 131.25 56.188C132.187 56.2078 133.097 55.8814 133.806 55.2717L134.855 54.4271C135.561 53.8796 136.045 53.0969 136.219 52.2224C136.393 51.3415 136.245 50.4276 135.803 49.6456C136.333 50.3627 137.101 50.8698 137.971 51.0772C138.839 51.2989 139.758 51.1971 140.556 50.7909C140.943 50.5904 141.345 50.39 141.762 50.2182C142.537 49.869 143.17 49.2685 143.558 48.5146C143.947 47.7607 144.068 46.8978 143.902 46.0666C144.206 46.8401 144.756 47.4934 145.467 47.9277C146.184 48.3536 147.022 48.5299 147.851 48.4287C148.253 48.4287 148.655 48.3428 149.057 48.3285C149.727 48.3044 150.378 48.0964 150.938 47.7272C151.498 47.3758 151.954 46.8816 152.259 46.2956C152.215 46.9251 152.334 47.5552 152.603 48.1264C152.871 48.6976 153.282 49.1909 153.796 49.5597C154.051 49.7457 154.291 49.9515 154.514 50.1753C155.148 50.7107 155.939 51.0271 156.768 51.0772C157.539 51.1974 158.328 51.0722 159.023 50.7193C158.392 51.2395 157.944 51.9466 157.745 52.7378C157.547 53.5292 157.613 54.3632 157.931 55.1143C158.1 55.4765 158.244 55.8495 158.362 56.2309C158.619 57.0053 159.123 57.6742 159.798 58.1349C160.467 58.5944 161.27 58.8209 162.081 58.7792C161.278 58.9737 160.562 59.4265 160.042 60.0676C159.529 60.7133 159.237 61.5061 159.209 62.3295V63.5893C159.127 64.4414 159.344 65.2956 159.823 66.0059C160.303 66.7162 161.014 67.2384 161.837 67.4833C160.987 67.3652 160.121 67.5408 159.384 67.9809C158.648 68.4211 158.084 69.0992 157.788 69.9026C157.63 70.3178 157.472 70.733 157.299 71.1338C156.951 71.9516 156.905 72.8657 157.168 73.7145C157.43 74.5633 157.986 75.2922 158.735 75.7722C157.917 75.3948 156.99 75.323 156.122 75.57C155.255 75.817 154.506 76.3663 154.011 77.1179C153.767 77.5044 153.508 77.8767 153.236 78.2632C152.705 79.0385 152.475 79.9799 152.589 80.9116C152.719 81.8396 153.19 82.6866 153.91 83.2881C153.151 82.7271 152.208 82.4716 151.268 82.5723C150.329 82.6815 149.463 83.1357 148.841 83.8464C148.525 84.2186 148.21 84.5765 147.879 84.9344C147.25 85.6555 146.912 86.5843 146.932 87.5399C146.959 88.4921 147.35 89.398 148.023 90.0738C147.315 89.4283 146.382 89.0841 145.424 89.1147C144.464 89.1403 143.55 89.5293 142.868 90.2027L141.805 91.2334C141.108 91.9184 140.706 92.8472 140.684 93.8229C140.663 94.7985 141.024 95.744 141.69 96.4588C141.01 95.7591 140.082 95.353 139.105 95.3278C138.125 95.3006 137.172 95.6549 136.449 96.3156L135.343 97.332C134.621 98.0028 134.193 98.9294 134.15 99.9122C134.107 100.895 134.453 101.855 135.113 102.586C134.426 101.878 133.488 101.466 132.5 101.439C131.512 101.412 130.553 101.773 129.829 102.443L128.723 103.474C128.179 103.99 127.803 104.659 127.646 105.392C127.482 106.123 127.541 106.887 127.818 107.584C128.095 108.281 128.575 108.879 129.197 109.3C129.885 109.766 130.709 109.989 131.539 109.935C132.369 109.88 133.157 109.551 133.778 109L134.855 107.983C135.576 107.315 136.004 106.391 136.047 105.41C136.09 104.43 135.744 103.472 135.085 102.743C135.763 103.455 136.695 103.872 137.68 103.901C138.664 103.93 139.621 103.571 140.34 102.901L141.46 101.884C142.189 101.206 142.618 100.268 142.653 99.2746C142.688 98.2815 142.326 97.3151 141.647 96.5876C141.995 96.9365 142.409 97.2133 142.865 97.4022C143.321 97.5911 143.81 97.6884 144.304 97.6884C144.797 97.6884 145.286 97.5911 145.742 97.4022C146.198 97.2133 146.612 96.9365 146.96 96.5876L148.052 95.5139C148.4 95.1661 148.676 94.7531 148.863 94.2985C149.05 93.8439 149.145 93.3569 149.143 92.8655C149.142 91.8741 148.75 90.923 148.052 90.217C148.42 90.5451 148.849 90.798 149.315 90.9614C149.775 91.1241 150.264 91.1923 150.751 91.1619C151.249 91.1382 151.737 91.0165 152.187 90.804C152.63 90.5882 153.026 90.2865 153.35 89.9164C153.695 89.5298 154.04 89.1433 154.37 88.7425C154.695 88.3747 154.944 87.9466 155.102 87.4826C155.254 87.0213 155.317 86.5357 155.289 86.051C155.25 85.554 155.118 85.0686 154.901 84.6195C154.68 84.177 154.372 83.7829 153.997 83.4599H154.068C154.475 83.746 154.933 83.9503 155.418 84.0611C155.906 84.1723 156.412 84.1853 156.905 84.0992C157.398 84.0132 157.869 83.8299 158.29 83.5601C158.705 83.2899 159.065 82.9452 159.353 82.5436L160.258 81.2123C160.53 80.8058 160.716 80.3477 160.803 79.8666C160.905 79.3947 160.905 78.9068 160.803 78.435C160.591 77.4671 160.009 76.6198 159.181 76.0728L159.094 76.0013L159.224 76.0728C160.144 76.4483 161.175 76.4483 162.096 76.0728C163.015 75.6856 163.746 74.9563 164.135 74.04C164.35 73.5389 164.551 73.0092 164.738 72.4939C164.91 72.0315 164.988 71.5399 164.968 71.0473C164.948 70.5548 164.831 70.071 164.622 69.6238C164.414 69.1767 164.119 68.7751 163.755 68.4421C163.39 68.1091 162.963 67.8514 162.498 67.6837V67.6837C162.991 67.7267 163.487 67.6717 163.959 67.5218C164.43 67.3718 164.867 67.13 165.244 66.8103C165.62 66.4906 165.93 66.0994 166.153 65.6595C166.377 65.2196 166.511 64.7398 166.547 64.2478C166.605 63.6752 166.633 63.1026 166.633 62.5299C166.641 62.0405 166.554 61.5543 166.375 61.0983Z" fill="#FFFAF1"/>
<path d="M96.7867 117.36C97.072 116.672 97.1469 115.915 97.0021 115.184C96.8465 114.457 96.4823 113.79 95.9538 113.266C95.5804 112.894 95.1927 112.521 94.8194 112.178C94.0871 111.524 93.131 111.175 92.1484 111.204C91.6526 111.218 91.1645 111.33 90.7124 111.534C90.2626 111.733 89.8573 112.02 89.5205 112.378C89.1808 112.735 88.9128 113.152 88.7307 113.609C88.5569 114.066 88.474 114.552 88.4866 115.041C88.4957 115.534 88.6031 116.021 88.8025 116.473C89.0026 116.921 89.2907 117.325 89.6498 117.661L90.6837 118.663C91.1219 119.094 91.66 119.411 92.2505 119.586C92.8409 119.761 93.4654 119.788 94.0688 119.665C94.6721 119.542 95.2358 119.272 95.7098 118.88C96.1839 118.488 96.5538 117.986 96.7867 117.417V117.36Z" fill="#FFFAF1"/>
<path d="M125.937 107.84C124.972 107.839 124.04 108.196 123.324 108.842L122.261 109.93C121.921 110.286 121.653 110.704 121.471 111.161C121.302 111.62 121.214 112.104 121.213 112.593C121.23 113.087 121.342 113.573 121.543 114.024C121.705 114.397 121.934 114.736 122.218 115.026C121.438 114.427 120.454 114.154 119.475 114.268C118.467 114.39 117.548 114.905 116.919 115.699L115.914 116.988C115.321 117.771 115.059 118.754 115.182 119.727C115.306 120.7 115.805 121.587 116.575 122.199V122.199C116.478 122.143 116.377 122.095 116.273 122.056L115.971 121.898L115.526 121.755L115.268 121.683C115.115 121.669 114.961 121.669 114.808 121.683H114.535C114.402 121.676 114.267 121.676 114.133 121.683C114.029 121.669 113.922 121.669 113.817 121.683H113.616L113.114 121.841C112.448 122.127 111.876 122.593 111.462 123.187L110.558 124.618C110.042 125.422 109.852 126.39 110.025 127.328C110.199 128.266 110.722 129.104 111.491 129.672C111.053 129.52 110.59 129.452 110.127 129.471C109.537 129.503 108.962 129.669 108.447 129.958C108.446 129.287 108.262 128.629 107.915 128.054C107.643 127.539 107.37 127.08 107.083 126.622C106.522 125.843 105.685 125.306 104.742 125.119C103.807 124.956 102.845 125.149 102.046 125.661C101.248 126.173 100.672 126.966 100.434 127.882C100.197 128.81 100.326 129.794 100.793 130.631C101.037 131.017 101.281 131.418 101.511 131.819C101.982 132.599 102.719 133.183 103.586 133.464C104.454 133.745 105.395 133.705 106.235 133.351C105.444 133.791 104.834 134.496 104.512 135.341C104.197 136.191 104.197 137.125 104.512 137.975C104.67 138.39 104.828 138.82 104.972 139.235C105.242 139.987 105.745 140.633 106.408 141.082C107.043 141.538 107.807 141.783 108.59 141.783C109.038 141.813 109.487 141.754 109.912 141.611C110.767 141.329 111.487 140.743 111.936 139.965C112.394 139.194 112.557 138.284 112.396 137.402C112.861 137.021 113.221 136.528 113.444 135.971C113.616 135.541 113.803 135.112 113.99 134.682C114.302 133.952 114.371 133.141 114.187 132.368C114.004 131.595 113.577 130.901 112.97 130.387C113.635 130.556 114.333 130.54 114.988 130.34C115.644 130.141 116.233 129.766 116.689 129.257C116.899 129.051 117.082 128.82 117.235 128.569L117.996 127.367C118.325 126.84 118.517 126.24 118.556 125.62C118.601 124.987 118.477 124.352 118.197 123.782C117.917 123.211 117.491 122.724 116.962 122.371V122.371C117.371 122.67 117.835 122.885 118.329 123.003C118.822 123.121 119.334 123.14 119.834 123.058C120.799 122.914 121.67 122.4 122.261 121.626L123.051 120.638C123.291 120.345 123.485 120.017 123.625 119.665V119.665C123.747 119.356 123.833 119.034 123.884 118.706V118.706C123.958 118.013 123.854 117.314 123.582 116.673C123.394 116.293 123.142 115.949 122.836 115.656C123.56 116.24 124.479 116.53 125.409 116.466C126.339 116.402 127.21 115.99 127.847 115.313L128.881 114.268C129.525 113.551 129.861 112.609 129.814 111.648C129.774 110.689 129.369 109.782 128.68 109.111C127.991 108.441 127.072 108.058 126.11 108.04L125.937 107.84Z" fill="#FFFAF1"/>
<path d="M102.832 124.088C103.134 123.451 103.249 122.741 103.162 122.041C103.073 121.343 102.789 120.683 102.344 120.137C102.014 119.722 101.683 119.321 101.339 118.92C100.678 118.228 99.7771 117.814 98.8201 117.761C97.8632 117.709 96.9222 118.022 96.1893 118.638C95.4564 119.253 94.9867 120.125 94.8762 121.074C94.7657 122.023 95.0226 122.978 95.5946 123.745C95.9105 124.103 96.2121 124.475 96.5136 124.847C96.8527 125.289 97.2902 125.647 97.7917 125.892C98.287 126.139 98.8319 126.271 99.3856 126.279H99.4718C100.18 126.28 100.874 126.076 101.468 125.692C102.066 125.297 102.539 124.741 102.832 124.088V124.088Z" fill="#FFFAF1"/>
</g>
<defs>
<clipPath id="clip0_1018_17528">
<rect width="208.996" height="199.049" fill="white" transform="translate(0 0.64209)"/>
</clipPath>
</defs>
</svg>
