<svg width="325" height="326" viewBox="0 0 325 326" fill="none" xmlns="http://www.w3.org/2000/svg">
<path d="M254.685 90.4404C274.712 88.5529 294.459 97.9203 302.372 113.719C310.284 129.517 305.383 150.559 291.378 161.324C309.094 173.068 317.847 196.766 312.035 217.249C306.223 237.661 286.196 253.18 264.909 253.809C269.04 277.577 254.475 303.302 231.997 312.11C209.52 320.918 181.37 311.9 168.135 291.698C160.223 308.195 140.266 316.235 122.06 315.046C91.109 313.019 71.0121 285.546 68.2811 254.718C55.6068 257.095 31.8686 252.97 18.6341 237.242C9.601 226.546 9.53098 208.091 11.8418 195.438C14.0825 182.715 20.3847 171.041 28.0173 160.625C15.0629 146.644 12.0518 124.344 21.0149 107.497C29.908 90.6501 50.0049 80.5138 68.9114 83.31C66.3905 59.1228 81.7958 34.1666 104.554 25.5682C127.381 16.9699 155.461 25.5682 169.606 45.3514C186.832 33.4675 210.85 32.419 229.126 42.695C247.333 52.9711 255.876 70.5873 254.615 91.4191L254.825 90.4404H254.685Z" fill="#FF7D7D"/>
<path d="M254.198 96.1023C270.234 95.4032 288.09 101.555 296.072 116.445C303.565 130.356 299.154 147.483 287.249 157.269C283.818 160.066 284.448 164.959 287.74 167.266C302.865 177.822 310.918 198.234 305.946 216.2C300.974 234.165 283.818 246.469 265.472 247.447C261.341 247.657 257.979 251.991 258.54 256.046C261.621 276.738 249.997 299.107 229.83 306.517C209.663 313.927 185.855 305.469 173.951 288.132C171.22 284.148 165.057 284.707 162.817 289.111C152.453 309.104 125.144 313.508 106.027 304.071C86.5605 294.424 76.7572 273.382 74.5864 252.69C74.3063 250.104 71.3653 248.007 68.7744 248.426C51.7586 251.222 28.2305 244.022 20.4579 227.454C10.5144 206.273 20.6679 180.828 33.2022 163.421C34.8128 161.114 34.6027 157.899 32.8521 155.801C22.1384 143.638 18.7073 125.043 26.1998 110.293C33.6924 95.6828 50.5682 87.8534 66.6037 89.8108C71.5754 90.4399 75.5668 86.1058 75.1466 81.2823C73.326 59.332 87.3308 37.1721 108.688 30.7408C130.045 24.3095 151.893 33.537 164.427 50.4541C166.108 52.691 170.169 52.1318 172.13 50.8036C187.955 40.4576 208.542 39.409 225.208 48.7064C241.524 57.7941 247.896 74.152 248.526 92.0477C248.736 98.9684 258.47 98.8985 259.94 92.5371L260.15 91.5584C261.971 83.5193 250.697 82.4707 249.086 89.6011L248.876 90.5797L260.29 91.0691C262.951 68.8392 252.167 47.8676 232.701 36.8924C212.184 25.3581 186.205 27.3853 166.738 40.1081L174.441 40.4576C158.405 18.787 127.525 9.76916 102.316 19.9753C77.1073 30.1815 60.1615 57.7941 62.4723 85.5465L71.0152 77.0181C49.0277 74.3617 26.2699 85.1271 15.6262 104.91C5.05257 124.554 8.41372 149.021 23.0487 165.588L22.6986 157.968C7.50341 179.01 -3.07022 209.489 8.83387 234.655C18.4272 254.927 46.6468 264.574 67.7241 261.149L61.9121 256.885C64.573 282.75 78.9279 308.894 104.557 318.052C130.186 327.209 160.996 318.471 173.46 294.354L162.327 295.332C177.802 317.912 208.332 328.538 234.101 317.772C259.87 307.007 275.345 279.045 271.284 251.712L264.352 260.31C288.58 258.982 311.338 241.925 318.06 218.437C324.782 194.948 314.909 169.503 294.952 155.592L295.442 165.588C311.058 152.795 317.08 129.727 308.537 111.272C299.294 91.3487 275.836 82.8901 255.108 84.9873C248.596 85.6165 246.355 96.5217 254.128 96.1722L254.198 96.1023Z" fill="#FF7D7D"/>
<path d="M225.909 116.304C239.564 114.976 253.008 121.407 258.33 132.173C263.652 142.938 260.431 157.269 250.838 164.539C262.882 172.508 268.904 188.656 264.913 202.567C260.921 216.478 247.337 227.034 232.842 227.454C235.643 243.672 225.769 261.148 210.434 267.16C195.099 273.172 175.982 267.02 167.019 253.249C161.627 264.503 148.042 269.956 135.648 269.117C114.571 267.719 100.916 249.054 99.0256 228.083C90.4126 229.691 74.2371 226.894 65.204 216.199C59.0419 208.929 59.0419 196.346 60.5824 187.747C62.1229 179.079 66.3944 171.11 71.5762 164.049C62.7532 154.542 60.7225 139.373 66.8146 127.908C72.9066 116.444 86.5613 109.523 99.3757 111.411C97.6251 94.9131 108.129 77.9261 123.674 72.1239C139.219 66.2519 158.336 72.1239 167.929 85.5458C179.623 77.4367 196.009 76.7377 208.403 83.7282C220.797 90.7188 226.609 102.742 225.769 116.933L225.909 116.234V116.304Z" fill="#CE5A3C"/>
<path d="M224.929 127.491C232.912 127.701 242.295 131.056 246.286 138.396C249.858 144.898 247.967 151.678 242.575 156.222C235.783 161.885 236.973 171.532 243.556 176.215C259.801 187.889 254.339 213.265 233.962 214.593C225.559 215.152 219.047 223.611 220.168 231.72C221.498 241.647 216.316 252.552 206.233 255.628C196.149 258.704 184.455 254.02 178.713 245.841C173.111 237.872 161.067 238.99 156.376 247.798C151.124 257.585 137.679 258.284 128.576 253.321C117.722 247.379 112.961 235.425 111.7 223.681C111.14 218.438 105.258 214.384 100.146 215.222C91.2533 216.62 78.2988 213.405 74.1674 204.527C68.7756 192.713 75.3578 178.872 82.1501 169.364C85.4413 164.751 84.9511 158.389 81.3799 154.195C70.9463 142.031 77.4585 122.178 95.0346 124.136C105.118 125.254 112.821 116.866 112.12 107.079C111.42 97.0125 118.072 86.247 128.016 83.5906C139.64 80.4449 150.984 86.3869 157.916 95.5444C161.347 100.018 169.26 98.8999 173.391 96.3134C182.144 90.721 193.138 90.5812 202.031 96.2435C210.924 101.906 212.395 111.063 214.145 120.92C216.386 133.223 234.522 129.169 236.833 118.963L236.973 118.264C240.685 102.255 218.067 100.088 214.776 114.279L214.636 114.978L236.833 118.963C241.315 100.228 233.262 82.4722 216.806 72.5456C200.141 62.4792 178.363 64.6463 162.468 74.8525L177.943 75.6214C164.708 58.2849 139.36 52.2031 119.403 60.8015C97.6255 70.2387 84.9511 92.4686 86.7017 115.817L103.788 98.7601C84.8111 96.7328 65.6245 105.611 56.2412 122.598C46.9281 139.305 49.4489 159.578 61.8432 173.908L61.0729 158.739C49.3089 175.237 41.3261 199.633 50.8494 219.137C58.9022 235.495 80.6096 243.604 97.9756 240.878L86.4216 232.419C88.5924 252.412 100.146 272.265 119.823 279.256C140.76 286.666 166.879 278.766 177.663 258.634L155.325 260.591C168.07 278.836 191.248 287.365 212.675 279.326C235.223 270.867 248.807 246.75 245.586 223.192L231.792 240.318C252.239 238.99 271.145 224.52 277.097 204.807C283.119 184.744 274.716 164.751 258.191 152.867L259.171 172.86C272.335 161.815 277.727 141.752 270.305 125.953C262.742 109.805 243.696 102.605 226.82 105.121C213.935 107.009 209.104 127.142 224.859 127.491H224.929Z" fill="#3A75B5"/>
</svg>
