<svg width="210" height="211" viewBox="0 0 210 211" fill="none" xmlns="http://www.w3.org/2000/svg">
<path d="M165.402 53.294C178.342 52.0782 191.101 58.1123 196.214 68.2893C201.327 78.4664 198.16 92.0207 189.111 98.9555C200.558 106.521 206.214 121.786 202.458 134.98C198.703 148.129 185.762 158.126 172.008 158.532C174.677 173.842 165.266 190.414 150.742 196.087C136.218 201.761 118.029 195.952 109.477 182.938C104.364 193.566 91.4691 198.744 79.705 197.979C59.7062 196.673 46.7205 178.976 44.9559 159.117C36.7663 160.648 21.4278 157.991 12.8763 147.859C7.03949 140.969 6.99424 129.081 8.48737 120.931C9.93525 112.735 14.0074 105.215 18.9393 98.5052C10.5687 89.499 8.62311 75.1341 14.4146 64.2816C20.1609 53.4291 33.1466 46.8996 45.3631 48.7008C43.7342 33.1201 53.6884 17.044 68.3935 11.5052C83.1438 5.96638 101.288 11.5052 110.427 24.249C121.558 16.5937 137.077 15.9182 148.887 22.5378C160.651 29.1574 166.171 40.5052 165.356 53.9244L165.492 53.294H165.402Z" fill="#357C83"/>
<path d="M165.087 56.942C175.448 56.4917 186.986 60.4544 192.144 70.046C196.985 79.0072 194.135 90.0398 186.443 96.3441C184.226 98.1454 184.633 101.298 186.76 102.784C196.533 109.583 201.736 122.732 198.524 134.305C195.311 145.878 184.226 153.804 172.371 154.434C169.702 154.569 167.53 157.361 167.892 159.973C169.883 173.302 162.372 187.712 149.341 192.485C136.31 197.259 120.926 191.81 113.234 180.642C111.47 178.075 107.488 178.436 106.04 181.273C99.3438 194.152 81.6978 196.989 69.3455 190.909C56.7671 184.695 50.4326 171.141 49.03 157.812C48.849 156.145 46.9486 154.794 45.2745 155.065C34.2797 156.866 19.0769 152.228 14.0546 141.555C7.62959 127.911 14.1903 111.52 22.2894 100.307C23.3301 98.8209 23.1943 96.7494 22.0632 95.3985C15.1405 87.5631 12.9234 75.5848 17.7648 66.0833C22.6061 56.6718 33.5105 51.6283 43.8719 52.8892C47.0844 53.2945 49.6634 50.5025 49.3919 47.3954C48.2155 33.2556 57.2648 18.9808 71.0649 14.838C84.865 10.6951 98.9819 16.6392 107.081 27.5367C108.167 28.9777 110.791 28.6175 112.058 27.7619C122.284 21.0973 135.586 20.4218 146.355 26.4109C156.897 32.265 161.015 42.8022 161.422 54.3302C161.558 58.7883 167.847 58.7432 168.797 54.6454L168.933 54.015C170.109 48.8364 162.824 48.1609 161.784 52.7541L161.648 53.3845L169.023 53.6997C170.743 39.3799 163.775 25.8706 151.196 18.8007C137.939 11.3706 121.153 12.6765 108.574 20.8721L113.551 21.0973C103.19 7.13764 83.2362 1.32864 66.9475 7.90317C50.6588 14.4777 39.7092 32.265 41.2023 50.1423L46.7224 44.6485C32.5151 42.9373 17.81 49.8721 10.9326 62.6159C4.10038 75.2696 6.27221 91.0305 15.7287 101.703L15.5025 96.7945C5.684 110.349 -1.14819 129.982 6.54368 146.194C12.7424 159.253 30.9767 165.467 44.5958 163.26L40.8404 160.513C42.5597 177.175 51.8352 194.016 68.3954 199.916C84.9555 205.815 104.864 200.186 112.918 184.65L105.724 185.28C115.723 199.826 135.45 206.67 152.101 199.735C168.752 192.801 178.751 174.788 176.127 157.181L171.647 162.72C187.303 161.864 202.008 150.877 206.351 135.746C210.695 120.616 204.315 104.225 191.42 95.2634L191.737 101.703C201.827 93.4622 205.718 78.6019 200.198 66.7137C194.225 53.8799 179.068 48.4311 165.675 49.782C161.467 50.1873 160.019 57.2122 165.041 56.987L165.087 56.942Z" fill="#357C83"/>
<path d="M146.808 69.9566C155.631 69.101 164.318 73.2439 167.757 80.1787C171.195 87.1135 169.114 96.3448 162.915 101.028C170.698 106.162 174.589 116.564 172.01 125.525C169.431 134.486 160.653 141.286 151.287 141.556C153.097 152.003 146.717 163.261 136.808 167.134C126.899 171.006 114.547 167.044 108.756 158.172C105.272 165.422 96.4939 168.935 88.4853 168.394C74.8661 167.494 66.0431 155.471 64.8214 141.961C59.2562 142.997 48.8043 141.196 42.9675 134.306C38.9858 129.623 38.9858 121.517 39.9812 115.978C40.9767 110.395 43.7367 105.261 47.0849 100.713C41.3839 94.5886 40.0717 84.8169 44.0082 77.4318C47.9446 70.0467 56.7676 65.5886 65.0477 66.8045C63.9165 56.1771 70.7035 45.2346 80.7481 41.497C90.7928 37.7144 103.145 41.497 109.344 50.143C116.9 44.9194 127.488 44.4691 135.496 48.9722C143.505 53.4753 147.26 61.2206 146.717 70.3619L146.808 69.9116V69.9566Z" fill="#FAD694"/>
<path d="M146.174 77.1612C151.333 77.2963 157.396 79.4578 159.975 84.186C162.282 88.3739 161.06 92.7419 157.576 95.6689C153.188 99.3164 153.957 105.531 158.21 108.548C168.707 116.068 165.178 132.414 152.011 133.27C146.582 133.63 142.374 139.079 143.098 144.302C143.957 150.697 140.609 157.722 134.094 159.703C127.578 161.684 120.022 158.667 116.312 153.399C112.692 148.265 104.91 148.986 101.878 154.66C98.4848 160.964 89.7975 161.414 83.9155 158.217C76.9023 154.389 73.8256 146.689 73.0112 139.124C72.6492 135.747 68.8485 133.135 65.5455 133.675C59.7992 134.576 51.4287 132.504 48.7592 126.785C45.2752 119.175 49.5283 110.259 53.9172 104.135C56.0438 101.163 55.7271 97.0649 53.4195 94.363C46.6778 86.5276 50.8857 73.7388 62.2425 74.9997C68.758 75.7202 73.7351 70.3165 73.2826 64.0121C72.8302 57.5276 77.1286 50.5929 83.5536 48.8817C91.0644 46.8553 98.3943 50.6829 102.874 56.582C105.091 59.464 110.204 58.7435 112.873 57.0773C118.529 53.4748 125.633 53.3848 131.379 57.0323C137.125 60.6798 138.075 66.5789 139.206 72.9283C140.654 80.8537 152.373 78.2419 153.866 71.6674L153.957 71.2171C156.355 60.905 141.74 59.509 139.614 68.6503L139.523 69.1006L153.866 71.6674C156.762 59.5991 151.559 48.1612 140.926 41.7668C130.157 35.2823 116.086 36.6783 105.815 43.2528L115.814 43.7481C107.263 32.5804 90.8835 28.6627 77.9883 34.2016C63.9167 40.2807 55.7271 54.6006 56.8582 69.641L67.8983 58.6534C55.6366 57.3475 43.2391 63.0665 37.1761 74.009C31.1583 84.7714 32.7872 97.8304 40.7958 107.062L40.2981 97.29C32.6967 107.917 27.5386 123.633 33.6921 136.197C38.8955 146.734 52.9218 151.958 64.1429 150.202L56.6773 144.753C58.0799 157.632 65.5455 170.42 78.2597 174.924C91.7884 179.697 108.665 174.608 115.633 161.639L101.2 162.9C109.434 174.653 124.411 180.147 138.256 174.969C152.826 169.52 161.603 153.984 159.522 138.809L150.609 149.841C163.82 148.986 176.037 139.664 179.883 126.966C183.774 114.042 178.345 101.163 167.666 93.5074L168.3 106.386C176.806 99.2714 180.29 86.3475 175.494 76.1705C170.607 65.7683 158.3 61.1301 147.396 62.7512C139.071 63.9671 135.949 76.936 146.129 77.1612H146.174Z" fill="#8E5A4A"/>
</svg>
