<svg width="207" height="199" viewBox="0 0 207 199" fill="none" xmlns="http://www.w3.org/2000/svg">
<g clip-path="url(#clip0_1018_17651)">
<path d="M163.695 48.6653C169.793 47.8864 175.987 48.905 181.507 51.5948C187.027 54.2847 191.63 58.5271 194.743 63.7946C197.186 68.9852 197.809 74.8393 196.511 80.4225C195.214 86.0056 192.071 90.996 187.585 94.5972C193.403 98.4382 197.84 104.018 200.254 110.53C202.669 117.042 202.936 124.148 201.017 130.821C199.098 137.494 195.093 143.387 189.58 147.648C184.067 151.91 177.333 154.319 170.351 154.527C171.643 162.283 170.217 170.245 166.311 177.082C162.405 183.92 156.255 189.218 148.89 192.092C141.524 194.966 133.39 195.242 125.844 192.873C118.299 190.504 111.8 185.635 107.434 179.078C102.328 189.768 89.197 194.977 77.4341 194.207C57.2823 192.894 44.1973 175.092 42.4192 155.115C36.5161 155.939 30.5003 155.344 24.876 153.382C19.2517 151.419 14.183 148.146 10.0944 143.836C4.16739 136.86 4.16739 124.947 5.53516 116.657C7.26832 108.411 10.8701 100.665 16.067 94.0083C11.8183 89.4441 9.09968 83.6827 8.28673 77.5184C7.47378 71.3541 8.60657 65.0909 11.5283 59.5933C14.4501 54.0957 19.0171 49.6344 24.5991 46.8251C30.1812 44.0157 36.5031 42.9967 42.6928 43.9088C41.8408 35.9965 43.6539 28.027 47.8481 21.2479C52.0423 14.4689 58.3809 9.26322 65.8713 6.44593C73.3617 3.62864 81.5809 3.35871 89.2421 5.6787C96.9033 7.99869 103.574 12.7774 108.209 19.2667C113.896 15.4946 120.513 13.3403 127.344 13.0369C134.175 12.7334 140.959 14.2924 146.962 17.5454C152.571 20.612 157.14 25.2598 160.093 30.9028C163.047 36.5457 164.252 42.9311 163.558 49.2539L163.695 48.6653Z" fill="#CF9D76"/>
<path d="M163.376 52.2889C173.817 51.8812 185.443 55.8673 190.732 65.4704C192.975 69.8653 193.628 74.893 192.582 79.7098C191.536 84.5266 188.854 88.8396 184.987 91.9245C184.495 92.3237 184.105 92.832 183.847 93.4084C183.589 93.9848 183.471 94.6133 183.502 95.2434C183.533 95.8734 183.712 96.4874 184.025 97.036C184.339 97.5847 184.778 98.0526 185.306 98.4021C190.245 101.905 194.014 106.799 196.126 112.45C198.239 118.102 198.599 124.254 197.16 130.111C195.424 135.785 191.955 140.782 187.234 144.41C182.512 148.038 176.772 150.117 170.808 150.359C169.464 150.507 168.233 151.175 167.38 152.217C166.527 153.26 166.121 154.593 166.249 155.931C167.274 162.669 165.993 169.554 162.612 175.484C159.231 181.414 153.946 186.045 147.601 188.636C141.044 190.851 133.939 190.887 127.359 188.738C120.78 186.589 115.082 182.371 111.127 176.722C110.701 176.131 110.127 175.659 109.463 175.353C108.798 175.047 108.065 174.917 107.335 174.977C106.605 175.036 105.903 175.282 105.297 175.691C104.691 176.101 104.202 176.658 103.878 177.311C97.1303 190.312 79.3493 193.165 66.857 187.005C54.3646 180.844 47.7994 167.164 46.4317 153.756C46.2753 152.903 45.7962 152.141 45.0926 151.627C44.389 151.113 43.514 150.886 42.6474 150.993C31.5685 152.805 16.2496 148.139 11.1889 137.404C4.66915 123.814 11.1889 107.19 19.4867 95.9108C19.9919 95.1717 20.2388 94.288 20.1893 93.396C20.1399 92.5039 19.797 91.6527 19.2132 90.9732C15.6864 87.0063 13.4019 82.1028 12.6406 76.8643C11.8793 71.6258 12.6742 66.2803 14.9275 61.4842C17.4556 56.8959 21.3201 53.1737 26.0144 50.8053C30.7088 48.4369 36.0137 47.5329 41.2341 48.2119C41.9821 48.2819 42.7365 48.1871 43.4433 47.9341C44.1501 47.6811 44.7921 47.2761 45.3233 46.7483C45.8545 46.2205 46.2619 45.5827 46.5165 44.8804C46.7712 44.1781 46.8669 43.4289 46.7965 42.6857C46.1992 35.5882 48.0242 28.4975 51.9777 22.5563C55.9311 16.6151 61.7827 12.1692 68.5895 9.93514C75.2554 8.13199 82.316 8.38864 88.8317 10.6706C95.3473 12.9525 101.009 17.1515 105.063 22.7092C106.158 24.1587 108.802 23.7963 110.079 22.7092C115.17 19.3819 121.079 17.4974 127.168 17.2579C133.257 17.0185 139.297 18.4333 144.638 21.3503C155.261 27.239 159.41 37.8388 159.82 49.4351C159.82 53.9649 166.294 53.9649 167.251 49.7522V49.118C168.437 43.9087 161.096 43.2293 160.048 47.8044V48.4384L167.479 48.7555C168.368 41.7896 167.13 34.7191 163.927 28.4599C160.725 22.2007 155.704 17.0412 149.516 13.6496C142.836 10.1092 135.315 8.43331 127.752 8.80021C120.19 9.1671 112.869 11.5632 106.568 15.7334L111.629 16.0052C106.261 9.07805 98.795 4.04858 90.3313 1.65882C81.8676 -0.730949 72.8548 -0.354402 64.623 2.73293C56.3367 6.19899 49.3657 12.1792 44.7064 19.8186C40.047 27.4581 37.938 36.3657 38.6809 45.2677L44.2433 39.7413C37.1039 38.8934 29.8714 40.1611 23.4549 43.3849C17.0384 46.6087 11.7239 51.6448 8.17961 57.8604C4.88303 64.1295 3.57998 71.2454 4.44295 78.2663C5.30592 85.2873 8.29422 91.8823 13.0124 97.179V92.2417C3.11884 105.831 -3.7656 125.626 3.89391 142.069C10.0945 155.206 28.5139 161.502 42.2372 159.237L38.453 156.474C40.2311 173.234 49.5777 190.176 66.2189 196.11C82.8601 202.044 102.966 196.427 111.082 180.754L103.833 181.388C108.833 188.689 116.169 194.099 124.652 196.738C133.134 199.377 142.266 199.092 150.565 195.928C158.742 192.374 165.529 186.267 169.898 178.534C174.267 170.801 175.979 161.864 174.774 153.077L170.215 158.648C178.134 158.169 185.72 155.315 191.971 150.463C198.223 145.61 202.846 138.987 205.23 131.47C207.287 123.963 206.945 116.007 204.249 108.702C201.553 101.398 196.638 95.1072 190.185 90.7014L190.503 97.179C195.464 92.9639 198.93 87.277 200.392 80.9564C201.853 74.6359 201.231 68.0162 198.619 62.0731C192.601 49.1632 177.327 43.6821 163.832 45.041C159.774 45.494 158.315 52.5154 163.376 52.2889Z" fill="#CF9D76"/>
<path d="M144.957 65.4251C149.103 64.8907 153.315 65.5808 157.069 67.4094C160.823 69.238 163.952 72.1241 166.066 75.7079C167.732 79.242 168.157 83.229 167.272 87.0312C166.388 90.8335 164.245 94.2313 161.188 96.6808C165.12 99.3076 168.115 103.104 169.741 107.526C171.368 111.949 171.543 116.769 170.242 121.296C168.941 125.823 166.23 129.825 162.499 132.726C158.767 135.628 154.206 137.282 149.47 137.449C150.404 142.751 149.463 148.21 146.808 152.902C144.152 157.594 139.946 161.229 134.901 163.191C129.856 165.153 124.284 165.322 119.128 163.668C113.973 162.015 109.551 158.641 106.614 154.119C104.58 157.619 101.568 160.459 97.9423 162.292C94.3167 164.125 90.2337 164.874 86.1883 164.447C72.5106 163.541 63.392 151.446 62.3433 137.857C58.3208 138.409 54.2236 137.998 50.3932 136.659C46.5627 135.319 43.11 133.09 40.3224 130.156C38.6042 127.44 37.4524 124.408 36.9356 121.241C36.4187 118.074 36.547 114.836 37.3132 111.72C38.4718 106.12 40.9221 100.864 44.4712 96.3637C41.5543 93.2539 39.6864 89.3176 39.1278 85.1031C38.5692 80.8886 39.3477 76.6059 41.3548 72.8519C43.362 69.0978 46.4977 66.0593 50.3253 64.1597C54.1528 62.2601 58.4816 61.5942 62.7082 62.2545C72.138 27.4317 108.695 42.5162 133.696 44.1353C137.499 46.2187 140.598 49.3728 142.601 53.2013C144.605 57.0298 145.424 61.3618 144.957 65.6519V65.4251Z" fill="#845013"/>
<path d="M144.319 72.6727C147.008 72.6438 149.662 73.2733 152.048 74.5058C154.433 75.7382 156.477 77.5357 157.997 79.7392C159.057 81.6436 159.391 83.8635 158.939 85.9928C158.487 88.1221 157.278 90.0186 155.535 91.3355C154.562 92.1424 153.793 93.1632 153.286 94.317C152.78 95.4708 152.551 96.7258 152.617 97.9828C152.683 99.2398 153.043 100.464 153.669 101.559C154.294 102.654 155.167 103.589 156.219 104.291C158.58 105.84 160.4 108.08 161.427 110.7C162.454 113.32 162.637 116.192 161.952 118.921C161.267 121.649 159.747 124.099 157.601 125.933C155.455 127.766 152.79 128.894 149.973 129.159C148.635 129.289 147.336 129.682 146.152 130.313C144.967 130.945 143.921 131.804 143.073 132.84C142.225 133.877 141.592 135.07 141.211 136.351C140.83 137.631 140.709 138.975 140.854 140.303C141.384 143.535 140.763 146.85 139.099 149.678C137.435 152.505 134.831 154.668 131.736 155.794C128.452 156.613 124.999 156.448 121.81 155.319C118.621 154.19 115.841 152.149 113.818 149.453C112.952 148.274 111.794 147.337 110.457 146.734C109.12 146.13 107.648 145.88 106.185 146.008C104.722 146.135 103.317 146.636 102.106 147.462C100.895 148.288 99.9197 149.41 99.2738 150.721C95.8544 157.017 87.1007 157.47 81.0369 154.299C77.7835 152.214 75.0851 149.379 73.172 146.035C71.2589 142.691 70.1875 138.937 70.049 135.093C69.7363 133.398 68.7829 131.886 67.3842 130.867C65.9855 129.848 64.2476 129.399 62.5264 129.612C56.6906 130.473 48.2559 128.434 45.6115 122.636C42.1009 114.981 46.3866 106.057 50.8091 99.9872C51.8371 98.5265 52.3458 96.7673 52.255 94.9872C52.1642 93.207 51.4788 91.5076 50.3074 90.1577C43.5597 82.2758 47.7543 69.4566 59.1979 70.6796C60.6976 70.8363 62.2136 70.6579 63.635 70.1579C65.0564 69.6578 66.3472 68.8487 67.4134 67.7893C68.4797 66.73 69.2944 65.4473 69.7977 64.035C70.301 62.6228 70.4802 61.1168 70.3225 59.6269C70.0888 56.306 70.981 53.0029 72.8567 50.2444C74.7325 47.4859 77.4838 45.4309 80.6721 44.4069C84.3244 43.6346 88.1253 43.9585 91.5918 45.3378C95.0583 46.717 98.0338 49.0891 100.14 52.1526C102.374 55.0517 107.526 54.3269 110.17 52.6508C112.949 50.8683 116.186 49.9201 119.494 49.9201C122.802 49.9201 126.039 50.8683 128.818 52.6508C134.79 56.4106 135.565 62.2088 136.751 68.5958C138.21 76.5682 149.972 73.9864 151.522 67.3276V66.9198C153.939 56.5013 139.213 55.1423 137.07 64.3378V64.7456L151.522 67.3276C152.936 61.5873 152.428 55.5458 150.075 50.1183C147.722 44.6908 143.652 40.1731 138.483 37.2497C133.015 34.2519 126.822 32.8057 120.582 33.0694C114.343 33.333 108.296 35.2964 103.103 38.7446L113.134 39.2428C108.674 33.7702 102.55 29.8809 95.6782 28.1578C88.8066 26.4346 81.5579 26.9705 75.0186 29.685C68.1842 32.6834 62.4604 37.724 58.6442 44.1055C54.828 50.487 53.1091 57.8917 53.7268 65.2891L64.8514 54.2364C58.7354 53.5123 52.5401 54.5905 47.036 57.3368C41.5319 60.0832 36.9619 64.3764 33.8942 69.6829C30.9847 74.9215 29.7697 80.9232 30.4141 86.872C31.0586 92.8208 33.5311 98.4283 37.4959 102.932L37.0401 93.1021C29.3806 103.792 24.1374 119.601 30.3835 132.239C35.6267 142.839 49.7605 148.094 61.0674 146.372L53.5445 140.846C54.9579 153.847 62.6631 166.666 75.2922 171.196C82.1807 173.632 89.708 173.608 96.5807 171.128C103.453 168.648 109.242 163.867 112.952 157.606L98.4076 158.875C102.377 164.746 108.209 169.13 114.975 171.33C121.741 173.53 129.053 173.418 135.748 171.014C142.864 168.193 148.834 163.103 152.722 156.544C156.609 149.984 158.192 142.327 157.222 134.776L148.103 145.874C154.773 145.395 161.148 142.949 166.411 138.85C171.674 134.751 175.587 129.184 177.647 122.863C179.438 116.68 179.212 110.093 177 104.046C174.789 97.9991 170.706 92.804 165.337 89.2063L165.975 102.162C170.51 98.6898 173.71 93.7781 175.042 88.2458C176.373 82.7135 175.755 76.8948 173.291 71.7604C170.827 66.6259 166.666 62.4859 161.502 60.0306C156.337 57.5753 150.482 56.9532 144.912 58.268C137.206 59.4005 134.061 72.4462 144.319 72.6727Z" fill="#234A87"/>
</g>
<defs>
<clipPath id="clip0_1018_17651">
<rect width="206.123" height="198.405" fill="white" transform="translate(0.29248 0.286621)"/>
</clipPath>
</defs>
</svg>
