<svg width="203" height="347" viewBox="0 0 203 347" fill="none" xmlns="http://www.w3.org/2000/svg">
<g clip-path="url(#clip0_969_75078)">
<path d="M6.15536 314.347C8.84339 311.893 11.6658 309.439 14.3807 306.931L18.3322 303.291C19.8123 302.009 21.1709 300.592 22.391 299.058C22.6137 298.784 22.7354 298.441 22.7354 298.087C22.7354 297.734 22.6137 297.391 22.391 297.117C22.1118 296.906 21.7723 296.793 21.4234 296.793C21.0744 296.793 20.7349 296.906 20.4557 297.117C18.8794 298.204 17.4039 299.431 16.0473 300.784C14.6764 301.997 13.3592 303.291 11.9883 304.532C9.30031 307.039 6.61228 309.601 3.92425 312.135C3.56853 312.448 3.34747 312.887 3.30737 313.359C3.26727 313.832 3.41137 314.302 3.70933 314.67C4.07477 314.961 4.53723 315.101 5.00199 315.06C5.46675 315.02 5.89861 314.804 6.20917 314.455L6.15536 314.347Z" fill="#7C7C7C"/>
<path d="M14.5689 327.775C17.445 324.431 20.3751 321.142 23.1975 317.771C26.1615 314.468 28.9519 311.012 31.5572 307.417C32.6862 305.745 30.5089 304.424 29.1917 305.691C26.1883 308.817 23.3443 312.093 20.6707 315.506C17.9827 318.85 15.2947 322.274 12.4454 325.645C12.1313 325.938 11.9379 326.339 11.9031 326.768C11.8683 327.197 11.9946 327.623 12.2572 327.964C12.5915 328.239 13.0196 328.374 13.4511 328.339C13.8825 328.304 14.2834 328.101 14.5689 327.775Z" fill="#7C7C7C"/>
<path d="M27.3641 338.129C29.0038 334.624 30.5897 331.092 32.1487 327.559C32.9282 325.807 33.6541 324.081 34.3798 322.328C35.2105 320.575 35.9375 318.774 36.5571 316.936C37.1216 315.021 34.6217 314.455 33.8691 315.992C31.9918 319.477 30.3397 323.08 28.923 326.777C27.364 330.391 25.8588 333.977 24.3804 337.563C24.3058 337.755 24.2734 337.962 24.2858 338.167C24.2981 338.373 24.3547 338.574 24.4518 338.756C24.5489 338.938 24.684 339.097 24.848 339.221C25.012 339.346 25.2008 339.433 25.4017 339.477C25.8512 339.521 26.3022 339.411 26.6824 339.167C27.0626 338.922 27.35 338.557 27.4985 338.129H27.3641Z" fill="#7C7C7C"/>
<path d="M45.9657 345.355C46.1001 342.012 46.154 338.695 46.1808 335.379C46.3469 332.062 46.284 328.737 45.9927 325.429C45.9548 325.252 45.8819 325.085 45.7782 324.937C45.6746 324.789 45.5422 324.664 45.3892 324.568C45.2362 324.472 45.0657 324.409 44.8877 324.381C44.7096 324.353 44.5279 324.361 44.353 324.405C43.9525 324.501 43.5908 324.718 43.3169 325.026C43.043 325.335 42.8699 325.72 42.8208 326.13C42.5561 329.377 42.4932 332.637 42.6326 335.891C42.6326 339.127 42.6327 342.363 42.8477 345.625C42.8477 347.728 45.8851 347.216 45.9657 345.355Z" fill="#7C7C7C"/>
<path d="M68.6522 341.068C67.0931 337.94 65.5072 334.812 63.9212 331.684C63.1417 330.147 62.389 328.583 61.5288 327.127C60.6687 325.671 59.8623 323.973 58.8408 322.49C57.8194 321.007 55.2389 322.49 55.9109 324.323C56.583 326.157 57.3625 327.451 58.0882 329.015C58.814 330.579 59.701 332.224 60.5343 333.788C62.1471 336.888 63.7868 339.962 65.4534 343.063C66.5017 344.978 69.5123 342.901 68.6253 341.068H68.6522Z" fill="#7C7C7C"/>
<path d="M67.3891 318.931C70.0771 321.627 72.7651 324.324 75.5876 326.885C78.2029 329.606 81.0544 332.087 84.1086 334.3C84.4513 334.443 84.8319 334.464 85.1883 334.361C85.5447 334.258 85.8557 334.037 86.0708 333.734C86.3054 333.46 86.4345 333.111 86.4345 332.75C86.4345 332.389 86.3054 332.04 86.0708 331.766C83.6134 328.922 80.9153 326.296 78.0067 323.919C75.3187 321.412 72.3619 318.958 69.5395 316.504C68.1686 315.318 65.9107 317.556 67.2009 318.823L67.3891 318.931Z" fill="#7C7C7C"/>
<path d="M82.6305 312.028L91.1246 318.418L95.3717 321.6L97.6297 323.191C98.316 323.759 99.0644 324.248 99.8607 324.647C101.42 325.321 103.194 323.299 102.038 321.95C101.413 321.327 100.729 320.767 99.9951 320.279L97.8716 318.661L93.5977 315.533L84.8883 309.223C83.4906 308.226 81.1789 311.003 82.6305 312.082V312.028Z" fill="#7C7C7C"/>
<path d="M92.6021 300.892L101.096 307.255L105.37 310.437C106.123 310.976 106.849 311.516 107.628 312.028C108.301 312.602 109.041 313.091 109.833 313.484C111.392 314.158 113.166 312.136 112.01 310.787C111.396 310.152 110.711 309.591 109.967 309.116L107.87 307.498L103.569 304.37L94.8602 298.007C93.4624 297.009 91.1506 299.786 92.6021 300.892Z" fill="#7C7C7C"/>
<path d="M102.575 289.728L111.096 296.092L115.344 299.274L117.602 300.864C118.283 301.427 119.022 301.915 119.806 302.321C121.392 302.995 123.166 300.972 122.01 299.624C121.378 299.009 120.695 298.45 119.967 297.952L117.843 296.335L113.543 293.207L104.86 286.897C103.436 285.899 101.124 288.677 102.575 289.782V289.728Z" fill="#7C7C7C"/>
<path d="M111.419 277.541C114.241 279.671 117.064 281.801 119.913 283.905C121.337 284.956 122.601 286.035 124.187 287.086L126.418 288.677C127.104 289.246 127.853 289.734 128.649 290.133C130.208 290.807 131.982 288.785 130.826 287.437C130.2 286.815 129.516 286.256 128.783 285.765L126.687 284.147L122.386 281.019L113.677 274.656C112.279 273.658 109.967 276.436 111.419 277.541Z" fill="#7C7C7C"/>
<path d="M120.236 265.353L128.73 271.717L133.004 274.899L135.262 276.489C135.934 277.064 136.674 277.553 137.466 277.945C139.052 278.62 140.799 276.597 139.643 275.249C139.023 274.621 138.338 274.061 137.6 273.577L135.504 271.96L131.203 268.832L122.52 262.522C121.096 261.524 118.784 264.302 120.236 265.407V265.353Z" fill="#7C7C7C"/>
<path d="M129.052 253.165L137.573 259.528L141.82 262.71L144.078 264.301C144.76 264.863 145.498 265.351 146.282 265.757C147.868 266.431 149.642 264.409 148.487 263.061C147.855 262.446 147.171 261.886 146.444 261.389L144.32 259.771L140.019 256.643L131.337 250.334C129.912 249.336 127.6 252.113 129.052 253.219V253.165Z" fill="#7C7C7C"/>
<path d="M137.869 240.978C140.557 243.108 143.514 245.238 146.363 247.341C147.788 248.393 149.186 249.471 150.637 250.523L152.868 252.114C153.555 252.682 154.303 253.171 155.099 253.57C156.658 254.244 158.433 252.222 157.277 250.874C156.651 250.252 155.967 249.692 155.234 249.202L153.137 247.584L148.836 244.456L140.154 238.039C138.756 237.041 136.445 239.818 137.896 240.924L137.869 240.978Z" fill="#7C7C7C"/>
<path d="M146.713 228.79L155.207 235.154L159.481 238.335L161.739 239.926C162.411 240.501 163.151 240.99 163.943 241.382C165.529 242.056 167.276 240.034 166.12 238.686C165.504 238.064 164.829 237.504 164.104 237.014L162.061 235.342L157.76 232.215L149.078 225.905C147.653 224.907 145.342 227.685 146.793 228.79H146.713Z" fill="#7C7C7C"/>
<path d="M155.153 217.276C157.975 219.406 160.798 221.536 163.647 223.64L167.894 226.822L170.152 228.412C170.838 228.981 171.587 229.469 172.383 229.868C173.942 230.542 175.716 228.52 174.561 227.172C173.929 226.557 173.245 225.998 172.518 225.5L170.421 223.909L166.12 220.755L157.411 214.472C156.013 213.447 153.701 216.225 155.153 217.33V217.276Z" fill="#7C7C7C"/>
<path d="M163.567 205.681L172.061 212.072L176.335 215.227L178.593 216.845C179.265 217.419 180.005 217.908 180.797 218.301C182.383 218.948 184.13 216.952 182.974 215.604C182.372 214.968 181.695 214.407 180.958 213.932L178.835 212.315L174.534 209.187L165.851 202.985C164.427 201.96 162.115 204.765 163.567 205.843V205.681Z" fill="#7C7C7C"/>
<path d="M170.125 195.138L179.184 200.747L183.727 203.443C185.209 204.456 186.795 205.305 188.458 205.978C189.882 206.436 191.334 204.171 190.259 203.093C189.523 202.459 188.72 201.908 187.866 201.448L185.77 200.127L181.2 197.43L172.061 192.037C170.34 191.04 168.297 194.033 170.125 195.138Z" fill="#7C7C7C"/>
<path d="M176.443 185.782L185.824 190.77L190.393 193.17C191.981 194.122 193.666 194.899 195.42 195.489C196.791 195.839 198.458 193.682 197.221 192.631C195.74 191.542 194.133 190.637 192.436 189.934L187.867 187.588L178.351 182.762C176.604 181.872 174.534 184.865 176.443 185.863V185.782Z" fill="#7C7C7C"/>
<path d="M179.533 179.931L189.99 181.98L195.205 182.978C196.967 183.406 198.768 183.659 200.581 183.733C201.925 183.733 203.269 181.306 201.656 180.605C199.985 180.011 198.254 179.604 196.495 179.391L191.119 178.448L180.609 176.56C178.673 176.21 177.275 179.499 179.479 179.931H179.533Z" fill="#7C7C7C"/>
<path d="M1.96231 293.639C5.59115 292.533 9.21999 291.455 12.7144 290.295C16.366 289.303 19.9562 288.097 23.4665 286.682C23.8516 286.547 24.1852 286.296 24.4212 285.963C24.6573 285.629 24.784 285.23 24.7837 284.821C24.7813 284.639 24.7406 284.46 24.6642 284.294C24.5879 284.129 24.4777 283.981 24.3407 283.862C24.2037 283.742 24.0429 283.653 23.8692 283.6C23.6954 283.547 23.5124 283.531 23.3322 283.554C19.5644 284.43 15.8563 285.547 12.2306 286.898C8.548 288.084 4.89218 289.324 1.20958 290.565C-0.698919 291.185 -0.456937 294.313 1.77413 293.639H1.96231Z" fill="#7C7C7C"/>
<path d="M6.93462 272.903C10.6979 273.281 14.4611 273.685 18.2244 274.009C21.9953 274.493 25.793 274.736 29.5947 274.737C31.1806 274.737 32.1483 272.04 30.2667 271.609C28.4074 271.294 26.5318 271.087 24.6488 270.989L19.2728 270.584C15.5364 270.315 11.8001 270.126 8.06371 269.91C7.64624 269.872 7.22776 269.973 6.8731 270.197C6.51844 270.421 6.24722 270.756 6.10134 271.151C6.0305 271.327 5.99932 271.517 6.00979 271.706C6.02026 271.896 6.07224 272.081 6.16204 272.248C6.25184 272.415 6.37725 272.561 6.52938 272.674C6.68151 272.787 6.8566 272.866 7.04225 272.903H6.93462Z" fill="#7C7C7C"/>
<path d="M19.2466 257.048C24.6226 261.281 29.9987 265.515 35.7511 269.452C37.122 270.395 39.3262 267.78 37.9284 266.755C32.5523 262.522 26.8805 258.666 21.2357 254.621C19.9992 253.759 18.0101 256.158 19.2466 257.129V257.048Z" fill="#7C7C7C"/>
<path d="M35.7238 246.127C36.7452 249.12 37.8204 252.086 38.8956 255.052C39.8529 258.035 41.0206 260.945 42.39 263.762C43.1964 265.272 45.5619 263.762 45.078 262.413C44.2255 259.304 43.1566 256.259 41.8793 253.3C40.7503 250.307 39.5945 247.341 38.3849 244.401C38.0623 243.619 36.9602 243.62 36.3419 243.997C35.99 244.21 35.7226 244.538 35.5853 244.927C35.448 245.315 35.4495 245.74 35.5894 246.127H35.7238Z" fill="#7C7C7C"/>
<path d="M55.9645 244.645C55.6579 250.419 54.6836 256.137 53.0613 261.686C52.4162 263.951 55.5611 264.193 56.1794 262.252C58.0102 256.473 58.9174 250.439 58.8674 244.375C58.8674 242.353 55.9913 242.892 55.8837 244.645H55.9645Z" fill="#7C7C7C"/>
<path d="M48.6804 292.991C50.5351 295.688 52.4436 298.384 54.379 301.08C55.3467 302.456 56.3681 303.777 57.3626 305.179C58.298 306.541 59.3123 307.846 60.4001 309.089C61.556 310.302 63.8139 308.388 63.0882 306.986C62.2006 305.547 61.2313 304.16 60.185 302.833L57.2283 298.842C55.2391 296.146 53.25 293.584 51.1533 291.023C50.1856 289.836 47.9009 291.724 48.7342 292.964L48.6804 292.991Z" fill="#7C7C7C"/>
<path d="M59.0831 289.27C60.911 291.589 62.7389 293.908 64.6205 296.2L67.3085 299.516C68.2333 300.716 69.2392 301.852 70.3191 302.914C70.5878 303.147 70.9313 303.275 71.2867 303.275C71.6422 303.275 71.9858 303.147 72.2546 302.914C72.5524 302.707 72.7707 302.405 72.8734 302.056C72.9761 301.708 72.9568 301.335 72.8189 300.999C71.9911 299.745 71.0937 298.539 70.1309 297.386C69.1632 296.2 68.1687 295.04 67.201 293.881C65.2657 291.589 63.2765 289.351 61.3143 287.086C60.1853 285.764 58.0348 287.976 59.11 289.324L59.0831 289.27Z" fill="#7C7C7C"/>
<path d="M66.717 280.642C68.8943 282.853 71.0715 285.091 73.2757 287.275C75.4386 289.518 77.7369 291.625 80.1572 293.585C81.5281 294.636 83.4902 292.722 82.3612 291.374C80.3188 289.024 78.128 286.808 75.8024 284.74C73.5445 282.583 71.2328 280.507 68.948 278.404C67.6577 277.244 65.5074 279.402 66.717 280.642Z" fill="#7C7C7C"/>
<path d="M84.2695 260.797C84.3487 260.975 84.4799 261.125 84.6458 261.228L84.8609 261.363H85.0489C85.4253 261.659 85.8286 261.929 86.2049 262.172L86.5811 262.414C86.7962 262.576 86.5811 262.414 86.5811 262.414L87.065 262.765L88.0595 263.412L90.2637 264.841C93.2743 266.783 96.3387 268.697 99.4031 270.557C100.129 270.989 100.908 271.312 101.634 271.744C103.139 272.688 104.994 269.991 103.354 269.048C104 269.452 103.354 269.048 103.193 268.913C103.032 268.778 102.252 268.158 101.742 267.834L97.7096 265.138C94.6721 263.223 91.6347 261.282 88.5166 259.529C87.7506 259.017 86.9301 258.592 86.0704 258.262C84.7264 257.83 83.3824 259.88 84.4307 260.958L84.2695 260.797Z" fill="#7C7C7C"/>
<path d="M91.1777 251.224C91.1777 251.359 91.1777 251.224 91.1777 251.224C91.2498 251.4 91.3837 251.544 91.5541 251.628L91.769 251.79L91.9572 251.925L93.113 252.734L93.4894 252.976C93.7044 253.138 93.4894 252.976 93.4894 252.976L93.9732 253.327L94.9678 253.947L97.172 255.403C100.183 257.345 103.247 259.259 106.311 261.12C107.037 261.551 107.844 261.875 108.542 262.306C110.048 263.25 111.902 260.553 110.263 259.61C110.908 260.014 110.263 259.61 110.101 259.61C109.94 259.61 109.161 258.855 108.65 258.531L104.618 255.835C101.58 253.92 98.543 251.979 95.4249 250.226C94.6588 249.714 93.8383 249.289 92.9787 248.959C92.6403 248.885 92.2876 248.919 91.9693 249.056C91.6511 249.193 91.3831 249.426 91.2028 249.722C91.0225 250.019 90.9387 250.364 90.9631 250.71C90.9875 251.057 91.1189 251.387 91.339 251.655L91.1777 251.224Z" fill="#7C7C7C"/>
<path d="M98.0859 241.678C98.1742 241.844 98.3039 241.983 98.4623 242.083L98.6772 242.245H98.8654L100.021 243.054L100.398 243.296C100.613 243.458 100.398 243.296 100.398 243.296L100.881 243.647C101.204 243.89 101.527 244.078 101.876 244.294C102.225 244.51 103.328 245.265 104.08 245.723C107.091 247.691 110.155 249.579 113.22 251.466C113.945 251.898 114.752 252.194 115.45 252.653C116.956 253.596 118.811 250.873 117.171 249.956C117.816 250.334 117.171 249.956 117.01 249.822C116.848 249.687 116.069 249.066 115.558 248.743L111.526 246.047C108.489 244.105 105.451 242.191 102.333 240.438C101.567 239.926 100.747 239.501 99.8869 239.171C99.5485 239.097 99.1958 239.131 98.8775 239.268C98.5593 239.405 98.2913 239.638 98.111 239.934C97.9307 240.231 97.8469 240.576 97.8713 240.922C97.8957 241.269 98.0271 241.599 98.2472 241.867L98.0859 241.678Z" fill="#7C7C7C"/>
<path d="M104.994 232.134C105.073 232.312 105.204 232.462 105.37 232.565L105.585 232.727H105.774L106.929 233.563L107.306 233.805C107.521 233.94 107.306 233.805 107.306 233.805L107.79 234.156L108.784 234.803L110.988 236.232C113.999 238.174 117.063 240.088 120.128 241.948C120.854 242.38 121.66 242.703 122.359 243.162C123.864 244.079 125.719 241.382 124.079 240.465C124.724 240.87 124.079 240.465 123.918 240.465C123.757 240.465 122.977 239.737 122.466 239.387L118.434 236.69C115.397 234.776 112.359 232.835 109.268 231.082C108.484 230.585 107.656 230.161 106.795 229.815C106.461 229.757 106.117 229.801 105.808 229.942C105.499 230.083 105.239 230.314 105.062 230.604C104.886 230.895 104.8 231.232 104.816 231.572C104.833 231.912 104.951 232.239 105.155 232.511L104.994 232.134Z" fill="#7C7C7C"/>
<path d="M111.902 222.561C111.974 222.737 112.108 222.881 112.279 222.965C112.338 223.034 112.411 223.089 112.494 223.127L112.682 223.262L113.838 224.071L114.214 224.313C114.456 224.475 114.214 224.313 114.214 224.313L114.698 224.664L115.692 225.311L117.897 226.74C120.934 228.682 123.971 230.596 127.036 232.457C127.762 232.888 128.568 233.212 129.267 233.643C130.772 234.587 132.627 231.89 130.987 230.947C131.632 231.351 130.987 230.947 130.826 230.947C130.665 230.947 129.885 230.191 129.375 229.868L125.342 227.172C122.332 225.257 119.267 223.316 116.176 221.563C115.398 221.056 114.569 220.631 113.703 220.296C113.365 220.222 113.012 220.256 112.694 220.393C112.376 220.53 112.108 220.763 111.927 221.059C111.747 221.356 111.663 221.701 111.688 222.047C111.712 222.394 111.844 222.724 112.064 222.992L111.902 222.561Z" fill="#7C7C7C"/>
<path d="M118.811 213.016C118.892 213.186 119.024 213.328 119.188 213.42L119.403 213.582H119.591L120.774 214.391L121.123 214.634C121.365 214.796 121.123 214.634 121.123 214.634L121.607 214.957C121.93 215.2 122.279 215.389 122.602 215.604L124.806 217.034C127.843 219.002 130.881 220.916 133.945 222.777C134.671 223.208 135.477 223.505 136.176 223.963C137.681 224.907 139.536 222.211 137.923 221.267C138.542 221.671 137.923 221.267 137.735 221.132C137.547 220.997 136.794 220.377 136.284 220.054L132.251 217.357C129.241 215.443 126.177 213.501 123.085 211.749C122.31 211.236 121.481 210.811 120.612 210.481C120.274 210.408 119.921 210.442 119.603 210.578C119.285 210.715 119.017 210.948 118.837 211.244C118.656 211.541 118.573 211.886 118.597 212.233C118.621 212.579 118.753 212.91 118.973 213.178L118.811 213.016Z" fill="#7C7C7C"/>
<path d="M125.719 203.47C125.798 203.649 125.929 203.799 126.095 203.902L126.31 204.063H126.498L127.681 204.872L128.031 205.115C128.273 205.25 128.031 205.115 128.031 205.115L128.514 205.465L129.509 206.113L131.713 207.542C134.751 209.483 137.788 211.398 140.852 213.258C141.578 213.716 142.385 214.013 143.084 214.471C144.589 215.415 146.444 212.692 144.831 211.775C145.449 212.18 144.831 211.775 144.643 211.775C144.454 211.775 143.702 211.047 143.191 210.696L139.159 208C136.148 206.086 133.084 204.144 129.993 202.392C129.206 201.9 128.378 201.476 127.52 201.124C127.185 201.066 126.841 201.111 126.532 201.252C126.223 201.392 125.964 201.623 125.787 201.914C125.61 202.204 125.524 202.542 125.541 202.882C125.558 203.222 125.676 203.549 125.88 203.821L125.719 203.47Z" fill="#7C7C7C"/>
<path d="M132.628 193.925C132.707 194.104 132.838 194.254 133.004 194.357H133.219L133.407 194.492C133.784 194.786 134.179 195.056 134.59 195.301L134.939 195.543C135.181 195.705 134.939 195.543 134.939 195.543L135.396 195.894L136.391 196.541L138.595 197.97C141.633 199.911 144.67 201.826 147.761 203.686C148.46 204.118 149.267 204.441 149.965 204.873C151.471 205.817 153.326 203.12 151.713 202.176C152.331 202.581 151.713 202.176 151.525 202.176C151.336 202.176 150.584 201.421 150.073 201.098L146.041 198.401C143.03 196.487 139.993 194.545 136.875 192.793C136.099 192.28 135.27 191.856 134.402 191.526C133.058 191.094 131.848 193.143 132.762 194.222L132.628 193.925Z" fill="#7C7C7C"/>
<path d="M140.153 184.622C140.727 185.114 141.349 185.548 142.008 185.917L142.384 186.132H142.519C142.25 185.971 142.707 186.294 142.815 186.348L143.809 186.941L146.013 188.289C149.132 190.177 152.25 192.011 155.422 193.682C156.147 194.087 156.954 194.383 157.679 194.788C159.212 195.678 161.066 192.981 159.4 192.092C160.045 192.469 159.4 192.092 159.4 192.092L159.077 191.876L158.862 191.714C158.862 191.714 159.158 191.93 158.862 191.714L157.948 191.04L153.862 188.559C150.771 186.726 147.626 184.865 144.427 183.166C143.65 182.68 142.82 182.282 141.954 181.98C140.637 181.603 139.266 183.571 140.315 184.676L140.153 184.622Z" fill="#7C7C7C"/>
<path d="M145.638 177.423C145.772 177.423 145.772 177.423 145.638 177.423C145.503 177.423 145.638 177.423 145.906 177.585H146.148C146.606 177.771 147.072 177.933 147.546 178.07L152.277 179.634C155.718 180.713 159.185 181.764 162.653 182.762C163.459 183.005 164.32 183.113 165.126 183.355C166.819 183.868 168.083 180.929 166.147 180.335C166.846 180.551 166.147 180.335 165.932 180.335C165.717 180.335 164.884 179.904 164.32 179.715C162.814 179.23 161.336 178.718 159.804 178.259C156.417 177.181 152.949 176.129 149.508 175.239L147.707 174.754H147.224H147.035C145.611 174.754 144.106 176.614 145.665 177.45L145.638 177.423Z" fill="#7C7C7C"/>
<path d="M75.8026 272.04V271.906C75.8747 272.082 76.0085 272.226 76.1789 272.31L76.394 272.472H76.5822L77.738 273.281L78.1144 273.523C78.3294 273.685 78.1144 273.523 78.1144 273.523L78.5982 273.874L79.5928 274.494L81.797 275.95C84.8076 277.892 87.8718 279.806 90.9362 281.666C91.6619 282.098 92.4684 282.421 93.1673 282.853C94.6726 283.797 96.5274 281.1 94.8877 280.157C95.5328 280.561 94.8877 280.157 94.7264 280.157C94.5651 280.157 93.7855 279.401 93.2748 279.078L89.2427 276.381C86.2052 274.467 83.1678 272.526 80.0497 270.773C79.2837 270.261 78.4633 269.836 77.6037 269.506C77.2653 269.432 76.9124 269.466 76.5942 269.603C76.2759 269.74 76.0081 269.972 75.8278 270.269C75.6475 270.565 75.5637 270.911 75.5881 271.257C75.6125 271.604 75.7438 271.934 75.9638 272.202L75.8026 272.04Z" fill="#7C7C7C"/>
<path d="M49.1644 260.553C31.0202 261.308 17.6607 278.915 17.9026 296.55C18.1446 313.483 31.8803 326.723 48.2504 328.556C76.9317 331.765 96.635 304.99 112.333 284.901C129.187 263.33 144.993 240.95 160.96 218.705C167.492 209.645 173.889 200.45 180.233 191.255C182.111 188.669 183.826 185.968 185.367 183.166C186.173 181.602 186.818 180.065 187.49 178.474C190.635 171.113 187.49 179.148 186.469 180.497C195.608 167.015 175.878 158.575 167.518 170.871C173.486 162.08 170.932 166.907 168.056 169.711C166.095 171.721 164.297 173.885 162.68 176.182C158.702 181.575 154.992 187.4 151.121 192.954C139.402 209.915 127.816 226.902 115.72 243.593C104.807 258.612 93.9738 273.873 81.8508 287.948C75.7221 295.094 68.2495 304.127 58.4651 305.286C55.0549 305.852 51.5536 305.287 48.4926 303.676C45.4316 302.066 42.9779 299.497 41.5036 296.361C37.7135 287.355 45.1056 281.234 52.0676 277.136C59.0296 273.037 59.0833 260.068 49.057 260.499L49.1644 260.553Z" fill="#3B9278"/>
<path d="M3.70921 35.1612C6.39724 37.8576 9.08527 40.2845 11.7733 42.7921L15.7246 46.4592C17.0902 47.8264 18.5947 49.0464 20.2136 50.0993C21.477 50.8273 23.52 48.9669 22.6598 47.6726C21.5346 46.1671 20.2454 44.7923 18.8159 43.574L14.757 39.826C12.0689 37.3183 9.3809 34.8646 6.50471 32.4109C4.91877 31.0087 2.23074 33.6782 3.81668 35.1073L3.70921 35.1612Z" fill="#7C7C7C"/>
<path d="M12.2572 21.544C14.9452 24.9145 17.6332 28.3388 20.4556 31.6823L24.5146 36.536C25.9183 38.2633 27.4169 39.9105 29.0035 41.4703C30.2132 42.6028 32.6324 40.7693 31.6916 39.3402C29.16 35.7186 26.4037 32.2604 23.4393 28.9859C20.59 25.6154 17.6601 22.3259 14.757 19.0094C13.4668 17.5263 11.0207 20.007 12.2572 21.544Z" fill="#7C7C7C"/>
<path d="M24.2998 10.0845C25.7513 13.6707 27.2297 17.2299 28.7619 20.8701L31.0468 26.0471C31.823 27.9023 32.721 29.7039 33.7348 31.4399C34.6487 32.9499 37.2024 31.6287 36.7454 29.9839C35.5159 26.2907 34.0339 22.687 32.3101 19.1983C30.751 15.6121 29.1382 12.0528 27.4448 8.41271C26.5577 6.52523 23.7353 8.41258 24.4342 10.3001L24.2998 10.0845Z" fill="#7C7C7C"/>
<path d="M42.8469 1.64463C42.8469 4.9612 42.6587 8.27778 42.6318 11.5944C42.4793 14.9115 42.5421 18.2351 42.82 21.5441C42.8576 21.7238 42.9313 21.8938 43.0367 22.0439C43.1422 22.194 43.2771 22.3209 43.4331 22.4168C43.5892 22.5128 43.763 22.5757 43.9442 22.6018C44.1253 22.6279 44.3099 22.6167 44.4866 22.5687C44.8832 22.4742 45.242 22.2611 45.5156 21.9578C45.7891 21.6546 45.9646 21.2753 46.0188 20.87C46.2875 17.6235 46.3413 14.3627 46.18 11.109C46.18 7.84638 46.18 4.61057 45.965 1.37489C45.965 -0.755269 42.9276 -0.215889 42.8469 1.64463Z" fill="#7C7C7C"/>
<path d="M65.6414 4.17916C63.948 7.33395 62.2814 10.4888 60.6148 13.6436C58.8718 16.7767 57.2926 19.9986 55.8839 23.2966C55.8105 23.4658 55.7726 23.6484 55.7725 23.8329C55.7723 24.0175 55.81 24.2001 55.883 24.3694C55.9561 24.5388 56.0632 24.6914 56.1974 24.8176C56.3316 24.9438 56.4901 25.041 56.6633 25.1033C57.0548 25.2152 57.4725 25.1908 57.8484 25.0341C58.2242 24.8774 58.5361 24.5977 58.7332 24.2404C60.5713 21.2585 62.2492 18.1801 63.7598 15.0186C65.3457 11.8908 66.9317 8.76298 68.4907 5.63516C68.7036 5.27548 68.7692 4.84706 68.674 4.43985C68.5788 4.03264 68.3301 3.6783 67.98 3.45108C67.5401 3.28502 67.0558 3.28063 66.613 3.43857C66.1702 3.59651 65.7973 3.90661 65.5607 4.31394L65.6414 4.17916Z" fill="#7C7C7C"/>
<path d="M69.5389 30.4152C72.2269 27.9345 75.1838 25.4538 77.9524 22.9461C80.8402 20.5552 83.5365 17.9408 86.0165 15.1267C86.286 14.8841 86.4628 14.5548 86.5168 14.1957C86.5707 13.8365 86.4984 13.4697 86.3122 13.1582C86.0902 12.8822 85.7706 12.7029 85.42 12.6577C85.0694 12.6125 84.7148 12.7049 84.4305 12.9156C81.3424 15.2178 78.4477 17.77 75.7751 20.5465C73.0871 23.2429 70.3991 25.9393 67.5498 28.4469C67.394 28.5692 67.2659 28.7233 67.1739 28.899C67.0819 29.0747 67.0282 29.2679 67.0162 29.466C67.0043 29.664 67.0342 29.8624 67.1043 30.0479C67.1745 30.2334 67.2831 30.402 67.423 30.5423C67.5628 30.6826 67.7308 30.7915 67.9158 30.8619C68.1008 30.9322 68.2985 30.9624 68.4959 30.9504C68.6934 30.9384 68.8862 30.8845 69.0613 30.7923C69.2364 30.7 69.39 30.5715 69.512 30.4152H69.5389Z" fill="#7C7C7C"/>
<path d="M84.6461 37.6691L93.2209 31.4134L97.5217 28.2856L99.6453 26.6677C100.418 26.1342 101.146 25.5392 101.823 24.8881C102.091 24.641 102.278 24.3178 102.36 23.9616C102.442 23.6053 102.414 23.2327 102.28 22.8928C102.105 22.5953 101.831 22.3695 101.506 22.2559C101.181 22.1423 100.826 22.1482 100.505 22.2725C98.9093 23.1213 97.405 24.1333 96.0164 25.2925L91.7425 28.4474L83.2214 34.8379C82.8243 35.0698 82.5224 35.4358 82.3697 35.8706C82.217 36.3053 82.2236 36.7804 82.3881 37.2107C82.4995 37.3973 82.6484 37.5583 82.8255 37.6839C83.0025 37.8094 83.2038 37.8966 83.4163 37.9398C83.6288 37.9829 83.8478 37.9811 84.0596 37.9345C84.2713 37.8879 84.4711 37.7975 84.6461 37.6691Z" fill="#7C7C7C"/>
<path d="M94.6182 48.8321L103.22 42.5765L107.494 39.4486L109.617 37.8308C110.403 37.3044 111.141 36.7089 111.822 36.0512C112.079 35.7969 112.257 35.4724 112.334 35.1179C112.41 34.7634 112.382 34.3942 112.252 34.0557C112.077 33.7582 111.803 33.5326 111.478 33.419C111.153 33.3054 110.799 33.3113 110.478 33.4356C108.882 34.2844 107.377 35.2964 105.989 36.4556L101.715 39.6103L93.1937 46.001C92.8005 46.2367 92.5019 46.6029 92.3497 47.0363C92.1975 47.4697 92.2014 47.9427 92.3604 48.3736C92.4746 48.5571 92.6248 48.7153 92.802 48.8386C92.9792 48.9618 93.1797 49.0475 93.391 49.0904C93.6024 49.1333 93.8202 49.1325 94.0312 49.0881C94.2422 49.0437 94.4419 48.9566 94.6182 48.8321Z" fill="#7C7C7C"/>
<path d="M104.591 60.0755L113.193 53.8468C114.617 52.7952 116.069 51.7706 117.493 50.692L119.617 49.1011C120.389 48.5676 121.118 47.9726 121.794 47.3215C122.058 47.0712 122.24 46.7466 122.317 46.3905C122.394 46.0344 122.362 45.6635 122.224 45.3262C122.059 45.0266 121.79 44.7981 121.468 44.6839C121.146 44.5696 120.794 44.5774 120.477 44.7059C118.881 45.5547 117.377 46.5667 115.988 47.7259C114.537 48.7505 113.139 49.8292 111.714 50.8808L103.166 57.2713C102.773 57.507 102.475 57.8732 102.322 58.3066C102.17 58.74 102.174 59.2132 102.333 59.6441C102.447 59.8285 102.597 59.9871 102.775 60.11C102.953 60.2329 103.155 60.3173 103.367 60.3579C103.58 60.3984 103.798 60.3943 104.009 60.3457C104.219 60.2971 104.418 60.205 104.591 60.0755Z" fill="#7C7C7C"/>
<path d="M113.435 72.1554L122.037 65.9268L126.311 62.772C127.037 62.2597 127.735 61.7203 128.434 61.1811C129.21 60.6411 129.947 60.0464 130.638 59.4015C130.896 59.1472 131.074 58.8229 131.151 58.4684C131.227 58.1139 131.198 57.7446 131.068 57.4062C130.898 57.1045 130.624 56.8753 130.298 56.7612C129.971 56.6471 129.615 56.656 129.294 56.7861C127.698 57.6349 126.194 58.6469 124.805 59.806L120.531 62.9608L112.01 69.3512C111.613 69.5831 111.311 69.9492 111.159 70.3839C111.006 70.8187 111.013 71.2937 111.177 71.7241C111.291 71.9085 111.441 72.0673 111.619 72.1902C111.798 72.3131 111.999 72.3974 112.212 72.438C112.424 72.4786 112.642 72.4743 112.853 72.4257C113.064 72.377 113.262 72.285 113.435 72.1554Z" fill="#7C7C7C"/>
<path d="M122.251 84.3431L130.853 78.1144C132.278 77.0628 133.729 76.0382 135.127 74.9597C135.852 74.4474 136.551 73.908 137.25 73.3687C138.036 72.8423 138.774 72.2469 139.455 71.5892C139.712 71.3348 139.89 71.0104 139.967 70.6559C140.043 70.3014 140.015 69.9323 139.885 69.5939C139.714 69.2922 139.44 69.0628 139.114 68.9487C138.787 68.8346 138.431 68.8435 138.111 68.9736C136.514 69.8224 135.01 70.8344 133.621 71.9935L129.348 75.1484L120.826 81.6467C120.433 81.8825 120.135 82.2488 119.983 82.6822C119.83 83.1156 119.834 83.5887 119.993 84.0195C120.107 84.204 120.258 84.3627 120.436 84.4856C120.614 84.6085 120.815 84.6929 121.028 84.7335C121.24 84.774 121.458 84.7698 121.669 84.7211C121.88 84.6725 122.078 84.5805 122.251 84.4509V84.3431Z" fill="#7C7C7C"/>
<path d="M131.068 96.5316L139.67 90.3029C141.095 89.2513 142.546 88.2266 143.971 87.148L146.094 85.5572C146.867 85.0238 147.595 84.4285 148.272 83.7775C148.536 83.5272 148.718 83.2028 148.795 82.8467C148.871 82.4906 148.839 82.1195 148.702 81.7822C148.536 81.4826 148.267 81.2541 147.945 81.1399C147.623 81.0256 147.271 81.0335 146.955 81.1621C145.358 82.0108 143.854 83.0229 142.466 84.182L138.192 87.3368L129.805 93.7272C129.403 93.9549 129.096 94.3193 128.938 94.7543C128.78 95.1894 128.783 95.6667 128.945 96.1001C129.058 96.2845 129.209 96.4433 129.387 96.5662C129.565 96.6891 129.767 96.7734 129.979 96.814C130.191 96.8546 130.41 96.8505 130.62 96.8018C130.831 96.7532 131.029 96.6612 131.203 96.5316H131.068Z" fill="#7C7C7C"/>
<path d="M139.912 108.611L148.513 102.382L152.787 99.2542L154.911 97.6363C155.687 97.0963 156.423 96.5017 157.115 95.8568C157.373 95.6024 157.551 95.2779 157.627 94.9234C157.704 94.5689 157.675 94.1999 157.545 93.8614C157.375 93.5598 157.101 93.3304 156.774 93.2163C156.448 93.1022 156.091 93.1111 155.771 93.2412C154.175 94.0899 152.671 95.102 151.282 96.2611L147.008 99.416L138.487 105.914C138.09 106.146 137.788 106.512 137.635 106.947C137.483 107.382 137.489 107.857 137.654 108.287C137.767 108.472 137.918 108.63 138.096 108.753C138.274 108.876 138.476 108.96 138.688 109.001C138.9 109.042 139.119 109.037 139.329 108.989C139.54 108.94 139.738 108.848 139.912 108.718V108.611Z" fill="#7C7C7C"/>
<path d="M148.621 120.907L157.223 114.678C158.648 113.626 160.099 112.602 161.497 111.55L163.62 109.932C164.406 109.406 165.144 108.81 165.825 108.153C166.082 107.898 166.26 107.574 166.337 107.219C166.413 106.865 166.385 106.496 166.255 106.157C166.08 105.86 165.806 105.634 165.481 105.521C165.156 105.407 164.802 105.413 164.481 105.537C162.885 106.386 161.38 107.398 159.992 108.557L155.718 111.712L147.197 118.103C146.803 118.338 146.505 118.704 146.353 119.138C146.201 119.571 146.204 120.044 146.363 120.475C146.477 120.66 146.628 120.818 146.806 120.941C146.984 121.064 147.185 121.149 147.398 121.189C147.61 121.23 147.828 121.226 148.039 121.177C148.25 121.128 148.448 121.036 148.621 120.907Z" fill="#7C7C7C"/>
<path d="M157.546 133.094L166.147 126.865L170.448 123.738L172.572 122.12C173.344 121.586 174.072 120.991 174.749 120.34C175.013 120.09 175.195 119.765 175.272 119.409C175.349 119.053 175.316 118.682 175.179 118.345C175.009 118.049 174.74 117.825 174.42 117.711C174.099 117.597 173.749 117.602 173.432 117.725C171.836 118.573 170.331 119.585 168.943 120.745L164.749 123.899L156.148 130.182C155.746 130.41 155.438 130.774 155.281 131.209C155.123 131.644 155.125 132.121 155.288 132.555C155.401 132.739 155.552 132.898 155.73 133.021C155.908 133.144 156.11 133.228 156.322 133.269C156.534 133.309 156.753 133.305 156.963 133.256C157.174 133.208 157.372 133.116 157.546 132.986V133.094Z" fill="#7C7C7C"/>
<path d="M166.389 144.176L174.991 137.948L179.265 134.793C179.991 134.281 180.689 133.741 181.388 133.175C182.176 132.65 182.913 132.055 183.593 131.395C183.851 131.147 184.03 130.828 184.107 130.477C184.183 130.126 184.154 129.761 184.023 129.427C183.857 129.121 183.583 128.888 183.255 128.773C182.927 128.659 182.568 128.671 182.249 128.807C180.659 129.656 179.155 130.658 177.76 131.8L173.486 134.982L164.965 141.372C164.567 141.604 164.266 141.97 164.113 142.405C163.96 142.84 163.967 143.315 164.131 143.745C164.245 143.929 164.395 144.088 164.574 144.211C164.752 144.334 164.953 144.418 165.166 144.459C165.378 144.499 165.596 144.495 165.807 144.447C166.018 144.398 166.216 144.306 166.389 144.176Z" fill="#7C7C7C"/>
<path d="M172.626 155.016L181.792 149.623L186.335 146.927C187.95 146.082 189.472 145.069 190.877 143.907C192.06 142.828 191.227 140.725 189.56 141.21C187.897 141.947 186.312 142.851 184.829 143.907L180.287 146.603L171.228 152.184C170.826 152.412 170.518 152.776 170.361 153.212C170.203 153.647 170.205 154.124 170.368 154.557C170.481 154.742 170.632 154.9 170.81 155.023C170.988 155.146 171.19 155.231 171.402 155.271C171.614 155.312 171.833 155.308 172.043 155.259C172.254 155.21 172.452 155.118 172.626 154.989V155.016Z" fill="#7C7C7C"/>
<path d="M179.049 165.235L188.538 160.409L193.135 158.063C194.833 157.311 196.461 156.408 198 155.366C198.356 155.188 198.628 154.874 198.754 154.495C198.88 154.115 198.85 153.702 198.672 153.344C198.494 152.986 198.181 152.715 197.803 152.588C197.425 152.462 197.012 152.491 196.656 152.67C195.723 152.976 194.823 153.373 193.968 153.856L191.495 155.097L186.952 157.469L177.652 162.539C177.25 162.766 176.942 163.13 176.785 163.566C176.627 164.001 176.629 164.478 176.791 164.911C176.91 165.09 177.063 165.243 177.242 165.361C177.42 165.48 177.62 165.561 177.83 165.601C178.041 165.642 178.257 165.639 178.466 165.595C178.675 165.551 178.873 165.465 179.049 165.343V165.235Z" fill="#7C7C7C"/>
<path d="M180.877 172.947L191.334 170.979L196.576 169.981C198.403 169.771 200.205 169.374 201.952 168.795C203.511 168.121 203.941 165.667 201.952 165.586C201.046 165.627 200.146 165.754 199.264 165.963L196.576 166.449L191.549 167.446L181.281 169.523C180.81 169.584 180.373 169.8 180.038 170.136C179.702 170.473 179.487 170.911 179.426 171.383C179.405 171.594 179.431 171.806 179.502 172.006C179.573 172.205 179.687 172.386 179.836 172.536C179.985 172.685 180.166 172.8 180.364 172.871C180.563 172.942 180.775 172.968 180.985 172.947H180.877Z" fill="#7C7C7C"/>
<path d="M0.779517 56.3545C4.43524 57.5949 8.091 58.8352 11.7467 60.0216C15.3659 61.406 19.0751 62.5411 22.8483 63.4191C24.3805 63.6887 26.047 61.181 24.3267 60.3451C22.494 59.5483 20.6076 58.8816 18.6817 58.3498L13.3057 56.6781C9.59618 55.4917 5.88685 54.3861 2.20425 53.2536C0.618313 52.7952 -1.02152 55.7883 0.725703 56.3545H0.779517Z" fill="#7C7C7C"/>
<path d="M7.31177 77.0906C11.0213 76.8749 14.7308 76.6861 18.4403 76.4165C22.1762 76.3063 25.9017 75.964 29.5955 75.3918C29.9926 75.3378 30.3642 75.1647 30.6616 74.8953C30.9589 74.6259 31.1684 74.2727 31.2622 73.8819C31.2622 73.2347 31.0739 72.291 30.2675 72.2641C26.4839 72.2423 22.7032 72.4766 18.951 72.9652C15.1609 73.2618 11.3708 73.6662 7.55377 74.0706C5.80655 74.2324 5.21511 77.1984 7.31177 77.0906Z" fill="#7C7C7C"/>
<path d="M21.0202 92.4329C26.5307 88.5501 32.041 84.6673 37.3633 80.5419C37.7474 80.3115 38.0387 79.9529 38.1861 79.5291C38.3335 79.1052 38.3276 78.6429 38.1697 78.2228C38.0589 78.0461 37.913 77.8944 37.7408 77.7771C37.5687 77.6599 37.3741 77.5798 37.1696 77.5418C36.965 77.5038 36.7546 77.5088 36.552 77.5565C36.3494 77.6041 36.1589 77.6933 35.9924 77.8185C30.455 81.7013 25.1059 85.9077 19.8642 89.9793C19.5203 90.1861 19.2579 90.5054 19.1208 90.8834C18.9838 91.2615 18.9805 91.6752 19.1117 92.0554C19.2144 92.2148 19.3485 92.3517 19.5056 92.4576C19.6627 92.5635 19.8395 92.6364 20.0255 92.6717C20.2115 92.707 20.4027 92.704 20.5876 92.663C20.7724 92.6219 20.947 92.5437 21.1008 92.4329H21.0202Z" fill="#7C7C7C"/>
<path d="M38.4114 101.87C39.621 98.9578 40.75 96.0186 41.8789 93.0796C43.0985 90.1864 44.1487 87.2244 45.024 84.2085C45.1417 83.8509 45.1129 83.461 44.944 83.1247C44.7751 82.7885 44.48 82.5332 44.1235 82.4153C43.767 82.2973 43.3785 82.3262 43.0433 82.4956C42.7081 82.665 42.4536 82.961 42.336 83.3186C40.9741 86.2532 39.7716 89.2596 38.734 92.3247C37.6588 95.3177 36.5567 98.3376 35.5352 101.358C35.4642 101.532 35.432 101.72 35.4409 101.908C35.4497 102.096 35.4994 102.28 35.5864 102.447C35.6734 102.614 35.7957 102.76 35.9447 102.874C36.0937 102.989 36.266 103.069 36.4492 103.11C36.8646 103.157 37.2831 103.059 37.6352 102.833C37.9874 102.607 38.2519 102.267 38.3845 101.87H38.4114Z" fill="#7C7C7C"/>
<path d="M58.9485 102.328C58.9976 96.2643 58.0904 90.2307 56.2605 84.4511C55.6153 82.3749 52.4434 83.7232 52.981 85.5837C54.6409 91.2472 55.651 97.0821 55.9916 102.975C55.9916 104.728 58.9216 103.838 58.9485 102.328Z" fill="#7C7C7C"/>
<path d="M50.9385 55.7619C53.0351 53.0655 55.0513 50.3691 57.0942 47.6727C59.1371 44.9763 61.2068 42.4417 62.9002 39.5835C63.1203 39.2802 63.2151 38.9034 63.165 38.5317C63.1149 38.16 62.9239 37.8219 62.6315 37.588C62.3072 37.3933 61.9248 37.3191 61.5515 37.3782C61.1781 37.4374 60.8373 37.6262 60.5886 37.9118C58.4263 40.5016 56.3986 43.2016 54.5136 46.001C52.5782 48.6974 50.6697 51.3938 48.815 54.0902C48.6082 54.3727 48.5219 54.7258 48.5748 55.0722C48.6277 55.4186 48.8156 55.7298 49.0972 55.9372C49.3788 56.1446 49.731 56.2312 50.0763 56.1781C50.4216 56.125 50.7317 55.9364 50.9385 55.654V55.7619Z" fill="#7C7C7C"/>
<path d="M61.1255 59.914C63.0878 57.649 65.05 55.3839 66.9585 53.092L69.8347 49.6947C70.876 48.5045 71.8455 47.2529 72.7378 45.9466C72.9463 45.6657 73.0376 45.3145 72.9925 44.9672C72.9473 44.62 72.7691 44.304 72.4958 44.0861C72.1894 43.9012 71.8281 43.8297 71.4747 43.8838C71.1212 43.938 70.7979 44.1145 70.5605 44.3827C69.5139 45.4239 68.5351 46.5317 67.6305 47.6992L64.9425 51.1237C63.0609 53.4156 61.233 55.7345 59.3782 58.0265C58.9213 58.6197 58.5987 59.4825 59.217 60.0757C59.5123 60.3188 59.8901 60.4377 60.2709 60.4075C60.6517 60.3774 61.0062 60.2005 61.2599 59.914H61.1255Z" fill="#7C7C7C"/>
<path d="M68.7594 68.3809C71.0442 66.2777 73.3561 64.2014 75.614 62.0442C77.922 59.9583 80.1201 57.7534 82.1995 55.4382C82.4652 55.2041 82.6385 54.8821 82.6878 54.5309C82.7371 54.1796 82.6593 53.8223 82.4685 53.5237C82.2493 53.2686 81.943 53.1051 81.6097 53.0652C81.2765 53.0253 80.9402 53.1118 80.6674 53.3079C78.1943 55.3528 75.8259 57.5217 73.5711 59.8064C71.3131 62.0174 69.1088 64.2824 66.9047 66.5204C66.6208 66.7748 66.4436 67.1276 66.4087 67.5078C66.3738 67.8881 66.4839 68.2675 66.7166 68.5697C67.0153 68.8095 67.395 68.9236 67.776 68.8884C68.157 68.8532 68.5094 68.6714 68.7594 68.3809Z" fill="#7C7C7C"/>
<path d="M85.6675 88.7659C85.8557 88.7659 85.6675 88.7659 85.6675 88.7659H85.5063C85.7142 88.7441 85.9153 88.6799 86.0976 88.5772H86.3396H86.5545L87.791 87.8491L91.85 85.3954C94.9143 83.5079 97.9788 81.5935 100.989 79.6251C101.5 79.3015 101.984 78.924 102.495 78.5734L102.898 78.2499C103.624 77.6836 103.167 78.0611 102.898 78.2499C103.258 78.045 103.532 77.7169 103.67 77.3256C103.808 76.9344 103.801 76.5063 103.65 76.1198C103.545 75.9556 103.407 75.8148 103.246 75.706C103.084 75.5973 102.902 75.5229 102.71 75.4875C102.519 75.4521 102.322 75.4565 102.133 75.5003C101.943 75.5441 101.764 75.6265 101.608 75.7423C102.333 75.2839 101.742 75.7423 101.608 75.7423L101.258 75.931C100.828 76.1737 100.371 76.3625 99.9679 76.6321C98.5701 77.468 97.2798 78.2769 95.8282 79.1397C92.7907 81.0272 89.7264 82.9416 86.7965 84.9639L85.3181 85.9616C85.0591 86.117 84.816 86.2977 84.5923 86.5009C84.431 86.6627 84.1622 87.2289 84.5923 86.5009C83.5977 87.4985 84.2429 89.386 85.8288 88.8737L85.6675 88.7659Z" fill="#7C7C7C"/>
<path d="M92.5759 98.3104C92.7641 98.3104 92.5759 98.3104 92.5759 98.3104H92.4147C92.6227 98.3109 92.8269 98.255 93.006 98.1487H93.2747H93.4629L94.6994 97.4476L98.7584 94.9669C101.823 93.0795 104.887 91.165 107.898 89.1966C108.408 88.873 108.892 88.5225 109.403 88.145L109.806 87.8484C110.532 87.3091 110.075 87.6866 109.806 87.8484C110.162 87.6395 110.433 87.3112 110.571 86.9213C110.708 86.5315 110.704 86.1054 110.559 85.7183C110.456 85.552 110.32 85.4087 110.159 85.2973C109.998 85.186 109.816 85.1089 109.625 85.071C109.433 85.0331 109.236 85.035 109.045 85.0768C108.854 85.1186 108.674 85.1992 108.516 85.3138C109.242 84.8823 108.677 85.3138 108.516 85.3138L108.166 85.5025L106.876 86.2036L102.737 88.7113C99.6991 90.5987 96.6348 92.5133 93.7049 94.5356L92.2265 95.5332C91.9675 95.6887 91.7244 95.8692 91.5007 96.0724C91.3394 96.2342 91.0706 96.8274 91.5007 96.0724C90.4792 97.097 91.1513 98.9845 92.7103 98.4452L92.5759 98.3104Z" fill="#7C7C7C"/>
<path d="M99.484 107.856C99.6721 107.856 99.484 107.856 99.484 107.856H99.3227C99.5306 107.834 99.7319 107.77 99.9142 107.668H100.183H100.371L101.608 106.966L105.667 104.486C108.758 102.598 111.795 100.684 114.806 98.7425L116.311 97.6639L116.714 97.3673C117.44 96.828 116.983 97.2055 116.714 97.3673C117.07 97.1584 117.341 96.8299 117.479 96.4401C117.616 96.0503 117.612 95.6241 117.467 95.237C117.361 95.0737 117.224 94.9334 117.063 94.8243C116.902 94.7151 116.721 94.6395 116.531 94.6018C116.34 94.5641 116.144 94.5651 115.954 94.6047C115.764 94.6444 115.584 94.7219 115.424 94.8327C116.15 94.4012 115.585 94.8327 115.424 94.8327L115.075 95.0214C114.645 95.2372 114.188 95.4529 113.784 95.6955L109.645 98.2032C106.607 100.118 103.543 102.005 100.613 104.027L99.1347 105.025C98.8928 105.214 98.6239 105.376 98.4089 105.564C98.1938 105.753 97.9788 106.319 98.4089 105.564C97.3874 106.589 98.0595 108.476 99.6185 107.937L99.484 107.856Z" fill="#7C7C7C"/>
<path d="M106.392 117.429C106.58 117.429 106.392 117.429 106.392 117.429H106.23C106.438 117.407 106.64 117.343 106.822 117.24H107.091H107.279L108.515 116.539L112.601 114.085C115.665 112.198 118.703 110.283 121.713 108.315L123.219 107.263L123.622 106.94C124.348 106.4 123.891 106.778 123.622 106.94C123.978 106.731 124.249 106.402 124.386 106.012C124.524 105.623 124.52 105.197 124.375 104.81C124.272 104.646 124.137 104.506 123.977 104.397C123.818 104.289 123.638 104.215 123.449 104.179C123.26 104.144 123.065 104.148 122.877 104.191C122.69 104.235 122.513 104.317 122.359 104.432C123.057 103.974 122.359 104.432 122.359 104.432L122.009 104.621C121.579 104.864 121.122 105.052 120.719 105.322C119.348 106.158 118.031 106.967 116.579 107.83C113.542 109.717 110.477 111.604 107.548 113.654L106.069 114.651C105.81 114.807 105.567 114.987 105.343 115.191C105.182 115.352 104.913 115.919 105.343 115.191C104.322 116.215 104.994 118.103 106.553 117.591L106.392 117.429Z" fill="#7C7C7C"/>
<path d="M113.3 126.973C113.488 126.973 113.3 126.973 113.3 126.973H113.112C113.318 126.961 113.52 126.906 113.703 126.812H113.972H114.16L115.397 126.084L119.483 123.63C122.547 121.742 125.584 119.828 128.595 117.86C129.106 117.536 129.59 117.158 130.1 116.808L130.504 116.511C131.229 115.945 130.772 116.35 130.504 116.511C130.861 116.311 131.135 115.988 131.273 115.601C131.412 115.215 131.405 114.791 131.256 114.408C131.156 114.243 131.022 114.1 130.864 113.989C130.706 113.878 130.526 113.801 130.337 113.763C130.147 113.725 129.952 113.726 129.763 113.768C129.574 113.809 129.396 113.89 129.24 114.004C129.939 113.545 129.24 114.004 129.106 114.004L128.756 114.192L127.466 114.894C126.095 115.729 124.778 116.538 123.327 117.401C120.289 119.289 117.252 121.203 114.295 123.225L112.816 124.223C112.557 124.378 112.314 124.559 112.091 124.762C111.929 124.924 111.66 125.517 112.091 124.762C111.069 125.76 111.741 127.674 113.3 127.135V126.973Z" fill="#7C7C7C"/>
<path d="M120.209 136.519C120.397 136.519 120.209 136.519 120.209 136.519H120.02C120.228 136.519 120.433 136.463 120.612 136.357H120.881H121.069L122.305 135.656L126.391 133.175C129.455 131.288 132.493 129.373 135.504 127.405C136.014 127.081 136.498 126.731 137.009 126.353L137.412 126.057C138.138 125.517 137.681 125.895 137.412 126.057C137.768 125.848 138.039 125.519 138.176 125.13C138.314 124.74 138.31 124.314 138.165 123.927C138.064 123.761 137.931 123.618 137.772 123.507C137.614 123.396 137.435 123.319 137.245 123.281C137.056 123.243 136.86 123.245 136.672 123.286C136.483 123.328 136.305 123.408 136.149 123.522C136.848 123.091 136.283 123.522 136.149 123.522L135.799 123.711C135.369 123.927 134.912 124.142 134.509 124.385L130.369 126.893C127.332 128.78 124.294 130.695 121.338 132.717L119.859 133.715C119.606 133.879 119.364 134.059 119.134 134.254C118.972 134.443 118.703 135.009 119.134 134.254C118.112 135.279 118.784 137.166 120.343 136.627L120.209 136.519Z" fill="#7C7C7C"/>
<path d="M127.117 146.064C127.305 146.064 127.117 146.064 127.117 146.064H126.929C127.137 146.042 127.338 145.978 127.52 145.875L127.789 145.741H127.977C128.407 145.525 128.81 145.282 129.214 145.04L133.299 142.586C136.364 140.698 139.401 138.757 142.412 136.816L143.917 135.764L144.347 135.44C145.073 134.901 144.616 135.279 144.347 135.44C144.703 135.231 144.974 134.903 145.111 134.513C145.249 134.123 145.245 133.697 145.1 133.31C144.902 133.016 144.601 132.809 144.257 132.729C143.913 132.649 143.551 132.702 143.245 132.879H143.111L142.761 133.067C142.331 133.31 141.874 133.499 141.471 133.769C140.1 134.604 138.783 135.413 137.358 136.276C134.294 138.164 131.256 140.051 128.3 142.1L126.821 143.071C126.568 143.245 126.325 143.434 126.095 143.637C125.934 143.799 125.665 144.365 126.095 143.637C125.074 144.662 125.746 146.549 127.305 146.01L127.117 146.064Z" fill="#7C7C7C"/>
<path d="M134.026 155.636C134.214 155.636 134.026 155.636 134.026 155.636H133.837C134.048 155.631 134.254 155.566 134.429 155.447H134.698H134.886L136.122 154.719L140.208 152.266C143.272 150.378 146.31 148.464 149.32 146.495C149.831 146.172 150.315 145.794 150.826 145.444L151.256 145.12C151.982 144.554 151.525 144.931 151.256 145.12C151.62 144.919 151.898 144.592 152.037 144.199C152.175 143.806 152.165 143.376 152.009 142.99C151.909 142.823 151.775 142.68 151.616 142.569C151.456 142.458 151.276 142.382 151.085 142.347C150.894 142.311 150.699 142.316 150.51 142.362C150.322 142.408 150.146 142.493 149.993 142.612C150.691 142.154 150.127 142.612 149.993 142.612L149.643 142.801C149.213 143.044 148.756 143.233 148.353 143.502C146.982 144.338 145.665 145.147 144.24 146.01C141.176 147.897 138.138 149.812 135.181 151.834L133.703 152.832C133.444 152.987 133.201 153.168 132.977 153.371C132.816 153.533 132.547 154.126 132.977 153.371C131.956 154.369 132.628 156.256 134.187 155.744L134.026 155.636Z" fill="#7C7C7C"/>
<path d="M141.713 165.235C141.901 165.235 141.713 165.235 141.713 165.235H141.552C141.76 165.236 141.964 165.18 142.144 165.073H142.412H142.6L143.837 164.372L147.896 161.892C150.96 160.004 154.025 158.09 157.035 156.121C157.546 155.798 158.03 155.447 158.54 155.07L158.944 154.773C159.669 154.234 159.212 154.611 158.944 154.773C159.3 154.564 159.57 154.236 159.708 153.846C159.846 153.456 159.842 153.03 159.696 152.643C159.593 152.477 159.457 152.333 159.296 152.222C159.136 152.111 158.954 152.034 158.762 151.996C158.571 151.958 158.374 151.96 158.183 152.002C157.992 152.043 157.812 152.124 157.653 152.239C158.379 151.807 157.815 152.239 157.653 152.239L157.304 152.454C156.874 152.67 156.417 152.886 156.014 153.128L151.874 155.636C148.837 157.524 145.772 159.438 142.842 161.46L141.364 162.458C141.105 162.613 140.862 162.794 140.638 162.997C140.477 163.159 140.208 163.752 140.638 162.997C139.644 164.022 140.289 165.909 141.875 165.37L141.713 165.235Z" fill="#7C7C7C"/>
<path d="M146.659 173.325C147.409 173.191 148.141 172.965 148.836 172.651L153.218 171.006C156.605 169.685 159.938 168.31 163.271 166.962C163.701 166.773 164.158 166.611 164.561 166.395L164.91 166.206H164.749L165.287 165.937H165.609C166.005 165.794 166.342 165.523 166.566 165.166C166.79 164.81 166.889 164.388 166.846 163.969C166.806 163.781 166.725 163.605 166.609 163.453C166.493 163.301 166.345 163.177 166.175 163.089C166.005 163.001 165.818 162.952 165.628 162.946C165.437 162.94 165.247 162.976 165.072 163.052C164.453 163.294 163.781 163.402 163.163 163.645L158.728 165.344C156.927 166.045 155.153 166.8 153.352 167.528L150.825 168.552L149.696 169.038L149.239 169.226L148.836 169.388C148.245 169.685 149.078 169.388 148.702 169.388C147.769 169.694 146.869 170.092 146.014 170.575C145.72 170.756 145.484 171.016 145.332 171.327C145.179 171.637 145.118 171.984 145.153 172.327C145.218 172.632 145.396 172.902 145.65 173.082C145.904 173.261 146.216 173.339 146.524 173.298L146.659 173.325Z" fill="#7C7C7C"/>
<path d="M77.1998 77.4951C77.388 77.4951 77.1998 77.4951 77.1998 77.4951H77.0386C77.2466 77.4955 77.451 77.4397 77.63 77.3333H77.8988H78.0869L79.3233 76.6322L83.3823 74.1514C86.4735 72.2639 89.5111 70.3496 92.5216 68.3813C93.0324 68.0577 93.5162 67.7071 94.0269 67.3296L94.4302 67.0331C95.156 66.4938 94.699 66.8713 94.4302 67.0331C94.786 66.8241 95.0567 66.4957 95.1944 66.1058C95.3322 65.716 95.328 65.2899 95.1828 64.9028C95.0796 64.7365 94.9436 64.5932 94.7829 64.4818C94.6223 64.3705 94.4405 64.2934 94.2489 64.2555C94.0573 64.2176 93.8601 64.2197 93.6693 64.2614C93.4785 64.3032 93.2982 64.3839 93.1398 64.4984C93.8656 64.067 93.3011 64.4984 93.1398 64.4984L92.7904 64.6872L91.5002 65.3881L87.3607 67.8959C84.3232 69.7834 81.2587 71.6978 78.3288 73.7201L76.8504 74.7177C76.5914 74.8732 76.3484 75.0538 76.1247 75.257C75.9634 75.4188 75.6946 76.012 76.1247 75.257C75.1033 76.2817 75.7752 78.1692 77.3342 77.6299L77.1998 77.4951Z" fill="#7C7C7C"/>
<path d="M53.519 69.0011C47.5784 65.1992 39.4069 58.4851 40.509 50.4229C41.5304 42.9808 48.8687 40.7428 55.4275 41.6866C65.8571 43.1696 73.9212 52.7688 80.48 60.5614C92.7374 74.8253 103.812 90.2219 114.887 105.457C126.983 122.066 138.461 139.081 150.154 155.96C153.89 161.353 157.573 166.746 161.336 172.139C162.865 174.34 164.526 176.447 166.309 178.448C168.405 180.767 171.954 185.782 166.497 177.801C174.561 189.692 194.909 175.725 187.41 164.723C190.501 169.226 186.765 162.728 186.012 161.191C184.329 158.189 182.443 155.306 180.367 152.563C174.292 143.826 168.217 135.09 161.981 126.434C145.638 103.758 129.51 80.8922 112.333 58.8356C96.7962 38.8823 77.0124 13.2664 48.4924 19.0637C32.6599 22.2724 19.1659 35.9162 17.8757 52.4182C17.438 56.6314 17.8695 60.89 19.1431 64.9289C20.4166 68.9677 22.5051 72.7003 25.2786 75.8947C28.0521 79.0891 31.4511 81.6768 35.2644 83.4967C39.0776 85.3167 43.2235 86.3301 47.444 86.4738C56.1532 86.8243 60.8842 73.7468 53.3846 69.0281L53.519 69.0011Z" fill="#3B9278"/>
<path d="M52.9812 331.307C51.302 331.31 49.624 331.22 47.9546 331.037C39.2803 330.244 31.1912 326.308 25.2001 319.965C19.2089 313.623 15.726 305.309 15.4026 296.577C15.1607 278.7 28.6009 258.828 49.0299 258.073C51.2657 257.816 53.5195 258.367 55.3866 259.628C57.2537 260.888 58.6119 262.774 59.2175 264.948C59.9356 267.651 59.7576 270.516 58.7102 273.108C57.6628 275.701 55.8029 277.881 53.4114 279.32C44.3527 284.713 41.4227 289.594 43.8957 295.499C45.1617 298.138 47.25 300.291 49.8446 301.634C52.4393 302.977 55.3991 303.435 58.2767 302.941C66.7171 301.997 73.4371 294.177 79.3508 287.302L80.0497 286.466C90.8018 273.793 100.99 259.933 110.693 246.532L113.784 242.272C123.569 228.79 133.192 214.849 142.493 201.367L149.159 191.687C150.422 189.881 151.713 188.101 153.003 186.294C155.731 182.681 158.27 178.928 160.61 175.05C160.879 174.653 161.023 174.183 161.023 173.702C161.023 173.221 160.879 172.752 160.61 172.354C157.922 168.822 155.61 165.182 153.218 161.568C151.82 159.519 150.53 157.47 149.025 155.421L142.331 145.714C133.031 132.232 123.515 118.318 113.65 104.863L110.72 100.522C101.016 87.0398 90.9631 73.2072 80.0497 60.5341L79.3508 59.7252C73.4371 52.8225 66.7171 45.0299 58.2767 44.0592C55.3991 43.5645 52.4393 44.0232 49.8446 45.3659C47.25 46.7086 45.1617 48.8623 43.8957 51.5013C41.4227 57.3255 44.3527 62.2869 53.4114 67.6797C55.8051 69.1233 57.6658 71.3085 58.7131 73.9057C59.7605 76.503 59.9375 79.3714 59.2175 82.0784C58.5971 84.2417 57.2345 86.1156 55.3703 87.3688C53.5062 88.622 51.2605 89.174 49.0299 88.9273C28.6009 88.0645 15.1607 68.3267 15.4026 50.4226C15.7324 41.6959 19.2182 33.3882 25.2088 27.0515C31.1993 20.7147 39.2848 16.7827 47.9546 15.9897C76.9585 12.754 96.7155 38.0462 112.602 58.404L114.268 60.5611C128.73 79.0584 142.627 98.4725 156.067 117.186L162.949 126.812C169.642 136.141 176.201 145.687 182.249 154.315C184.187 156.967 185.982 159.721 187.625 162.566C192.275 171.168 192.275 176.695 187.625 184.515C185.636 187.804 184.023 190.312 182.41 192.604C176.335 201.421 169.776 210.859 163.11 220.107L156.04 229.949C142.6 248.824 128.73 268.076 114.268 286.574L112.602 288.731C97.5487 307.74 79.297 331.307 52.9812 331.307ZM49.6212 263.007H49.1643C31.5846 263.762 20.026 280.938 20.241 296.523C20.5331 304.06 23.5555 311.23 28.7417 316.691C33.9279 322.151 40.9216 325.526 48.4115 326.184C74.7005 329.123 93.5167 304.99 108.623 285.738L110.317 283.581C124.698 265.191 138.568 245.831 151.954 227.145L158.89 217.465C165.529 208.243 172.061 198.833 178.136 190.042C179.695 187.777 181.227 185.351 183.162 182.142C186.953 175.859 186.953 172.192 183.162 165.128C181.665 162.37 180.004 159.705 178.19 157.146C172.142 148.383 165.61 139 158.943 129.697L152.035 120.071C138.595 101.358 124.779 81.9975 110.371 63.4463L108.704 61.2892C93.5706 41.9021 74.7543 17.7423 48.4654 20.8432C40.9754 21.5004 33.9817 24.8757 28.7955 30.3362C23.6093 35.7967 20.5869 42.9673 20.2949 50.5036C20.0798 66.0888 31.6384 83.2918 49.2181 84.0199C50.3658 84.2466 51.5565 84.0312 52.5529 83.4165C53.5492 82.8018 54.2781 81.8331 54.5941 80.7033C54.9829 79.0522 54.8442 77.32 54.1978 75.7523C53.5514 74.1845 52.43 72.8602 50.9921 71.9669C39.8368 65.4146 35.9392 57.9187 39.4336 49.6677C41.0957 46.03 43.9034 43.0409 47.4245 41.1603C50.9457 39.2798 54.9853 38.6121 58.9218 39.2596C69.2708 40.4461 76.9585 49.3981 83.1141 56.5975L83.813 57.4334C94.8608 70.2682 104.968 84.2356 114.752 97.7176L117.816 101.951C127.628 115.433 137.251 129.427 146.552 142.909L153.272 152.616L157.492 158.818C159.83 162.296 162.277 165.91 164.776 169.361C165.584 170.554 166.016 171.963 166.016 173.406C166.016 174.848 165.584 176.257 164.776 177.45C162.367 181.493 159.737 185.399 156.901 189.153C155.637 190.905 154.212 192.631 153.137 194.545L146.444 204.225C137.117 217.708 127.493 231.702 117.682 245.211L114.591 249.471C104.833 262.953 94.7265 276.92 83.6786 289.755L82.9797 290.564C76.7973 297.764 69.1095 306.743 58.7875 307.902C54.8505 308.554 50.8091 307.889 47.2869 306.007C43.7647 304.126 40.9577 301.135 39.2992 297.494C35.8048 289.243 39.7024 281.747 50.8577 275.195C52.2956 274.301 53.417 272.977 54.0634 271.409C54.7098 269.842 54.8484 268.11 54.4596 266.458C54.2 265.396 53.5686 264.464 52.6803 263.83C51.7921 263.196 50.7063 262.904 49.6212 263.007Z" fill="#6DB998"/>
</g>
<defs>
<clipPath id="clip0_969_75078">
<rect width="203" height="347" fill="white"/>
</clipPath>
</defs>
</svg>
