<svg width="14" height="17" viewBox="0 0 14 17" fill="none" xmlns="http://www.w3.org/2000/svg">
<path d="M6.98239 1.00032C8.18127 0.987451 9.35432 1.36721 10.3393 2.08708C11.3243 2.80695 12.0727 3.83137 12.4808 5.01867C13.3353 7.45411 12.6046 10.216 10.6939 11.9056C9.84544 12.6551 9.02298 13.442 8.22648 14.2526C7.7858 14.7002 7.49428 15.2858 7.39536 15.9221C7.36939 16.0744 7.14342 16.2932 7.00923 16.2941C6.87504 16.295 6.64302 16.078 6.61878 15.9294C6.47852 15.0513 5.9937 14.3948 5.41365 13.8195C4.65871 13.07 3.84317 12.3888 3.07611 11.6503C1.29266 9.9233 0.696152 7.25534 1.55585 4.93478C2.43978 2.55039 4.5375 1.02585 6.98239 1.00032ZM9.09916 7.11674C9.09916 6.53249 8.87879 5.97216 8.48653 5.55903C8.09427 5.1459 7.56224 4.91381 7.0075 4.91381C6.45276 4.91381 5.92073 5.1459 5.52847 5.55903C5.13621 5.97216 4.91584 6.53249 4.91584 7.11674C4.91584 8.3641 5.82575 9.3215 7.02655 9.33062C7.30102 9.32992 7.57265 9.27194 7.82573 9.16005C8.07881 9.04816 8.30834 8.88457 8.50105 8.67872C8.69376 8.47288 8.84584 8.22886 8.9485 7.96076C9.05116 7.69266 9.10237 7.4058 9.09916 7.11674V7.11674Z" fill="#858585"/>
</svg>
