<svg width="1360" height="329" viewBox="0 0 1360 329" fill="none" xmlns="http://www.w3.org/2000/svg">
<path d="M256.512 155.133H270.47V33.1788H256.512V155.133ZM335.725 33.1788L283.382 94.1558L335.725 155.133H352.475L300.132 94.1558L352.475 33.1788H335.725Z" fill="white"/>
<path d="M443.224 33.1788L404.839 105.654L366.454 33.1788H350.751L396.988 120.463L378.667 155.133H394.37L458.927 33.1788H443.224Z" fill="white"/>
<path d="M548.872 155.133L493.039 29.6944L437.206 155.133H452.037L493.039 62.9704L534.042 155.133H548.872Z" fill="white"/>
<path d="M613.416 89.8003C621.093 89.8003 627.199 92.1813 631.736 96.9433C636.389 101.705 638.715 108.035 638.715 115.933C638.715 123.831 636.389 130.161 631.736 134.923C627.199 139.685 621.093 142.066 613.416 142.066H575.903V89.8003H613.416ZM613.416 155.133C625.28 155.133 634.818 151.59 642.03 144.505C649.125 137.304 652.673 127.78 652.673 115.933C652.673 104.086 649.125 94.5623 642.03 87.3612C634.818 80.2763 625.28 76.7338 613.416 76.7338H575.903V33.1788H561.944V155.133H613.416Z" fill="white"/>
<path d="M777.384 95.0269C777.384 109.778 772.906 121.566 763.949 130.394C755.109 139.337 743.303 143.809 728.53 143.809C713.758 143.809 701.893 139.337 692.937 130.394C684.097 121.566 679.676 109.778 679.676 95.0269C679.676 80.2763 684.097 68.4293 692.937 59.486C701.893 50.6589 713.758 46.2453 728.53 46.2453H784.363V33.1788H662.229V46.2453H711.257C696.95 48.9167 685.841 54.7821 677.932 63.8415C669.789 73.1332 665.718 84.9802 665.718 99.3824C665.718 116.921 671.418 130.858 682.817 141.195C694.216 151.648 709.454 156.875 728.53 156.875C747.607 156.875 762.844 151.242 774.244 139.976C785.643 128.709 791.342 113.727 791.342 95.0269H777.384Z" fill="white"/>
<path d="M889.016 33.1788L850.631 105.654L812.246 33.1788H796.543L842.78 120.463L824.459 155.133H840.162L904.719 33.1788H889.016Z" fill="white"/>
<path d="M932.663 98.5113V46.2453H970.176C977.853 46.2453 983.96 48.6263 988.496 53.3883C993.149 58.1503 995.475 64.4803 995.475 72.3783C995.475 80.2763 993.149 86.6063 988.496 91.3683C983.96 96.1303 977.853 98.5113 970.176 98.5113H932.663ZM918.705 33.1788V155.133H932.663V111.578H970.176C982.04 111.578 991.579 108.035 998.79 100.95C1005.89 93.7493 1009.43 84.2253 1009.43 72.3783C1009.43 60.5313 1005.89 51.0073 998.79 43.8062C991.579 36.7213 982.04 33.1788 970.176 33.1788H918.705Z" fill="white"/>
<path d="M1022.78 142.066L1058.02 62.9704L1071.98 94.33C1071.98 108.848 1067.62 120.405 1058.89 129C1050.17 137.711 1038.54 142.066 1024 142.066H1022.78ZM1113.85 155.133L1058.02 29.6944L1002.19 155.133H1024C1038.54 155.133 1050.34 150.08 1059.42 139.976C1068.37 129.987 1073.32 116.456 1074.25 99.3824L1099.02 155.133H1113.85Z" fill="white"/>
<path d="M113.737 276.961C111.066 287.995 105.549 296.706 97.1865 303.094C88.7078 309.482 78.2546 312.676 65.8269 312.676C50.7278 312.676 38.7066 308.146 29.7633 299.087C20.7039 290.027 16.1742 278.006 16.1742 263.023C16.1742 248.04 20.7039 236.019 29.7633 226.959C38.7066 217.9 50.7278 213.37 65.8269 213.37C78.2546 213.37 88.7078 216.564 97.1865 222.952C105.549 229.34 111.066 238.051 113.737 249.085H128.198C125.41 233.986 118.499 222.081 107.465 213.37C96.4315 204.659 82.552 200.304 65.8269 200.304C46.5465 200.304 31.1571 205.995 19.6586 217.377C8.04391 228.76 2.23657 243.975 2.23657 263.023C2.23657 281.955 8.04391 297.17 19.6586 308.669C31.1571 320.051 46.5465 325.742 65.8269 325.742C82.552 325.742 96.4315 321.387 107.465 312.676C118.499 303.965 125.41 292.06 128.198 276.961H113.737Z" fill="white"/>
<path d="M145.063 202.046V324H159.001V215.112H228.689V324H242.626V202.046H145.063Z" fill="white"/>
<path d="M323.591 312.676C308.492 312.676 296.471 308.146 287.527 299.087C278.468 290.027 273.938 278.006 273.938 263.023C273.938 248.04 278.468 236.019 287.527 226.959C296.471 217.9 308.492 213.37 323.591 213.37C338.69 213.37 350.711 217.9 359.654 226.959C368.714 236.019 373.244 248.04 373.244 263.023C373.244 278.006 368.714 290.027 359.654 299.087C350.711 308.146 338.69 312.676 323.591 312.676ZM323.591 200.304C304.31 200.304 288.921 205.995 277.423 217.377C265.808 228.76 260.001 243.975 260.001 263.023C260.001 282.071 265.808 297.286 277.423 308.669C288.921 320.051 304.31 325.742 323.591 325.742C342.871 325.742 358.261 320.051 369.759 308.669C381.374 297.286 387.181 282.071 387.181 263.023C387.181 243.975 381.374 228.76 369.759 217.377C358.261 205.995 342.871 200.304 323.591 200.304Z" fill="white"/>
<path d="M404.528 324H418.466V202.046H404.528V324ZM483.624 202.046L431.358 263.023L483.624 324H500.349L448.083 263.023L500.349 202.046H483.624Z" fill="white"/>
<path d="M558.727 312.676C543.628 312.676 531.606 308.146 522.663 299.087C513.604 290.027 509.074 278.006 509.074 263.023C509.074 248.04 513.604 236.019 522.663 226.959C531.606 217.9 543.628 213.37 558.727 213.37C573.826 213.37 585.847 217.9 594.79 226.959C603.85 236.019 608.379 248.04 608.379 263.023C608.379 278.006 603.85 290.027 594.79 299.087C585.847 308.146 573.826 312.676 558.727 312.676ZM558.727 200.304C539.446 200.304 524.057 205.995 512.558 217.377C500.944 228.76 495.136 243.975 495.136 263.023C495.136 282.071 500.944 297.286 512.558 308.669C524.057 320.051 539.446 325.742 558.727 325.742C578.007 325.742 593.396 320.051 604.895 308.669C616.51 297.286 622.317 282.071 622.317 263.023C622.317 243.975 616.51 228.76 604.895 217.377C593.396 205.995 578.007 200.304 558.727 200.304Z" fill="white"/>
<path d="M653.602 291.072V202.046H639.664V327.484L723.29 234.974V324H737.227V198.562L653.602 291.072ZM664.055 188.108H712.836V175.913H664.055V188.108Z" fill="white"/>
<path d="M866.102 276.961C863.431 287.995 857.914 296.706 849.551 303.094C841.073 309.482 830.62 312.676 818.192 312.676C803.093 312.676 791.072 308.146 782.128 299.087C773.069 290.027 768.539 278.006 768.539 263.023C768.539 248.04 773.069 236.019 782.128 226.959C791.072 217.9 803.093 213.37 818.192 213.37C830.62 213.37 841.073 216.564 849.551 222.952C857.914 229.34 863.431 238.051 866.102 249.085H880.563C877.775 233.986 870.864 222.081 859.83 213.37C848.797 204.659 834.917 200.304 818.192 200.304C798.911 200.304 783.522 205.995 772.024 217.377C760.409 228.76 754.602 243.975 754.602 263.023C754.602 281.955 760.409 297.17 772.024 308.669C783.522 320.051 798.911 325.742 818.192 325.742C834.917 325.742 848.797 321.387 859.83 312.676C870.864 303.965 877.775 292.06 880.563 276.961H866.102Z" fill="white"/>
<path d="M1002.34 263.894C1002.34 278.645 997.869 290.434 988.926 299.261C980.099 308.204 968.31 312.676 953.559 312.676C938.809 312.676 926.962 308.204 918.019 299.261C909.191 290.434 904.778 278.645 904.778 263.894C904.778 249.143 909.191 237.297 918.019 228.353C926.962 219.526 938.809 215.112 953.559 215.112H1009.31V202.046H887.356V215.112H936.312C922.026 217.784 910.934 223.649 903.036 232.709C894.905 242 890.84 253.847 890.84 268.25C890.84 285.788 896.531 299.725 907.914 310.062C919.296 320.516 934.511 325.742 953.559 325.742C972.607 325.742 987.823 320.109 999.205 308.843C1010.59 297.577 1016.28 282.594 1016.28 263.894H1002.34Z" fill="white"/>
<path d="M1045.86 310.934V269.121H1091.16C1097.55 269.121 1102.6 271.037 1106.32 274.87C1110.15 278.587 1112.07 283.639 1112.07 290.027C1112.07 296.299 1110.15 301.351 1106.32 305.184C1102.6 309.017 1097.55 310.934 1091.16 310.934H1045.86ZM1045.86 215.112H1086.46C1092.61 215.112 1097.55 216.971 1101.26 220.688C1104.98 224.404 1106.84 229.34 1106.84 235.496C1106.84 241.768 1104.98 246.762 1101.26 250.479C1097.55 254.196 1092.61 256.054 1086.46 256.054H1045.86V215.112ZM1099.87 261.978C1113.81 257.913 1120.78 248.505 1120.78 233.754C1120.78 224.23 1117.64 216.564 1111.37 210.757C1105.1 204.95 1096.79 202.046 1086.46 202.046H1031.92V324H1091.16C1101.73 324 1110.15 321.096 1116.42 315.289C1122.81 309.366 1126 301.526 1126 291.769C1126 283.523 1123.68 276.844 1119.03 271.734C1114.39 266.624 1108 263.371 1099.87 261.978Z" fill="white"/>
<path d="M1157.39 291.072V202.046H1143.45V327.484L1227.08 234.974V324H1241.02V198.562L1157.39 291.072Z" fill="white"/>
<path d="M1336.79 263.894H1296.72C1289.29 263.894 1283.36 261.687 1278.95 257.274C1274.53 252.86 1272.33 246.937 1272.33 239.503C1272.33 232.07 1274.53 226.146 1278.95 221.733C1283.36 217.319 1289.29 215.112 1296.72 215.112H1336.79V263.894ZM1256.65 324H1272.68L1298.11 289.679C1301.83 284.684 1305.55 281.258 1309.26 279.4C1312.63 277.774 1317.33 276.961 1323.37 276.961H1336.79V324H1350.73V202.046H1296.72C1285.1 202.046 1275.81 205.472 1268.84 212.325C1261.87 219.061 1258.39 228.121 1258.39 239.503C1258.39 250.886 1261.87 259.945 1268.84 266.682C1275.81 273.534 1285.1 276.961 1296.72 276.961H1303.16C1293.99 278.819 1286.67 283.465 1281.21 290.898L1256.65 324Z" fill="white"/>
</svg>
