<svg width="77" height="40" viewBox="0 0 77 40" fill="none" xmlns="http://www.w3.org/2000/svg">
<mask id="mask0_1059_24253" style="mask-type:alpha" maskUnits="userSpaceOnUse" x="1" y="1" width="37" height="38">
<circle cx="19.1901" cy="19.8229" r="18.1901" fill="#D9D9D9"/>
</mask>
<g mask="url(#mask0_1059_24253)">
<rect x="1" y="1.63281" width="36" height="36" fill="#FC3F1D"/>
<path d="M21.7539 30.7539H25.5542V8.92578H20.0265C14.4673 8.92578 11.5465 11.7839 11.5465 15.9924C11.5465 19.353 13.1482 21.3317 16.0063 23.3732L11.0439 30.7539H15.1583L20.686 22.4938L18.7702 21.2061C16.446 19.6357 15.3153 18.4108 15.3153 15.7726C15.3153 13.4484 16.9485 11.8781 20.0579 11.8781H21.7539V30.7539Z" fill="white"/>
</g>
<mask id="mask1_1059_24253" style="mask-type:alpha" maskUnits="userSpaceOnUse" x="39" y="1" width="37" height="37">
<circle cx="57.8203" cy="19.6328" r="18" fill="#D9D9D9"/>
</mask>
<g mask="url(#mask1_1059_24253)">
<rect x="39.8203" y="1.63281" width="36" height="36" fill="url(#paint0_linear_1059_24253)"/>
<path d="M53.505 16.3555L53.5054 16.3555C56.0816 16.3569 58.6578 16.3564 61.2339 16.356C62.5041 16.3557 63.7743 16.3555 65.0445 16.3555C68.2324 16.3534 70.5232 18.4859 70.5138 21.7239C70.5093 23.2586 70.3549 25.6472 70.1191 28.2266C69.8439 31.2372 69.4458 34.6821 68.985 37.6322H66.0896C66.5586 34.7202 66.9797 31.1527 67.2711 27.9662C67.2887 27.7736 67.3059 27.5859 67.3227 27.4028C67.5276 25.1748 67.6706 23.6187 67.6536 21.8956C67.6352 20.0309 66.8009 19.2155 65.0248 19.2155H53.6633C51.071 19.2155 49.3814 19.4106 48.2714 21.9975C47.6572 23.4287 46.7202 26.3852 46.0444 29.9384C45.5817 32.3717 45.2515 35.0335 45.22 37.6322H42.3599C42.3916 34.7977 42.7509 31.9486 43.2348 29.4041C43.9386 25.7035 44.9273 22.538 45.6432 20.8697C47.1792 17.2899 49.8517 16.3535 53.505 16.3555Z" fill="#FF6D3A"/>
<path d="M61.2715 37.6322H58.4092C58.647 31.7919 59.7963 25.8087 61.0555 22.2858C61.3213 21.5421 62.1397 21.1547 62.8834 21.4206C63.627 21.6864 64.0144 22.5047 63.7486 23.2484C62.6012 26.4583 61.5084 32.1033 61.2715 37.6322Z" fill="#FF6D3A"/>
<path fill-rule="evenodd" clip-rule="evenodd" d="M61.9736 10.7351C61.5523 10.8777 61.4315 11.0365 61.3587 11.2095C61.0326 11.9834 60.7635 12.8984 60.2793 14.6675C60.0708 15.4292 59.2843 15.8777 58.5226 15.6692C57.7608 15.4607 57.3123 14.6742 57.5208 13.9125C57.9956 12.1778 58.3112 11.0768 58.723 10.0991C59.1805 9.01318 60.0397 8.37037 61.0565 8.02613C62.0061 7.70464 63.1483 7.62109 64.3639 7.62109C65.643 7.62109 66.8388 7.80121 67.7644 8.31358C68.7923 8.88258 69.5246 9.66079 69.4204 11.0849C69.3162 12.509 69.0649 13.5034 68.8323 14.6786C68.679 15.4533 67.9266 15.957 67.1519 15.8037C66.3771 15.6503 65.8734 14.8979 66.0268 14.1232C66.1941 13.2781 66.3478 12.5381 66.5385 11.5442C66.6037 11.2044 66.6529 10.9672 66.3793 10.8158C66.074 10.6468 65.448 10.4811 64.3639 10.4811C63.2163 10.4811 62.4621 10.5697 61.9736 10.7351Z" fill="url(#paint1_linear_1059_24253)"/>
</g>
<defs>
<linearGradient id="paint0_linear_1059_24253" x1="75.676" y1="1.47585" x2="40.2443" y2="37.6457" gradientUnits="userSpaceOnUse">
<stop stop-color="#FFEB75"/>
<stop offset="0.920669" stop-color="#FEE14A"/>
</linearGradient>
<linearGradient id="paint1_linear_1059_24253" x1="63.45" y1="17.7543" x2="69.4302" y2="7.62109" gradientUnits="userSpaceOnUse">
<stop stop-color="#BB0C40"/>
<stop offset="0.76762" stop-color="#C70E4B"/>
</linearGradient>
</defs>
</svg>
