<svg width="325" height="326" viewBox="0 0 325 326" fill="none" xmlns="http://www.w3.org/2000/svg">
<g clip-path="url(#clip0_819_19346)">
<path d="M254.885 93.1015C264.323 91.8923 273.908 93.4735 282.451 97.6492C290.994 101.825 298.118 108.411 302.936 116.588C306.717 124.646 307.68 133.734 305.672 142.401C303.664 151.068 298.801 158.815 291.858 164.405C300.861 170.368 307.728 179.03 311.465 189.139C315.201 199.248 315.615 210.28 312.645 220.638C309.676 230.997 303.477 240.145 294.945 246.761C286.414 253.376 275.991 257.116 265.187 257.438C267.186 269.479 264.979 281.84 258.933 292.454C252.888 303.068 243.371 311.293 231.972 315.754C220.573 320.216 207.984 320.644 196.307 316.967C184.629 313.29 174.571 305.73 167.814 295.552C159.912 312.147 139.59 320.233 121.386 319.038C90.1987 316.999 69.9481 289.364 67.1963 258.353C58.0605 259.631 48.7503 258.708 40.0461 255.662C31.3418 252.615 23.4973 247.533 17.1697 240.843C7.997 230.013 7.997 211.519 10.1138 198.651C12.7961 185.849 18.3702 173.825 26.413 163.491C19.8376 156.406 15.6303 147.462 14.3722 137.892C13.114 128.323 14.8672 118.6 19.3889 110.066C23.9107 101.532 30.9786 94.6059 39.6176 90.2447C48.2565 85.8836 58.0403 84.3017 67.6196 85.7176C66.301 73.4347 69.107 61.063 75.5981 50.5393C82.0891 40.0156 91.8989 31.9345 103.491 27.5609C115.083 23.1874 127.804 22.7684 139.66 26.3699C151.517 29.9714 161.84 37.3899 169.014 47.4637C177.815 41.6079 188.056 38.2636 198.628 37.7926C209.2 37.3216 219.699 39.7417 228.989 44.7915C237.669 49.552 244.74 56.7673 249.311 65.5273C253.882 74.2873 255.748 84.1999 254.673 94.0152L254.885 93.1015Z" fill="#CF9D76"/>
<path d="M254.391 98.7265C270.549 98.0936 288.542 104.282 296.727 119.189C300.199 126.012 301.21 133.817 299.591 141.294C297.972 148.772 293.822 155.467 287.836 160.256C287.076 160.876 286.471 161.665 286.072 162.56C285.673 163.455 285.49 164.43 285.538 165.408C285.586 166.386 285.863 167.34 286.348 168.191C286.833 169.043 287.512 169.769 288.33 170.312C295.974 175.75 301.806 183.346 305.076 192.12C308.346 200.894 308.903 210.443 306.676 219.536C303.99 228.344 298.621 236.102 291.314 241.734C284.006 247.366 275.122 250.593 265.892 250.968C263.813 251.199 261.907 252.235 260.587 253.853C259.267 255.471 258.638 257.542 258.836 259.618C260.423 270.079 258.441 280.767 253.209 289.972C247.977 299.178 239.796 306.367 229.977 310.388C219.829 313.828 208.834 313.883 198.651 310.547C188.468 307.211 179.651 300.664 173.53 291.894C172.87 290.976 171.982 290.244 170.954 289.769C169.925 289.294 168.791 289.093 167.661 289.185C166.531 289.277 165.444 289.659 164.507 290.294C163.569 290.929 162.812 291.795 162.311 292.809C151.868 312.99 124.35 317.421 105.016 307.857C85.6829 298.294 75.5224 277.057 73.4056 256.242C73.1636 254.917 72.4222 253.735 71.3333 252.937C70.2443 252.14 68.8902 251.787 67.5491 251.953C50.4031 254.766 26.6953 247.523 18.8632 230.857C8.77316 209.761 18.8632 183.954 31.7051 166.444C32.487 165.297 32.869 163.925 32.7925 162.54C32.716 161.156 32.1853 159.834 31.2817 158.779C25.8236 152.621 22.2882 145.009 21.11 136.877C19.9317 128.745 21.1619 120.446 24.6491 113.001C28.5618 105.878 34.5425 100.1 41.8075 96.4234C49.0726 92.7468 57.2826 91.3434 65.3617 92.3976C66.5193 92.5061 67.6869 92.359 68.7807 91.9662C69.8746 91.5735 70.8681 90.9448 71.6903 90.1254C72.5125 89.306 73.1429 88.3159 73.537 87.2258C73.9311 86.1356 74.0792 84.9725 73.9702 83.8188C73.0458 72.8007 75.8702 61.7933 81.9887 52.5702C88.1072 43.3472 97.1631 36.4454 107.697 32.9774C118.014 30.1782 128.941 30.5766 139.025 34.1191C149.108 37.6615 157.871 44.18 164.145 52.8076C165.839 55.0578 169.931 54.4953 171.907 52.8076C179.787 47.6424 188.931 44.7168 198.355 44.3451C207.779 43.9734 217.126 46.1697 225.391 50.6981C241.831 59.8396 248.252 76.2945 248.887 94.2963C248.887 101.328 258.907 101.328 260.389 94.7886V93.8041C262.223 85.7173 250.863 84.6627 249.24 91.7649V92.7491L260.741 93.2414C262.116 82.4276 260.201 71.4515 255.244 61.7349C250.288 52.0182 242.518 44.0087 232.941 38.7437C222.602 33.2476 210.963 30.646 199.259 31.2155C187.556 31.7851 176.226 35.5047 166.474 41.9785L174.306 42.4004C165.999 31.6469 154.444 23.8392 141.346 20.1294C128.247 16.4196 114.299 17.0041 101.559 21.7968C88.7349 27.1775 77.9464 36.461 70.7355 48.3203C63.5247 60.1797 60.2607 74.0077 61.4104 87.8271L70.0189 79.2478C58.9697 77.9317 47.7766 79.8996 37.8463 84.9042C27.916 89.9088 19.6913 97.7267 14.206 107.376C9.10416 117.108 7.08754 128.154 8.42309 139.053C9.75864 149.953 14.3834 160.191 21.6853 168.413V160.748C6.37388 181.844 -4.28062 212.574 7.57339 238.1C17.1695 258.493 45.6758 268.267 66.9143 264.751L61.0577 260.462C63.8095 286.48 78.2744 312.779 104.029 321.991C129.783 331.203 160.899 322.484 173.459 298.153L162.24 299.137C169.979 310.472 181.333 318.869 194.461 322.967C207.589 327.064 221.72 326.621 234.564 321.71C247.219 316.192 257.723 306.711 264.485 294.707C271.246 282.702 273.895 268.828 272.031 255.188L264.975 263.837C277.23 263.093 288.97 258.663 298.646 251.13C308.321 243.597 315.476 233.316 319.165 221.645C322.349 209.992 321.819 197.641 317.647 186.302C313.475 174.962 305.868 165.197 295.88 158.357L296.374 168.413C304.051 161.87 309.416 153.041 311.677 143.23C313.938 133.418 312.976 123.141 308.934 113.915C299.62 93.8743 275.982 85.3655 255.097 87.4751C248.817 88.1783 246.559 99.0781 254.391 98.7265Z" fill="#CF9D76"/>
<path d="M225.885 119.119C232.302 118.289 238.822 119.361 244.631 122.199C250.441 125.038 255.283 129.518 258.555 135.082C261.133 140.568 261.79 146.757 260.422 152.66C259.053 158.562 255.737 163.837 251.005 167.64C257.091 171.717 261.725 177.611 264.243 184.476C266.76 191.341 267.032 198.824 265.018 205.852C263.004 212.88 258.809 219.091 253.034 223.596C247.258 228.101 240.2 230.668 232.871 230.927C234.315 239.158 232.86 247.633 228.75 254.917C224.641 262.2 218.13 267.843 210.323 270.889C202.516 273.935 193.892 274.197 185.913 271.63C177.934 269.063 171.092 263.825 166.545 256.805C163.398 262.24 158.736 266.647 153.125 269.493C147.514 272.339 141.195 273.501 134.934 272.838C113.767 271.432 99.6543 252.656 98.0315 231.56C91.8061 232.418 85.4652 231.78 79.5371 229.701C73.609 227.621 68.2656 224.16 63.9515 219.606C61.2923 215.389 59.5098 210.683 58.7099 205.767C57.9099 200.85 58.1085 195.824 59.2943 190.986C61.0875 182.293 64.8795 174.133 70.3722 167.147C65.8579 162.32 62.9671 156.209 62.1026 149.667C61.2381 143.124 62.4429 136.476 65.5492 130.648C68.6556 124.82 73.5084 120.103 79.432 117.155C85.3556 114.206 92.0549 113.172 98.5961 114.197C113.19 60.1387 169.767 83.5555 208.457 86.0691C214.344 89.3033 219.139 94.1996 222.24 100.143C225.341 106.086 226.609 112.811 225.885 119.471V119.119Z" fill="#845013"/>
<path d="M224.898 130.37C229.059 130.325 233.167 131.302 236.859 133.216C240.551 135.129 243.713 137.919 246.066 141.34C247.706 144.296 248.224 147.742 247.524 151.048C246.824 154.353 244.954 157.297 242.255 159.342C240.751 160.594 239.559 162.179 238.776 163.97C237.992 165.761 237.637 167.709 237.74 169.661C237.843 171.612 238.4 173.513 239.367 175.213C240.335 176.912 241.686 178.364 243.314 179.453C246.969 181.858 249.785 185.335 251.375 189.403C252.964 193.47 253.248 197.929 252.187 202.164C251.127 206.4 248.774 210.203 245.453 213.05C242.133 215.896 238.008 217.646 233.647 218.058C231.577 218.26 229.567 218.869 227.734 219.85C225.901 220.831 224.281 222.164 222.969 223.773C221.657 225.382 220.678 227.234 220.088 229.222C219.499 231.211 219.311 233.296 219.535 235.357C220.355 240.376 219.395 245.522 216.819 249.911C214.244 254.3 210.214 257.658 205.423 259.406C200.342 260.677 194.997 260.421 190.063 258.669C185.128 256.917 180.824 253.748 177.694 249.562C176.354 247.732 174.562 246.278 172.492 245.341C170.423 244.404 168.146 244.016 165.881 244.214C163.617 244.412 161.443 245.19 159.569 246.472C157.695 247.754 156.185 249.496 155.185 251.531C149.893 261.305 136.346 262.008 126.961 257.086C121.926 253.849 117.75 249.448 114.789 244.257C111.829 239.065 110.171 233.238 109.956 227.27C109.472 224.639 107.997 222.292 105.832 220.71C103.667 219.127 100.978 218.431 98.314 218.762C89.2824 220.098 76.2287 216.933 72.1362 207.932C66.7031 196.048 73.3358 182.195 80.1801 172.773C81.7711 170.505 82.5584 167.774 82.4178 165.01C82.2773 162.247 81.2165 159.609 79.4036 157.513C68.9608 145.278 75.4524 125.377 93.1628 127.276C95.4837 127.519 97.83 127.242 100.03 126.466C102.23 125.69 104.227 124.434 105.877 122.789C107.527 121.145 108.788 119.153 109.567 116.961C110.346 114.769 110.623 112.431 110.379 110.118C110.018 104.963 111.399 99.8349 114.301 95.5527C117.204 91.2704 121.462 88.0802 126.397 86.4906C132.049 85.2918 137.931 85.7946 143.296 87.9357C148.661 90.0768 153.266 93.7593 156.526 98.515C159.983 103.015 167.956 101.89 172.048 99.2884C176.349 96.5211 181.359 95.0492 186.478 95.0492C191.597 95.0492 196.607 96.5211 200.908 99.2884C210.151 105.125 211.35 114.126 213.185 124.041C215.443 136.417 233.647 132.409 236.046 122.072V121.439C239.786 105.266 216.995 103.156 213.679 117.431V118.064L236.046 122.072C238.233 113.161 237.447 103.782 233.805 95.357C230.164 86.9315 223.866 79.9182 215.866 75.38C207.403 70.7262 197.819 68.4813 188.163 68.8905C178.506 69.2998 169.148 72.3477 161.112 77.7007L176.635 78.4741C169.733 69.9785 160.255 63.9408 149.62 61.2658C138.986 58.5909 127.768 59.4227 117.647 63.6367C107.07 68.2913 98.2118 76.1163 92.3058 86.0228C86.3998 95.9292 83.7397 107.424 84.6956 118.908L101.912 101.75C92.447 100.626 82.8591 102.299 74.3408 106.563C65.8225 110.826 58.7499 117.491 54.0023 125.729C49.4995 133.861 47.6192 143.178 48.6165 152.413C49.6138 161.648 53.4403 170.352 59.5764 177.343L58.871 162.084C47.017 178.68 38.9024 203.221 48.5691 222.84C56.6835 239.295 78.5572 247.452 96.056 244.78L84.4135 236.201C86.6009 256.383 98.5256 276.283 118.071 283.315C128.731 287.097 140.381 287.06 151.017 283.21C161.653 279.36 170.612 271.938 176.353 262.219L153.844 264.188C159.988 273.303 169.013 280.109 179.484 283.523C189.955 286.938 201.271 286.766 211.633 283.034C222.646 278.655 231.886 270.753 237.902 260.569C243.918 250.386 246.367 238.5 244.866 226.778L230.754 244.006C241.077 243.263 250.942 239.466 259.088 233.102C267.233 226.738 273.288 218.097 276.477 208.284C279.249 198.686 278.898 188.46 275.476 179.073C272.053 169.686 265.734 161.621 257.426 156.036L258.414 176.148C265.432 170.758 270.384 163.134 272.445 154.545C274.505 145.957 273.549 136.924 269.735 128.954C265.922 120.983 259.482 114.556 251.49 110.745C243.498 106.933 234.435 105.967 225.815 108.008C213.89 109.766 209.022 130.018 224.898 130.37Z" fill="#234A87"/>
</g>
<defs>
<clipPath id="clip0_819_19346">
<rect width="319" height="308" fill="white" transform="translate(2 18)"/>
</clipPath>
</defs>
</svg>
